<svg width="78" height="45" viewBox="0 0 78 45" fill="none" xmlns="http://www.w3.org/2000/svg">
<path d="M20.5515 44.5551C16.6446 44.5551 13.1391 43.5917 10.0349 41.665C6.93079 39.6848 4.46889 37.0356 2.64922 33.7174C0.883074 30.3456 0 26.5457 0 22.3177C0 18.0896 0.963353 14.2897 2.89006 10.918C4.87029 7.54626 7.51951 4.89704 10.8377 2.97034C14.2095 0.990113 17.9826 0 22.1571 0C26.3316 0 30.078 0.990113 33.3962 2.97034C36.7145 4.89704 39.3369 7.54626 41.2636 10.918C43.2439 14.2897 44.234 18.0896 44.234 22.3177H41.1031C41.1031 26.5457 40.1932 30.3456 38.3736 33.7174C36.6074 37.0356 34.1723 39.6848 31.0681 41.665C27.964 43.5917 24.4585 44.5551 20.5515 44.5551ZM22.1571 37.3299C24.8866 37.3299 27.3218 36.6877 29.4625 35.4032C31.6033 34.0652 33.2892 32.2723 34.5201 30.0245C35.7511 27.7232 36.3666 25.1542 36.3666 22.3177C36.3666 19.4276 35.7511 16.8587 34.5201 14.6109C33.2892 12.3095 31.6033 10.5166 29.4625 9.23213C27.3218 7.89414 24.8866 7.22515 22.1571 7.22515C19.4811 7.22515 17.046 7.89414 14.8517 9.23213C12.7109 10.5166 10.9983 12.3095 9.71381 14.6109C8.48286 16.8587 7.86738 19.4276 7.86738 22.3177C7.86738 25.1542 8.48286 27.7232 9.71381 30.0245C10.9983 32.2723 12.7109 34.0652 14.8517 35.4032C17.046 36.6877 19.4811 37.3299 22.1571 37.3299ZM40.1397 44.3142C38.9623 44.3142 37.9722 43.9396 37.1694 43.1903C36.4201 42.3875 36.0455 41.3974 36.0455 40.22V27.9372L37.5708 19.4276L44.234 22.3177V40.22C44.234 41.3974 43.8326 42.3875 43.0298 43.1903C42.2805 43.9396 41.3171 44.3142 40.1397 44.3142Z" fill="#353535"/>
<path d="M55.9901 44.2047C55.3852 44.2047 54.9169 43.8827 54.5852 43.2388L48.3803 30.1558C48.2242 29.8241 48.2047 29.5021 48.3217 29.1899C48.4583 28.8582 48.712 28.6046 49.0827 28.4289C49.4144 28.2533 49.7461 28.2241 50.0778 28.3411C50.4291 28.4582 50.6925 28.6826 50.8681 29.0143L56.6633 41.512H55.2584L60.995 29.0143C61.1706 28.6826 61.434 28.4582 61.7853 28.3411C62.156 28.2241 62.5267 28.2533 62.8975 28.4289C63.2487 28.585 63.4828 28.829 63.5999 29.1607C63.717 29.4924 63.6975 29.8241 63.5414 30.1558L57.3364 43.2388C57.0438 43.8827 56.595 44.2047 55.9901 44.2047Z" fill="#353535"/>
<path d="M72.0428 44.351C70.4818 44.351 69.0867 43.9998 67.8574 43.2974C66.6476 42.5754 65.6915 41.6095 64.9891 40.3998C64.3062 39.1705 63.9647 37.7851 63.9647 36.2436C63.9647 34.6631 64.3062 33.2583 64.9891 32.029C65.672 30.7997 66.6086 29.8436 67.7989 29.1607C68.9891 28.4582 70.355 28.107 71.8965 28.107C73.0477 28.107 74.1014 28.3314 75.0575 28.7802C76.0136 29.2094 76.8721 29.8631 77.6331 30.7412C77.9063 31.0534 78.0038 31.3753 77.9258 31.707C77.8477 32.0387 77.6331 32.3314 77.2819 32.5851C77.0087 32.7802 76.7063 32.8485 76.3745 32.79C76.0428 32.7119 75.7404 32.5363 75.4672 32.2631C74.5111 31.2485 73.3209 30.7412 71.8965 30.7412C70.9013 30.7412 70.0233 30.9753 69.2623 31.4436C68.5013 31.8924 67.9062 32.5265 67.4769 33.3461C67.0476 34.1656 66.833 35.1314 66.833 36.2436C66.833 37.2973 67.0476 38.2339 67.4769 39.0534C67.9257 39.8729 68.5403 40.5266 69.3208 41.0144C70.1013 41.4827 71.0086 41.7169 72.0428 41.7169C72.7257 41.7169 73.3209 41.6388 73.8282 41.4827C74.355 41.3071 74.8331 41.0437 75.2623 40.6925C75.5745 40.4388 75.8965 40.3022 76.2282 40.2827C76.5599 40.2437 76.8526 40.3315 77.1063 40.5461C77.438 40.8193 77.6233 41.1315 77.6624 41.4827C77.7014 41.8144 77.5843 42.1169 77.3111 42.39C75.9062 43.6974 74.1501 44.351 72.0428 44.351Z" fill="#353535"/>
</svg>
