<svg version="1.1" id="Layer_1" xmlns="http://www.w3.org/2000/svg" x="0" y="0" viewBox="0 0 500 500" style="enable-background:new 0 0 500 500" xml:space="preserve"><style>.st0{fill:#094c44}.st2{fill:#047a69}.st4{fill:#0a6159}.st5{fill:#2abcaa}.st6{fill:#1f9b89}</style><path class="st0" d="M255.6 94.4c-12.4 1.9-25.6 1.4-36.8 6.9-10.2 5.1-17.8 14.7-28.3 19-11.7 4.8-24.8 2.4-37.4 1.4-12.6-1.1-26.8 0-35.2 9.4 10.8-33.8 32.9-63.7 60.9-85.5s61.9-35.7 97-41.5c10.6-1.8 21.7-2.9 32.2-.1 10.5 2.8 20.3 10.1 23.6 20.4 5.1 16.2-12.8 31.7-22.9 42.3-14.1 14.6-33 24.6-53.1 27.7z"/><path class="st0" d="M463.7 96c-10.3 15.1-29.6 20.3-46.3 27.8-16.7 7.5-33.9 22.3-31.1 40.3 1.4 9.1 7.9 18.5 3.6 26.7-6.3 11.9-26.7 5.8-35.8 15.7-6.3 6.9-3.9 17.8-6.3 26.8-3 11.7-13.9 19.7-25.1 24.3-11.1 4.7-23.2 7.1-33.8 12.9-10.6 5.8-19.8 16.5-19 28.6-6-21.6-12.1-43.4-12.2-65.8-.1-22.4 6.4-45.7 22.4-61.4 10.8-10.7 26.5-19.1 28.6-34.2 1.3-9.4-3.3-18.4-6.9-27.1-3.5-8.8-5.9-19.3-.6-27.2 5.7-8.5 17.7-10 25.6-16.5 10.4-8.6 11.5-23.8 16.8-36.2 8.7-20.6 30.4-34.2 52.7-36.4 21.7-2.2 51.5 3.9 61.1 25.6 9.7 21.8 21.2 54.3 6.3 76.1z"/><path d="M396.5 77.7c-18.7 11.2-38.9 20-59.9 25.9-.7.2-.4 1.3.3 1.1 20.3-5.8 39.9-14.1 58.1-24.8-2.3 2.9-4.6 5.7-7 8.5-26.8 32.1-56.1 62.7-77.3 99-.4.6-.7 1.3-1.1 1.9h-.1c-8.1 5.9-16.2 11.8-24.2 17.8-.6.4.2 1.3.8.8 7.4-5.4 14.8-10.8 22.1-16.2-.1.1-.2.3-.2.4-10.2 18.4-18.1 38.2-21.7 59-.1.7 1 1 1.1.3 3.6-20.4 11.1-39.4 20.8-57.3 1.1 8.6 2.2 17.2 3.4 25.8.1.7 1.2.4 1.1-.3l-3.6-27.3c10.1-18.2 22.5-35.2 35.6-51.3 11.3-14 23.2-27.5 34.9-41.1-9.8 23.6-16.1 48.5-18.5 73.9-.1.7 1.1.7 1.2 0 2.5-26.1 9-51.7 19.3-75.8.1-.2 0-.4 0-.5 15.2-17.8 30-36 42.6-55.8 12.6-19.8 22.7-41.2 28-64.2.2-.7-.9-1-1.1-.3-8.7 37.7-30.2 70.3-54.1 100.1-.3.3-.4.3-.5.4z" style="fill:#06332c"/><path class="st2" d="M451.8 187.6c-7.1 10.4-20.5 14.1-32 19.2-11.5 5.2-23.5 15.4-21.5 27.9 1 6.3 5.4 12.8 2.5 18.5-4.3 8.2-18.5 4-24.7 10.9-4.4 4.8-2.7 12.3-4.3 18.5-2.1 8.1-9.6 13.6-17.3 16.8-7.7 3.2-16.1 4.9-23.4 8.9-7.3 4-13.7 11.4-13.1 19.7-4.2-14.9-8.3-30-8.4-45.5-.1-15.5 4.4-31.6 15.5-42.5 7.5-7.4 18.3-13.2 19.8-23.6.9-6.5-2.3-12.7-4.7-18.7-2.4-6.1-4.1-13.4-.4-18.8 3.9-5.9 12.3-6.9 17.7-11.4 7.2-6 8-16.4 11.6-25 6-14.3 21-23.7 36.4-25.2 15-1.5 35.6 2.7 42.2 17.7 6.4 15.1 14.4 37.6 4.1 52.6z"/><path d="M405.4 175c-13 7.8-26.9 13.8-41.4 17.9-.5.1-.3.9.2.8 14.1-4 27.6-9.8 40.2-17.2-1.6 2-3.2 3.9-4.8 5.9-18.5 22.2-38.8 43.3-53.5 68.4-.3.4-.5.9-.7 1.3h-.1l-16.8 12.3c-.4.3.1.9.6.6 5.1-3.7 10.2-7.5 15.3-11.2-.1.1-.2.2-.2.3-7.1 12.7-12.5 26.4-15 40.8-.1.5.7.7.8.2 2.5-14.1 7.6-27.2 14.4-39.6.8 6 1.6 11.9 2.3 17.9.1.5.8.3.8-.2-.8-6.3-1.6-12.6-2.5-18.8 7-12.6 15.6-24.3 24.6-35.5 7.8-9.7 16-19 24.1-28.4-6.8 16.3-11.1 33.5-12.8 51.1 0 .5.8.5.8 0 1.7-18 6.2-35.7 13.4-52.4.1-.1 0-.2 0-.3 10.5-12.3 20.7-24.9 29.4-38.6 8.7-13.7 15.7-28.5 19.3-44.4.1-.5-.7-.7-.8-.2-6 26.1-20.9 48.6-37.4 69.2-.1 0-.2 0-.2.1z" style="fill:none;stroke:#056051;stroke-width:.25;stroke-miterlimit:10"/><path class="st0" d="M352.9 215.3v.3c.8.1 1.6.3 2.4.4 12.3 3.2 22.1 12.1 31.5 20.7-9.6-6.2-21.5-8.8-32.9-7.3 1.7 10.7 5.4 21.1 9.3 31.3 1.8 4.7 3.6 9.4 5.5 14.1 2.7 0 5.4.4 7.9 1.3 6.2 2.2 11.3 6.7 15.9 11.4-6-.6-12.2-1.2-18.1.1-.2 0-.3.1-.5.1 6.3 15.4 13 30.6 20.1 45.6.2-.3.5-.5.7-.8 8-8.2 19.1-12 30.2-15.9-4.1-7.1-9-13.9-14.5-20 8.1 2.1 14.8 7.6 21.2 12.9 1.2 1 2.4 2 3.5 3.1l2.7-1.2c6.8-3.2 13.1-7.4 18.7-12.4-9.5-9.4-21.7-16-34.8-18.8 7.3-4 16.3-2.1 24.4-.2 5.7 1.4 11.3 2.7 17 4.1 1.8.4 3.6.9 5.2 1.7 6.2-8.6 10.7-18.3 13.2-28.5-10.2-3.3-21.5-4-32.3-4.7 8.8-5.9 18.8-10.1 29.2-12.2 1.7-.4 3.6-.6 5.3-.5v-2.1c-.2-11.8-3.5-23.9-10.1-33.6-7.9 1.8-15.7 3.5-23.6 5.3 2.1-4.2 4.5-8.3 8-11.5 1.8-1.7 3.9-3 6.2-3.9-.3-.2-.5-.4-.8-.6-13-9.7-32.9-10.3-44.7.5l-.9-2.1c-3.4-7-9.4-12.7-16.7-15.7-8.1-3.4-17.7-3.2-25.7.5l-.6.3c2.7 2.3 4.6 5.3 6.1 8.4 3.2 6.2 5.3 13 6.2 20-6-8.5-14.6-15-24.3-18.6-6.2 8-9.5 18.4-9.9 28.5z"/><path class="st4" d="M413.2 185.2c-3.3-3.8-7.4-6.9-12.1-8.8-8.1-3.4-17.7-3.2-25.7.5l-.6.3c2.7 2.3 4.6 5.3 6.1 8.4 3.2 6.2 5.3 13 6.2 20-6-8.5-14.6-15-24.3-18.6-6.2 7.8-9.5 18.2-9.9 28.4v.3c.8.1 1.6.3 2.4.4 12.3 3.2 22.1 12.1 31.5 20.7-9.6-6.2-21.5-8.8-32.9-7.3 1.7 10.7 5.4 21.1 9.3 31.3 1.8 4.7 3.6 9.4 5.5 14.1 2.7 0 5.4.4 7.9 1.3 6.2 2.2 11.3 6.7 15.9 11.4-6-.6-12.2-1.2-18.1.1-.2 0-.3.1-.5.1 6.3 15.4 13 30.6 20.1 45.6.2-.3.5-.5.7-.8 1.9-4.8 16.6-42 14.5-79.4s9.6-59.1 9.6-59.1l-5.6-8.9z"/><path class="st5" d="M271.7 2.4c.6 11.3 2.3 22.6.4 33.8s-8.1 22.4-18.7 26.4c-10.5 4-24.9-2.5-25.7-13.8-.3-4.5.6-10.6-3.6-12.3-4-1.7-7.8 2.9-8.8 7.1-1.7 6.8-.7 14-.2 21 .5 7 .2 14.5-3.7 20.4-3.9 5.8-12.7 8.8-18.3 4.5-2.1-1.6-3.5-4.1-5.9-5.2-4-1.9-8.8 1-11.1 4.7-2.3 3.7-3.1 8.2-5 12.2-6.5 14.1-27.7 18.5-39.2 8.2-11.6-10.3-9.6-31.9 3.7-39.9 4.1-2.5 9-3.8 12.6-6.9 3.6-3.1 5.5-9.3 2.1-12.6-3.5-3.4-9.3-1.5-14.1-2.6-7.9-1.8-11.3-12.2-8.2-19.7s10.7-12.2 18.2-15c7.6-2.9 15.7-4.4 22.8-8.2 2.5-1.3 5.2-3.5 4.9-6.3-.4-4.5-6.8-4.7-11.3-5.6-10.7-2.1-16.1-15.5-12.9-25.9 3.2-10.4 12.5-17.8 22.1-22.9 15.5-8.2 32.9-11.8 50-15 16.6-3.1 33.4-9 49.9-11.4 23.2-3.3 8 20.4 4.9 32.8-4.1 17-5.8 34.6-4.9 52.2z"/><path class="st6" d="M183.8-22.6c-.7.3-.1 1.3.5 1 33.1-13.5 64-30.9 91.8-53.4-26 29.2-50.4 59.9-72.9 91.9h-.1c-12.6 6.8-25.9 12.2-39.7 16.1-.7.2-.4 1.3.2 1.1 13.2-3.7 26-8.8 38.1-15.2-4.9 7-9.7 14-14.4 21.1-8.7 13.1-17.2 26.4-25.3 39.9-.4.6.6 1.2 1 .6 8.5-14.1 17.3-28 26.5-41.7.2 8.2.3 16.4.5 24.6 0 .7 1.1.8 1.1 0-.2-8.7-.3-17.4-.5-26.1v-.2c16.2-24.2 33.5-47.6 51.7-70.4-3 21.3-4 42.9-3 64.4 0 .7 1.1.8 1.1 0-1.1-22.1 0-44.3 3.3-66.2 5.5-6.8 11-13.6 16.7-20.2 10.1-11.9 20.4-23.6 31-35 .5-.5-.3-1.3-.8-.8-3.3 3.6-6.6 7.2-9.8 10.8-.1 0-.2 0-.3.1-29.1 24.7-61.7 43.4-96.7 57.6z"/><path class="st5" d="M435.5 145.2c5.1 35.4-2.3 58.3-1.9 87-16.7-32.9-3.2-78.1 1.2-86.2-10.1 9.9-19.2 21-26.8 32.9 1.6 22.1 8.2 40.4 3.2 64.6-11.6-19.4-7.5-51.9-4.4-62.7-6.7 10.7-12.3 22.1-16.6 34 5.8 17.5 8.5 35.6 8 53.4-7.9-14.3-11.6-31-10.1-47.3-3.1 9.5-5.4 19.3-7 29.3.6.3 1.1.6 1.7.9 7.5 12.5 11.1 26.8 10.5 40.7-7-10-11.6-21.8-13.1-33.8-.7 6-1 12-1.1 18.1 1.5 1.7 5.6 7.8 5.6 7.8 6.2 10.7 9.9 22 12.9 33.7-6.8-7.1-16.7-32-18.6-39.6 0 8.2.5 16.5 1.6 24.7.2.2.4.3.6.5 5.8 7 8.9 15.8 10.4 24.4 1.5 8.6 1.5 17.3 1.9 26-16.9-13.6-12.5-34.9-13.9-51.8 0 0 .1 0 .1.1-1-7.4-1.6-14.8-1.8-22.2-5.9 11.6-10.3 24.1-14.3 36.9-1-13.8 3.2-27.3 11.4-37.3 0 0 2-1.4 2.9-1.4-.1-9.5.5-19 1.8-28.3.2-1.4.4-2.9.7-4.3-3.1 5-16.4 31.3-37.1 41.3 7.5-17.2 22.1-32.7 37.2-41.9 1.9-10.9 4.7-21.6 8.4-31.9-6.9 6.7-29.2 33.1-50.4 42.2 7.5-8 13.9-20.8 21.5-28.7 7.3-7.6 19.3-12.9 29.5-15.2 4.3-11.5 9.8-22.6 16.2-33-21.2 15.5-44.6 32.7-74.2 39.8 15.3-22.9 65.6-39.7 75.1-41.3 7.5-11.8 16.3-22.8 26.3-32.7-7.2 4-28.7 18.4-41 23-15 5.2-28.1 10.3-45.1 9.9 27.4-26.4 57.3-34.3 87.5-34.3 11.3-11.1 24-20.8 37.7-28.8.9-.5 2-.3 2.6.5.6.8.3 1.8-.6 2.3-13.9 7.8-26.9 17.5-38.5 28.7z"/><path class="st2" d="M343.2 97.1c-33-5-53.4 3.3-79.8 3.4 31.8 17.5 72.1 2.2 79.2-2.5-8.2 11.1-17.4 21-27.7 29.4-20.5-1.4-37.9-8.2-59.7-2.5 18.9 12.2 48.4 7.4 58.1 3.8-9.2 7.4-19.2 13.6-29.7 18.4-16.7-6-33.6-8.6-49.9-7.8 13.9 8.4 29.6 12 44.4 10.2-8.5 3.5-17.2 6.2-26.3 7.9-.3-.6-.7-1.2-1-1.8-12.2-7.9-25.7-11.6-38.4-10.7 9.9 7.4 21.1 12.2 32.4 13.7-5.4.8-11 1.3-16.5 1.4-1.7-1.6-7.7-6-7.7-6-10.5-6.5-21.2-10.3-32.2-13.5 7.2 7.3 31 17.5 38.2 19.5-7.6.1-15.2-.3-22.9-1.3-.2-.2-.3-.4-.5-.6-7-6.1-15.3-9.3-23.4-10.8-8.1-1.5-16-1.3-24.1-1.6 14.2 18 33.3 13 48.9 14.2 0 0 0-.1-.1-.1 6.9 1 13.8 1.5 20.6 1.6-10.1 6.5-21.2 11.5-32.6 16 12.8.9 24.8-3.9 33.2-12.8 0 0 1.1-2.1 1-3.2 8.7 0 17.4-.8 25.8-2.4 1.3-.2 2.6-.5 3.9-.8-4.3 3.4-27.2 18.1-34.4 40.6 15.1-8.4 27.9-24.3 35-40.7 9.8-2.2 19.4-5.4 28.5-9.6-5.5 7.6-27.6 32-34 55 6.6-8.2 17.8-15.3 24.3-23.7 6.3-8 10-21 11.2-32 10.2-4.8 19.9-10.9 28.8-18-12.2 23.1-25.7 48.6-29.5 80.6 19.6-16.8 30.2-71.4 30.7-81.6 10.1-8.3 19.4-18 27.5-28.8-3 7.8-14.1 31.2-17.2 44.6-3.3 16.3-6.8 30.5-4.8 48.8 22.1-30 26.5-62.4 23.5-95 9.1-12.4 16.8-26.2 22.9-41.1.4-1 .1-2.2-.7-2.8-.8-.6-1.7-.3-2.1.6-6 15.2-13.7 29.3-22.9 42zM334.6-99.2c3 12.8 2.9 15.5 2.3 28.6-.6 13.1-5.4 26.6-15.5 34.9-7.1 5.9-16.6 9-22.6 16-5.3 6.1-7.3 14.4-11.4 21.3C274.2 23.9 242.7 29 227.6 50c8.5-26.5 17.9-54.4 39.1-72.4 6-5.1 12.9-9.3 18.4-15 9.4-9.7 14.2-22.8 19.8-35 5.6-12.3 13-24.7 25.2-30.6l4.5 3.8z"/><path class="st0" d="M540.1 164.2c2.3 14.6 2 17.7.3 32.3-1.7 14.7-8.1 29.4-20.2 38-8.5 6.1-19.3 8.8-26.7 16.1-6.4 6.4-9.3 15.5-14.5 23-16.6 24-52.3 27.1-71 49.5 11.7-29 24.5-59.6 49.7-78.2 7.2-5.3 15.2-9.4 21.9-15.4 11.3-10.1 17.7-24.4 25-37.7 7.3-13.3 16.6-26.7 30.7-32.3l4.8 4.7z"/><path class="st2" d="M532.9 153.8c8.4 12.1 9.5 15 14.3 29 4.8 14 5.5 30-1.6 43-5 9.1-13.6 16.3-17 26.1-3 8.6-1.7 18-3.1 27-4.5 28.8-35.3 47.2-42.4 75.5-2.1-31.2-3.9-64.3 10.7-92 4.2-7.9 9.6-15.1 13-23.4 5.8-14 5.4-29.7 6.1-44.9.8-15.2 3.3-31.3 13.6-42.5l6.4 2.2zM289.1-37.7c-10.6 1-21.7-.2-31.5 3.9-8.9 3.7-15.8 11.5-24.9 14.6-10.1 3.5-21.1.7-31.7-.8-10.6-1.5-22.7-1.4-30.3 6.1 10.9-28 31.1-52.1 56-69.1 24.9-17 54.2-26.9 84.2-30 9.1-1 18.6-1.3 27.3 1.6 8.7 2.9 16.6 9.6 18.9 18.5 3.5 14-12.4 26.1-21.6 34.5-12.8 11.7-29.2 19.1-46.4 20.7z"/><path d="M353.3-98.7c-17.6 15.1-39.3 24.2-61.2 31.2-22.1 7.1-44.8 12.5-66.5 20.7-12 4.6-23.8 10-34.6 17.1-.4.3 0 .9.4.6C211.1-42 233.6-49.4 255.9-56c22.1-6.5 44.6-12.3 65.6-22 11.6-5.3 22.5-12 32.2-20.2.5-.3 0-.8-.4-.5z" style="fill:#056051"/><path class="st4" d="M355.1-15c-6.6 6.6-14.7 12.1-19 20.4-3.9 7.5-4.2 16.6-8.6 23.8-4.9 8-13.8 12.4-21.8 17.3s-16.1 11.8-16.9 21.1c-8.4-25-8.3-52.6-1.1-78 7.2-25.4 21.4-48.6 39.8-67.5 5.6-5.8 11.8-11.3 19.3-14.2 7.5-2.9 16.6-2.9 23.1 1.9 10.2 7.5 6.3 24.6 4.9 35.4-2.1 14.8-9 29.1-19.7 39.8z"/><path d="M364.1-92.3C360.7-72.2 351.3-54 340.5-37c-10.9 17.3-23.2 33.7-33.3 51.5-5.5 9.8-10.3 20.1-13.6 30.9-.1.5.6.7.7.2 6-19.7 16.9-37.3 28.2-54.2 11.3-16.9 23.2-33.5 31.9-51.9 4.8-10.1 8.4-20.7 10.3-31.7.2-.3-.5-.5-.6-.1z" style="fill:#084c44"/><path class="st5" d="M346.4-52.7c-.1.1-.1.2-.2.3.8.6 1.5 1.3 2.1 2 10.4 11.3 14.6 26.9 18.5 41.9-5.8-12.8-16.2-23.2-28.8-29.2-5.3 12-8.4 25.2-11.2 38.1-1.3 6-2.5 12-3.7 18 2.8 1.7 5.2 4 7.2 6.6 4.9 6.3 7.2 14.3 8.6 22.1-5.7-4.6-11.6-9.3-18.5-11.8-.2-.1-.4-.1-.6-.2-3.7 19.9-6.9 39.8-9.7 59.8l1.2-.3c13.6-3.1 27.4.4 41.3 3.7.5-10 0-20.1-1.6-30 6.8 7.5 10.1 17.5 13.1 27.2.6 1.8 1.1 3.7 1.5 5.5 1.2.2 2.3.4 3.5.6 9.1 1.3 18.2 1.1 27.2-.3-3.3-15.8-11.3-30.7-22.9-42.1 10.1.8 18 8.6 25 16 4.9 5.1 9.8 10.3 14.6 15.4 1.5 1.6 3.1 3.3 4.2 5.1 11.9-4.7 23-11.6 32.3-20.4-8.3-10.1-19.2-18.3-29.9-26.1 12.9-.2 25.8 2.1 37.8 6.8 2 .8 4.1 1.7 5.8 3 .5-.7.9-1.4 1.4-2.2 7.5-12.2 12.2-26.7 11.9-40.9L448.9 5.7c4.9-2.9 10.1-5.5 15.8-6.5 2.9-.5 6-.5 8.9.1-.1-.4-.3-.8-.4-1.1-6.8-18.4-26.8-32.3-45.9-29 .2-.9.3-1.8.4-2.8 1.1-9.4-1.2-19.2-6.6-27-6.1-8.8-15.9-14.9-26.5-16.5-.3 0-.6-.1-.8-.1 1.2 4.1 1.2 8.4.7 12.6-.9 8.5-3.2 16.8-6.9 24.5-.5-12.6-5-24.9-12.5-35-11.4 3.9-21.7 12.3-28.7 22.4z"/><path class="st5" d="M427.8-43.7c-.8-6.1-3-11.9-6.5-17-6.1-8.8-15.9-14.9-26.5-16.5-.3 0-.6-.1-.8-.1 1.2 4.1 1.2 8.4.7 12.6-.9 8.5-3.2 16.8-6.9 24.5-.5-12.6-5-24.9-12.5-35-11.5 3.9-21.8 12.3-28.8 22.4-.1.1-.1.2-.2.3.8.6 1.5 1.3 2.1 2 10.4 11.3 14.6 26.9 18.5 41.9-5.9-12.7-16.3-23.1-28.9-29.1-5.3 12-8.4 25.2-11.2 38.1-1.3 6-2.5 12-3.7 18 2.8 1.7 5.2 4 7.2 6.6 4.9 6.3 7.2 14.3 8.6 22.1-5.7-4.6-11.6-9.3-18.5-11.8-.2-.1-.4-.1-.6-.2-3.7 19.9-6.9 39.8-9.7 59.8l1.2-.3c5.1-3.7 44.6-31.9 67.2-71.4 22.6-39.5 48.8-54 48.8-54l.5-12.9z"/><path class="st4" d="M415.1 250c18.1-6.9 34.8-15.8 50-26.4-3.9-7-8.2-13.8-11.7-17.6 0 0 10.7 5.2 20 11.5 14.2-11 26.9-23.5 37.7-37.5-7.8-9.4-16.4-19.3-21.8-24.2-7.5-6.8 12.9 2.8 30.1 12.8 3.4-5.1 6.5-10.3 9.4-15.6 5.8-10.7 10.6-22 14.5-33.7-11.4-8.5-23.1-17-26.2-18.1-3.9-1.5 13.8 1.3 29.8 5.7 1.6-6.1 3-12.2 4.1-18.5 1.8-10.2 3-20.7 3.6-31.4-4.5-1.5-8.8-2.8-10.4-3-2.8-.3 3.9-5.2 10.6-7.1 0-7.2-.4-14.5-1.2-21.7-1.1-9.6-3.7-15.7-7.5-19.2-39.3 81.8-84.3 167.3-131.1 243.9.1 0 .1 0 .1.1z"/><path class="st4" d="M482 70.2c-4.1-4.7-13.4-12.2-22.4-18.9-11.5 12.4-21.3 26.3-29.2 41.3-1.2 2.3-2.3 4.6-3.4 6.9 12.4 4.8 27.3 11.8 20.9 10.8-4.6-.7-15.3-1.6-24.7-2.3-7.8 19-12.7 39.5-14.7 60.8 12.3 3.3 27 9.4 21.4 8-4.4-1-14 1.3-22.1 3.8-.9 22.5 1.5 45.8 7.2 69.2 46.8-76.6 91.8-162.1 131.1-243.9-6.9-6.4-17.6-3.9-30 2.6-3.1 1.6-6.2 3.3-9.3 5.1 3.6 8.4 4.6 23.4 2 19.7-1.5-2.2-6.5-8.3-11.3-14-10.6 7-20.5 14.8-29.5 23.4 10.7 14.8 20 34.5 14 27.5z"/><path d="M419.4 240.9c24.8-40.2 48.1-81.4 70.2-123.3 22-41.9 42.8-84.6 63.1-127.5l1.6.9c-20.4 42.9-41.3 85.5-63.4 127.3-22.2 41.9-45.6 83-70.5 123.1l-1-.5z" style="fill:none;stroke:#084c44;stroke-width:.25;stroke-miterlimit:10"/><path class="st2" d="M286.4 119.1c18.2 4.9 36.6 7.4 54.6 7.7.9-7.8 1.4-15.6.8-20.6 0 0 5.4 10.2 9.2 20.5 17.5-.5 34.7-3.2 51.2-8-.8-11.9-1.9-24.6-3.4-31.6-2-9.6 8.6 9.6 16.4 27.3 5.6-2.1 11-4.4 16.4-6.9 10.7-5.1 21-11.3 30.7-18.3-4.2-13.2-8.6-26.6-10.3-29.3-2.2-3.4 10.1 8.9 20.3 21.6 4.7-3.9 9.3-8 13.8-12.3 7.2-7 14.2-14.6 20.7-22.8-2.7-3.8-5.3-7.3-6.5-8.3-2.1-1.8 6.1-1.9 12.5.5 4.1-5.7 8-11.6 11.5-17.8 4.6-8.2 6.1-14.5 5.1-19.4-77.8 42.2-162.2 84-243 117.7.1-.1 0 0 0 0z"/><path d="M442 15.4c-.5-6.1-3.6-17.3-6.8-27.7-16.2 3.2-31.9 8.5-46.6 15.9-2.2 1.1-4.5 2.3-6.7 3.5 7 10.9 14.8 25 10.3 20.5-3.2-3.2-11.2-10-18.2-16-17 10.5-32.6 23.9-46.3 39.6 7.8 9.7 16 22.8 12.3 18.6-2.9-3.3-11.8-6.9-19.6-9.6-13.5 17.3-25 37-33.9 58.7 80.7-33.7 165.2-75.5 243-117.7-1.8-8.9-11.7-13.1-25.2-15.1-3.4-.5-6.8-.9-10.2-1.3-1.9 8.7-9.7 21.1-9.7 16.7 0-2.6-.4-10.3-.9-17.5-12.4-.6-24.7-.1-36.7 1.6-.1 17.9-4 38.7-4.8 29.8z" style="fill:#1b8977"/><path class="st6" d="M295.1 114.4c42.6-17.6 84.5-36.7 125.9-57.2 41.4-20.5 82.2-42.3 122.7-64.6l.7 1.6C503.8 16.4 462.9 38 421.5 58.4c-41.4 20.4-83.5 39.4-126.1 56.9l-.3-.9z"/><path class="st5" d="M598.9 138c5.5 10 11.9 19.6 15.1 30.6 3.2 10.9 2.4 23.9-5.5 32.2-7.8 8.3-23.7 8.6-29.4-1.3-2.3-4-4-9.9-8.6-9.7-4.3.2-5.8 6.1-5 10.3 1.4 7 5.5 13 9 19.2 3.5 6.2 6.5 13.1 5.5 20.2-1 7-7.7 13.6-14.7 12-2.6-.6-5-2.2-7.6-2.1-4.5 0-7.6 4.7-8.1 9.2-.5 4.4.7 8.9.8 13.3.2 15.7-17.1 28.9-32.2 24.5-15-4.4-22.6-24.8-14-37.9 2.7-4.1 6.5-7.4 8.5-11.8s1-10.9-3.6-12.4c-4.7-1.6-9.1 2.6-13.9 3.7-8 1.8-15.6-6.2-16-14.4-.4-8.2 4.4-15.7 10.1-21.6 5.6-5.9 12.3-10.9 17.2-17.4 1.7-2.3 3.2-5.4 1.7-7.9-2.4-3.9-8.2-1.3-12.7-.2-10.6 2.8-21.4-7.1-23-18-1.6-10.9 3.6-21.6 10.2-30.4 10.6-14.2 24.8-25 39-35.4 13.7-10 26.5-22.8 40.5-32.1 19.7-13.1 16.1 15.1 18.7 27.7 3.4 17.2 9.5 34.1 18 49.7z"/><path class="st6" d="M508 153.6c-.5.5.4 1.2.9.7 24.3-26.7 44.8-56 60.3-88.6-11 37.9-19.8 76.5-26.4 115.4v.1c-8.5 11.7-18.3 22.4-29.1 31.9-.5.5.2 1.4.7.9 10.4-9.2 19.8-19.3 28.1-30.4-1.4 8.5-2.7 17-4 25.5-2.2 15.7-4.1 31.5-5.6 47.4-.1.7 1.1.8 1.1.1 1.6-16.5 3.6-33 6-49.5 3.7 7.4 7.4 14.8 11.2 22.2.3.6 1.4.2 1-.5-3.9-7.8-7.9-15.7-11.8-23.5 0-.1-.1-.1-.1-.1 4.2-29.1 9.7-58 16.4-86.6 6.5 20.7 15 40.8 25.3 60 .3.6 1.4.2 1-.5-10.6-19.7-19.3-40.3-25.9-61.7 2-8.6 4.1-17.1 6.4-25.7 4-15.2 8.3-30.4 13-45.4.2-.7-.8-1.1-1-.4-1.5 4.7-2.9 9.4-4.3 14.1-.1.1-.2.1-.2.2-15.8 34.9-37.3 66.1-63 94.4z"/><path class="st0" d="M233.9 202.3c2.6-2.5 6.7-2.5 9.2.1 2.5 2.6 2.5 6.7-.1 9.2-2.6 2.5-6.7 2.5-9.2-.1-2.4-2.5-2.4-6.7.1-9.2z"/><path class="st5" d="M174.2 166.3c2.4-2.4 6.3-2.4 8.7 0 2.4 2.4 2.4 6.3 0 8.7-2.4 2.4-6.3 2.4-8.7 0-2.4-2.4-2.4-6.3 0-8.7zM179.1 260.9c2.7-2.7 7.1-2.6 9.7.1 2.7 2.7 2.6 7.1-.1 9.7-2.7 2.7-7.1 2.6-9.7-.1-2.6-2.6-2.6-7 .1-9.7zM229.9 115.4c1.2-1.2 3.1-1.2 4.3 0 1.2 1.2 1.2 3.1 0 4.3-1.2 1.2-3.1 1.2-4.3 0s-1.2-3.1 0-4.3zM117.7 146.7c2.1-2.1 5.5-2.1 7.6 0 2.1 2.1 2.1 5.5 0 7.6s-5.5 2.1-7.6 0c-2.2-2.1-2.2-5.5 0-7.6z"/><circle class="st4" cx="103.3" cy="98.4" r="7.7"/><circle class="st0" cx="213.3" cy="231.5" r="2.7"/><path class="st2" d="M438.6 346.1c2-1.9 5.1-1.9 7 0 1.9 2 1.9 5.1 0 7-2 1.9-5.1 1.9-7 0-2-1.9-1.9-5 0-7z"/><path class="st5" d="M484 361.6c1.7-1.6 4.3-1.6 6 0 1.6 1.7 1.6 4.3 0 6a4.35 4.35 0 0 1-6 0c-1.7-1.7-1.7-4.4 0-6z"/><path class="st2" d="M365.2 346.6c2.6-2.5 6.7-2.5 9.3.1s2.5 6.7-.1 9.3-6.7 2.5-9.3-.1c-2.5-2.6-2.5-6.7.1-9.3z"/><circle class="st4" cx="128.3" cy="241.4" r="2.9"/></svg>