<svg xmlns="http://www.w3.org/2000/svg" viewBox="0 0 750 500"><g id="freepik--background-simple--inject-13"><path d="M521,149.13c-51,1.44-107.4,12-144.39.78-57.5-17.51-91.3-56-153.14-62.58S62.11,147.61,29.25,218.3s-3,148.13,141.91,188.5S474.8,379.24,534,385.32c46.15,4.74,95.07,27.84,140.85,20.53,58-9.25,70.29-73.37,64.52-124.78a249.47,249.47,0,0,0-4.81-28c-7.5-32.59-25.62-65-57.16-83.09C625.31,140.12,574.35,147.62,521,149.13Z" style="fill:#ECEFF1"></path><path d="M521,149.13c-51,1.44-107.4,12-144.39.78-57.5-17.51-91.3-56-153.14-62.58S62.11,147.61,29.25,218.3s-3,148.13,141.91,188.5S474.8,379.24,534,385.32c46.15,4.74,95.07,27.84,140.85,20.53,58-9.25,70.29-73.37,64.52-124.78a249.47,249.47,0,0,0-4.81-28c-7.5-32.59-25.62-65-57.16-83.09C625.31,140.12,574.35,147.62,521,149.13Z" style="fill:#fff;opacity:0.7000000000000001"></path></g><g id="freepik--Floor--inject-13"><line x1="236.92" y1="360.62" x2="703.52" y2="360.62" style="fill:none;stroke:#263238;stroke-linecap:round;stroke-linejoin:round"></line></g><g id="freepik--Track--inject-13"><polygon points="585.9 383.5 149.22 383.5 137.6 387.07 574.33 387.07 585.9 383.5" style="fill:#263238;stroke:#263238;stroke-linecap:round;stroke-linejoin:round"></polygon><polygon points="489.8 413.47 52.86 413.47 40.95 417.2 477.97 417.2 489.8 413.47" style="fill:#263238;stroke:#263238;stroke-linecap:round;stroke-linejoin:round"></polygon></g><g id="freepik--Wall--inject-13"><line x1="236.92" y1="283.51" x2="303.33" y2="91.61" style="fill:none;stroke:#263238;stroke-linecap:round;stroke-linejoin:round"></line><g style="opacity:0.30000000000000004"><path d="M457.45,255.54s0,0,0,0" style="fill:none;stroke:#000;stroke-miterlimit:10"></path><path d="M448.78,290.41h0" style="fill:none;stroke:#000;stroke-miterlimit:10"></path><path d="M480.68,237.77a43.21,43.21,0,0,0-23.74,10.42" style="fill:none;stroke:#000;stroke-miterlimit:10"></path><path d="M500.82,321.75a43.53,43.53,0,0,0,2.31-80.52,42.78,42.78,0,0,0-14.47-3.61c-1-.08-2.1-.12-3.17-.12" style="fill:none;stroke:#000;stroke-miterlimit:10"></path><path d="M443.14,291a43.53,43.53,0,0,0,42.35,33.49,44.17,44.17,0,0,0,5.17-.3" style="fill:none;stroke:#000;stroke-miterlimit:10"></path><path d="M454.73,258.89a37.94,37.94,0,0,1,9.57-9.3" style="fill:none;stroke:#000;stroke-miterlimit:10"></path><path d="M473.82,317.08A37.94,37.94,0,0,1,450,267.77" style="fill:none;stroke:#000;stroke-miterlimit:10"></path><path d="M492.92,273.85a7.17,7.17,0,1,1-7.16-7.16A7.17,7.17,0,0,1,492.92,273.85Z" style="fill:none;stroke:#000;stroke-miterlimit:10"></path><circle cx="498.45" cy="255.5" r="5.79" style="fill:none;stroke:#000;stroke-miterlimit:10"></circle><ellipse cx="514.79" cy="273.46" rx="4.84" ry="6.15" style="fill:none;stroke:#000;stroke-miterlimit:10"></ellipse><line x1="463.31" y1="311.74" x2="463.3" y2="311.73" style="fill:none;stroke:#000;stroke-miterlimit:10"></line><path d="M488.66,237.62a3.7,3.7,0,0,0,.21-.33c.08-.11.15-.24.23-.37a14.5,14.5,0,0,0,.8-1.45c.09-.18.18-.36.26-.54.15-.33.29-.65.42-1,.05-.1.09-.22.14-.33a17.72,17.72,0,0,0,1-7c0-1.56-.17-3.14-.21-4.81,0-.25,0-.49,0-.75a30.33,30.33,0,0,1,1.36-8.51c1.83-6,7.85-9.55,13.45-7.86l.18.07.19,0c5.6,1.7,8.66,8,6.84,14a30.55,30.55,0,0,1-3.6,7.83l-.42.62c-1,1.37-1.94,2.61-2.83,3.88a17.82,17.82,0,0,0-3.06,6.39c0,.13-.05.24-.07.37-.07.3-.13.62-.18.92,0,.11,0,.22,0,.33a.37.37,0,0,0,0,.09,1.49,1.49,0,0,0,0,.21,3.32,3.32,0,0,0-.06.44,1.81,1.81,0,0,0,0,.23,2.29,2.29,0,0,0,0,.25c0,.3,0,.6-.05.88" style="fill:none;stroke:#000;stroke-miterlimit:10"></path><path d="M491.51,221.79c0,1.67.17,3.25.21,4.81l15,4.52c.89-1.27,1.87-2.51,2.83-3.88Zm-2.85,15.83a3.7,3.7,0,0,0,.21-.33c.08-.11.15-.24.23-.37a14.5,14.5,0,0,0,.8-1.45c.09-.18.18-.36.26-.54.15-.33.29-.65.42-1l13,3.94c-.07.3-.13.62-.18.92,0,.11,0,.22,0,.33a2.72,2.72,0,0,0,0,.3,3.32,3.32,0,0,0-.06.44c0,.16,0,.32-.05.48s0,.6-.05.88" style="fill:none;stroke:#000;stroke-miterlimit:10"></path><path d="M425.85,285.39a73,73,0,0,1-10.62-31.33,75,75,0,0,1,.11-16c1.28-10.68,7.51-17.21,9.29-25.44a19.62,19.62,0,0,0,.47-4.6c0-.12,0-.24,0-.36a17.7,17.7,0,0,0-1.74-6.86c-.63-1.43-1.35-2.85-2-4.37-.11-.23-.2-.46-.3-.7a30.4,30.4,0,0,1-2-8.38c-.61-6.27,3.62-11.82,9.44-12.38l.2,0,.19,0c5.82-.57,11,4.06,11.65,10.34a30.32,30.32,0,0,1-.34,8.61c0,.25-.1.49-.16.74-.35,1.62-.78,3.14-1.14,4.66a17.77,17.77,0,0,0-.38,7.07c0,.12,0,.24.07.36a19,19,0,0,0,1.35,4.43c2.17,5,6.06,9,9.43,14" style="fill:none;stroke:#000;stroke-miterlimit:10"></path><polyline points="244.85 313.09 281.92 297.64 261.07 347.07 362.24 321.59 353.75 356.34 435.61 320.81 432.52 350.94 471.14 335.49 478.09 350.94 485.04 336.26 532.15 358.66 524.25 328.85 576.17 340.89 537.56 312.32 711.33 292.24 542.19 261.35 614.79 191.84 532.92 219.64 559.96 130.05 454.15 177.94" style="fill:none;stroke:#000;stroke-miterlimit:10"></polyline><path d="M450.82,227.43a34,34,0,0,1,3.11,6.85,74.9,74.9,0,0,1,3,13.91A43.39,43.39,0,0,0,442,281a44.1,44.1,0,0,0,1.16,10l-11.88,1.15a33.58,33.58,0,0,1-2.36-2.59" style="fill:none;stroke:#000;stroke-miterlimit:10"></path><path d="M438.59,206.68,425.1,208a19.62,19.62,0,0,1-.47,4.6l15.31-1.48A19,19,0,0,1,438.59,206.68ZM421.34,196.4c.67,1.52,1.39,2.94,2,4.37l15.54-1.52c.36-1.52.79-3,1.14-4.66Z" style="fill:none;stroke:#000;stroke-miterlimit:10"></path><path d="M388,308.36a74.48,74.48,0,0,1-19.45-33.85c-2.68-10.42.75-18.76-.58-27.07a20.07,20.07,0,0,0-1.23-4.46c0-.11-.09-.23-.14-.34a17.61,17.61,0,0,0-4.11-5.76c-1.11-1.1-2.29-2.15-3.47-3.34l-.52-.53a30.27,30.27,0,0,1-4.89-7.09c-2.85-5.63-.93-12.34,4.3-15l.17-.08.17-.1a10.25,10.25,0,0,1,8.41-.31" style="fill:none;stroke:#000;stroke-miterlimit:10"></path><path d="M369.49,212a12.11,12.11,0,0,1,3.42,4.14,30.49,30.49,0,0,1,2.8,8.15c.05.25.09.5.13.74.26,1.65.4,3.22.63,4.76a17.59,17.59,0,0,0,2.21,6.73,2.32,2.32,0,0,0,.19.31,19.66,19.66,0,0,0,2.86,3.64c5.9,6,14.66,8.18,21.46,16.51a74.89,74.89,0,0,1,8.68,13.48c7.15,14.13,9.26,30.71,6.87,40.77l-15.66,7.92A42.51,42.51,0,0,1,393.2,313" style="fill:none;stroke:#000;stroke-miterlimit:10"></path><path d="M359.06,233.54c1.18,1.19,2.36,2.24,3.47,3.34l13.94-7.06c-.23-1.54-.37-3.11-.63-4.76Zm19.81,3.32L366.78,243a20.07,20.07,0,0,1,1.23,4.46l13.72-6.94A19.66,19.66,0,0,1,378.87,236.86Z" style="fill:none;stroke:#000;stroke-miterlimit:10"></path><path d="M373.4,197.38A74.5,74.5,0,0,1,348,167.7c-4.56-9.73-2.73-18.57-5.57-26.49a20.53,20.53,0,0,0-2-4.16l-.2-.31a17.67,17.67,0,0,0-5.11-4.9c-1.28-.87-2.64-1.69-4-2.63l-.62-.43a30.35,30.35,0,0,1-6.12-6.07c-3.84-5-3.19-11.95,1.46-15.51l.16-.12.15-.12a10.17,10.17,0,0,1,8.2-1.86" style="fill:none;stroke:#000;stroke-miterlimit:10"></path><path d="M337.37,106.14a12.13,12.13,0,0,1,4.12,3.44,30.28,30.28,0,0,1,4.26,7.48c.09.24.18.47.26.71.56,1.57,1,3.09,1.5,4.56a17.79,17.79,0,0,0,3.42,6.21l.24.27a20.18,20.18,0,0,0,3.49,3c6.91,4.8,15.92,5.33,24.14,12.26a75.17,75.17,0,0,1,11,11.64c9.64,12.57,14.77,28.48,14.28,38.81l-13.92,10.67A42.72,42.72,0,0,1,379.33,201" style="fill:none;stroke:#000;stroke-miterlimit:10"></path><path d="M331.1,129.21c1.37.94,2.73,1.76,4,2.63l12.4-9.51c-.5-1.47-.94-3-1.5-4.56Zm20.07-.4-10.75,8.24a20.53,20.53,0,0,1,2,4.16l12.2-9.36A20.18,20.18,0,0,1,351.17,128.81Z" style="fill:none;stroke:#000;stroke-miterlimit:10"></path><path d="M300.12,275.46c-2.28-6.76-2.48-13.23-5.24-18.91a19.53,19.53,0,0,0-2.47-3.91l-.22-.29a17.79,17.79,0,0,0-5.61-4.32c-1.37-.74-2.81-1.4-4.28-2.19l-.66-.36a30.39,30.39,0,0,1-6.73-5.38c-4.35-4.56-4.45-11.54-.22-15.58l.15-.13.14-.14c4.23-4,11.2-3.61,15.55,1a30.65,30.65,0,0,1,5,7c.12.23.23.45.33.68.73,1.5,1.32,3,2,4.37a17.69,17.69,0,0,0,4.06,5.81l.27.24a20.11,20.11,0,0,0,3.79,2.65c7.39,4,16.4,3.59,25.31,9.6a75.06,75.06,0,0,1,12.22,10.39,73.29,73.29,0,0,1,9,11.71" style="fill:none;stroke:#000;stroke-miterlimit:10"></path><path d="M355.27,282.28c3.94,7.43,6.28,14.86,6.63,20.7l-12.7,12.11C338.92,314,324,306.46,313.07,295a74.86,74.86,0,0,1-9.8-12.69" style="fill:none;stroke:#000;stroke-miterlimit:10"></path><path d="M282.3,245.84c1.47.79,2.91,1.45,4.28,2.19l11.31-10.79c-.67-1.41-1.26-2.87-2-4.37Zm19.92-2.55-9.81,9.35a19.53,19.53,0,0,1,2.47,3.91L306,245.94A20.11,20.11,0,0,1,302.22,243.29Z" style="fill:none;stroke:#000;stroke-miterlimit:10"></path></g><line x1="444.71" y1="359.53" x2="529.84" y2="81.97" style="fill:none;stroke:#263238;stroke-linecap:round;stroke-linejoin:round"></line></g><g id="freepik--bowling-2--inject-13"><path d="M157.37,382V306.86a6.63,6.63,0,0,1,5.16-6.47l66.3-15a6.62,6.62,0,0,1,8.09,6.46v68.81Z" style="fill:#263238;stroke:#263238;stroke-linecap:round;stroke-linejoin:round"></path><path d="M219.11,340.84c-.75-3.42-3-5.34-3.81-7.95a6.28,6.28,0,0,1-.3-1.47s0-.08,0-.12a5.61,5.61,0,0,1,.35-2.28c.16-.48.35-1,.51-1.48l.08-.23a10.08,10.08,0,0,0,.38-2.78,3.59,3.59,0,0,0-3.45-3.72h-.13a3.59,3.59,0,0,0-3.45,3.72,10.08,10.08,0,0,0,.38,2.78c0,.08.05.15.07.23.17.52.36,1,.52,1.48a5.61,5.61,0,0,1,.35,2.28s0,.08,0,.12a6.28,6.28,0,0,1-.3,1.47c-.83,2.61-3.06,4.53-3.81,7.95a24.41,24.41,0,0,0-.54,5.2c0,5.15,1.83,10.28,4,12.85h5.71c2.17-2.57,4-7.7,4-12.85A24.41,24.41,0,0,0,219.11,340.84Z" style="fill:#fff;stroke:#263238;stroke-linecap:round;stroke-linejoin:round"></path><path d="M208.53,338.7c-.75-3.42-3-5.34-3.81-7.95a6.93,6.93,0,0,1-.3-1.48.49.49,0,0,0,0-.12,6,6,0,0,1,.35-2.28c.16-.48.35-.95.52-1.47,0-.08.05-.16.07-.24a10,10,0,0,0,.38-2.78,3.58,3.58,0,0,0-3.45-3.71h-.13a3.59,3.59,0,0,0-3.45,3.71,10,10,0,0,0,.38,2.78c0,.08,0,.16.08.24.16.51.35,1,.51,1.47a5.64,5.64,0,0,1,.35,2.28.49.49,0,0,1,0,.12,6.37,6.37,0,0,1-.3,1.48c-.83,2.61-3.06,4.53-3.81,7.95a24.32,24.32,0,0,0-.54,5.19c0,5.16,1.83,10.29,4,12.86h5.71c2.18-2.57,4-7.7,4-12.86A24.32,24.32,0,0,0,208.53,338.7Z" style="fill:#fff;stroke:#263238;stroke-linecap:round;stroke-linejoin:round"></path><path d="M195.2,336.4c-.75-3.42-3-5.34-3.8-7.95a5.8,5.8,0,0,1-.3-1.48.37.37,0,0,1,0-.11,5.58,5.58,0,0,1,.35-2.28c.16-.48.34-1,.51-1.48,0-.08.05-.16.08-.23a10.08,10.08,0,0,0,.38-2.78,3.59,3.59,0,0,0-3.45-3.72h-.13a3.59,3.59,0,0,0-3.45,3.72,9.71,9.71,0,0,0,.38,2.78c0,.07.05.15.07.23.17.52.36,1,.52,1.48a5.94,5.94,0,0,1,.35,2.28.45.45,0,0,0,0,.11,6.81,6.81,0,0,1-.3,1.48c-.84,2.61-3.06,4.53-3.81,7.95a24.41,24.41,0,0,0-.54,5.2c0,5.15,1.82,10.28,4,12.85h5.72c2.17-2.57,4-7.7,4-12.85A24.39,24.39,0,0,0,195.2,336.4Z" style="fill:#fff;stroke:#263238;stroke-linecap:round;stroke-linejoin:round"></path><path d="M222,350.87c0,5.83-2.06,11.62-4.52,14.53H211c-2.45-2.91-4.51-8.7-4.51-14.53a27.9,27.9,0,0,1,.61-5.87c.85-3.86,3.36-6,4.3-9a7.5,7.5,0,0,0,.34-1.67.61.61,0,0,0,0-.14,6.49,6.49,0,0,0-.39-2.57c-.18-.54-.4-1.09-.59-1.67a2,2,0,0,0-.08-.26,11.12,11.12,0,0,1-.43-3.14,4.07,4.07,0,0,1,3.9-4.21h.14a4.06,4.06,0,0,1,3.9,4.21,11.12,11.12,0,0,1-.43,3.14c0,.08-.05.17-.08.26-.19.59-.4,1.13-.58,1.67a6.49,6.49,0,0,0-.4,2.57c0,.05,0,.1,0,.14A7,7,0,0,0,217,336c.94,3,3.46,5.12,4.3,9A27.24,27.24,0,0,1,222,350.87Z" style="fill:#fff;stroke:#263238;stroke-linecap:round;stroke-linejoin:round"></path><path d="M210.75,330c.19.58.41,1.13.59,1.67h5.75c.18-.54.39-1.08.58-1.67Zm6,4.38h-5a7.5,7.5,0,0,1-.34,1.67H217A7,7,0,0,1,216.71,334.35Z" style="fill:#ECEFF1;stroke:#263238;stroke-linecap:round;stroke-linejoin:round"></path><path d="M174.64,353.93c0,5.83-2.06,11.62-4.51,14.53h-6.46c-2.45-2.91-4.52-8.7-4.52-14.53a27.24,27.24,0,0,1,.62-5.87c.84-3.86,3.36-6,4.3-9a7.5,7.5,0,0,0,.34-1.67.57.57,0,0,1,0-.13,6.51,6.51,0,0,0-.4-2.58c-.18-.54-.39-1.09-.58-1.67a2.58,2.58,0,0,1-.08-.26,11.12,11.12,0,0,1-.43-3.14,4.06,4.06,0,0,1,3.9-4.21H167a4.07,4.07,0,0,1,3.9,4.21,11.12,11.12,0,0,1-.43,3.14,2.58,2.58,0,0,0-.08.26c-.19.59-.41,1.13-.59,1.67a6.7,6.7,0,0,0-.39,2.58s0,.09,0,.13a7.5,7.5,0,0,0,.34,1.67c.94,2.95,3.45,5.12,4.3,9A27.9,27.9,0,0,1,174.64,353.93Z" style="fill:#fff;stroke:#263238;stroke-linecap:round;stroke-linejoin:round"></path><path d="M163.44,333c.19.58.4,1.13.58,1.67h5.75c.18-.54.4-1.08.59-1.67Zm5.95,4.38h-5a7.5,7.5,0,0,1-.34,1.67h5.66A7.5,7.5,0,0,1,169.39,337.41Z" style="fill:#ECEFF1;stroke:#263238;stroke-linecap:round;stroke-linejoin:round"></path><path d="M190.11,352.37c0,5.83-2.06,11.63-4.52,14.53h-6.46c-2.45-2.9-4.51-8.7-4.51-14.53a27.16,27.16,0,0,1,.61-5.86c.85-3.87,3.36-6,4.3-9a7.27,7.27,0,0,0,.34-1.67.53.53,0,0,0,0-.13,6.46,6.46,0,0,0-.39-2.57c-.18-.55-.4-1.09-.59-1.67a2.76,2.76,0,0,0-.08-.27,11.12,11.12,0,0,1-.43-3.14,4.06,4.06,0,0,1,3.9-4.2h.14a4.05,4.05,0,0,1,3.9,4.2,11.12,11.12,0,0,1-.43,3.14,2.76,2.76,0,0,1-.08.27c-.19.58-.4,1.12-.58,1.67a6.46,6.46,0,0,0-.4,2.57.62.62,0,0,1,0,.13,7.27,7.27,0,0,0,.34,1.67c.94,3,3.46,5.12,4.3,9A27.15,27.15,0,0,1,190.11,352.37Z" style="fill:#fff;stroke:#263238;stroke-linecap:round;stroke-linejoin:round"></path><path d="M178.9,331.48c.19.58.41,1.12.59,1.67h5.75c.18-.55.39-1.09.58-1.67Zm5.95,4.37h-5a7.27,7.27,0,0,1-.34,1.67h5.66A7.27,7.27,0,0,1,184.85,335.85Z" style="fill:#ECEFF1;stroke:#263238;stroke-linecap:round;stroke-linejoin:round"></path><path d="M205.24,351.49c0,5.83-2.06,11.62-4.52,14.53h-6.45c-2.45-2.91-4.52-8.7-4.52-14.53a27.24,27.24,0,0,1,.62-5.87c.84-3.86,3.36-6,4.3-9A7.5,7.5,0,0,0,195,335a.57.57,0,0,1,0-.13,6.51,6.51,0,0,0-.4-2.58c-.18-.54-.39-1.08-.58-1.67a2,2,0,0,1-.08-.26,11.12,11.12,0,0,1-.43-3.14,4.05,4.05,0,0,1,3.9-4.2h.14a4.06,4.06,0,0,1,3.9,4.2,11.12,11.12,0,0,1-.43,3.14c0,.09-.06.18-.08.26-.19.59-.41,1.13-.59,1.67a6.51,6.51,0,0,0-.39,2.58.57.57,0,0,0,0,.13,7.5,7.5,0,0,0,.34,1.67c.94,2.95,3.45,5.12,4.3,9A27.9,27.9,0,0,1,205.24,351.49Z" style="fill:#fff;stroke:#263238;stroke-linecap:round;stroke-linejoin:round"></path><path d="M194,330.59c.19.59.4,1.13.58,1.67h5.75c.18-.54.4-1.08.59-1.67Zm6,4.38h-5a7.5,7.5,0,0,1-.34,1.67h5.66A7.5,7.5,0,0,1,200,335Z" style="fill:#ECEFF1;stroke:#263238;stroke-linecap:round;stroke-linejoin:round"></path></g><g id="freepik--bowling-1--inject-13"><path d="M55.69,409.87V330.94a6.63,6.63,0,0,1,5.16-6.47l66.3-15a6.63,6.63,0,0,1,8.09,6.47v72.58Z" style="fill:#263238;stroke:#263238;stroke-linecap:round;stroke-linejoin:round"></path><path d="M117,368.82c-.75-3.42-3-5.34-3.81-7.95a6.28,6.28,0,0,1-.3-1.47s0-.08,0-.12a5.61,5.61,0,0,1,.35-2.28c.16-.48.35-1,.51-1.48l.08-.23a10.08,10.08,0,0,0,.38-2.78,3.6,3.6,0,0,0-3.45-3.72h-.13a3.59,3.59,0,0,0-3.45,3.72,10.08,10.08,0,0,0,.38,2.78c0,.08,0,.15.07.23.17.52.36,1,.52,1.48a5.61,5.61,0,0,1,.35,2.28s0,.08,0,.12a6.28,6.28,0,0,1-.3,1.47c-.83,2.61-3.06,4.53-3.81,7.95a24.41,24.41,0,0,0-.54,5.2c0,5.16,1.82,10.28,4,12.85h5.71c2.17-2.57,4-7.69,4-12.85A25.07,25.07,0,0,0,117,368.82Z" style="fill:#fff;stroke:#263238;stroke-linecap:round;stroke-linejoin:round"></path><path d="M106.37,366.68c-.75-3.42-3-5.34-3.81-7.95a6.93,6.93,0,0,1-.3-1.48.45.45,0,0,0,0-.11,5.94,5.94,0,0,1,.35-2.28c.16-.49.35-1,.52-1.48,0-.08,0-.16.07-.24a10,10,0,0,0,.38-2.77,3.59,3.59,0,0,0-3.45-3.72H100a3.59,3.59,0,0,0-3.45,3.72,10,10,0,0,0,.38,2.77,2.25,2.25,0,0,0,.08.24c.16.52.35,1,.51,1.48a5.58,5.58,0,0,1,.35,2.28.37.37,0,0,1,0,.11,6.37,6.37,0,0,1-.3,1.48c-.83,2.61-3.06,4.53-3.81,7.95a24.38,24.38,0,0,0-.54,5.19c0,5.16,1.83,10.29,4,12.86h5.71c2.18-2.57,4-7.7,4-12.86A24.38,24.38,0,0,0,106.37,366.68Z" style="fill:#fff;stroke:#263238;stroke-linecap:round;stroke-linejoin:round"></path><path d="M93,364.38c-.75-3.42-3-5.34-3.81-7.95a6.28,6.28,0,0,1-.29-1.47.49.49,0,0,1,0-.12,5.78,5.78,0,0,1,.34-2.28c.17-.48.35-1,.52-1.48a2,2,0,0,0,.07-.23,9.72,9.72,0,0,0,.39-2.78,3.59,3.59,0,0,0-3.45-3.72h-.13a3.59,3.59,0,0,0-3.45,3.72,9.71,9.71,0,0,0,.38,2.78c0,.08.05.15.07.23.17.52.36,1,.52,1.48a6,6,0,0,1,.35,2.28.49.49,0,0,0,0,.12,6.84,6.84,0,0,1-.3,1.47c-.84,2.61-3.06,4.53-3.81,7.95a24.41,24.41,0,0,0-.54,5.2c0,5.15,1.82,10.28,4,12.85h5.72c2.17-2.57,4-7.7,4-12.85A24.39,24.39,0,0,0,93,364.38Z" style="fill:#fff;stroke:#263238;stroke-linecap:round;stroke-linejoin:round"></path><path d="M119.8,378.85c0,5.83-2.06,11.62-4.52,14.53h-6.46c-2.45-2.91-4.51-8.7-4.51-14.53a27.26,27.26,0,0,1,.61-5.87c.85-3.86,3.36-6,4.3-9a7.5,7.5,0,0,0,.34-1.67.57.57,0,0,0,0-.13,6.51,6.51,0,0,0-.39-2.58c-.18-.54-.4-1.09-.59-1.67a2.58,2.58,0,0,0-.08-.26,11.12,11.12,0,0,1-.43-3.14,4.07,4.07,0,0,1,3.9-4.21h.14a4.06,4.06,0,0,1,3.9,4.21,11.12,11.12,0,0,1-.43,3.14,2.58,2.58,0,0,1-.08.26c-.19.59-.4,1.13-.58,1.67a6.51,6.51,0,0,0-.4,2.58.57.57,0,0,1,0,.13,7.5,7.5,0,0,0,.34,1.67c.94,2.95,3.46,5.12,4.3,9A27.24,27.24,0,0,1,119.8,378.85Z" style="fill:#fff;stroke:#263238;stroke-linecap:round;stroke-linejoin:round"></path><path d="M108.59,358c.19.58.41,1.13.59,1.67h5.75c.18-.54.39-1.08.58-1.67Zm6,4.38h-5a7.5,7.5,0,0,1-.34,1.67h5.66A7.5,7.5,0,0,1,114.54,362.33Z" style="fill:#ECEFF1;stroke:#263238;stroke-linecap:round;stroke-linejoin:round"></path><path d="M72.48,381.91c0,5.83-2.06,11.62-4.52,14.53H61.51c-2.46-2.91-4.52-8.7-4.52-14.53A27.9,27.9,0,0,1,57.6,376c.85-3.86,3.37-6,4.31-9a7.5,7.5,0,0,0,.34-1.67.57.57,0,0,1,0-.13,6.51,6.51,0,0,0-.4-2.58c-.18-.54-.39-1.08-.58-1.67a2,2,0,0,1-.08-.26,11.12,11.12,0,0,1-.43-3.14,4.05,4.05,0,0,1,3.9-4.2h.14a4.06,4.06,0,0,1,3.9,4.2,11.12,11.12,0,0,1-.43,3.14l-.09.26c-.18.59-.4,1.13-.58,1.67a6.51,6.51,0,0,0-.39,2.58.57.57,0,0,0,0,.13,7.5,7.5,0,0,0,.34,1.67c.94,2.95,3.45,5.12,4.3,9A27.9,27.9,0,0,1,72.48,381.91Z" style="fill:#fff;stroke:#263238;stroke-linecap:round;stroke-linejoin:round"></path><path d="M61.28,361c.19.59.4,1.13.58,1.67h5.75c.18-.54.4-1.08.58-1.67Zm6,4.38h-5a7.5,7.5,0,0,1-.34,1.67h5.66A7.5,7.5,0,0,1,67.23,365.39Z" style="fill:#ECEFF1;stroke:#263238;stroke-linecap:round;stroke-linejoin:round"></path><path d="M88,380.36c0,5.82-2.07,11.62-4.52,14.52H77c-2.45-2.9-4.52-8.7-4.52-14.52a27.17,27.17,0,0,1,.62-5.87c.85-3.87,3.36-6,4.3-9a7.29,7.29,0,0,0,.34-1.66.66.66,0,0,0,0-.14,6.64,6.64,0,0,0-.39-2.57c-.18-.55-.4-1.09-.59-1.67,0-.09,0-.18-.08-.27a11.12,11.12,0,0,1-.43-3.14,4.06,4.06,0,0,1,3.9-4.2h.14a4.05,4.05,0,0,1,3.9,4.2,11.12,11.12,0,0,1-.43,3.14,2.76,2.76,0,0,1-.08.27c-.19.58-.4,1.12-.58,1.67a6.46,6.46,0,0,0-.4,2.57.66.66,0,0,1,0,.14A7.29,7.29,0,0,0,83,365.5c.94,2.95,3.46,5.12,4.3,9A27.17,27.17,0,0,1,88,380.36Z" style="fill:#fff;stroke:#263238;stroke-linecap:round;stroke-linejoin:round"></path><path d="M76.74,359.46c.19.58.41,1.12.59,1.67h5.75c.18-.55.39-1.09.58-1.67Zm6,4.38h-5a7.29,7.29,0,0,1-.34,1.66H83A7.29,7.29,0,0,1,82.69,363.84Z" style="fill:#ECEFF1;stroke:#263238;stroke-linecap:round;stroke-linejoin:round"></path><path d="M103.08,379.47c0,5.83-2.06,11.62-4.52,14.53H92.11c-2.46-2.91-4.52-8.7-4.52-14.53a28,28,0,0,1,.61-5.87c.85-3.86,3.37-6,4.31-9a7.5,7.5,0,0,0,.34-1.67.57.57,0,0,1,0-.13,6.51,6.51,0,0,0-.4-2.58c-.18-.54-.39-1.08-.58-1.67a2,2,0,0,1-.08-.26,11.12,11.12,0,0,1-.43-3.14,4.05,4.05,0,0,1,3.9-4.2h.14a4.06,4.06,0,0,1,3.9,4.2,11.12,11.12,0,0,1-.43,3.14l-.09.26c-.18.59-.4,1.13-.58,1.67a6.51,6.51,0,0,0-.39,2.58.57.57,0,0,0,0,.13,7.5,7.5,0,0,0,.34,1.67c.94,2.95,3.45,5.12,4.3,9A28,28,0,0,1,103.08,379.47Z" style="fill:#fff;stroke:#263238;stroke-linecap:round;stroke-linejoin:round"></path><path d="M91.88,358.57c.19.59.4,1.13.58,1.67h5.75c.18-.54.4-1.08.58-1.67Zm6,4.38h-5a7.5,7.5,0,0,1-.34,1.67h5.66A7.5,7.5,0,0,1,97.83,363Z" style="fill:#ECEFF1;stroke:#263238;stroke-linecap:round;stroke-linejoin:round"></path></g><g id="freepik--Numbers--inject-13"><line x1="46.31" y1="311.19" x2="233.13" y2="270.55" style="fill:none;stroke:#263238;stroke-linecap:round;stroke-linejoin:round"></line><polygon points="81.37 310.99 85.44 294.25 107.71 289.31 103.57 305.77 81.37 310.99" style="fill:#fff;stroke:#263238;stroke-linecap:round;stroke-linejoin:round"></polygon><polygon points="184.63 286.52 188.7 269.79 210.97 264.85 206.84 281.3 184.63 286.52" style="fill:#fff;stroke:#263238;stroke-linecap:round;stroke-linejoin:round"></polygon><path d="M92.86,306l1.86-8.5-.33.24L94,298l-.38.27-.35.24.36-1.63c.1-.08.23-.19.41-.32l.57-.45.58-.49a5.19,5.19,0,0,0,.41-.41l1.53-.43L94.8,305.4Z" style="fill:#263238"></path><path d="M194.69,281.55,195,280l3.12-4.5.67-1a9.18,9.18,0,0,0,.56-.93,3.74,3.74,0,0,0,.34-.91.94.94,0,0,0,0-.64.33.33,0,0,0-.4-.11,1.09,1.09,0,0,0-.53.33,1.83,1.83,0,0,0-.36.59,5.09,5.09,0,0,0-.22.75l-.12.52-1.89.5.12-.56a6.79,6.79,0,0,1,.65-1.75,4.71,4.71,0,0,1,1.1-1.4,4.27,4.27,0,0,1,1.63-.83c.85-.22,1.43-.15,1.75.23a2.18,2.18,0,0,1,.2,1.9,5.77,5.77,0,0,1-.45,1.24,10.65,10.65,0,0,1-.71,1.19c-.28.4-.57.82-.88,1.25l-2.36,3.36,2.76-.74-.38,1.72Z" style="fill:#263238"></path></g><g id="freepik--Screen--inject-13"><polygon points="78.9 216 111.87 103.66 253.5 91.64 257.73 96.34 83.13 220.69 78.9 216" style="fill:#263238;stroke:#263238;stroke-linecap:round;stroke-linejoin:round"></polygon><polygon points="83.13 220.69 116.09 108.35 257.73 96.34 221.07 200.1 83.13 220.69" style="fill:#263238;stroke:#263238;stroke-linecap:round;stroke-linejoin:round"></polygon><polygon points="94.43 212.64 123.13 114.84 246.43 104.38 214.52 194.72 94.43 212.64" style="fill:#ECEFF1;stroke:#263238;stroke-linecap:round;stroke-linejoin:round"></polygon><line x1="134.16" y1="121.94" x2="149.98" y2="120.51" style="fill:none;stroke:#fff;stroke-linecap:round;stroke-linejoin:round"></line><line x1="130.47" y1="132.18" x2="146.37" y2="130.62" style="fill:none;stroke:#fff;stroke-linecap:round;stroke-linejoin:round"></line><line x1="126.76" y1="142.46" x2="142.74" y2="140.78" style="fill:none;stroke:#fff;stroke-linecap:round;stroke-linejoin:round"></line><line x1="123.03" y1="152.8" x2="139.09" y2="150.98" style="fill:none;stroke:#fff;stroke-linecap:round;stroke-linejoin:round"></line><line x1="119.28" y1="163.17" x2="135.43" y2="161.23" style="fill:none;stroke:#fff;stroke-linecap:round;stroke-linejoin:round"></line><line x1="115.52" y1="173.6" x2="131.75" y2="171.53" style="fill:none;stroke:#fff;stroke-linecap:round;stroke-linejoin:round"></line><line x1="111.74" y1="184.07" x2="128.05" y2="181.87" style="fill:none;stroke:#fff;stroke-linecap:round;stroke-linejoin:round"></line><line x1="107.95" y1="194.59" x2="124.34" y2="192.26" style="fill:none;stroke:#fff;stroke-linecap:round;stroke-linejoin:round"></line><line x1="104.13" y1="205.16" x2="120.61" y2="202.7" style="fill:none;stroke:#fff;stroke-linecap:round;stroke-linejoin:round"></line><line x1="158.61" y1="119.73" x2="184.38" y2="117.4" style="fill:none;stroke:#fff;stroke-linecap:round;stroke-linejoin:round"></line><line x1="155.04" y1="129.77" x2="180.94" y2="127.24" style="fill:none;stroke:#fff;stroke-linecap:round;stroke-linejoin:round"></line><line x1="151.45" y1="139.86" x2="177.48" y2="137.12" style="fill:none;stroke:#fff;stroke-linecap:round;stroke-linejoin:round"></line><line x1="147.85" y1="150" x2="174" y2="147.05" style="fill:none;stroke:#fff;stroke-linecap:round;stroke-linejoin:round"></line><line x1="144.23" y1="160.18" x2="170.51" y2="157.02" style="fill:none;stroke:#fff;stroke-linecap:round;stroke-linejoin:round"></line><line x1="140.59" y1="170.4" x2="167" y2="167.03" style="fill:none;stroke:#fff;stroke-linecap:round;stroke-linejoin:round"></line><line x1="136.94" y1="180.67" x2="163.48" y2="177.09" style="fill:none;stroke:#fff;stroke-linecap:round;stroke-linejoin:round"></line><line x1="133.27" y1="190.99" x2="159.95" y2="187.2" style="fill:none;stroke:#fff;stroke-linecap:round;stroke-linejoin:round"></line><line x1="129.59" y1="201.36" x2="156.39" y2="197.34" style="fill:none;stroke:#fff;stroke-linecap:round;stroke-linejoin:round"></line><line x1="189.3" y1="116.95" x2="203.85" y2="115.63" style="fill:none;stroke:#fff;stroke-linecap:round;stroke-linejoin:round"></line><line x1="185.88" y1="126.75" x2="200.5" y2="125.32" style="fill:none;stroke:#fff;stroke-linecap:round;stroke-linejoin:round"></line><line x1="182.45" y1="136.6" x2="197.13" y2="135.05" style="fill:none;stroke:#fff;stroke-linecap:round;stroke-linejoin:round"></line><line x1="179" y1="146.49" x2="193.75" y2="144.82" style="fill:none;stroke:#fff;stroke-linecap:round;stroke-linejoin:round"></line><line x1="175.53" y1="156.42" x2="190.36" y2="154.63" style="fill:none;stroke:#fff;stroke-linecap:round;stroke-linejoin:round"></line><line x1="172.05" y1="166.39" x2="186.95" y2="164.49" style="fill:none;stroke:#fff;stroke-linecap:round;stroke-linejoin:round"></line><line x1="168.55" y1="176.41" x2="183.53" y2="174.39" style="fill:none;stroke:#fff;stroke-linecap:round;stroke-linejoin:round"></line><line x1="165.04" y1="186.47" x2="180.09" y2="184.33" style="fill:none;stroke:#fff;stroke-linecap:round;stroke-linejoin:round"></line><line x1="161.51" y1="196.58" x2="176.64" y2="194.31" style="fill:none;stroke:#fff;stroke-linecap:round;stroke-linejoin:round"></line><line x1="211.79" y1="114.92" x2="235.52" y2="112.77" style="fill:none;stroke:#fff;stroke-linecap:round;stroke-linejoin:round"></line><line x1="208.48" y1="124.54" x2="232.32" y2="122.2" style="fill:none;stroke:#fff;stroke-linecap:round;stroke-linejoin:round"></line><line x1="205.15" y1="134.21" x2="229.11" y2="131.68" style="fill:none;stroke:#fff;stroke-linecap:round;stroke-linejoin:round"></line><line x1="201.81" y1="143.91" x2="225.88" y2="141.2" style="fill:none;stroke:#fff;stroke-linecap:round;stroke-linejoin:round"></line><line x1="198.45" y1="153.66" x2="222.64" y2="150.76" style="fill:none;stroke:#fff;stroke-linecap:round;stroke-linejoin:round"></line><line x1="195.08" y1="163.45" x2="219.39" y2="160.35" style="fill:none;stroke:#fff;stroke-linecap:round;stroke-linejoin:round"></line><line x1="191.7" y1="173.29" x2="216.12" y2="169.99" style="fill:none;stroke:#fff;stroke-linecap:round;stroke-linejoin:round"></line><line x1="188.3" y1="183.16" x2="212.84" y2="179.67" style="fill:none;stroke:#fff;stroke-linecap:round;stroke-linejoin:round"></line><line x1="184.89" y1="193.08" x2="209.54" y2="189.39" style="fill:none;stroke:#fff;stroke-linecap:round;stroke-linejoin:round"></line></g><g id="freepik--Character--inject-13"><path d="M668.52,394.6s-2.83,5.79-3.11,6.49-6.78,3.11-6.21,4.38,10.73,1.83,13,1.13,3.1-3.81,3.81-5.36,7.48-8.47,6.77-11.58-9.17-3.39-9.17-3.39Z" style="fill:#919191;stroke:#263238;stroke-linecap:round;stroke-linejoin:round"></path><path d="M682.77,389.66c-.7-3.11-9.17-3.39-9.17-3.39l-.44.72a7.17,7.17,0,0,1,.3.69c.56,1.7,5.92,5.09,5.92,5.09s-4.09,6.21-4.94,7.9-2.25,4.09-4.23,4.38c-1.74.25-8.86-.38-10.52-.54-.4.36-.61.68-.49,1,.56,1.27,10.73,1.83,13,1.13s3.1-3.81,3.81-5.36S683.48,392.77,682.77,389.66Z" style="fill:#fff;stroke:#263238;stroke-linecap:round;stroke-linejoin:round"></path><path d="M618.26,340.82s4.94,34.44,5.93,35.43,35.71,13.83,36.14,14.12a23.49,23.49,0,0,1,2,3.52l6.64,2.83a6.94,6.94,0,0,0,4.37-3.11c1.7-2.68,3.11-7.9,3.11-7.9s-15.53-10-22.3-14.82a80.68,80.68,0,0,0-11-6.78s-.14-1.84-1.13-2.26a18.19,18.19,0,0,1-3-2.12l6.64-36.84Z" style="fill:#263238;stroke:#263238;stroke-linecap:round;stroke-linejoin:round"></path><path d="M593.84,397.28s-4.23,3.53-7.76,6.5-8.61,3.81-8.61,5.08a2.4,2.4,0,0,0,2.4,2.68,102.46,102.46,0,0,0,17.36-.14c6.63-.71,12.85-1.13,13.69-3s-2.82-9.59-2.82-9.59Z" style="fill:#919191;stroke:#263238;stroke-linecap:round;stroke-linejoin:round"></path><path d="M579.87,411.54a102.46,102.46,0,0,0,17.36-.14c6.63-.71,12.85-1.13,13.69-3s-2.82-9.59-2.82-9.59l-1.1-.12c-.86.46-1.82,1-2.85,1.67a7.63,7.63,0,0,0-3.39,8,105.17,105.17,0,0,1-11.44,1.27,58.7,58.7,0,0,1-11.85-.84A2.4,2.4,0,0,0,579.87,411.54Z" style="fill:#fff;stroke:#263238;stroke-linecap:round;stroke-linejoin:round"></path><path d="M610.7,314s-30.27,29.54-30.83,33.78,14.11,42.48,13.69,42.91a4,4,0,0,0-1.27,2.4c0,1,.42,4.66.42,4.66s1.41,2.25,6.64,3.38a73.72,73.72,0,0,0,9.6,1.42s1.55-3.53,1.55-5.37-1-7.48-1-7.48l-6.92-30.91a6.56,6.56,0,0,0,.71-2.4,11,11,0,0,0-1-4s37.13-22.44,41.08-25,11.44-11.15,10.73-16.09-1.41-10.45-2.68-11.15-2.26-2.4-12,.28-17.78,3.95-19.05,5.08S610.7,314,610.7,314Z" style="fill:#263238;stroke:#263238;stroke-linecap:round;stroke-linejoin:round"></path><path d="M602.59,358.75s-7.9-1.7-11.43-7.2" style="fill:none;stroke:#fff;stroke-linecap:round;stroke-linejoin:round"></path><path d="M601,353.1a10.91,10.91,0,0,1-3.53-1.55" style="fill:none;stroke:#fff;stroke-linecap:round;stroke-linejoin:round"></path><path d="M585.71,258.23s-3.55,9.8-5.26,11.39-7.48,5.63-8.46,9.8a76.94,76.94,0,0,0-1.59,8.82c0,.49-4.65,9.43-5.76,13.23s-1.22,4.53-1.34,4.9-11,5.88-14,8.45-12.46,9.5-14.17,10.6a29.72,29.72,0,0,1-4.78,2.21s-5-.12-6.12,1.22-3.31,3.68-3.31,3.68l1.1,1.1s2.08-1.47,3.31-1.47h1.22l-2.32,8.7,2,6.37s4.9-4.29,6.49-7,4.29-8.09,4.29-8.09,19.31-5.09,25.81-10.11,8.94-8.09,9.55-8.82,8.21-8,10.17-11.76,6.37-13.11,6.37-13.11,15.31,15.44,16.54,17.15,3.06,2,2.81,3.55,2.09,4.17,2.45,4.9,11.52-8.2,12.5-8.57,6.37-.61,11.76-.61,15.68-3.8,16.17-3.68a14.5,14.5,0,0,1,1.59.61,8.32,8.32,0,0,0-.49-3.67c-.73-2.33-2.45-4.41-2.94-5.76s-7.1-18.5-10.78-24.5-6.12-11-6.12-11L656.52,255s9.92,3.06,13.11,3.06,13.72-.61,14.82-.24a40.59,40.59,0,0,0,5.51.61s2.21,3.43,4.53,3.43a48.1,48.1,0,0,1,7.23,1.1s5.27,6.86,5.27,5.76-1.59-4.65-1.59-4.65,4.16,3.67,5,4.16,1.84,0,1.23-.73l-3.56-4.29s5.15,2.57,6,2.94,1.71-.12,1.47-.61-1.35-.74-2.82-1.47a31.48,31.48,0,0,1-3.92-2.7s6.37,1.23,6.74.61.36-1.47-1-1.59-2.33-.24-5.27-2-5.15-2.94-7.23-3.18-8.45-1-9.43-1.11-26.95-9.67-30.14-10.29a67.3,67.3,0,0,0-8.57-.73l-15.19-2s-11.4-4.29-16.3-4.17-10.9,1.23-13,2.33a43.66,43.66,0,0,1-5.15,2.45c-1.1.37-5.51,1.47-5.51,1.47Z" style="fill:#fff;stroke:#263238;stroke-linecap:round;stroke-linejoin:round"></path><path d="M695.34,257.4a22.18,22.18,0,0,0,4.94.14c2-.28,4.38-1.55,4.66-.14a2.24,2.24,0,0,1-1.69,2.82c-1.27.28-3.53.56-3.53.56a28.59,28.59,0,0,1-6.07,1.56c-2.26.14-4.38-4.94-4.38-4.94" style="fill:#fff;stroke:#263238;stroke-linecap:round;stroke-linejoin:round"></path><circle cx="514.6" cy="344.64" r="14.4" transform="translate(-92.97 464.82) rotate(-45)" style="fill:#ECEFF1;stroke:#263238;stroke-linecap:round;stroke-linejoin:round"></circle><path d="M531.26,332.22a34,34,0,0,0-1.83,4.38c0,.56-.43,6.07-.43,6.07s-1.5,2.17-2.65,4a8.43,8.43,0,0,0-1.3,2.59c.14.71,2-.71,3.53-2.26a14.45,14.45,0,0,0,3.39-4.23c.56-1.42,5-10.65,5-10.65" style="fill:#fff;stroke:#263238;stroke-linecap:round;stroke-linejoin:round"></path><path d="M649.29,292.28c-.49-1.35-7.1-18.5-10.78-24.5s-6.12-11-6.12-11l7.85-.56-.19-14.83-1.29-.17s-11.4-4.29-16.3-4.17-10.9,1.23-13,2.33a43.66,43.66,0,0,1-5.15,2.45c-1.1.37-5.51,1.47-5.51,1.47l-13.11,15s-3.55,9.8-5.26,11.39-7.48,5.63-8.46,9.8a76.94,76.94,0,0,0-1.59,8.82,26,26,0,0,1-1.29,2.89l17.69,1.63c1.18-2.46,2.1-4.4,2.1-4.4s15.31,15.44,16.54,17.15,3.06,2,2.81,3.55,2.09,4.17,2.45,4.9,11.52-8.2,12.5-8.57,6.37-.61,11.76-.61,15.68-3.8,16.17-3.68a14.5,14.5,0,0,1,1.59.61,8.32,8.32,0,0,0-.49-3.67C651.5,295.71,649.78,293.63,649.29,292.28Z" style="fill:#ECEFF1;stroke:#263238;stroke-linecap:round;stroke-linejoin:round"></path><line x1="620.02" y1="261.26" x2="617.84" y2="262.06" style="fill:none;stroke:#263238;stroke-linecap:round;stroke-linejoin:round"></line><polyline points="617.14 258.53 632.39 256.76 622.39 260.4" style="fill:none;stroke:#263238;stroke-linecap:round;stroke-linejoin:round"></polyline><path d="M638.32,295.74c1.91-.42,3.52-.65,3.52-.65" style="fill:none;stroke:#263238;stroke-linecap:round;stroke-linejoin:round"></path><path d="M624.06,303.84s7.34-5.79,10.16-6.92c.34-.14.71-.27,1.1-.39" style="fill:none;stroke:#263238;stroke-linecap:round;stroke-linejoin:round"></path><path d="M617,308.5s8.61-13.13,13.69-17.37" style="fill:none;stroke:#263238;stroke-linecap:round;stroke-linejoin:round"></path><polyline points="582.27 281.11 588.9 288.36 581.28 284.08" style="fill:none;stroke:#263238;stroke-linecap:round;stroke-linejoin:round"></polyline><path d="M584.12,256v3.31c0,2.45-.12,5.63,1.1,7.1l1.23,1.47s-.25-1.1,1-3.3,4.41-3.19,4.41-3.19a3.63,3.63,0,0,1,3.31-1.71c2.45,0,5.14,2.08,5.14,2.08s.86-15.19-.61-18.62-8.09-1.72-8.45-1.35S584.12,256,584.12,256Z" style="fill:#ECEFF1;stroke:#263238;stroke-linecap:round;stroke-linejoin:round"></path><path d="M567.34,227s-2.45,8.57-1.47,9.43,1.1,3.31,1.1,3.31-2.33,5.63-1.84,6.37,3.07,1.22,3.07,1.22,2.45,7.84,3.43,8.33,5.63-1.34,5.63-1.34l14.58,7.1,1.59-20s-3.92-13.23-10.17-16.53S569.79,224.54,567.34,227Z" style="fill:#fff;stroke:#263238;stroke-linecap:round;stroke-linejoin:round"></path><path d="M574.57,226.62a16.1,16.1,0,0,1-6.37,1.84c-3.31.12-8.58-3.68-8.46-7.6s3.43-5,6.13-3.55,2.69,3.19,3.67,2.45-1.22-3.8,3.8-4,3.8,4.16,4.53,4.29,7-1.35,12,1.59,7.59,9.06,8.08,14.82-1.83,7.11-4.41,8.09-5.88-1.47-5.88-1.47a11.16,11.16,0,0,0,1.11-4.17c.12-2.33-.86-4.53-2.94-3.43s-1.23,2.82-2.21,3.8a1.25,1.25,0,0,1-1.84.12s.37-4-.49-4.29-5.39-1.22-5-2.57,1.84-2.69,1.59-3.92S575.55,225.76,574.57,226.62Z" style="fill:#263238;stroke:#263238;stroke-linecap:round;stroke-linejoin:round"></path><path d="M568,236.3s1.23-2.45,4-.49" style="fill:none;stroke:#263238;stroke-linecap:round;stroke-linejoin:round"></path><path d="M571,247.57s4.17-.74,4.9-4.41" style="fill:none;stroke:#263238;stroke-linecap:round;stroke-linejoin:round"></path><path d="M571.5,239.48c.08.84-.18,1.55-.59,1.59s-.79-.61-.87-1.46.18-1.55.58-1.59S571.42,238.63,571.5,239.48Z" style="fill:#263238"></path><path d="M587.67,243a3.33,3.33,0,0,1-3.43,0" style="fill:none;stroke:#263238;stroke-linecap:round;stroke-linejoin:round"></path></g></svg>