<svg xmlns="http://www.w3.org/2000/svg" viewBox="0 0 471.08 450.08"><g id="freepik--background-simple--inject-18"><path d="M473.36,221S430.92,86.56,338.69,45.06c-81.4-36.64-172.52-20.58-210.62,63.47-13.57,29.95-31.21,62.26-52.36,86.86C52,223,20.17,242.19,19.2,309.08S77.29,455,132.77,472.08,256,455,313.17,422.48,520.58,389.43,473.36,221Z" transform="translate(-11.4 -26.55)" style="fill:#ECEFF1"></path><path d="M473.36,221S430.92,86.56,338.69,45.06c-81.4-36.64-172.52-20.58-210.62,63.47-13.57,29.95-31.21,62.26-52.36,86.86C52,223,20.17,242.19,19.2,309.08S77.29,455,132.77,472.08,256,455,313.17,422.48,520.58,389.43,473.36,221Z" transform="translate(-11.4 -26.55)" style="fill:#fff;opacity:0.7000000000000001"></path></g><g id="freepik--Floor--inject-18"><polyline points="246.08 436.65 250.89 434.65 255.69 436.65" style="fill:none;stroke:#263238;stroke-linecap:round;stroke-linejoin:round"></polyline><polyline points="186.8 435.94 188.5 436.65 193.3 434.65 198.1 436.65 202.89 434.65 207.69 436.65 212.49 434.65 217.28 436.65 222.08 434.65 226.88 436.65 231.68 434.65 236.48 436.65 241.28 434.65 243.87 435.73" style="fill:none;stroke:#263238;stroke-linecap:round;stroke-linejoin:round"></polyline><polyline points="148.15 435.82 150.13 436.65 154.92 434.65 159.72 436.65 164.52 434.65 169.31 436.65 174.11 434.65 178.91 436.65 183.7 434.65" style="fill:none;stroke:#263238;stroke-linecap:round;stroke-linejoin:round"></polyline><polyline points="135.74 434.65 140.53 436.65 145.33 434.65" style="fill:none;stroke:#263238;stroke-linecap:round;stroke-linejoin:round"></polyline><polyline points="413.7 423.94 418.5 421.94 423.31 423.94" style="fill:none;stroke:#263238;stroke-linecap:round;stroke-linejoin:round"></polyline><polyline points="354.41 423.23 356.12 423.94 360.92 421.94 365.71 423.94 370.51 421.94 375.31 423.94 380.1 421.94 384.9 423.94 389.7 421.94 394.5 423.94 399.3 421.94 404.09 423.94 408.89 421.94 411.48 423.02" style="fill:none;stroke:#263238;stroke-linecap:round;stroke-linejoin:round"></polyline><polyline points="315.76 423.12 317.74 423.94 322.54 421.94 327.33 423.94 332.13 421.94 336.93 423.94 341.72 421.94 346.52 423.94 351.32 421.94" style="fill:none;stroke:#263238;stroke-linecap:round;stroke-linejoin:round"></polyline><polyline points="303.36 421.94 308.15 423.94 312.94 421.94" style="fill:none;stroke:#263238;stroke-linecap:round;stroke-linejoin:round"></polyline><polyline points="35.17 391.67 37.15 392.5 41.94 390.5 46.74 392.5 51.54 390.5 56.33 392.5 61.13 390.5 65.93 392.5 70.72 390.5" style="fill:none;stroke:#263238;stroke-linecap:round;stroke-linejoin:round"></polyline><polyline points="22.76 390.5 27.56 392.5 32.35 390.5" style="fill:none;stroke:#263238;stroke-linecap:round;stroke-linejoin:round"></polyline><polyline points="393.72 367.48 395.7 368.31 400.5 366.31 405.29 368.31 410.09 366.31 414.88 368.31 419.68 366.31 424.48 368.31 429.28 366.31" style="fill:none;stroke:#263238;stroke-linecap:round;stroke-linejoin:round"></polyline><polyline points="381.31 366.31 386.11 368.31 390.9 366.31" style="fill:none;stroke:#263238;stroke-linecap:round;stroke-linejoin:round"></polyline><polyline points="232.04 358.33 234.02 359.16 238.82 357.16 243.61 359.16 248.41 357.16 253.21 359.16 258 357.16 262.8 359.16 267.6 357.16" style="fill:none;stroke:#263238;stroke-linecap:round;stroke-linejoin:round"></polyline><polyline points="219.63 357.16 224.43 359.16 229.22 357.16" style="fill:none;stroke:#263238;stroke-linecap:round;stroke-linejoin:round"></polyline><polyline points="457.02 347.01 461.83 345.01 466.64 347.01" style="fill:none;stroke:#263238;stroke-linecap:round;stroke-linejoin:round"></polyline><polyline points="397.74 346.3 399.44 347.01 404.24 345.01 409.04 347.01 413.83 345.01 418.63 347.01 423.43 345.01 428.23 347.01 433.02 345.01 437.82 347.01 442.62 345.01 447.42 347.01 452.22 345.01 454.81 346.08" style="fill:none;stroke:#263238;stroke-linecap:round;stroke-linejoin:round"></polyline><polyline points="359.09 346.18 361.07 347.01 365.87 345.01 370.66 347.01 375.46 345.01 380.25 347.01 385.05 345.01 389.85 347.01 394.65 345.01" style="fill:none;stroke:#263238;stroke-linecap:round;stroke-linejoin:round"></polyline><polyline points="346.68 345.01 351.48 347.01 356.27 345.01" style="fill:none;stroke:#263238;stroke-linecap:round;stroke-linejoin:round"></polyline><polyline points="341.63 347.01 346.44 345.01 351.24 347.01" style="fill:none;stroke:#263238;stroke-linecap:round;stroke-linejoin:round"></polyline><polyline points="282.35 346.3 284.05 347.01 288.85 345.01 293.65 347.01 298.44 345.01 303.24 347.01 308.03 345.01 312.83 347.01 317.63 345.01 322.43 347.01 327.23 345.01 332.03 347.01 336.83 345.01 339.41 346.08" style="fill:none;stroke:#263238;stroke-linecap:round;stroke-linejoin:round"></polyline><polyline points="243.7 346.18 245.68 347.01 250.47 345.01 255.27 347.01 260.06 345.01 264.86 347.01 269.66 345.01 274.45 347.01 279.25 345.01" style="fill:none;stroke:#263238;stroke-linecap:round;stroke-linejoin:round"></polyline><polyline points="231.29 345.01 236.08 347.01 240.88 345.01" style="fill:none;stroke:#263238;stroke-linecap:round;stroke-linejoin:round"></polyline><polyline points="226.24 347.01 231.04 345.01 235.85 347.01" style="fill:none;stroke:#263238;stroke-linecap:round;stroke-linejoin:round"></polyline><polyline points="166.95 346.3 168.66 347.01 173.45 345.01 178.25 347.01 183.05 345.01 187.84 347.01 192.64 345.01 197.44 347.01 202.24 345.01 207.03 347.01 211.84 345.01 216.63 347.01 221.43 345.01 224.02 346.08" style="fill:none;stroke:#263238;stroke-linecap:round;stroke-linejoin:round"></polyline><polyline points="128.3 346.18 130.28 347.01 135.08 345.01 139.87 347.01 144.67 345.01 149.47 347.01 154.26 345.01 159.06 347.01 163.86 345.01" style="fill:none;stroke:#263238;stroke-linecap:round;stroke-linejoin:round"></polyline><polyline points="115.89 345.01 120.69 347.01 125.48 345.01" style="fill:none;stroke:#263238;stroke-linecap:round;stroke-linejoin:round"></polyline><polyline points="110.84 347.01 115.65 345.01 120.45 347.01" style="fill:none;stroke:#263238;stroke-linecap:round;stroke-linejoin:round"></polyline><polyline points="51.56 346.3 53.26 347.01 58.06 345.01 62.86 347.01 67.65 345.01 72.45 347.01 77.24 345.01 82.04 347.01 86.84 345.01 91.64 347.01 96.44 345.01 101.24 347.01 106.04 345.01 108.62 346.08" style="fill:none;stroke:#263238;stroke-linecap:round;stroke-linejoin:round"></polyline><polyline points="12.91 346.18 14.89 347.01 19.68 345.01 24.48 347.01 29.27 345.01 34.07 347.01 38.87 345.01 43.67 347.01 48.46 345.01" style="fill:none;stroke:#263238;stroke-linecap:round;stroke-linejoin:round"></polyline><polyline points="0.5 345.01 5.29 347.01 10.09 345.01" style="fill:none;stroke:#263238;stroke-linecap:round;stroke-linejoin:round"></polyline></g><g id="freepik--Fence--inject-18"><line x1="15.72" y1="279.08" x2="467.04" y2="279.08" style="fill:none;stroke:#263238;stroke-linecap:round;stroke-linejoin:round"></line><line x1="197.15" y1="279.48" x2="197.15" y2="9.84" style="fill:none;stroke:#263238;stroke-linecap:round;stroke-linejoin:round"></line><line x1="201.92" y1="279.48" x2="201.92" y2="9.84" style="fill:none;stroke:#263238;stroke-linecap:round;stroke-linejoin:round"></line><line x1="427.19" y1="279.48" x2="427.19" y2="9.84" style="fill:none;stroke:#263238;stroke-linecap:round;stroke-linejoin:round"></line><line x1="431.97" y1="279.48" x2="431.97" y2="9.84" style="fill:none;stroke:#263238;stroke-linecap:round;stroke-linejoin:round"></line></g><g id="freepik--shadow-3--inject-18"><path d="M458.39,415.3c0,3.22-52.26,5.83-116.71,5.83S225,418.52,225,415.3s52.25-5.83,116.71-5.83S458.39,412.08,458.39,415.3Z" transform="translate(-11.4 -26.55)" style="fill:#263238"></path></g><g id="freepik--shadow-2--inject-18"><path d="M121.16,425.49c0,1.51-4.58,2.73-10.24,2.73s-10.23-1.22-10.23-2.73,4.58-2.73,10.23-2.73S121.16,424,121.16,425.49Z" transform="translate(-11.4 -26.55)" style="fill:#263238"></path></g><g id="freepik--shadow-1--inject-18"><ellipse cx="94.75" cy="376.41" rx="50.51" ry="3.41" style="fill:#263238"></ellipse></g><g id="freepik--Ball--inject-18"><circle cx="123.68" cy="387.46" r="7.43" transform="translate(-290.06 420.4) rotate(-80.71)" style="fill:#fff;stroke:#263238;stroke-linecap:round;stroke-linejoin:round"></circle></g><g id="freepik--character-1--inject-18"><path d="M55.26,208.22s-2.57,4.66-3.6,6.62-6.5,7.84-7.49,14.72.34,39.65.39,44.33.36,9.11.8,10.1,7.7,4,7.7,4,6-1.19,6.74-1.92,2.89-6.87,2.89-6.87a5.32,5.32,0,0,0-.25-5.67c-2-2.72-5.69-6.69-6.85-7.43a12.34,12.34,0,0,1-2.51-2.73s5.23-17.94,6.54-20.88,3.69-15,3.69-15l2-9.34S56.8,211.43,55.26,208.22Z" transform="translate(-11.4 -26.55)" style="fill:#bfbfbf;stroke:#263238;stroke-linecap:round;stroke-linejoin:round"></path><path d="M54.69,222.5s.71,6.16,6,4.72" transform="translate(-11.4 -26.55)" style="fill:none;stroke:#263238;stroke-linecap:round;stroke-linejoin:round"></path><path d="M56.64,227.44s2.57,7.16.93,12.56" transform="translate(-11.4 -26.55)" style="fill:none;stroke:#263238;stroke-linecap:round;stroke-linejoin:round"></path><polyline points="47.63 248.91 46.36 250.88 51.29 252.63" style="fill:none;stroke:#263238;stroke-linecap:round;stroke-linejoin:round"></polyline><path d="M52.39,280.84s-.6,3,.34,3.45a67.61,67.61,0,0,0,7.07,1.77" transform="translate(-11.4 -26.55)" style="fill:none;stroke:#263238;stroke-linecap:round;stroke-linejoin:round"></path><path d="M48.54,281.79s-.28,1,1.07,3A12.29,12.29,0,0,0,53.06,288" transform="translate(-11.4 -26.55)" style="fill:none;stroke:#263238;stroke-linecap:round;stroke-linejoin:round"></path><path d="M176.46,292.31s5.1-8.59,8.24-9.55,8.15,4.49,7.57,7.2-2.52,3.42-2.16,6.38,2.28,8.64,1.9,12.33-2.29,9.58-4.43,9.57-4.27-6.43-5.82-9.4-.36-3-3.06-6.92S175.2,294,176.46,292.31Z" transform="translate(-11.4 -26.55)" style="fill:#ECEFF1;stroke:#263238;stroke-linecap:round;stroke-linejoin:round"></path><path d="M105.45,263.73s-3.15,25.34,1.26,40.39S121.3,338.45,124.34,340s10.35-2.88,11.56-3.37,23.32-17.81,26.83-22.21,14.75-11.72,16-12.45,4.71-4.64,3.64-7.85-3.44-3.22-5.88-1.76-15.11,8.75-18.5,10.21-12.12,5.57-12.12,5.57,7.74-27.27,7.33-41.06-3.45-15-3.45-15Z" transform="translate(-11.4 -26.55)" style="fill:#bfbfbf;stroke:#263238;stroke-linecap:round;stroke-linejoin:round"></path><path d="M162.73,314.37c3.51-4.41,14.75-11.72,16-12.45s4.71-4.64,3.64-7.85-3.44-3.22-5.88-1.76-15.11,8.75-18.5,10.21-12.12,5.57-12.12,5.57,2.71,4.07,2.66,17.9c0,.33,0,.62,0,.93C154.6,322,161,316.57,162.73,314.37Z" transform="translate(-11.4 -26.55)" style="fill:#fff;stroke:#263238;stroke-linecap:round;stroke-linejoin:round"></path><path d="M149.26,294.5c2-8.86,4.13-20.1,3.91-27.47-.4-13.8-3.45-15-3.45-15l-44.27,11.75s-3.15,25.34,1.26,40.39c.4,1.37.85,2.78,1.34,4.21,4.07.76,10.16,1,18.53-1.11A52.13,52.13,0,0,0,149.26,294.5Z" transform="translate(-11.4 -26.55)" style="fill:#263238;stroke:#263238;stroke-linecap:round;stroke-linejoin:round"></path><path d="M135.4,264.93s-8.61,31-8.69,39.09,5.24,18,9.18,26.9,14.64,33.1,15.17,37.78l2.12,18.73S147.94,393.3,144,396s-11.9,5.83-12,8.53,12.72,3.54,18.93,3.09,14.42-3.34,15.89-4.56,1.79-2.94,1.66-5.65-1.49-10.6-1.49-10.6a259.7,259.7,0,0,0-.46-30.54c-1.25-16.5,1.47-19.19-2.53-26.36s-11.69-11.41-11.7-17.07-1.13-7.64-.11-9.36,9.4-8.8,13.06-23.3,1.42-23.63-1.71-28.82l-3.13-5.19Z" transform="translate(-11.4 -26.55)" style="fill:#bfbfbf;stroke:#263238;stroke-linecap:round;stroke-linejoin:round"></path><path d="M159.89,293.29a49.25,49.25,0,0,0,5.38-13.13c3.67-14.5,1.42-23.63-1.71-28.82l-3.13-5.19-25,18.78s-3.26,11.73-5.79,22.64C135.32,283,147.54,276.82,159.89,293.29Z" transform="translate(-11.4 -26.55)" style="fill:#263238;stroke:#263238;stroke-linecap:round;stroke-linejoin:round"></path><path d="M168.5,397.39c-.13-2.71-1.49-10.6-1.49-10.6a259.7,259.7,0,0,0-.46-30.54c-1.25-16.5,1.47-19.19-2.53-26.36-2.35-4.21-6-7.41-8.55-10.48-.94.88-2,1.87-3.3,3-4.93,4.42-12.68,5.18-17.81,5.12l1.53,3.38c3.93,8.89,14.64,33.1,15.17,37.78l2.12,18.73S147.94,393.3,144,396s-11.9,5.83-12,8.53,12.72,3.54,18.93,3.09,14.42-3.34,15.89-4.56S168.63,400.1,168.5,397.39Z" transform="translate(-11.4 -26.55)" style="fill:#fff;stroke:#263238;stroke-linecap:round;stroke-linejoin:round"></path><path d="M168.5,397.39c-.1-1.9-.79-6.33-1.19-8.82a13.75,13.75,0,0,1-6.88,2.11,8.84,8.84,0,0,0-3-3.47,3.27,3.27,0,0,0-4.29.22S147.94,393.3,144,396s-11.9,5.83-12,8.53,12.72,3.54,18.93,3.09,14.42-3.34,15.89-4.56S168.63,400.1,168.5,397.39Z" transform="translate(-11.4 -26.55)" style="fill:#ECEFF1;stroke:#263238;stroke-linecap:round;stroke-linejoin:round"></path><path d="M97.84,167.16S74.53,178.57,69.45,180.5s-8.52,4.62-9.6,7.81-7,19.65-7,19.65,6.72,10.63,9.28,12.13a9.32,9.32,0,0,0,4,1.51l10.72-12.24s11.64,18.8,16.53,27.45,9.77,23.95,9.88,27.15-1.37,4.67,4.32,5.2,40.89-4.38,47.83-11.23,8-10,7-13.74a37.2,37.2,0,0,0-4.19-8.4s-1.11-14-1.08-14.78.85-21.66-1.6-31.77-4.31-11.61-17.41-17.36-21.41-6.56-29.75-6.37S97.84,167.16,97.84,167.16Z" transform="translate(-11.4 -26.55)" style="fill:#ECEFF1;stroke:#263238;stroke-linecap:round;stroke-linejoin:round"></path><path d="M76.88,209.36s-10.95-6-14.15-15.37" transform="translate(-11.4 -26.55)" style="fill:none;stroke:#263238;stroke-linecap:round;stroke-linejoin:round"></path><path d="M125.64,216.6c4.18,2.74,21,3.84,21,3.84s-8.67,2.65-13.91,2.61" transform="translate(-11.4 -26.55)" style="fill:none;stroke:#263238;stroke-linecap:round;stroke-linejoin:round"></path><path d="M108.12,199c9.93.07,16.69-9.43,17.15-21.05a26.43,26.43,0,0,0-1.81-11.06,59.55,59.55,0,0,0-15.08-1.37c-8.34.19-10.54,1.65-10.54,1.65l-3.61,1.75a28.19,28.19,0,0,0-1,6.59C92.76,187.12,98.2,198.92,108.12,199Z" transform="translate(-11.4 -26.55)" style="fill:#fff;stroke:#263238;stroke-linecap:round;stroke-linejoin:round"></path><path d="M93.38,165.4s3.41,16.28,4.91,20.47,10.53,10.67,14.41,8.72,8.69-8.8,9.21-15.93-1.53-15.53-1.53-15.53a10.67,10.67,0,0,1-7.65,6.84c-6.26,1.68-12.36-.58-14.89-2.81S93.49,162.7,93.38,165.4Z" transform="translate(-11.4 -26.55)" style="fill:#bfbfbf;stroke:#263238;stroke-linecap:round;stroke-linejoin:round"></path><path d="M110.18,178.05l5.51-9.3a11.81,11.81,0,0,1-3,1.22c-6.26,1.68-12.36-.58-14.89-2.81a41,41,0,0,0-3.11-2.71l-1.25.25a3,3,0,0,0-.1.7s3.11,14.89,4.7,19.85Z" transform="translate(-11.4 -26.55)" style="fill:#263238;stroke:#263238;stroke-linecap:round;stroke-linejoin:round"></path><path d="M87.83,149.11s-3.88-4.21-5.47,0,4.1,10.62,5.27,11.12,3.13-.71,3.13-.71,3.2,9.37,5.23,12.1,7.6,6.7,9.94,7.7,11.51-2.13,12.56-4.59,3.72-9.82,3.77-11.05.49-6.4.49-6.4,3-2.69,3.19-8.35-.43-7.14-2.12-6.66l-1.68.48s-1.85-7.4-3.34-11.84-.88-14-10.55-10.17S88.67,122,87,127.44,87.83,149.11,87.83,149.11Z" transform="translate(-11.4 -26.55)" style="fill:#bfbfbf;stroke:#263238;stroke-linecap:round;stroke-linejoin:round"></path><path d="M90.09,116.14s-8.44,8.8-8.38,13.23a27.58,27.58,0,0,0,2,9.37c.64,2,2,8.39,2,8.39s.6,3,2.06,2,2.33,1.5,1.4-5.16-3.61-11.1.08-14,1.54-2.95,9.83-1.66,9.26.56,11.73-1.64,3.19-2.44,5.2,1,2.91,10.6,3.33,12.08.75,4.93,1.72,4.7.25-6.4.28-7.14.15-9.85-1.28-15.77-7.49-9.41-12-10.18S94.34,111,90.09,116.14Z" transform="translate(-11.4 -26.55)" style="fill:#263238;stroke:#263238;stroke-linecap:round;stroke-linejoin:round"></path><path d="M105.07,158.84s-1.6,4.42,0,5.42,7.38.05,7.43-1.18-2.42-4.94-2.42-4.94" transform="translate(-11.4 -26.55)" style="fill:none;stroke:#263238;stroke-linecap:round;stroke-linejoin:round"></path><line x1="94" y1="142.14" x2="102.15" y2="140.72" style="fill:none;stroke:#263238;stroke-linecap:round;stroke-linejoin:round"></line><path d="M95.22,148.92s5.3-1.44,8.33.3" transform="translate(-11.4 -26.55)" style="fill:none;stroke:#263238;stroke-linecap:round;stroke-linejoin:round"></path><path d="M110.27,147.8s3.44-2.69,7.2-1.43" transform="translate(-11.4 -26.55)" style="fill:none;stroke:#263238;stroke-linecap:round;stroke-linejoin:round"></path><path d="M100.73,153.35c.23,1.33-.16,2.53-.88,2.69s-1.47-.8-1.7-2.13.17-2.54.88-2.69S100.51,152,100.73,153.35Z" transform="translate(-11.4 -26.55)" style="fill:#263238"></path><path d="M115.18,151.54c.23,1.33-.17,2.53-.88,2.69s-1.47-.8-1.7-2.13.16-2.54.88-2.69S115,150.21,115.18,151.54Z" transform="translate(-11.4 -26.55)" style="fill:#263238"></path><path d="M140.91,300.18S130.57,311.71,119.33,323L117,325.37l-2.06,2C107.13,335,99.47,341.84,95,344c-11.68,5.68-31.66,2.34-34.92-1.52s0-8.65,6.11-5.72,15,3.31,21.32,1.11a5.23,5.23,0,0,0,.51-.22l.27-.14c3-1.53,9.61-6.8,16.89-12.89L108,322.3l2.73-2.31c11.2-9.57,22.11-19.38,22.11-19.38l6.64-5.37Z" transform="translate(-11.4 -26.55)" style="fill:#bfbfbf;stroke:#263238;stroke-linecap:round;stroke-linejoin:round"></path><path d="M114.94,327.39C107.13,335,99.47,341.84,95,344c-11.68,5.68-31.66,2.34-34.92-1.52s0-8.65,6.11-5.72,15,3.31,21.32,1.11a5.23,5.23,0,0,0,.51-.22l.27-.14c3-1.53,9.61-6.8,16.89-12.89Z" transform="translate(-11.4 -26.55)" style="fill:#263238;stroke:#263238;stroke-linecap:round;stroke-linejoin:round"></path><path d="M119.33,323,117,325.37l-9-3.07,2.73-2.31Z" transform="translate(-11.4 -26.55)" style="fill:#263238;stroke:#263238;stroke-linecap:round;stroke-linejoin:round"></path><path d="M136.63,209.78s4.11,4.47,10.05,10.66S165,239.29,165,239.29,154.84,261.13,151.51,267a149.79,149.79,0,0,1-8.86,13.24s-5.92,5.13-7.44,7.58-3.62,7.11-4.87,8.58-4.62,2.68-3.73,4.16,3.52,1.26,4.25.77,6.8-3.15,6.8-3.15l.47,6.15,6.2-.2a68.27,68.27,0,0,0,5.46-5.62c1.25-1.72,1.59-4.18,2-7.37s1-6.89,1-6.89,15.59-20.82,21.34-27.92c4.44-5.47,9.48-15.6,11.56-20a5.3,5.3,0,0,0,.14-4.32,41.36,41.36,0,0,0-5.13-9.15c-3.86-5-12.88-17.57-14.88-21.28s-7.74-15.07-12.33-19.29a23.26,23.26,0,0,0-10.51-5.25" transform="translate(-11.4 -26.55)" style="fill:#ECEFF1;stroke:#263238;stroke-linecap:round;stroke-linejoin:round"></path><path d="M180.64,222.9c-3.86-5-12.88-17.57-14.88-21.28l-.42-.79-2.85,5.2c-3.67,6.64-10.78,10.81-16.87,13.31l1.06,1.1c5.95,6.2,18.31,18.85,18.31,18.85S154.84,261.13,151.51,267a149.79,149.79,0,0,1-8.86,13.24s-5.92,5.13-7.44,7.58-3.62,7.11-4.87,8.58-4.63,2.68-3.73,4.16,3.52,1.26,4.25.77,6.8-3.15,6.8-3.15l.47,6.15,6.2-.2a68.27,68.27,0,0,0,5.46-5.62c1.25-1.72,1.59-4.18,2-7.37s1-6.89,1-6.89,15.59-20.82,21.34-27.92c4.44-5.47,9.48-15.6,11.56-20a5.3,5.3,0,0,0,.14-4.32A41.36,41.36,0,0,0,180.64,222.9Z" transform="translate(-11.4 -26.55)" style="fill:#bfbfbf;stroke:#263238;stroke-linecap:round;stroke-linejoin:round"></path><path d="M143.88,278.58c-.75,1-1.23,1.67-1.23,1.67s-5.92,5.13-7.44,7.58-3.62,7.11-4.87,8.58-4.63,2.68-3.73,4.16,3.52,1.26,4.25.77,6.8-3.15,6.8-3.15l-.47,5.66,7.14.29a68.27,68.27,0,0,0,5.46-5.62c1.25-1.72,1.59-4.18,2-7.37s1-6.89,1-6.89l0,0C150.15,279.82,145.34,278.79,143.88,278.58Z" transform="translate(-11.4 -26.55)" style="fill:#263238;stroke:#263238;stroke-linecap:round;stroke-linejoin:round"></path></g><g id="freepik--character-2--inject-18"><path d="M276.12,235.71s-3,7.89-2.32,11.14a28.48,28.48,0,0,1,.69,5.34l-3,33.65s-10,15.09-13.23,22.28S239.68,332,239.68,332,225.29,346,225.29,348.74s10-1.63,10-1.63,34.35-27.38,40.62-33.42,11.6-13.69,12.3-15.55,5.8-37.36,5.8-38.06,3.25-17.17,3.25-17.17Z" transform="translate(-11.4 -26.55)" style="fill:#fff;stroke:#263238;stroke-linecap:round;stroke-linejoin:round"></path><path d="M322.07,270.76s-9.75,13.92-14.85,23.21-17.76,31.95-18.45,33.11a8.32,8.32,0,0,0-1.16,5.1c.23,2.09-3,38.76-3.72,46.65S283,391.6,283,391.6s-8.36,1.85-9.29,1.85S256.51,390,254,390.2s-2.56,7.66,0,12.07,8.81,10,13.69,10.91,8.82,2.32,11.6,4.41,7.2,3.71,10,1.39,6-5.57,6.27-13.92,6.73-30.41,8.12-34.35,5.57-16.94,5.57-23.21-.23-10.68-.23-10.68l32.37-28.93,13,3.25,7.89-13.69,6.27,6,3.71,2.09s23.91,32.26,31.1,38.53,10.91,7.19,12.07,6.49S463,342.7,463,342.7s5.33,8.82,6.26,11.14a35,35,0,0,1,2.09,9.52c0,2.32,4.41,2.55,6.5.93S482,353.61,482,350.13s-3.25-11.37-3.72-14.85-1.62-9.29-5.1-8.59-10.45,3-12.07,3.48-10.91.47-15.09-1.39-10-4.41-14.62-3.48-10.21,1.85-10.21,1.85l-13.46-31.1s-5.8-24.6-11.6-32.49-12.54-14.15-15.55-16.24a45.2,45.2,0,0,0-6-3.48s-7.19,12.53-23.21,21.12S322.07,270.76,322.07,270.76Z" transform="translate(-11.4 -26.55)" style="fill:#fff;stroke:#263238;stroke-linecap:round;stroke-linejoin:round"></path><path d="M390.77,307.66c5.8-2.55,16.94-11.61,16.94-11.61s-5.8-24.6-11.6-32.49-12.54-14.15-15.55-16.24a45.2,45.2,0,0,0-6-3.48s-7.19,12.53-23.21,21.12-29.24,5.8-29.24,5.8-9.75,13.92-14.85,23.21c-.43.76-.85,1.58-1.28,2.44,1.91,0,5.29.07,11,.57,10.68.93,26.46,8.13,26.46,8.13l-2.09,2.78,13,3.25,7.89-13.69,6.27,6,3.71,2.09S385,310.21,390.77,307.66Z" transform="translate(-11.4 -26.55)" style="fill:#263238;stroke:#263238;stroke-linecap:round;stroke-linejoin:round"></path><polyline points="327.38 263.7 350.82 270.89 325.53 267.88" style="fill:none;stroke:#8f8f8f;stroke-linecap:round;stroke-linejoin:round"></polyline><line x1="332.03" y1="278.55" x2="341.08" y2="282.5" style="fill:none;stroke:#263238;stroke-linecap:round;stroke-linejoin:round"></line><path d="M473.16,326.69c-3.48.7-10.45,3-12.07,3.48s-10.91.47-15.09-1.39-10-4.41-14.62-3.48c-1,.2-2.08.41-3.13.6,2,2,4.65,5.94,3.6,12.86a42.57,42.57,0,0,1-2.36,9.27c14-2.32,33.46-5.33,33.46-5.33s5.33,8.82,6.26,11.14a35,35,0,0,1,2.09,9.52c0,2.32,4.41,2.55,6.5.93S482,353.61,482,350.13s-3.25-11.37-3.72-14.85S476.64,326,473.16,326.69Z" transform="translate(-11.4 -26.55)" style="fill:#bfbfbf;stroke:#263238;stroke-linecap:round;stroke-linejoin:round"></path><path d="M467.12,332.72a6.36,6.36,0,0,1,.7,7.2c-1.16,2.32,0,0-2.55.69S463,342.7,463,342.7s5.33,8.82,6.26,11.14a35,35,0,0,1,2.09,9.52c0,2.32,4.41,2.55,6.5.93S482,353.61,482,350.13s-3.25-11.37-3.72-14.85-1.62-9.29-5.1-8.59-10.45,3-12.07,3.48C461.09,330.17,465.27,330.4,467.12,332.72Z" transform="translate(-11.4 -26.55)" style="fill:#fff;stroke:#263238;stroke-linecap:round;stroke-linejoin:round"></path><path d="M309.19,347.5c-7.32-8.34-17.38-6.44-22.23-4.84-.93,12.06-2.59,30.79-3.07,36.17-.69,7.89-.92,12.77-.92,12.77s-8.36,1.85-9.29,1.85S256.51,390,254,390.2s-2.56,7.66,0,12.07,8.81,10,13.69,10.91,8.82,2.32,11.6,4.41,7.2,3.71,10,1.39,6-5.57,6.27-13.92,6.73-30.41,8.12-34.35S309.19,353.77,309.19,347.5Z" transform="translate(-11.4 -26.55)" style="fill:#bfbfbf;stroke:#263238;stroke-linecap:round;stroke-linejoin:round"></path><path d="M254,390.2c-2.56.24-2.56,7.66,0,12.07s8.81,10,13.69,10.91,8.82,2.32,11.6,4.41,7.2,3.71,10,1.39,6-5.57,6.27-13.92c0-.11,0-.24,0-.35-3.82-2.35-8.84-7.78-8.84-7.78a4.25,4.25,0,0,0,1.16-4.64c-.93-3-4.87-.69-4.87-.69s-8.36,1.85-9.29,1.85S256.51,390,254,390.2Z" transform="translate(-11.4 -26.55)" style="fill:#fff;stroke:#263238;stroke-linecap:round;stroke-linejoin:round"></path><path d="M254,402.27c2.55,4.41,8.81,10,13.69,10.91s8.82,2.32,11.6,4.41,7.2,3.71,10,1.39a21.42,21.42,0,0,0,2-1.81,16.06,16.06,0,0,1-2.42-1.9c-2.32-2.32-8.12-2.09-14.16-5.8s-13.23-8.82-16.25-13.46-4.4-5.81-4.4-5.81C251.4,390.44,251.4,397.86,254,402.27Z" transform="translate(-11.4 -26.55)" style="fill:#263238;stroke:#263238;stroke-linecap:round;stroke-linejoin:round"></path><path d="M280.06,216.68s-6.5,17.87-5.8,21.12,9.52,9,22.28,13.93,20.89,9.74,24.14,13.23-.7,5.33.69,7.65,16.71,4.41,25.53,2.32,19.5-9.05,24.37-14.15,8.13-9.52,7-13.46-4.65-8.13-7-11.14-14.15-22.28-31.79-34.12S314,187.21,303,186.28s-11.37-.93-13.46,1.16S276.81,192.31,280.06,216.68Z" transform="translate(-11.4 -26.55)" style="fill:#ECEFF1;stroke:#263238;stroke-linecap:round;stroke-linejoin:round"></path><path d="M316,232.23s26.45,3.25,42.24,11.37" transform="translate(-11.4 -26.55)" style="fill:none;stroke:#263238;stroke-linecap:round;stroke-linejoin:round"></path><path d="M317.43,236.64s16,7,20.89,12.77" transform="translate(-11.4 -26.55)" style="fill:none;stroke:#263238;stroke-linecap:round;stroke-linejoin:round"></path><path d="M350.38,248.71s-3.48,16-15.08,20.89" transform="translate(-11.4 -26.55)" style="fill:none;stroke:#263238;stroke-linecap:round;stroke-linejoin:round"></path><path d="M336.23,264.49s-5.34,4.87-10.68,6.5" transform="translate(-11.4 -26.55)" style="fill:none;stroke:#263238;stroke-linecap:round;stroke-linejoin:round"></path><path d="M237.36,183.49s-.23,10.45,1.62,12.77a13.54,13.54,0,0,0,4.41,3.48s-1.62,10.44.93,10.68A12.61,12.61,0,0,0,249,210s11.61,12.53,14.62,11.84,9.75-6.73,9.75-6.73L279.6,219s3,10.68,3.94,7.89-3.71-25.06,1.16-32.26l4.88-7.19-5.8-2.55a48.24,48.24,0,0,0-9.29-14.63c-6.5-7-19.49-8.81-27.85-3.94S236.2,180.24,237.36,183.49Z" transform="translate(-11.4 -26.55)" style="fill:#fff;stroke:#263238;stroke-linecap:round;stroke-linejoin:round"></path><path d="M278,188.37s2.09,3,0,4.64a26.38,26.38,0,0,1-3.94,2.55" transform="translate(-11.4 -26.55)" style="fill:none;stroke:#263238;stroke-linecap:round;stroke-linejoin:round"></path><path d="M263.58,221.79s7.2-7.2,9.52-10.91l3.48-5.57-3.25,9.75S266.37,220.86,263.58,221.79Z" transform="translate(-11.4 -26.55)" style="fill:#263238;stroke:#263238;stroke-linecap:round;stroke-linejoin:round"></path><path d="M249.38,195.92c.88,1.1,1.16,2.34.61,2.79s-1.71-.09-2.6-1.19-1.16-2.34-.61-2.78S248.49,194.82,249.38,195.92Z" transform="translate(-11.4 -26.55)" style="fill:#263238"></path><path d="M242.93,195.1s.7-5.57,5.57-6.27" transform="translate(-11.4 -26.55)" style="fill:none;stroke:#263238;stroke-linecap:round;stroke-linejoin:round"></path><path d="M245.71,172.12s-5.8,9.75-8.35,11.37-11.37-.23-13.23-5.1-3-9,.93-10.91,4.64.46,5.34-5.34,3.25-9.28,8.82-9,4.64,3.48,6.49,2.32,2.09-6.27,7.2-7,20.89.93,23.67,4.87,6.5,13.46,7.2,21.82,4.87,10.91,3.94,12.07a5.8,5.8,0,0,1-4.87,2.32,12.41,12.41,0,0,1-4.88-1.16s-5.1-9.29-8.12-8.59-4.18,5.57-4.18,5.57a2.55,2.55,0,0,1-2.78,1.39c-1.86-.46-3-3.94-5.8-3.94s-7.66-.24-10-1.4S245.71,172.12,245.71,172.12Z" transform="translate(-11.4 -26.55)" style="fill:#263238;stroke:#263238;stroke-linecap:round;stroke-linejoin:round"></path><path d="M297.7,187.9s-7.66-3-10.67,7.43-.24,21.12,1.16,26.23,6,35,6,35-27.85,40.85-29.47,43.4,5.57,5.11,5.57,5.11,43.16-36.21,44.79-39,2.55-4.88,2.55-8.13-1.86-9.05-1.86-9.05l-2.32-20.89s15.55-11.37,12.3-23.67S307.91,186.74,297.7,187.9Z" transform="translate(-11.4 -26.55)" style="fill:#fff;stroke:#263238;stroke-linecap:round;stroke-linejoin:round"></path><path d="M313.48,228.05s1.16-11.6-.23-16.47" transform="translate(-11.4 -26.55)" style="fill:none;stroke:#263238;stroke-linecap:round;stroke-linejoin:round"></path><path d="M262.66,320.89l-47.51,46.79-7.66,7.55-6.26,6.17c-9.55,9.41-16.62,16.39-17.63,17.4l-.08.07c-2.09,2.09-14.63,16-26,11.14s-14.16-13.23-10.21-16,7.19,1.86,10.68,5.81,7.42,0,7.42,0l34.53-31,6.24-5.59,7.81-7,38.92-34.89s5.11-6.26,7.43-4.87S262.66,320.89,262.66,320.89Z" transform="translate(-11.4 -26.55)" style="fill:#ECEFF1;stroke:#263238;stroke-linecap:round;stroke-linejoin:round"></path><path d="M214,356.24l-7.81,7,1.31,12,7.66-7.55Zm-14.05,12.6-34.53,31s-3.94,3.94-7.42,0-6.73-8.59-10.68-5.81-1.16,11.14,10.21,16,23.91-9.05,26-11.14l.08-.07c1-1,8.08-8,17.63-17.4Z" transform="translate(-11.4 -26.55)" style="fill:#263238;stroke:#263238;stroke-linecap:round;stroke-linejoin:round"></path><path d="M264.75,300s-8.82,9.28-10.22,11.14-1.16,5.57-.92,6.27-.7,3.94-.7,3.94l2.55-2.09s-.46,10.45.7,11.14,3.48,0,3.48,0l1.86-3.25a37.35,37.35,0,0,0,6.73-5.33c2.55-2.79,2.09-16.71,2.09-16.71S267.53,300,264.75,300Z" transform="translate(-11.4 -26.55)" style="fill:#263238;stroke:#263238;stroke-linecap:round;stroke-linejoin:round"></path><path d="M234.34,336.9s-9.75,1.39-10.44,3.25-2.79,9.52-3.48,10.68-4.18,4.41-.7,3.71,5.57-5.8,5.57-5.8l9.05-11.84" transform="translate(-11.4 -26.55)" style="fill:#fff;stroke:#263238;stroke-linecap:round;stroke-linejoin:round"></path><path d="M225.29,348.74s.7,6.5,2.09,6.5,9.52-3.48,10.68-6.27,1.85-6.27-.24-5.8S225.29,348.74,225.29,348.74Z" transform="translate(-11.4 -26.55)" style="fill:#fff;stroke:#263238;stroke-linecap:round;stroke-linejoin:round"></path></g></svg>