<svg width="24" height="24" viewBox="0 0 24 24" fill="none" xmlns="http://www.w3.org/2000/svg">
<path d="M16 7.99997C17.5913 7.99997 19.1174 8.63211 20.2426 9.75733C21.3679 10.8825 22 12.4087 22 14V21H18V14C18 13.4695 17.7893 12.9608 17.4142 12.5858C17.0391 12.2107 16.5304 12 16 12C15.4696 12 14.9609 12.2107 14.5858 12.5858C14.2107 12.9608 14 13.4695 14 14V21H10V14C10 12.4087 10.6321 10.8825 11.7574 9.75733C12.8826 8.63211 14.4087 7.99997 16 7.99997V7.99997Z" stroke="#353535" stroke-width="2" stroke-linecap="round" stroke-linejoin="round"/>
<path d="M6.00049 9H2.00049V21H6.00049V9Z" stroke="#353535" stroke-width="2" stroke-linecap="round" stroke-linejoin="round"/>
<path d="M4.00049 6C5.10506 6 6.00049 5.10457 6.00049 4C6.00049 2.89543 5.10506 2 4.00049 2C2.89592 2 2.00049 2.89543 2.00049 4C2.00049 5.10457 2.89592 6 4.00049 6Z" stroke="#353535" stroke-width="2" stroke-linecap="round" stroke-linejoin="round"/>
</svg>
