<svg width="24" height="21" viewBox="0 0 24 21" fill="none" xmlns="http://www.w3.org/2000/svg">
<path d="M22.9995 1.99998C22.0419 2.67546 20.9816 3.19209 19.8595 3.52999C19.2573 2.8375 18.4568 2.34668 17.5665 2.12391C16.6762 1.90115 15.739 1.95718 14.8816 2.28444C14.0242 2.6117 13.288 3.19439 12.7725 3.9537C12.257 4.71302 11.9872 5.61232 11.9995 6.52998V7.52998C10.2421 7.57555 8.50079 7.1858 6.93052 6.39543C5.36026 5.60506 4.00983 4.43862 2.99951 2.99998C2.99951 2.99998 -1.00049 12 7.99951 16C5.94004 17.398 3.48667 18.0989 0.999512 18C9.99951 23 20.9995 18 20.9995 6.49998C20.9986 6.22144 20.9718 5.94358 20.9195 5.66999C21.9401 4.66348 22.6603 3.3927 22.9995 1.99998Z" stroke="#353535" stroke-width="2" stroke-linecap="round" stroke-linejoin="round"/>
</svg>
