<svg width="1035" height="312" viewBox="0 0 1035 312" fill="none" xmlns="http://www.w3.org/2000/svg">
<path d="M72 26H240C265.405 26 286 46.5949 286 72V240C286 265.405 265.405 286 240 286H72C46.5949 286 26 265.405 26 240V72C26 46.5949 46.5949 26 72 26Z" fill="white" stroke="white" stroke-width="20"/>
<path d="M154.111 228.28C140.97 228.28 129.194 225.208 118.783 219.064C108.372 212.749 100.095 204.216 93.9511 193.464C87.9777 182.712 84.9911 170.595 84.9911 157.112C84.9911 143.459 88.0631 131.256 94.2071 120.504C100.522 109.752 109.055 101.304 119.807 95.16C130.559 88.8453 142.676 85.688 156.159 85.688C169.642 85.688 181.674 88.8453 192.255 95.16C203.007 101.304 211.455 109.752 217.599 120.504C223.914 131.256 227.156 143.459 227.327 157.112L219.391 163.256C219.391 175.544 216.49 186.637 210.687 196.536C205.055 206.264 197.29 214.029 187.391 219.832C177.663 225.464 166.57 228.28 154.111 228.28ZM156.159 210.36C166.058 210.36 174.847 208.056 182.527 203.448C190.378 198.84 196.522 192.525 200.959 184.504C205.567 176.312 207.871 167.181 207.871 157.112C207.871 146.872 205.567 137.741 200.959 129.72C196.522 121.699 190.378 115.384 182.527 110.776C174.847 105.997 166.058 103.608 156.159 103.608C146.431 103.608 137.642 105.997 129.791 110.776C121.94 115.384 115.711 121.699 111.103 129.72C106.495 137.741 104.191 146.872 104.191 157.112C104.191 167.181 106.495 176.312 111.103 184.504C115.711 192.525 121.94 198.84 129.791 203.448C137.642 208.056 146.431 210.36 156.159 210.36ZM217.343 227C214.442 227 212.052 226.147 210.175 224.44C208.298 222.563 207.359 220.173 207.359 217.272V173.496L212.223 153.272L227.327 157.112V217.272C227.327 220.173 226.388 222.563 224.511 224.44C222.634 226.147 220.244 227 217.343 227Z" fill="black"/>
<path d="M118.783 219.064L116.709 222.484L116.729 222.497L116.75 222.509L118.783 219.064ZM93.9511 193.464L90.4544 195.407L90.4661 195.428L90.4781 195.449L93.9511 193.464ZM94.2071 120.504L90.7579 118.478L90.7459 118.499L90.7341 118.519L94.2071 120.504ZM119.807 95.16L121.792 98.633L121.812 98.6212L121.833 98.6091L119.807 95.16ZM192.255 95.16L190.205 98.5948L190.238 98.6142L190.271 98.633L192.255 95.16ZM217.599 120.504L214.126 122.489L214.138 122.509L214.15 122.53L217.599 120.504ZM227.327 157.112L229.776 160.275L231.352 159.055L231.327 157.062L227.327 157.112ZM219.391 163.256L216.942 160.093L215.391 161.294V163.256H219.391ZM210.687 196.536L207.236 194.513L207.231 194.522L207.225 194.532L210.687 196.536ZM187.391 219.832L189.395 223.294L189.405 223.288L189.414 223.283L187.391 219.832ZM182.527 203.448L180.502 199.998L180.486 200.008L180.469 200.018L182.527 203.448ZM200.959 184.504L197.473 182.543L197.466 182.555L197.459 182.568L200.959 184.504ZM200.959 129.72L197.459 131.656L197.475 131.684L197.491 131.712L200.959 129.72ZM182.527 110.776L180.414 114.172L180.458 114.2L180.502 114.226L182.527 110.776ZM129.791 110.776L131.816 114.226L131.844 114.209L131.871 114.193L129.791 110.776ZM111.103 129.72L107.635 127.727L107.635 127.727L111.103 129.72ZM111.103 184.504L107.617 186.465L107.626 186.481L107.635 186.496L111.103 184.504ZM129.791 203.448L131.816 199.998L131.816 199.998L129.791 203.448ZM210.175 224.44L207.347 227.268L207.414 227.336L207.484 227.4L210.175 224.44ZM207.359 173.496L203.47 172.561L203.359 173.022V173.496H207.359ZM212.223 153.272L213.209 149.395L209.282 148.397L208.334 152.337L212.223 153.272ZM227.327 157.112H231.327V154.002L228.313 153.235L227.327 157.112ZM224.511 224.44L227.202 227.4L227.272 227.336L227.34 227.268L224.511 224.44ZM154.111 224.28C141.621 224.28 130.558 221.368 120.816 215.619L116.75 222.509C127.83 229.048 140.319 232.28 154.111 232.28V224.28ZM120.858 215.644C111.038 209.688 103.237 201.653 97.424 191.479L90.4781 195.449C96.9529 206.779 105.707 215.811 116.709 222.484L120.858 215.644ZM97.4477 191.521C91.8356 181.42 88.9911 169.982 88.9911 157.112H80.9911C80.9911 171.207 84.1199 184.004 90.4544 195.407L97.4477 191.521ZM88.9911 157.112C88.9911 144.082 91.916 132.576 97.68 122.489L90.7341 118.519C84.2102 129.936 80.9911 142.836 80.9911 157.112H88.9911ZM97.6562 122.53C103.62 112.375 111.65 104.428 121.792 98.633L117.823 91.687C106.46 98.1799 97.4236 107.129 90.7579 118.478L97.6562 122.53ZM121.833 98.6091C131.921 92.6843 143.329 89.688 156.159 89.688V81.688C142.024 81.688 129.197 85.0063 117.781 91.7108L121.833 98.6091ZM156.159 89.688C168.99 89.688 180.301 92.6844 190.205 98.5948L194.305 91.7251C183.046 85.0063 170.293 81.688 156.159 81.688V89.688ZM190.271 98.633C200.402 104.423 208.336 112.357 214.126 122.489L221.072 118.519C214.574 107.147 205.612 98.1854 194.24 91.687L190.271 98.633ZM214.15 122.53C220.08 132.626 223.165 144.136 223.327 157.162L231.327 157.062C231.148 142.781 227.748 129.886 221.048 118.478L214.15 122.53ZM224.878 153.949L216.942 160.093L221.84 166.419L229.776 160.275L224.878 153.949ZM215.391 163.256C215.391 174.885 212.654 185.272 207.236 194.513L214.138 198.559C220.326 188.003 223.391 176.203 223.391 163.256H215.391ZM207.225 194.532C201.947 203.648 194.683 210.921 185.368 216.381L189.414 223.283C199.896 217.138 208.163 208.879 214.149 198.54L207.225 194.532ZM185.387 216.37C176.332 221.612 165.944 224.28 154.111 224.28V232.28C167.195 232.28 178.994 229.316 189.395 223.294L185.387 216.37ZM156.159 214.36C166.704 214.36 176.219 211.897 184.585 206.878L180.469 200.018C173.475 204.215 165.411 206.36 156.159 206.36V214.36ZM184.552 206.898C193.026 201.924 199.677 195.085 204.459 186.44L197.459 182.568C193.366 189.966 187.73 195.756 180.502 199.998L184.552 206.898ZM204.445 186.465C209.414 177.632 211.871 167.818 211.871 157.112H203.871C203.871 166.545 201.72 174.992 197.473 182.543L204.445 186.465ZM211.871 157.112C211.871 146.249 209.42 136.418 204.427 127.727L197.491 131.712C201.714 139.064 203.871 147.495 203.871 157.112H211.871ZM204.459 127.784C199.677 119.139 193.026 112.3 184.552 107.326L180.502 114.226C187.73 118.468 193.366 124.258 197.459 131.656L204.459 127.784ZM184.64 107.38C176.267 102.17 166.732 99.608 156.159 99.608V107.608C165.384 107.608 173.427 109.825 180.414 114.172L184.64 107.38ZM156.159 99.608C145.742 99.608 136.226 102.176 127.711 107.359L131.871 114.193C139.058 109.818 147.12 107.608 156.159 107.608V99.608ZM127.766 107.326C119.306 112.292 112.583 119.113 107.635 127.727L114.571 131.712C118.839 124.284 124.575 118.476 131.816 114.226L127.766 107.326ZM107.635 127.727C102.642 136.418 100.191 146.249 100.191 157.112H108.191C108.191 147.495 110.348 139.064 114.571 131.712L107.635 127.727ZM100.191 157.112C100.191 167.818 102.648 177.632 107.617 186.465L114.589 182.543C110.342 174.992 108.191 166.545 108.191 157.112H100.191ZM107.635 186.496C112.583 195.111 119.306 201.932 127.766 206.898L131.816 199.998C124.575 195.748 118.839 189.94 114.571 182.511L107.635 186.496ZM127.766 206.898C136.273 211.891 145.77 214.36 156.159 214.36V206.36C147.092 206.36 139.01 204.221 131.816 199.998L127.766 206.898ZM217.343 223C215.284 223 213.901 222.421 212.866 221.48L207.484 227.4C210.204 229.872 213.6 231 217.343 231V223ZM213.004 221.612C211.95 220.558 211.359 219.221 211.359 217.272H203.359C203.359 221.126 204.646 224.568 207.347 227.268L213.004 221.612ZM211.359 217.272V173.496H203.359V217.272H211.359ZM211.248 174.431L216.112 154.207L208.334 152.337L203.47 172.561L211.248 174.431ZM211.237 157.149L226.341 160.989L228.313 153.235L213.209 149.395L211.237 157.149ZM223.327 157.112V217.272H231.327V157.112H223.327ZM223.327 217.272C223.327 219.221 222.737 220.558 221.683 221.612L227.34 227.268C230.04 224.568 231.327 221.126 231.327 217.272H223.327ZM221.82 221.48C220.785 222.421 219.402 223 217.343 223V231C221.087 231 224.482 229.872 227.202 227.4L221.82 221.48Z" fill="black"/>
<path d="M386.88 208.64C379.093 208.64 372.107 206.72 365.92 202.88C359.733 198.933 354.827 193.653 351.2 187.04C347.68 180.32 345.92 172.747 345.92 164.32C345.92 155.893 347.84 148.32 351.68 141.6C355.627 134.88 360.907 129.6 367.52 125.76C374.24 121.813 381.76 119.84 390.08 119.84C398.4 119.84 405.867 121.813 412.48 125.76C419.093 129.6 424.32 134.88 428.16 141.6C432.107 148.32 434.08 155.893 434.08 164.32H427.84C427.84 172.747 426.027 180.32 422.4 187.04C418.88 193.653 414.027 198.933 407.84 202.88C401.653 206.72 394.667 208.64 386.88 208.64ZM390.08 194.24C395.52 194.24 400.373 192.96 404.64 190.4C408.907 187.733 412.267 184.16 414.72 179.68C417.173 175.093 418.4 169.973 418.4 164.32C418.4 158.56 417.173 153.44 414.72 148.96C412.267 144.373 408.907 140.8 404.64 138.24C400.373 135.573 395.52 134.24 390.08 134.24C384.747 134.24 379.893 135.573 375.52 138.24C371.253 140.8 367.84 144.373 365.28 148.96C362.827 153.44 361.6 158.56 361.6 164.32C361.6 169.973 362.827 175.093 365.28 179.68C367.84 184.16 371.253 187.733 375.52 190.4C379.893 192.96 384.747 194.24 390.08 194.24ZM425.92 208.16C423.573 208.16 421.6 207.413 420 205.92C418.507 204.32 417.76 202.347 417.76 200V175.52L420.8 158.56L434.08 164.32V200C434.08 202.347 433.28 204.32 431.68 205.92C430.187 207.413 428.267 208.16 425.92 208.16ZM466.209 153.28C466.209 146.88 467.755 141.173 470.849 136.16C474.049 131.04 478.315 126.987 483.649 124C488.982 121.013 494.849 119.52 501.249 119.52C507.649 119.52 512.395 120.587 515.489 122.72C518.689 124.747 519.915 127.2 519.169 130.08C518.849 131.573 518.209 132.747 517.249 133.6C516.395 134.347 515.382 134.827 514.209 135.04C513.035 135.253 511.755 135.2 510.369 134.88C503.542 133.493 497.409 133.387 491.969 134.56C486.529 135.733 482.209 137.92 479.009 141.12C475.915 144.32 474.369 148.373 474.369 153.28H466.209ZM466.369 208C463.809 208 461.835 207.36 460.449 206.08C459.062 204.693 458.369 202.667 458.369 200V128.48C458.369 125.92 459.062 123.947 460.449 122.56C461.835 121.173 463.809 120.48 466.369 120.48C469.035 120.48 471.009 121.173 472.289 122.56C473.675 123.84 474.369 125.813 474.369 128.48V200C474.369 202.56 473.675 204.533 472.289 205.92C471.009 207.307 469.035 208 466.369 208ZM569.455 208.64C561.135 208.64 553.615 206.72 546.895 202.88C540.282 198.933 535.002 193.6 531.055 186.88C527.215 180.16 525.295 172.587 525.295 164.16C525.295 155.733 527.055 148.213 530.575 141.6C534.202 134.88 539.108 129.6 545.295 125.76C551.482 121.813 558.468 119.84 566.255 119.84C572.548 119.84 578.362 121.173 583.695 123.84C589.028 126.4 593.508 129.92 597.135 134.4V91.2C597.135 88.7467 597.882 86.7733 599.375 85.28C600.975 83.7867 602.948 83.04 605.295 83.04C607.748 83.04 609.722 83.7867 611.215 85.28C612.708 86.7733 613.455 88.7467 613.455 91.2V164.16C613.455 172.587 611.482 180.16 607.535 186.88C603.695 193.6 598.468 198.933 591.855 202.88C585.242 206.72 577.775 208.64 569.455 208.64ZM569.455 194.24C574.895 194.24 579.748 192.96 584.015 190.4C588.282 187.733 591.642 184.107 594.095 179.52C596.548 174.933 597.775 169.813 597.775 164.16C597.775 158.4 596.548 153.28 594.095 148.8C591.642 144.32 588.282 140.8 584.015 138.24C579.748 135.573 574.895 134.24 569.455 134.24C564.122 134.24 559.268 135.573 554.895 138.24C550.628 140.8 547.215 144.32 544.655 148.8C542.202 153.28 540.975 158.4 540.975 164.16C540.975 169.813 542.202 174.933 544.655 179.52C547.215 184.107 550.628 187.733 554.895 190.4C559.268 192.96 564.122 194.24 569.455 194.24ZM683.395 208.64C674.542 208.64 666.648 206.773 659.715 203.04C652.888 199.2 647.502 193.973 643.555 187.36C639.715 180.64 637.795 172.96 637.795 164.32C637.795 155.573 639.608 147.893 643.235 141.28C646.968 134.56 652.088 129.333 658.595 125.6C665.102 121.76 672.568 119.84 680.995 119.84C689.315 119.84 696.462 121.707 702.435 125.44C708.408 129.067 712.942 134.133 716.035 140.64C719.235 147.04 720.835 154.453 720.835 162.88C720.835 164.907 720.142 166.613 718.755 168C717.368 169.28 715.608 169.92 713.475 169.92H648.995V157.12H712.995L706.435 161.6C706.328 156.267 705.262 151.52 703.235 147.36C701.208 143.093 698.328 139.733 694.595 137.28C690.862 134.827 686.328 133.6 680.995 133.6C674.915 133.6 669.688 134.933 665.315 137.6C661.048 140.267 657.795 143.947 655.555 148.64C653.315 153.227 652.195 158.453 652.195 164.32C652.195 170.187 653.528 175.413 656.195 180C658.862 184.587 662.542 188.213 667.235 190.88C671.928 193.547 677.315 194.88 683.395 194.88C686.702 194.88 690.062 194.293 693.475 193.12C696.995 191.84 699.822 190.4 701.955 188.8C703.555 187.627 705.262 187.04 707.075 187.04C708.995 186.933 710.648 187.467 712.035 188.64C713.848 190.24 714.808 192 714.915 193.92C715.022 195.84 714.168 197.493 712.355 198.88C708.728 201.76 704.195 204.107 698.755 205.92C693.422 207.733 688.302 208.64 683.395 208.64ZM815.57 208.16C813.223 208.16 811.25 207.413 809.65 205.92C808.157 204.32 807.41 202.347 807.41 200V160.64C807.41 154.56 806.29 149.6 804.05 145.76C801.81 141.92 798.77 139.093 794.93 137.28C791.197 135.36 786.877 134.4 781.97 134.4C777.49 134.4 773.437 135.307 769.81 137.12C766.183 138.933 763.303 141.387 761.17 144.48C759.037 147.467 757.97 150.933 757.97 154.88H747.89C747.89 148.16 749.49 142.187 752.69 136.96C755.997 131.627 760.477 127.413 766.13 124.32C771.783 121.227 778.13 119.68 785.17 119.68C792.53 119.68 799.09 121.28 804.85 124.48C810.717 127.573 815.303 132.16 818.61 138.24C822.023 144.32 823.73 151.787 823.73 160.64V200C823.73 202.347 822.93 204.32 821.33 205.92C819.837 207.413 817.917 208.16 815.57 208.16ZM749.81 208.16C747.463 208.16 745.49 207.413 743.89 205.92C742.397 204.32 741.65 202.347 741.65 200V128.64C741.65 126.187 742.397 124.213 743.89 122.72C745.49 121.227 747.463 120.48 749.81 120.48C752.263 120.48 754.237 121.227 755.73 122.72C757.223 124.213 757.97 126.187 757.97 128.64V200C757.97 202.347 757.223 204.32 755.73 205.92C754.237 207.413 752.263 208.16 749.81 208.16ZM890.393 208.64C881.859 208.64 874.233 206.72 867.513 202.88C860.899 198.933 855.673 193.653 851.833 187.04C848.099 180.32 846.233 172.747 846.233 164.32C846.233 155.68 848.099 148 851.833 141.28C855.566 134.56 860.686 129.333 867.193 125.6C873.699 121.76 881.166 119.84 889.593 119.84C895.886 119.84 901.646 121.067 906.873 123.52C912.099 125.867 916.793 129.44 920.953 134.24C922.446 135.947 922.979 137.707 922.553 139.52C922.126 141.333 920.953 142.933 919.033 144.32C917.539 145.387 915.886 145.76 914.073 145.44C912.259 145.013 910.606 144.053 909.113 142.56C903.886 137.013 897.379 134.24 889.593 134.24C884.153 134.24 879.353 135.52 875.193 138.08C871.033 140.533 867.779 144 865.433 148.48C863.086 152.96 861.913 158.24 861.913 164.32C861.913 170.08 863.086 175.2 865.433 179.68C867.886 184.16 871.246 187.733 875.513 190.4C879.779 192.96 884.739 194.24 890.393 194.24C894.126 194.24 897.379 193.813 900.153 192.96C903.033 192 905.646 190.56 907.993 188.64C909.699 187.253 911.459 186.507 913.273 186.4C915.086 186.187 916.686 186.667 918.073 187.84C919.886 189.333 920.899 191.04 921.113 192.96C921.326 194.773 920.686 196.427 919.193 197.92C911.513 205.067 901.913 208.64 890.393 208.64ZM962.486 246.4C961.42 246.4 960.14 246.08 958.646 245.44C953.953 243.307 952.673 239.947 954.806 235.36L1003.61 125.12C1005.74 120.64 1009.1 119.36 1013.69 121.28C1018.49 123.307 1019.82 126.667 1017.69 131.36L968.726 241.44C967.446 244.747 965.366 246.4 962.486 246.4ZM981.366 204.48C979.34 205.333 977.42 205.44 975.606 204.8C973.9 204.053 972.513 202.667 971.446 200.64L934.806 131.04C933.74 129.013 933.58 127.093 934.326 125.28C935.18 123.36 936.62 121.973 938.646 121.12C940.673 120.267 942.593 120.213 944.406 120.96C946.22 121.6 947.606 122.933 948.566 124.96L983.606 194.56C984.673 196.587 985.046 198.56 984.726 200.48C984.513 202.293 983.393 203.627 981.366 204.48Z" fill="white"/>
<path d="M365.92 202.88L365.382 203.723L365.393 203.73L365.92 202.88ZM351.2 187.04L350.314 187.504L350.319 187.512L350.323 187.521L351.2 187.04ZM351.68 141.6L350.818 141.094L350.812 141.104L351.68 141.6ZM367.52 125.76L368.022 126.625L368.026 126.622L367.52 125.76ZM412.48 125.76L411.968 126.619L411.978 126.625L412.48 125.76ZM428.16 141.6L427.292 142.096L427.298 142.106L428.16 141.6ZM434.08 164.32V165.32H435.08V164.32H434.08ZM427.84 164.32V163.32H426.84V164.32H427.84ZM422.4 187.04L421.52 186.565L421.517 186.57L422.4 187.04ZM407.84 202.88L408.367 203.73L408.378 203.723L407.84 202.88ZM404.64 190.4L405.154 191.257L405.162 191.253L405.17 191.248L404.64 190.4ZM414.72 179.68L415.597 180.16L415.602 180.152L414.72 179.68ZM414.72 148.96L413.838 149.432L413.843 149.44L414.72 148.96ZM404.64 138.24L404.11 139.088L404.118 139.093L404.126 139.097L404.64 138.24ZM375.52 138.24L376.035 139.098L376.041 139.094L375.52 138.24ZM365.28 148.96L364.407 148.473L364.403 148.48L365.28 148.96ZM365.28 179.68L364.398 180.152L364.405 180.164L364.412 180.176L365.28 179.68ZM375.52 190.4L374.99 191.248L375.002 191.256L375.015 191.263L375.52 190.4ZM420 205.92L419.269 206.602L419.292 206.628L419.318 206.651L420 205.92ZM417.76 175.52L416.776 175.344L416.76 175.431V175.52H417.76ZM420.8 158.56L421.198 157.643L420.039 157.14L419.816 158.384L420.8 158.56ZM434.08 164.32H435.08V163.664L434.478 163.403L434.08 164.32ZM431.68 205.92L432.387 206.627L432.387 206.627L431.68 205.92ZM386.88 207.64C379.266 207.64 372.465 205.765 366.447 202.03L365.393 203.73C371.749 207.675 378.92 209.64 386.88 209.64V207.64ZM366.458 202.037C360.417 198.183 355.625 193.029 352.077 186.559L350.323 187.521C354.028 194.277 359.05 199.683 365.382 203.723L366.458 202.037ZM352.086 186.576C348.649 180.014 346.92 172.603 346.92 164.32H344.92C344.92 172.89 346.711 180.626 350.314 187.504L352.086 186.576ZM346.92 164.32C346.92 156.051 348.802 148.652 352.548 142.096L350.812 141.104C346.878 147.988 344.92 155.735 344.92 164.32H346.92ZM352.542 142.106C356.403 135.532 361.561 130.377 368.022 126.625L367.018 124.895C360.253 128.823 354.85 134.228 350.818 141.094L352.542 142.106ZM368.026 126.622C374.582 122.772 381.926 120.84 390.08 120.84V118.84C381.594 118.84 373.898 120.855 367.014 124.898L368.026 126.622ZM390.08 120.84C398.235 120.84 405.522 122.772 411.968 126.619L412.992 124.901C406.212 120.855 398.565 118.84 390.08 118.84V120.84ZM411.978 126.625C418.437 130.375 423.538 135.527 427.292 142.096L429.028 141.104C425.102 134.233 419.75 128.825 412.982 124.895L411.978 126.625ZM427.298 142.106C431.147 148.66 433.08 156.056 433.08 164.32H435.08C435.08 155.73 433.066 147.98 429.022 141.094L427.298 142.106ZM434.08 163.32H427.84V165.32H434.08V163.32ZM426.84 164.32C426.84 172.598 425.06 180.006 421.52 186.565L423.28 187.515C426.993 180.634 428.84 172.895 428.84 164.32H426.84ZM421.517 186.57C418.076 193.035 413.341 198.185 407.302 202.037L408.378 203.723C414.713 199.682 419.684 194.272 423.283 187.51L421.517 186.57ZM407.313 202.03C401.295 205.765 394.494 207.64 386.88 207.64V209.64C394.84 209.64 402.011 207.675 408.367 203.73L407.313 202.03ZM390.08 195.24C395.684 195.24 400.718 193.919 405.154 191.257L404.126 189.543C400.029 192.001 395.356 193.24 390.08 193.24V195.24ZM405.17 191.248C409.584 188.489 413.063 184.788 415.597 180.16L413.843 179.2C411.471 183.532 408.229 186.978 404.11 189.552L405.17 191.248ZM415.602 180.152C418.139 175.408 419.4 170.123 419.4 164.32H417.4C417.4 169.823 416.207 174.779 413.838 179.208L415.602 180.152ZM419.4 164.32C419.4 158.414 418.141 153.125 415.597 148.48L413.843 149.44C416.206 153.755 417.4 158.706 417.4 164.32H419.4ZM415.602 148.488C413.067 143.75 409.583 140.04 405.154 137.383L404.126 139.097C408.23 141.56 411.466 144.997 413.838 149.432L415.602 148.488ZM405.17 137.392C400.732 134.618 395.692 133.24 390.08 133.24V135.24C395.348 135.24 400.015 136.529 404.11 139.088L405.17 137.392ZM390.08 133.24C384.571 133.24 379.536 134.62 374.999 137.386L376.041 139.094C380.25 136.527 384.922 135.24 390.08 135.24V133.24ZM375.006 137.383C370.581 140.037 367.047 143.742 364.407 148.473L366.153 149.447C368.633 145.004 371.926 141.563 376.034 139.097L375.006 137.383ZM364.403 148.48C361.859 153.125 360.6 158.414 360.6 164.32H362.6C362.6 158.706 363.794 153.755 366.157 149.44L364.403 148.48ZM360.6 164.32C360.6 170.123 361.861 175.408 364.398 180.152L366.162 179.208C363.793 174.779 362.6 169.823 362.6 164.32H360.6ZM364.412 180.176C367.052 184.796 370.58 188.491 374.99 191.248L376.05 189.552C371.927 186.975 368.628 183.524 366.148 179.184L364.412 180.176ZM375.015 191.263C379.55 193.917 384.579 195.24 390.08 195.24V193.24C384.915 193.24 380.237 192.003 376.025 189.537L375.015 191.263ZM425.92 207.16C423.807 207.16 422.083 206.496 420.682 205.189L419.318 206.651C421.117 208.33 423.34 209.16 425.92 209.16V207.16ZM420.731 205.238C419.424 203.837 418.76 202.113 418.76 200H416.76C416.76 202.58 417.59 204.803 419.269 206.602L420.731 205.238ZM418.76 200V175.52H416.76V200H418.76ZM418.744 175.696L421.784 158.736L419.816 158.384L416.776 175.344L418.744 175.696ZM420.402 159.477L433.682 165.237L434.478 163.403L421.198 157.643L420.402 159.477ZM433.08 164.32V200H435.08V164.32H433.08ZM433.08 200C433.08 202.092 432.378 203.808 430.973 205.213L432.387 206.627C434.182 204.832 435.08 202.601 435.08 200H433.08ZM430.973 205.213C429.689 206.497 428.034 207.16 425.92 207.16V209.16C428.5 209.16 430.685 208.33 432.387 206.627L430.973 205.213ZM466.209 153.28H465.209V154.28H466.209V153.28ZM470.849 136.16L470.001 135.63L469.998 135.635L470.849 136.16ZM483.649 124L483.16 123.127L483.16 123.127L483.649 124ZM515.489 122.72L514.921 123.543L514.937 123.554L514.954 123.565L515.489 122.72ZM519.169 130.08L518.201 129.829L518.195 129.85L518.191 129.87L519.169 130.08ZM517.249 133.6L517.907 134.353L517.913 134.347L517.249 133.6ZM514.209 135.04L514.03 134.056L514.03 134.056L514.209 135.04ZM510.369 134.88L510.594 133.906L510.581 133.903L510.568 133.9L510.369 134.88ZM479.009 141.12L478.302 140.413L478.296 140.419L478.29 140.425L479.009 141.12ZM474.369 153.28V154.28H475.369V153.28H474.369ZM460.449 206.08L459.742 206.787L459.756 206.801L459.77 206.815L460.449 206.08ZM460.449 122.56L461.156 123.267L461.156 123.267L460.449 122.56ZM472.289 122.56L471.554 123.238L471.581 123.268L471.61 123.295L472.289 122.56ZM472.289 205.92L471.582 205.213L471.568 205.227L471.554 205.242L472.289 205.92ZM467.209 153.28C467.209 147.049 468.712 141.527 471.7 136.685L469.998 135.635C466.799 140.82 465.209 146.711 465.209 153.28H467.209ZM471.697 136.69C474.806 131.714 478.949 127.778 484.137 124.873L483.16 123.127C477.682 126.195 473.291 130.366 470.001 135.63L471.697 136.69ZM484.137 124.873C489.314 121.973 495.011 120.52 501.249 120.52V118.52C494.686 118.52 488.65 120.053 483.16 123.127L484.137 124.873ZM501.249 120.52C507.573 120.52 512.075 121.581 514.921 123.543L516.056 121.897C512.715 119.593 507.724 118.52 501.249 118.52V120.52ZM514.954 123.565C516.456 124.516 517.408 125.514 517.914 126.527C518.41 127.519 518.519 128.602 518.201 129.829L520.137 130.331C520.565 128.678 520.434 127.095 519.703 125.633C518.983 124.193 517.721 122.95 516.024 121.875L514.954 123.565ZM518.191 129.87C517.907 131.196 517.357 132.166 516.584 132.853L517.913 134.347C519.061 133.327 519.791 131.95 520.147 130.29L518.191 129.87ZM516.59 132.847C515.88 133.469 515.035 133.873 514.03 134.056L514.388 136.024C515.729 135.78 516.911 135.225 517.907 134.353L516.59 132.847ZM514.03 134.056C513.014 134.241 511.873 134.201 510.594 133.906L510.144 135.854C511.638 136.199 513.057 136.266 514.388 136.024L514.03 134.056ZM510.568 133.9C503.639 132.493 497.362 132.374 491.758 133.582L492.18 135.538C497.455 134.4 503.445 134.494 510.17 135.86L510.568 133.9ZM491.758 133.582C486.173 134.787 481.666 137.049 478.302 140.413L479.716 141.827C482.752 138.791 486.884 136.68 492.18 135.538L491.758 133.582ZM478.29 140.425C474.997 143.831 473.369 148.143 473.369 153.28H475.369C475.369 148.604 476.834 144.809 479.728 141.815L478.29 140.425ZM474.369 152.28H466.209V154.28H474.369V152.28ZM466.369 207C463.969 207 462.272 206.402 461.127 205.345L459.77 206.815C461.399 208.318 463.648 209 466.369 209V207ZM461.156 205.373C460.016 204.233 459.369 202.499 459.369 200H457.369C457.369 202.834 458.108 205.153 459.742 206.787L461.156 205.373ZM459.369 200V128.48H457.369V200H459.369ZM459.369 128.48C459.369 126.101 460.009 124.414 461.156 123.267L459.742 121.853C458.115 123.479 457.369 125.739 457.369 128.48H459.369ZM461.156 123.267C462.303 122.12 463.99 121.48 466.369 121.48V119.48C463.628 119.48 461.368 120.226 459.742 121.853L461.156 123.267ZM466.369 121.48C468.874 121.48 470.531 122.13 471.554 123.238L473.024 121.882C471.487 120.217 469.196 119.48 466.369 119.48V121.48ZM471.61 123.295C472.719 124.318 473.369 125.974 473.369 128.48H475.369C475.369 125.652 474.632 123.362 472.967 121.825L471.61 123.295ZM473.369 128.48V200H475.369V128.48H473.369ZM473.369 200C473.369 202.379 472.729 204.066 471.582 205.213L472.996 206.627C474.622 205.001 475.369 202.741 475.369 200H473.369ZM471.554 205.242C470.531 206.35 468.874 207 466.369 207V209C469.196 209 471.487 208.263 473.024 206.598L471.554 205.242ZM546.895 202.88L546.383 203.739L546.391 203.744L546.399 203.748L546.895 202.88ZM531.055 186.88L530.187 187.376L530.193 187.386L531.055 186.88ZM530.575 141.6L529.695 141.125L529.692 141.13L530.575 141.6ZM545.295 125.76L545.822 126.61L545.833 126.603L545.295 125.76ZM583.695 123.84L583.248 124.734L583.255 124.738L583.262 124.742L583.695 123.84ZM597.135 134.4L596.358 135.029L598.135 137.225V134.4H597.135ZM599.375 85.28L598.693 84.5489L598.68 84.5607L598.668 84.5729L599.375 85.28ZM607.535 186.88L606.673 186.374L606.667 186.384L607.535 186.88ZM591.855 202.88L592.357 203.745L592.367 203.739L591.855 202.88ZM584.015 190.4L584.529 191.257L584.537 191.253L584.545 191.248L584.015 190.4ZM594.095 179.52L593.213 179.048L593.213 179.048L594.095 179.52ZM594.095 148.8L593.218 149.28L593.218 149.28L594.095 148.8ZM584.015 138.24L583.485 139.088L583.493 139.093L583.501 139.097L584.015 138.24ZM554.895 138.24L555.41 139.098L555.416 139.094L554.895 138.24ZM544.655 148.8L543.787 148.304L543.782 148.312L543.778 148.32L544.655 148.8ZM544.655 179.52L543.773 179.992L543.777 180L543.782 180.007L544.655 179.52ZM554.895 190.4L554.365 191.248L554.377 191.256L554.39 191.263L554.895 190.4ZM569.455 207.64C561.296 207.64 553.949 205.759 547.391 202.012L546.399 203.748C553.281 207.681 560.974 209.64 569.455 209.64V207.64ZM547.407 202.021C540.94 198.162 535.78 192.95 531.917 186.374L530.193 187.386C534.223 194.25 539.623 199.705 546.383 203.739L547.407 202.021ZM531.923 186.384C528.177 179.828 526.295 172.429 526.295 164.16H524.295C524.295 172.745 526.253 180.492 530.187 187.376L531.923 186.384ZM526.295 164.16C526.295 155.876 528.024 148.521 531.458 142.07L529.692 141.13C526.086 147.905 524.295 155.59 524.295 164.16H526.295ZM531.455 142.075C535.003 135.501 539.791 130.353 545.822 126.61L544.768 124.91C538.425 128.847 533.4 134.259 529.695 141.125L531.455 142.075ZM545.833 126.603C551.849 122.765 558.647 120.84 566.255 120.84V118.84C558.29 118.84 551.114 120.861 544.757 124.917L545.833 126.603ZM566.255 120.84C572.402 120.84 578.061 122.141 583.248 124.734L584.142 122.946C578.662 120.206 572.695 118.84 566.255 118.84V120.84ZM583.262 124.742C588.466 127.239 592.827 130.667 596.358 135.029L597.912 133.771C594.19 129.173 589.591 125.561 584.128 122.938L583.262 124.742ZM598.135 134.4V91.2H596.135V134.4H598.135ZM598.135 91.2C598.135 88.9655 598.807 87.2625 600.082 85.9871L598.668 84.5729C596.957 86.2842 596.135 88.5278 596.135 91.2H598.135ZM600.057 86.0111C601.458 84.7037 603.182 84.04 605.295 84.04V82.04C602.715 82.04 600.492 82.8696 598.693 84.5489L600.057 86.0111ZM605.295 84.04C607.529 84.04 609.233 84.7117 610.508 85.9871L611.922 84.5729C610.211 82.8616 607.967 82.04 605.295 82.04V84.04ZM610.508 85.9871C611.783 87.2625 612.455 88.9655 612.455 91.2H614.455C614.455 88.5278 613.633 86.2842 611.922 84.5729L610.508 85.9871ZM612.455 91.2V164.16H614.455V91.2H612.455ZM612.455 164.16C612.455 172.424 610.522 179.82 606.673 186.374L608.397 187.386C612.441 180.5 614.455 172.75 614.455 164.16H612.455ZM606.667 186.384C602.912 192.955 597.807 198.163 591.343 202.021L592.367 203.739C599.129 199.703 604.478 194.245 608.403 187.376L606.667 186.384ZM591.353 202.015C584.905 205.759 577.615 207.64 569.455 207.64V209.64C577.935 209.64 585.578 207.681 592.357 203.745L591.353 202.015ZM569.455 195.24C575.059 195.24 580.093 193.919 584.529 191.257L583.501 189.543C579.404 192.001 574.731 193.24 569.455 193.24V195.24ZM584.545 191.248C588.965 188.486 592.444 184.727 594.977 179.992L593.213 179.048C590.839 183.486 587.598 186.981 583.485 189.552L584.545 191.248ZM594.977 179.992C597.514 175.248 598.775 169.963 598.775 164.16H596.775C596.775 169.663 595.582 174.619 593.213 179.048L594.977 179.992ZM598.775 164.16C598.775 158.254 597.516 152.965 594.972 148.32L593.218 149.28C595.581 153.595 596.775 158.546 596.775 164.16H598.775ZM594.972 148.32C592.436 143.688 588.953 140.036 584.529 137.383L583.501 139.097C587.611 141.564 590.847 144.952 593.218 149.28L594.972 148.32ZM584.545 137.392C580.107 134.618 575.067 133.24 569.455 133.24V135.24C574.723 135.24 579.39 136.529 583.485 139.088L584.545 137.392ZM569.455 133.24C563.946 133.24 558.911 134.62 554.374 137.386L555.416 139.094C559.625 136.527 564.297 135.24 569.455 135.24V133.24ZM554.381 137.383C549.961 140.034 546.428 143.681 543.787 148.304L545.523 149.296C548.002 144.959 551.295 141.566 555.409 139.097L554.381 137.383ZM543.778 148.32C541.234 152.965 539.975 158.254 539.975 164.16H541.975C541.975 158.546 543.169 153.595 545.532 149.28L543.778 148.32ZM539.975 164.16C539.975 169.963 541.236 175.248 543.773 179.992L545.537 179.048C543.168 174.619 541.975 169.663 541.975 164.16H539.975ZM543.782 180.007C546.42 184.735 549.949 188.488 554.365 191.248L555.425 189.552C551.308 186.979 548.01 183.479 545.528 179.033L543.782 180.007ZM554.39 191.263C558.925 193.917 563.954 195.24 569.455 195.24V193.24C564.29 193.24 559.612 192.003 555.4 189.537L554.39 191.263ZM659.715 203.04L659.225 203.912L659.233 203.916L659.241 203.92L659.715 203.04ZM643.555 187.36L642.687 187.856L642.691 187.864L642.696 187.872L643.555 187.36ZM643.235 141.28L642.361 140.794L642.358 140.799L643.235 141.28ZM658.595 125.6L659.093 126.467L659.103 126.461L658.595 125.6ZM702.435 125.44L701.905 126.288L701.916 126.295L702.435 125.44ZM716.035 140.64L715.132 141.069L715.136 141.078L715.141 141.087L716.035 140.64ZM718.755 168L719.433 168.735L719.448 168.721L719.462 168.707L718.755 168ZM648.995 169.92H647.995V170.92H648.995V169.92ZM648.995 157.12V156.12H647.995V157.12H648.995ZM712.995 157.12L713.559 157.946L716.232 156.12H712.995V157.12ZM706.435 161.6L705.435 161.62L705.472 163.468L706.999 162.426L706.435 161.6ZM703.235 147.36L702.332 147.789L702.336 147.798L703.235 147.36ZM665.315 137.6L664.794 136.746L664.785 136.752L665.315 137.6ZM655.555 148.64L656.454 149.079L656.457 149.071L655.555 148.64ZM656.195 180L655.33 180.503L655.33 180.503L656.195 180ZM667.235 190.88L667.729 190.011L667.729 190.011L667.235 190.88ZM693.475 193.12L693.8 194.066L693.808 194.063L693.817 194.06L693.475 193.12ZM701.955 188.8L701.364 187.994L701.355 188L701.955 188.8ZM707.075 187.04V188.04H707.103L707.13 188.038L707.075 187.04ZM712.035 188.64L712.697 187.89L712.689 187.883L712.681 187.877L712.035 188.64ZM714.915 193.92L715.913 193.865L715.913 193.865L714.915 193.92ZM712.355 198.88L711.748 198.086L711.74 198.091L711.733 198.097L712.355 198.88ZM698.755 205.92L698.439 204.971L698.433 204.973L698.755 205.92ZM683.395 207.64C674.686 207.64 666.959 205.805 660.189 202.16L659.241 203.92C666.337 207.742 674.397 209.64 683.395 209.64V207.64ZM660.205 202.168C653.528 198.412 648.269 193.308 644.414 186.848L642.696 187.872C646.734 194.638 652.249 199.988 659.225 203.912L660.205 202.168ZM644.423 186.864C640.679 180.312 638.795 172.807 638.795 164.32H636.795C636.795 173.113 638.751 180.968 642.687 187.856L644.423 186.864ZM638.795 164.32C638.795 155.714 640.578 148.205 644.112 141.761L642.358 140.799C638.639 147.582 636.795 155.432 636.795 164.32H638.795ZM644.109 141.766C647.756 135.201 652.748 130.108 659.093 126.467L658.097 124.733C651.429 128.559 646.18 133.919 642.361 140.794L644.109 141.766ZM659.103 126.461C665.439 122.722 672.726 120.84 680.995 120.84V118.84C672.411 118.84 664.765 120.798 658.087 124.739L659.103 126.461ZM680.995 120.84C689.162 120.84 696.117 122.671 701.905 126.288L702.965 124.592C696.806 120.743 689.468 118.84 680.995 118.84V120.84ZM701.916 126.295C707.717 129.817 712.12 134.733 715.132 141.069L716.938 140.211C713.764 133.533 709.1 128.316 702.954 124.585L701.916 126.295ZM715.141 141.087C718.26 147.326 719.835 154.581 719.835 162.88H721.835C721.835 154.326 720.21 146.754 716.929 140.193L715.141 141.087ZM719.835 162.88C719.835 164.651 719.24 166.101 718.048 167.293L719.462 168.707C721.043 167.126 721.835 165.162 721.835 162.88H719.835ZM718.077 167.265C716.899 168.352 715.392 168.92 713.475 168.92V170.92C715.824 170.92 717.837 170.208 719.433 168.735L718.077 167.265ZM713.475 168.92H648.995V170.92H713.475V168.92ZM649.995 169.92V157.12H647.995V169.92H649.995ZM648.995 158.12H712.995V156.12H648.995V158.12ZM712.431 156.294L705.871 160.774L706.999 162.426L713.559 157.946L712.431 156.294ZM707.435 161.58C707.326 156.124 706.233 151.231 704.134 146.922L702.336 147.798C704.29 151.809 705.331 156.41 705.435 161.62L707.435 161.58ZM704.138 146.931C702.038 142.509 699.039 139.004 695.144 136.444L694.046 138.116C697.617 140.463 700.379 143.678 702.332 147.789L704.138 146.931ZM695.144 136.444C691.218 133.864 686.485 132.6 680.995 132.6V134.6C686.172 134.6 690.505 135.789 694.046 138.116L695.144 136.444ZM680.995 132.6C674.766 132.6 669.352 133.967 664.794 136.746L665.836 138.454C670.025 135.899 675.064 134.6 680.995 134.6V132.6ZM664.785 136.752C660.351 139.523 656.972 143.35 654.653 148.209L656.457 149.071C658.618 144.543 661.745 141.01 665.845 138.448L664.785 136.752ZM654.656 148.201C652.34 152.944 651.195 158.324 651.195 164.32H653.195C653.195 158.583 654.29 153.51 656.454 149.079L654.656 148.201ZM651.195 164.32C651.195 170.344 652.566 175.748 655.33 180.503L657.06 179.497C654.491 175.079 653.195 170.029 653.195 164.32H651.195ZM655.33 180.503C658.088 185.245 661.897 188.997 666.741 191.749L667.729 190.011C663.187 187.43 659.636 183.928 657.06 179.497L655.33 180.503ZM666.741 191.749C671.603 194.512 677.164 195.88 683.395 195.88V193.88C677.466 193.88 672.253 192.581 667.729 190.011L666.741 191.749ZM683.395 195.88C686.822 195.88 690.292 195.272 693.8 194.066L693.15 192.174C689.832 193.315 686.581 193.88 683.395 193.88V195.88ZM693.817 194.06C697.395 192.759 700.318 191.278 702.555 189.6L701.355 188C699.325 189.522 696.595 190.921 693.133 192.18L693.817 194.06ZM702.546 189.606C703.992 188.546 705.495 188.04 707.075 188.04V186.04C705.029 186.04 703.118 186.707 701.364 187.994L702.546 189.606ZM707.13 188.038C708.812 187.945 710.21 188.406 711.389 189.403L712.681 187.877C711.087 186.528 709.178 185.922 707.02 186.042L707.13 188.038ZM711.373 189.39C713.041 190.861 713.828 192.388 713.917 193.975L715.913 193.865C715.788 191.612 714.656 189.619 712.697 187.89L711.373 189.39ZM713.917 193.975C714.001 195.5 713.354 196.857 711.748 198.086L712.962 199.674C714.982 198.13 716.042 196.18 715.913 193.865L713.917 193.975ZM711.733 198.097C708.217 200.889 703.793 203.186 698.439 204.971L699.071 206.869C704.597 205.027 709.24 202.631 712.977 199.663L711.733 198.097ZM698.433 204.973C693.188 206.756 688.177 207.64 683.395 207.64V209.64C688.426 209.64 693.655 208.71 699.077 206.867L698.433 204.973ZM809.65 205.92L808.919 206.602L808.942 206.628L808.968 206.651L809.65 205.92ZM804.05 145.76L803.186 146.264L803.186 146.264L804.05 145.76ZM794.93 137.28L794.473 138.169L794.488 138.177L794.503 138.184L794.93 137.28ZM769.81 137.12L769.363 136.226L769.363 136.226L769.81 137.12ZM761.17 144.48L761.984 145.061L761.989 145.055L761.993 145.048L761.17 144.48ZM757.97 154.88V155.88H758.97V154.88H757.97ZM747.89 154.88H746.89V155.88H747.89V154.88ZM752.69 136.96L751.84 136.433L751.837 136.438L752.69 136.96ZM766.13 124.32L766.61 125.197L766.61 125.197L766.13 124.32ZM804.85 124.48L804.364 125.354L804.374 125.359L804.384 125.365L804.85 124.48ZM818.61 138.24L817.731 138.718L817.738 138.73L818.61 138.24ZM821.33 205.92L820.623 205.213L820.623 205.213L821.33 205.92ZM743.89 205.92L743.159 206.602L743.182 206.628L743.208 206.651L743.89 205.92ZM743.89 122.72L743.208 121.989L743.195 122.001L743.183 122.013L743.89 122.72ZM755.73 205.92L756.437 206.627L756.449 206.615L756.461 206.602L755.73 205.92ZM815.57 207.16C813.457 207.16 811.733 206.496 810.332 205.189L808.968 206.651C810.767 208.33 812.99 209.16 815.57 209.16V207.16ZM810.381 205.238C809.074 203.837 808.41 202.113 808.41 200H806.41C806.41 202.58 807.24 204.803 808.919 206.602L810.381 205.238ZM808.41 200V160.64H806.41V200H808.41ZM808.41 160.64C808.41 154.445 807.27 149.295 804.914 145.256L803.186 146.264C805.31 149.905 806.41 154.675 806.41 160.64H808.41ZM804.914 145.256C802.577 141.25 799.389 138.28 795.357 136.376L794.503 138.184C798.151 139.907 801.043 142.59 803.186 146.264L804.914 145.256ZM795.387 136.391C791.49 134.387 787.009 133.4 781.97 133.4V135.4C786.744 135.4 790.903 136.333 794.473 138.169L795.387 136.391ZM781.97 133.4C777.351 133.4 773.142 134.336 769.363 136.226L770.257 138.014C773.731 136.278 777.629 135.4 781.97 135.4V133.4ZM769.363 136.226C765.598 138.108 762.583 140.669 760.347 143.912L761.993 145.048C764.023 142.104 766.769 139.758 770.257 138.014L769.363 136.226ZM760.356 143.899C758.093 147.068 756.97 150.741 756.97 154.88H758.97C758.97 151.125 759.981 147.865 761.984 145.061L760.356 143.899ZM757.97 153.88H747.89V155.88H757.97V153.88ZM748.89 154.88C748.89 148.326 750.448 142.537 753.543 137.482L751.837 136.438C748.532 141.837 746.89 147.994 746.89 154.88H748.89ZM753.54 137.487C756.753 132.304 761.104 128.21 766.61 125.197L765.65 123.443C759.849 126.617 755.24 130.949 751.84 136.433L753.54 137.487ZM766.61 125.197C772.103 122.192 778.282 120.68 785.17 120.68V118.68C777.978 118.68 771.464 120.262 765.65 123.443L766.61 125.197ZM785.17 120.68C792.38 120.68 798.77 122.246 804.364 125.354L805.336 123.606C799.41 120.314 792.68 118.68 785.17 118.68V120.68ZM804.384 125.365C810.068 128.362 814.515 132.803 817.732 138.718L819.488 137.762C816.092 131.517 811.365 126.785 805.316 123.595L804.384 125.365ZM817.738 138.73C821.048 144.625 822.73 151.913 822.73 160.64H824.73C824.73 151.661 822.999 144.015 819.482 137.75L817.738 138.73ZM822.73 160.64V200H824.73V160.64H822.73ZM822.73 200C822.73 202.092 822.028 203.808 820.623 205.213L822.037 206.627C823.832 204.832 824.73 202.601 824.73 200H822.73ZM820.623 205.213C819.339 206.497 817.684 207.16 815.57 207.16V209.16C818.15 209.16 820.335 208.33 822.037 206.627L820.623 205.213ZM749.81 207.16C747.697 207.16 745.973 206.496 744.572 205.189L743.208 206.651C745.007 208.33 747.23 209.16 749.81 209.16V207.16ZM744.621 205.238C743.314 203.837 742.65 202.113 742.65 200H740.65C740.65 202.58 741.48 204.803 743.159 206.602L744.621 205.238ZM742.65 200V128.64H740.65V200H742.65ZM742.65 128.64C742.65 126.406 743.322 124.702 744.597 123.427L743.183 122.013C741.472 123.724 740.65 125.968 740.65 128.64H742.65ZM744.572 123.451C745.973 122.144 747.697 121.48 749.81 121.48V119.48C747.23 119.48 745.007 120.31 743.208 121.989L744.572 123.451ZM749.81 121.48C752.044 121.48 753.748 122.152 755.023 123.427L756.437 122.013C754.726 120.302 752.482 119.48 749.81 119.48V121.48ZM755.023 123.427C756.298 124.702 756.97 126.406 756.97 128.64H758.97C758.97 125.968 758.148 123.724 756.437 122.013L755.023 123.427ZM756.97 128.64V200H758.97V128.64H756.97ZM756.97 200C756.97 202.113 756.306 203.837 754.999 205.238L756.461 206.602C758.14 204.803 758.97 202.58 758.97 200H756.97ZM755.023 205.213C753.748 206.488 752.044 207.16 749.81 207.16V209.16C752.482 209.16 754.726 208.338 756.437 206.627L755.023 205.213ZM867.513 202.88L867 203.739L867.008 203.744L867.016 203.748L867.513 202.88ZM851.833 187.04L850.958 187.526L850.963 187.534L850.968 187.542L851.833 187.04ZM851.833 141.28L850.958 140.794L850.958 140.794L851.833 141.28ZM867.193 125.6L867.69 126.467L867.701 126.461L867.193 125.6ZM906.873 123.52L906.448 124.425L906.455 124.429L906.463 124.432L906.873 123.52ZM920.953 134.24L920.197 134.895L920.2 134.899L920.953 134.24ZM922.553 139.52L921.579 139.291L921.579 139.291L922.553 139.52ZM919.033 144.32L919.614 145.134L919.618 145.131L919.033 144.32ZM914.073 145.44L913.843 146.413L913.871 146.42L913.899 146.425L914.073 145.44ZM909.113 142.56L908.385 143.246L908.395 143.257L908.405 143.267L909.113 142.56ZM875.193 138.08L875.7 138.941L875.709 138.937L875.717 138.932L875.193 138.08ZM865.433 148.48L866.318 148.944L866.318 148.944L865.433 148.48ZM865.433 179.68L864.547 180.144L864.551 180.152L864.555 180.16L865.433 179.68ZM875.513 190.4L874.983 191.248L874.99 191.253L874.998 191.257L875.513 190.4ZM900.153 192.96L900.447 193.916L900.458 193.912L900.469 193.909L900.153 192.96ZM907.993 188.64L907.362 187.864L907.359 187.866L907.993 188.64ZM913.273 186.4L913.331 187.398L913.36 187.397L913.389 187.393L913.273 186.4ZM918.073 187.84L917.427 188.603L917.437 188.612L918.073 187.84ZM921.113 192.96L920.119 193.07L920.119 193.077L921.113 192.96ZM919.193 197.92L919.874 198.652L919.887 198.64L919.9 198.627L919.193 197.92ZM890.393 207.64C882.015 207.64 874.562 205.757 868.009 202.012L867.016 203.748C873.903 207.683 881.703 209.64 890.393 209.64V207.64ZM868.025 202.021C861.556 198.161 856.451 193.003 852.697 186.538L850.968 187.542C854.894 194.303 860.242 199.706 867 203.739L868.025 202.021ZM852.707 186.554C849.064 179.997 847.233 172.593 847.233 164.32H845.233C845.233 172.9 847.135 180.643 850.958 187.526L852.707 186.554ZM847.233 164.32C847.233 155.829 849.066 148.319 852.707 141.766L850.958 140.794C847.133 147.681 845.233 155.531 845.233 164.32H847.233ZM852.707 141.766C856.354 135.201 861.345 130.108 867.69 126.467L866.695 124.733C860.026 128.559 854.778 133.919 850.958 140.794L852.707 141.766ZM867.701 126.461C874.036 122.722 881.323 120.84 889.593 120.84V118.84C881.008 118.84 873.362 120.798 866.684 124.739L867.701 126.461ZM889.593 120.84C895.752 120.84 901.366 122.04 906.448 124.425L907.297 122.615C901.926 120.094 896.019 118.84 889.593 118.84V120.84ZM906.463 124.432C911.543 126.713 916.122 130.193 920.197 134.895L921.708 133.585C917.463 128.687 912.655 125.02 907.282 122.608L906.463 124.432ZM920.2 134.899C921.533 136.422 921.915 137.862 921.579 139.291L923.526 139.749C924.043 137.552 923.359 135.471 921.705 133.581L920.2 134.899ZM921.579 139.291C921.221 140.812 920.226 142.224 918.447 143.509L919.618 145.131C921.679 143.642 923.03 141.855 923.526 139.749L921.579 139.291ZM918.451 143.506C917.177 144.416 915.796 144.729 914.246 144.455L913.899 146.425C915.975 146.791 917.901 146.357 919.614 145.134L918.451 143.506ZM914.302 144.467C912.693 144.088 911.199 143.233 909.82 141.853L908.405 143.267C910.012 144.874 911.826 145.939 913.843 146.413L914.302 144.467ZM909.84 141.874C904.42 136.122 897.648 133.24 889.593 133.24V135.24C897.11 135.24 903.352 137.905 908.385 143.246L909.84 141.874ZM889.593 133.24C883.989 133.24 879.003 134.561 874.668 137.228L875.717 138.932C879.702 136.479 884.316 135.24 889.593 135.24V133.24ZM874.685 137.219C870.356 139.771 866.976 143.379 864.547 148.016L866.318 148.944C868.583 144.621 871.709 141.295 875.7 138.941L874.685 137.219ZM864.547 148.016C862.111 152.665 860.913 158.111 860.913 164.32H862.913C862.913 158.369 864.06 153.255 866.318 148.944L864.547 148.016ZM860.913 164.32C860.913 170.219 862.115 175.502 864.547 180.144L866.318 179.216C864.057 174.898 862.913 169.941 862.913 164.32H860.913ZM864.555 180.16C867.09 184.788 870.568 188.489 874.983 191.248L876.042 189.552C871.923 186.978 868.682 183.532 866.31 179.2L864.555 180.16ZM874.998 191.257C879.44 193.923 884.583 195.24 890.393 195.24V193.24C884.895 193.24 880.118 191.997 876.027 189.543L874.998 191.257ZM890.393 195.24C894.199 195.24 897.555 194.805 900.447 193.916L899.858 192.004C897.203 192.821 894.053 193.24 890.393 193.24V195.24ZM900.469 193.909C903.464 192.91 906.185 191.411 908.626 189.414L907.359 187.866C905.107 189.709 902.601 191.09 899.836 192.011L900.469 193.909ZM908.623 189.416C910.202 188.133 911.768 187.49 913.331 187.398L913.214 185.402C911.15 185.523 909.196 186.373 907.362 187.864L908.623 189.416ZM913.389 187.393C914.929 187.212 916.253 187.61 917.427 188.603L918.718 187.077C917.119 185.723 915.242 185.161 913.156 185.407L913.389 187.393ZM917.437 188.612C919.095 189.978 919.94 191.463 920.119 193.07L922.106 192.85C921.858 190.617 920.676 188.689 918.708 187.068L917.437 188.612ZM920.119 193.077C920.291 194.536 919.801 195.898 918.485 197.213L919.9 198.627C921.571 196.956 922.361 195.01 922.106 192.843L920.119 193.077ZM918.511 197.188C911.035 204.145 901.687 207.64 890.393 207.64V209.64C902.138 209.64 911.99 205.988 919.874 198.652L918.511 197.188ZM958.646 245.44L958.232 246.35L958.242 246.355L958.252 246.359L958.646 245.44ZM954.806 235.36L955.713 235.782L955.717 235.773L955.721 235.765L954.806 235.36ZM1003.61 125.12L1002.7 124.69L1002.7 124.703L1002.69 124.715L1003.61 125.12ZM1013.69 121.28L1014.08 120.359L1014.07 120.358L1013.69 121.28ZM1017.69 131.36L1016.78 130.946L1016.77 130.954L1017.69 131.36ZM968.726 241.44L967.813 241.034L967.803 241.056L967.794 241.079L968.726 241.44ZM981.366 204.48L981.754 205.402L981.754 205.402L981.366 204.48ZM975.606 204.8L975.205 205.716L975.239 205.731L975.273 205.743L975.606 204.8ZM971.446 200.64L972.331 200.174L972.331 200.174L971.446 200.64ZM934.806 131.04L933.921 131.506L933.921 131.506L934.806 131.04ZM934.326 125.28L933.412 124.874L933.407 124.886L933.402 124.899L934.326 125.28ZM938.646 121.12L938.258 120.198L938.258 120.198L938.646 121.12ZM944.406 120.96L944.026 121.885L944.049 121.894L944.073 121.903L944.406 120.96ZM948.566 124.96L947.663 125.388L947.668 125.399L947.673 125.41L948.566 124.96ZM983.606 194.56L982.713 195.01L982.717 195.018L982.721 195.026L983.606 194.56ZM984.726 200.48L983.74 200.316L983.736 200.339L983.733 200.363L984.726 200.48ZM962.486 245.4C961.607 245.4 960.468 245.133 959.04 244.521L958.252 246.359C959.811 247.027 961.232 247.4 962.486 247.4V245.4ZM959.06 244.53C956.849 243.524 955.613 242.308 955.101 240.964C954.59 239.625 954.713 237.932 955.713 235.782L953.9 234.938C952.766 237.375 952.462 239.655 953.232 241.676C954 243.692 955.75 245.222 958.232 246.35L959.06 244.53ZM955.721 235.765L1004.52 125.525L1002.69 124.715L953.892 234.955L955.721 235.765ZM1004.51 125.55C1005.51 123.453 1006.72 122.253 1008.08 121.734C1009.44 121.216 1011.15 121.303 1013.3 122.202L1014.07 120.358C1011.63 119.337 1009.37 119.104 1007.37 119.866C1005.37 120.627 1003.84 122.307 1002.7 124.69L1004.51 125.55ZM1013.3 122.201C1015.56 123.157 1016.83 124.35 1017.36 125.689C1017.89 127.025 1017.78 128.74 1016.78 130.946L1018.6 131.774C1019.73 129.287 1020.02 126.975 1019.22 124.951C1018.41 122.93 1016.61 121.43 1014.08 120.359L1013.3 122.201ZM1016.77 130.954L967.813 241.034L969.64 241.846L1018.6 131.766L1016.77 130.954ZM967.794 241.079C967.197 242.62 966.446 243.692 965.584 244.377C964.736 245.051 963.72 245.4 962.486 245.4V247.4C964.132 247.4 965.596 246.922 966.828 245.943C968.047 244.975 968.975 243.566 969.659 241.801L967.794 241.079ZM980.978 203.558C979.146 204.33 977.484 204.402 975.939 203.857L975.273 205.743C977.355 206.478 979.534 206.337 981.754 205.402L980.978 203.558ZM976.007 203.884C974.552 203.247 973.317 202.048 972.331 200.174L970.561 201.106C971.709 203.286 973.247 204.859 975.205 205.716L976.007 203.884ZM972.331 200.174L935.691 130.574L933.921 131.506L970.561 201.106L972.331 200.174ZM935.691 130.574C934.737 128.761 934.637 127.153 935.251 125.661L933.402 124.899C932.523 127.034 932.742 129.266 933.921 131.506L935.691 130.574ZM935.24 125.686C935.985 124.01 937.23 122.801 939.034 122.042L938.258 120.198C936.009 121.145 934.374 122.71 933.412 124.874L935.24 125.686ZM939.034 122.042C940.848 121.278 942.489 121.252 944.026 121.885L944.787 120.035C942.696 119.174 940.498 119.255 938.258 120.198L939.034 122.042ZM944.073 121.903C945.594 122.44 946.796 123.559 947.663 125.388L949.47 124.532C948.416 122.308 946.846 120.76 944.739 120.017L944.073 121.903ZM947.673 125.41L982.713 195.01L984.499 194.11L949.459 124.51L947.673 125.41ZM982.721 195.026C983.705 196.894 984.018 198.647 983.74 200.316L985.713 200.644C986.075 198.473 985.641 196.279 984.491 194.094L982.721 195.026ZM983.733 200.363C983.571 201.74 982.753 202.811 980.978 203.558L981.754 205.402C984.033 204.442 985.455 202.847 985.719 200.597L983.733 200.363Z" fill="white"/>
</svg>
