<svg width="1030" height="197" viewBox="0 0 1030 197" fill="none" xmlns="http://www.w3.org/2000/svg">
<path d="M50.056 150.768C40.712 150.768 32.328 148.464 24.904 143.856C17.48 139.12 11.592 132.784 7.24 124.848C3.016 116.784 0.904001 107.696 0.904001 97.584C0.904001 87.472 3.208 78.384 7.816 70.32C12.552 62.256 18.888 55.92 26.824 51.312C34.888 46.576 43.912 44.208 53.896 44.208C63.88 44.208 72.84 46.576 80.776 51.312C88.712 55.92 94.984 62.256 99.592 70.32C104.328 78.384 106.696 87.472 106.696 97.584H99.208C99.208 107.696 97.032 116.784 92.68 124.848C88.456 132.784 82.632 139.12 75.208 143.856C67.784 148.464 59.4 150.768 50.056 150.768ZM53.896 133.488C60.424 133.488 66.248 131.952 71.368 128.88C76.488 125.68 80.52 121.392 83.464 116.016C86.408 110.512 87.88 104.368 87.88 97.584C87.88 90.672 86.408 84.528 83.464 79.152C80.52 73.648 76.488 69.36 71.368 66.288C66.248 63.088 60.424 61.488 53.896 61.488C47.496 61.488 41.672 63.088 36.424 66.288C31.304 69.36 27.208 73.648 24.136 79.152C21.192 84.528 19.72 90.672 19.72 97.584C19.72 104.368 21.192 110.512 24.136 116.016C27.208 121.392 31.304 125.68 36.424 128.88C41.672 131.952 47.496 133.488 53.896 133.488ZM96.904 150.192C94.088 150.192 91.72 149.296 89.8 147.504C88.008 145.584 87.112 143.216 87.112 140.4V111.024L90.76 90.672L106.696 97.584V140.4C106.696 143.216 105.736 145.584 103.816 147.504C102.024 149.296 99.72 150.192 96.904 150.192ZM145.251 84.336C145.251 76.656 147.107 69.808 150.819 63.792C154.659 57.648 159.779 52.784 166.179 49.2C172.579 45.616 179.619 43.824 187.299 43.824C194.979 43.824 200.675 45.104 204.387 47.664C208.227 50.096 209.699 53.04 208.803 56.496C208.419 58.288 207.651 59.696 206.499 60.72C205.475 61.616 204.259 62.192 202.851 62.448C201.443 62.704 199.907 62.64 198.243 62.256C190.051 60.592 182.691 60.464 176.163 61.872C169.635 63.28 164.451 65.904 160.611 69.744C156.899 73.584 155.043 78.448 155.043 84.336H145.251ZM145.443 150C142.371 150 140.003 149.232 138.339 147.696C136.675 146.032 135.843 143.6 135.843 140.4V54.576C135.843 51.504 136.675 49.136 138.339 47.472C140.003 45.808 142.371 44.976 145.443 44.976C148.643 44.976 151.011 45.808 152.547 47.472C154.211 49.008 155.043 51.376 155.043 54.576V140.4C155.043 143.472 154.211 145.84 152.547 147.504C151.011 149.168 148.643 150 145.443 150ZM269.146 150.768C259.162 150.768 250.138 148.464 242.074 143.856C234.138 139.12 227.802 132.72 223.066 124.656C218.458 116.592 216.154 107.504 216.154 97.392C216.154 87.28 218.266 78.256 222.49 70.32C226.842 62.256 232.73 55.92 240.154 51.312C247.578 46.576 255.962 44.208 265.306 44.208C272.858 44.208 279.834 45.808 286.234 49.008C292.634 52.08 298.01 56.304 302.362 61.68V9.84C302.362 6.896 303.258 4.528 305.05 2.736C306.97 0.943996 309.338 0.0479965 312.154 0.0479965C315.098 0.0479965 317.466 0.943996 319.258 2.736C321.05 4.528 321.946 6.896 321.946 9.84V97.392C321.946 107.504 319.578 116.592 314.842 124.656C310.234 132.72 303.962 139.12 296.026 143.856C288.09 148.464 279.13 150.768 269.146 150.768ZM269.146 133.488C275.674 133.488 281.498 131.952 286.618 128.88C291.738 125.68 295.77 121.328 298.714 115.824C301.658 110.32 303.13 104.176 303.13 97.392C303.13 90.48 301.658 84.336 298.714 78.96C295.77 73.584 291.738 69.36 286.618 66.288C281.498 63.088 275.674 61.488 269.146 61.488C262.746 61.488 256.922 63.088 251.674 66.288C246.554 69.36 242.458 73.584 239.386 78.96C236.442 84.336 234.97 90.48 234.97 97.392C234.97 104.176 236.442 110.32 239.386 115.824C242.458 121.328 246.554 125.68 251.674 128.88C256.922 131.952 262.746 133.488 269.146 133.488ZM405.874 150.768C395.25 150.768 385.778 148.528 377.458 144.048C369.266 139.44 362.802 133.168 358.066 125.232C353.458 117.168 351.154 107.952 351.154 97.584C351.154 87.088 353.33 77.872 357.682 69.936C362.162 61.872 368.306 55.6 376.114 51.12C383.922 46.512 392.882 44.208 402.994 44.208C412.978 44.208 421.554 46.448 428.722 50.928C435.89 55.28 441.33 61.36 445.042 69.168C448.882 76.848 450.802 85.744 450.802 95.856C450.802 98.288 449.97 100.336 448.306 102C446.642 103.536 444.53 104.304 441.97 104.304H364.594V88.944H441.394L433.522 94.32C433.394 87.92 432.114 82.224 429.682 77.232C427.25 72.112 423.794 68.08 419.314 65.136C414.834 62.192 409.394 60.72 402.994 60.72C395.698 60.72 389.426 62.32 384.178 65.52C379.058 68.72 375.154 73.136 372.466 78.768C369.778 84.272 368.434 90.544 368.434 97.584C368.434 104.624 370.034 110.896 373.234 116.4C376.434 121.904 380.85 126.256 386.482 129.456C392.114 132.656 398.578 134.256 405.874 134.256C409.842 134.256 413.874 133.552 417.97 132.144C422.194 130.608 425.586 128.88 428.146 126.96C430.066 125.552 432.114 124.848 434.29 124.848C436.594 124.72 438.578 125.36 440.242 126.768C442.418 128.688 443.57 130.8 443.698 133.104C443.826 135.408 442.802 137.392 440.626 139.056C436.274 142.512 430.834 145.328 424.306 147.504C417.906 149.68 411.762 150.768 405.874 150.768ZM564.484 150.192C561.668 150.192 559.3 149.296 557.38 147.504C555.588 145.584 554.692 143.216 554.692 140.4V93.168C554.692 85.872 553.348 79.92 550.66 75.312C547.972 70.704 544.324 67.312 539.716 65.136C535.236 62.832 530.052 61.68 524.164 61.68C518.788 61.68 513.924 62.768 509.572 64.944C505.22 67.12 501.764 70.064 499.204 73.776C496.644 77.36 495.364 81.52 495.364 86.256H483.268C483.268 78.192 485.188 71.024 489.028 64.752C492.996 58.352 498.372 53.296 505.156 49.584C511.94 45.872 519.556 44.016 528.004 44.016C536.836 44.016 544.708 45.936 551.62 49.776C558.66 53.488 564.164 58.992 568.132 66.288C572.228 73.584 574.276 82.544 574.276 93.168V140.4C574.276 143.216 573.316 145.584 571.396 147.504C569.604 149.296 567.3 150.192 564.484 150.192ZM485.572 150.192C482.756 150.192 480.388 149.296 478.468 147.504C476.676 145.584 475.78 143.216 475.78 140.4V54.768C475.78 51.824 476.676 49.456 478.468 47.664C480.388 45.872 482.756 44.976 485.572 44.976C488.516 44.976 490.884 45.872 492.676 47.664C494.468 49.456 495.364 51.824 495.364 54.768V140.4C495.364 143.216 494.468 145.584 492.676 147.504C490.884 149.296 488.516 150.192 485.572 150.192ZM654.271 150.768C644.031 150.768 634.879 148.464 626.815 143.856C618.879 139.12 612.607 132.784 607.999 124.848C603.519 116.784 601.279 107.696 601.279 97.584C601.279 87.216 603.519 78 607.999 69.936C612.479 61.872 618.623 55.6 626.431 51.12C634.239 46.512 643.199 44.208 653.311 44.208C660.863 44.208 667.775 45.68 674.047 48.624C680.319 51.44 685.951 55.728 690.943 61.488C692.735 63.536 693.375 65.648 692.863 67.824C692.351 70 690.943 71.92 688.639 73.584C686.847 74.864 684.863 75.312 682.687 74.928C680.511 74.416 678.527 73.264 676.735 71.472C670.463 64.816 662.655 61.488 653.311 61.488C646.783 61.488 641.023 63.024 636.031 66.096C631.039 69.04 627.135 73.2 624.319 78.576C621.503 83.952 620.095 90.288 620.095 97.584C620.095 104.496 621.503 110.64 624.319 116.016C627.263 121.392 631.295 125.68 636.415 128.88C641.535 131.952 647.487 133.488 654.271 133.488C658.751 133.488 662.655 132.976 665.983 131.952C669.439 130.8 672.575 129.072 675.391 126.768C677.439 125.104 679.551 124.208 681.727 124.08C683.903 123.824 685.823 124.4 687.487 125.808C689.663 127.6 690.879 129.648 691.135 131.952C691.391 134.128 690.623 136.112 688.831 137.904C679.615 146.48 668.095 150.768 654.271 150.768ZM740.784 196.08C739.504 196.08 737.968 195.696 736.176 194.928C730.544 192.368 729.008 188.336 731.568 182.832L790.128 50.544C792.688 45.168 796.72 43.632 802.224 45.936C807.984 48.368 809.584 52.4 807.024 58.032L748.272 190.128C746.736 194.096 744.24 196.08 740.784 196.08ZM763.44 145.776C761.008 146.8 758.704 146.928 756.528 146.16C754.48 145.264 752.816 143.6 751.536 141.168L707.568 57.648C706.288 55.216 706.096 52.912 706.992 50.736C708.016 48.432 709.744 46.768 712.176 45.744C714.608 44.72 716.912 44.656 719.088 45.552C721.264 46.32 722.928 47.92 724.08 50.352L766.128 133.872C767.408 136.304 767.856 138.672 767.472 140.976C767.216 143.152 765.872 144.752 763.44 145.776ZM831.036 153.072C827.452 153.072 824.316 151.792 821.628 149.232C819.068 146.544 817.788 143.408 817.788 139.824C817.788 136.112 819.068 132.976 821.628 130.416C824.316 127.728 827.452 126.384 831.036 126.384C834.748 126.384 837.884 127.728 840.444 130.416C843.004 132.976 844.284 136.112 844.284 139.824C844.284 143.408 843.004 146.544 840.444 149.232C837.884 151.792 834.748 153.072 831.036 153.072ZM882.93 150C880.114 150 877.746 149.104 875.826 147.312C874.034 145.392 873.138 143.024 873.138 140.208V54.768C873.138 51.824 874.034 49.456 875.826 47.664C877.746 45.872 880.114 44.976 882.93 44.976C885.874 44.976 888.242 45.872 890.034 47.664C891.826 49.456 892.722 51.824 892.722 54.768V140.208C892.722 143.024 891.826 145.392 890.034 147.312C888.242 149.104 885.874 150 882.93 150ZM882.93 27.888C879.474 27.888 876.466 26.672 873.906 24.24C871.474 21.68 870.258 18.672 870.258 15.216C870.258 11.76 871.474 8.81599 873.906 6.384C876.466 3.824 879.474 2.544 882.93 2.544C886.386 2.544 889.33 3.824 891.762 6.384C894.322 8.81599 895.602 11.76 895.602 15.216C895.602 18.672 894.322 21.68 891.762 24.24C889.33 26.672 886.386 27.888 882.93 27.888ZM976.771 150.768C966.403 150.768 957.251 148.528 949.315 144.048C941.379 139.44 935.107 133.168 930.499 125.232C926.019 117.168 923.779 107.952 923.779 97.584C923.779 87.088 926.019 77.872 930.499 69.936C935.107 61.872 941.379 55.6 949.315 51.12C957.251 46.512 966.403 44.208 976.771 44.208C987.011 44.208 996.099 46.512 1004.04 51.12C1011.97 55.6 1018.18 61.872 1022.66 69.936C1027.27 77.872 1029.57 87.088 1029.57 97.584C1029.57 107.952 1027.33 117.168 1022.85 125.232C1018.37 133.168 1012.16 139.44 1004.23 144.048C996.291 148.528 987.139 150.768 976.771 150.768ZM976.771 133.488C983.427 133.488 989.315 131.952 994.435 128.88C999.555 125.808 1003.52 121.584 1006.34 116.208C1009.28 110.832 1010.76 104.624 1010.76 97.584C1010.76 90.544 1009.28 84.336 1006.34 78.96C1003.52 73.456 999.555 69.168 994.435 66.096C989.315 63.024 983.427 61.488 976.771 61.488C970.115 61.488 964.227 63.024 959.107 66.096C953.987 69.168 949.955 73.456 947.011 78.96C944.067 84.336 942.595 90.544 942.595 97.584C942.595 104.624 944.067 110.832 947.011 116.208C949.955 121.584 953.987 125.808 959.107 128.88C964.227 131.952 970.115 133.488 976.771 133.488Z" fill="#B7B7B7"/>
<path d="M24.904 143.856L22.7527 147.228L22.7736 147.242L22.7945 147.255L24.904 143.856ZM7.24 124.848L3.69668 126.704L3.71439 126.738L3.73275 126.771L7.24 124.848ZM7.816 70.32L4.36686 68.2943L4.35482 68.3148L4.34303 68.3354L7.816 70.32ZM26.824 51.312L28.8325 54.7712L28.8411 54.7662L28.8497 54.7611L26.824 51.312ZM80.776 51.312L78.7262 54.7469L78.7467 54.7591L78.7675 54.7712L80.776 51.312ZM99.592 70.32L96.119 72.3046L96.1308 72.3252L96.1429 72.3457L99.592 70.32ZM106.696 97.584V101.584H110.696V97.584H106.696ZM99.208 97.584V93.584H95.208V97.584H99.208ZM92.68 124.848L89.1599 122.948L89.1544 122.958L89.149 122.969L92.68 124.848ZM75.208 143.856L77.3175 147.255L77.3384 147.242L77.3593 147.228L75.208 143.856ZM71.368 128.88L73.426 132.31L73.4572 132.291L73.488 132.272L71.368 128.88ZM83.464 116.016L86.9724 117.937L86.9818 117.92L86.9911 117.903L83.464 116.016ZM83.464 79.152L79.9369 81.0386L79.9462 81.056L79.9556 81.0733L83.464 79.152ZM71.368 66.288L69.248 69.68L69.2788 69.6993L69.31 69.718L71.368 66.288ZM36.424 66.288L38.482 69.718L38.4942 69.7106L38.5064 69.7032L36.424 66.288ZM24.136 79.152L20.6432 77.2025L20.6354 77.2166L20.6276 77.2307L24.136 79.152ZM24.136 116.016L20.6089 117.903L20.6353 117.952L20.663 118.001L24.136 116.016ZM36.424 128.88L34.304 132.272L34.3532 132.303L34.4033 132.332L36.424 128.88ZM89.8 147.504L86.8758 150.233L86.9699 150.334L87.0707 150.428L89.8 147.504ZM87.112 111.024L83.1748 110.318L83.112 110.668V111.024H87.112ZM90.76 90.672L92.3517 87.0023L87.7145 84.991L86.8228 89.9663L90.76 90.672ZM106.696 97.584H110.696V94.9589L108.288 93.9143L106.696 97.584ZM103.816 147.504L106.644 150.332L106.644 150.332L103.816 147.504ZM50.056 146.768C41.4036 146.768 33.7598 144.645 27.0135 140.457L22.7945 147.255C30.8962 152.283 40.0204 154.768 50.056 154.768V146.768ZM27.0553 140.484C20.214 136.119 14.7855 130.289 10.7473 122.925L3.73275 126.771C8.3985 135.279 14.746 142.121 22.7527 147.228L27.0553 140.484ZM10.7833 122.992C6.89135 115.562 4.904 107.122 4.904 97.584H-3.096C-3.096 108.27 -0.859351 118.006 3.69668 126.704L10.7833 122.992ZM4.904 97.584C4.904 88.1045 7.05657 79.7113 11.289 72.3046L4.34303 68.3354C-0.640572 77.0567 -3.096 86.8395 -3.096 97.584H4.904ZM11.2651 72.3457C15.6593 64.8637 21.5039 59.0265 28.8325 54.7712L24.8155 47.8528C16.2721 52.8135 9.44468 59.6483 4.36686 68.2943L11.2651 72.3457ZM28.8497 54.7611C36.2579 50.4103 44.5743 48.208 53.896 48.208V40.208C43.2497 40.208 33.5181 42.7417 24.7983 47.8629L28.8497 54.7611ZM53.896 48.208C63.2183 48.208 71.4595 50.4103 78.7262 54.7469L82.8258 47.8771C74.2205 42.7417 64.5417 40.208 53.896 40.208V48.208ZM78.7675 54.7712C86.0862 59.0208 91.8563 64.8448 96.119 72.3046L103.065 68.3354C98.1117 59.6672 91.3378 52.8192 82.7845 47.8528L78.7675 54.7712ZM96.1429 72.3457C100.489 79.7459 102.696 88.1244 102.696 97.584H110.696C110.696 86.8196 108.167 77.0221 103.041 68.2943L96.1429 72.3457ZM106.696 93.584H99.208V101.584H106.696V93.584ZM95.208 97.584C95.208 107.103 93.1652 115.527 89.1599 122.948L96.2001 126.748C100.899 118.041 103.208 108.289 103.208 97.584H95.208ZM89.149 122.969C85.2416 130.31 79.8874 136.126 73.0567 140.484L77.3593 147.228C85.3766 142.114 91.6704 135.258 96.211 126.727L89.149 122.969ZM73.0986 140.457C66.3522 144.645 58.7084 146.768 50.056 146.768V154.768C60.0916 154.768 69.2158 152.283 77.3175 147.255L73.0986 140.457ZM53.896 137.488C61.0791 137.488 67.627 135.789 73.426 132.31L69.31 125.45C64.869 128.115 59.7689 129.488 53.896 129.488V137.488ZM73.488 132.272C79.1983 128.703 83.7044 123.905 86.9724 117.937L79.9556 114.095C77.3356 118.879 73.7777 122.657 69.248 125.488L73.488 132.272ZM86.9911 117.903C90.2721 111.769 91.88 104.968 91.88 97.584H83.88C83.88 103.768 82.5439 109.255 79.9369 114.129L86.9911 117.903ZM91.88 97.584C91.88 90.0875 90.2783 83.2677 86.9724 77.2307L79.9556 81.0733C82.5377 85.7883 83.88 91.2565 83.88 97.584H91.88ZM86.9911 77.2654C83.7222 71.1538 79.195 66.3194 73.426 62.858L69.31 69.718C73.781 72.4006 77.3178 76.1422 79.9369 81.0386L86.9911 77.2654ZM73.488 62.896C67.6807 59.2664 61.1104 57.488 53.896 57.488V65.488C59.7376 65.488 64.8154 66.9096 69.248 69.68L73.488 62.896ZM53.896 57.488C46.7931 57.488 40.2434 59.2741 34.3416 62.8728L38.5064 69.7032C43.1006 66.9018 48.199 65.488 53.896 65.488V57.488ZM34.366 62.858C28.6129 66.3099 24.0362 71.1234 20.6432 77.2025L27.6288 81.1015C30.3798 76.1726 33.9951 72.4101 38.482 69.718L34.366 62.858ZM20.6276 77.2307C17.3217 83.2677 15.72 90.0875 15.72 97.584H23.72C23.72 91.2565 25.0623 85.7883 27.6444 81.0733L20.6276 77.2307ZM15.72 97.584C15.72 104.968 17.3279 111.769 20.6089 117.903L27.6631 114.129C25.0561 109.255 23.72 103.768 23.72 97.584H15.72ZM20.663 118.001C24.0542 123.935 28.609 128.713 34.304 132.272L38.544 125.488C33.999 122.647 30.3619 118.849 27.609 114.031L20.663 118.001ZM34.4033 132.332C40.2969 135.782 46.8245 137.488 53.896 137.488V129.488C48.1675 129.488 43.0471 128.122 38.4447 125.428L34.4033 132.332ZM96.904 146.192C95.0211 146.192 93.652 145.628 92.5293 144.58L87.0707 150.428C89.788 152.964 93.1549 154.192 96.904 154.192V146.192ZM92.7242 144.775C91.6763 143.652 91.112 142.283 91.112 140.4H83.112C83.112 144.149 84.3397 147.516 86.8758 150.233L92.7242 144.775ZM91.112 140.4V111.024H83.112V140.4H91.112ZM91.0493 111.73L94.6973 91.3777L86.8228 89.9663L83.1748 110.318L91.0493 111.73ZM89.1683 94.3417L105.104 101.254L108.288 93.9143L92.3517 87.0023L89.1683 94.3417ZM102.696 97.584V140.4H110.696V97.584H102.696ZM102.696 140.4C102.696 142.199 102.127 143.536 100.988 144.676L106.644 150.332C109.345 147.632 110.696 144.233 110.696 140.4H102.696ZM100.988 144.676C100.032 145.631 98.7883 146.192 96.904 146.192V154.192C100.652 154.192 104.016 152.961 106.644 150.332L100.988 144.676ZM145.251 84.336H141.251V88.336H145.251V84.336ZM150.819 63.792L147.427 61.672L147.42 61.6818L147.414 61.6916L150.819 63.792ZM166.179 49.2L164.224 45.71L164.224 45.71L166.179 49.2ZM204.387 47.664L202.116 50.9568L202.18 51.0013L202.246 51.0433L204.387 47.664ZM208.803 56.496L204.931 55.4921L204.909 55.5746L204.891 55.6579L208.803 56.496ZM206.499 60.72L209.133 63.7303L209.144 63.72L209.156 63.7096L206.499 60.72ZM202.851 62.448L202.135 58.5125L202.135 58.5125L202.851 62.448ZM198.243 62.256L199.142 58.3584L199.09 58.3466L199.039 58.336L198.243 62.256ZM160.611 69.744L157.782 66.9156L157.758 66.9395L157.735 66.9639L160.611 69.744ZM155.043 84.336V88.336H159.043V84.336H155.043ZM138.339 147.696L135.51 150.524L135.567 150.581L135.625 150.635L138.339 147.696ZM138.339 47.472L141.167 50.3004L141.167 50.3004L138.339 47.472ZM152.547 47.472L149.607 50.1851L149.716 50.3027L149.833 50.4112L152.547 47.472ZM152.547 147.504L149.718 144.676L149.662 144.732L149.607 144.791L152.547 147.504ZM149.251 84.336C149.251 77.3314 150.934 71.2228 154.223 65.8924L147.414 61.6916C143.279 68.3932 141.251 75.9806 141.251 84.336H149.251ZM154.21 65.912C157.689 60.3456 162.312 55.9497 168.133 52.69L164.224 45.71C157.245 49.6183 151.628 54.9504 147.427 61.672L154.21 65.912ZM168.133 52.69C173.907 49.4564 180.269 47.824 187.299 47.824V39.824C178.968 39.824 171.25 41.7756 164.224 45.71L168.133 52.69ZM187.299 47.824C194.677 47.824 199.394 49.0802 202.116 50.9568L206.657 44.3711C201.955 41.1278 195.28 39.824 187.299 39.824V47.824ZM202.246 51.0433C203.776 52.012 204.484 52.8664 204.793 53.4849C205.058 54.0161 205.158 54.6144 204.931 55.4921L212.674 57.4998C213.343 54.9216 213.155 52.3199 211.948 49.9071C210.785 47.5816 208.837 45.748 206.527 44.2847L202.246 51.0433ZM204.891 55.6579C204.651 56.7794 204.243 57.3727 203.841 57.7304L209.156 63.7096C211.058 62.0193 212.186 59.7966 212.714 57.3341L204.891 55.6579ZM203.864 57.7097C203.413 58.1045 202.87 58.3789 202.135 58.5125L203.566 66.3835C205.647 66.0051 207.536 65.1275 209.133 63.7303L203.864 57.7097ZM202.135 58.5125C201.355 58.6543 200.376 58.6433 199.142 58.3584L197.343 66.1536C199.437 66.6367 201.53 66.7537 203.566 66.3835L202.135 58.5125ZM199.039 58.336C190.437 56.5889 182.505 56.4121 175.319 57.9619L177.006 65.7821C182.876 64.5159 189.664 64.5951 197.446 66.1759L199.039 58.336ZM175.319 57.9619C168.213 59.4947 162.279 62.4185 157.782 66.9156L163.439 72.5724C166.622 69.3895 171.056 67.0653 177.006 65.7821L175.319 57.9619ZM157.735 66.9639C153.225 71.6293 151.043 77.5267 151.043 84.336H159.043C159.043 79.3693 160.572 75.5387 163.486 72.5241L157.735 66.9639ZM155.043 80.336H145.251V88.336H155.043V80.336ZM145.443 146C143.012 146 141.747 145.399 141.052 144.757L135.625 150.635C138.258 153.065 141.729 154 145.443 154V146ZM141.167 144.868C140.491 144.191 139.843 142.931 139.843 140.4H131.843C131.843 144.269 132.858 147.873 135.51 150.524L141.167 144.868ZM139.843 140.4V54.576H131.843V140.4H139.843ZM139.843 54.576C139.843 52.2276 140.462 51.0054 141.167 50.3004L135.51 44.6436C132.887 47.2666 131.843 50.7804 131.843 54.576H139.843ZM141.167 50.3004C141.872 49.5954 143.094 48.976 145.443 48.976V40.976C141.647 40.976 138.133 42.0206 135.51 44.6436L141.167 50.3004ZM145.443 48.976C147.998 48.976 149.098 49.6339 149.607 50.1851L155.486 44.7589C152.923 41.9821 149.287 40.976 145.443 40.976V48.976ZM149.833 50.4112C150.385 50.9201 151.043 52.02 151.043 54.576H159.043C159.043 50.7319 158.036 47.0959 155.26 44.5328L149.833 50.4112ZM151.043 54.576V140.4H159.043V54.576H151.043ZM151.043 140.4C151.043 142.748 150.423 143.971 149.718 144.676L155.375 150.332C157.998 147.709 159.043 144.196 159.043 140.4H151.043ZM149.607 144.791C149.098 145.342 147.998 146 145.443 146V154C149.287 154 152.923 152.994 155.486 150.217L149.607 144.791ZM242.074 143.856L240.024 147.291L240.057 147.31L240.089 147.329L242.074 143.856ZM223.066 124.656L219.593 126.641L219.605 126.661L219.617 126.682L223.066 124.656ZM222.49 70.32L218.97 68.4203L218.964 68.4304L218.959 68.4406L222.49 70.32ZM240.154 51.312L242.263 54.7106L242.284 54.6975L242.305 54.6842L240.154 51.312ZM286.234 49.008L284.445 52.5857L284.474 52.6001L284.503 52.6141L286.234 49.008ZM302.362 61.68L299.253 64.1968L306.362 72.9785V61.68H302.362ZM305.05 2.736L302.321 -0.188224L302.27 -0.141182L302.222 -0.0924309L305.05 2.736ZM314.842 124.656L311.393 122.63L311.381 122.651L311.369 122.671L314.842 124.656ZM296.026 143.856L298.035 147.315L298.055 147.303L298.076 147.291L296.026 143.856ZM286.618 128.88L288.676 132.31L288.707 132.291L288.738 132.272L286.618 128.88ZM298.714 115.824L295.187 113.937L295.187 113.937L298.714 115.824ZM298.714 78.96L295.206 80.8813L295.206 80.8813L298.714 78.96ZM286.618 66.288L284.498 69.68L284.529 69.6993L284.56 69.718L286.618 66.288ZM251.674 66.288L253.732 69.718L253.744 69.7106L253.756 69.7032L251.674 66.288ZM239.386 78.96L235.913 76.9754L235.895 77.0069L235.878 77.0387L239.386 78.96ZM239.386 115.824L235.859 117.711L235.876 117.742L235.893 117.773L239.386 115.824ZM251.674 128.88L249.554 132.272L249.603 132.303L249.653 132.332L251.674 128.88ZM269.146 146.768C259.804 146.768 251.473 144.62 244.059 140.383L240.089 147.329C248.803 152.308 258.52 154.768 269.146 154.768V146.768ZM244.124 140.421C236.772 136.034 230.915 130.122 226.515 122.63L219.617 126.682C224.689 135.318 231.504 142.206 240.024 147.291L244.124 140.421ZM226.539 122.671C222.307 115.265 220.154 106.871 220.154 97.392H212.154C212.154 108.137 214.609 117.919 219.593 126.641L226.539 122.671ZM220.154 97.392C220.154 87.8525 222.142 79.4878 226.021 72.1994L218.959 68.4406C214.39 77.0242 212.154 86.7075 212.154 97.392H220.154ZM226.01 72.2197C230.047 64.7387 235.462 58.9323 242.263 54.7106L238.045 47.9134C229.998 52.9076 223.637 59.7733 218.97 68.4203L226.01 72.2197ZM242.305 54.6842C249.047 50.3837 256.675 48.208 265.306 48.208V40.208C255.249 40.208 246.109 42.7683 238.003 47.9398L242.305 54.6842ZM265.306 48.208C272.272 48.208 278.631 49.6788 284.445 52.5857L288.023 45.4303C281.037 41.9372 273.444 40.208 265.306 40.208V48.208ZM284.503 52.6141C290.383 55.4366 295.284 59.2939 299.253 64.1968L305.471 59.1632C300.736 53.3141 294.885 48.7234 287.965 45.4019L284.503 52.6141ZM306.362 61.68V9.84H298.362V61.68H306.362ZM306.362 9.84C306.362 7.77143 306.958 6.48461 307.878 5.56442L302.222 -0.0924309C299.558 2.57139 298.362 6.02057 298.362 9.84H306.362ZM307.779 5.66022C308.902 4.61231 310.271 4.048 312.154 4.048V-3.952C308.405 -3.952 305.038 -2.72432 302.321 -0.188224L307.779 5.66022ZM312.154 4.048C314.223 4.048 315.509 4.64424 316.43 5.56442L322.086 -0.0924309C319.423 -2.75625 315.973 -3.952 312.154 -3.952V4.048ZM316.43 5.56442C317.35 6.48461 317.946 7.77143 317.946 9.84H325.946C325.946 6.02057 324.75 2.57139 322.086 -0.0924309L316.43 5.56442ZM317.946 9.84V97.392H325.946V9.84H317.946ZM317.946 97.392C317.946 106.852 315.739 115.23 311.393 122.63L318.291 126.682C323.417 117.954 325.946 108.156 325.946 97.392H317.946ZM311.369 122.671C307.101 130.141 301.318 136.04 293.976 140.421L298.076 147.291C306.606 142.2 313.367 135.299 318.315 126.641L311.369 122.671ZM294.017 140.397C286.745 144.62 278.488 146.768 269.146 146.768V154.768C279.772 154.768 289.435 152.308 298.035 147.315L294.017 140.397ZM269.146 137.488C276.329 137.488 282.877 135.789 288.676 132.31L284.56 125.45C280.119 128.115 275.019 129.488 269.146 129.488V137.488ZM288.738 132.272C294.471 128.689 298.979 123.809 302.241 117.711L295.187 113.937C292.561 118.847 289.005 122.671 284.498 125.488L288.738 132.272ZM302.241 117.711C305.522 111.577 307.13 104.776 307.13 97.392H299.13C299.13 103.576 297.794 109.063 295.187 113.937L302.241 117.711ZM307.13 97.392C307.13 89.8955 305.528 83.0757 302.222 77.0387L295.206 80.8813C297.788 85.5963 299.13 91.0645 299.13 97.392H307.13ZM302.222 77.0387C298.947 71.0573 294.421 66.3053 288.676 62.858L284.56 69.718C289.055 72.4147 292.593 76.1107 295.206 80.8813L302.222 77.0387ZM288.738 62.896C282.931 59.2664 276.36 57.488 269.146 57.488V65.488C274.988 65.488 280.065 66.9096 284.498 69.68L288.738 62.896ZM269.146 57.488C262.043 57.488 255.493 59.2741 249.592 62.8728L253.756 69.7032C258.351 66.9018 263.449 65.488 269.146 65.488V57.488ZM249.616 62.858C243.886 66.296 239.312 71.0273 235.913 76.9754L242.859 80.9446C245.604 76.1407 249.222 72.424 253.732 69.718L249.616 62.858ZM235.878 77.0387C232.572 83.0757 230.97 89.8955 230.97 97.392H238.97C238.97 91.0645 240.312 85.5963 242.894 80.8813L235.878 77.0387ZM230.97 97.392C230.97 104.776 232.578 111.577 235.859 117.711L242.913 113.937C240.306 109.063 238.97 103.576 238.97 97.392H230.97ZM235.893 117.773C239.279 123.839 243.837 128.699 249.554 132.272L253.794 125.488C249.271 122.661 245.637 118.817 242.879 113.875L235.893 117.773ZM249.653 132.332C255.547 135.782 262.075 137.488 269.146 137.488V129.488C263.417 129.488 258.297 128.122 253.695 125.428L249.653 132.332ZM377.458 144.048L375.497 147.534L375.529 147.552L375.562 147.57L377.458 144.048ZM358.066 125.232L354.593 127.217L354.612 127.249L354.631 127.282L358.066 125.232ZM357.682 69.936L354.185 67.9934L354.18 68.003L354.175 68.0127L357.682 69.936ZM376.114 51.12L378.105 54.5895L378.126 54.5773L378.147 54.5648L376.114 51.12ZM428.722 50.928L426.602 54.32L426.624 54.3337L426.646 54.3471L428.722 50.928ZM445.042 69.168L441.429 70.8854L441.447 70.9213L441.464 70.9568L445.042 69.168ZM448.306 102L451.019 104.939L451.078 104.885L451.134 104.828L448.306 102ZM364.594 104.304H360.594V108.304H364.594V104.304ZM364.594 88.944V84.944H360.594V88.944H364.594ZM441.394 88.944L443.65 92.2472L454.344 84.944H441.394V88.944ZM433.522 94.32L429.523 94.4L429.671 101.794L435.778 97.6232L433.522 94.32ZM429.682 77.232L426.069 78.9482L426.077 78.9661L426.086 78.9839L429.682 77.232ZM384.178 65.52L382.096 62.1048L382.077 62.1163L382.058 62.128L384.178 65.52ZM372.466 78.768L376.06 80.5233L376.068 80.5072L376.076 80.4909L372.466 78.768ZM373.234 116.4L369.776 118.41L369.776 118.41L373.234 116.4ZM386.482 129.456L388.458 125.978L388.458 125.978L386.482 129.456ZM417.97 132.144L419.27 135.927L419.304 135.915L419.337 135.903L417.97 132.144ZM428.146 126.96L425.781 123.734L425.763 123.747L425.746 123.76L428.146 126.96ZM434.29 124.848V128.848H434.401L434.512 128.842L434.29 124.848ZM440.242 126.768L442.888 123.769L442.857 123.741L442.826 123.714L440.242 126.768ZM443.698 133.104L447.692 132.882L443.698 133.104ZM440.626 139.056L438.196 135.879L438.167 135.901L438.138 135.924L440.626 139.056ZM424.306 147.504L423.041 143.709L423.03 143.713L423.018 143.717L424.306 147.504ZM405.874 146.768C395.828 146.768 387.022 144.655 379.354 140.526L375.562 147.57C384.534 152.401 394.672 154.768 405.874 154.768V146.768ZM379.419 140.562C371.824 136.29 365.873 130.508 361.501 123.182L354.631 127.282C359.731 135.828 366.708 142.59 375.497 147.534L379.419 140.562ZM361.539 123.247C357.315 115.856 355.154 107.339 355.154 97.584H347.154C347.154 108.565 349.601 118.48 354.593 127.217L361.539 123.247ZM355.154 97.584C355.154 87.6522 357.209 79.1178 361.189 71.8593L354.175 68.0127C349.451 76.6262 347.154 86.5238 347.154 97.584H355.154ZM361.179 71.8786C365.314 64.4346 370.945 58.6977 378.105 54.5895L374.123 47.6505C365.667 52.5022 359.01 59.3094 354.185 67.9934L361.179 71.8786ZM378.147 54.5648C385.27 50.361 393.513 48.208 402.994 48.208V40.208C392.251 40.208 382.574 42.663 374.081 47.6752L378.147 54.5648ZM402.994 48.208C412.366 48.208 420.177 50.3044 426.602 54.32L430.842 47.536C422.931 42.5916 413.59 40.208 402.994 40.208V48.208ZM426.646 54.3471C433.125 58.2809 438.042 63.7593 441.429 70.8854L448.655 67.4506C444.618 58.9606 438.655 52.2791 430.798 47.5088L426.646 54.3471ZM441.464 70.9568C444.981 77.9909 446.802 86.2552 446.802 95.856H454.802C454.802 85.2328 452.783 75.7051 448.62 67.3791L441.464 70.9568ZM446.802 95.856C446.802 97.2668 446.364 98.2853 445.478 99.1716L451.134 104.828C453.576 102.387 454.802 99.3092 454.802 95.856H446.802ZM445.593 99.0608C444.765 99.8246 443.666 100.304 441.97 100.304V108.304C445.394 108.304 448.519 107.247 451.019 104.939L445.593 99.0608ZM441.97 100.304H364.594V108.304H441.97V100.304ZM368.594 104.304V88.944H360.594V104.304H368.594ZM364.594 92.944H441.394V84.944H364.594V92.944ZM439.138 85.6408L431.266 91.0168L435.778 97.6232L443.65 92.2472L439.138 85.6408ZM437.521 94.24C437.383 87.3484 436 81.0676 433.278 75.4801L426.086 78.9839C428.228 83.3804 429.405 88.4916 429.523 94.4L437.521 94.24ZM433.295 75.5158C430.568 69.7737 426.639 65.1629 421.511 61.7932L417.117 68.4788C420.95 70.9971 423.932 74.4503 426.069 78.9482L433.295 75.5158ZM421.511 61.7932C416.261 58.3432 410.021 56.72 402.994 56.72V64.72C408.767 64.72 413.407 66.0408 417.117 68.4788L421.511 61.7932ZM402.994 56.72C395.102 56.72 388.08 58.4561 382.096 62.1048L386.26 68.9352C390.772 66.1839 396.294 64.72 402.994 64.72V56.72ZM382.058 62.128C376.27 65.7454 371.86 70.7506 368.856 77.0451L376.076 80.4909C378.448 75.5213 381.846 71.6946 386.298 68.912L382.058 62.128ZM368.872 77.0127C365.88 83.1395 364.434 90.0266 364.434 97.584H372.434C372.434 91.0614 373.676 85.4045 376.06 80.5233L368.872 77.0127ZM364.434 97.584C364.434 105.254 366.184 112.233 369.776 118.41L376.692 114.39C373.884 109.559 372.434 103.994 372.434 97.584H364.434ZM369.776 118.41C373.338 124.537 378.27 129.391 384.506 132.934L388.458 125.978C383.43 123.121 379.53 119.271 376.692 114.39L369.776 118.41ZM384.506 132.934C390.813 136.518 397.974 138.256 405.874 138.256V130.256C399.182 130.256 393.415 128.794 388.458 125.978L384.506 132.934ZM405.874 138.256C410.323 138.256 414.794 137.465 419.27 135.927L416.67 128.361C412.954 129.639 409.361 130.256 405.874 130.256V138.256ZM419.337 135.903C423.794 134.283 427.572 132.39 430.546 130.16L425.746 123.76C423.6 125.37 420.594 126.933 416.603 128.385L419.337 135.903ZM430.511 130.186C431.814 129.231 433.046 128.848 434.29 128.848V120.848C431.182 120.848 428.318 121.873 425.781 123.734L430.511 130.186ZM434.512 128.842C435.861 128.767 436.824 129.116 437.658 129.822L442.826 123.714C440.332 121.604 437.327 120.673 434.068 120.854L434.512 128.842ZM437.596 129.767C439.187 131.172 439.65 132.35 439.704 133.326L447.692 132.882C447.49 129.25 445.649 126.204 442.888 123.769L437.596 129.767ZM439.704 133.326C439.744 134.047 439.546 134.846 438.196 135.879L443.056 142.233C446.058 139.938 447.908 136.769 447.692 132.882L439.704 133.326ZM438.138 135.924C434.228 139.029 429.228 141.647 423.041 143.709L425.571 151.299C432.44 149.009 438.32 145.995 443.114 142.188L438.138 135.924ZM423.018 143.717C416.973 145.772 411.265 146.768 405.874 146.768V154.768C412.259 154.768 418.839 153.588 425.594 151.291L423.018 143.717ZM557.38 147.504L554.456 150.233L554.55 150.334L554.651 150.428L557.38 147.504ZM550.66 75.312L547.205 77.3275L547.205 77.3275L550.66 75.312ZM539.716 65.136L537.887 68.6931L537.947 68.7241L538.008 68.753L539.716 65.136ZM509.572 64.944L507.783 61.3663L507.783 61.3663L509.572 64.944ZM499.204 73.776L502.459 76.101L502.478 76.0741L502.497 76.0469L499.204 73.776ZM495.364 86.256V90.256H499.364V86.256H495.364ZM483.268 86.256H479.268V90.256H483.268V86.256ZM489.028 64.752L485.628 62.6442L485.622 62.6538L485.617 62.6634L489.028 64.752ZM505.156 49.584L507.076 53.093L507.076 53.093L505.156 49.584ZM551.62 49.776L549.677 53.2726L549.716 53.2939L549.754 53.3143L551.62 49.776ZM568.132 66.288L564.618 68.1991L564.631 68.2227L564.644 68.2461L568.132 66.288ZM571.396 147.504L568.568 144.676L568.568 144.676L571.396 147.504ZM478.468 147.504L475.544 150.233L475.638 150.334L475.739 150.428L478.468 147.504ZM478.468 47.664L475.739 44.7398L475.688 44.7868L475.64 44.8356L478.468 47.664ZM492.676 147.504L495.504 150.332L495.553 150.284L495.6 150.233L492.676 147.504ZM564.484 146.192C562.601 146.192 561.232 145.628 560.109 144.58L554.651 150.428C557.368 152.964 560.735 154.192 564.484 154.192V146.192ZM560.304 144.775C559.256 143.652 558.692 142.283 558.692 140.4H550.692C550.692 144.149 551.92 147.516 554.456 150.233L560.304 144.775ZM558.692 140.4V93.168H550.692V140.4H558.692ZM558.692 93.168C558.692 85.4135 557.268 78.7009 554.115 73.2965L547.205 77.3275C549.428 81.1391 550.692 86.3305 550.692 93.168H558.692ZM554.115 73.2965C551.04 68.0251 546.798 64.0568 541.424 61.519L538.008 68.753C541.85 70.5672 544.904 73.3829 547.205 77.3275L554.115 73.2965ZM541.545 61.5788C536.411 58.9384 530.581 57.68 524.164 57.68V65.68C529.523 65.68 534.061 66.7256 537.887 68.6931L541.545 61.5788ZM524.164 57.68C518.233 57.68 512.747 58.8845 507.783 61.3663L511.361 68.5217C515.101 66.6515 519.343 65.68 524.164 65.68V57.68ZM507.783 61.3663C502.877 63.8195 498.884 67.1941 495.911 71.5051L502.497 76.0469C504.644 72.9339 507.563 70.4205 511.361 68.5217L507.783 61.3663ZM495.949 71.451C492.867 75.7655 491.364 80.7526 491.364 86.256H499.364C499.364 82.2874 500.421 78.9545 502.459 76.101L495.949 71.451ZM495.364 82.256H483.268V90.256H495.364V82.256ZM487.268 86.256C487.268 78.8556 489.021 72.424 492.439 66.8406L485.617 62.6634C481.355 69.6239 479.268 77.5284 479.268 86.256H487.268ZM492.428 66.8598C496.022 61.0631 500.881 56.4829 507.076 53.093L503.236 46.075C495.863 50.1091 489.97 55.6409 485.628 62.6442L492.428 66.8598ZM507.076 53.093C513.218 49.7323 520.164 48.016 528.004 48.016V40.016C518.948 40.016 510.662 42.0116 503.236 46.075L507.076 53.093ZM528.004 48.016C536.237 48.016 543.427 49.8 549.677 53.2726L553.563 46.2794C545.989 42.072 537.435 40.016 528.004 40.016V48.016ZM549.754 53.3143C556.065 56.6417 561.01 61.5643 564.618 68.1991L571.646 64.3769C567.318 56.4197 561.255 50.3343 553.486 46.2377L549.754 53.3143ZM564.644 68.2461C568.325 74.8037 570.276 83.0484 570.276 93.168H578.276C578.276 82.0396 576.131 72.3643 571.62 64.3299L564.644 68.2461ZM570.276 93.168V140.4H578.276V93.168H570.276ZM570.276 140.4C570.276 142.199 569.707 143.536 568.568 144.676L574.224 150.332C576.925 147.632 578.276 144.233 578.276 140.4H570.276ZM568.568 144.676C567.612 145.631 566.368 146.192 564.484 146.192V154.192C568.232 154.192 571.596 152.961 574.224 150.332L568.568 144.676ZM485.572 146.192C483.689 146.192 482.32 145.628 481.197 144.58L475.739 150.428C478.456 152.964 481.823 154.192 485.572 154.192V146.192ZM481.392 144.775C480.344 143.652 479.78 142.283 479.78 140.4H471.78C471.78 144.149 473.008 147.516 475.544 150.233L481.392 144.775ZM479.78 140.4V54.768H471.78V140.4H479.78ZM479.78 54.768C479.78 52.6994 480.376 51.4126 481.296 50.4924L475.64 44.8356C472.976 47.4994 471.78 50.9486 471.78 54.768H479.78ZM481.197 50.5882C482.32 49.5403 483.689 48.976 485.572 48.976V40.976C481.823 40.976 478.456 42.2037 475.739 44.7398L481.197 50.5882ZM485.572 48.976C487.641 48.976 488.927 49.5722 489.848 50.4924L495.504 44.8356C492.841 42.1717 489.391 40.976 485.572 40.976V48.976ZM489.848 50.4924C490.768 51.4126 491.364 52.6994 491.364 54.768H499.364C499.364 50.9486 498.168 47.4994 495.504 44.8356L489.848 50.4924ZM491.364 54.768V140.4H499.364V54.768H491.364ZM491.364 140.4C491.364 142.283 490.8 143.652 489.752 144.775L495.6 150.233C498.136 147.516 499.364 144.149 499.364 140.4H491.364ZM489.848 144.676C488.927 145.596 487.641 146.192 485.572 146.192V154.192C489.391 154.192 492.841 152.996 495.504 150.332L489.848 144.676ZM626.815 143.856L624.765 147.291L624.798 147.31L624.83 147.329L626.815 143.856ZM607.999 124.848L604.502 126.791L604.521 126.824L604.54 126.857L607.999 124.848ZM607.999 69.936L604.502 67.9934L604.502 67.9934L607.999 69.936ZM626.431 51.12L628.422 54.5895L628.443 54.5773L628.464 54.5648L626.431 51.12ZM674.047 48.624L672.347 52.2449L672.378 52.2593L672.409 52.2731L674.047 48.624ZM690.943 61.488L687.92 64.1077L687.926 64.1149L687.933 64.122L690.943 61.488ZM692.863 67.824L688.969 66.9078L688.969 66.9078L692.863 67.824ZM688.639 73.584L690.964 76.8389L690.972 76.8328L690.981 76.8267L688.639 73.584ZM682.687 74.928L681.771 78.8217L681.881 78.8475L681.992 78.8671L682.687 74.928ZM676.735 71.472L673.824 74.2152L673.865 74.2584L673.907 74.3004L676.735 71.472ZM636.031 66.096L638.063 69.5415L638.095 69.5224L638.127 69.5026L636.031 66.096ZM624.319 78.576L627.862 80.432L627.862 80.432L624.319 78.576ZM624.319 116.016L620.776 117.872L620.793 117.905L620.811 117.937L624.319 116.016ZM636.415 128.88L634.295 132.272L634.326 132.291L634.357 132.31L636.415 128.88ZM665.983 131.952L667.159 135.775L667.204 135.761L667.248 135.747L665.983 131.952ZM675.391 126.768L672.869 123.664L672.858 123.672L675.391 126.768ZM681.727 124.08L681.962 128.073L682.078 128.066L682.194 128.053L681.727 124.08ZM687.487 125.808L684.903 128.862L684.924 128.879L684.944 128.896L687.487 125.808ZM691.135 131.952L687.159 132.394L687.161 132.407L687.162 132.419L691.135 131.952ZM688.831 137.904L691.556 140.832L691.609 140.783L691.659 140.732L688.831 137.904ZM654.271 146.768C644.654 146.768 636.199 144.611 628.8 140.383L624.83 147.329C633.559 152.317 643.408 154.768 654.271 154.768V146.768ZM628.865 140.421C621.508 136.031 615.723 130.184 611.458 122.839L604.54 126.857C609.491 135.384 616.25 142.209 624.765 147.291L628.865 140.421ZM611.496 122.905C607.377 115.492 605.279 107.083 605.279 97.584H597.279C597.279 108.309 599.661 118.076 604.502 126.791L611.496 122.905ZM605.279 97.584C605.279 87.8101 607.385 79.2777 611.496 71.8786L604.502 67.9934C599.653 76.7223 597.279 86.6219 597.279 97.584H605.279ZM611.496 71.8786C615.631 64.4346 621.262 58.6977 628.422 54.5895L624.44 47.6505C615.984 52.5022 609.327 59.3094 604.502 67.9934L611.496 71.8786ZM628.464 54.5648C635.587 50.361 643.83 48.208 653.311 48.208V40.208C642.568 40.208 632.891 42.663 624.398 47.6752L628.464 54.5648ZM653.311 48.208C660.329 48.208 666.654 49.5724 672.347 52.2449L675.747 45.0031C668.896 41.7876 661.397 40.208 653.311 40.208V48.208ZM672.409 52.2731C678.095 54.8259 683.268 58.7393 687.92 64.1077L693.966 58.8683C688.634 52.7167 682.543 48.0541 675.685 44.9749L672.409 52.2731ZM687.933 64.122C689.083 65.4368 689.12 66.2679 688.969 66.9078L696.757 68.7402C697.63 65.0281 696.387 61.6351 693.953 58.854L687.933 64.122ZM688.969 66.9078C688.732 67.9148 688.039 69.0836 686.297 70.3413L690.981 76.8267C693.848 74.7564 695.97 72.0851 696.757 68.7402L688.969 66.9078ZM686.314 70.3291C685.399 70.9824 684.504 71.1869 683.382 70.9889L681.992 78.8671C685.222 79.4371 688.295 78.7456 690.964 76.8389L686.314 70.3291ZM683.603 71.0343C682.244 70.7146 680.902 69.9817 679.563 68.6436L673.907 74.3004C676.152 76.5463 678.778 78.1174 681.771 78.8217L683.603 71.0343ZM679.646 68.7288C672.6 61.2512 663.73 57.488 653.311 57.488V65.488C661.58 65.488 668.326 68.3808 673.824 74.2152L679.646 68.7288ZM653.311 57.488C646.129 57.488 639.627 59.1864 633.935 62.6894L638.127 69.5026C642.419 66.8616 647.437 65.488 653.311 65.488V57.488ZM633.999 62.6505C628.334 65.9915 623.92 70.7163 620.776 76.72L627.862 80.432C630.35 75.6837 633.744 72.0885 638.063 69.5415L633.999 62.6505ZM620.776 76.72C617.605 82.7735 616.095 89.7713 616.095 97.584H624.095C624.095 90.8047 625.401 85.1305 627.862 80.432L620.776 76.72ZM616.095 97.584C616.095 105.052 617.62 111.848 620.776 117.872L627.862 114.16C625.386 109.432 624.095 103.94 624.095 97.584H616.095ZM620.811 117.937C624.079 123.905 628.585 128.703 634.295 132.272L638.535 125.488C634.005 122.657 630.447 118.879 627.827 114.095L620.811 117.937ZM634.357 132.31C640.18 135.804 646.863 137.488 654.271 137.488V129.488C648.111 129.488 642.89 128.1 638.473 125.45L634.357 132.31ZM654.271 137.488C659.042 137.488 663.359 136.944 667.159 135.775L664.807 128.129C661.951 129.008 658.46 129.488 654.271 129.488V137.488ZM667.248 135.747C671.165 134.441 674.731 132.476 677.924 129.864L672.858 123.672C670.419 125.668 667.713 127.159 664.718 128.157L667.248 135.747ZM677.913 129.872C679.451 128.623 680.786 128.142 681.962 128.073L681.492 120.087C678.316 120.274 675.427 121.585 672.869 123.664L677.913 129.872ZM682.194 128.053C683.276 127.925 684.09 128.173 684.903 128.862L690.071 122.754C687.556 120.627 684.53 119.723 681.26 120.107L682.194 128.053ZM684.944 128.896C686.501 130.178 687.042 131.34 687.159 132.394L695.111 131.51C694.716 127.956 692.825 125.022 690.03 122.72L684.944 128.896ZM687.162 132.419C687.252 133.18 687.082 133.996 686.003 135.076L691.659 140.732C694.164 138.228 695.53 135.076 695.108 131.485L687.162 132.419ZM686.106 134.976C677.706 142.793 667.192 146.768 654.271 146.768V154.768C668.998 154.768 681.524 150.167 691.556 140.832L686.106 134.976ZM736.176 194.928L734.52 198.569L734.56 198.587L734.6 198.605L736.176 194.928ZM731.568 182.832L735.194 184.519L735.21 184.485L735.225 184.451L731.568 182.832ZM790.128 50.544L786.516 48.8243L786.492 48.8742L786.47 48.9249L790.128 50.544ZM802.224 45.936L803.779 42.251L803.768 42.2462L802.224 45.936ZM807.024 58.032L803.382 56.3768L803.375 56.3916L803.369 56.4065L807.024 58.032ZM748.272 190.128L744.617 188.502L744.577 188.592L744.541 188.684L748.272 190.128ZM763.44 145.776L764.992 149.463L764.992 149.463L763.44 145.776ZM756.528 146.16L754.924 149.825L755.058 149.883L755.196 149.932L756.528 146.16ZM751.536 141.168L755.075 139.305L755.075 139.305L751.536 141.168ZM707.568 57.648L704.028 59.511L704.028 59.5113L707.568 57.648ZM706.992 50.736L703.336 49.1114L703.314 49.1619L703.293 49.213L706.992 50.736ZM712.176 45.744L710.623 42.0574L710.623 42.0575L712.176 45.744ZM719.088 45.552L717.565 49.2507L717.659 49.2898L717.756 49.324L719.088 45.552ZM724.08 50.352L720.465 52.0643L720.485 52.1078L720.507 52.1507L724.08 50.352ZM766.128 133.872L762.555 135.671L762.571 135.703L762.588 135.735L766.128 133.872ZM767.472 140.976L763.526 140.318L763.51 140.413L763.499 140.509L767.472 140.976ZM740.784 192.08C740.253 192.08 739.28 191.907 737.751 191.251L734.6 198.605C736.655 199.485 738.754 200.08 740.784 200.08V192.08ZM737.831 191.287C735.556 190.253 734.794 189.233 734.537 188.56C734.288 187.906 734.181 186.697 735.194 184.519L727.941 181.145C726.394 184.471 725.775 188.03 727.062 191.408C728.341 194.767 731.163 197.043 734.52 198.569L737.831 191.287ZM735.225 184.451L793.785 52.1631L786.47 48.9249L727.91 181.213L735.225 184.451ZM793.739 52.2637C794.747 50.147 795.757 49.3794 796.495 49.0979C797.236 48.8158 798.507 48.7165 800.679 49.6258L803.768 42.2462C800.436 40.8515 796.939 40.3682 793.648 41.622C790.354 42.8766 788.068 45.565 786.516 48.8243L793.739 52.2637ZM800.668 49.621C802.999 50.6052 803.768 51.6092 804.026 52.2594C804.279 52.8986 804.407 54.1229 803.382 56.3768L810.665 59.6872C812.2 56.3091 812.808 52.7014 811.461 49.3086C810.119 45.9268 807.208 43.6988 803.779 42.251L800.668 49.621ZM803.369 56.4065L744.617 188.502L751.926 191.754L810.678 59.6575L803.369 56.4065ZM744.541 188.684C743.947 190.22 743.294 191.035 742.759 191.461C742.279 191.842 741.688 192.08 740.784 192.08V200.08C743.335 200.08 745.72 199.326 747.736 197.723C749.697 196.165 751.06 194.004 752.002 191.572L744.541 188.684ZM761.887 142.089C760.231 142.787 758.962 142.777 757.859 142.388L755.196 149.932C758.445 151.079 761.784 150.813 764.992 149.463L761.887 142.089ZM758.131 142.495C757.091 142.04 756.032 141.124 755.075 139.305L747.996 143.031C749.599 146.076 751.868 148.488 754.924 149.825L758.131 142.495ZM755.075 139.305L711.107 55.7847L704.028 59.5113L747.996 143.031L755.075 139.305ZM711.107 55.785C710.276 54.2064 710.324 53.1491 710.69 52.259L703.293 49.213C701.867 52.6749 702.299 56.2256 704.028 59.511L711.107 55.785ZM710.647 52.3605C711.237 51.033 712.185 50.08 713.728 49.4305L710.623 42.0575C707.302 43.456 704.794 45.8309 703.336 49.1114L710.647 52.3605ZM713.728 49.4305C715.308 48.7653 716.498 48.8115 717.565 49.2507L720.61 41.8533C717.325 40.5005 713.907 40.6747 710.623 42.0574L713.728 49.4305ZM717.756 49.324C718.76 49.6781 719.687 50.4227 720.465 52.0643L727.694 48.6396C726.168 45.4173 723.767 42.9619 720.419 41.78L717.756 49.324ZM720.507 52.1507L762.555 135.671L769.7 132.073L727.652 48.5533L720.507 52.1507ZM762.588 135.735C763.535 137.535 763.742 139.022 763.526 140.318L771.417 141.634C771.969 138.322 771.28 135.073 769.667 132.009L762.588 135.735ZM763.499 140.509C763.448 140.939 763.313 141.489 761.887 142.089L764.992 149.463C768.43 148.015 770.983 145.365 771.444 141.443L763.499 140.509ZM821.628 149.232L818.731 151.991L818.798 152.061L818.869 152.129L821.628 149.232ZM821.628 130.416L818.799 127.588L818.799 127.588L821.628 130.416ZM840.444 130.416L837.547 133.175L837.581 133.21L837.615 133.244L840.444 130.416ZM840.444 149.232L843.272 152.06L843.306 152.026L843.34 151.991L840.444 149.232ZM831.036 149.072C828.519 149.072 826.36 148.215 824.386 146.335L818.869 152.129C822.271 155.369 826.384 157.072 831.036 157.072V149.072ZM824.524 146.473C822.644 144.5 821.788 142.341 821.788 139.824H813.788C813.788 144.475 815.491 148.588 818.731 151.991L824.524 146.473ZM821.788 139.824C821.788 137.143 822.667 135.033 824.456 133.244L818.799 127.588C815.468 130.919 813.788 135.081 813.788 139.824H821.788ZM824.456 133.244C826.444 131.256 828.582 130.384 831.036 130.384V122.384C826.321 122.384 822.187 124.2 818.799 127.588L824.456 133.244ZM831.036 130.384C833.653 130.384 835.742 131.279 837.547 133.175L843.34 127.657C840.025 124.177 835.842 122.384 831.036 122.384V130.384ZM837.615 133.244C839.404 135.033 840.284 137.143 840.284 139.824H848.284C848.284 135.081 846.603 130.919 843.272 127.588L837.615 133.244ZM840.284 139.824C840.284 142.341 839.427 144.5 837.547 146.473L843.34 151.991C846.58 148.588 848.284 144.475 848.284 139.824H840.284ZM837.615 146.404C835.826 148.192 833.717 149.072 831.036 149.072V157.072C835.778 157.072 839.941 155.392 843.272 152.06L837.615 146.404ZM875.826 147.312L872.901 150.041L872.995 150.142L873.096 150.236L875.826 147.312ZM875.826 47.664L873.096 44.7398L873.046 44.7868L872.997 44.8356L875.826 47.664ZM890.034 147.312L892.862 150.14L892.911 150.092L892.958 150.041L890.034 147.312ZM873.906 24.24L871.006 26.995L871.076 27.0694L871.151 27.14L873.906 24.24ZM873.906 6.384L871.077 3.55557L871.077 3.55557L873.906 6.384ZM891.762 6.384L888.862 9.13899L888.932 9.21335L889.007 9.28399L891.762 6.384ZM891.762 24.24L894.59 27.0684L894.59 27.0684L891.762 24.24ZM882.93 146C881.047 146 879.678 145.436 878.555 144.388L873.096 150.236C875.813 152.772 879.18 154 882.93 154V146ZM878.75 144.583C877.702 143.46 877.138 142.091 877.138 140.208H869.138C869.138 143.957 870.365 147.324 872.901 150.041L878.75 144.583ZM877.138 140.208V54.768H869.138V140.208H877.138ZM877.138 54.768C877.138 52.6994 877.734 51.4126 878.654 50.4924L872.997 44.8356C870.333 47.4994 869.138 50.9486 869.138 54.768H877.138ZM878.555 50.5882C879.678 49.5403 881.047 48.976 882.93 48.976V40.976C879.18 40.976 875.813 42.2037 873.096 44.7398L878.555 50.5882ZM882.93 48.976C884.998 48.976 886.285 49.5722 887.205 50.4924L892.862 44.8356C890.198 42.1717 886.749 40.976 882.93 40.976V48.976ZM887.205 50.4924C888.125 51.4126 888.722 52.6994 888.722 54.768H896.722C896.722 50.9486 895.526 47.4994 892.862 44.8356L887.205 50.4924ZM888.722 54.768V140.208H896.722V54.768H888.722ZM888.722 140.208C888.722 142.091 888.157 143.46 887.109 144.583L892.958 150.041C895.494 147.324 896.722 143.957 896.722 140.208H888.722ZM887.205 144.484C886.285 145.404 884.998 146 882.93 146V154C886.749 154 890.198 152.804 892.862 150.14L887.205 144.484ZM882.93 23.888C880.523 23.888 878.495 23.0828 876.66 21.34L871.151 27.14C874.436 30.2612 878.424 31.888 882.93 31.888V23.888ZM876.805 21.485C875.063 19.6504 874.258 17.6221 874.258 15.216H866.258C866.258 19.7219 867.884 23.7095 871.006 26.995L876.805 21.485ZM874.258 15.216C874.258 12.8151 875.056 10.8902 876.734 9.21242L871.077 3.55557C867.891 6.74179 866.258 10.7049 866.258 15.216H874.258ZM876.734 9.21242C878.584 7.36284 880.589 6.544 882.93 6.544V-1.456C878.358 -1.456 874.347 0.285156 871.077 3.55557L876.734 9.21242ZM882.93 6.544C885.262 6.544 887.166 7.35441 888.862 9.13899L894.661 3.629C891.493 0.293582 887.509 -1.456 882.93 -1.456V6.544ZM889.007 9.28399C890.791 10.9793 891.602 12.8831 891.602 15.216H899.602C899.602 10.6369 897.852 6.65264 894.516 3.484L889.007 9.28399ZM891.602 15.216C891.602 17.5562 890.783 19.562 888.933 21.4116L894.59 27.0684C897.86 23.798 899.602 19.7878 899.602 15.216H891.602ZM888.933 21.4116C887.255 23.0893 885.33 23.888 882.93 23.888V31.888C887.441 31.888 891.404 30.2546 894.59 27.0684L888.933 21.4116ZM949.315 144.048L947.306 147.507L947.327 147.519L947.349 147.531L949.315 144.048ZM930.499 125.232L927.002 127.175L927.021 127.208L927.04 127.241L930.499 125.232ZM930.499 69.936L927.026 67.9514L927.021 67.9605L927.016 67.9696L930.499 69.936ZM949.315 51.12L951.281 54.6033L951.303 54.5913L951.324 54.5791L949.315 51.12ZM1004.04 51.12L1002.03 54.5791L1002.05 54.5913L1002.07 54.6033L1004.04 51.12ZM1022.66 69.936L1019.16 71.8786L1019.18 71.9117L1019.2 71.9445L1022.66 69.936ZM1022.85 125.232L1026.33 127.198L1026.34 127.186L1026.35 127.175L1022.85 125.232ZM1004.23 144.048L1006.19 147.531L1006.21 147.519L1006.24 147.507L1004.23 144.048ZM994.435 128.88L992.377 125.45L992.377 125.45L994.435 128.88ZM1006.34 116.208L1002.83 114.287L1002.81 114.319L1002.8 114.352L1006.34 116.208ZM1006.34 78.96L1002.78 80.7819L1002.8 80.832L1002.83 80.8813L1006.34 78.96ZM994.435 66.096L992.377 69.526L992.377 69.526L994.435 66.096ZM959.107 66.096L961.165 69.526L961.165 69.526L959.107 66.096ZM947.011 78.96L950.519 80.8813L950.529 80.864L950.538 80.8466L947.011 78.96ZM947.011 116.208L950.519 114.287L950.519 114.287L947.011 116.208ZM959.107 128.88L957.049 132.31L957.049 132.31L959.107 128.88ZM976.771 146.768C966.996 146.768 958.539 144.662 951.281 140.565L947.349 147.531C955.963 152.394 965.81 154.768 976.771 154.768V146.768ZM951.324 140.589C943.989 136.33 938.217 130.558 933.958 123.223L927.04 127.241C931.997 135.778 938.769 142.55 947.306 147.507L951.324 140.589ZM933.996 123.289C929.885 115.89 927.779 107.358 927.779 97.584H919.779C919.779 108.546 922.153 118.446 927.002 127.175L933.996 123.289ZM927.779 97.584C927.779 87.6713 929.889 79.1525 933.982 71.9024L927.016 67.9696C922.149 76.5915 919.779 86.5047 919.779 97.584H927.779ZM933.972 71.9206C938.229 64.4702 943.986 58.7216 951.281 54.6033L947.349 47.6367C938.772 52.4784 931.985 59.2738 927.026 67.9514L933.972 71.9206ZM951.324 54.5791C958.573 50.3695 967.015 48.208 976.771 48.208V40.208C965.791 40.208 955.929 42.6545 947.306 47.6608L951.324 54.5791ZM976.771 48.208C986.389 48.208 994.769 50.3652 1002.03 54.5791L1006.04 47.6608C997.429 42.6588 987.633 40.208 976.771 40.208V48.208ZM1002.07 54.6033C1009.35 58.716 1015.04 64.4511 1019.16 71.8786L1026.16 67.9934C1021.32 59.2929 1014.59 52.484 1006 47.6367L1002.07 54.6033ZM1019.2 71.9445C1023.41 79.1871 1025.57 87.6904 1025.57 97.584H1033.57C1033.57 86.4856 1031.13 76.5569 1026.12 67.9275L1019.2 71.9445ZM1025.57 97.584C1025.57 107.358 1023.46 115.89 1019.35 123.289L1026.35 127.175C1031.2 118.446 1033.57 108.546 1033.57 97.584H1025.57ZM1019.37 123.266C1015.24 130.577 1009.54 136.336 1002.22 140.589L1006.24 147.507C1014.78 142.544 1021.5 135.759 1026.33 127.198L1019.37 123.266ZM1002.26 140.565C995.003 144.662 986.546 146.768 976.771 146.768V154.768C987.732 154.768 997.579 152.394 1006.19 147.531L1002.26 140.565ZM976.771 137.488C984.067 137.488 990.682 135.797 996.493 132.31L992.377 125.45C987.948 128.107 982.787 129.488 976.771 129.488V137.488ZM996.493 132.31C1002.25 128.853 1006.73 124.08 1009.88 118.064L1002.8 114.352C1000.31 119.088 996.856 122.763 992.377 125.45L996.493 132.31ZM1009.85 118.129C1013.16 112.082 1014.76 105.195 1014.76 97.584H1006.76C1006.76 104.053 1005.41 109.582 1002.83 114.287L1009.85 118.129ZM1014.76 97.584C1014.76 89.9732 1013.16 83.0862 1009.85 77.0387L1002.83 80.8813C1005.41 85.5858 1006.76 91.1148 1006.76 97.584H1014.76ZM1009.9 77.1381C1006.76 70.9929 1002.28 66.137 996.493 62.666L992.377 69.526C996.832 72.199 1000.29 75.9191 1002.78 80.7819L1009.9 77.1381ZM996.493 62.666C990.682 59.1794 984.067 57.488 976.771 57.488V65.488C982.787 65.488 987.948 66.8686 992.377 69.526L996.493 62.666ZM976.771 57.488C969.475 57.488 962.86 59.1794 957.049 62.666L961.165 69.526C965.594 66.8686 970.755 65.488 976.771 65.488V57.488ZM957.049 62.666C951.28 66.1274 946.753 70.9618 943.484 77.0734L950.538 80.8466C953.157 75.9502 956.694 72.2086 961.165 69.526L957.049 62.666ZM943.503 77.0387C940.191 83.0862 938.595 89.9732 938.595 97.584H946.595C946.595 91.1148 947.943 85.5858 950.519 80.8813L943.503 77.0387ZM938.595 97.584C938.595 105.195 940.191 112.082 943.503 118.129L950.519 114.287C947.943 109.582 946.595 104.053 946.595 97.584H938.595ZM943.503 118.129C946.778 124.111 951.304 128.863 957.049 132.31L961.165 125.45C956.67 122.753 953.132 119.057 950.519 114.287L943.503 118.129ZM957.049 132.31C962.86 135.797 969.475 137.488 976.771 137.488V129.488C970.755 129.488 965.594 128.107 961.165 125.45L957.049 132.31Z" fill="#B7B7B7"/>
</svg>
