<svg width="280" height="280" viewBox="0 0 280 280" fill="none" xmlns="http://www.w3.org/2000/svg">
<path d="M10 56C10 30.5949 30.5949 10 56 10H224C249.405 10 270 30.5949 270 56V224C270 249.405 249.405 270 224 270H56C30.5949 270 10 249.405 10 224V56Z" fill="#0D1414" stroke="#0D1414" stroke-width="20"/>
<path d="M138.111 212.28C124.97 212.28 113.194 209.208 102.783 203.064C92.3724 196.749 84.0951 188.216 77.9511 177.464C71.9777 166.712 68.9911 154.595 68.9911 141.112C68.9911 127.459 72.0631 115.256 78.2071 104.504C84.5217 93.752 93.0551 85.304 103.807 79.16C114.559 72.8453 126.676 69.688 140.159 69.688C153.642 69.688 165.674 72.8453 176.255 79.16C187.007 85.304 195.455 93.752 201.599 104.504C207.914 115.256 211.156 127.459 211.327 141.112L203.391 147.256C203.391 159.544 200.49 170.637 194.687 180.536C189.055 190.264 181.29 198.029 171.391 203.832C161.663 209.464 150.57 212.28 138.111 212.28ZM140.159 194.36C150.058 194.36 158.847 192.056 166.527 187.448C174.378 182.84 180.522 176.525 184.959 168.504C189.567 160.312 191.871 151.181 191.871 141.112C191.871 130.872 189.567 121.741 184.959 113.72C180.522 105.699 174.378 99.384 166.527 94.776C158.847 89.9973 150.058 87.608 140.159 87.608C130.431 87.608 121.642 89.9973 113.791 94.776C105.94 99.384 99.7111 105.699 95.1031 113.72C90.4951 121.741 88.1911 130.872 88.1911 141.112C88.1911 151.181 90.4951 160.312 95.1031 168.504C99.7111 176.525 105.94 182.84 113.791 187.448C121.642 192.056 130.431 194.36 140.159 194.36ZM201.343 211C198.442 211 196.052 210.147 194.175 208.44C192.298 206.563 191.359 204.173 191.359 201.272V157.496L196.223 137.272L211.327 141.112V201.272C211.327 204.173 210.388 206.563 208.511 208.44C206.634 210.147 204.244 211 201.343 211Z" fill="white"/>
<path d="M102.783 203.064L100.709 206.484L100.729 206.497L100.75 206.509L102.783 203.064ZM77.9511 177.464L74.4544 179.407L74.4661 179.428L74.4781 179.449L77.9511 177.464ZM78.2071 104.504L74.7579 102.478L74.7459 102.499L74.7341 102.519L78.2071 104.504ZM103.807 79.16L105.792 82.633L105.812 82.6212L105.833 82.6091L103.807 79.16ZM176.255 79.16L174.205 82.5948L174.238 82.6142L174.271 82.633L176.255 79.16ZM201.599 104.504L198.126 106.489L198.138 106.509L198.15 106.53L201.599 104.504ZM211.327 141.112L213.776 144.275L215.352 143.055L215.327 141.062L211.327 141.112ZM203.391 147.256L200.942 144.093L199.391 145.294V147.256H203.391ZM194.687 180.536L191.236 178.513L191.231 178.522L191.225 178.532L194.687 180.536ZM171.391 203.832L173.395 207.294L173.405 207.288L173.414 207.283L171.391 203.832ZM166.527 187.448L164.502 183.998L164.486 184.008L164.469 184.018L166.527 187.448ZM184.959 168.504L181.473 166.543L181.466 166.555L181.459 166.568L184.959 168.504ZM184.959 113.72L181.459 115.656L181.475 115.684L181.491 115.712L184.959 113.72ZM166.527 94.776L164.414 98.1722L164.458 98.1995L164.502 98.2257L166.527 94.776ZM113.791 94.776L115.816 98.2257L115.844 98.2094L115.871 98.1928L113.791 94.776ZM95.1031 113.72L91.6347 111.727H91.6347L95.1031 113.72ZM95.1031 168.504L91.6168 170.465L91.6256 170.481L91.6347 170.496L95.1031 168.504ZM113.791 187.448L115.816 183.998L113.791 187.448ZM194.175 208.44L191.347 211.268L191.414 211.336L191.484 211.4L194.175 208.44ZM191.359 157.496L187.47 156.561L187.359 157.022V157.496H191.359ZM196.223 137.272L197.209 133.395L193.282 132.397L192.334 136.337L196.223 137.272ZM211.327 141.112H215.327V138.002L212.313 137.235L211.327 141.112ZM208.511 208.44L211.202 211.4L211.272 211.336L211.339 211.268L208.511 208.44ZM138.111 208.28C125.621 208.28 114.558 205.368 104.816 199.619L100.75 206.509C111.83 213.048 124.319 216.28 138.111 216.28V208.28ZM104.858 199.644C95.0376 193.688 87.2372 185.653 81.424 175.479L74.4781 179.449C80.9529 190.779 89.7073 199.811 100.709 206.484L104.858 199.644ZM81.4477 175.521C75.8356 165.42 72.9911 153.982 72.9911 141.112H64.9911C64.9911 155.207 68.1199 168.004 74.4544 179.407L81.4477 175.521ZM72.9911 141.112C72.9911 128.082 75.916 116.576 81.68 106.489L74.7341 102.519C68.2102 113.936 64.9911 126.836 64.9911 141.112H72.9911ZM81.6562 106.53C87.6199 96.3753 95.6501 88.4281 105.792 82.633L101.823 75.687C90.46 82.1799 81.4236 91.1287 74.7579 102.478L81.6562 106.53ZM105.833 82.6091C115.921 76.6843 127.329 73.688 140.159 73.688V65.688C126.024 65.688 113.197 69.0063 101.781 75.7108L105.833 82.6091ZM140.159 73.688C152.99 73.688 164.301 76.6844 174.205 82.5948L178.305 75.7251C167.046 69.0062 154.293 65.688 140.159 65.688V73.688ZM174.271 82.633C184.402 88.4226 192.336 96.3567 198.126 106.489L205.072 102.519C198.574 91.1473 189.612 82.1854 178.24 75.687L174.271 82.633ZM198.15 106.53C204.08 116.626 207.165 128.136 207.327 141.162L215.327 141.062C215.148 126.781 211.748 113.886 205.048 102.478L198.15 106.53ZM208.878 137.949L200.942 144.093L205.84 150.419L213.776 144.275L208.878 137.949ZM199.391 147.256C199.391 158.885 196.654 169.272 191.236 178.513L198.138 182.559C204.326 172.003 207.391 160.203 207.391 147.256H199.391ZM191.225 178.532C185.947 187.648 178.683 194.921 169.368 200.381L173.414 207.283C183.896 201.138 192.163 192.88 198.149 182.54L191.225 178.532ZM169.387 200.37C160.332 205.612 149.944 208.28 138.111 208.28V216.28C151.195 216.28 162.994 213.316 173.395 207.294L169.387 200.37ZM140.159 198.36C150.704 198.36 160.219 195.897 168.585 190.878L164.469 184.018C157.475 188.215 149.411 190.36 140.159 190.36V198.36ZM168.552 190.898C177.026 185.924 183.677 179.085 188.459 170.44L181.459 166.568C177.366 173.966 171.73 179.756 164.502 183.998L168.552 190.898ZM188.445 170.465C193.414 161.632 195.871 151.818 195.871 141.112H187.871C187.871 150.545 185.72 158.992 181.473 166.543L188.445 170.465ZM195.871 141.112C195.871 130.249 193.42 120.418 188.428 111.727L181.491 115.712C185.714 123.064 187.871 131.495 187.871 141.112H195.871ZM188.459 111.784C183.677 103.139 177.026 96.3001 168.552 91.3263L164.502 98.2257C171.73 102.468 177.366 108.258 181.459 115.656L188.459 111.784ZM168.64 91.3798C160.267 86.1696 150.732 83.608 140.159 83.608V91.608C149.384 91.608 157.427 93.825 164.414 98.1722L168.64 91.3798ZM140.159 83.608C129.742 83.608 120.226 86.1765 111.711 91.3592L115.871 98.1928C123.058 93.8182 131.12 91.608 140.159 91.608V83.608ZM111.766 91.3263C103.306 96.2923 96.5831 103.113 91.6347 111.727L98.5715 115.712C102.839 108.284 108.575 102.476 115.816 98.2257L111.766 91.3263ZM91.6347 111.727C86.6421 120.418 84.1911 130.249 84.1911 141.112H92.1911C92.1911 131.495 94.3481 123.064 98.5715 115.712L91.6347 111.727ZM84.1911 141.112C84.1911 151.818 86.648 161.632 91.6168 170.465L98.5894 166.543C94.3421 158.992 92.1911 150.545 92.1911 141.112H84.1911ZM91.6347 170.496C96.5831 179.111 103.306 185.932 111.766 190.898L115.816 183.998C108.575 179.748 102.839 173.94 98.5715 166.512L91.6347 170.496ZM111.766 190.898C120.273 195.891 129.77 198.36 140.159 198.36V190.36C131.092 190.36 123.01 188.221 115.816 183.998L111.766 190.898ZM201.343 207C199.284 207 197.901 206.421 196.866 205.48L191.484 211.4C194.204 213.872 197.6 215 201.343 215V207ZM197.004 205.612C195.95 204.558 195.359 203.221 195.359 201.272H187.359C187.359 205.126 188.646 208.568 191.347 211.268L197.004 205.612ZM195.359 201.272V157.496H187.359V201.272H195.359ZM195.248 158.431L200.112 138.207L192.334 136.337L187.47 156.561L195.248 158.431ZM195.237 141.149L210.341 144.989L212.313 137.235L197.209 133.395L195.237 141.149ZM207.327 141.112V201.272H215.327V141.112H207.327ZM207.327 201.272C207.327 203.221 206.737 204.558 205.683 205.612L211.339 211.268C214.04 208.568 215.327 205.126 215.327 201.272H207.327ZM205.82 205.48C204.785 206.421 203.402 207 201.343 207V215C205.087 215 208.482 213.872 211.202 211.4L205.82 205.48Z" fill="white"/>
</svg>
