<svg version="1.1" id="_1" xmlns="http://www.w3.org/2000/svg" x="0" y="0" viewBox="0 0 3479.5 1622.5" style="enable-background:new 0 0 3479.5 1622.5" xml:space="preserve"><style>.st0{fill:none;stroke:#000;stroke-width:3;stroke-miterlimit:10}.st1{fill:#dae1e8}.st2,.st4,.st5,.st8{stroke-width:3;stroke-miterlimit:10}.st2{fill:none;stroke:#fff;stroke-linecap:round;stroke-linejoin:round}.st4,.st5,.st8{stroke:#000}.st4{fill:#fff;stroke-linecap:round;stroke-linejoin:round}.st5,.st8{fill:#dae1e8}.st8{stroke-linecap:round;stroke-linejoin:round}.st9{fill:#fff}.st10{fill:none;stroke:#000;stroke-width:2;stroke-linecap:round;stroke-linejoin:round}.st10,.st11,.st12{stroke-miterlimit:10}.st11{fill:none;stroke:#fff;stroke-width:5;stroke-linecap:round;stroke-linejoin:round}.st12{stroke:#000}</style><path d="m1597 170.7 100.1-24.8s22.9 16.5 3.3 41c-1.2 1.4-103.4-16.2-103.4-16.2z"/><path class="st0" d="m1597 170.7 100.1-24.8s22.9 16.5 3.3 41c-1.2 1.4-103.4-16.2-103.4-16.2z"/><path d="m1584.6 115 66.1-79.1s28.3-.2 26.8 31.1c-.1 1.8-92.9 48-92.9 48z"/><path class="st0" d="m1584.6 115 66.1-79.1s28.3-.2 26.8 31.1c-.1 1.8-92.9 48-92.9 48z"/><path d="m1544 119.8-30.2-98.6s15.2-23.8 40.7-5.5c1.5 1.2-10.5 104.1-10.5 104.1z"/><path class="st0" d="m1544 119.8-30.2-98.6s15.2-23.8 40.7-5.5c1.5 1.2-10.5 104.1-10.5 104.1z"/><path d="m1733.1 1439.8-90.4 7.1s-17.5-17.6 3.1-36c1.1-1.1 87.3 28.9 87.3 28.9z"/><path class="st0" d="m1733.1 1439.8-90.4 7.1s-17.5-17.6 3.1-36c1.1-1.1 87.3 28.9 87.3 28.9z"/><path d="m1735.9 1489.9-68.8 59.1s-24.6-3.9-18.8-30.9c.3-1.5 87.6-28.2 87.6-28.2z"/><path class="st0" d="m1735.9 1489.9-68.8 59.1s-24.6-3.9-18.8-30.9c.3-1.5 87.6-28.2 87.6-28.2z"/><path d="m1771.7 1491.5 12 89.9s-16.6 18.5-36.1-1.1c-1.1-1.1 24.1-88.8 24.1-88.8z"/><path class="st0" d="m1771.7 1491.5 12 89.9s-16.6 18.5-36.1-1.1c-1.1-1.1 24.1-88.8 24.1-88.8z"/><path class="st1" d="M1326.8 1022.2h-13.6l-5.7 34.6h-16.8l5.7-34.6h-18.7v-15.4h21.3l3.7-22.3H1284V969h21.2l5.8-35.1h16.7L1322 969h13.6l5.8-35.1h16.8l-5.8 35.1h19.5v15.4h-22l-3.7 22.3h19.3v15.4h-21.9l-5.7 34.6h-16.8l5.7-34.5zm-11-15.5h13.6l3.7-22.3h-13.6l-3.7 22.3z"/><path class="st2" d="M1026.9 1437.7c-7.3 0-13.6-2.6-18.9-8-5.3-5.3-8-11.6-8-18.9v-101.6H686.3c-7.3 0-13.6-2.6-18.9-8-5.3-5.3-8-11.6-8-18.9v-105.6c0-17.3 4.3-31.5 12.9-42.8l297.8-375.5c6-7.3 11.5-12.1 16.4-14.4 5-2.3 11.8-3.5 20.4-3.5h150.4c7.3 0 13.6 2.7 18.9 8 5.3 5.3 8 11.6 8 18.9v382.5h85.7c7.3 0 13.6 2.7 18.9 8 5.3 5.3 8 11.6 8 18.9v105.6c0 7.3-2.7 13.6-8 18.9-5.3 5.3-11.6 8-18.9 8h-85.7v101.6c0 7.3-2.7 13.6-8 18.9-5.3 5.3-11.6 8-18.9 8h-130.4zm-21.9-287.9V966.5l-145.4 183.3H1005zM1716.3 538c49.8 0 92.6 7.3 128.5 21.9 35.9 14.6 65.6 34.2 89.2 58.8 23.6 24.6 41.2 53.3 52.8 86.2 11.6 32.9 18.4 67.2 20.4 103.1 1.3 28.6 2 58.4 2 89.7 0 31.2-.7 60.4-2 87.7-2 35.9-8.8 70.2-20.4 103.1-11.6 32.9-29.2 61.6-52.8 86.2-23.6 24.6-53.3 44.2-89.2 58.8-35.9 14.6-78.7 21.9-128.5 21.9s-92.6-7.3-128.5-21.9c-35.9-14.6-65.6-34.2-89.2-58.8-23.6-24.6-41.2-53.3-52.8-86.2-11.6-32.9-18.4-67.2-20.4-103.1-1.3-27.2-2-56.4-2-87.7 0-31.2.7-61.1 2-89.7 2-35.9 8.8-70.2 20.4-103.1 11.6-32.9 29.2-61.6 52.8-86.2 23.6-24.6 53.3-44.2 89.2-58.8 35.8-14.6 78.7-21.9 128.5-21.9zm106.6 442.3c2.6-56.4 2.6-112.2 0-167.4-1.3-16.6-3.8-31.9-7.5-45.8-3.7-13.9-9.5-26.1-17.4-36.4-8-10.3-18.6-18.4-31.9-24.4-13.3-6-29.9-9-49.8-9s-36.5 3-49.8 9c-13.3 6-23.9 14.1-31.9 24.4-8 10.3-13.9 22.4-17.9 36.4-4 13.9-6.3 29.2-7 45.8-3.3 55.1-3.3 110.9 0 167.4.7 16.6 2.8 31.9 6.5 45.8 3.6 13.9 9.6 26.1 17.9 36.4 8.3 10.3 19.1 18.4 32.4 24.4 13.3 6 29.9 9 49.8 9s36.5-3 49.8-9c13.3-6 24.1-14.1 32.4-24.4 8.3-10.3 14.3-22.4 17.9-36.4 3.6-13.9 5.8-29.2 6.5-45.8zM2496.9 774.9c-7.3 0-13.6-2.6-18.9-8-5.3-5.3-8-11.6-8-18.9V646.4h-313.8c-7.3 0-13.6-2.6-18.9-8-5.3-5.3-8-11.6-8-18.9V513.9c0-17.3 4.3-31.5 12.9-42.8l297.9-375.5c6-7.3 11.5-12.1 16.4-14.4 5-2.3 11.8-3.5 20.4-3.5h150.4c7.3 0 13.6 2.7 18.9 8 5.3 5.3 8 11.6 8 18.9V487h85.7c7.3 0 13.6 2.7 18.9 8 5.3 5.3 8 11.6 8 18.9v105.6c0 7.3-2.7 13.6-8 18.9-5.3 5.3-11.6 8-18.9 8h-85.7V748c0 7.3-2.7 13.6-8 18.9-5.3 5.3-11.6 8-18.9 8h-130.4zm-22-287.9V303.7L2329.5 487h145.4z"/><path style="fill:#fff;stroke:#fff;stroke-width:3;stroke-linecap:round;stroke-linejoin:round;stroke-miterlimit:10" d="M680.1 1481.2h2098.7"/><path class="st4" d="m1067.7 1417.4-18.1 55.1-41.1-1.2 13.6-45.8M1222.9 584.9l-25 2.1c6.1 51-15.6 88.7-44 115.7l27.5 43.4c49.4-65.5 41.5-161.2 41.5-161.2z"/><path class="st5" d="m1051.2 759.9 23.1 44.4c51.2-5.7 85-28.9 107.1-58.2l-27.5-43.4c-43.5 41.1-102.7 57.2-102.7 57.2z"/><path d="m1222.5 596.1-23.2-.4s-1.4-.8-2.7-2.1c-1.2-1.3 1.3-5.9 1.3-5.9s-8.6-13.4-10.5-24.9c-2-11.5-11-22.7-5.6-22.9 5.5-.1 5.7 9.7 8.5 8.5 1.4-.6 1.8-9.6.3-18.4-1.5-8.8-5.1-17.4-1.2-16.6 7.7 1.4 11.9 29.6 11.9 29.6s.6-9.1.5-18.6c0-10.2-.5-20.9 4.3-20.8 4.2.1 4.1 9.4 5.2 18.8 1.1 9.1 3.5 18.3 3.5 18.3s2.1-30.8 5.4-27.6c3.4 3.2.9 30.6 2.9 30.6s4.4-19.2 7.2-17.6c2.8 1.6-.2 34.5-.2 34.5s1.1 19.3-6.4 28.3c.1-.2 3.4 5.8-1.2 7.2z"/><path transform="rotate(-32.027 1172.447 724.248)" class="st5" d="M1158 691.5h29.1V757H1158z"/><path d="m-1071.4 511.5-19.1-56.5c.6-.2 62-21.5 126.2-71.6 84-65.6 133.2-147.5 146.1-243.3 13.4-99.3 57.3-187.6 126.9-255.1 64.5-62.6 148.6-103.9 236.9-116.2 86.2-12.1 171 3.4 245.2 44.7C-128.2-141.3-63-66.2-20.6 30.9c68.5 156.7 182.7 255.2 339.4 292.8 118.8 28.5 219.1 9.7 220.1 9.5l11.4 58.5c-4.5.9-112.1 21.4-243.1-9.5-77.4-18.2-147-50.7-206.7-96.4C26 228.8-33.1 151-75.2 54.8c-71.9-164.5-210.5-249.3-370.9-226.9C-582.9-153-732.7-46.6-759 148.2c-15 110.9-73.8 209-170.2 283.6-72 55.7-139.3 78.8-142.2 79.7z"/><path d="M519.2 350.5S103.7 420.4-59.4 17.8c-163-402.6-641.4-152.7-736.7 80.5-95.3 233.2-298.8 328.2-298.8 328.2" style="fill:none;stroke:#fff;stroke-width:6;stroke-linecap:round;stroke-linejoin:round;stroke-miterlimit:10"/><path class="st4" d="M847.3 366.5c0 30.7-24.9 55.5-55.5 55.5H528.6c-30.7 0-55.6-24.9-55.6-55.5h0c0-30.7 24.9-55.6 55.6-55.6h263.1c30.7.1 55.6 25 55.6 55.6h0z"/><path class="st1" d="M774.9 377.8H536.7c-23.9 0-43.8-16.6-49-39-3.8 7.1-6 15.2-6 23.9 0 27.8 22.5 50.3 50.3 50.3h238.2c27.8 0 50.3-22.5 50.3-50.3 0-3.9-.5-7.7-1.3-11.3-8.6 15.8-25.2 26.4-44.3 26.4z"/><path class="st4" d="M964.2 387c0 57.3-46.5 103.8-103.8 103.8h0c-57.3 0-103.8-46.5-103.8-103.8v-40.9c0-57.3 46.5-103.8 103.8-103.8h0c57.3 0 103.8 46.5 103.8 103.8V387z"/><path class="st1" d="M891.5 435.1c-50.8 0-91.9-41.1-91.9-91.9V307c0-12.3 2.4-24 6.8-34.7-24.4 16.5-40.4 44.4-40.4 76.1v36.2c0 50.8 41.1 91.9 91.9 91.9 38.5 0 71.4-23.6 85.1-57.2-14.7 10-32.4 15.8-51.5 15.8z"/><path class="st4" d="M1303.4 445.5c0 64.6-52.4 116.9-116.9 116.9H978.8c-64.6 0-116.9-52.3-116.9-116.9V287.6c0-64.6 52.4-116.9 116.9-116.9h207.6c64.6 0 116.9 52.4 116.9 116.9v157.9z"/><path class="st1" d="M1225.7 493.3h-192.9c-60 0-108.7-48.7-108.7-108.7V237.9c0-14.1 2.7-27.5 7.6-39.9-35.2 18-59.4 54.6-59.4 96.9v146.7c0 60 48.7 108.7 108.7 108.7h192.9c46 0 85.2-28.5 101.1-68.8-14.7 7.5-31.5 11.8-49.3 11.8z"/><path class="st4" d="M1321.5 93.2c-17.9 0-34.6 3.2-48.7 8.6h-.6c-9.5 0-18.6 5.9-27.1 16.7-7.5 7.1-12.5 15.2-14.1 24-21.9 47.4-36.5 131.5-36.5 227.4 0 148.1 34.8 268.2 77.7 268.2 4 0 8-1.1 11.9-3.1 11.4 3.2 24.1 4.9 37.5 4.9 50.4 0 91.2-24.9 91.2-55.6V148.7c-.2-30.6-41-55.5-91.3-55.5z"/><path class="st5" d="M1140.6 438.7c0 3.8-3.1 6.8-6.8 6.8-3.7 0-6.8-3.1-6.8-6.8V269.2c0-3.7 3.1-6.8 6.8-6.8 3.8 0 6.8 3.1 6.8 6.8v169.5zM1091.4 438.7c0 3.8-3.1 6.8-6.8 6.8-3.7 0-6.8-3.1-6.8-6.8V269.2c0-3.7 3.1-6.8 6.8-6.8 3.8 0 6.8 3.1 6.8 6.8v169.5zM1453.4 369.9c0 148.1-34.8 268.2-77.7 268.2-42.9 0-77.7-120.1-77.7-268.2s34.8-268.2 77.7-268.2c42.9.1 77.7 120.1 77.7 268.2z"/><path d="M1357.6 412.4c0 5.7-4.6 10.4-10.4 10.4-5.7 0-10.4-4.6-10.4-10.4v-90.7c0-5.7 4.6-10.4 10.4-10.4 5.7 0 10.4 4.6 10.4 10.4v90.7zM1415.9 377.4c0 5.7-4.6 10.4-10.4 10.4-5.7 0-10.4-4.6-10.4-10.4v-90.7c0-5.7 4.6-10.4 10.4-10.4 5.7 0 10.4 4.6 10.4 10.4v90.7z"/><path class="st4" d="m1199.2 1393.4-8.1 47-44.7 7.1 10.1-46"/><path d="M995.2 736.9s-67.4 10.1-62 75.5C935 834.6 973 1026 973 1026l176.9-16.8s-47.5-244-77.8-264.2c-30.4-20.2-76.9-8.1-76.9-8.1z"/><path d="M973 1026.1s8.5 54.1 27.6 105.1c28.8 76.9 53.4 115.1 46.5 172.1-10.4 85.4-42.9 133.5-42.9 133.5l74.8 12s46.6-156.8 39.7-179.2c-12.1-105.1-23.3-267.7-23.3-267.7L973 1026.1z"/><path d="M1137.8 982.6s89.3 130.3 93.3 222.2c3.3 75-26.3 210-26.3 210l-62.5-2s22.3-171.7 8.5-213.2c-40.4-72.8-101-161.5-101-161.5l88-55.5z"/><path class="st5" d="M977 764.7s45.5-13.6 62.7 32.9c17.2 46.5 2 79.2-25.6 84.2-57.7 10.4-98.7-110-37.1-117.1z"/><path class="st5" d="M1087.7 805.7c1.5 4.8-18.7 17.2-18.7 17.2s-4.9-13.1-11.3-23.6c-3.2-5.2-7.3-11-12.3-16.7-7.7-7.2-17.8-17.3-29.1-22.3-4-1.8-8.3-3.4-12.8-4.6-9.1-2.3-9.6-11.5-.4-13.1 4.6-1.4 9.3-2 14.1-1.9 4.8.1 9.5.9 14.3 2.1 5.2 1.1 9.8 2.6 14.1 4.6 4.4 2 8.5 4.5 12.7 7.4 4.2 2.8 20.8 23.9 29.4 50.9z"/><path d="m996.9 655.7-6.9 44.5-31.2-28.6-11.1-22.1 12.5-11.8s47.1-38.1 54.7-46.7c7.6-8.7 32.5 39.8 11.1 59.8"/><path class="st4" d="m984.8 692.5 3.9 54.6s19.5 9.9 30.6 8.3c11.1-1.5 16.7-9.4 16.7-9.4l-18-53.2-33.2-.3z"/><path d="m1021.7 640.4-33.4 13.2s3.5 15.2 2.8 16.9l-9.5 5.8c-4.6 3.2-5.1 10.6-1 16.5s11.1 8 15.8 4.8c1.1-.7 1.9-1.7 2.5-2.9 9.6 9.7 16.5 14.2 29.2 14.2 24 0-6.4-68.5-6.4-68.5z" style="fill:#fff;stroke:#000;stroke-width:2;stroke-linecap:round;stroke-linejoin:round;stroke-miterlimit:10"/><path class="st4" d="M1110.5 583.4h-19.2c2.2 43.3-20.4 83.2-46.4 114.8l34.1 28.3c32.7-69.2 31.5-143.1 31.5-143.1z"/><path class="st5" d="M970.8 766.4c-5.3 6.4-9.1 12.3-11.8 17.5-6.3 11.8-6.3 28 3.9 34 32.3 22.2 62.7-14.1 82.2-37.7 4-4.9 7.8-9.9 11.4-15.1 3.5-5.2 6.9-10.3 10-15.8 2.3-3.8 4.5-7 6.5-10.8 2.1-3.9 4.1-7.9 6-11.9l-34.1-28.3c-.5.5-63.8 56.8-74.1 68.1z"/><path transform="rotate(-50.233 1066.247 708.664)" class="st5" d="M1051.7 675.9h29.1v65.5h-29.1z"/><path class="st4" d="M1131.2 962.7s-108 29.8-166 22.7l4.2 51.9s112.2-27.6 164.7-55c.9-.5 0-3 0-3l-2.9-16.6z"/><path class="st8" d="m1181.2 1474.2-4-5.1-39.9-2.7-3.4 10.9s115.7 13.1 117.8 4.5c.6-2.7 1.3-4.4 1.1-5.7l-71.6-1.9z"/><path class="st8" d="m1181.2 1474.2 71.5 2c-.4-2.9 4.6-6.1-11.9-15.7-9-5.2-27.9-5.5-34.6-10.6-11.5-8.7-17.5-19.8-17.5-19.8s-15.3 18.7-23.9 15.2c-8.6-3.5-18.7-6.7-18.7-6.7l-8.7 28 39.9 2.7 3.9 4.9zM1041.4 1504.1l-3.8-5.2-39.8-4.2-3.8 10.8s115.1 17.6 117.5 9.1c.8-2.7 1.5-4.3 1.3-5.7l-71.4-4.8z"/><path class="st8" d="m1041.4 1504.1 71.4 4.8c-.3-3 4.8-5.9-11.3-16.2-8.7-5.6-27.6-6.6-34.2-11.9-11.2-9.1-16.7-20.5-16.7-20.5s-16 18.1-24.5 14.2c-8.4-3.9-18.4-7.5-18.4-7.5l-9.8 27.6 39.8 4.2 3.7 5.3z"/><path d="m1113.4 592.1-23.5-1s-1.4-.9-2.6-2.3c-1.2-1.3 1.5-6 1.5-6s-8.3-13.9-10-25.6c-1.7-11.7-10.6-23.4-5-23.4s5.6 10 8.4 8.9c1.4-.6 2.1-9.7.8-18.7s-4.7-17.8-.8-17c7.8 1.7 11.3 30.4 11.3 30.4s.8-9.2 1-18.9c.2-10.4 0-21.2 5-21 4.2.2 3.9 9.7 4.8 19.2.9 9.3 3 18.7 3 18.7s2.9-31.3 6.3-27.9c3.3 3.3.1 31.1 2.1 31.2 2 0 5-19.4 7.8-17.7 2.8 1.7-1.1 35.1-1.1 35.1s.5 19.7-7.3 28.6c-.2 0 3 6.1-1.7 7.4z"/><path class="st9" d="M1082.2 851.9c2.5 6.5 2.3 12.5-.3 13.5-2.7 1-6.8-3.4-9.3-9.8-2.5-6.5-2.3-12.5.3-13.6 2.6-1 6.8 3.4 9.3 9.9zM1104.2 838.5c2.5 6.5 2.3 12.5-.3 13.5-2.7 1-6.8-3.4-9.3-9.8-2.5-6.5-2.3-12.5.3-13.6 2.6-.9 6.8 3.5 9.3 9.9z"/><path class="st8" d="M1019.5 1079.6c0 7.2-5.8 13-13 13h-43.2c-7.2 0-13-5.8-13-13v-87.2c0-7.2 5.8-13 13-13h43.2c7.2 0 13 5.8 13 13v87.2z"/><path class="st9" d="M2780.1 1167.4c-.3-3.9-.6-7.6-.8-11.1-.3-3.5-.3-6.8-.5-9.8-.1-3-.3-5.8-.3-8.3-.1-3.3-.1-6.1-.1-8.4 5.7-5.6 46.9-49.4 13.1-111.5 0 0-62.6 45.3-14.2 111.5-.4 2.3-.7 5-1.1 8.3-.6 5-1.1 11.2-1.6 18.2-.2 3.5-.3 7.3-.5 11.2-.2 4 .4 8.1.5 12.4.2 3.4.4 6.9.7 10.5-2.3-3-5.4-7.1-8.5-11.1-1.5-2-3.1-4.1-4.6-5.9-.6-.7-1.1-1.4-1.6-2 9.4-86.1-53-98.2-53-98.2 1.5 90.8 38.3 98.6 49.6 98.9.8 1 1.7 2.1 2.6 3.2 1.4 1.9 3 3.9 4.5 5.9 3.1 4 6.1 8.1 8.4 11.1.3.4.5.8.8 1.1.4.3.7.5 1 .8.3.3.6.4.9.6.5 4.2.9 8.6 1.4 13 .3 2.5.5 5 .9 7.5s.8 5.1 1.2 7.6c.8 5.2 1.7 10.4 2.5 15.8 1 5.4 2 10.7 3.3 16.1l1.8 7.8c-.4-.7-.7-1.4-1.1-2-.7-1.2-1.5-2.5-2.2-3.7-1.5-2.5-3-5-4.4-7.3-1.5-2.3-3-4.4-4.2-6.2-.3-.4-.5-.9-.9-1.3s-.7-.7-1.1-1c-.3-.3-.6-.5-.9-.7-1.8-13.4-13.1-66.2-78.2-78.1 0 0-4.2 77 77.5 81.2.1.1.1.3.2.4.2.5.6.8.9 1.3 1.2 1.8 2.6 3.8 4.1 6.1 1.4 2.3 2.9 4.7 4.3 7.2.7 1.2 1.5 2.4 2.2 3.7.8 1.2 1.4 2.4 1.9 3.6 1.2 2.4 2.3 4.7 3.3 6.6.3.5.4 1 .7 1.4.2.2.4.4.6.7 2.4 10 4.8 20.1 6.6 30.3 1.1 5.6 1.8 11.2 2.5 16.8.4 2.8.5 5.6.7 8.4.2 2.8.5 5.6.5 8.4v1.9c-.2-.4-.4-.8-.6-1.1-.9-1.7-1.8-3.4-3-5.1-1-1.8-2.4-3.5-3.6-5.3-1.3-1.7-2.7-3.4-4.2-5-1.5-1.4-2.8-2.9-4.4-4.2.4-.1.7-.2 1.1-.3 0 0-21.3-63.6-90.1-51.7 0 0 16.2 72.7 85.5 53.1.4.3.8.6 1.1.9 1.7 1.2 3 2.9 4.5 4.3 1.4 1.5 2.7 3.2 4 4.8 1.2 1.7 2.5 3.3 3.4 5 1.1 1.7 2 3.3 2.9 4.9.9 1.6 1.6 3.2 2.3 4.6.4.7.5 1.5.9 2.1.1.1.1.2.2.3 0 2.5 0 5-.2 7.5l-.3 8.1c-.2 2.7-.6 5.4-.8 8-.3 2.7-.5 5.3-.8 7.9-.4 2.6-.8 5.2-1.2 7.7-.8 5.1-1.5 10-2.7 14.8-1.1 4.8-2.1 9.4-3.1 13.9-.3 1.1-.6 2.1-.9 3.1-.2-1-.5-2-.8-3-1.4-4.5-3.6-8.6-5.6-11.5-.3-.3-.4-.8-.7-1-.3-.3-.6-.5-.9-.7-.4-.3-.7-.5-1.1-.7-.6-7.1-7.1-58.7-64.2-64.6 0 0-3.7 67.7 63 65.4.1.4.3.8.4 1.3.1.3.2.7.4 1.1.1.4.5.6.7 1 1.8 2.7 3.9 6.6 5.2 10.7.7 2.1 1.2 4.2 1.4 6.2.2 1 .2 2 .3 2.9v.4l-.6 2.4c-.6 2.1-1.1 4.1-1.7 6.1-.6 2-1.2 3.8-1.7 5.8-.9 3.8-1.8 7.4-2.7 10.8-1.6 6.8-3.3 12.6-4.8 17.5-2.8 9.7-4.3 15.3-4.3 15.3s2.4-5.2 6.4-14.5c2-4.6 4.5-10.3 6.9-16.9.9-2.3 1.8-4.6 2.8-7.1l.6-.3c.3-.2.7-.3 1.1-.5.4-.2.6-.6 1-.8.7-.6 1.3-1.3 2.2-1.8.8-.6 1.7-1.2 2.7-1.8.9-.6 1.8-1.3 2.9-1.9 1-.5 2.1-1.1 3.2-1.6s2.1-1.1 3.2-1.5c1.1-.4 2.2-.8 3.2-1.2 1-.5 2.1-.6 3.1-.9 1-.2 1.9-.6 2.8-.7.4-.1.9 0 1.3-.2l.6-.3c11.8 3.1 66.3 13.9 102.4-42.9 0 0-69.1-32.4-103.8 40.3-.3.1-.7.2-1 .2-.9.1-1.9.5-3 .7-1 .3-2.2.5-3.3 1-1.1.4-2.2.8-3.4 1.3-1.2.4-2.3 1-3.4 1.6-1.1.6-2.2 1.1-3.3 1.7-1.1.6-2 1.3-3 2s-1.9 1.3-2.8 1.9l-1.2.9c1.1-3.2 1.9-6.7 2.9-10.3 1.1-4.2 2.3-8.5 3.5-13.1 1-4.6 2-9.3 3.1-14.2 1.2-4.8 1.9-9.9 2.8-15.1.4-2.6.8-5.2 1.3-7.8.2-1.4.3-2.8.4-4.1.2-.1.3-.1.5-.2.3-.1.4-.4.7-.6l6.4-6.4 6.4-6.4c.1-.2.3-.3.4-.4 15-2.2 65.5-14.1 77.6-77.4 0 0-77.3-4.8-81.8 77.3-1.5 1.5-3.1 3.2-4.8 4.8l-5 5c.3-2.5.6-5.1.8-7.7.1-2.8.2-5.6.4-8.4.4-5.6.1-11.3 0-17 0-2.9-.3-5.7-.5-8.6-.3-2.9-.4-5.8-.8-8.7-.6-4.3-1.2-8.6-1.9-12.8.1-.5.1-.9.2-1.4.3-2.7.4-5.8 1-9.2.5-3.4 1-6.9 1.8-10.5 1.3-7.1 2.9-14.2 4.1-19.6.1-.7.4-1.3.4-1.9 0-.3 0-.7.1-1 7.5-3.7 62.3-33.6 38.2-100.7 0 0-75.9 46.8-40.4 99.2 0 .1-.1.1-.1.2-.2.5-.5 1.1-.7 1.7-.2.6-.2 1.3-.4 1.9-1.2 5.3-2.9 12.5-4.2 19.7-.7 3.6-1.2 7.2-1.8 10.6 0 .2 0 .5-.1.7-1.8-9.4-4.1-18.6-6.2-27.7-1.3-5.5-2.5-10.9-3.8-16.3-1.2-5.3-2.2-10.8-3.2-16-.8-5.3-1.7-10.5-2.5-15.6-.4-2.5-.8-5.1-1.2-7.5-.3-2.5-.5-5-.8-7.4-.5-4.4-.9-8.6-1.4-12.8.2-1.2.3-2.4.7-3.6.4-1.5.7-3 1.2-4.5.4-1.5 1-3 1.6-4.4.5-1.4 1.3-2.8 1.9-4.1 1.3-2.6 2.7-5 4.1-7 .3-.5.7-.9.9-1.4.2-.5.5-1 .6-1.4v-.1c11.9-3.7 50.2-19.5 40-66.9 0 0-54.8 12.9-43.6 67.3-.2.3-.3.6-.6.9-1.4 2.1-2.9 4.6-4.3 7.3-.6 1.4-1.4 2.8-2 4.4-.6 1.3-1 2.7-1.5 4.1-.1-1.8-.2-3.5-.3-5.2.3-5 .2-9.1 0-13z"/><path class="st1" d="M625.1 885.8c0 5.2-4.2 9.4-9.4 9.4s-9.4-4.2-9.4-9.4 4.2-9.4 9.4-9.4 9.4 4.2 9.4 9.4zM678.4 885.8c0 5.2-4.2 9.4-9.4 9.4s-9.4-4.2-9.4-9.4 4.2-9.4 9.4-9.4 9.4 4.2 9.4 9.4zM731.7 885.8c0 5.2-4.2 9.4-9.4 9.4s-9.4-4.2-9.4-9.4 4.2-9.4 9.4-9.4 9.4 4.2 9.4 9.4zM784.9 885.8c0 5.2-4.2 9.4-9.4 9.4s-9.4-4.2-9.4-9.4 4.2-9.4 9.4-9.4 9.4 4.2 9.4 9.4zM838.2 885.8c0 5.2-4.2 9.4-9.4 9.4s-9.4-4.2-9.4-9.4 4.2-9.4 9.4-9.4 9.4 4.2 9.4 9.4zM891.5 885.8c0 5.2-4.2 9.4-9.4 9.4s-9.4-4.2-9.4-9.4 4.2-9.4 9.4-9.4 9.4 4.2 9.4 9.4zM625.1 944c0 5.2-4.2 9.4-9.4 9.4s-9.4-4.2-9.4-9.4 4.2-9.4 9.4-9.4c5.2.1 9.4 4.3 9.4 9.4zM678.4 944c0 5.2-4.2 9.4-9.4 9.4s-9.4-4.2-9.4-9.4 4.2-9.4 9.4-9.4c5.2.1 9.4 4.3 9.4 9.4zM731.7 944c0 5.2-4.2 9.4-9.4 9.4s-9.4-4.2-9.4-9.4 4.2-9.4 9.4-9.4c5.2.1 9.4 4.3 9.4 9.4zM784.9 944c0 5.2-4.2 9.4-9.4 9.4s-9.4-4.2-9.4-9.4 4.2-9.4 9.4-9.4c5.2.1 9.4 4.3 9.4 9.4zM838.2 944c0 5.2-4.2 9.4-9.4 9.4s-9.4-4.2-9.4-9.4 4.2-9.4 9.4-9.4c5.2.1 9.4 4.3 9.4 9.4zM891.5 944c0 5.2-4.2 9.4-9.4 9.4s-9.4-4.2-9.4-9.4 4.2-9.4 9.4-9.4c5.2.1 9.4 4.3 9.4 9.4zM625.1 1002.3c0 5.2-4.2 9.4-9.4 9.4s-9.4-4.2-9.4-9.4 4.2-9.4 9.4-9.4 9.4 4.2 9.4 9.4zM678.4 1002.3c0 5.2-4.2 9.4-9.4 9.4s-9.4-4.2-9.4-9.4 4.2-9.4 9.4-9.4 9.4 4.2 9.4 9.4zM731.7 1002.3c0 5.2-4.2 9.4-9.4 9.4s-9.4-4.2-9.4-9.4 4.2-9.4 9.4-9.4 9.4 4.2 9.4 9.4zM784.9 1002.3c0 5.2-4.2 9.4-9.4 9.4s-9.4-4.2-9.4-9.4 4.2-9.4 9.4-9.4 9.4 4.2 9.4 9.4zM838.2 1002.3c0 5.2-4.2 9.4-9.4 9.4s-9.4-4.2-9.4-9.4 4.2-9.4 9.4-9.4 9.4 4.2 9.4 9.4zM891.5 1002.3c0 5.2-4.2 9.4-9.4 9.4s-9.4-4.2-9.4-9.4 4.2-9.4 9.4-9.4 9.4 4.2 9.4 9.4zM625.1 1060.6c0 5.2-4.2 9.4-9.4 9.4s-9.4-4.2-9.4-9.4 4.2-9.4 9.4-9.4 9.4 4.2 9.4 9.4zM678.4 1060.6c0 5.2-4.2 9.4-9.4 9.4s-9.4-4.2-9.4-9.4 4.2-9.4 9.4-9.4 9.4 4.2 9.4 9.4zM731.7 1060.6c0 5.2-4.2 9.4-9.4 9.4s-9.4-4.2-9.4-9.4 4.2-9.4 9.4-9.4 9.4 4.2 9.4 9.4zM784.9 1060.6c0 5.2-4.2 9.4-9.4 9.4s-9.4-4.2-9.4-9.4 4.2-9.4 9.4-9.4 9.4 4.2 9.4 9.4zM838.2 1060.6c0 5.2-4.2 9.4-9.4 9.4s-9.4-4.2-9.4-9.4 4.2-9.4 9.4-9.4 9.4 4.2 9.4 9.4zM891.5 1060.6c0 5.2-4.2 9.4-9.4 9.4s-9.4-4.2-9.4-9.4 4.2-9.4 9.4-9.4 9.4 4.2 9.4 9.4zM1710 388.8c0 3.8-3.1 6.9-6.9 6.9-3.8 0-6.9-3.1-6.9-6.9 0-3.8 3.1-6.9 6.9-6.9 3.8.1 6.9 3.1 6.9 6.9zM1749.2 388.8c0 3.8-3.1 6.9-6.9 6.9-3.8 0-6.9-3.1-6.9-6.9 0-3.8 3.1-6.9 6.9-6.9 3.8.1 6.9 3.1 6.9 6.9zM1788.4 388.8c0 3.8-3.1 6.9-6.9 6.9-3.8 0-6.9-3.1-6.9-6.9 0-3.8 3.1-6.9 6.9-6.9 3.8.1 6.9 3.1 6.9 6.9zM1827.6 388.8c0 3.8-3.1 6.9-6.9 6.9-3.8 0-6.9-3.1-6.9-6.9 0-3.8 3.1-6.9 6.9-6.9 3.8.1 6.9 3.1 6.9 6.9zM1866.8 388.8c0 3.8-3.1 6.9-6.9 6.9-3.8 0-6.9-3.1-6.9-6.9 0-3.8 3.1-6.9 6.9-6.9 3.8.1 6.9 3.1 6.9 6.9zM1906 388.8c0 3.8-3.1 6.9-6.9 6.9-3.8 0-6.9-3.1-6.9-6.9 0-3.8 3.1-6.9 6.9-6.9 3.8.1 6.9 3.1 6.9 6.9zM1710 431.7c0 3.8-3.1 6.9-6.9 6.9-3.8 0-6.9-3.1-6.9-6.9 0-3.8 3.1-6.9 6.9-6.9 3.8 0 6.9 3.1 6.9 6.9zM1749.2 431.7c0 3.8-3.1 6.9-6.9 6.9-3.8 0-6.9-3.1-6.9-6.9 0-3.8 3.1-6.9 6.9-6.9 3.8 0 6.9 3.1 6.9 6.9zM1788.4 431.7c0 3.8-3.1 6.9-6.9 6.9-3.8 0-6.9-3.1-6.9-6.9 0-3.8 3.1-6.9 6.9-6.9 3.8 0 6.9 3.1 6.9 6.9zM1827.6 431.7c0 3.8-3.1 6.9-6.9 6.9-3.8 0-6.9-3.1-6.9-6.9 0-3.8 3.1-6.9 6.9-6.9 3.8 0 6.9 3.1 6.9 6.9zM1866.8 431.7c0 3.8-3.1 6.9-6.9 6.9-3.8 0-6.9-3.1-6.9-6.9 0-3.8 3.1-6.9 6.9-6.9 3.8 0 6.9 3.1 6.9 6.9zM1906 431.7c0 3.8-3.1 6.9-6.9 6.9-3.8 0-6.9-3.1-6.9-6.9 0-3.8 3.1-6.9 6.9-6.9 3.8 0 6.9 3.1 6.9 6.9zM1710 474.6c0 3.8-3.1 6.9-6.9 6.9-3.8 0-6.9-3.1-6.9-6.9 0-3.8 3.1-6.9 6.9-6.9 3.8 0 6.9 3.1 6.9 6.9zM1749.2 474.6c0 3.8-3.1 6.9-6.9 6.9-3.8 0-6.9-3.1-6.9-6.9 0-3.8 3.1-6.9 6.9-6.9 3.8 0 6.9 3.1 6.9 6.9zM1788.4 474.6c0 3.8-3.1 6.9-6.9 6.9-3.8 0-6.9-3.1-6.9-6.9 0-3.8 3.1-6.9 6.9-6.9 3.8 0 6.9 3.1 6.9 6.9zM1827.6 474.6c0 3.8-3.1 6.9-6.9 6.9-3.8 0-6.9-3.1-6.9-6.9 0-3.8 3.1-6.9 6.9-6.9 3.8 0 6.9 3.1 6.9 6.9zM1866.8 474.6c0 3.8-3.1 6.9-6.9 6.9-3.8 0-6.9-3.1-6.9-6.9 0-3.8 3.1-6.9 6.9-6.9 3.8 0 6.9 3.1 6.9 6.9zM1906 474.6c0 3.8-3.1 6.9-6.9 6.9-3.8 0-6.9-3.1-6.9-6.9 0-3.8 3.1-6.9 6.9-6.9 3.8 0 6.9 3.1 6.9 6.9zM1710 517.5c0 3.8-3.1 6.9-6.9 6.9-3.8 0-6.9-3.1-6.9-6.9 0-3.8 3.1-6.9 6.9-6.9 3.8 0 6.9 3.1 6.9 6.9zM1749.2 517.5c0 3.8-3.1 6.9-6.9 6.9-3.8 0-6.9-3.1-6.9-6.9 0-3.8 3.1-6.9 6.9-6.9 3.8 0 6.9 3.1 6.9 6.9zM1788.4 517.5c0 3.8-3.1 6.9-6.9 6.9-3.8 0-6.9-3.1-6.9-6.9 0-3.8 3.1-6.9 6.9-6.9 3.8 0 6.9 3.1 6.9 6.9zM1827.6 517.5c0 3.8-3.1 6.9-6.9 6.9-3.8 0-6.9-3.1-6.9-6.9 0-3.8 3.1-6.9 6.9-6.9 3.8 0 6.9 3.1 6.9 6.9zM1866.8 517.5c0 3.8-3.1 6.9-6.9 6.9-3.8 0-6.9-3.1-6.9-6.9 0-3.8 3.1-6.9 6.9-6.9 3.8 0 6.9 3.1 6.9 6.9zM1906 517.5c0 3.8-3.1 6.9-6.9 6.9-3.8 0-6.9-3.1-6.9-6.9 0-3.8 3.1-6.9 6.9-6.9 3.8 0 6.9 3.1 6.9 6.9z"/><path class="st8" d="M1414.9 1443s-52.4-263.1-4.7-245.3c47.7 17.8 54.3 220.9 32.8 250M1409.8 1452.7s-9.3-107.4-60.7-101.8c-51.4 5.6 23.4 93.4 36.4 101.8"/><path class="st8" d="M1350.1 1307s-14 42 23.4 34.6c37.4-7.5 26.5-8.9 26.5-8.9"/><path class="st8" d="M1421 1451.8s-12.1-160.7-29.9-167.2c-17.7-6.5-47.6 7.5-41.1 22.4 6.5 14.9 50.4 145.7 50.4 145.7M1527.3 1275.5s12.2 50.6-11.2 67.4c-23.4 16.8-41.2-14-41.2-14l-3.7-55.2"/><path class="st8" d="M1430.8 1448.6s13.1-213.4 59-200.3c45.9 13.1 37.4 38.4 37.4 38.4s-11.2-10.3-17.8 2.8c-6.6 13.1-40.3 162.9-40.3 162.9"/><path class="st5" d="M1451.5 1449.1s18.7-106.2 69.4-96.1c50.7 10.1-31.5 91-45.2 98.2"/><path class="st10" d="M1409.3 1210.9s24.6 153.5 16.2 237.7M1373.7 1293.2s31.8 111.4 34.6 149.8M1348.5 1365.3s37.4 56.2 43.1 80.5M1491.7 1263.3s-38.4 115.1-48.7 177.9M1461.2 1448l-.9-.5c21.3-38 51.2-77.4 51.5-77.8l.8.6c-.2.4-30.1 39.8-51.4 77.7z"/><path class="st8" d="M1357.5 1444h154.8v34.6h-154.8z"/><path class="st1" d="M2736.4 940.7v-20.5H2720c-1.4-6.8-4.1-13.2-7.8-18.8l11.6-11.6-14.5-14.5-11.6 11.6c-5.6-3.7-12-6.4-18.8-7.8v-16.4h-20.5v16.4c-6.8 1.4-13.2 4.1-18.8 7.8l-11.6-11.6-14.5 14.5 11.6 11.6c-3.7 5.6-6.4 12-7.8 18.8H2601v20.5h16.4c1.4 6.8 4.1 13.2 7.8 18.8l-11.6 11.6 14.5 14.5 11.6-11.6c5.6 3.7 12 6.4 18.8 7.8v16.4h20.5v-16.4c6.8-1.4 13.2-4.1 18.8-7.8l11.6 11.6 14.5-14.5-11.6-11.6c3.7-5.6 6.4-12 7.8-18.8h16.3zm-67.7 18.7c-16 0-29-13-29-29s13-29 29-29 29 13 29 29-13 29-29 29zM2078 402.1v-14.4h-11.5c-1-4.8-2.8-9.3-5.5-13.2l8.1-8.1-10.2-10.2-8.1 8.1c-3.9-2.6-8.4-4.5-13.2-5.5v-11.5h-14.4v11.5c-4.8 1-9.3 2.8-13.2 5.5l-8.1-8.1-10.2 10.2 8.1 8.1c-2.6 3.9-4.5 8.4-5.5 13.2H1983v14.4h11.5c1 4.8 2.8 9.3 5.5 13.2l-8.1 8.1 10.2 10.2 8.1-8.1c3.9 2.6 8.4 4.5 13.2 5.5v11.5h14.4V431c4.8-1 9.3-2.8 13.2-5.5l8.1 8.1 10.2-10.2-8.1-8.1c2.6-3.9 4.5-8.4 5.5-13.2h11.3zm-47.5 13.2c-11.2 0-20.4-9.1-20.4-20.4 0-11.2 9.1-20.4 20.4-20.4 11.2 0 20.3 9.1 20.3 20.4 0 11.3-9.1 20.4-20.3 20.4z"/><path class="st4" d="M2082.4 1337.4c0 20.2-16.4 36.5-36.5 36.5h-263.1c-20.2 0-36.5-16.4-36.5-36.5h0c0-20.2 16.3-36.5 36.5-36.5h263.1c20.1-.1 36.5 16.3 36.5 36.5h0zM2082.4 1126.9c0 20.2-16.4 36.5-36.5 36.5h-263.1c-20.2 0-36.5-16.4-36.5-36.5h0c0-20.2 16.3-36.5 36.5-36.5h263.1c20.1-.1 36.5 16.3 36.5 36.5h0z"/><path class="st1" d="M1923.3 1138.1c0 9.7-7.9 17.5-17.5 17.5h-126.3c-9.7 0-17.5-7.9-17.5-17.5 0-9.7 7.8-17.5 17.5-17.5h126.3c9.7 0 17.5 7.8 17.5 17.5zM1929.4 1346.2c0 9.7-7.9 17.5-17.5 17.5h-126.3c-9.7 0-17.5-7.9-17.5-17.5 0-9.7 7.8-17.5 17.5-17.5h126.3c9.6 0 17.5 7.9 17.5 17.5z"/><path d="M2890.8 1255.5c-56.5 0-94.7-2.6-99.7-3l5.3-72.4c3.8.3 360.9 24.8 551.5-83.7-23.5-17.3-45.4-36.7-64.9-57.8-66.5-72-94.7-149.7-75.4-208 16.9-50.9 53.2-80.2 99.7-80.3h.2c71.7 0 154.6 73.1 184.8 163.2 21 62.6 13.6 122.1-19.9 170.5 52.7 21.5 112.4 30.8 173.3 15.8 137.8-34 246.3-184.3 313.6-434.8l70.1 18.8c-39.3 146-92.6 261.9-158.5 344.5-59.8 74.9-129.7 122.7-207.8 141.9-68.7 16.9-143 10.8-214.9-17.8-10.5-4.2-21-8.8-31.3-13.9-143.8 101.4-389 117-526.1 117zm416.7-432.6c-6.3 0-21 0-31.1 30.6-8.7 26.1 6.5 78.2 59.8 135.9 19.3 20.9 43.6 41.9 71.4 60.3 30.8-38.4 26.6-81.3 16-113-21.6-64.2-80.1-113.8-116.1-113.8z"/><path class="st11" d="M3451.3 1066c100.7-143.9-138.9-366.7-190.4-211.4-56.2 169.3 504.6 627 716-159.5"/><path class="st11" d="M2834.3 1210.7s362.9 26.7 554.2-89.9"/><path class="st4" d="m2637.6 1366.8 20.7 44-41.7 11.9-19.2-44.7M2377.2 1394.6l11.6 46.5-41 10.5-1.7-53.3"/><path class="st12" d="M2420.1 842.8s56 33.7 71.8 81c15.8 47.3 32.3 254.7 58.4 289.3 26 34.6 110.9 147.7 110.9 147.7l-65 37.4s-97.2-132.7-120-171.2c-22.9-38.4-60.7-212-60.7-212s-48.9 134.2-51.3 189.5c-2.4 55.2 37 204 37 204l-65.4 1.9s-41-139.9-45-212.3c-3.9-72.4 46.5-285.3 46.5-285.3"/><path class="st8" d="M2208.6 964.1c11.6-36.6 17.2-79.3 6.8-124-29.6-126.6-66.2-66.2-66.2-31.9 0 0 12.2 71.6 5.6 143.7 9.7 6.9 26.5 14 53.8 12.2z"/><path class="st4" d="M2154.8 951.9c-4.1 44.7-15.3 89.6-41.1 117.7l31.9 8.3s41.6-46.6 63-113.8c-27.3 1.8-44.1-5.3-53.8-12.2z"/><path class="st12" d="M2142.1 807s11.8-68.6 84-59.2c72.2 9.5 194 94.6 194 94.6s-42.6 87.5-78.1 88.7c-35.5 1.2-199.9-68.6-199.9-119.5"/><path style="fill:#b4cceb;stroke:#2a599e;stroke-width:3;stroke-linecap:round;stroke-linejoin:round;stroke-miterlimit:10" d="m2118.4 1072.5-13.6 24.3-28.4 23.7 63.3 4.1-5.9-18.9 7.1-28.4"/><path class="st1" d="M2223.1 871.7s-30.2-49.8-18.3-79c11.8-29.2 23.1-31.1 23.1-31.1s-52.1-22.1-62.8 22.2c-10.6 44.4 27.5 74.5 27.5 74.5l30.5 13.4z"/><path class="st1" d="M2236.1 860.4s-44.4-94.4 28.6-87.3c60.9 5.9 95.1 69.3 84.8 85.5-10.2 16.1-113.4 1.8-113.4 1.8z"/><path class="st8" d="m2622.5 1456.6 3.7-6.6 45.6-10.6 6 12s-131.2 37-135.2 27.4c-1.3-3-2.3-4.8-2.3-6.4l82.2-15.8z"/><path class="st8" d="m2622.5 1456.6-82.2 15.8c0-3.5-6.4-6.2 10.8-20.4 9.4-7.7 31.2-11.6 38-18.8 11.7-12.2 16.5-26.2 16.5-26.2s21.2 18.7 30.5 13c9.3-5.7 20.3-11.3 20.3-11.3l15.3 30.7-45.6 10.6-3.6 6.6zM2349.3 1473.8l4.9-5.8 46.8-1.8 3.6 12.9s-135.8 11.6-137.9 1.5c-.7-3.2-1.4-5.1-1.1-6.7l83.7-.1z"/><path class="st8" d="M2349.3 1473.8h-83.7c.6-3.4-5.1-7.3 14.5-18 10.6-5.8 32.8-5.5 40.9-11.3 13.8-9.8 21.1-22.6 21.1-22.6s17.3 22.4 27.5 18.5c10.2-3.9 22.1-7.3 22.1-7.3l9.3 33-46.8 1.8-4.9 5.9z"/><path class="st4" d="m2160.4 771.5 28.7 1.2s10.1 12.6 8 26.2c-2.1 13.2-10.5 20.3-19.5 21.3s-14.8-18.8-14.8-18.8"/><path class="st4" d="M2107.8 800.6s36.3 72.6 52.1 52.1c15.8-20.5 10.6-78.9 10.6-78.9s-31.2-4.7-62.7 26.8z"/><path d="m2147.6 795.1 12.2 6.5s-2.8-6.9 1.4-8.7c4.1-1.8 12.6 3.4 10.4 12l8.3-13-9.7-24.6"/><path d="M2171.6 767.5s-2-35.7-36.9-31c-20.3 2.8-61.7 38.1-31 68.8.1.1 49.8 10.3 67.9-37.8z"/><path class="st4" d="M2318.3 926.8s104.9-25.2 99.8-84l22.5 16.2s-7.3 33.2-30.7 51.5c-21.5 16.8-50.9 25.9-75.4 24.6l-16.2-8.3z"/><path transform="rotate(-78.784 2179.895 956.091)" class="st8" d="M2163.9 913.4h32v85.4h-32z"/><path class="st4" d="M2018.6 962.9c-16.9 0-32.6 3-45.8 8.1h-.6c-8.9 0-17.5 5.6-25.4 15.7-7.1 6.6-11.8 14.3-13.3 22.6-20.6 44.6-34.3 123.6-34.3 213.8 0 139.2 32.7 252.1 73.1 252.1 3.8 0 33.9 1.7 46.4 1.7 47.3 0 85.7-23.4 85.7-52.2v-409.5c-.1-28.9-38.5-52.3-85.8-52.3z"/><path class="st5" d="M2142.6 1223c0 139.2-32.7 252.1-73.1 252.1-40.3 0-73.1-112.9-73.1-252.1s32.7-252.1 73.1-252.1c40.4.1 73.1 112.9 73.1 252.1z"/><path class="st4" d="M2469.3 1220.7c0-30.7 24.9-55.5 55.6-55.5H2788c30.7 0 55.6 24.9 55.6 55.5h0c0 30.7-24.9 55.5-55.6 55.5h-263.1c-30.7 0-55.6-24.9-55.6-55.5h0z"/><path class="st1" d="M2810 1178.1c-1.8 24.8-22.5 44.4-47.8 44.4h-227.3c-10 0-19.2-3-26.9-8.3-.1 1.2-.2 2.3-.2 3.5 0 26.5 21.5 48 48 48H2783c26.5 0 48-21.5 48-48 0-16.4-8.3-30.9-21-39.6z"/><path class="st4" d="M2352.4 1200.2c0-57.3 46.5-103.8 103.8-103.8h0c57.3 0 103.8 46.5 103.8 103.8v40.9c0 57.3-46.5 103.8-103.8 103.8h0c-57.3 0-103.8-46.5-103.8-103.8v-40.9z"/><path class="st1" d="M2499.3 1281c-51.8 0-93.7-41.9-93.7-93.7v-36.9c0-12.9 2.6-25.2 7.3-36.3-28.1 16.2-47 46.5-47 81.2v36.9c0 51.8 41.9 93.7 93.7 93.7 38.9 0 72.2-23.7 86.4-57.4-13.8 8-29.7 12.5-46.7 12.5z"/><path class="st4" d="M2337.7 1024.8H2130.1c-17.1 0-33.3 3.7-47.9 10.3-39.3 84.7-57.4 273.9 0 371.2 14.6 6.6 30.8 10.3 47.9 10.3h207.5c64.6 0 116.9-52.3 116.9-116.9v-157.9c.2-64.7-52.2-117-116.8-117z"/><path class="st1" d="M2411.8 1343.1h-186.5c-15.3 0-29.9-3.3-43.1-9.2-42.9-72.6-38.9-202.1-16.1-287.6h-28.9c-15.4 0-29.9 3.3-43.1 9.2-35.3 76.1-51.6 246.1 0 333.6 13.1 5.9 27.7 9.2 43.1 9.2h186.5c40.1 0 74.9-22.4 92.6-55.4-1.5.2-3 .2-4.5.2z"/><path class="st8" d="M2293.1 951c4.6-27.3 6.4-88.1-2.5-118-24.3-81.9-60.2-31.3-60.2-1 0 0 4 57.6 1.3 121.4 14.2 1 37.1 1.7 61.4-2.4z"/><path class="st4" d="M2231.8 953.3c-2.2 51.6-8.8 112.9-39 145.7l22.9 6.5s62.9-68.1 77.4-154.5c-24.3 4.1-47.2 3.4-61.3 2.3z"/><path class="st8" d="M2217.4 947.5h86.4v36.3h-86.4z"/><path d="m2220.2 1098.1-24.8-9.6s-1.9.3-3.8 1.1-1.2 6.9-1.2 6.9-15 10.5-22 21.9c-7.1 11.3-21.6 19.4-15.9 21.9 5.8 2.5 10.3-7.8 12.7-5.4 1.2 1.2-2.3 11-7.7 19.7-5.5 8.7-12.9 16.3-8.5 17.2 8.8 1.8 25.5-26.4 25.5-26.4s-3.4 9.9-7.5 20c-4.5 10.8-9.6 22-4.5 24 4.5 1.8 8.5-8.3 13.7-17.7 5.2-9.2 11.6-17.9 11.6-17.9s-11.2 33.7-6.2 31.8c5-1.9 14.3-32.2 16.4-31.3 2.1.9-3.7 22.3 0 21.9 3.6-.5 14.9-36.8 14.9-36.8s9.5-20.1 5.5-32.9c0 0 6.1-4.9 1.8-8.4z"/><path class="st8" d="M2493.9 895.8c3.9 6 2.1 14-3.9 17.9l-29.5 18.9c-6 3.9-14 2.1-17.9-3.9l-38.4-60c-3.9-6-2.1-14 3.9-17.9l29.5-18.9c6-3.9 14-2.1 17.9 3.9l38.4 60z"/><path class="st8" d="M2419 888.7s37.1-1.5 52.8-29.2"/><path d="M2403.4 663.9c0 22.6-18.3 41-41 41h-136.6c-22.6 0-41-18.3-41-41 0-22.6 18.3-41 41-41h136.6c22.7 0 41 18.3 41 41z"/><path d="M2184.9 663.9h48.6v40.8h-48.6zM856.8 591.3H658.1c-32.9 0-59.6 30.4-59.6 67.9 0 37.5 26.7 67.9 59.6 67.9h198.7c1.8 0 3.5-.1 5.3-.3h54.3v-67.6c0-37.5-26.7-67.9-59.6-67.9z"/><circle class="st9" cx="2254.7" cy="662.5" r="6.1"/><circle class="st9" cx="2294.2" cy="662.5" r="6.1"/><circle class="st9" cx="2333.6" cy="662.5" r="6.1"/><path class="st9" d="M703.3 671.8h-7.1l-2.9 18h-8.8l2.9-18h-9.8v-8.1h11.1l1.9-11.6H681V644h11l3-18.3h8.7l-3 18.3h7.1l3-18.3h8.8l-3 18.3h10.2v8.1h-11.5l-1.9 11.6h10.1v8.1h-11.4l-2.9 18h-8.8l2.9-18zm-5.8-8.1h7.1l1.9-11.6h-7.1l-1.9 11.6zM764 671.8h-7.1l-2.9 18h-8.8l2.9-18h-9.8v-8.1h11.1l1.9-11.6h-9.7V644h11l3-18.3h8.7l-3 18.3h7.1l3-18.3h8.8l-3 18.3h10.2v8.1H776l-1.9 11.6h10.1v8.1h-11.4l-2.9 18h-8.8l2.9-18zm-5.8-8.1h7.1l1.9-11.6h-7.1l-1.9 11.6zM824.7 671.8h-7.1l-2.9 18h-8.8l2.9-18H799v-8.1h11.1l1.9-11.6h-9.7V644h11l3-18.3h8.7l-3 18.3h7.1l3-18.3h8.8l-3 18.3h10.2v8.1h-11.5l-1.9 11.6h10.1v8.1h-11.4l-2.9 18h-8.8l3-18zm-5.8-8.1h7.1l1.9-11.6h-7.1l-1.9 11.6z"/></svg>