<svg version="1.1" id="Layer_1" xmlns="http://www.w3.org/2000/svg" x="0" y="0" viewBox="0 0 565.8 382.8" style="enable-background:new 0 0 565.8 382.8" xml:space="preserve"><style>.st0{fill:#fff}.st1{opacity:.55;fill:#d8d8d8}.st2{fill:none;stroke:#000}.st2,.st3,.st6{stroke-width:3;stroke-miterlimit:10}.st3{fill:#ff9f36;stroke:#640917;stroke-linecap:round}.st6{fill:#fff;stroke:#000}.st6,.st8{stroke-linecap:round}.st10,.st11,.st8{stroke:#000;stroke-width:3;stroke-miterlimit:10}.st10{fill:none;stroke-linecap:round}.st11{fill:#fff}</style><g id="XMLID_1_"><path id="XMLID_67_" class="st0" d="M349.6 260.7c0 3.6 1.5 6.8 3.8 9.2 2.3 2.3 5.6 3.8 9.2 3.8h62.6c7.2 0 13-5.8 13-13 0-3.6-1.5-6.8-3.8-9.2-2-2-4.7-3.3-7.6-3.7-.5-.1-1-.1-1.6-.1h-62.6c-7.2 0-13 5.8-13 13z"/><path id="XMLID_66_" class="st0" d="M208.9 178.5v78.4h41.2c4 0 8 1 11.6 3 12 6.4 25 10.7 38.4 12.6 5.5.8 11.2 1.2 16.8 1.2h10.4v-86h-21.9s2.2-2-7.1-2.1l21.2-44.3 18.1-4.3 12.6-3h.2c2.6-.6 5-1.6 7.2-2.9 8.9-5.2 14-15.3 12.7-25.7-.4-2.8-3.1-4.7-5.9-4.1l-51.6 12.4c-6.6 1.6-12.3 5.4-16.3 10.9l-34.7 48.3c-2.5 3.5-6.5 5.6-10.8 5.6h-42.1z"/><path id="XMLID_65_" class="st0" d="M363.3 102c-1.4 2.9-4 5-7.2 5.8l-12.8 3.2-1.2-3.9"/><path id="XMLID_64_" class="st1" d="M270.8 211.7c0 24.6 11.4 46.5 29.2 60.8 5.5.8 11.2 1.2 16.8 1.2h10.4v-86h-21.9s2.2-2-7.1-2.1l21.2-45.2s-48.6 18.5-48.6 71.3z"/><path id="XMLID_63_" class="st1" d="M340.3 260.7c0 3.6 1.5 6.8 3.8 9.2 2.3 2.3 5.6 3.8 9.2 3.8h42.3c9.1-6.9 16.5-15.7 21.9-25.8-.5-.1-1-.1-1.6-.1h-62.6c-7.2-.1-13 5.7-13 12.9z"/><path id="XMLID_62_" class="st2" d="M349.6 260.7c0 3.6 1.5 6.8 3.8 9.2 2.3 2.3 5.6 3.8 9.2 3.8h62.6c7.2 0 13-5.8 13-13 0-3.6-1.5-6.8-3.8-9.2-2-2-4.7-3.3-7.6-3.7-.5-.1-1-.1-1.6-.1h-62.6c-7.2 0-13 5.8-13 13z"/><path id="XMLID_61_" class="st2" d="M208.9 178.5h41.9c4.3 0 8.3-2.1 10.8-5.6l34.7-48.3c3.9-5.5 9.7-9.4 16.3-10.9l51.6-12.4c2.8-.7 5.5 1.2 5.9 4.1 1.6 12.9-6.7 25.5-19.9 28.6l-30.8 7.3-21.2 44.3c9.2 0 7.1 2.1 7.1 2.1h21.9v86h-10.4c-19.3 0-38.2-4.8-55.2-13.8-3.6-1.9-7.5-3-11.6-3h-41.2v-78.4z"/><path id="XMLID_60_" class="st3" d="M344.3 142.4v6.5h8.4v-6.5"/><path id="XMLID_59_" transform="rotate(-180 348.515 143.997)" style="fill:#f4891e" d="M344.3 142.4h8.3v3.3h-8.3z"/><path id="XMLID_58_" style="fill:none;stroke:#640917;stroke-width:3;stroke-linecap:round;stroke-miterlimit:10" d="M344.3 142.4v6.4h8.4v-6.4"/><path class="st6" d="M279.2 211.7c0 38.3 31 69.3 69.3 69.3 22.9 0 43.1-11.1 55.8-28.2 5.6-7.6 9.7-16.3 11.8-25.8v-.2c1.1-4.9 1.7-10 1.7-15.2 0-13-3.6-25.2-9.8-35.6-12.1-20.2-34.2-33.7-59.5-33.7-38.3.1-69.3 31.1-69.3 69.4z"/><circle id="XMLID_57_" class="st6" cx="348.5" cy="211.7" r="59.6"/><path class="st1" d="M386.1 239.9c0 7.2 5.8 13 13 13h5.2c5.6-7.6 9.7-16.3 11.8-25.8-.7-.1-1.4-.2-2.1-.2h2.1c1.1-4.9 1.7-10 1.7-15.2 0-13-3.6-25.2-9.8-35.6h-7.1c-7.2 0-13 5.8-13 13 0 6.3 4.5 11.6 10.5 12.7-2.5.9-4.6 2.6-6.1 4.7s-2.4 4.7-2.4 7.5c0 7.2 5.8 13 13 13h-3.8c-3.6 0-6.8 1.5-9.2 3.8-2.3 2.3-3.8 5.5-3.8 9.1z"/><path id="XMLID_56_" style="fill:#ff9f36;stroke:#000;stroke-width:1.7993;stroke-linecap:round;stroke-miterlimit:10" d="m368 230.7-49.7-48.4"/><circle id="XMLID_55_" class="st8" cx="348.5" cy="211.7" r="3.3"/><circle id="XMLID_54_" cx="369.6" cy="232.1" r="2"/><path id="XMLID_53_" style="fill:none;stroke:#000;stroke-width:1.7993;stroke-linecap:round;stroke-miterlimit:10" d="m351.8 176.3-8.9 7.9"/><g id="XMLID_16_"><g id="XMLID_35_"><g id="XMLID_36_"><g id="XMLID_51_"><path id="XMLID_52_" d="M329 165.5c.5 0 1-.2 1.4-.6.4-.4.6-.9.6-1.4 0-.5-.2-1.1-.6-1.4-.4-.4-.9-.6-1.4-.6-.5 0-1.1.2-1.4.6-.4.4-.6.9-.6 1.4 0 .5.2 1 .6 1.4.4.3.9.6 1.4.6z"/></g><g id="XMLID_49_"><path id="XMLID_50_" d="M300.6 193.4c.5 0 1-.2 1.4-.6.4-.4.6-.9.6-1.4 0-.5-.2-1-.6-1.4-.4-.4-.9-.6-1.4-.6-.5 0-1.1.2-1.4.6-.4.4-.6.9-.6 1.4 0 .5.2 1.1.6 1.4.3.4.9.6 1.4.6z"/></g><g id="XMLID_47_"><path id="XMLID_48_" d="M300.2 233.2c.5 0 1-.2 1.4-.6.4-.4.6-.9.6-1.4 0-.5-.2-1.1-.6-1.4-.4-.4-.9-.6-1.4-.6-.5 0-1 .2-1.4.6-.4.4-.6.9-.6 1.4 0 .5.2 1 .6 1.4.4.4.9.6 1.4.6z"/></g><g id="XMLID_45_"><path id="XMLID_46_" d="M328.1 261.7c.5 0 1-.2 1.4-.6.4-.4.6-.9.6-1.4 0-.5-.2-1-.6-1.4-.4-.4-.9-.6-1.4-.6-.5 0-1 .2-1.4.6-.4.4-.6.9-.6 1.4 0 .5.2 1 .6 1.4.4.3.9.6 1.4.6z"/></g><g id="XMLID_43_"><path id="XMLID_44_" d="M368 262c.5 0 1.1-.2 1.4-.6.4-.4.6-.9.6-1.4 0-.5-.2-1-.6-1.4-.4-.4-.9-.6-1.4-.6-.5 0-1 .2-1.4.6-.4.4-.6.9-.6 1.4 0 .5.2 1.1.6 1.4.3.4.9.6 1.4.6z"/></g><g id="XMLID_41_"><path id="XMLID_42_" class="st3" d="M396.4 234.1c.5 0 1-.2 1.4-.6.4-.4.6-.9.6-1.4 0-.5-.2-1.1-.6-1.4-.4-.4-.9-.6-1.4-.6-.5 0-1.1.2-1.4.6-.4.4-.6.9-.6 1.4 0 .5.2 1 .6 1.4.4.4.9.6 1.4.6z"/></g><g id="XMLID_39_"><path id="XMLID_40_" d="M396.8 194.3c.5 0 1-.2 1.4-.6.4-.4.6-.9.6-1.4 0-.5-.2-1-.6-1.4-.4-.4-.9-.6-1.4-.6-.5 0-1.1.2-1.4.6-.4.4-.6.9-.6 1.4 0 .5.2 1 .6 1.4.4.3.9.6 1.4.6z"/></g><g id="XMLID_37_"><path id="XMLID_38_" d="M368.9 165.8c.5 0 1-.2 1.4-.6.4-.4.6-.9.6-1.4s-.2-1-.6-1.4c-.4-.4-.9-.6-1.4-.6-.5 0-1 .2-1.4.6-.4.4-.6.9-.6 1.4s.2 1 .6 1.4c.3.4.9.6 1.4.6z"/></g></g></g><g id="XMLID_17_"><g id="XMLID_18_"><g id="XMLID_33_"><path id="XMLID_34_" d="M348.5 161.7c.5 0 1.1-.2 1.4-.6.4-.4.6-.9.6-1.4 0-.5-.2-1-.6-1.4-.4-.4-.9-.6-1.4-.6-.5 0-1 .2-1.4.6-.4.4-.6.9-.6 1.4 0 .5.2 1.1.6 1.4.4.4.9.6 1.4.6z"/></g><g id="XMLID_31_"><path id="XMLID_32_" d="M311.7 176.9c.5 0 1.1-.2 1.4-.6.4-.4.6-.9.6-1.4 0-.5-.2-1.1-.6-1.4-.4-.4-.9-.6-1.4-.6-.5 0-1 .2-1.4.6-.4.4-.6.9-.6 1.4 0 .5.2 1 .6 1.4.3.4.9.6 1.4.6z"/></g><g id="XMLID_29_"><path id="XMLID_30_" d="M296.4 213.7c.5 0 1-.2 1.4-.6.4-.4.6-.9.6-1.4 0-.5-.2-1-.6-1.4-.4-.4-.9-.6-1.4-.6-.5 0-1 .2-1.4.6-.4.4-.6.9-.6 1.4 0 .5.2 1 .6 1.4.4.4.9.6 1.4.6z"/></g><g id="XMLID_27_"><path id="XMLID_28_" d="M311.7 250.6c.5 0 1-.2 1.4-.6.4-.4.6-.9.6-1.4 0-.5-.2-1-.6-1.4-.4-.4-.9-.6-1.4-.6-.5 0-1 .2-1.4.6-.4.4-.6.9-.6 1.4 0 .5.2 1.1.6 1.4.3.3.9.6 1.4.6z"/></g><g id="XMLID_25_"><path id="XMLID_26_" d="M348.5 265.8c.5 0 1.1-.2 1.4-.6.4-.4.6-.9.6-1.4 0-.5-.2-1.1-.6-1.4-.4-.4-.9-.6-1.4-.6-.5 0-1 .2-1.4.6-.4.4-.6.9-.6 1.4 0 .5.2 1 .6 1.4.4.4.9.6 1.4.6z"/></g><g id="XMLID_23_"><path id="XMLID_24_" d="M385.3 250.6c.5 0 1-.2 1.4-.6.4-.4.6-.9.6-1.4 0-.5-.2-1-.6-1.4-.4-.4-.9-.6-1.4-.6-.5 0-1 .2-1.4.6-.4.4-.6.9-.6 1.4 0 .5.2 1.1.6 1.4.4.3.9.6 1.4.6z"/></g><g id="XMLID_21_"><path id="XMLID_22_" class="st3" d="M400.6 213.7c.5 0 1.1-.2 1.4-.6.4-.4.6-.9.6-1.4 0-.5-.2-1-.6-1.4-.4-.4-.9-.6-1.4-.6-.5 0-1 .2-1.4.6-.4.4-.6.9-.6 1.4 0 .5.2 1 .6 1.4.3.4.9.6 1.4.6z"/></g><g id="XMLID_19_"><path id="XMLID_20_" d="M385.3 176.9c.5 0 1-.2 1.4-.6.4-.4.6-.9.6-1.4 0-.5-.2-1.1-.6-1.4-.4-.4-.9-.6-1.4-.6-.5 0-1.1.2-1.4.6-.4.4-.6.9-.6 1.4s.2 1 .6 1.4c.4.4.9.6 1.4.6z"/></g></g></g></g><circle id="XMLID_15_" class="st8" cx="348.5" cy="179.3" r="2.4"/><circle id="XMLID_14_" transform="rotate(-9.16 348.461 179.234)" class="st10" cx="348.5" cy="179.3" r="10.3"/><path id="XMLID_13_" class="st11" d="M408.6 195.4h14.9c7.2 0 13-5.8 13-13s-5.8-13-13-13h-14.9c-7.2 0-13 5.8-13 13s5.8 13 13 13z"/><path id="XMLID_12_" class="st0" d="M409.1 190.7h6.9v-16.6h-6.9c-4.6 0-8.3 3.7-8.3 8.3 0 4.6 3.7 8.3 8.3 8.3z"/><path id="XMLID_11_" transform="rotate(-180 239.694 223.005)" class="st6" d="M228.6 178.5h22.2v89.1h-22.2z"/><path id="XMLID_10_" transform="rotate(-180 230.273 223.005)" class="st1" d="M219.2 178.5h22.2v89.1h-22.2z"/><path id="XMLID_9_" class="st11" d="M406.8 247.7h14.9c7.2 0 13-5.8 13-13s-5.8-13-13-13h-14.9c-7.2 0-13 5.8-13 13s5.8 13 13 13z"/><path id="XMLID_8_" class="st11" d="M410.5 221.8h14.9c7.2 0 13-5.8 13-13s-5.8-13-13-13h-14.9c-7.2 0-13 5.8-13 13 .1 7.2 5.9 13 13 13z"/><path id="XMLID_7_" transform="rotate(-180 239.694 223.005)" class="st10" d="M228.6 178.5h22.2v89.1h-22.2z"/><path id="XMLID_6_" transform="rotate(-180 180.646 227.89)" style="fill:#fff;stroke:#640917;stroke-width:3;stroke-linecap:round;stroke-miterlimit:10" d="M127.4 174.1h106.5v107.6H127.4z"/><path id="XMLID_5_" class="st0" d="M410.1 217.2h7.9v-16.6h-7.9c-4.6 0-8.3 3.7-8.3 8.3 0 4.5 3.7 8.3 8.3 8.3z"/><path id="XMLID_4_" class="st0" d="M406.6 243.1h7.6v-16.6h-7.6c-4.6 0-8.3 3.7-8.3 8.3 0 4.6 3.7 8.3 8.3 8.3z"/><circle id="XMLID_3_" class="st10" cx="214.6" cy="265.8" r="5.2"/><path id="XMLID_2_" class="st10" d="M128.1 281.7h105.8V174.1H127.4V281c0 .4.3.7.7.7z"/></g><path d="M351.6 142.4h-8.3c-1.4 0-2.4-1.1-2.4-2.4v-1.8c0-1.4 1.1-2.4 2.4-2.4h8.3c1.4 0 2.4 1.1 2.4 2.4v1.8c0 1.3-1.1 2.4-2.4 2.4z" style="fill:#fff;stroke:#000;stroke-width:2.4;stroke-linecap:round;stroke-linejoin:round;stroke-miterlimit:10"/></svg>