<svg version="1.1" id="Layer_1" xmlns="http://www.w3.org/2000/svg" x="0" y="0" viewBox="0 0 565.8 382.8" style="enable-background:new 0 0 565.8 382.8" xml:space="preserve"><style>.st0{fill:#fff}</style><path class="st0" d="M272.8 342.9c-1.7 0-3.3-.1-5-.2-19-1.2-37-9.5-50.5-23.3s-21.5-31.9-22.3-51c-1.1-26.2 10.9-51 32.1-66.4 6.4-4.6 10.2-12 10.2-19.6v-20.6c0-12.3 10-22.2 22.2-22.2h26.6c12.3 0 22.2 10 22.2 22.2v20.6c0 7.6 3.8 15 10.2 19.6 21.2 15.4 33.2 40.2 32.1 66.4-.8 19.1-8.7 37.2-22.3 51-13.5 13.8-31.5 22.1-50.5 23.3-1.7.2-3.3.2-5 .2zm-74.3-74.5c.8 18.2 8.3 35.5 21.3 48.7 12.9 13.2 30.1 21.1 48.2 22.2 3.2.2 6.4.2 9.5 0 18.2-1.1 35.3-9 48.2-22.2 12.9-13.2 20.5-30.5 21.3-48.7 1.1-25-10.4-48.7-30.6-63.4-7.3-5.3-11.6-13.7-11.6-22.5v-20.6c0-10.3-8.4-18.7-18.7-18.7h-26.6c-10.3 0-18.7 8.4-18.7 18.7v20.6c0 8.8-4.4 17.2-11.6 22.5-20.3 14.6-31.7 38.3-30.7 63.4z"/><path class="st0" d="M306.4 161.1h-67.2c-1 0-1.8-.8-1.8-1.8s.8-1.8 1.8-1.8h67.2c1 0 1.8.8 1.8 1.8s-.8 1.8-1.8 1.8zM306.4 179.2h-67.2c-1 0-1.8-.8-1.8-1.8s.8-1.8 1.8-1.8h67.2c1 0 1.8.8 1.8 1.8s-.8 1.8-1.8 1.8zM288.6 143.1c-1 0-1.8-.8-1.8-1.8 0-5.2-2.5-8.9-4.7-8.9h-18.7c-2.2 0-4.7 3.6-4.7 8.9 0 1-.8 1.8-1.8 1.8s-1.8-.8-1.8-1.8c0-6.9 3.6-12.4 8.2-12.4H282c4.6 0 8.2 5.4 8.2 12.4.2 1-.6 1.8-1.6 1.8zM329.5 277.1h-.3c-1-.2-1.6-1.1-1.4-2 .6-3.2.8-6.4.8-9.7 0-1.4 0-2.7-.1-4.1-.1-1 .7-1.8 1.6-1.9 1-.1 1.8.7 1.9 1.6.1 1.4.2 2.9.2 4.3 0 3.4-.3 6.9-.9 10.3-.3.9-1 1.5-1.8 1.5zM298.5 318.6c-.6 0-1.3-.4-1.6-1-.4-.9-.1-1.9.8-2.4 12.3-6.1 21.9-16.6 26.9-29.3.4-.9 1.4-1.3 2.3-1 .9.4 1.3 1.4 1 2.3-5.4 13.6-15.6 24.6-28.6 31.2-.3.2-.5.2-.8.2z"/><path class="st0" d="M271.1 130.7c0 1 .8 1.8 1.8 1.8s1.8-.8 1.8-1.8V25.1h-3.5l-.1 105.6zM336.1 191.2c-.4 0-.9-.2-1.2-.5-.7-.7-.7-1.8 0-2.4l9.7-9.7c.7-.7 1.8-.7 2.4 0 .7.7.7 1.8 0 2.4l-9.7 9.7c-.3.3-.7.5-1.2.5z"/><path class="st0" d="M345.9 191.2c-.4 0-.9-.2-1.2-.5L335 181c-.7-.7-.7-1.8 0-2.4.7-.7 1.8-.7 2.4 0l9.7 9.7c.7.7.7 1.8 0 2.4-.4.3-.8.5-1.2.5zM372.9 205.9c-4.1 0-7.4-3.3-7.4-7.4 0-4.1 3.3-7.4 7.4-7.4s7.4 3.3 7.4 7.4c0 4.1-3.3 7.4-7.4 7.4zm0-11.3c-2.2 0-3.9 1.8-3.9 3.9 0 2.2 1.8 3.9 3.9 3.9 2.2 0 3.9-1.8 3.9-3.9.1-2.2-1.7-3.9-3.9-3.9zM201 191.4l-9.2-9.2c-.4-.4-.6-1.1-.4-1.7.2-.6.6-1.1 1.2-1.2l12.6-3.4c.6-.2 1.2 0 1.7.4.4.4.6 1.1.4 1.7l-3.4 12.6c-.2.6-.6 1.1-1.2 1.2-.7.2-1.3 0-1.7-.4zm-4.7-9.6 5 5 1.8-6.9-6.8 1.9zM359.7 336.7l9.2 9.2c.4.4.6 1.1.4 1.7s-.6 1.1-1.2 1.2l-12.6 3.4c-.6.2-1.2 0-1.7-.4-.4-.4-.6-1.1-.4-1.7l3.4-12.6c.2-.6.6-1.1 1.2-1.2.7-.2 1.3-.1 1.7.4zm4.7 9.5-5-5-1.8 6.9 6.8-1.9zM367.3 225.9c0 1-.8 1.7-1.7 1.7-1 0-1.7-.8-1.7-1.7 0-1 .8-1.7 1.7-1.7s1.7.7 1.7 1.7zM216.1 344.6c.4 0 .9.2 1.2.5.7.7.7 1.8 0 2.4l-9.7 9.7c-.7.7-1.8.7-2.4 0-.7-.7-.7-1.8 0-2.4l9.7-9.7c.3-.4.7-.5 1.2-.5z"/><path class="st0" d="M206.3 344.6c.4 0 .9.2 1.2.5l9.7 9.7c.7.7.7 1.8 0 2.4-.7.7-1.8.7-2.4 0l-9.7-9.7c-.7-.7-.7-1.8 0-2.4.3-.4.8-.5 1.2-.5zM185.5 324.4c0-1 .8-1.7 1.7-1.7s1.7.8 1.7 1.7c0 1-.8 1.7-1.7 1.7s-1.7-.7-1.7-1.7z"/></svg>