<svg version="1.1" id="Layer_1" xmlns="http://www.w3.org/2000/svg" x="0" y="0" viewBox="0 0 565.8 382.8" style="enable-background:new 0 0 565.8 382.8" xml:space="preserve"><style>.st0,.st1,.st2{fill:#fff;stroke:#000;stroke-width:2;stroke-linecap:round;stroke-linejoin:round;stroke-miterlimit:10}.st1,.st2{fill:none;stroke:#111}.st2{fill:#fff}.st3{opacity:.55;fill:#d8d8d8}.st4{fill:none;stroke-linecap:round;stroke-linejoin:round}.st4,.st5,.st6{stroke:#000;stroke-width:2;stroke-miterlimit:10}.st5{fill:#d8d8d8;stroke-linecap:round;stroke-linejoin:round}.st6{fill:none}</style><path class="st0" d="M248.3 65.8c4.5 11.2 2.6 26.8-8.1 31.2-10.7 4.3-26.3-4.3-30.8-15.5s.5-23.8 11.3-28.1c10.7-4.4 23.1 1.2 27.6 12.4zM327 93.2c-7.2 12.4-23.2 22.1-35.1 15.2-11.9-6.9-15.2-27.7-8-40.2 7.2-12.4 22.7-16.9 34.6-10 11.9 6.8 15.7 22.5 8.5 35zM328.4 231.3l-54.6-36.9c-2.6-1.7-6-1.7-8.6 0l-54.6 36.9v66.5c0 2.7 1.1 5.2 2.9 7 .5.4.9.9 1.4 1.2.3.2.5.3.8.5.8.4 1.7.8 2.7 1 .7.1 1.3.2 2 .2h98.1c.7 0 1.3-.1 2-.2 1-.2 1.9-.5 2.7-1 .3-.2.6-.4.9-.5.5-.4 1-.8 1.4-1.2 1.7-1.7 2.8-4 2.9-6.5v-67h0z"/><path class="st1" d="M328.4 297.8v.5c-.1 2.5-1.2 4.8-2.9 6.5-.4.4-.9.8-1.4 1.2-.3.1-.6.3-.9.5-.8.5-1.7.8-2.7 1-.6.1-1.3.2-2 .2h-98.1c-.7 0-1.3-.1-2-.2-1-.2-1.9-.6-2.7-1-.3-.2-.6-.3-.8-.5-.5-.4-1-.8-1.4-1.2-1.8-1.8-2.9-4.2-2.9-7l34.7-30.7 19.4-17.2c2.7-2.4 6.8-2.4 9.5 0l19.4 17.2 34.8 30.7h0z"/><path class="st0" d="M250.9 221.9c-6.1 1.3-12.2-2.5-13.5-8.7l-9.2 2 17.1 78.2 9.2-2c-1.3-6.1 2.5-12.2 8.7-13.5 6.1-1.3 12.2 2.5 13.5 8.7l9.2-2-17.1-78.2-9.2 2c1.3 6.1-2.5 12.1-8.7 13.5zM232.5 235.2l5.7-1.3M241.3 233.2l5.6-1.2M250 231.3l5.7-1.2M258.8 229.4l5.6-1.2M267.5 227.5l5.7-1.3M254.5 271.9l-5.3-24M260 270.7l-2.7-12.5M266.5 269.3l-6.3-28.9"/><path class="st0" d="M304 227.3c-6-1.7-9.5-8-7.8-14.1l-9.1-2.6-22.2 76.9 9.1 2.6c1.7-6 8-9.5 14.1-7.8 6 1.7 9.5 8 7.8 14.1l9.1 2.6 22.2-76.9-9.1-2.6c-1.8 6.1-8.1 9.6-14.1 7.8zM281.5 230.2l5.5 1.6M290.1 232.7l5.5 1.6M298.7 235.2l5.6 1.6M307.3 237.7l5.6 1.6M315.9 240.2l5.6 1.6M283.2 273l6.9-23.6M288.7 274.6l3.6-12.3M295.1 276.4l8.2-28.4"/><path class="st0" d="M275.3 232.6c-6.3.5-11.8-4.1-12.3-10.4l-9.4.8 6.7 79.8 9.4-.8c-.5-6.3 4.1-11.7 10.4-12.3 6.3-.5 11.7 4.1 12.3 10.4l9.4-.8-6.7-79.8-9.4.8c.5 6.3-4.2 11.8-10.4 12.3zM255.3 243.4l5.8-.5M264.2 242.6l5.8-.4M273.1 241.9l5.8-.5M282.1 241.1l5.7-.4M291 240.4l5.8-.5M272.2 282.7l-2-24.5M277.9 282.2l-1.1-12.7M284.5 281.7l-2.5-29.5"/><path class="st2" d="M251 101c4 12.8-2 28.4-14.3 32.2-12.3 3.9-26.1-5.4-30.2-18.3-4-12.8 2.7-26.4 14.9-30.2 12.3-3.8 25.6 3.5 29.6 16.3z"/><path class="st3" d="M238.1 132.7c5.7-6.7 7.9-17 5.1-26.1-4-12.8-17.2-20.1-29.5-16.2-.8.2-1.5.5-2.3.9 2.6-3 6-5.3 10-6.5 12.3-3.9 25.5 3.4 29.5 16.2 4 12.3-1.4 27.1-12.8 31.7z"/><path class="st4" d="M251 101c4 12.8-2 28.4-14.3 32.2-12.3 3.9-26.1-5.4-30.2-18.3-4-12.8 2.7-26.4 14.9-30.2 12.3-3.8 25.6 3.5 29.6 16.3z"/><path class="st5" d="m375.1 337.1 26.4-52.9c.8-1.5 2.9-1.5 3.7 0l27.6 52.9"/><path class="st0" d="m316.5 337.1 41.6-83.4c1.2-2.4 4.6-2.4 5.8-.1l43.5 83.4"/><path class="st5" d="m148.8 337.1 20.9-41.9c.5-.9 1.8-.9 2.3 0l21.9 41.9"/><path class="st0" d="m173.5 337.1 32.1-64.2c.9-1.8 3.5-1.9 4.5 0l33.5 64.3"/><path class="st2" d="M329.4 120.1c-4.9 12.2-19.1 20.1-30.7 15.4-11.6-4.7-16.3-20.3-11.4-32.5s18.3-18.2 30-13.5c11.5 4.7 17 18.4 12.1 30.6z"/><path class="st3" d="M329.4 120c-4.9 12.2-19.1 20.2-30.8 15.5-.2-.1-.5-.2-.7-.3 9.7 0 19.6-7.1 23.5-16.8 4.8-12-.4-25.5-11.8-30.4 2.5 0 5.1.5 7.5 1.5 11.7 4.7 17.2 18.4 12.3 30.5z"/><path class="st4" d="M329.4 120.1c-4.9 12.2-19.1 20.1-30.7 15.4-11.6-4.7-16.3-20.3-11.4-32.5s18.3-18.2 30-13.5c11.5 4.7 17 18.4 12.1 30.6z"/><path class="st0" d="m290.9 139.9 7.7-4.4 2.5 8.5z"/><path class="st4" d="M269.5 126.7c1.1 20.1 1.6 46.2 1.5 66.3M295 142.1c-6 15.6-14.2 37.3-24 50.9M240.5 136.5c10.3 16.9 20.2 39.6 30.5 56.5"/><path class="st0" d="M173.1 195.6c-1.5 0-2.8.6-3.8 1.6-.6-3.5-3.4-6.1-6.9-6.1-3.4 0-6.3 2.7-6.9 6.2-1.1-.8-2.5-1.2-4-1.2-3.5 0-6.4 2.6-7.2 6-.1.3.2.6.5.6h33.9s0 0 0 0c.6-3.8-2.2-7.1-5.6-7.1zM343.1 173c1.5 0 2.8.6 3.8 1.6.6-3.5 3.4-6.1 6.9-6.1 3.4 0 6.3 2.7 6.9 6.2 1.1-.8 2.5-1.2 4-1.2 3.5 0 6.4 2.6 7.2 6 .1.3-.2.6-.5.6h-34s0 0 0 0c-.5-3.8 2.2-7.1 5.7-7.1z"/><path class="st6" d="M378.9 213.5c0 2.1-1.7 3.8-3.8 3.8-2.1 0-3.8-1.7-3.8-3.8 0-2.1 1.7-3.8 3.8-3.8 2.1 0 3.8 1.7 3.8 3.8zM446.8 278.9c0 2.1-1.7 3.8-3.8 3.8-2.1 0-3.8-1.7-3.8-3.8 0-2.1 1.7-3.8 3.8-3.8 2.1 0 3.8 1.7 3.8 3.8zM213.9 168.4c0 2.9-2.4 5.3-5.3 5.3s-5.3-2.4-5.3-5.3 2.4-5.3 5.3-5.3 5.3 2.4 5.3 5.3z"/><path class="st4" d="M400.2 200.1h20.5M430.8 208.3H456M418.2 208.3h6.2M249.7 318.3h18.1M280.1 318.3h9.1M271.8 318.3h4.1M281.2 328.3h1.6M261 328.3h16.7"/><path class="st0" d="M284.7 307.6h-64.3c-.7 0-1.3-.1-2-.2-1-.2-1.9-.6-2.7-1-.3-.2-.6-.3-.8-.5-.5-.4-1-.8-1.4-1.2-1.8-1.8-2.9-4.2-2.9-7v-66.5l34.7 35.7 24.2 24.9 15.2 15.8z"/><path class="st2" d="M328.4 231.3v66.9c-.1 2.5-1.2 4.8-2.9 6.5-.5.5-.9.9-1.4 1.2-.3.1-.6.3-.9.5-.8.5-1.7.8-2.7 1-.6.1-1.3.2-2 .2h-64.3l15.3-15.7 24.2-24.9 34.4-35.5.3-.2z"/><path class="st3" d="M328.4 231.3v66.9c-.1 2.5-1.2 4.8-2.9 6.5-.5.5-.9.9-1.4 1.2-.3.1-.6.3-.9.5-.8.5-1.7.8-2.7 1-.6.1-1.3.2-2 .2h-64.3l6.8-7h48.2c.7 0 1.3-.1 2-.2 1-.2 1.9-.5 2.7-1 .3-.2.6-.4.9-.5.5-.4 1-.8 1.4-1.2 1.7-1.7 2.8-4 2.9-6.5v-50.4l9-9.3.3-.2z"/><path class="st4" d="M328.4 231.3v66.9c-.1 2.5-1.2 4.8-2.9 6.5-.5.5-.9.9-1.4 1.2-.3.1-.6.3-.9.5-.8.5-1.7.8-2.7 1-.6.1-1.3.2-2 .2h-64.3l15.3-15.7 24.2-24.9 34.4-35.5.3-.2zM382.4 337.1h70.1"/><path class="st1" d="M367.9 337.1h7.2"/><path class="st4" d="M109.9 337.1h247.6"/><path class="st0" d="m236.5 140.5 2.4-7.9 7 4.1zM348.5 303.2c0 11.1-9 20.1-20.1 20.1-11.1 0-20.1-9-20.1-20.1 0-11.1 9-20.1 20.1-20.1 11.1 0 20.1 9 20.1 20.1z"/><path class="st2" d="M299.1 81.1c0 19.6-13.5 38.5-30.1 38.5s-30.1-18.9-30.1-38.5 13.5-35.4 30.1-35.4 30.1 15.8 30.1 35.4z"/><path class="st3" d="M299.2 81.1c0 19.1-12.9 37.6-29 38.4 10.8-6.3 18.3-20.5 18.3-35.2 0-19.5-13.5-35.4-30.1-35.4-.8 0-1.5 0-2.3.1 3.9-2.2 8.3-3.4 12.9-3.4 16.6.1 30.2 15.9 30.2 35.5z"/><path class="st4" d="M299.1 81.1c0 19.6-13.5 38.5-30.1 38.5s-30.1-18.9-30.1-38.5 13.5-35.4 30.1-35.4 30.1 15.8 30.1 35.4z"/><path class="st0" d="m262.6 128.4 6.9-8.8 6.9 8.8zM214.9 76.7s-2.3-4.9 1.5-10.3"/><path class="st4" d="M250 71.6s-.1-7.4 6.4-10.7M259.8 58.9s1.4-1.2 4.6-1.9M302.6 97.2s3.6-3.4 8.9-1.6M210.9 112.4s-3.1-4.7 0-9.9"/><path class="st0" d="M337.2 302.7c-2.3 3.4-5.6 6.2-8.8 8.8-3.2-2.6-6.5-5.4-8.8-8.8-1.2-1.9-2.2-4.4-1-6.3 1.2-1.8 4-2 5.9-1 1.7.9 3.8 3.7 3.8 3.7l.1-.1.1.1s2.1-2.8 3.8-3.7c1.9-1 4.7-.9 5.9 1 1.2 1.9.2 4.5-1 6.3z"/></svg>