<svg version="1.1" id="OBJECTS" xmlns="http://www.w3.org/2000/svg" x="0" y="0" viewBox="0 0 500 500" style="enable-background:new 0 0 500 500" xml:space="preserve"><style>.st2{fill:#fcfcfc}.st3{fill:#312c2b}.st4{fill:#fff}</style><path d="M465 321.2 301.5 172.6l-96-87.3-69.1-62.8c-2.7-2.4-3.7-2.2-4.5 1-2.8 11-5.9 21.9-8.1 33-10.1 50.7-19.5 101.5-29.9 152.2C78 285.9 65.3 363.5 52.3 441.1c-.8 4.7.9 6.3 5.6 5 7.2-2 14.3-4.2 21.5-6.1 38.5-10.3 77.1-19.9 115.3-30.9 66.4-19.1 132.5-39.1 198.8-58.8 23.5-7 47.2-13.3 70.1-22.3 6.1-2.3 6.2-2.4 1.4-6.8z" style="opacity:.1;fill:#fff;enable-background:new"/><circle cx="256.3" cy="266.6" r="140.4" style="fill:#fcfcfc;enable-background:new"/><path class="st2" d="M82.6 343.3c-1.2-.1-2.5-.2-3.8-.2-11-.1-22 0-33-.2-4.4-.1-8.8-.5-13.2-.8-.4 0-.8-.1-1.1-.3-.3-.2-.8-.7-.8-.9.1-.4.5-.8.9-.9 1.3-.3 2.6-.4 4-.6 10.3-1 20.6-2 30.9-3.1 3.8-.4 7.6-.8 11.3-1.5 1.5-.3 2.8-1.4 4.3-2.1 1.2-.6 2.4-1 3.7-1.4 1.9-.5 3.8-.9 5.6-1.4v-.5c-.4-.2-.8-.5-1.2-.7-1.5-.9-2.9-2-4.2-3.2-3.2-3.3-3.1-7.4 0-10.7.8-.9 1.3-1.5.1-2.5-8.9-6.4-9.4-19-4-27.4 1.6-2.4 3.5-4.6 5.5-6.6 2.8-2.9 6.4-3.7 10.4-3.1 1.9.3 3.8.5 5.8.6 3.3.2 4.8-.8 6-4 .3-.7.5-1.5.7-2.3 1.3-6.7 5.9-9.9 12.1-11 9.9-1.8 20.8 5.8 22.6 15.6.7 4.3.2 8.8-1.6 12.8-1.4 3.4-3 6.7-4.3 10.1-1 2.1-1.3 4.4-.8 6.7.4-.7.7-1.1 1-1.5 2.9-4.3 6.8-7 12-7.3 5.7-.3 9.2 4.5 7.6 9.9-.6 1.5-1.2 2.9-2 4.3-.2.5-.5 1-.9 1.8 1 .2 1.8.4 2.6.6 1.8.5 3.6 1.1 5.3 1.9 4.9 2.6 6.1 7.7 3.1 12.3-.4.6-.8 1.1-1.3 1.8.6.1 1.2.3 1.7.6.7.5 1.7 1.2 1.8 1.9 0 .9-.4 1.8-1.1 2.3-1 .6-2.1 1.1-3.2 1.5-.6.2-1.3.4-1.9.5v.4c.8.1 1.5.2 2.3.3 5.9-.1 11.9-.3 17.8-.2 6.3.1 12.6.5 19 .9 1.1.1 2.7 0 2.8 1.4s-1.5 1.5-2.6 1.6c-5.6.6-11.2 1.2-16.8 1.7-1.1 0-2.1.2-3.1.5.4.1.8.3 1.1.5.6.4 1.1 1 1.6 1.5-.6.4-1.2 1.1-1.9 1.2-2 .4-4.1.7-6.2.8-12.1.9-24.2 1.8-36.3 2.6-5.6.4-11.2.8-16.8.9-13.5.3-26.9.5-40.4.6-1.9 0-3.8-.2-5.7-.6-.7-.1-1.6-.9-1.7-1.5.1-.8.7-1.5 1.4-1.8 1.6-.6 3.2-1.1 4.9-1.6v-.2zm36.4-14.5.1-.4c-.9-.6-1.8-1-2.7-1.5-2.3-.9-4.6-1.6-6.8-2.5-2.5-.9-5-1.9-7.4-3-4.4-2.1-7.5-6.3-8.3-11.1-.5-2.5-.7-5-.7-7.5.1-6 5.6-12.3 11.5-13 4.6-.7 9.3.2 13.3 2.6 2.6 1.5 4.4 4.1 5 7.1.7 4.5.2 9.1-1.6 13.2-.6 1.6-1.2 3.1-1.7 4.7-.5 1.1-.2 2.4.8 3.1 1 .6 2.3.4 3-.5 1.4-1.3 2.8-2.7 4-4.2 1.5-1.8 3.2-3.2 5.5-3.4 2.1-.2 4.1-.2 6.2.1 3.1.5 5.3 2.2 5.7 5.5.1 1 .7 1.2 1.6.9 1.3-.4 2.6-.9 4-1.2 1.9-.5 3.9.2 5 1.9 1.2 1.5 1.3 3.6.2 5.1-.4.7-.8 1.3-1.2 1.9.1.2.2.3.3.4 3 1.3 6.1.5 9.2.2.1 0 .2-.2.4-.3 4.6-3.6 4-9.8-1.3-12.3-1.8-.8-3.7-1.4-5.6-1.8-2.6-.7-3-1.6-1.8-4 .8-1.4 1.5-2.9 2-4.4 1.5-4.8-2.2-8.9-7.2-7.8-4.2.8-7.9 3.4-9.9 7.1-.3.6-.6 1.1-1 1.6-.7.8-1.4.7-1.9-.1-.2-.4-.4-.9-.5-1.4-.7-2.7 0-5.3 1.1-7.8 1.4-3.4 3-6.8 4.4-10.2 1.6-3.7 2-7.8 1.2-11.8-1.9-9.1-12.4-16-21.5-14-5.3 1.1-9.2 3.9-10.3 9.6-.3 1.3-.8 2.7-1.3 3.9-.9 2.3-3.2 3.8-5.6 3.6-1.9-.1-3.7-.2-5.6-.5-2.8-.3-5.6-.8-8.3.7-7.5 4.2-12.3 14.6-10.7 23 .8 4.4 3.3 8.3 6.8 11 1.8 1.4 1.7 2.5.1 3.9-2.8 2.4-3.3 5.8-.8 8.5 1.4 1.6 3.5 2.6 5.2 4 .5.4 1.2.9 1.3 1.4-.1.7-.4 1.3-1 1.8-.6.4-1.3.7-2 .9-1.5.4-3 .6-4.5 1-.8.1-1.5.4-2.2.9-1.9 2.1-4.5 2.7-7.1 3l-29.1 3-10.5 1.2c1.9.3 3.9.5 5.8.5l36.5.3c1.7.1 3.3.3 5 .6.3.1.7.1 1 0 1.8-1 3.7-1 5.6-.9 2.2.1 2.7-.2 3.4-2.2.5-1.5.8-3.1 1.3-4.6.9-3 4-4.7 7-3.8.2.1.4.1.7.2 2.3.8 4 2.8 4.6 5.1l.4 1.7c1.5-.6 2.6-1.8 3-3.3 1.2-3.6 3.7-5.7 7.9-5.7zm63.4 14.1v-.3c-.8-.2-1.7-.5-2.5-.8-.5-.3-.9-.7-1.3-1.2.5-.3.9-.9 1.5-1 2.6-.3 5.2-.4 7.8-.6 4.8-.4 9.5-.9 14.2-1.4v-.4c-.4-.1-.7-.2-1.1-.2-10.8-.1-21.7-.3-32.5-.4-1.6 0-3.2.1-4.8 0-1.2-.1-2.7-.5-2.8-2s1.4-1.5 2.4-1.9c1.1-.3 2.3-.7 3.4-1.1.4-.2.7-.8 1-1.2-.4-.3-.8-.8-1.2-.9-1.7-.2-3.3-.3-5-.4-2.1.1-4.1 0-6.2-.2-2.8-.4-3.3-1.8-1.7-4.1l.3-.5c.9-1.1.9-2.6.1-3.7-.8-1.2-2.4-1.8-3.8-1.3-1.1.3-2.3.7-3.4 1.1-2.4.7-3.1.3-3.5-2.1-.3-2.1-1.8-3.8-3.8-4.2-3.6-1-8.7-1.1-11.8 3.5-1.2 1.6-2.6 2.9-4.2 4.1-1.2 1-2.9 1-4.2.1-1.2-.9-1.7-2.4-1.3-3.8.3-1.5.8-3 1.4-4.5 1.4-3.2 2.2-6.6 2.4-10.1.1-3.9-1-7.2-4.3-9.4-3.9-2.6-8.8-3.5-13.4-2.5-5.2 1.1-9.5 6.6-9.5 11.9 0 1.7.1 3.3.3 5 .5 5.5 4 10.3 9.1 12.4 2.2 1 4.4 1.6 6.7 2.5 2.7 1 5.3 2.1 8 3.2.8.4 1.6 1 2.1 1.8.3.6.3 1.2.1 1.8 0 .1-.9.1-1.4.2-.8-.1-1.6-.1-2.3 0-2.7.5-4 2.4-5 4.8-.6 1.3-1.4 2.6-2.5 3.6-1.8 1.6-3 1.1-3.5-1.2-.1-.4-.2-.9-.3-1.3-.8-2.3-2.9-3.9-5.4-3.9-2 .1-3.4 1.4-4.1 4-.3 1.1-.5 2.2-.8 3.3-1 3-2.2 3.6-5.4 3.5-1.6-.2-3.2.1-4.7.8-1.5.9-3.1 1.5-4.7 1.9-1 .2-1.9.6-2.8 1l.1.5c1.3.2 2.7.4 4.1.4 11.6-.1 23.3-.2 34.9-.2 2.2-.1 4.4-.7 6.4-1.7 1.1-.5 1.3-1.2.8-2.4-1.2-2.6-.7-4.4 1.7-6.2 1.7-1.3 3.9-1.7 5.9-1.2-1.2-4-.7-6 1.9-7.9 2-1.5 4.5-2.2 7-2 3.7.3 7.2 2.4 5.3 7.8-.4 1.1-.7 2.3-.9 3.4-.3 1.6.4 2 1.9 1.5 1.4-.6 2.8-1 4.2-1.4 3.9-.8 6 1.4 4.8 5.3.6.2 1.3.4 1.9.6.5.2.9.5 1.4.8.3.2.6.5.9.5 6-.4 12-.8 17.9-1.2 1.3-.1 2.7-.3 4.2-.5zm-58.2 4.2 32.4-2.2c-.2-.2-.4-.4-.6-.5-2.2-1.1-2.2-1.1-1.2-3.3.4-.6.2-1.4-.4-1.7-.1-.1-.2-.1-.4-.2-.9-.3-1.9-.4-2.9-.2-1.5.4-2.9.9-4.3 1.5-1.1.6-2.5.2-3.1-1-.2-.3-.3-.7-.3-1.1-.1-.7 0-1.4.2-2 .3-1.4.8-2.7 1.1-4 .6-2.3-.3-3.8-2.5-4.4-2.3-.7-4.8-.4-6.9.8-2.9 1.7-3.5 4-1.9 6.9.2.6.3 1.2.3 1.8-.6.1-1.2.2-1.8.2-1-.1-1.9-.2-2.9-.2-3.1.4-4.6 2.9-3.5 5.7.7 1.6.5 2.2-1.3 3.9z"/><path class="st3" d="M119 328.8c-4.1 0-6.7 2.1-8 5.9-.4 1.5-1.5 2.7-3 3.3l-.4-1.7c-.6-2.4-2.3-4.3-4.6-5.1-2.9-1.2-6.2.1-7.4 2.9-.1.2-.2.4-.2.7-.5 1.5-.8 3.1-1.3 4.6-.7 2-1.3 2.3-3.4 2.2-1.9-.1-3.9-.2-5.6.9-.3.1-.7.1-1 0-1.7-.3-3.3-.5-5-.6l-36.5-.3c-1.9 0-3.9-.2-5.8-.5l10.5-1.2c9.7-1 19.4-1.9 29.1-3 2.6-.3 5.2-.8 7.1-3 .6-.5 1.4-.8 2.2-.9 1.5-.4 3-.6 4.5-1 .7-.1 1.4-.4 2-.9.5-.5.9-1.1.9-1.8 0-.5-.8-1-1.3-1.4-1.8-1.3-3.8-2.4-5.2-4-2.4-2.7-2-6.1.8-8.5 1.6-1.4 1.7-2.5-.1-3.9-3.6-2.7-6-6.6-6.8-11-1.7-8.4 3.2-18.9 10.7-23 2.7-1.5 5.4-1 8.3-.7 1.9.2 3.7.4 5.6.5 2.5.1 4.7-1.3 5.6-3.6.6-1.3 1-2.6 1.3-3.9 1.1-5.7 5-8.5 10.3-9.6 9.1-2 19.6 4.9 21.5 14 .7 4 .3 8.1-1.2 11.8-1.4 3.5-3 6.8-4.4 10.2-1 2.5-1.7 5.1-1.1 7.8.1.5.3.9.5 1.4.6.9 1.3.9 1.9.1.4-.5.7-1.1 1-1.6 2.1-3.7 5.7-6.4 9.9-7.1 5-1.1 8.7 3 7.2 7.8-.5 1.5-1.2 3-2 4.4-1.3 2.4-.9 3.3 1.8 4 1.9.4 3.8 1 5.6 1.8 5.2 2.5 5.8 8.6 1.3 12.3-.1.1-.2.2-.4.3-3.1.3-6.2 1.1-9.2-.2-.1 0-.1-.1-.3-.4.4-.6.8-1.3 1.2-1.9 1.1-1.6 1-3.7-.2-5.1-1.1-1.7-3.1-2.4-5-1.9-1.3.3-2.7.8-4 1.2-.9.3-1.5.1-1.6-.9-.4-3.4-2.6-5.1-5.7-5.5-2.1-.3-4.1-.3-6.2-.1-2.3.2-4.1 1.6-5.5 3.4-1.2 1.5-2.6 2.9-4 4.2-.7.9-2 1.1-3 .5-1-.7-1.3-2-.8-3.1.5-1.6 1.1-3.2 1.7-4.7 1.8-4.1 2.4-8.7 1.7-13.1-.6-3-2.4-5.6-5-7.1-4-2.4-8.7-3.4-13.3-2.7-5.9.8-11.4 7-11.5 13 0 2.5.2 5 .7 7.5.8 4.9 3.9 9 8.3 11.1 2.4 1.1 4.9 2.1 7.4 3 2.3.9 4.6 1.6 6.8 2.5.9.4 1.8.9 2.7 1.5l-.1.2z"/><path class="st3" d="M182.3 342.9c-1.4.2-2.9.4-4.3.5-6 .4-12 .8-17.9 1.2-.3 0-.6-.3-.9-.5-.4-.3-.9-.6-1.4-.8-.6-.2-1.3-.4-1.9-.6 1.2-3.9-.9-6.1-4.8-5.3-1.4.3-2.9.8-4.2 1.4-1.6.6-2.2.2-1.9-1.5.2-1.2.5-2.3.9-3.4 2-5.5-1.6-7.5-5.3-7.8-2.5-.2-5 .5-7 2-2.5 1.9-3 4-1.9 7.9-2-.5-4.2-.1-5.9 1.2-2.3 1.8-2.9 3.5-1.7 6.2.5 1.2.3 1.9-.8 2.4-2 1-4.2 1.6-6.4 1.7-11.6 0-23.3.2-34.9.2-1.4-.1-2.7-.2-4.1-.4l-.1-.5c.9-.3 1.9-.7 2.8-1 1.7-.4 3.3-1 4.7-1.9 1.5-.7 3.1-1 4.7-.8 3.1.1 4.3-.5 5.4-3.5.4-1.1.6-2.2.8-3.3.7-2.6 2.1-4 4.1-4 2.5 0 4.6 1.6 5.4 3.9.1.4.2.9.3 1.3.5 2.3 1.8 2.8 3.5 1.2 1.1-1 1.9-2.2 2.5-3.6 1-2.4 2.3-4.3 5-4.8.8-.1 1.6-.1 2.3 0 .5 0 1.4 0 1.4-.2.2-.6.1-1.2-.1-1.8-.5-.8-1.3-1.4-2.1-1.8-2.6-1.2-5.3-2.2-8-3.2-2.2-.9-4.5-1.5-6.7-2.5-5.1-2.1-8.6-6.9-9.1-12.5-.2-1.7-.3-3.3-.3-5 0-5.3 4.3-10.8 9.5-11.9 4.6-1.1 9.5-.2 13.4 2.5 3.3 2.2 4.4 5.6 4.3 9.4-.1 3.5-.9 6.9-2.4 10.1-.6 1.5-1.1 3-1.4 4.5-.4 1.4.1 3 1.3 3.8 1.2 1 3 .9 4.2-.1 1.6-1.1 3.1-2.5 4.2-4.1 3-4.6 8.2-4.5 11.8-3.5 2 .5 3.6 2.2 3.8 4.2.4 2.4 1.2 2.8 3.5 2.1 1.1-.3 2.2-.8 3.4-1.1 1.4-.5 3 .1 3.8 1.3.8 1.1.8 2.7-.1 3.7l-.3.5c-1.6 2.3-1.1 3.7 1.7 4.1 2.1.2 4.1.3 6.2.2 1.7.1 3.4.2 5 .4.4.1.8.5 1.2.9-.3.4-.6 1-1 1.2-1.1.4-2.2.8-3.4 1.1-1 .3-2.5.3-2.4 1.9s1.6 1.9 2.8 2c1.6.2 3.2 0 4.8 0 10.8.1 21.7.3 32.5.4.4 0 .8.1 1.1.2v.4c-4.7.5-9.5.9-14.2 1.4-2.6.2-5.2.3-7.8.6-.5 0-1 .6-1.5 1 .4.5.8.9 1.3 1.2.8.3 1.6.6 2.5.8l.1.4z"/><path class="st3" d="M124.2 347.1c1.8-1.8 2-2.3 1.3-4.2-1.1-2.8.4-5.3 3.5-5.7 1 0 2 .1 2.9.2.6 0 1.2-.1 1.8-.2 0-.6-.1-1.2-.3-1.8-1.6-2.9-1-5.2 1.9-6.9 2.1-1.2 4.6-1.5 6.9-.8 2.2.6 3.1 2.2 2.5 4.4-.3 1.3-.8 2.6-1.1 4-.2.7-.2 1.4-.2 2 0 1.3 1 2.3 2.2 2.4.4 0 .8-.1 1.1-.3 1.4-.6 2.9-1.1 4.3-1.5 1-.2 1.9-.1 2.9.2.7.2 1.1.8 1 1.5 0 .1-.1.3-.2.4-1 2.2-.9 2.2 1.2 3.3.2.2.4.3.6.5l-32.3 2.5z"/><path class="st2" d="M178.4 271.6c.7.7 1.3 1.5 1.9 2.3 1.1 1.5 1.1 3.4 0 4.9-1 1.5-2.9 2.1-4.6 1.5-2.3-.8-4.6-1.8-6.9-2.8.3.3.6.7.9 1 1.4 1.4 2.3 3.1 2.6 5.1.3 1.4-.2 2.9-1.3 3.9-1.2 1-3 .9-4.1-.1-1.5-1.4-3-2.9-4.3-4.4-.5-.6-.9-1.3-1.2-2-.1 1.7-.4 3.4-.8 5.1-.5 1.5-1.3 3-2.3 4.2-.9 1.1-2.5 1.4-3.8.8-1.3-.6-2-2-1.8-3.5.2-2.2.7-4.4 1-6.6.1-.4.2-.9.2-1.3l-2.1 2.4c-1.4 1.3-2.8 2.4-4.4 3.5-.9.5-1.9.8-2.9.9-3.2.1-4.5-2.1-3-4.9.7-1.1 1.4-2.2 2.2-3.3-1.6.3-3.2.5-4.8.6-1 0-2-.3-2.8-.7-2.4-1.2-2.6-3.8-.3-5.2 1.4-.8 2.9-1.4 4.4-2 .4-.1.7-.2 1.3-.4-1.5-.4-3-1-4.4-1.7-1.1-.7-2-1.6-2.6-2.6-.8-1.2-.7-2.7.3-3.8.9-1.1 2.3-1.5 3.6-1.2 1.8.4 3.5 1 5.4 1.5-1-1.4-1.9-2.7-2.7-4.1-.6-1-1.1-2.1-1.4-3.2-.5-2.4 1.3-3.9 3.6-3 1.7.8 3.3 1.8 4.8 2.9.2.1.5.3.8.5-.2-2.1-.5-4.1-.6-6.1-.2-1.9 1-3.6 2.9-4 1.9-.5 3.3.1 4.4 1.9.5.8.9 1.7 1.4 2.6s.8 1.7 1.3 2.6c.4-1.3.9-2.6 1.4-3.9.5-1 1.2-1.9 2-2.7 1.2-1.1 3.2-1.1 4.3.2.4.4.7 1 .8 1.6.7 3 .1 5.9-.5 8.8-.2.9-.5 1.9-.7 2.9 1.9-1.7 3.7-3.4 5.5-5 .7-.6 1.5-1.1 2.4-1.4 1.1-.6 2.5-.4 3.5.4 1.1.8 1.4 2.3.9 3.5-.6 1.4-1.5 2.8-2.6 3.9-1.4 1.3-2.9 2.5-4.4 3.7 2.6 0 5-.1 7.3 0 1.4.1 2.8.6 4.1 1.3 1.9 1.1 1.8 2.8 0 4-.5.3-1.1.6-1.7.9-1 .2-1.6.4-2.2.5zm-20.2-7.4c-3.4-.1-7 3.1-7 6.3 0 2.4 2.8 5.3 5.2 5.5 3.9.2 7.4-2.6 7.5-6 .2-3.6-1.9-5.7-5.7-5.8zm-.7-1.7c.4-4.9-.8-9.8-3.5-13.9-.6-1-1.4-1.8-2.8-1.4s-2.3 1.3-2 2.8c.6 3.4 1.4 6.8 2.4 10.2 1.1 3.1 2.8 3.6 5.9 2.3zm5 1.2c.8-2.8 1.8-5.4 2.4-8.1.4-2.3.5-4.6.3-6.9-.1-1.7-1.8-2.3-3-1.1-.7.7-1.2 1.5-1.6 2.4-1.3 3.1-1.8 6.5-1.4 9.9 0 2.8-.1 2.9 3.3 3.8zm3 7.1c-.9 2.3-.9 2.3 1.3 3.6.7.4 1.3.9 2 1.2 2.3 1.1 4.6 2.3 7 3.3 1.2.6 2.6.2 3.3-.9.7-1.1.6-2.5-.3-3.5-1.3-1.9-3.4-2.4-5.5-2.8-2.5-.5-5.1-.6-7.8-.9zm-18.5-.6.1-.4c.6.1 1.3.1 1.9 0 .4-.1.8-.4 1-.8.1-.4 0-.9-.3-1.2-3.5-2.4-7.4-4.1-11.5-5-1.1-.3-2.3-.3-2.8 1-.5 1.1-.2 2.4.8 3.1.6.6 1.2 1 2 1.2 2.9.7 5.8 1.4 8.8 2.1zm5.4-5c-.9-1.5-1.7-3.1-2.5-4.7-1.2-3.1-3.8-4.8-6.6-6.3-.8-.2-1.6-.3-2.3-.3 0 .8-.3 1.8.1 2.4 1.2 2.2 2.7 4.2 4.3 6.1 1.7 1.6 3.5 3 5.5 4.3.7-.6 1.1-1 1.5-1.5zm-1.4 9.3c-3.3 2-6.5 4.2-8.4 7.6-.4.6-.7 1.9-.3 2.3.7.5 1.6.8 2.5.8.4 0 .8-.1 1.1-.3 3.7-1.8 5.8-5 8.2-8l-3.1-2.4zm13.6-8.4c1-.4 2-.8 2.9-1.2 3.2-1.4 6-3.6 8.2-6.4.7-1 1.2-2.3.2-3.4s-2.4-.6-3.3.2c-1.8 1.4-3.5 3-5.2 4.6-1.3 1.5-2.6 3.1-3.7 4.8l.9 1.4zm-.8 8.5c-.6.5-1.2.9-1.9 1.3-1 .4-1 1.1-.6 1.9 1.1 2 2.2 4.1 3.5 6 .7 1 1.6 1.8 2.7 2.5.7.4 1.5.5 2.3.2.6-.4.7-1.5 1-2.2 0-.3 0-.7-.2-1-.5-2.5-2.6-4-4.2-5.8-.8-1-1.6-1.9-2.6-2.9zm-13.7-1.5c-.1-1.3-.6-1.9-1.8-1.7-2.6.3-5.3.5-7.9 1-1.4.3-2.6.8-3.8 1.5-.7.4-1.2 1.1-1.3 1.9.1.6 1 1.4 1.6 1.6 1.1.4 2.3.4 3.5.2 3.5-.9 6.8-2.4 9.7-4.5zm9.3 3.9c-.8 0-1.7.1-2.5.3-.4.1-.7.4-.9.8-1.3 3-2 6.2-2.1 9.5 0 1.1.1 2.2 1.3 2.5 1.2.3 2.4-.3 2.8-1.4.6-1.3 1.1-2.6 1.3-4 .3-2.6 1-5.1.1-7.7zm6.1-7.5c3.4.3 6.6.7 9.9.7 2 0 3.9-.4 5.7-1 1.1-.4 1-1.2 0-1.8-.5-.3-1.2-.6-1.8-.7-2.6-.2-5.2-.4-7.8-.3-2.1.2-4.2.5-6.3.9.1.9.2 1.4.3 2.2z"/><path class="st3" d="M158.2 264.2c3.8.1 5.9 2.2 5.8 5.8-.1 3.4-3.7 6.2-7.5 6-2.5-.1-5.3-3.1-5.2-5.5 0-3.2 3.5-6.4 6.9-6.3zM157.5 262.5c-3.1 1.3-4.8.8-5.9-2.4-1-3.3-1.8-6.7-2.4-10.2-.3-1.5.7-2.4 2-2.8s2.1.4 2.8 1.4c2.7 4.2 3.9 9.1 3.5 14zM162.5 263.7c-3.3-1-3.3-1-3.4-3.9-.4-3.4.1-6.8 1.4-9.9.4-.9.9-1.7 1.6-2.4 1.3-1.2 2.9-.6 3 1.1.2 2.3.1 4.6-.3 6.9-.5 2.8-1.5 5.5-2.3 8.2zM165.5 270.8c2.7.3 5.3.4 7.8.9 2.1.4 4.2.9 5.5 2.8.9 1 1 2.4.3 3.5s-2.1 1.5-3.3.9c-2.4-1-4.6-2.1-7-3.3-.7-.4-1.4-.8-2-1.2-2.2-1.3-2.2-1.3-1.3-3.6zM147 270.2c-2.9-.7-5.9-1.4-8.8-2.2-.8-.2-1.4-.7-2-1.2-.9-.7-1.2-2-.8-3.1.6-1.2 1.8-1.2 2.8-1 4.1.9 8 2.6 11.5 5 .3.3.4.8.3 1.2-.2.4-.6.7-1 .8-.6.1-1.3.1-1.9 0l-.1.5zM152.4 265.2c-.4.5-.8.9-1.5 1.6-1.9-1.3-3.8-2.7-5.5-4.3-1.6-1.9-3.1-4-4.3-6.1-.4-.6-.1-1.6-.1-2.4.8-.1 1.6 0 2.3.3 2.7 1.5 5.3 3.2 6.6 6.3.8 1.5 1.6 3.1 2.5 4.6zM151 274.5l3 2.3c-2.3 3.1-4.5 6.3-8.2 8-.3.2-.7.3-1.1.3-.9 0-1.8-.3-2.5-.8-.3-.3 0-1.6.3-2.3 2.1-3.3 5.2-5.5 8.5-7.5zM164.6 266.1l-1-1.4c1.2-1.6 2.4-3.2 3.7-4.8 1.6-1.7 3.3-3.2 5.2-4.6 1-.8 2.2-1.4 3.3-.2 1.1 1.2.6 2.4-.2 3.4-2.2 2.8-5 5-8.2 6.4-.8.4-1.7.7-2.8 1.2zM163.8 274.6c1 1 1.8 1.9 2.6 2.8 1.6 1.8 3.6 3.2 4.2 5.8.1.3.2.7.2 1-.2.8-.4 1.9-1 2.2-.8.3-1.6.2-2.3-.2-1.1-.6-2-1.5-2.7-2.5-1.3-1.9-2.4-4-3.5-6-.4-.8-.4-1.4.6-1.9.7-.3 1.3-.7 1.9-1.2zM150.2 273.1c-2.9 2.1-6.3 3.6-9.8 4.5-1.2.2-2.3.1-3.5-.2-.7-.2-1.6-1-1.6-1.6.1-.8.6-1.5 1.3-1.9 1.2-.7 2.5-1.2 3.8-1.5 2.6-.5 5.3-.6 7.9-1 1.3-.2 1.8.3 1.9 1.7zM159.4 277c.9 2.6.2 5.1-.1 7.6-.2 1.4-.7 2.7-1.3 4-.5 1.1-1.7 1.7-2.8 1.4-1.2-.3-1.3-1.5-1.3-2.5.1-3.3.8-6.5 2.1-9.5.2-.4.5-.7.9-.8.8-.1 1.7-.2 2.5-.2zM165.5 269.5c-.1-.8-.2-1.4-.4-2.2 2.1-.4 4.2-.7 6.3-.9 2.6 0 5.2.1 7.8.3.6.1 1.2.3 1.8.7 1.1.6 1.1 1.5 0 1.8-1.9.6-3.8 1-5.7 1-3.2 0-6.4-.4-9.8-.7z"/><path class="st2" d="M186.7 255.5c-.7-1.4-1.3-2.8-1.9-4.3-.5-1.5.3-3.1 1.8-3.6.6-.2 1.3-.2 1.9 0 1.4.6 2.8 1.3 4.1 2.2v-1.6c.1-.9.1-2 .6-2.7.7-.9 1.7-1.6 2.8-1.9 1.1-.3 2 .7 2.5 1.7s.9 2.1 1.4 3.3c.4-.7.6-1.2.9-1.7 1-1.7 2.6-2.6 4.1-2.3 1.2.3 2 1.6 2.1 3.8 0 .6 0 1.2-.1 1.8-.1.6-.1 1.1-.3 2.1.6-.9 1.3-1.6 2.1-2.3 1.1-.9 2.4-1.6 3.9-2 1.4-.3 2.9.6 3.2 2.1.1.5.1 1-.1 1.5-.7 2-1.5 4-2.4 6l.9-.3c2.3-.7 4.6-1.4 7-2.1 1-.4 2.2-.1 2.8.8.7 1 .4 2.3-.5 3-1.2 1-2.4 1.9-3.7 2.7-.6.3-1.2.6-1.9.8 1.3.3 2.4.4 3.4.7.8.2 1.5.6 2.1 1 1.5 1.3 1.2 3-.6 3.9-.4.2-.7.3-1.1.5.2.5.4 1 .6 1.4.6 1.7-.4 3.6-2.1 4.2-.3.1-.7.2-1 .2-1.8-.2-3.6-.6-5.3-1.2-.4-.2-.9-.4-1.3-.7.3 1.3.5 2.5.7 3.8.2 1.3-.5 2.6-1.7 3.2-1.2.6-2.7.4-3.5-.7-1.4-1.4-2.5-3-3.7-4.5-.3.8-.5 1.8-.9 2.7-.4.9-.8 1.8-1.4 2.6-.6 1.1-1.8 1.7-3 1.4-1.3-.2-2.2-1.3-2.2-2.6.1-1.9.3-3.8.6-5.7.2-.8.4-1.6.4-2.4-.6.6-1.1 1.3-1.7 1.9-1.7 2-3.9 3.4-6.3 4.3-2.1.7-4.1.3-4.8-.9s-.1-2.8 1.7-4.3c1.1-1 2.4-1.8 3.7-2.7-1.8 0-3.6-.2-5.4-.5-2-.5-4-1.1-5.9-2-1.9-.9-1.9-2.8 0-3.7 1.1-.4 2.3-.7 3.6-.8.9-.1 1.8 0 2.7-.2-.9-.4-1.9-.7-2.8-1.2-1-.4-1.9-1.1-2.6-1.8-.6-.8-.8-1.8-.5-2.8.6-.7 1.5-1.1 2.4-1.1 1.3.1 2.5.4 3.8.8.2 0 .6.1.9.2zm13.7 4.3c-1.1.2-1.9.3-2.6.4-1.2.3-2.5.8-2.5 2.1 0 1.1.4 2.2 1.2 3 2.6 2.4 6.3 3.1 9.7 2 1.1-.3 2.2-1 2.1-2.4s-.4-2.9-1.9-3.4c-2-.7-4.2-1.2-6-1.7zm3.8-.7c1.5.7 2.5 1 3.8.5s2.6-1.1 3.3-2.6c.9-1.9 2-3.7 2.8-5.6.3-.7 0-1.6-.7-1.9-.4-.2-.8-.2-1.2 0-1 .3-1.9.8-2.6 1.6-1.9 2.5-3.6 5.2-5.4 8zm-1-.2c.6-1.1 1.1-2.2 1.6-3.4.1-.2.1-.4.1-.7 0-.8-.1-1.7 0-2.5.2-1.3.3-2.7.4-4-.2-.8-.5-1.6-.9-2.3-.8.4-1.6.9-2.3 1.6-.6.8-.9 1.6-1.1 2.6-.4 1.8-.7 3.7-1 5.5-.1.9-.2 1.9-.2 2.8l3.4.4zm-9.2-10.1c.2 3.6.8 6.8 2.7 9.5.2.3.8.7 1 .6.4-.2.7-.6.8-1 .2-1.2.1-2.5.3-3.7.3-2.7-.2-5.5-1.5-7.9-.2-.5-1-1.1-1.4-1.1-.6.2-1.2.6-1.5 1.2-.2.8-.4 1.6-.4 2.4zm1.8 10.9c-.9-1.6-1.6-3.3-2.3-5-.6-1.9-1.7-3.5-3.2-4.6-1.7-1.3-3-1.6-3.7-.8-1.2 1.3-.3 2.7.4 3.8 1.8 3 4.5 5.3 7.8 6.6h1zm-.7 6.7c-.6-1.5-1.4-2.4-3-2.5-1.9-.1-3.8-.5-5.7-.6-1.9-.1-3.8-.1-5.7.1-.5 0-.9.6-1.4 1 .4.4.7.7 1.2 1 4.6 2.3 9.6 1.8 14.6 1zm13.1-5.9c-.1.2-.1.4-.2.6.6.5 1.3 1.4 2 1.4 2 .2 4 .1 6.1.1l-.1-.4c.6-.5 1.2-1 1.8-1.4 1.3-.8 2.7-1.4 4-2.2.4-.3.6-1 .9-1.6-.6-.1-1.2-.5-1.8-.3-4.3 1.2-8.5 2.5-12.7 3.8zm-4.6 8.7c-1.1-.1-1.9-.2-2.8-.2-.3 0-.6.1-.8.4-1.4 2.6-2 5.6-2 8.6.1.7.6 1.3 1.2 1.6.3.1 1.3-.5 1.6-1 1.6-2.9 2.6-6.1 2.8-9.4zm-5.7-1.4c-.8-.1-1.3-.3-1.6-.2-2.6 1.3-5.1 2.5-7.6 3.9-.8.5-1.6 1.2-2.1 2-.8 1-.4 1.9.9 1.9 1.1-.1 2.2-.3 3.2-.8 2.9-1.4 4.9-3.9 7.2-6.8zm7.2 1.5c.2 3.3 1.1 6.2 3.8 8.4.5.4 1.2.6 1.8.4.5-.4.9-1 .9-1.7-.1-1.1-.4-2.1-.8-3.1-.6-1.2-1.6-2.2-2.3-3.4-.9-1.5-1.9-1.5-3.4-.6zm4.5-3.6c1.1.3 2 .6 2.9.9 2.8.7 5.6 1.3 8.5.6.6-.1 1.1-.7 1.6-1.1-.5-.5-.9-1.1-1.4-1.3-3.8-1-7.7-1.2-11.6-.6v1.5zm-.6 1.3c2.4 2.6 4.7 5.2 8.3 5.9.6.1 1.2.1 1.8 0 1-.1 1.7-1 1.7-2v-.1c0-1.1-.9-2-2-2-3.4 0-6.7-.6-9.8-1.8zm-14.7-5.6c-.2-.3-.5-.5-.8-.7-2.4-1.2-4.7-2.5-7.1-3.6-1.5-.6-3-1-4.5-1.3-.4-.1-.9.3-1.3.4.1.4.2.9.4 1.2.5.5 1 .9 1.7 1.2 3.1 1.5 6.5 2.6 10 3 .5 0 1.1 0 1.6-.2z"/><path class="st3" d="M200.4 259.8c1.8.5 3.9 1 5.9 1.7 1.5.5 1.9 2 1.9 3.4s-1 2-2.1 2.4c-3.3 1.1-7 .4-9.7-2-.8-.8-1.2-1.9-1.2-3 0-1.4 1.3-1.8 2.5-2.1.9-.2 1.6-.3 2.7-.4zM204.2 259c1.8-2.8 3.5-5.5 5.4-8 .7-.8 1.6-1.3 2.6-1.6.7-.3 1.6 0 1.9.7.2.4.2.8 0 1.2-.8 1.9-1.9 3.7-2.8 5.7-.7 1.5-1.9 2-3.3 2.6s-2.3.1-3.8-.6zM203.2 258.9l-3.4-.4c.1-.9.1-1.9.2-2.8.3-1.9.6-3.7 1-5.5.2-.9.5-1.8 1.1-2.6.7-.6 1.5-1.1 2.3-1.6.4.7.8 1.5.9 2.3-.1 1.3-.2 2.7-.4 4-.1.8 0 1.7 0 2.5 0 .2 0 .5-.1.7-.5 1.1-1 2.3-1.6 3.4zM194 248.8c0-.8.1-1.6.4-2.4.3-.6.8-1.1 1.5-1.2.4-.1 1.1.6 1.4 1.1 1.3 2.4 1.8 5.2 1.5 7.9-.2 1.2-.1 2.5-.3 3.7-.1.4-.4.8-.8 1-.2.1-.8-.3-1-.6-1.9-2.8-2.5-5.9-2.7-9.5zM195.8 259.7c-.4 0-.7 0-1.1-.1-3.3-1.2-6-3.6-7.8-6.6-.7-1.1-1.6-2.4-.4-3.8.8-.8 2.1-.5 3.7.8 1.6 1.2 2.7 2.8 3.2 4.6.7 1.8 1.5 3.5 2.4 5.1zM195.1 266.4c-5 .9-9.9 1.3-14.6-1.1-.4-.3-.8-.6-1.2-1 .4-.3.9-1 1.4-1 1.9-.1 3.8-.2 5.7-.1 1.9.1 3.8.5 5.7.6 1.6.1 2.4 1.1 3 2.6zM208.2 260.5c4.2-1.3 8.4-2.6 12.6-3.8.5-.1 1.2.2 1.8.3-.3.5-.4 1.3-.9 1.6-1.3.9-2.7 1.5-4 2.2-.6.4-1.2.9-1.8 1.4l.1.4c-2 0-4.1.1-6.1-.1-.7-.1-1.3-.9-2-1.4.2-.2.2-.4.3-.6zM203.6 269.2c-.2 3.3-1.2 6.5-2.8 9.4-.3.5-1.2 1.1-1.6 1-.6-.3-1.1-.9-1.2-1.6 0-3 .6-5.9 2-8.6.2-.2.5-.4.8-.4.9 0 1.7.1 2.8.2zM197.9 267.8c-2.3 2.8-4.3 5.4-7.2 6.8-1 .5-2.1.8-3.2.8-1.3 0-1.6-.9-.9-1.9.6-.8 1.3-1.5 2.1-2 2.5-1.4 5-2.7 7.6-3.9.3-.1.9.2 1.6.2zM205.1 269.3c1.4-.9 2.4-.9 3.3.6.7 1.2 1.7 2.2 2.3 3.4.5 1 .8 2 .8 3.1 0 .7-.3 1.3-.9 1.7-.6.2-1.3 0-1.8-.4-2.6-2.2-3.4-5.2-3.7-8.4zM209.6 265.7v-1.5c3.9-.6 7.8-.4 11.6.6.6.2.9.9 1.4 1.3-.5.4-1 .9-1.6 1.1-2.9.7-5.7 0-8.5-.6-.9-.3-1.8-.6-2.9-.9zM209 267c3.1 1.1 6.4 1.7 9.7 1.8 1.1 0 2 .9 2 2 .2 1-.5 1.9-1.5 2.1h-.1c-.6.1-1.2.1-1.8 0-3.6-.7-5.9-3.3-8.3-5.9zM194.3 261.5c-.5.1-1.1.2-1.6.2-3.5-.4-6.9-1.5-10-3-.6-.3-1.2-.7-1.7-1.2-.3-.3-.3-.8-.4-1.2.4-.2.9-.5 1.3-.4 1.6.3 3.1.7 4.5 1.3 2.4 1.1 4.8 2.4 7.1 3.6.3.1.6.4.8.7z"/><path class="st2" d="m354.5 303.7.8.3c4.8 2.1 9.6 4.1 14.4 6.4 12.9 6.3 24.8 14.6 35.2 24.5 5.7 5.6 11 11.5 15.8 17.9.9 1.2 1.9 2.3 2.7 3.5.3.4.2 1.1.2 1.6-.5 0-1 0-1.5-.1-.8-.4-1.6-.9-2.3-1.4-6.7-4.5-13.3-9.3-20.2-13.6-8-5-16.3-9.6-24.5-14.3-10.9-6.3-21.8-12.6-32.7-19-4.2-2.5-9-3.7-12.9-6.8-.1-.1-.4 0-.6 0-.4-.1-.8-.4-1.2-.5.2-.4.5-.8.8-1.1 3.4-2.6 7.3-4.5 11.5-5.6 2.5-.5 4.9-1.2 7.4-1.8 7.2-1.9 14.7-3 22.1-3.3 13.7-.6 26.9 2.1 40 5.6 12.2 3.3 23.6 8 33.1 16.6.7.6 1.5 1.3.9 2.2-.6.5-1.3.7-2.1.5-3.6-.7-7.2-1.5-10.8-2.2-5.6-1-11.2-2.1-16.8-3-3.3-.5-6.6-.6-9.9-1.1-16-2.5-32-4.4-48.1-5.4l-1.4-.1.1.2zm-18.3-3.1c22.2 1.4 44.3 3.2 66.3 6.7 7 1.1 14.2 1.6 21.2 2.6 4.8.7 9.5 2 14.2 3.1.5.1 1 .1 1.5 0-.5-.3-.9-.6-1.4-.8-7.8-4.2-16.2-6.8-24.6-9.5-5.8-1.9-11.7-3.6-17.7-5.1-9-2.3-18.2-2-27.3-1.3-11.2.8-22.4 1.8-33.6 2.8-.9.2-1.7.6-2.5 1l.1.3c1.2.1 2.5.1 3.8.2zm1.5 2.5c11 5 22.2 9.7 33.1 15.1 11.9 5.8 22.6 13.5 32.9 21.6 4.9 3.9 9.6 8 14.3 11.9-6-7.8-12.7-15-20.2-21.3-11-9.2-23.3-16.8-36.5-22.5-3-1.3-6.2-2.1-9.1-3.5-5.1-2.6-10.5-1.5-15.8-2.2 0 .1-.1.2-.1.4.4 0 .9.3 1.4.5zm77.1 47.7c-2.6-2.3-5.1-4.5-7.6-6.6-9.5-7.9-19.7-15-30.4-21.2-10-5.9-20.7-10.1-31.2-14.8-4.5-2-8.9-4-13.4-6l-.8-.3c28.5 15.3 56.2 31.4 83.4 48.9zm11.5-47.3c-10.4-4.9-21.4-7.6-32.6-9.8-15.9-3.2-32.4-2.6-48.1 1.9-1.8.4-3.5.9-5.2 1.6l1.9-.1 27.7-2.2c13-1 26.1.7 38.5 5 9.1 3.2 18.4 5.8 27.2 9.8.2.1.4.1.7.2.1-.1.1-.3.2-.4-3.4-2.1-6.7-4.3-10.3-6z"/><path class="st3" d="M332.4 300.5c1.3 0 2.5.1 3.8.2 22.2 1.4 44.3 3.2 66.3 6.7 7 1.1 14.2 1.6 21.2 2.6 4.8.7 9.5 2 14.2 3.1.5.1 1 .1 1.5 0-.5-.3-.9-.6-1.4-.8-7.8-4.2-16.2-6.8-24.6-9.5-5.8-1.9-11.7-3.6-17.7-5.1-9-2.3-18.2-2-27.3-1.3-11.2.8-22.4 1.8-33.6 2.8-.9.2-1.7.6-2.5 1l.1.3z"/><path class="st3" d="m336.5 301.9 1.4.7c11 5.1 22.1 10 32.9 15.4 11.8 5.9 22.4 13.7 32.7 22 4.9 3.9 9.5 8.1 14.1 12.1-5.9-7.9-12.6-15.1-20-21.5-10.9-9.3-23.1-17-36.2-22.9-3-1.4-6.2-2.1-9.1-3.7-5.1-2.7-10.5-1.6-15.8-2.4v.3z"/><path class="st3" d="M331.6 301.2c28.3 15.6 55.9 32.1 82.9 49.9-2.6-2.3-5.1-4.5-7.6-6.7-9.4-8-19.5-15.2-30.1-21.6-9.9-6-20.6-10.4-31.1-15.1-4.5-2-8.9-4.1-13.3-6.2l-.8-.3zM436.6 309.3c-3.4-2-6.7-4.1-10.3-5.8-10.4-4.9-21.4-7.6-32.6-9.8-15.9-3.2-32.4-2.6-48.1 1.9-1.8.4-3.5.9-5.2 1.6l1.9-.1 27.7-2.2c13-1 26.1.7 38.5 5 9.1 3.2 18.4 5.8 27.2 9.8.2.1.4.1.7.2.1-.3.1-.4.2-.6z"/><path class="st2" d="M311.7 294.3c4.7.9 9.5 1.3 14.1 2.6 16.2 4.8 31.5 12 45.4 21.5 15.7 10.5 25.5 25 29.1 43.6 0 .2.2.5.1.7-.1.5-.2 1.3-.5 1.5-.5.1-1.1 0-1.5-.3-.7-.6-1.3-1.2-1.8-1.9-9.1-11-19.5-20.8-31.1-29.2-13.4-9.7-27.5-18.4-41.4-27.2-4.8-3-9.4-6.4-14.1-9.7-.4-.3-.5-.9-.8-1.3.5-.1.9-.2 1.4-.2h1l.1-.1zm65 30.2c-7.7-6.5-16.5-11.3-25.4-15.8-8.4-4.4-17.2-8-26.3-10.6-1.5-.4-3.2-.7-4.7-1l-.1.3c2.1 1.2 4.3 2.4 6.5 3.5 11.3 5.8 22.4 11.9 33 18.7 8.9 5.6 16.9 12.6 23.6 20.6 2 2.4 4.2 4.6 6.1 7.1 2.5 3.3 4.9 6.8 7.4 10.2.4.6.8 1.2 1.1 1.9-2.8-14.3-10.2-25.6-21.2-34.9zm15.8 28.7c-7-8.8-14.1-17.6-22.8-25-5.9-4.9-12.3-9.1-19.1-12.8-10.8-5.9-21.7-11.7-32.6-17.4-1.5-.8-3.1-1.4-4.8-1.7.4.3.8.7 1.3 1 9.1 5.8 18.2 11.6 27.2 17.5 14.4 9.3 28.8 18.6 41.3 30.4 3.6 3.4 7 7.2 10.4 10.8.5.5.9 1 1.4 1.5l.3-.2c-.8-1.4-1.7-2.8-2.6-4.1z"/><path class="st3" d="M397.8 359.4c-2.7-14.3-10.2-25.6-21.1-34.9-7.7-6.5-16.5-11.3-25.4-15.8-8.4-4.4-17.2-8-26.3-10.6-1.5-.4-3.2-.7-4.7-1l-.1.3c2.1 1.2 4.3 2.4 6.5 3.5 11.3 5.8 22.4 11.9 33 18.7 8.9 5.6 16.9 12.6 23.6 20.6 2 2.4 4.2 4.6 6.1 7.1 2.5 3.3 4.9 6.8 7.4 10.2.3.6.7 1.3 1 1.9z"/><path class="st3" d="M395.1 357.3c-.8-1.4-1.7-2.8-2.6-4.1-7-8.8-14.1-17.6-22.8-25-5.9-4.9-12.3-9.1-19.1-12.8-10.8-5.9-21.7-11.7-32.6-17.4-1.5-.8-3.1-1.4-4.8-1.7.4.3.8.7 1.3 1 9.1 5.8 18.2 11.6 27.2 17.5 14.4 9.3 28.8 18.6 41.3 30.4 3.6 3.4 7 7.2 10.4 10.8.5.5.9 1 1.4 1.5l.3-.2z"/><path class="st2" d="M380.2 263.2c.5-.2 1-.3 1.4-.5 7.7-3 15.9-4.2 24.2-3.6 3.6.2 7.1.1 10.6-.3 6.2-.5 12.4.7 18 3.3 1.8.8 1.9 2 .5 3.4-5.2 5-10.5 10.1-15.8 15.1-5.1 4.8-11.3 7.2-17.9 9-4.3 1.2-8.6 2.4-12.9 3.5-12.4 3.2-24.2 8.3-35 15.1-3.5 2.2-6.3.9-7.4-3.3-2.4-9.9-1.1-19.4 2.3-28.8 1.7-4.8 3.4-9.7 4.9-14.6 2.1-7.2 6-13.8 11.3-19.1 3.2-3.1 5.9-6.8 8-10.8 3.9-7.6 10.4-12.3 18.2-15.4 2-.8 4.1-1.4 6.2-1.9 1.8-.4 2.6.6 2.2 2.4-.1.2-.1.5-.2.7-3 6.4-4.1 13.3-5.3 20.2-1.5 9.4-6 18-12.8 24.6l-.6.6c.2.1.2.2.1.4zm30.6 21.6c-1.9-.7-3.5-1.1-4.7-1.9-2.2-1.6-4.3-3.3-6.2-5.2-2.4-2.3-5-4.2-8.3-5-.6-.2-1.1-.2-1.7 0-5.1 2.1-10.1 4.2-15.1 6.4-.6.3-1.1.6-1.6 1 1.7 1.2 3.3 2.2 4.9 3.4 2.4 1.7 4.7 3.6 7.3 5.1 3 1.8 6.1 2.7 9.7 1.4 2-.8 4.2-1.1 6.3-1.8 3-1.2 6.1-2.3 9.4-3.4zm-18-13.2c4 1.4 6.7 4 9.4 6.5 1.5 1.3 3 2.6 4.7 3.6 2.1 1.4 4.7 2 6.8.9 4.1-2.1 7.1-5.7 10.1-8.9-1.5-1.4-3-2.7-4.4-3.9s-2.6-2.3-4-3.3c-.5-.4-1.2-.6-1.9-.7-7.4-.5-13.5 3.7-20.7 5.8zM358 293.1c3.3.2 6.5 1.3 9.2 3.3 1.5 1 3.4 1.2 5 .5 4.9-1.8 9.8-3.3 14.7-5 .3-.1.6-.2 1.1-.4-1.2-.5-2.3-1.1-3.5-1.8-2.8-2-5.5-4.1-8.2-6-1.2-.8-2.5-1.5-3.9-2-.8-.2-1.7 0-2.5.4-4.3 2.9-8.2 6.4-11.6 10.4 0 .1-.2.3-.3.6zm33.2-50.9-10 1.4c-1.4.2-2.7 1-3.4 2.3-2.3 3.5-4.8 6.9-7.2 10.3-.4.6-.9 1.1-1.5 2 3.3 0 6.3-.1 9.2 0s5.2-.4 6.8-2.9c.4-.7 1-1.3 1.4-1.9 2.2-3.5 3.8-7.3 4.7-11.2zm2.7 18.9c-.5 0-1 0-1.5.1-4.2 1.2-8.4 2.4-12.5 3.8-1.9.7-3.7 1.5-5.5 2.5-.7.4-1.2 1.1-1.4 1.9-.3 3.1-.4 6.2-.5 9 5.5-2.2 11.2-4.5 16.8-6.8.6-.3 1.1-.8 1.3-1.5 1.2-3 2.2-5.9 3.3-9zm-26.2-3.4c3.5-3.9 6.6-8.2 9.2-12.7.2-.5.3-1.2.1-1.7l-3-10.2h-.5c-.2.4-.5.8-.7 1.2-1.7 2.4-3.4 4.7-5.2 7-1.1 1.3-2.2 2.5-3.5 3.6-1.5 1.3-1.5 2.7-.6 4.2.4.8.9 1.7 1.3 2.5.9 2 1.8 4 2.9 6.1zm-6-9.4-.3.3c-3.9 5.3-6 11.3-7.7 17.5-.1.3-.1.6 0 .9 1.1 2.4 2.3 4.9 3.5 7.6.4-.8.6-1.2.8-1.5 2.2-3.8 4.2-7.7 6.8-11.3 1.4-1.8 1.7-4.2.6-6.2l-1.2-2.4-2.5-4.9zm-4.3 43.2.9-.9c3.3-3.7 7.1-7.1 11.2-9.9.8-.5 1.4-1.3 1.6-2.2.4-3 .5-6.1.8-9.4-.3.1-.6.2-.9.4-5 3-9.5 6.9-13 11.6-.2.2-.3.5-.4.8-.1 3.2-.1 6.4-.2 9.6zm1.5-17.5c2.1.1 4.1-.5 5.7-1.8 2.7-2.3 5.6-4.2 8.8-5.7 3.5-1.6 5.4-4.7 8.2-6.9-1.4-.1-2.7-.2-3.9-.2h-8.3c-1.1 0-2 .6-2.5 1.5-1.1 1.7-2.4 3.3-3.5 5-1.6 2.6-3 5.3-4.5 8.1zm33.1-3.3c3-1.1 5.7-2.1 8.3-3.2 4.4-2 9-3.3 13.9-2.9.4 0 1-.1 1.2-.3.7-1.2 1.4-2.5 2.1-4.1-.9.1-1.4.2-1.9.2-2.9.1-5.7.3-8.6.4-3.1 0-6.1-.1-9.2-.2-1.4-.2-2.8.7-3.1 2.1-.9 2.5-1.7 5.1-2.7 8zm-12.2-28.2c3.8-.6 7.2-1.2 10.6-1.6 1-.1 1.3-.6 1.4-1.5l.9-5.4c.4-2.2.8-4.4 1.2-6.8-2.2.3-4.2.5-6.3.8-.5.1-.9.3-1.2.7-2.1 4.5-4.3 9-6.6 13.8zm-33.1 56.9c.6-1.6 1-3 1.6-4.4 2.5-5.7 4.9-11.3 7.5-16.9.6-1.4 1-2.5 0-3.9-1.1-1.6-1.9-3.5-2.9-5.4-5.5 14.1-7.9 22.7-6.2 30.6zm37.7-78.2c-3.7 2.3-6.9 5.3-9.2 9-.3.5-.4 1-.2 1.5 1.1 3.5 2.2 7 3.4 10.6.3-.6.6-1 .9-1.5 2-4.1 4-8.2 6-12.4.2-.3.2-.7.2-1-.3-2-.7-4-1.1-6.2zm-16.5 77.3c0-.2.1-.3.1-.5-2.7-1.2-5.4-2.5-8.1-3.4-1.8-.6-3.6-.4-4.6 1.7-.7 1.4-1.7 2.6-2.4 3.9-1.4 2.4-2.4 5-2.8 7.8l17.8-9.5zM357 283.2l-.6-.2-3.3 5.4c-2.8 4.7-5.1 9.6-5.6 15.1.1 1 .3 2.1.8 3 1.8-3.5 3.5-6.9 5.4-10.2 1.1-1.5 1.8-3.2 2.1-5.1.3-2.7.8-5.3 1.2-8zm61.2-16.8c.7.8 1.7 2 2.7 3.1.9.9 1.8 1.7 2.8 2.4.6.5 1.6.5 2.1-.2 0 0 0-.1.1-.1 2.3-2.1 4.6-4.2 7-6.2l1.1-1c0-.1-.1-.2-.2-.3l-15.6 2.3zm13.8-3.8c-3.9-1.6-8-2.5-12.2-2.5-.4 0-.8.2-1 .5-.7 1.2-1.2 2.5-1.8 3.8 5.1.9 9.8-.8 15-1.8zm-34.4-45.9c-4.1 2.4-7.1 5.9-9.8 10 1.6-.2 2.8-.3 4-.4 1.7-.2 3-.7 3.2-2.7.2-1 .5-2 1-2.9.5-1.4 1-2.7 1.6-4zm-11 8.9 8.4-9.3c-3 1.1-6 2.4-9 3.8-.3.2-.5.6-.5.9.3 1.6.7 3.1 1.1 4.6zm-25.5 49.5c-1.6.2-2.9.1-3.4 1.8-.4 1.2-.9 2.4-1.5 3.5l.3.1 4.6-5.4z"/><path class="st3" d="M410.8 284.8c-3.3 1.1-6.4 2.3-9.6 3.3-2.1.7-4.2 1-6.3 1.8-3.5 1.4-6.7.4-9.7-1.4-2.5-1.5-4.9-3.4-7.3-5.1-1.6-1.1-3.2-2.2-4.9-3.4.5-.3 1.1-.7 1.6-1 5-2.1 10.1-4.3 15.1-6.4.6-.2 1.1-.2 1.7 0 3.3.8 5.9 2.7 8.3 5 2 1.9 4.1 3.6 6.2 5.2 1.5.9 3.1 1.2 4.9 2zM392.8 271.6c7.2-2.1 13.3-6.3 20.8-5.7.7.1 1.3.3 1.9.7 1.4 1 2.7 2.2 4 3.3s2.9 2.5 4.4 3.9c-3 3.2-6 6.8-10.1 8.9-2.1 1.1-4.7.4-6.8-.9-1.7-1.1-3.2-2.3-4.7-3.6-2.8-2.6-5.4-5.2-9.5-6.6zM358 293.1c.2-.3.3-.5.5-.8 3.3-4 7.2-7.4 11.5-10.3.7-.4 1.6-.6 2.4-.4 1.4.5 2.7 1.2 3.9 2 2.8 2 5.5 4.1 8.2 6 1.1.7 2.3 1.3 3.5 1.8-.5.2-.8.3-1.1.4-4.9 1.6-9.9 3.2-14.7 5-1.6.7-3.5.5-5-.5-2.7-1.9-5.9-3-9.2-3.2zM391.2 242.2c-.8 4-2.5 7.8-4.8 11.2-.4.7-.9 1.3-1.4 1.9-1.6 2.5-4 3.1-6.8 2.9s-5.9 0-9.2 0c.6-.8 1.1-1.4 1.5-2 2.4-3.4 4.9-6.8 7.2-10.3.7-1.3 2-2.1 3.4-2.3l10.1-1.4zM393.9 261.1c-1.1 3.1-2.1 6.1-3.2 9-.3.6-.7 1.1-1.3 1.5-5.6 2.3-11.2 4.6-16.8 6.8.1-2.7.2-5.9.5-9 .2-.8.7-1.5 1.4-1.9 1.8-1 3.6-1.8 5.5-2.4 4.1-1.4 8.3-2.5 12.5-3.8.5-.2.9-.2 1.4-.2zM367.6 257.7c-1-2.1-1.9-4.1-2.9-6-.4-.8-.9-1.7-1.3-2.5-.8-1.6-.9-2.9.6-4.2 1.3-1.1 2.5-2.3 3.5-3.6 1.8-2.3 3.5-4.6 5.2-7 .3-.4.5-.8.7-1.2h.5l3 10.2c.2.6.1 1.2-.1 1.7-2.6 4.4-5.7 8.6-9.2 12.6zM361.6 248.3l2.5 4.9c.4.8.9 1.6 1.2 2.4 1.1 2 .9 4.5-.6 6.2-2.6 3.5-4.5 7.5-6.8 11.3-.2.4-.4.8-.8 1.5-1.3-2.7-2.4-5.1-3.5-7.6-.1-.3-.1-.6 0-.9 1.6-6.2 3.8-12.3 7.7-17.5.1-.2.2-.3.3-.3zM357.4 291.5c.1-3.2.2-6.5.3-9.7 0-.3.2-.6.4-.8 3.5-4.7 7.9-8.6 12.9-11.6.3-.1.6-.3.9-.4-.2 3.3-.4 6.4-.8 9.4-.2.9-.8 1.7-1.6 2.2-4.1 2.8-7.9 6.1-11.2 9.9-.4.5-.8.8-.9 1zM358.9 274c1.5-2.8 2.9-5.5 4.5-8.1 1-1.7 2.4-3.3 3.5-5 .5-.9 1.5-1.5 2.5-1.5h8.3c1.2 0 2.5.1 3.9.2-2.8 2.2-4.7 5.3-8.2 6.9-3.2 1.5-6.1 3.5-8.8 5.7-1.6 1.3-3.6 1.9-5.7 1.8z"/><path class="st3" d="M392 270.7c1-2.9 1.9-5.5 2.8-8.1.3-1.4 1.7-2.3 3.1-2.1 3.1.2 6.1.2 9.2.2 2.9 0 5.7-.2 8.6-.4.5 0 1-.1 1.9-.2-.8 1.5-1.4 2.8-2.1 4.1-.2.3-.8.4-1.2.3-4.9-.4-9.5.9-13.9 2.9-2.7 1.3-5.5 2.2-8.4 3.3zM379.8 242.5c2.3-4.8 4.5-9.3 6.7-13.7.3-.4.7-.7 1.2-.7 2-.3 4.1-.6 6.3-.8-.4 2.4-.8 4.6-1.2 6.8l-.9 5.4c-.1.9-.4 1.4-1.4 1.5-3.5.3-6.9.9-10.7 1.5z"/><path class="st4" d="M346.7 299.4c-1.6-7.9.7-16.5 6.2-30.6 1 1.9 1.8 3.7 2.9 5.4.9 1.4.6 2.5 0 3.9-2.5 5.6-5 11.3-7.5 16.9-.6 1.4-1.1 2.8-1.6 4.4z"/><path class="st3" d="M384.4 221.2c.4 2.3.8 4.2 1.1 6.2 0 .3 0 .7-.2 1-2 4.1-4 8.3-6 12.4-.2.5-.5.9-.9 1.5-1.2-3.6-2.3-7.1-3.4-10.6-.1-.5 0-1.1.2-1.5 2.3-3.7 5.5-6.8 9.2-9z"/><path class="st4" d="m367.9 298.5-17.8 9.4c.4-2.8 1.4-5.4 2.8-7.8.7-1.4 1.7-2.5 2.4-3.9 1-2.1 2.8-2.3 4.6-1.7 2.8 1 5.4 2.3 8.1 3.4 0 .3-.1.5-.1.6zM357 283.2c-.4 2.7-.9 5.4-1.1 8-.3 1.8-1.1 3.6-2.1 5.1-2 3.3-3.6 6.7-5.4 10.2-.4-.9-.7-2-.8-3 .5-5.5 2.7-10.5 5.6-15.1l3.3-5.4.5.2z"/><path class="st3" d="m418.2 266.4 15.7-2.4c0 .1.1.2.2.3l-1.1 1c-2.3 2.1-4.7 4.1-7 6.2-.5.7-1.4.8-2.1.3 0 0-.1 0-.1-.1-1-.7-1.9-1.5-2.8-2.4-1.1-.9-2-2.1-2.8-2.9zM432 262.6c-5.2 1-9.9 2.6-15 1.8.6-1.3 1.2-2.6 1.8-3.8.2-.3.6-.5 1-.5 4.2.1 8.3.9 12.2 2.5zM397.6 216.7c-.5 1.3-1.1 2.6-1.6 3.9-.5.9-.8 1.9-1 2.9-.2 2-1.5 2.6-3.2 2.7-1.2.1-2.5.3-4 .4 2.7-4 5.7-7.4 9.8-9.9zM386.6 225.6c-.3-1.4-.7-3-1-4.5 0-.4.2-.7.5-.9 3-1.4 5.9-2.7 9-3.8-2.9 3-5.7 6.1-8.5 9.2zM361.1 275.1l-4.6 5.4-.3-.1c.6-1.1 1.1-2.3 1.5-3.5.5-1.7 1.8-1.5 3.4-1.8z"/><path class="st2" d="m230.7 249.9-1-.9c-12.1-10.7-24.8-20.7-37.8-30.2-2.7-1.9-5.1-4.3-7.8-6.2-4.6-3.4-9.3-6.6-14-9.8-3-2.1-6.1-4-9.1-6.1-.6-.4-1.2-1.3-1.1-1.8.2-1.1 1.3-.9 2.2-.9 12.8.7 24.2 5.4 35.2 11.7 11.7 6.8 23 14.2 32.2 24.4 5 5.5 9.5 11.6 13.3 18 1.3 2.2 2.6 4.4 3.9 6.5 2.2 3.7 3.6 7.8 4.2 12.1 0 .5-.1.9-.2 1.4-.4-.2-.8-.3-1.2-.5-.2-.1-.3-.4-.4-.4-4.9-.5-9.2-3.1-13.9-4.3-12.2-3.2-24.4-6.5-36.5-9.8-9.1-2.4-18.2-5.1-27.4-7.2-7.9-1.9-15.9-3.1-23.9-4.7-.9-.1-1.7-.4-2.6-.6-.4-.3-.8-.6-1.1-1 .4-.3.8-.9 1.3-1 1.4-.3 2.9-.4 4.4-.6 7.9-1 15.9-1.5 23.8-1.3 14.4.4 28.6 2.9 42.2 7.6 4.9 1.7 9.8 3.8 14.6 5.7l.8.3-.1-.4zm17.9 13.6.3-.2c-.3-.9-.6-1.7-1.1-2.5-7.2-8.6-14.4-17.3-21.7-25.8-6-6.9-12.3-13.6-20.2-18.4-5.2-3.2-10.6-6.1-16.1-8.9-7.8-4.1-15.6-8.2-24.1-10.8-.5-.2-1.1-.3-1.6-.4.3.5.6.8 1.1 1.1 4.1 2.6 8.3 5 12.2 7.9 5.7 4.2 11.1 9 16.8 13.2 18 13.1 34.9 27.5 51.6 42.2.9.8 1.8 1.7 2.8 2.6zm-4.2-1.4.2-.3c-4.3-3.2-7.3-7.9-12.7-9.6-3.1-1-5.9-2.8-8.9-3.9-13.4-5.3-27.4-8.7-41.7-10-9.8-.8-19.6-.5-29.4.8 6 .5 12.3.9 18.5 1.7 13.1 1.6 26.1 3.8 38.6 8.1 11.5 3.9 22.7 8.5 34 12.8l1.4.4zm3.9 3-.8-.3c-4.6-1.7-9.1-3.4-13.7-5.2-10.7-4.2-21.3-8.8-32.5-11.7-12-3.2-24.2-5.3-36.5-6.5-3.3-.3-6.6-.5-10.1-.8 31.6 7 62.6 15.2 93.6 24.5zm-79.6-69.2-.1.5c.2.1.4.3.6.4 9.1 3.4 17.5 8.2 26.1 12.4 11.8 5.7 22.2 13.7 30.7 23.7 6 7 12 14.1 18 21.1.4.5.8.9 1.2 1.4-.7-1.6-1.6-3.2-2.6-4.8-7.9-14.2-19.1-26.3-32.6-35.4-9.5-6.3-19.2-12.2-30-16.2-3.6-1.2-7.5-2-11.3-3.1zM259.1 259.7c0 .3 0 .7-.1 1-.1.5-.2.9-.3 1.4-.4-.3-1-.5-1.2-.9-2.9-4.9-5.9-9.8-8.5-14.8-7.7-14.6-15.2-29.3-23.8-43.5-7.4-12.2-16.4-23.4-26.6-33.3-.7-.6-1.3-1.3-1.8-2-.3-.5-.4-1-.2-1.6.2-.3 1-.3 1.6-.4.2 0 .5.1.7.2 18.3 5.1 31.9 16.1 41.1 32.5 8.3 14.6 14.3 30.5 17.8 47 .9 4.7 1 9.5 1.5 14.3l-.2.1zm-57.8-91c.6.4 1.2.8 1.8 1.3 3.2 2.7 6.5 5.3 9.6 8.1 2.3 2.1 4.4 4.4 6.6 6.6 7.5 7.4 13.7 15.9 18.6 25.2 5.9 11.2 11.1 22.8 16 34.4.9 2.3 2 4.5 3 6.7l.4-.1c-.2-1.6-.3-3.2-.6-4.8-1.9-9.3-4.8-18.4-8.5-27.2-3.8-9.2-7.9-18.4-13.7-26.6-8.5-11.5-19.2-19.8-33.2-23.6zm1.9 2.9-.3.3c.5.5 1 1 1.4 1.5 3.3 3.7 6.8 7.3 9.9 11.2 10.7 13.5 18.8 28.6 27 43.6l15.3 28.5c.2.5.6.9.9 1.4-.2-1.7-.7-3.3-1.4-4.9-4.9-11.3-9.7-22.6-14.8-33.9-3.1-7-6.8-13.8-11.2-20.1-6.6-9.3-14.8-17-23.1-24.7-1.1-1.1-2.4-2.1-3.7-2.9z"/><path class="st3" d="M248.6 263.5c-.9-.9-1.9-1.8-2.8-2.6-16.7-14.7-33.6-29.1-51.6-42.2-5.8-4.2-11.1-8.9-16.8-13.2-3.9-2.9-8.1-5.3-12.2-7.9-.5-.3-.9-.6-1.1-1.1.5.1 1.1.3 1.6.4 8.5 2.6 16.3 6.7 24.1 10.8 5.4 2.8 10.8 5.8 16.1 8.9 8 4.8 14.2 11.5 20.2 18.4 7.4 8.5 14.5 17.1 21.7 25.8.5.8.9 1.6 1.1 2.5l-.3.2zM244.4 262.1l-1.5-.5c-11.3-4.3-22.6-8.9-34-12.8-12.5-4.3-25.5-6.5-38.6-8.1-6.2-.8-12.5-1.2-18.5-1.7 9.7-1.3 19.6-1.5 29.4-.8 14.3 1.3 28.3 4.7 41.7 10 3 1.2 5.9 2.9 8.9 3.9 5.5 1.8 8.5 6.5 12.7 9.6l-.1.4z"/><path class="st3" d="M248.2 265.2c-31-9.4-62-17.6-93.6-24.5 3.5.3 6.8.5 10.1.8 12.3 1.2 24.5 3.4 36.5 6.5 11.2 2.9 21.8 7.5 32.5 11.7 4.6 1.8 9.1 3.5 13.7 5.2l.8.3zM168.7 195.9c3.8 1 7.7 1.8 11.4 3.2 10.8 3.9 20.5 9.8 30 16.2 13.5 9 24.7 21.2 32.6 35.4.9 1.5 1.8 3.1 2.6 4.8-.4-.5-.8-.9-1.2-1.4-6-7-12-14.1-18-21.1-8.5-10-18.9-18-30.7-23.7-8.7-4.2-17.1-9-26.1-12.4-.2-.1-.4-.2-.6-.4v-.6zM201.3 168.6c14 3.9 24.7 12.2 33.1 23.8 5.9 8.2 9.9 17.3 13.7 26.6 3.7 8.7 6.6 17.8 8.5 27.1.3 1.6.4 3.2.6 4.8l-.4.1c-1-2.2-2-4.5-3-6.7-4.9-11.7-10.1-23.2-16-34.4-4.9-9.3-11.2-17.8-18.6-25.2-2.2-2.2-4.3-4.5-6.6-6.6-3.1-2.8-6.4-5.4-9.6-8.1-.5-.6-1.1-.9-1.7-1.4z"/><path class="st3" d="M203.1 171.5c1.3.9 2.6 1.9 3.9 3 8.2 7.7 16.4 15.5 23.1 24.7 4.4 6.3 8.1 13 11.2 20.1 5 11.2 9.9 22.6 14.8 33.9.7 1.6 1.1 3.2 1.4 4.9-.3-.5-.6-.9-.9-1.4-5.1-9.5-10.1-19.1-15.3-28.5-8.2-15.1-16.3-30.2-27-43.6-3.1-3.9-6.6-7.5-9.9-11.2-.5-.5-.9-1-1.4-1.5l.1-.4z"/><path class="st2" d="M256.8 172.8c-1 .3-2 1-2.7.8-1.7-.7-1.1-2.5-1.3-4.1-.5.9-1.2 1.7-1.9 2.5-.7.4-1.5.8-2.3 1-.3-.7-.9-1.5-.8-2.2.2-1.6.5-3.2.8-4.8.1-.5.2-1 .4-1.7-1.5 1.4-2.8 2.6-4.1 3.8-.4.4-.9.7-1.5.9-.4.1-1.1.2-1.3-.1-.3-.4-.5-.9-.4-1.4.6-1.4 1.4-2.8 2.4-4.1 1.9-2.4 4-4.8 6.4-7.5-1-2-.3-4.4 1.6-5.6-1-2.2-1-4.2 1.1-5.7.2-.2.2-.4.2-.7.1-1.7 1.3-3.1 3-3.5 1.6-.4 3.3.2 4.2 1.6.7 1.1 1.8 1.8 3 2.1 1.5.3 2.2 1.8 2.4 3.3.2 1.3.6 2.5 1.2 3.7.6 1.2.4 2.7.5 4.2 2.5 1 5.2 1.9 7.8 3.1 1.5.8 2.8 1.8 4 3 .5.5.7 1.1.5 1.8-.4.6-1 1-1.8 1-1.8-.3-3.7-.7-5.5-1.2-.6-.2-1.2-.4-1.8-.7.8 1.2 1.5 2.4 2.1 3.7.3.6.3 1.4 0 2-.5.5-1.3.7-1.9.5-1.5-.7-3-1.5-4.4-2.4-.5-.4-.9-.7-1.3-1.2.3 1.2.6 2.4.7 3.6.1 1.4.1 2.8-.2 4.1-.2.9-.8 1.6-1.6 2-.7.2-1.7-.5-2.4-1-.5-.3-.8-1-1.3-1.8-.3 3.2-.6 6.2-.9 9.5 3.1-2 5.9-1.3 8.9-.2 1.8.6 3.9.9 5.5-.8.4-.4.8-1 1-1.5.9-2.4 2.8-3 4.8-1.4.6.5 1.1 1 1.5 1.6.8 1.2 1.8 2.3 2.9 3.1 1.1.7 1.4 2.6 2.1 4.2 2.1-.2 4.6-.6 7.1-.7 1 .1 2 .3 2.9.6v-9.9l-.4-.1c-.1.4-.4.8-.6 1.2-.4.4-1 1.1-1.4 1-.6-.2-1-.7-1.2-1.3-.2-1.1-.2-2.3-.1-3.4.1-1.7.4-3.3.6-5.3-1.1 1.2-2 2.4-3.1 3.3-.6.4-1.3.7-2 .9-.3-.8-.4-1.6-.4-2.4.2-.8.5-1.6.8-2.3-1.3.5-2.6 1-3.9 1.4-.7.1-2-.1-2.2-.5-.3-.8-.1-1.7.3-2.4 1.7-2.3 4.2-3.5 6.8-4.6.6-.3 1.3-.5 2-.8-1.3-1.8-1.3-4.2-.1-6.1.4-.6.2-1.6.3-2.5.4-1.8.8-3.6 3-4.1.2-.1.5-.5.6-.8.5-1.6 2-2.6 3.6-2.5 1.6 0 3 1.1 3.4 2.7.4 1.3.9 2.3 2.4 2.7.4.1.8.5.9.9.6 2.8 2.7 5.6.1 8.5 1.9.9 3.8 1.6 5.5 2.6 1.4.9 2.8 1.8 4 2.9.5.4.9.9 1.1 1.5.2.6.5 1.7.1 2-.6.5-1.4.7-2.1.5-2.4-1.2-4.7-2.6-7-3.9-.5-.3-1-.6-1.6-.9.7 1 1.4 1.9 2.1 2.9.4.5.7 1.1 1 1.7.5 1 1.1 2.2.1 3.1s-2.2.1-3-.6c-1.3-1.1-2.4-2.3-3.6-3.5-.3-.3-.6-.7-1.1-1.2.5 2.5.9 4.7 1.2 6.9.2 1.7.6 3.6-1.6 4.6-.2.1-.2.5-.2.8v18.3c0 .1.1.3.2.4l6.6-4.2c-.5-1.1-1.4-2.2-1.3-3.2s1.1-2 1.6-3c.2-.4.3-.8.3-1.2-.3-1.6.5-3.2 1.9-4 .4-.3.8-.7 1-1.2 2-3.2 5.2-3.1 7.3 0 .7.9 1.4 1.7 2.1 2.5.4.3.7.7.8 1.2.5 2.1.8 4.3 1 6.4-.1.9-.4 1.9-.9 2.7 2.4 2.4 4.9 4.7 7.3 7.1.6.6 1 1.2 1.3 2 .3.7.2 1.6-.1 2.3-.6.6-1.5.8-2.4.6-1.2-.5-2.4-1.2-3.4-2-.6-.5-1.3-1.1-1.8-1.7.3 1.3.6 2.2.8 3.1.2.7.2 1.5.1 2.2-.3.8-.9 1.4-1.7 1.7-.8.1-1.6-.3-2.1-.9-.6-.9-1.1-1.9-1.4-2.9-.7-1.9-1.2-3.9-1.9-6-1.2 3.6-.2 7.1 0 10.5.3 5.2-.3 10.4-1.9 15.4-.4 1.6-.7 3.3-.8 5l.4.1c.8-.9 1.5-1.8 2.3-2.6 2.3-2.5 5.4-3.9 8.8-4 2-.1 4-.4 6-.8 3.3-.5 6.7 0 9.6 1.6v-4c0-.4-.3-.8-.6-1.1-1.5-.8-3-1.5-4.5-2-3.2-1.2-6.5-2.2-9.8-3.3-.3-.1-.5-.4-.6-.7 0-.3.2-.6.5-.8 4-.8 7.9-2.8 11.9-.3.8.6 1.6 1.2 2.4 1.9V203c-3.2 2.6-3.5 2.6-4.3.4-.4.4-.9.7-1.5.9-.5.2-1.2.3-1.5.1-.4-.4-.6-.9-.6-1.5.3-1.5.8-3 1.3-4.8-.6.7-1.3 1.2-2 1.7-.7.4-1.5.4-2.2.1-.4-.6-.5-1.4-.2-2.1 1.6-2.2 3.3-4.3 5-6.4l1.1-1.1c-1.4-2-1.8-4.1-.2-6.2.2-.2 0-.7 0-1.1-.3-2.1-.1-4.1 2.1-5.2.2-.1.3-.6.5-.8.8-1.1 1.7-2.2 2.8-3.1 1.1-.9 2.8-.8 3.8.4.1.2.2.3.3.5.7 1.1 1.8 1.9 3.1 2.3 2 .7 3.3 2 3.1 4.3 0 .3 0 .6.2.8 1.6 2 1.4 4.2.7 6.6 1.4.2 2.8.3 4.1.5 3.1.5 6 2 8 4.4.4.8.7 1.6.8 2.5-.9.3-1.9.9-2.7.7-2.1-.6-4.3-1.2-6.3-2-.7-.2-1.4-.6-2-1.1 1.2 1.4 2.5 2.8 3.6 4.2.8 1 2 2.1 1 3.5s-2.4.7-3.5.1c-1.6-.9-3.1-1.9-4.6-2.9-.6-.4-1.1-.9-1.7-1.4.1 2.4.3 4.7.3 7 0 1.1 0 2.4-1.4 2.8s-2.1-.7-2.8-1.7c-.1-.2-.2-.3-.6-.8V216c3-3.6 6.7-2.3 10.1-2.2 1.4 0 2.8 1.1 4.1 1.9.9.7 1.8 1.5 2.6 2.3.3.5.5 1 .7 1.5-.5.2-1.1.3-1.6.3-1.2-.1-2.4-.4-3.5-.4-1.8 0-3.5.3-5.3.4-1.1.1-2.2 0-3.3-.1-1-.1-2-.4-3.1-.7.1 2.8.2 5.4.4 8.1.4-.1.7-.1 1.1-.3 3.8-1.3 7-.1 9.8 2.5.4.3.4 1 .6 1.5-.5.2-1 .3-1.5.4-2.5.1-5.1-.1-7.7.1s-3.4 1.8-3 4.3c.1.3.2.5.5.6 3.1 1.2 4.4 3.9 5.2 6.8 1.1 3.9 1.9 7.9 2.6 11.9 1 5.8 2.8 11.5 5.4 16.9 3.1 6 5.1 12.6 6 19.3.2.8.6 1.5 1.1 2.1.6.8 1.1 1.7 1.5 2.5 1.8 3.9 3 8 3.5 12.2.4 2.7.8 5.4 1.1 8.1.2 3.3-.2 6.6-1.2 9.8-.5 1.8-1.7 3.3-3.3 4.2-1.8 1.3-3.7 2.3-5.7 3.1-11.5 4-21.8 10.1-31.8 16.8-13.1 8.7-26.5 17-39.2 26.3-14.5 10.7-30.5 18.3-47.4 24.1-13.7 4.5-27.7 7.8-42 9.9-12.2 1.9-24.5 3.4-36.9 3.3-8.8-.1-17.5-.6-26.2-1.2-7.3-.5-14.7-1.3-22-2.5-10.4-1.6-20.6-4.5-30.2-8.7-.3-.1-.6-.3-.9-.5-3.6-1.4-6-4.7-6.1-8.5-.7-6-.4-12.1.9-18 .9-4.4 3.1-8.5 6.2-11.8 1.3-1.2 2.7-2.2 4.2-3.2.3-.2.6-.5.8-.8 2.8-5.6 7.5-8.6 13.5-10 2.8-.6 5.7-1.5 8.5-2.2 5.9-1.5 10.9-4.7 15.8-8.1 2.1-1.4 4.1-2.9 6.2-4.4.3-.2.6-.5.8-.8 1.5-3.9 4.4-6.6 7.9-8.8 4.4-2.7 8.9-5.4 13.3-8.1.2-.1.5-.2.5-.3.1-2.5 2.5-2.9 4-4.1 2.8-2.4 6.7-3.1 10.2-1.8 1.3.4 2.8.7 4.2.7-1.7-1.4-3.3-2.7-5-4s-1.7-2.2 0-3.5c1.1-.8 2.2-1.4 3.4-2.1 1-.6 2.3-.7 3.4-.2.6.2 1.2.2 1.7-.1 2-1.2 4-2.6 5.9-3.9-.7-2.6.1-4.3 3.3-6.5 1.3-.9 1.8-.8 4.1.8l6-5.2c-1-1.7-.9-2.3.5-4.2 1.9-2.5 2.8-2.8 6-2 1.9-2.4 3.8-4.7 5.6-7.1.2-.4.1-.9-.1-1.3-.5-.9-.3-1.9.5-2.5 1.3-1.1 2.5-2.2 3.8-3.3.3-.3.8-.6 1.2-.5 1.9.4 2.6-1 3.5-2l.2-.2c1.3-1.4 2.8-2.6 2.9-4.9.2-1.1.6-2.1 1.2-3 1.1-2 2.4-2.3 4.5-1.1 1.3-2.2 2.7-4.4 4-6.7.3-.4.4-.9.7-1.3 2.1-3.7 5.6-4 8.3-.6.2.2.3.4.5.6.7 1.1 1.3 1.1 2.2.1 2-2.1 4.1-4.2 6.3-6.1 1.3-1 2.6-1.8 4.1-2.5 2-.9 4-.5 6.1.7-.1-.6-.1-1-.2-1.4l-4.2-15.6c-.2-.6-.6-1-1.2-1.2-.9-.2-1.9-.2-2.8 0-2 .5-4.1.4-6-.4-2.6-1.1-5.5-1.3-8.1-.4-.4.1-.8.2-1.1.2-.5 0-1-.1-1.5-.3.1-.5.2-1.1.5-1.4 1.3-1.4 2.7-2.8 4.1-4.1 1.5-1.2 3.4-1.9 5.4-1.7 1.4 0 2.9 0 4.3-.2 1.6-.4 3.4-.1 4.7 1-.8-13.6 1.9-26.6 3.3-39.5zM80.3 374.9c-.9 5.7-1.1 11.5-.5 17.2.2 3.2 2.3 5.9 5.2 6.9 4.3 1.7 8.5 3.5 12.9 4.9 9.7 3 19.7 4.9 29.8 5.7 9.3.8 18.6 1.8 28 2.2 11.5.6 23.1 0 34.5-1.7 10.3-1.6 20.6-3.2 30.8-5.4 18.9-4.1 37.1-10.9 54-20.3 6.2-3.5 11.6-8.2 17.5-12.2 14.1-9.5 28.5-18.6 42.7-28 7.2-4.8 15-8.7 23.1-11.7 2.4-1 4.7-2.2 7-3.5 1.9-1.1 3.3-2.9 3.8-5 1.4-4.4.7-9 0-13.5-.2.1-.4.1-.5.2-5.1 3-10 6.2-15.2 8.9-5.8 2.9-11.9 5.2-17.8 7.9-3 1.4-5.9 3-8.9 4.5-10.5 5.1-20.8 10.2-30.5 16.8-6.2 4.3-12.7 8.1-19.4 11.5-6.4 3.2-12.5 6.8-18.9 10-11.1 5.4-22.8 8.9-34.6 12.5-16.3 5-33.2 7.4-50.2 7.3-8.2-.1-16.3.4-24.5.4-6.8 0-13.6.2-20.3-.4-12.1-1.1-24.1-3.9-35.5-8.2-4.5-1.3-8.8-3.8-12.5-7zm163.2-100.2 2.3.8c3 1 5.9 2 8.9 2.9 1.2.4 2.6.5 3.8.9 1 .2 1.9.7 2.6 1.4 1.4 1.7 1.6 4 .4 5.9-1.1 2.1-3.4 3.2-5.8 2.9-2-.1-3.7-1.5-4.3-3.4-.1-.4-.4-.9-.7-1-2.7-1.2-5.5-2.5-8.3-3.6s-2.8-1-4.6 1.3c-.4.5-.7.9-1.1 1.4l-3.7 4.7c1.9 1 3.6 2 5.3 2.7 2.9 1.3 5.2 3.7 8.6 4.1.3.1.5.2.8.5 1.8 1.5 2.6 3.9 1.8 6.1-.9 2.1-3 3.4-5.3 3.5-2.4-.1-4.4-1.7-4.9-4-.2-.6-.6-1.2-1.2-1.5-3-1.3-6.1-2.6-9.2-3.8-.5 0-1 .2-1.4.5-1.6 1.7-3.2 3.5-4.8 5.2-.6.6-1.3 1.2-1.9 1.8.1.1.2.2.3.2l11.7 5.1c.3.1.7.1 1 .1 1.9-.2 3.8.9 4.5 2.8 1.6 3.9-1.4 7.5-5.9 7.1-3-.3-4.8-2.2-4.3-4.7-3.9-1.7-7.8-3.4-11.7-5-.4-.1-.8-.1-1.2.2-2.1 1.8-4.2 3.7-6.5 5.7.7.3 1.2.5 1.7.7 2.1.9 4.2 2 6.2 3.1 2.5 1.6 4.9 3.5 7.3 5.3 1.1.8 1.7 2.1 1.6 3.5-.2 3.8-5 6-8.5 3.8-1.5-.9-2.4-2.2-2-3.9.2-.9-.3-1.1-.9-1.4-3.6-1.6-7.1-3.2-10.7-4.7-.4-.2-.8-.2-1.2 0-1.1.8-2.2 1.7-3.4 2.6 1.4 1.5 2.8 3 4.2 4.4 2.3 2.3 3.9 5.2 6.8 7 2.5 1.6 1.9 5.9-.6 7.3-2.8 1.4-6.1.9-8.4-1.2-1.1-1.2-2-2.5-1.2-4.3 0-.4-.1-.9-.5-1.2l-7.5-6c-.4-.2-.9-.2-1.2 0-.9 1.2-2 2.3-2.3 3.6-.3 1.6-.2 3.2.1 4.8.6 4.1 1.4 8.2 2 12.3 0 1.1-.1 2.2-.4 3.3.8 2.9 1.7 6.1 2.5 9.5.1 1 .9 1.8 1.9 1.7h.3c3.1-.2 6.1-.4 9.2-.5 12.4-.5 24.8-2.2 36.8-5.1 7.4-1.6 14.7-3.9 21.8-6.9.5-.2.9-.6 1.2-1.1.4-1.3.6-2.6.8-3.9 1.4-8.4 2.7-16.7 4-25 .2-1.7 1.3-3.2 2.8-3.9 1.3-.6 2.6-1.2 4-1.7 4.4-1.6 7.7-5.3 8.9-9.9 3.3-11.2 6.9-22.4 10.4-33.6.8-2.6 1.7-5.1 2.5-7.6-4-2-8-4-11.9-6-2.5-1.3-5-2.7-7.4-4-5-2.8-10.9-3.5-16.4-1.9-2.5.6-4.7 2.1-6.3 4.2 3.1 1.8 6 3.6 9 5.4.7.4 1.5.7 2.4.8 2.7-.1 5 1.9 5.1 4.6 0 .6 0 1.2-.2 1.7-.7 2.5-3 4.3-5.6 4.2-2.6 0-4.7-1.9-5.1-4.4-.1-.4-.3-.7-.7-.9-2.2-1.4-4.4-3-6.8-4.2-2.9-1.5-3-1.4-4.8 1.3l-4.7 7.4zm-153 85.2-2.4 1.5c-3.7 2.9-5.7 6.9-7.1 11.3 0 .4.1.8.4 1.1 2.8 2.7 6.1 4.8 9.8 6.1 17 6.5 34.6 10.1 52.9 9.6 10.1-.3 20.3-.5 30.4-.5 9.8 0 19.6-.8 29.2-2.6 16.2-3.1 32.1-7.9 47.4-14.3 6.7-2.8 13-6.5 19.4-9.9s13-6.7 19.2-10.6c7.4-4.7 14.7-9.8 22.6-13.7 12.8-6.5 25.5-13.1 38.9-18.5 6.3-2.7 12.3-6.1 17.7-10.3-.9-3.8-.8-7.7-2.8-11-.8 1-1.6 1.9-2.4 2.7-3 3.1-6.8 5.1-10.6 7-11.8 6.2-23.9 11.7-35.4 18.5-6.7 4-13.6 7.7-20.6 11.3-6.1 3.2-12.4 6.1-18.6 9.2-4.2 2.1-8.5 4.3-12.8 6.3-1.1.5-1.9 1.4-2.3 2.5-.5 1-1.1 1.8-2 2.5-.9.6-1.9 1.1-2.9 1.5-11.7 5.4-24.1 9.1-36.4 12.8-14.3 4.3-29.2 6.6-44.2 6.8-9.6.2-19.3.1-29 0-13.4-.1-26.7-1.6-39.8-4.5-5.4-1.2-10.7-2.8-15.3-6.1-2.4-2.1-4.2-4.5-3.3-8.7zm263.3-95.2c-.2.2-.5.3-.7.5-.6.8-1.1 1.6-1.7 2.5-3.1 5-7.4 9-12.5 11.8-3.9 2-6.9 1-9.3-2.6-1.9-2.8-3.9-5.5-5.9-8.2-.5-.8-1.4-1.1-2.3-.8-2.2.5-4.5.8-6.7 1.3-.5.1-.9.5-1.1.9-1.3 5.6-2.6 11.3-3.9 16.9-1.6 7.2-3.2 14.5-4.7 21.7-.9 4.1-3.3 6.6-7 8.4s-7 3.9-10.5 5.9c-1.1.7-1.8 1.9-1.8 3.2-.4 3.4-.7 6.8-1.1 10.2-.2 1.9-.5 3.9-.8 6.1 1-.5 1.7-.8 2.4-1.2 7.4-3.7 14.8-7.1 22-11 10.1-5.5 19.8-11.6 30.2-16.6 7-3.4 13.9-7.1 20.7-11 2.5-1.4 5-3.1 5.7-6.4.4-1 0-2-.9-2.6-1.1-.9-1.6.2-2.2.7-2.1 1.3-4.1 2.7-6.3 3.9-1.6.9-3.6-.1-4.5-2-.6-1.3-.1-1.9 1.7-3 2.5-1.6 5-3.4 7.4-5.2 1.3-.8 1.9-2.4 1.2-3.8-2.5-6.5-4.9-12.9-7.4-19.6zm-162.5 101c-.3-1.3-.5-2.6-.8-3.8-.9-3.4-1.7-6.9-4-9.8-7-8.6-15.9-15.3-26.1-19.5-9.8-4.1-18.7-2.5-27.2 3.4-4.9 3.4-10.1 6.4-15.2 9.6-2.3 1.4-4.6 2.7-6.8 4.2-.7.5-1.4 1.2-1.9 2-.7.8-.7 2 0 2.7.1.1.3.3.5.3 1.8 1.3 3.7 2.4 5.7 3.5 6.3 2.9 13.1 3.7 19.9 4.5 8 .9 16 1.7 24.1 2.1 10.2.5 20.4.7 30.6 1 .3-.1.7-.1 1.2-.2zm71.3-10.4-.4-.5c-2.1.8-4.3 1.6-6.4 2.3s-4.4 1.5-6.6 2.1c-19.8 5.8-40.2 7.9-60.7 7.9-10.5 0-21-.6-31.5-1s-20.9-1.6-31.3-3.3c-6-1-11.8-2.7-16.6-6.6-2.1-1.7-2.4-3.3-.8-5.5.8-1 1.6-1.9 2.5-2.7-3.2.9-6.1 1.7-9 2.5-3.8 1.1-7.1 3.6-9.1 7-2 3.1-1.4 7.2 1.6 9.5 2.9 2.1 6.2 3.8 9.7 4.8 12.3 3.5 25 5.4 37.8 5.9 15.4.6 30.8 1 46.2-.3 6.6-.5 13.1-1.4 19.6-2.5 13.2-2.4 25.8-6.8 38.5-11.1 4.9-1.7 9.5-4 14.2-6.1.7-.7 1.5-1.5 2.3-2.4zm35.8-87.9c-.2.3-.3.7-.4 1-2.5 7.9-5.1 15.7-7.6 23.6l-5.7 18.3c-1 3.3-3.4 6-6.6 7.5-1.8.9-3.7 1.7-5.5 2.5-1.6.6-2.7 2-2.8 3.7-.3 3.1-.6 6.3-1.2 9.4-.7 4.2-1.7 8.3-2.5 12.5-.4 2-.7 4-1 6.3 1-.5 1.7-.8 2.4-1.2 4.2-2.2 8.4-4.4 12.7-6.5 1.3-.5 2.1-1.8 2.1-3.2.6-5.2 1.2-10.3 1.8-15.5.1-1.6.9-3 2.2-3.8 3-1.8 6-3.7 9.1-5.3 6.9-3.7 7-3.6 8.9-11.3 1.7-7.3 3.2-14.7 4.8-22 1-4.6 2.1-9.1 3.1-13.5l-13.8-2.5zm-26.8-65.1c-.3.2-.7.4-1 .6-2.1.9-4.2 1.9-6.3 2.7-.7.1-1.3-.1-1.8-.6-.3-.6-.3-1.4 0-2 .4-.8.9-1.6 1.5-2.3-.9.2-1.8.3-2.7.3-.7-.1-1.5-.3-2.1-.5.3-.7.4-1.7.9-2.1 1.4-1.2 2.9-2.3 4.4-3.2 2.3-1.4 4.8-2.6 7.2-3.9-.7-1.8-.4-4 .9-5.5-.2-.1-.4-.1-.6-.1-3.4.9-6.7.3-10.1-.6-1.1-.4-2.2.2-2.6 1.3-.1.2-.1.5-.1.7-.5 4.6-1.3 9.2-1.2 13.7.2 6.4 1 12.7 1.8 19 .4 3.1 1.3 6.2 2 9.8.3-.8.5-1.1.6-1.4.7-2.8 3.2-4.9 6.1-5.1 1.3-.1 2.6-.3 3.8-.5 2.6-.5 5.2.1 7.4 1.6.5.5 1 1 1.4 1.6-.6.4-1.2 1.1-1.8 1.2-4.8.5-8.8 3.2-13 5.2-2.7 1.3-3.3 6.5-1.3 8.4 2.2 2.1 4.2 4.4 6.3 6.6.4.4.7.8 1 1.3 1.6-.4 3.1-.9 4.5-1.6 2-1.3 4-2.5 6.4-.7-.4-15.4-1.1-30.6-3.2-45.6-.4.5-.6 1.1-.9 1.7-.8 2.5-2.4 4.7-4.4 6.4-.6.5-1.5.7-2.2.6-.7-.5-1.1-1.2-1.1-2-.3-1.6-.1-3.3.2-5zM146.7 328.5c3.5.5 6.9.6 10.2 1.6 12.7 3.8 22.9 11.4 31.2 21.7l1.1 1.3c-.1-1.2-.1-2-.2-2.7l-2.1-12c-.6-3.4-.2-6.6 2.9-8.9.1-.2.3-.4.4-.5-4.3-2.7-8.2-6-13-8-3.2-1.3-6.2-2.7-9.3-4.2-.7-.4-1.6-.4-2.3.1-3.4 2.2-6.9 4.4-10.4 6.5-3 1.8-5.8 3.5-8.5 5.1zm197.9-91.4c-.1 1.1-.4 2.2-.7 3.3-2.1 5-4.1 10-6.3 15-1.6 3.8-4.4 6.9-8 8.9-1.8 1-3.5 2-5.1 2.9 2.4 3.4 4.8 6.7 7.2 10.1 1.2 1.7 3.4 2.3 5.3 1.5 1.3-.5 2.5-1.2 3.6-2 5.1-3.2 8.5-8 11.7-13 .4-.7.5-1.6.4-2.4-.7-3.9-1.5-7.8-2.3-11.6-.7-3.3-1.1-6.7-3-9.6-.9-1.1-1.8-2.1-2.8-3.1zm-71.8 15.7v-.3c-3.5-5.6-7.5-10.7-13.8-13.7-2.2-1.2-4.9-1.1-7 .3-1.1.7-2.2 1.6-3.1 2.5-3.8 3.7-7.6 7.4-11.4 11-1.7 1.7-3.5 3.3-5.3 4.9.1.2.1.3.1.5.5.1.9.1 1.4 0 4.6-1.8 9.6-2.1 14.4-1.1 1.8.4 3.6.9 5.4 1.4 5.2-6.1 12.1-6.2 19.3-5.5zm-112.6 60.8c4.4-.3 8 1.8 11.7 3.6.7.4 1.5.7 2.3 1 5.1 1.8 9.8 4.3 14 7.6 4.6 3.5 9.6 6.3 13.4 10.8.5.6 1.1 1.2 1.6 1.7.5.6 1.4.7 2 .2l.2-.2c1-.7 1.2-2 .6-3-1.5-2.3-3.1-4.5-4.9-6.6-5.1-5.5-10.4-10.9-17.6-13.6-4.5-1.7-9.2-2.9-13.9-4.3-3.6-1.1-6.6.2-9.4 2.8zm156.7-66.1c-1.8-1.1-2-2.2-.6-3.6 1.2-1 2.5-1.9 3.8-2.8.1-1.1.2-2.1.3-3.4l-4.9 1.1c-1 .2-1.3.8-1.3 1.8.1 3.7 0 7.4 0 11.1 0 4.5-1.2 9-3.4 12.9-.5.9-1 1.9-1.5 3.1.6.1 1.2.2 1.8.2 3.8-.5 7.5-.9 11.3-1.7 2.8-.6 2.7-.8 2.9-3.5 0-.5.1-1.1.1-1.6v-6.5c-2.3 1.4-3.2 1-3.6-1.1-.1-.7-.1-1.4 0-2.1 0-.7.1-1.4.2-2.4-.7.5-1 .9-1.4 1.1-1.1.7-2.2 1.7-3.5.8s-.7-2.1-.2-3.4zm-114.5 32.9c-1.9 0-2.6 1.2-3.4 2.3-.5.5-.5 1.2-.1 1.7l.3.3c1.3 1 2.4 2.1 3.6 3 5.1 3.8 9.8 8 14.2 12.6 2.7 3 2.7 2.9 5.7.2.8-.8 1-1.5.3-2.2-1.6-1.7-3.4-3.4-5.1-5l-.6-.6c-.3-.6-.6-1.2-1-1.7-3.5-4.1-7.9-7.1-12.5-9.9-.4-.4-.9-.6-1.4-.7zm7.8 31.7c-.7-.6-1.4-1.1-2.1-1.8-4-3.6-7.6-7.5-10.9-11.6-2-2.4-4.2-4.6-6.4-6.8-.4-.4-1.4-1-1.6-.9-1.3.9-2.6 1.9-3.6 3.1-.2.3.5 1.6 1.1 2.3 2.7 2.9 5.4 5.7 8.2 8.6 2.5 2.6 4.9 5.3 7.6 7.8 2.2 2.1 5.1 2.7 7.7-.7zm23.7-26.6c-2.2-2.1-4.2-4.4-6.1-6.7-2.9-3.9-6.1-7.6-9.5-11-2.4-2.4-3.1-2.4-5.6-.1l-.6.6c-1.4 1.5-1.5 1.8-.1 3.2 2.3 2.4 4.7 4.7 7.1 6.9 3.2 2.9 6.4 5.7 9.7 8.5 2.1 1.7 2.7 1.6 4.3-.5.3-.3.6-.6.8-.9zm111.3-96v.2c1.3-.3 2.6-.6 3.8-1.1.6-.2 1.1-.7 1.5-1.2.7-1.5.6-3.2-.4-4.5-.4-.5-.6-1.1-.6-1.8-.1-1.9-.9-3-2.9-3.4-1.1-.2-2.1-.9-2.6-1.9-1-1.8-2.1-2-3.5-.6-.5.7-1 1.4-1.3 2.2-.2.4-.4 1-.8 1.1-1.8 1-2.2 1.7-1.7 3.6.3.9.1 1.9-.5 2.6-.8.9-.8 2.2 0 3.2.5.7 1.3 1.2 2.2 1.4 2.2.3 4.5.2 6.8.2zm-55.6 67.1c2.2-1 4.1-2.4 5.7-4.2.2-.2.4-.5.4-.8v-5.9h-2.2c0-.6.1-1.3.1-1.9 0-.2.1-.5.3-.7.9-1.4 1.3-3 1.1-4.6 0-.5.1-1.1.2-1.6v-7l-3.7.6c-.3.1-.7.2-1 .3-1.3.6-2.6 1.3-2.6 3-.1 7.6.5 15.2 1.7 22.8zm-1 3.9c-.2-1.6-.4-3.1-.6-4.7-1.2-8.1-1.7-16.2-1.5-24.4.1-2.9 0-5.8-.4-8.6-1.2-8.8-2.5-17.5-3.8-26.3-.2-.7-.6-1.3-1-1.8l-.6.2c-.1 1.2-.1 2.3 0 3.5.8 7.7 2 15.4 2.5 23.1.7 9.5 1 19 1.6 28.5.2 2.7.4 5.3.7 8 .1.7.5 1.3 1 1.8.6.3 1.3.6 2.1.7zm-95.7 31.3c2.3 2.6 4.5 5.1 6.7 7.5.3.3.6.4 1 .5 2.8.5 5.7.8 8.5 1.4s5.4 1.2 8.4 1.8c-4.6-5.4-9.9-10.1-15.6-14.3-.5-.2-1 0-1.4.3-1.2 1.3-2.4 2.8-3.6 4.2-.4.4-.8.7-1.3 1l-.5-.5 5.3-6.8c-.9.1-1.5-.1-1.8.2-2 1.4-3.8 3-5.7 4.7zm73.4-139.1c-.1-.3-.1-1-.5-1.4-.8-.8-1.1-1.8-1.1-2.9-.1-2.2-.9-2.9-3-3.3-.5-.2-1-.5-1.4-.9-.3-.3-.4-.9-.7-1.1-.9-.5-1.9-1.3-2.8-1.3-1.2.1-2 1.2-1.9 2.4v.2c0 .5-.3.9-.7 1.2-1.5 1.1-1.8 1.9-.9 3.5.6 1.1.5 1.9-.6 2.5-1 .6-1.4 1.7-1.1 2.8.3 1.6 1.7 2.5 4.1 2.6.7 0 1.7.2 2-.2 1.6-1.7 3.6-.8 5.5-.9s3.1-.9 3.1-3.2zm-51.1 134.7c1.6 1.6 2.8 3 4.1 4.3.2.2.5.3.8.3 6.8 2.3 13.8 3.9 20 7.6.8.5 1.7.9 2.5 1.2.4.2.8.2 1.2 0 1.1-.8 1.4-2.4.6-3.6-.1-.1-.2-.2-.2-.3-.5-.5-1-1-1.6-1.3-5.3-3.1-10.7-6.1-16.8-7.6-3.5-.6-7.1-.9-10.6-.6zm-25.9 25.3c.8 1 1.4 2 2.1 3 .5.9 1.4 1.5 2.4 1.6 2.5.5 4.9 1.1 7.3 1.9 4.2 1.6 8.3 3.5 12.4 5.3 1.8.8 3.4 1.8 5.1 2.7.8.6 1.8.4 2.4-.4 0-.1.1-.1.1-.2.9-1.3.8-2.1-1-3.4-3.1-2.6-6.7-4.6-10.5-6.1-2.7-.9-5.6-1.4-8.3-2.3-3.7-1.1-7.8-1.4-12-2.1zm104.2-159.3.3.1c-.1.6-.3 1.2-.5 1.8-.9 1.8-1.1 3.4-.1 4.1 1.4.8 2.9 1.5 4.4 2 .4.1 1-.2 1.5-.4.1 0 .2-.1.3-.1l3.1-.3c.4 0 .9 0 1.1-.2.8-.8 1.5-1.7 2.1-2.6.3-.6.4-1.4.3-2.1-.1-.9-.4-1.7-.6-2.6s-.4-1.9-1.6-2.1c-1 0-1.9-.9-1.9-1.9 0-.5-.2-1-.5-1.4-.6-.6-1.5-1.4-2.2-1.4-.9.2-1.6.8-2 1.6-.4 1-.6 1.8-2 1.7-.3 0-.9.5-1 .9-.1.9-.4 1.9-.7 2.9zm-59.7 106.1c.9.9 1.5 1.6 2.1 2.3.2.2.6.3.9.3 1.9 0 3.7-.1 5.6 0 5.9.2 11.7 2 16.5 5.4 1.6 1.1 3.1 2.3 4.7 3.3.7.3 1.4.3 2.1 0 .4-.6.5-1.4.3-2.1-.5-1.9-2.1-2.8-3.5-3.8-4.6-3.3-9.9-5.6-15.5-6.8-4.4-.8-9-.3-13.2 1.4zm46.5-66.7c.7-.2 1.8-.7 2.9-1 1.8-.5 2.8-2.3 2.3-4.1-.1-.3-.2-.5-.3-.8-.2-.5-.4-1.1-.4-1.7-.1-1.3-.4-2.5-2-2.9-.5-.1-.9-.8-1.3-1.3-.6-1-1.3-1.9-2.1-2.8-1.2-1.1-2.1-.8-2.6.7-.2.6-.4 1.5-.9 1.8-1.7 1-1.9 2.5-1.8 4.2.1.9-.2 1.8-.8 2.4-1 1-.8 2.3-.4 3.5.3 1 1.3 1.7 2.3 1.7l5.1.3zm-36.2 78.5c-3.2-3-6.4-5.8-9.4-8.8-2.7-2.6-5.4-5.4-8.1-8.1-.4-.5-1.1-.6-1.6-.2l-.3.3c-2.4 2.6-2.1 4.7.5 7 2.9 2.4 5.5 5.1 8.2 7.6 1.3 1.2 2.4 2.8 4 3.7 1.3.8 3.1.9 4.7 1.3.7-.7 1.2-1.5 2-2.8zm63.5-3.6c1.1-2.2 2.3-4.3 3.1-6.5.8-1.8 1.3-3.6 1.5-5.5.4-3.4.5-6.8.6-10.2.1-5.6 0-11.2.1-16.9.1-1.2.2-2.5.5-3.7.5-2.4 1.2-4.7 1.7-7.1.6-3.5.6-7.2-.2-10.7-.5 1.3-.9 2.6-1.1 4-.3 2.8-.5 5.5-.9 8.3-.5 3.4-1.5 6.7-1.8 10.1-.7 6.5-1 13.1-1.5 19.6-.5 6.1-.5 12.3-3.8 17.8v.4l1.8.4zm4.7-50.9c-1 0-2.1.2-3.1.4-2.3.8-4.5 2-6.9 2.6-1.6.5-1.9 1.4-2 2.8-.2 2.4-.2 2.4 1.9 3.6.3.2.7.7.7 1s-.5.6-.9.8-1 .2-1.4.3-.9.4-.9.6c0 2.2.1 4.3.1 6.6 1.5-1.8 2.5-3.6 4-4.9 1.9-1.6 3.9-.3 5.7.7l2.8-14.5zm18.8 24.6c1.6 1.1 3.1 2.1 4.4 3.1.5.5.6 1.2.5 1.8-.4.6-1 1-1.7 1.1-.8.1-1.6.1-2.3-.1.2 3.3-.5 4.1-3.4 3.6v12.4c3.5-2.1 6.6-4.7 7.6-8.6s1.7-8.3 2.4-12.5c0-.5-.2-1-.6-1.3-2.2-1.1-4.5-2-6.9-3v3.5zm-105 31.6c.5.8.8 1.3 1.1 1.8.9 1.9 2.8 3.2 4.9 3.2 6.3.4 12.5 2.2 18.1 5.1 1.5.7 3.2 1.1 4.8 1.3.6.1 1.2 0 1.7-.2.7-.1 1.2-.8 1.1-1.5-.1-.4-.3-.8-.6-1-.9-.8-1.8-1.4-2.9-1.8-6.7-2.3-13.3-5-20.4-6.1-2.4-.4-5-.5-7.8-.8zm82.8-29.3-.4-.1c-.3.2-.5.4-.7.7-2.4 2.9-4.7 5.9-7 8.8-.3.5-.5 1.2-.5 1.8-.1 2.5-.3 5-.3 7.5-.1 3.9-.7 3.2 3.3 4.4.8.3 1.2 0 1.6-.7 1.7-3.1 2.7-6.5 2.9-10 0-1.7.3-3.4.4-5.2.2-2.4.4-4.8.7-7.2zm-107.3 57.4-.2.5c1.8 1.9 3.1 4.1 6.3 4.6 4 .6 7.9 1.6 11.7 3 3.9 1.4 7.6 3.4 11.4 5.1 1.4.6 2.3.3 3.2-1.1s-.5-1.6-1.1-2.1c-.4-.3-.9-.6-1.4-.9-7.1-3.6-14.6-6.2-22.4-7.7l-7.5-1.4zm120.2-110.8c0-.3-.1-.5-.2-.8-.8-1.1-1.1-2.5-.8-3.9 0-.5-.3-1.1-.7-1.4-1.3-.6-1.8-1.8-2.4-2.9-1.4-2.5-3.5-2.5-5 0-.4.6-.9 1.2-1.5 1.6-1 .5-1.5 1.6-1.2 2.6.4 1 0 2.2-1 2.7-.9.6-1.2 1.7-.7 2.7.1.2.3.4.4.5 1.2 1 2.9 1.1 4.2.2.5-.3 1-.4 1.5-.4 1.6.3 3.1.7 4.6 1.3 1.3.6 1.8.1 2.3-.9.3-.4.4-.9.5-1.3zm-62.3-24h-.5c-.1.7-.3 1.4-.4 2.2-1 8.9-2 17.9-3.1 26.8-1.1 7.4-.9 15 .6 22.3 1.5 6.6 3 13.2 4.6 19.8.1.5.7 1 1.2 1.7.1-1.4.1-2.8 0-4.2-.2-1.1-1.1-2-1.3-3-1.2-6-2.3-11.9-3.4-17.9-1.2-7.8-1.2-15.8-.1-23.7.9-6.9 1.6-13.7 2.4-20.6.2-1.1.1-2.3 0-3.4zm-68.9 150.8c-3.4-5.6-7.8-10.5-13-14.5-1.5-1.3-3.6-1.3-5.1 0-.4.3-.9.6-1.4.9-.8.6-.8 1 0 1.7 2.2 1.9 4.3 3.9 6.4 5.9.2.2.4.3.6.3 4.5 1.5 8.6 3.4 12.5 5.7zm9.4-3.9c.1-.1.1-.2.2-.4l-12.2-13-5.6 4.6c1.8 2.1 3.5 4.1 5.1 6 .2.3.5.5.8.5 3.9.9 7.8 1.6 11.7 2.3zm96.3-99.4c.1-.9.2-1.8.2-2.6.3-3.4.3-6.8-.2-10.2-.4-2.4-.6-2.9-3.4-3 .3.5.6 1 .8 1.6.4 1.5.7 3 .8 4.6 0 1.3-.8 2.4-2.1 2.8-1.1.4-2.4 0-3.1-1-1.2-1.3-2.2-2.6-3.3-4-.6-.8-1.1-1.6-1.6-2.4l-.3.1c.6 4.1 1.2 8.2 1.8 12.1 3.7-.1 7.2-.9 10.4 2zm-71 72.4-11.7-10.9-5.2 6.5c1.7 1.3 3.4 2.6 5.2 4 .2.2.5.3.8.3 3.5.1 7.1.1 10.9.1zm-88.4 46c9.5-5 18.7-10.5 27.6-16.4-1.9-.6-3.6-1-5.4.1-5.4 3.3-11 6.5-16.4 9.8-2.5 1.6-4.5 3.8-5.8 6.5zm185-100.3c2.4.2 5.6.3 8.7.7s6.2.9 9.5 1.5c.3-2.9.6-5.8 1-8.8-1.4.4-2.4.8-3.5 1.1-3.6.8-7.1 2.1-10.4 3.8-1.8.7-3.5 1.3-5.3 1.7zm16.8 17.2c2.1-3.7 3.6-7.8 4.2-12 .9-6.3 1-12.7.4-19.1-.3-3.2-.5-6.4-.5-9.6-.1-3.1.1-6.1.1-9.2 0-.5-.1-.9-.2-1.4l-.4-.1c-.4 1-.6 2.1-.8 3.2 0 4.3.1 8.6.3 12.9.1 2.7.9 5.4.6 8.2-.4 4-.6 8-1.1 11.9-.7 5.2-1.7 10.2-2.6 15.2zm-97.6-1.5c-.7-.8-1.2-1.5-1.8-2.2-1.9-2.1-4.2-2-5.7.4-1.7 2.8-3.3 5.6-4.9 8.5l2.6 2.5 9.8-9.2zm13.8-29.9c-.4-1-.7-2.1-1.2-3.1-.9-1.9-1.9-2.4-4-2.2-1.7.1-3.3.2-5 .2-3.2.1-6.1 2-7.6 4.8 3.2-1 6.7-.8 9.8.6 1.1.3 2.3.4 3.5.3 1.3-.1 2.7-.4 4.5-.6zm83 6.4c-1.8-.2-3.6-.2-5.3-.2-2.6.2-5.2.8-7.8 1-4.2.2-6.7 2.9-9.2 6 1.7-.1 3.2-.2 4.7-.4 1.5-.1 2.9-.4 4.3-.9 4.2-2 8.4-4 13-5 .1.1.1 0 .3-.5zm-50 3.3c2.3-2.9 2.9-3.2 6.5-2.8.9.1 1.1-.3 1.1-1.1 0-1 0-2 .1-3 .1-1.7-1.1-3.3-2.8-3.6-2-.2-4-.4-6.1-.6.3 3.6.8 7.3 1.2 11.1zm-67.5 41.2c.8.7 1.7 1.4 2.6 2.1.5.4 1 1 1.5 1 3.2.2 6.5.4 9.8.5-1-1.1-1.8-2.2-2.8-3.2-1.8-1.8-3.7-3.5-5.6-5.3-.7-.6-1.2-.6-1.8.1-1 1.6-2.2 3-3.7 4.8zm62-75c1.8 2.8 3.5 5.6 5.3 8.2.9 1.2 1.8 2.3 2.9 3.3.9.8 1.8.6 2-.5.3-1.1.3-2.3 0-3.4-1.1-3.1-3.3-5.7-6.2-7.2-1.1-.9-2.7-1-4-.4zm-3.9 32c-1.8-1.4-4-1.9-6.2-1.6l-4 .6c-1.9.3-3.5 1-4.3 2.9-.6 1.6-1.2 3.1-1.7 4.7 0 .3 0 .7.1 1 1-1 2.1-1.9 3.3-2.6 4.2-1.7 8-4.6 12.8-5zm33.9-11.3c.1-1.2.1-2.6.2-4.1-2.1.7-2.8-.5-3.2-1.8-1.1 1.1-2.3 2.2-3.6 3.1-1.2.8-2.3.1-2.3-1.4 0-.9.2-1.8.3-3.1-.9.7-2.1 1.2-2.2 1.8-.3 2.1-.5 4.2-.6 6.3 3.9-1.5 7.6-.4 11.4-.8zm2.9-16.5c-.1-1-.1-2.4-.2-3.9-.1-.4-.4-.9-.7-1.2-.4.3-.8.6-1.1 1-.2.2-.3.5-.4.8-1.6 4.2-2.3 8.7-2 13.2.2.5.4 1 .7 1.5.5-.3.9-.7 1.3-1.1 2.1-3 2.1-6.5 2.4-10.3zm14.5 42c-.2-.7-.5-1.4-.8-2-.4-.7-.9-1.4-1.4-2.1-.6-.9-1.1-1.9-2.4-1.6s-2.3.9-2.3 2.5c-.1.6-.4 1.2-.8 1.7-1 1.3-.8 2.3.4 3.3 1.7 1.5 3.5.8 5.3.5 1.1 0 2-.9 2-2 .1-.1.1-.2 0-.3zm-29.6-44c.1-.2.1-.3.1-.5-.2-7.3.9-14.6-1.4-21.7-.4-1.3-.6-2.7-.8-4-.3.4-.4.8-.4 1.3l.3 21.5c0 .3.1.6.3.9.6.8 1.2 1.6 1.9 2.5zm-27.6 12.3c3.1-1.6 7-9.8 6.5-13.8-3.7 1.1-8.3 10.7-6.5 13.8zm-13.5-50.4c.5 2.2 1 4.3 1.6 6.4.7 2.7 1.5 5.4 2.4 8 .1.4.8.6 1.2.9.3-.4.7-.9.8-1.3.2-1.4.1-2.8-.2-4.1-1-3.2-2.3-6.4-3.6-9.5-.5-1.2-1.1-1.2-2.2-.4zm39.6 67.7c.5-5 1-9.7 1.5-14.5.1-.9.2-1.9.1-2.8-.2-1.2-.5-2.3-.8-3.4-.9-.2-1.3.5-1.4 1.6l-.6 7.8c-.3 3.6-.6 7.1-.9 10.8l2.1.5zm-60.9 37.7 6.9 7.5 4.3-6.3-11.2-1.2zm47.7-71.5c1.1.6 2.2 1.2 3.1 1.9 1.6 1.6 3.6 2.7 5.8 3.1 1 .2 1.9.7 2.8.9 1.3.3 1.9-.4 1.2-1.6-.5-.9-1.2-1.7-2.1-2.1-2.9-1.1-5.9-2-9-2.9-.4-.1-1 .4-1.8.7zm13.3 51.8c-.9.4-1.6.7-1.6 2 0 6-.1 12-.3 17.9 0 1.3.5 1.8 1.9 1.8v-21.7zm-3.4-.4.6.6c2.1-1.5 4.2-3.2 6-5.1 1.9-2.1 3.4-4.6 6.7-4.6.7 0 1-.6.4-1.1-2.7-2.1-4-2.4-6 .4-.3.4-.5.8-.7 1.1-1.3 1.7-2.7 3.4-4 5.1-1 1.3-2 2.5-3 3.6zm5.4-36.1c3.6-.5 10.6-9.3 10.3-12.8-4.6 3.2-8.2 7.6-10.3 12.8zm61.1 81.3-9.8 7.1c1 2 1.8 2.3 3.7 1.2 1.4-.8 2.7-1.6 4-2.5 3.6-2.7 3.1-1.2 2.1-5.8zm-89.2-105.6c-2.5-.6-4.9-1.2-7.3-1.7-1.9-.4-3.8.2-5.2 1.4-.3.3-.5.7-.6 1.1 2.3.4 4.3 1 6.4 1.2s4.3.1 6.4.1c.1-1 .2-1.6.3-2.1zm-9.1 21.5c2.9-.1 5-2 7.4-3.1 2.7-1.3 3.3-4 4.9-6.1-4.9 2-9.3 4.6-12.3 9.2zm95.4 14c-1.5-1.6-2.8-2.8-4.7-3s-3.5-.2-5.2-.3c-1.7-.1-3.3 1-3.8 2.7 2.7 1 5.7 1.1 8.5.4 1.5-.3 3.2.1 5.2.2zm-19.9 21.3c.1-.8.2-1.6.5-2.4.4-1.1 0-1.6-1.2-1.8-2.8-.4-5.5-1-8.3-1.4h-1.7l-.2.4c.8.8 1.5 1.9 2.5 2.3 2.6 1.1 5.4 2 8.4 2.9zm-84.8-67.2.5.1c.2-.2.5-.5.7-.8 2.4-3.5 2-7.6 2.5-11.5 0-.2-.1-.5-.2-.7-.2-.8-1-1.2-1.8-1-.1 0-.2.1-.3.1-.4 4.7-1.7 9.2-1.4 13.8zm65.7 22.2c.3 1.9 1.3 3.5 2.6 4.8 1.8 1.5 3.5 3.2 5.3 4.7.4.3 1.2.1 1.8.2 0-.6-.1-1.2-.3-1.7-2.1-2.9-4.8-5.4-7.9-7.3-.5-.3-1-.6-1.5-.7zm27 11.2c.3-.5.4-.6.4-.7.8-4.6-.6-9-1.9-13.3-.1-.3-.7-.5-1.3-.8-.3 5.3-.1 10.2 2.8 14.8zM316.8 193l-.4.4c1.1 3.7 2.2 7.4 3.3 11.2.3.8.6 1.7 1.1 2.4.2.3.7.6.9.5.4-.2.7-.5.8-.9.1-.4.1-.9-.1-1.3-1.5-3.8-2.9-7.5-4.5-11.2-.1-.5-.7-.8-1.1-1.1zm-34.3 55.6c-1.2-1.8-2.1-2.1-3.7-1.3-1.4.7-2.9 1.2-4.3 1.9-.5.2-1.3 1-1.2 1.2.4.6.9 1.6 1.5 1.6 2.5.2 5 .2 6.6-2.3.3-.5.7-.8 1.1-1.1zM249 171.3l.7.4c.2-.4.4-.8.7-1.2 2.4-3.6 3.6-7.8 3.7-12.1 0-.3-.3-.6-.4-.9-.3.3-.8.5-.9.8-1.1 3.1-2.2 6.2-3.1 9.4-.3 1.2-.6 2.4-.7 3.6zm25 22.7v-.4c-.9-.2-2-.8-2.6-.5-3.3 1.7-6.5 3.5-9.7 5.4-.5.3-.9.7-1.2 1.2 5.6.2 9.1-3.8 13.5-5.7zm9.8 64c-.2-2.8-.5-5.3-.7-7.8l-.3-.3c-1.8 3-4.7 3.5-7.9 3.4l.2.4 8.7 4.3zm-11.7-91c-.4-2.9-6.7-9.4-9.3-9.6.8 3.6 6.7 9.6 9.3 9.6zm91.3 28.1c-1.9-3.7-8.7-5.9-14-4.7 4.9 2.5 12 4.9 14 4.7zM200.9 338.5c.1.5.2.9.3 1.4 1.2 2.5 5.5 3.6 7.7 2 1-.7 1.4-2 1.1-3.2-.1-1.2-1-2.2-2.2-2.5-.3 4.2-2.8 5-6.9 2.3zM309 238.4c-.2.2-.5.4-.7.6-2.6 3.2-5.2 6.4-7.6 9.7-.5.7-.4 1.8-.6 2.7l.4.1c.4-.5.8-1 1.2-1.4 1.9-2.4 3.8-5 5.9-7.3 1.2-1.2 1.7-2.9 1.4-4.4zm-30.1-75.6c-2.4-3.2-10.4-6.7-13-5.7 4 2.6 7.8 5.3 13 5.7zm78.4 37.8c-.8-2.8-7.1-7.9-10-8.4.2.7.2 1.6.6 2 1.8 1.7 3.6 3.3 5.6 4.8 1.2.6 2.5 1.2 3.8 1.6zm-16.9 16.3c-1.8-4.8-6.1-5.9-11.9-3.7l11.9 3.7zm-40 29.2 8.9-10.6c-2.3-.3-3.7 1-5 2.6-1.2 1.4-2.4 2.7-3.7 4-.2.2-.4.4-.4.6 0 1.1.2 2.1.2 3.4zm22.4-12.8c-2.1.3-4 .4-5.9.8-3.2.6-2.8.1-2.7 3.4 0 .1.1.2.1.2 2.1-.4 4.2-.7 6.3-1.1.4-.1.7-.3 1-.7.4-.7.7-1.5 1.2-2.6zm-56.3 32.9c.9 1.9 2 3.6.5 5.5s-3 1-4.8.1c1.4 2 3.4 2.8 5.2 2 1.9-.8 3.1-2.7 2.9-4.8-.1-1.4-1.7-2.6-3.8-2.8zm42.3-95.2c-.3-2.6-4.4-8.1-6.6-9.1-.6-.2-1.3-.2-1.9-.2 0 .1-.1.3-.1.4 3 3 4.8 7 8.6 8.9zm31.1 19.9c-1-.6-1.6 0-2 .8-1.4 3.3-2.8 6.7-4.1 10v.8c2.4-1.4 2.4-1.4 3.1-3.8.1-.4.2-.9.4-1.3.8-2.1 1.7-4.3 2.6-6.5zM229.5 315.4c.4 1.7 2.2 2.8 3.9 2.5 2.2-.2 3.8-1.3 4-2.9.4-1.7-.5-3.4-2.1-4 .9 3.6-1.7 5.6-5.8 4.4zm-18.6-42.9-5.6 7.5c1.2 1 2 1.2 2.6.4 1.6-1.9 3.1-4 4.6-6l-1.6-1.9zm30.2 29.3c.6 1.7 2.3 2.7 4 2.4 1.7-.3 3-1.6 3.4-3.3.3-1.7-.7-3.4-2.4-4 .5 1.5.2 3.1-.8 4.4-1.1 1.9-2.6 1.1-4.2.5zm57.6-139-.7.2c.9 4.2 1.9 8.4 2.8 12.6.1.3.4.6.7.9l.5-.2c.1-4.7-1.1-9.3-3.3-13.5zm38.8 40.2c.3-.2.5-.4.8-.6 2.2-3 3.7-6.6 4.3-10.3.1-.4-.2-.9-.4-1.4-2.5 3.8-4 7.9-4.7 12.3zm-41.8 14c-.3-2.2-1.2-3.5-2.7-3.7-1.5-.3-3.1-.4-4.7-.5-.6.1-1.2.4-1.7.8-.1.3 0 .7.2 1 1.4.5 2.8.9 4.3 1 1.6-.2 3.3.3 4.6 1.4zm2.8 10.3v-.4c-1.5-.4-3-.7-4.5-1.1-2.1-.6-4.3.6-4.9 2.8-.1.3-.1.6-.1 1l9.5-2.3zm-75.1 98.5c-2.6 3.7-2.6 3.7-6.6 2.3-.2 1.4.5 2.3 2.1 2.9 1.8.7 3.9.1 5-1.5.8-1.2.6-2.8-.5-3.7zm82-164.5c3.5 2.3 6.5 5.4 10.8 6.6-.6-2.7-6.8-6.5-10.8-6.6zm-52.2 124.6c.8 1.7 2.1 2.4 4.1 2 1.8-.3 3.2-1.7 3.4-3.5.1-1.9-.5-3-1.9-3.5 1.2 3.9.1 4.9-5.6 5zm-66.3 13.2c-.5-.6-1-1.1-1.5-1.7l-6.5 4.5c.3.3.7.5 1 .9.9 1 1.6.9 2.5 0 1.5-1.3 3-2.4 4.5-3.7zm51.2-18.9-7.9-1.1-.2.5 4.9 4.6 3.2-4zm66.9-69.9c2.8-.6 5.3-5.8 4.5-8.9-2.3 2.6-4.8 5-4.5 8.9zM198 323.5l3.2-2.5c0-.2-.1-.3-.1-.5l-8.2-2.1-.1.4 5.2 4.7zm98.1-135.3c0-.2.1-.5.1-.7-.6-.3-1.3-.9-2-.9-1.6 0-3.1.3-4.7.3-2.2.1-2.4.3-2 2.7l8.6-1.4zm2.1 40.9-.5-.3c-.4.4-1.1.8-1.1 1.2-.1 3 0 6 0 9.4.9-1 2-1.7 2.1-2.5 0-2.6-.3-5.2-.5-7.8zm-4.6-67.6c-3.8 1.4-7.2 2.7-9.4 6 3.9-.5 7.4-2.7 9.4-6zm.9 14.7c1.9-2.7 3-10.9 1.8-13-1.2 4.3-1.8 8.6-1.8 13zm-70.8 86.2-1.4-1.8-4.4 4.8 1.9 1.9 3.9-4.9zm74.1-59.1c.5.1.9.2 1.4.2 1.1-.1 2.1-.7 2.7-1.7 1.1-1.8 2.6-3.5 4-5.4-3.7 2.1-7.5 5.3-8.1 6.9zm-2.2 51.2c-1.4 1-2.8 2-4.3 2.9s-1.7 1.1-.7 2.9c1.1-.7 2.3-1.4 3.5-2 1.4-.7 2-2.3 1.5-3.8zm-5.5 7.1 5.3 2.5v-5.2l-5.3 2.7zm-46.9-94.4c3-1.5 6.8-6.1 7.2-8.6-2.9 2.5-5.6 5.1-7.2 8.6zm66.5 48.8c0-.1-.1-.2-.1-.2-1.5-.1-3-.1-4.6.1-1.3.2-2.5.7-3.6 1.4-.4.2-.5 1-.8 1.6l.4.3 8.7-3.2zm44 13.2c-2.1-1.7-5-2-7.5-.9-.8.4-1.4.9-1.1 1.8l8.6-.9zm-27.3 35.5c.5-.4.9-.6.9-.8-.4-5.1.2-10.2-.9-15.2-.1 4.9-.1 9.7-.1 14.5.1.4.1.8.1 1.5zm-3.4-21c-2.4 1.7-4.7 3.1-5.5 6.1 2.5-.1 4.7-2.5 5.5-6.1zm-28-81.1c-2.9 2-5.7 6.3-5.6 8.4 2.5-2.3 4.5-5.1 5.6-8.4zm-80.8 146.1-6.3-1.1c1.1 1.2 2.3 2.5 3.5 3.7l2.8-2.6zm112.5-64.6-.7.6c.9 1.4 1.7 2.9 2.7 4.3.3.4 1 .4 1.5.6 0-.6.4-1.4.1-1.8-1.2-1.3-2.4-2.4-3.6-3.7zm3.8-45.8c2.5-1.7 4.1-4.2 5.5-6.8-2.3 1.9-4.5 3.9-5.5 6.8zm-7.1 55.6c1.7-2.5 1.1-5.3.9-8.1-1 2.6-1.3 5.4-.9 8.1zm11.3-7.8c-1.6-2.3-3.8-3.1-6.1-2.4 1.7 1.3 3.4 2.7 6.1 2.4zm-107.6 49.7-5.2-1.7-.1.3 3.1 3.8 2.2-2.4zm69.7-103.4v-3.2l-4.6 1.4 4.6 1.8zm24.8 50.5c-2 .1-3.8 1.2-4.7 3 .4.2.9.2 1.3 0 1.1-.9 2.2-2 3.4-3zm-24-42 2.8-2.6-.3-.3c-.3.3-.7.5-1.1.7-.5.2-.9.3-1.4.4v1.8z"/><path class="st3" d="M80.3 374.9c3.7 3.2 8 5.6 12.6 7.2 11.4 4.3 23.3 7 35.5 8.2 6.7.6 13.6.4 20.3.4 8.2 0 16.3-.5 24.5-.4 17 .1 33.9-2.3 50.2-7.3 11.8-3.5 23.6-7 34.6-12.5 6.4-3.1 12.5-6.8 18.9-10 6.7-3.4 13.2-7.2 19.4-11.5 9.6-6.6 20.1-11.7 30.6-16.8 3-1.4 5.9-3.1 8.9-4.5 5.9-2.7 12-5 17.8-7.9 5.2-2.7 10.2-5.9 15.2-8.9.2-.1.4-.2.5-.2.7 4.5 1.3 9.1 0 13.5-.5 2.1-1.9 3.9-3.8 5-2.3 1.3-4.6 2.5-7 3.5-8.1 3-15.9 7-23.1 11.7-14.2 9.4-28.6 18.6-42.7 28-5.9 4-11.3 8.7-17.5 12.2-16.9 9.4-35.1 16.2-54 20.3-10.2 2.2-20.5 3.8-30.8 5.4-11.4 1.7-23 2.3-34.5 1.7-9.3-.4-18.6-1.5-28-2.2-10.2-.8-20.2-2.8-29.9-5.8-4.4-1.4-8.6-3.2-12.9-4.9-3-1.1-5-3.8-5.2-6.9-.7-5.8-.5-11.6.4-17.3z"/><path class="st3" d="m243.5 274.7 5-7.4c1.8-2.7 1.9-2.8 4.8-1.3 2.4 1.2 4.6 2.8 6.8 4.2.3.2.6.5.7.9.3 2.5 2.5 4.4 5.1 4.4 2.6.1 4.9-1.7 5.6-4.2.8-2.6-.6-5.3-3.1-6.1-.6-.2-1.1-.3-1.7-.2-.8-.1-1.7-.3-2.4-.8-3-1.7-6-3.5-9-5.4 1.6-2.1 3.8-3.5 6.3-4.1 5.5-1.6 11.4-.9 16.4 1.9 2.5 1.3 4.9 2.7 7.4 4 3.9 2 7.9 4 11.9 6-.8 2.4-1.7 5-2.5 7.6-3.5 11.2-7 22.4-10.4 33.6-1.2 4.5-4.5 8.2-8.9 9.9-1.3.5-2.6 1.1-4 1.7-1.6.7-2.7 2.2-2.8 3.9-1.3 8.4-2.7 16.7-4 25-.2 1.3-.5 2.6-.8 3.9-.2.5-.7.9-1.2 1.1-7 2.9-14.3 5.2-21.8 6.9-12.1 2.9-24.4 4.6-36.8 5.1-3.1.1-6.1.3-9.2.5-1 .2-2-.4-2.2-1.4v-.3c-.8-3.3-1.7-6.6-2.5-9.5.3-1.1.4-2.2.4-3.3-.6-4.1-1.4-8.2-2-12.3-.3-1.6-.4-3.2-.1-4.8.3-1.3 1.4-2.5 2.3-3.6.4-.2.9-.2 1.2 0 2.6 2 5.1 4 7.5 6 .3.3.5.7.5 1.2-.8 1.8.1 3.1 1.2 4.3 2.3 2.1 5.6 2.6 8.4 1.2 2.5-1.4 3.2-5.8.6-7.3-3-1.8-4.6-4.7-6.8-7-1.4-1.4-2.7-2.9-4.2-4.4 1.1-.9 2.2-1.8 3.4-2.6.4-.2.8-.2 1.2 0 3.6 1.5 7.2 3.1 10.7 4.7.6.3 1.1.5.9 1.4-.4 1.8.5 3 2 3.9 3.5 2.1 8.3 0 8.5-3.8.1-1.4-.5-2.7-1.6-3.5-2.4-1.8-4.8-3.7-7.3-5.3-2-1.2-4.1-2.2-6.2-3.1-.5-.2-1.1-.4-1.7-.7 2.2-2 4.3-3.8 6.5-5.7.4-.2.8-.3 1.2-.2 3.9 1.6 7.8 3.4 11.7 5-.5 2.5 1.3 4.5 4.3 4.7 4.5.4 7.5-3.2 5.9-7.1-.7-1.8-2.5-3-4.5-2.8-.3.1-.7 0-1-.1l-11.7-5.1-.3-.3c.6-.6 1.3-1.2 1.9-1.8 1.6-1.7 3.1-3.5 4.8-5.2.4-.4.9-.6 1.4-.5 3.1 1.2 6.2 2.4 9.2 3.8.6.3 1 .9 1.2 1.5.6 2.3 2.6 3.9 4.9 4 2.3 0 4.3-1.4 5.3-3.5.7-2.2 0-4.7-1.8-6.1-.2-.2-.5-.4-.8-.5-3.3-.4-5.7-2.9-8.6-4.1-1.8-.8-3.4-1.8-5.3-2.7l3.7-4.7c.4-.5.7-.9 1.1-1.4 1.8-2.3 1.8-2.4 4.6-1.3s5.6 2.4 8.3 3.6c.3.1.6.6.7 1 .6 1.9 2.3 3.3 4.3 3.4 2.3.3 4.6-.8 5.8-2.9 1.1-1.9.9-4.2-.4-5.9-.7-.7-1.7-1.2-2.6-1.4-1.2-.4-2.6-.5-3.8-.9-3-.9-5.9-2-8.9-2.9l-2.7-.8z"/><path class="st3" d="M90.5 359.9c-.9 4.1.9 6.5 3.7 8.6 4.6 3.3 9.9 5 15.3 6.1 13.1 2.9 26.4 4.4 39.7 4.5 9.6.1 19.3.2 29 0 15-.2 29.8-2.5 44.1-6.8 12.3-3.8 24.6-7.5 36.4-12.8 1-.4 2-.9 2.9-1.5.9-.6 1.5-1.5 2-2.5.4-1.1 1.2-2 2.3-2.5 4.3-2 8.5-4.2 12.8-6.3 6.2-3.1 12.5-6 18.6-9.2 6.9-3.6 13.8-7.3 20.6-11.3 11.5-6.8 23.6-12.2 35.4-18.5 3.8-2 7.6-4 10.6-7 .8-.8 1.5-1.8 2.4-2.7 2 3.3 1.9 7.2 2.8 11-5.4 4.2-11.4 7.7-17.8 10.4-13.3 5.4-26 12-38.9 18.5-7.9 4-15.1 9-22.6 13.7-6.2 3.9-12.8 7.2-19.2 10.6s-12.8 7-19.4 9.9c-15.2 6.4-31.1 11.2-47.4 14.3-9.6 1.8-19.4 2.6-29.2 2.6-10.1 0-20.3.2-30.4.5-18.3.5-35.9-3-52.9-9.6-3.7-1.3-7-3.3-9.8-6.1-.3-.3-.4-.7-.4-1.1 1.4-4.4 3.4-8.3 7.1-11.3.7-.5 1.5-1 2.3-1.5zm251.1-43.1c-1.3-.3-5 1-5.4 1.7-.1.2-.1.6-.1.6.3.2.8.4 1 .3.9-.3 1.7-.7 2.5-1.1.7-.5 1.4-1 2-1.5zm-8.7 4.4-.2-.5c-1.6.6-3.2 1.3-4.7 2-.2.1-.3.5-.2.8s.3.3.5.4c.9.1 4.1-1.7 4.6-2.7zm-9.1 5c-1.2-.4-5.2 1.1-5.5 1.9-.1.2.5.9.5.8 1.7-.7 3.5-1.1 5-2.7zm26.6-13-.3-.7c-1.8-.1-3.3.9-4.9 1.7-.2.1-.4.6-.3.7s.6.5.8.4c1.7-.7 3.2-1.4 4.7-2.1zm10.2-5.7c-1.4-.3-4.7.7-5.2 1.5-.1.2-.2.6-.1.8.2.2.5.3.8.3.9-.3 1.7-.7 2.5-1.1.7-.5 1.3-1 2-1.5zm-91 47.5c1.2-.5 2.4-1 3.5-1.5.3-.1.4-.6.6-.9-.4-.1-.8-.4-1.1-.3-1.1.4-2.2.8-3.3 1.3-.2.1-.4.5-.6.8l.9.6zm27.4-14.5c-.9-.3-4.2.7-4.6 1.5 0 .3.1.7.4.9.7.2 3.8-1.6 4.2-2.4zm12.4-6.8c1.4.4 4.3-.9 4.9-2.2-1.4-.3-4.4 1-4.9 2.2zm-28.4 15-.2-.5c-1.3.5-2.6 1-3.8 1.5-.1 0 .1 1 .3 1.1.7.3 3.3-1.2 3.7-2.1zm24.9-12.3c-1.3-.7-4 0-4.2.9 0 .2.6.8.8.8 1.1-.4 2.1-1 3.4-1.7zm-17.6 8.1-.3-.6c-1 .5-1.9.9-2.8 1.5-.2.2-.3.5-.2.8.2.2.4.4.7.3 1.1-.2 2.1-.9 2.6-2zm77.4-39.9c-.1-.3-.3-.6-.4-.9-.9.4-1.8.7-2.6 1.2-.2.2-.2.5-.2.8.1.2.5.4.7.3.8-.4 1.7-.9 2.5-1.4z"/><path class="st3" d="M353.8 264.7c2.5 6.6 5 13 7.5 19.4.7 1.4.1 3.1-1.2 3.9-2.4 1.8-4.9 3.5-7.4 5.2-1.8 1.2-2.3 1.8-1.7 3 .9 1.9 2.9 2.9 4.5 2 2.2-1.2 4.2-2.6 6.3-3.9.7-.4 1.1-1.5 2.2-.7.9.6 1.2 1.6.9 2.6-.7 3.3-3.2 5-5.7 6.4-6.8 3.9-13.6 7.6-20.7 11-10.4 4.9-20.1 11.1-30.2 16.6-7.2 3.9-14.7 7.4-22 11-.7.4-1.4.7-2.4 1.2.3-2.2.5-4.1.8-6.1.4-3.4.8-6.8 1.1-10.2 0-1.3.7-2.5 1.8-3.2 3.5-2 6.9-4.2 10.5-5.9s6.2-4.2 7-8.4c1.5-7.3 3.1-14.5 4.7-21.7 1.3-5.6 2.6-11.3 3.9-16.9.2-.5.6-.8 1.1-.9 2.2-.5 4.5-.7 6.7-1.3.8-.3 1.8 0 2.3.8 2 2.7 4 5.4 5.9 8.2 2.4 3.6 5.4 4.6 9.3 2.6 5.1-2.7 9.5-6.8 12.5-11.8.5-.8 1.1-1.6 1.7-2.5.1-.1.3-.2.6-.4zm-65.2 65.1c.1.8.1 1.6.1 2.4 0 1.1.5 1.8 1.5 1.8.7 0 1.4-.2 2-.8 1.5-1.9 2.8-3.9 4-5.9s2.5-4.1 3.7-6.3c.2-.5.2-1.1.2-1.6-.5 0-1 .1-1.5.2-2.2 1-4.5 2.2-6.7 3.2-2 .8-3.3 2.9-3.2 5.1-.1.6-.1 1.3-.1 1.9zM191.3 365.7c-.5.1-.9.1-1.4.1-10.2-.3-20.4-.4-30.6-1-8-.4-16.1-1.3-24.1-2.1-6.8-.7-13.6-1.6-19.9-4.5-2-1-3.9-2.2-5.7-3.5-1-.5-1.3-1.6-.9-2.6.1-.2.2-.3.3-.5.5-.8 1.2-1.5 1.9-2 2.2-1.5 4.6-2.8 6.8-4.2 5.1-3.2 10.3-6.2 15.1-9.6 8.6-5.9 17.5-7.5 27.2-3.4 10.2 4.2 19.2 10.9 26.1 19.5 2.3 2.9 3.2 6.3 4 9.8.7 1.4.9 2.7 1.2 4z"/><path class="st3" d="M262.6 355.3c-.7.9-1.6 1.6-2.5 2.2-4.7 2.1-9.3 4.4-14.2 6.1-12.6 4.3-25.3 8.7-38.5 11.1-6.5 1.2-13 2-19.6 2.5-15.4 1.2-30.8.9-46.2.3-12.8-.4-25.5-2.4-37.8-5.9-3.5-1-6.7-2.6-9.7-4.8-2.9-2.3-3.6-6.4-1.6-9.5 2-3.4 5.3-5.9 9.1-7 2.9-.9 5.8-1.7 9-2.5-.9.9-1.7 1.8-2.5 2.7-1.6 2.2-1.3 3.8.8 5.5 4.8 4 10.7 5.6 16.6 6.6 10.3 1.8 20.8 2.9 31.3 3.3 10.5.4 21 1.1 31.5 1 20.6 0 40.9-2.1 60.7-7.9 2.2-.6 4.4-1.4 6.6-2.1s4.3-1.5 6.4-2.3l.6.7zM298.4 267.4l13.9 2.5c-1 4.3-2.1 8.9-3.1 13.5-1.6 7.3-3.1 14.7-4.8 22-1.8 7.7-1.9 7.6-8.9 11.3-3.1 1.6-6.1 3.5-9.1 5.3-1.3.8-2.2 2.2-2.2 3.8-.6 5.2-1.2 10.3-1.8 15.5 0 1.4-.9 2.6-2.1 3.2-4.3 2-8.5 4.3-12.7 6.5-.7.4-1.4.7-2.4 1.2.4-2.3.7-4.3 1-6.3.8-4.2 1.8-8.3 2.5-12.5.5-3.1.9-6.3 1.2-9.4.1-1.7 1.2-3.1 2.8-3.7 1.9-.8 3.7-1.6 5.5-2.5 3.2-1.4 5.6-4.1 6.6-7.5 1.9-6.1 3.7-12.2 5.7-18.3 2.5-7.9 5-15.7 7.6-23.6 0-.4.1-.7.3-1z"/><path class="st3" d="M146.7 328.5c2.7-1.6 5.6-3.3 8.4-5.1 3.5-2.1 7-4.3 10.4-6.5.7-.5 1.6-.6 2.3-.1 3.1 1.4 6.2 2.9 9.3 4.2 4.8 1.9 8.7 5.2 13 8-.1.2-.2.4-.4.5-3.1 2.3-3.4 5.5-2.9 8.9.6 4 1.4 8 2.1 12 .1.8.1 1.5.2 2.7l-1.1-1.3c-8.2-10.3-18.4-17.9-31.2-21.7-3.2-1-6.7-1.1-10.1-1.6zM344.6 237.1c1 1 1.9 2 2.8 3.1 1.9 2.9 2.3 6.3 3 9.6.8 3.9 1.6 7.7 2.3 11.6.2.8 0 1.6-.4 2.4-3.1 5-6.5 9.8-11.7 13-1.2.8-2.4 1.4-3.6 2-1.9.8-4.1.2-5.3-1.5-2.4-3.4-4.8-6.7-7.2-10.1 1.6-.9 3.4-1.9 5.1-2.9 3.6-2 6.4-5.1 8-8.9l6.3-15c.3-1.1.5-2.2.7-3.3zM334 275.4c.2-.1.4-.3.6-.5.1-.1-.1-.5-.2-.6-.8-.8-1.7-1.6-2.5-2.4-.3-.2-.6-.3-.9-.2-.1 0-.2.4-.2.6 0 1.1 2 3.1 3.2 3.1zm10-4.8c.9-.8 1.9-1.5 2.8-2.3.1-.2.1-.5 0-.8-.2-.2-.5-.2-.8-.1-.9.6-1.9 1.3-2.7 1.9-.2.2-.2.4-.1.6.1.3.4.4.8.7zm-5.9 4c.9-.6 1.7-1 2.5-1.6.2-.2.2-.5.1-.8-.2-.2-.5-.2-.7-.2-.8.3-1.5.6-2.2 1-.3.1-.4.5-.6.8l.9.8zm-9.6-7.4-.5.1c-.1.3-.5.7-.4.9.6.8 1.2 1.6 1.9 2.4 0 0 .5-.3.8-.4l-1.8-3zm22.8-4.9-.5-.5c-.8.7-1.5 1.3-2.2 2-.1.1-.1.5.1.7s.5.3.6.2c.8-.7 2-1.1 2-2.4zM272.8 252.8c-7.1-.7-14-.6-19.2 5.6-1.8-.5-3.6-1-5.4-1.4-4.8-1.1-9.8-.7-14.4 1.1-.5.1-.9.1-1.4 0-.1-.2-.1-.3-.1-.5 1.8-1.6 3.6-3.2 5.3-4.9 3.8-3.7 7.6-7.4 11.4-11 1-.9 2-1.8 3.1-2.5 2.1-1.4 4.8-1.5 7-.3 6.2 3 10.2 8.1 13.8 13.7-.1 0-.1.1-.1.2z"/><path class="st3" d="M160.2 313.6c2.8-2.6 5.8-3.9 9.5-2.8 4.6 1.4 9.4 2.6 13.9 4.3 7.1 2.8 12.4 8.1 17.6 13.6 1.8 2.1 3.4 4.3 4.9 6.6.7 1 .4 2.3-.5 3-.5.6-1.4.7-2 .2l-.2-.2c-.6-.5-1.1-1.1-1.6-1.7-3.7-4.5-8.8-7.3-13.4-10.8-4.2-3.3-8.9-5.9-14-7.6-.8-.3-1.6-.6-2.3-1-3.9-1.8-7.5-3.8-11.9-3.6zM316.9 247.5c-.4 1.2-1.2 2.5.2 3.4s2.4-.1 3.5-.8c.4-.2.8-.6 1.4-1.1-.1 1-.2 1.7-.2 2.4-.1.7-.1 1.4 0 2.1.3 2.1 1.3 2.5 3.6 1.1v6.5c0 .5-.1 1.1-.1 1.6-.2 2.7-.1 3-2.9 3.5-3.7.8-7.5 1.2-11.3 1.7-.6 0-1.2 0-1.8-.1.6-1.2 1-2.2 1.5-3.1 2.2-3.9 3.4-8.4 3.4-12.9.1-3.7.1-7.4 0-11.1 0-1 .3-1.6 1.3-1.8l4.9-1.1c-.1 1.3-.2 2.3-.3 3.4-1.3.9-2.6 1.8-3.8 2.8-1.5 1.3-1.3 2.4.6 3.5zM202.4 280.4c.5.2 1 .4 1.4.6 4.6 2.7 9 5.7 12.5 9.9.4.5.7 1.1 1 1.7l.6.6c1.7 1.7 3.4 3.3 5.1 5 .7.8.6 1.5-.3 2.2-2.9 2.7-3 2.8-5.7-.2-4.3-4.6-9-8.8-14.1-12.6-1.2-1-2.4-2.1-3.6-3-.6-.3-.8-1-.5-1.7l.3-.3c.7-1 1.4-2.2 3.3-2.2zM210.2 312.1c-2.6 3.4-5.6 2.9-7.9.7-2.6-2.5-5.1-5.1-7.6-7.8-2.7-2.9-5.5-5.7-8.2-8.6-.6-.6-1.3-2-1.1-2.3 1.1-1.2 2.3-2.3 3.6-3.1.2-.2 1.2.4 1.6.9 2.2 2.2 4.5 4.4 6.4 6.8 3.3 4.2 7 8.1 10.9 11.6.9.6 1.6 1.2 2.3 1.8zM233.9 285.5c-.2.2-.5.6-.8 1-1.6 2-2.2 2.2-4.3.5-3.3-2.7-6.6-5.6-9.7-8.5-2.4-2.2-4.8-4.5-7.1-6.9-1.4-1.4-1.3-1.8.1-3.2l.6-.6c2.5-2.4 3.2-2.3 5.6.1 3.4 3.4 6.6 7.1 9.5 11 1.9 2.3 3.9 4.5 6.1 6.6zM345.2 189.5c-2.3 0-4.6.1-6.8-.1-.9-.1-1.7-.6-2.2-1.4-.8-.9-.7-2.3 0-3.2.7-.7.9-1.7.5-2.6-.6-1.9-.1-2.6 1.7-3.6.4-.2.5-.8.8-1.1.3-.8.8-1.6 1.3-2.2 1.4-1.4 2.6-1.2 3.5.6.5 1 1.5 1.7 2.6 1.9 2 .4 2.7 1.4 2.9 3.4 0 .6.3 1.2.6 1.8 1 1.3 1.1 3.1.4 4.5-.3.6-.8 1-1.5 1.2-1.2.5-2.5.7-3.8 1.1v-.3zM288.6 260.5c-.8-.1-1.5-.4-2.1-.7-.5-.5-.9-1.1-1-1.8-.3-2.7-.5-5.3-.7-8-.5-9.5-.8-19-1.6-28.5-.6-7.7-1.7-15.4-2.5-23.1-.1-1.2-.1-2.3 0-3.5l.6-.2c.4.6.8 1.2 1 1.8 1.3 8.8 2.7 17.5 3.8 26.3.3 2.9.4 5.7.4 8.6-.2 8.2.3 16.3 1.5 24.4.2 1.5.3 3.1.6 4.7zM192.9 291.8c1.9-1.6 3.7-3.3 5.6-4.8.3-.3 1-.1 1.8-.2l-5.3 6.8.5.5c.5-.3.9-.6 1.3-1 1.2-1.4 2.3-2.8 3.6-4.2.4-.3.9-.4 1.4-.3 5.7 4.1 11 8.9 15.6 14.3-3-.6-5.6-1.3-8.4-1.8s-5.6-.9-8.5-1.4c-.4 0-.7-.2-1-.5-2.1-2.3-4.2-4.8-6.6-7.4zM266.3 152.7c0 2.3-1.2 3.1-3.1 3.2s-3.8-.9-5.5.9c-.3.4-1.3.2-2 .2-2.4-.1-3.8-1-4.1-2.6-.4-1.1.1-2.3 1.1-2.8 1.1-.6 1.2-1.4.6-2.5-.8-1.6-.5-2.4.9-3.5.4-.3.6-.7.7-1.2-.3-1.2.5-2.3 1.6-2.6h.2c.9-.1 1.9.7 2.8 1.3.3.2.4.8.7 1.1.4.4.9.8 1.4.9 2.1.5 2.9 1.2 3 3.3-.1 1.1.3 2.1 1.1 2.9.5.3.5 1.1.6 1.4zM215.2 287.4c3.6-.3 7.1-.1 10.6.7 6.1 1.5 11.5 4.4 16.8 7.6.6.4 1.1.8 1.6 1.3 1 1 1 2.6 0 3.6-.1.1-.2.2-.3.2-.4.2-.8.2-1.2 0-.9-.3-1.7-.8-2.5-1.2-6.2-3.7-13.2-5.3-20-7.6-.3-.1-.6-.2-.8-.3-1.4-1.3-2.6-2.7-4.2-4.3zM189.3 312.7c4.2.7 8.3 1 12.1 2.2 2.7.9 5.6 1.4 8.3 2.3 3.8 1.4 7.3 3.5 10.5 6.1 1.8 1.4 1.9 2.2 1 3.4-.4.8-1.5 1.2-2.3.8-.1 0-.1-.1-.2-.1-1.7-.9-3.3-2-5.1-2.7-4.1-1.8-8.2-3.7-12.4-5.3-2.4-.8-4.8-1.5-7.3-1.9-1-.1-1.9-.7-2.4-1.6-.7-1.2-1.4-2.2-2.2-3.2zM293.5 153.4c.2-1 .5-2 .9-2.9.2-.4.7-.9 1-.9 1.3.1 1.5-.7 2-1.7.4-.8 1.1-1.4 2-1.6.7 0 1.5.8 2.2 1.4.3.4.5.9.5 1.4 0 1 .9 1.9 1.9 1.9 1.1.2 1.4 1.1 1.6 2.1s.5 1.7.6 2.6c.1.7 0 1.4-.3 2.1-.6 1-1.3 1.8-2.1 2.6-.2.2-.7.2-1.1.2l-3.1.3c-.1 0-.2.1-.3.1-.5.1-1.1.5-1.5.4-1.5-.5-3-1.2-4.4-2-1-.7-.8-2.3.1-4.1.2-.6.4-1.2.5-1.8l-.5-.1zM233.8 259.5c4.2-1.7 8.8-2.1 13.2-1.4 5.6 1.2 10.9 3.5 15.5 6.8 1.5 1 3.1 2 3.5 3.8.2.7.1 1.5-.3 2.1-.7.3-1.4.3-2.1 0-1.6-1-3.2-2.2-4.7-3.3-4.9-3.4-10.6-5.3-16.5-5.4-1.9-.1-3.7 0-5.6 0-.3 0-.6-.1-.9-.3-.7-.7-1.3-1.4-2.1-2.3zM280.3 192.8l-5.1-.4c-1.1 0-2-.7-2.3-1.7-.4-1.2-.6-2.5.4-3.5.7-.6 1-1.5.8-2.4-.1-1.7.1-3.2 1.8-4.2.5-.3.7-1.1.9-1.8.6-1.6 1.5-1.9 2.6-.7.8.9 1.5 1.9 2.1 2.9.4.5.8 1.2 1.3 1.3 1.6.4 1.8 1.6 2 2.9 0 .6.1 1.2.4 1.7.9 1.6.4 3.6-1.2 4.5-.2.1-.5.3-.8.3-1.1.4-2.2.9-2.9 1.1zM244.1 271.3c-.8 1.2-1.4 2-1.9 2.8-1.6-.4-3.4-.5-4.7-1.3-1.5-.9-2.7-2.4-4-3.7-2.7-2.6-5.4-5.2-8.2-7.6-2.6-2.2-2.9-4.4-.5-7 .3-.5 1-.7 1.5-.4l.3.3c2.7 2.7 5.3 5.5 8.1 8.1 3.1 3 6.2 5.9 9.4 8.8z"/><path class="st3" d="m307.6 267.7-1.7-.3c0-.2-.1-.3 0-.4 3.3-5.5 3.3-11.7 3.8-17.8.6-6.5.9-13.1 1.5-19.6.3-3.4 1.3-6.7 1.8-10.1.4-2.7.5-5.5.9-8.3.2-1.4.5-2.7 1.1-4 .7 3.5.8 7.2.2 10.7-.5 2.4-1.2 4.7-1.7 7.1-.3 1.2-.5 2.4-.5 3.7-.1 5.6 0 11.2-.1 16.9-.1 3.4-.2 6.8-.6 10.2-.3 1.9-.8 3.8-1.5 5.5-.9 2.1-2.1 4.2-3.2 6.4zM331.1 241.4v-3.6c2.5 1 4.7 2 6.9 3 .4.3.6.8.6 1.3-.7 4.2-1.4 8.4-2.4 12.5-1.1 4.1-4 6.5-7.6 8.6V251c2.9.5 3.6-.2 3.4-3.6.8.1 1.5.1 2.3.1.7-.1 1.3-.5 1.7-1.1.1-.6-.1-1.3-.5-1.8-1.4-1.1-2.8-2-4.4-3.2zM226.1 273c2.8.3 5.4.4 7.9.8 7.1 1.1 13.7 3.8 20.4 6.1 1.1.4 2 1.1 2.9 1.8.6.4.8 1.2.5 1.8-.2.4-.6.6-1 .6-.6.2-1.2.3-1.7.2-1.7-.2-3.3-.7-4.8-1.3-5.6-2.9-11.8-4.7-18.1-5.1-2.1 0-4-1.3-4.9-3.2-.4-.4-.7-.9-1.2-1.7z"/><path class="st3" d="M308.9 243.7c-.2 2.4-.5 4.8-.7 7.2-.2 1.7-.4 3.4-.4 5.2-.2 3.5-1.1 6.9-2.9 10-.4.8-.8 1-1.6.7-4-1.2-3.3-.5-3.3-4.4 0-2.5.1-5 .3-7.6 0-.6.2-1.3.5-1.8 2.3-3 4.7-5.9 7-8.8l.7-.7.4.2zM201.6 301.1l7.5 1.4c7.8 1.5 15.3 4.1 22.4 7.7.5.2 1 .5 1.4.9.6.5 1.9.8 1.1 2.1s-1.8 1.8-3.2 1.1c-3.8-1.7-7.5-3.7-11.4-5.1-3.8-1.4-7.7-2.4-11.7-3-3.1-.5-4.4-2.7-6.3-4.6l.2-.5zM321.8 190.3c-.1.5-.2.9-.4 1.4-.4 1-1 1.6-2.3.9-1.5-.6-3-1-4.6-1.3-.5 0-1.1.1-1.5.4-1.3.9-3 .8-4.2-.2-.8-.7-1-1.9-.3-2.7.1-.2.3-.3.5-.4 1-.5 1.4-1.7 1-2.7-.3-1 .2-2.2 1.2-2.6.6-.4 1.1-.9 1.5-1.6 1.5-2.5 3.5-2.6 5 0 .6 1.1 1.1 2.3 2.4 2.9.5.3.7.8.7 1.4-.3 1.3-.1 2.8.8 3.9.1 0 .2.3.2.6zM259.5 166.3c.1 1.1.2 2.2.2 3.3-.8 6.9-1.5 13.8-2.4 20.6-1.2 7.8-1.1 15.8.1 23.7 1 6 2.2 12 3.4 17.9.2 1.1 1.1 2 1.3 3 .1 1.4.2 2.8 0 4.2-.5-.7-1.1-1.2-1.2-1.7-1.6-6.6-3.1-13.2-4.6-19.8-1.5-7.3-1.8-14.9-.6-22.3 1.2-8.9 2.1-17.9 3.1-26.8.1-.7.2-1.5.4-2.2l.3.1zM190.6 317.1c-3.9-2.4-8.1-4.2-12.4-5.6-.2-.1-.5-.2-.6-.3-2.1-2-4.2-4-6.4-5.9-.8-.7-.8-1.2 0-1.7.4-.3.9-.6 1.4-.9 1.5-1.3 3.6-1.3 5.1 0 5.1 4 9.5 8.8 12.9 14.4zM200 313.2c-3.9-.7-7.8-1.5-11.6-2.2-.3-.1-.6-.3-.8-.5-1.7-1.9-3.4-3.9-5.1-6l5.6-4.6 12.2 13c-.2.1-.2.2-.3.3zM225.3 286.2h-11c-.3 0-.6-.1-.8-.3-1.8-1.3-3.5-2.7-5.2-4l5.2-6.5 11.8 10.8zM136.9 332.2c1.2-2.7 3.2-4.9 5.8-6.5 5.4-3.3 11-6.5 16.4-9.8 1.8-1.1 3.5-.7 5.4-.1-8.9 5.9-18.1 11.4-27.6 16.4zM338.7 249.1c.9-5 1.8-10 2.5-15.1.6-4 .7-8 1.1-11.9.3-2.8-.5-5.4-.6-8.2-.2-4.3-.3-8.6-.3-12.9.1-1.1.4-2.2.8-3.2l.4.1c.1.5.2.9.2 1.4 0 3.1-.2 6.1-.1 9.2 0 3.2.2 6.4.5 9.6.6 6.4.5 12.8-.4 19.1-.5 4.1-1.9 8.2-4.1 11.9zM241.1 247.6l-9.8 9.2-2.6-2.4c1.7-2.9 3.2-5.8 4.9-8.5 1.5-2.4 3.8-2.5 5.7-.4.6.6 1.1 1.3 1.8 2.1zM254.9 217.7c-1.7.2-3.2.5-4.6.6-1.2.1-2.4 0-3.5-.3-3.1-1.3-6.5-1.5-9.8-.6 1.5-2.9 4.4-4.7 7.6-4.8 1.7 0 3.3 0 5-.2 2.1-.2 3.1.3 4 2.2.5 1 .9 2.1 1.3 3.1zM337.9 224.1c-.2.5-.3.6-.3.6-4.6 1-8.8 3-13 5-1.4.5-2.9.8-4.3.9-1.5.2-3 .2-4.7.4 2.5-3.1 5-5.7 9.2-6 2.6-.1 5.2-.8 7.8-1 1.8-.1 3.6-.1 5.3.1zM220.4 268.6c1.5-1.9 2.7-3.3 3.8-4.7.6-.8 1.2-.8 1.8-.1 1.9 1.8 3.8 3.5 5.6 5.3 1 1 1.8 2.1 2.8 3.2-3.3-.2-6.6-.3-9.8-.5-.5 0-1.1-.6-1.5-1-1-.8-1.9-1.5-2.7-2.2zM282.5 193.6c1.3-.6 2.8-.5 4 .3 2.9 1.6 5.1 4.2 6.2 7.2.3 1.1.3 2.3 0 3.4-.2 1.1-1.2 1.4-2 .5-1.1-1-2.1-2.1-2.9-3.3-1.9-2.5-3.5-5.2-5.3-8.1zM278.6 225.7c-4.9.4-8.7 3.2-12.9 5.1-1.2.7-2.3 1.6-3.3 2.6-.1-.3-.1-.7-.1-1 .5-1.6 1.1-3.2 1.7-4.7.8-1.9 2.4-2.6 4.3-2.9l4-.6c2.3-.4 4.5.1 6.3 1.5z"/><path class="st3" d="M315.3 197.8c-.3 3.8-.4 7.3-2.4 10.3-.4.4-.8.8-1.3 1.1-.3-.5-.5-1-.7-1.5-.3-4.5.4-9 2-13.2.1-.3.2-.6.4-.8.4-.4.7-.7 1.1-1 .3.4.5.8.7 1.2.1 1.4.1 2.9.2 3.9zM329.9 239.8c.2 1.1-.6 2.1-1.6 2.3h-.4c-1.8.3-3.6.9-5.3-.5-1.2-1-1.4-2-.4-3.3.4-.5.7-1 .8-1.7 0-1.6 1.1-2.2 2.3-2.5s1.8.7 2.4 1.6c.5.7 1 1.4 1.4 2.1.2.7.5 1.3.8 2zM300.2 195.8c-.7-.9-1.4-1.7-2-2.5-.2-.3-.3-.6-.3-.9l-.3-21.5c0-.5.1-.9.4-1.3.2 1.3.5 2.7.8 4 2.3 7.1 1.2 14.5 1.4 21.7.2.2.1.4 0 .5zM272.7 208.2c-1.9-3.1 2.8-12.8 6.5-13.8.5 3.9-3.4 12.2-6.5 13.8zM259.1 157.7c1.1-.8 1.7-.8 2.1.4 1.3 3.1 2.6 6.3 3.6 9.5.3 1.3.4 2.7.2 4.1 0 .4-.5.9-.8 1.3-.4-.3-1.1-.5-1.2-.9-.9-2.6-1.6-5.3-2.4-8-.5-2.1-1-4.2-1.5-6.4zM298.7 225.4l-2.1-.4.9-10.8.6-7.8c.1-1.2.5-1.9 1.4-1.6.3 1.1.6 2.3.8 3.4.1.9 0 1.9-.1 2.8-.5 4.7-1 9.5-1.5 14.4zM237.8 263.1l11.2 1.2-4.3 6.3-6.9-7.5zM285.5 191.6c.8-.3 1.5-.9 1.9-.7 3 .9 6 1.8 9 2.9.9.5 1.6 1.2 2.1 2.1.7 1.2.1 1.8-1.2 1.6-1-.2-1.9-.7-2.8-.9-2.2-.4-4.3-1.4-5.8-3.1-1-.7-2.1-1.3-3.2-1.9zM298.8 243.4V265c-1.4 0-1.9-.4-1.9-1.8.2-6 .3-12 .3-17.9 0-1.2.6-1.5 1.6-1.9zM295.5 243c1-1.2 2-2.3 2.9-3.5 1.4-1.7 2.7-3.4 4-5.1.3-.4.5-.8.7-1.1 2-2.8 3.3-2.6 6-.4.6.5.3 1.1-.4 1.1-3.3 0-4.8 2.5-6.7 4.6-1.9 1.8-3.9 3.5-6 5.1l-.5-.7zM300.9 206.9c2-5.2 5.7-9.7 10.3-12.8.2 3.5-6.8 12.3-10.3 12.8zM361.9 288.2c1 4.6 1.5 3.1-2.1 5.8-1.3.9-2.6 1.7-4 2.5-1.8 1.1-2.7.8-3.7-1.2l9.8-7.1zM272.7 182.6c-.1.4-.2 1-.4 2.1-2.1 0-4.3.2-6.4-.1s-4.1-.8-6.4-1.2c.1-.4.3-.8.6-1.1 1.4-1.3 3.4-1.8 5.2-1.4 2.5.5 4.9 1.1 7.4 1.7zM263.6 204.1c2.9-4.6 7.4-7.2 12.3-9.2-1.6 2-2.2 4.8-4.9 6.1-2.4 1.1-4.5 3-7.4 3.1zM359 218.1c-2-.1-3.7-.6-5.2-.2-2.8.7-5.8.6-8.5-.4.5-1.6 2.1-2.7 3.8-2.7 1.7 0 3.5.1 5.2.3s3.2 1.4 4.7 3zM339.1 239.5c-2.9-1-5.8-1.8-8.5-3-1-.4-1.6-1.5-2.5-2.3l.2-.4h1.7c2.8.4 5.5 1 8.3 1.4 1.1.2 1.5.7 1.2 1.8-.2.8-.3 1.7-.4 2.5zM254.3 172.2c-.4-4.6 1-9.1 1.4-13.8.7-.4 1.6-.1 1.9.6 0 .1.1.2.1.3.1.2.2.5.2.7-.4 3.9-.1 8-2.4 11.5-.2.3-.4.5-.7.8l-.5-.1zM320 194.4l1.5.6c3.1 1.9 5.8 4.4 7.9 7.3.2.5.3 1.1.3 1.7-.6 0-1.4.1-1.8-.2-1.8-1.5-3.5-3.2-5.3-4.7-1.3-1.2-2.3-2.9-2.6-4.7zM346.9 205.6c-2.9-4.7-3.1-9.5-2.7-14.8.6.4 1.2.5 1.3.8 1.3 4.3 2.6 8.7 1.9 13.3 0 .2-.1.2-.5.7zM316.8 193c.4.4 1 .6 1.2 1.1 1.5 3.7 3 7.5 4.5 11.2.2.4.2.9.1 1.3s-.4.7-.8.9c-.2.1-.8-.3-.9-.5-.4-.8-.8-1.6-1.1-2.4-1.1-3.7-2.2-7.4-3.3-11.2l.3-.4zM282.5 248.5c-.4.3-.8.7-1.1 1.1-1.6 2.4-4.2 2.4-6.6 2.3-.5 0-1.1-1-1.5-1.6-.1-.1.7-.9 1.2-1.2 1.4-.7 2.9-1.2 4.3-1.9 1.5-.7 2.5-.5 3.7 1.3zM249 171.3c.1-1.2.4-2.4.6-3.5 1-3.1 2.1-6.3 3.1-9.4.1-.3.6-.5.9-.8.1.3.4.6.4.9-.1 4.3-1.3 8.5-3.7 12.1-.2.4-.4.8-.7 1.2l-.6-.5zM274 194c-4.4 1.8-7.9 5.9-13.5 5.7l1.2-1.2c3.2-1.8 6.4-3.7 9.7-5.4.6-.3 1.7.3 2.6.5.1.2 0 .3 0 .4zM272.1 167c-2.7 0-8.6-6.1-9.3-9.6 2.6.2 8.9 6.7 9.3 9.6zM363.4 195.1c-2 .2-9-2.2-14-4.7 5.2-1.2 12.1 1 14 4.7zM200.9 338.5c4.1 2.8 6.6 1.9 7-2.3 1.2.3 2 1.3 2.2 2.5.3 1.2-.1 2.4-1.1 3.2-2.2 1.7-6.5.6-7.7-2-.2-.5-.3-1-.4-1.4zM309 238.4c.3 1.6-.2 3.2-1.4 4.3-2.1 2.3-3.9 4.8-5.9 7.3-.4.5-.8 1-1.2 1.4l-.4-.1c.2-.9.1-2 .6-2.7 2.5-3.3 5.1-6.4 7.6-9.7.2-.2.5-.4.7-.5zM278.9 162.8c-5.3-.4-9-3.1-13-5.7 2.6-1 10.6 2.4 13 5.7zM357.3 200.6c-1.3-.4-2.6-1-3.8-1.6-2-1.5-3.8-3.1-5.6-4.8-.4-.4-.4-1.3-.6-2 2.9.5 9.2 5.6 10 8.4zM340.4 216.9l-11.9-3.7c5.7-2.2 10.1-1 11.9 3.7zM322.8 233.4c-.5 1.1-.9 1.9-1.3 2.6-.2.3-.6.6-1 .7-2.1.4-4.2.8-6.3 1.1 0 0-.1-.1-.1-.2-.1-3.3-.5-2.8 2.7-3.4 2-.4 3.9-.6 6-.8zM266.6 266.2c2.1.1 3.6 1.3 3.8 2.9.2 2.1-1 4-2.9 4.8-1.8.7-3.9 0-5.2-2 1.8.8 3.4 1.6 4.8-.1s.3-3.7-.5-5.6zM308.8 171.1c-3.8-2-5.6-6-8.6-8.8 0-.1 0-.3.1-.4.6-.1 1.3 0 1.9.2 2.2.9 6.3 6.4 6.6 9zM339.9 190.9c-.9 2.2-1.7 4.4-2.6 6.6-.2.4-.3.9-.4 1.3-.7 2.4-.7 2.4-3.1 3.8v-.8c1.3-3.3 2.7-6.7 4.1-10 .4-.9 1-1.5 2-.9zM229.5 315.4c4.1 1.2 6.7-.8 5.9-4.4 1.6.6 2.5 2.3 2.1 4-.2 1.6-1.8 2.7-4 2.9-1.8.4-3.5-.7-4-2.5zM210.9 272.5l1.7 1.9c-1.5 2-3 4-4.6 6-.6.8-1.5.7-2.6-.4l5.5-7.5zM241.1 301.9c1.5.5 3.1 1.4 4.2-.5 1-1.2 1.3-2.9.8-4.4 1.7.6 2.7 2.3 2.4 4-.3 1.7-1.7 3-3.4 3.3-1.7.3-3.4-.8-4-2.4zM298.7 162.9c2.2 4.1 3.4 8.8 3.3 13.5l-.5.2c-.2-.3-.6-.6-.7-.9-1-4.2-1.9-8.4-2.8-12.6l.7-.2zM337.5 203c.7-4.4 2.2-8.5 4.6-12.3.1.4.5.9.4 1.4-.6 3.7-2 7.2-4.3 10.3-.2.2-.4.4-.7.6zM295.7 217c-1.3-1.1-2.9-1.6-4.6-1.4-1.5-.1-2.9-.5-4.3-1-.2-.3-.3-.7-.2-1 .5-.4 1.1-.7 1.7-.8 1.6 0 3.1.2 4.7.5 1.5.3 2.4 1.5 2.7 3.7zM298.5 227.3l-9.7 2.3c.1-2.2 1.9-3.9 4.1-3.9.3 0 .6.1 1 .1 1.5.4 3 .7 4.5 1.1l.1.4zM223.4 325.9c1.1.9 1.4 2.5.5 3.7-1.1 1.6-3.2 2.2-5 1.5-1.6-.5-2.2-1.5-2.1-2.9 4 1.4 4 1.4 6.6-2.3zM305.3 161.3c4 .1 10.3 3.9 10.8 6.6-4.3-1.2-7.3-4.3-10.8-6.6zM253.2 285.9c5.7-.1 6.8-1.1 5.7-5 1.4.5 2 1.6 1.9 3.5-.2 1.8-1.6 3.3-3.4 3.5-2.1.3-3.4-.3-4.2-2z"/><path class="st4" d="M186.9 299.1c-1.6 1.3-3.1 2.4-4.4 3.7-.9.9-1.7 1-2.5 0-.3-.3-.7-.6-1-.9l6.5-4.5c.5.6.9 1.1 1.4 1.7z"/><path class="st3" d="m238.1 280.2-3.2 4-4.9-4.6.2-.5 7.9 1.1zM305 210.3c-.3-4 2.3-6.3 4.5-8.9.8 3.1-1.8 8.3-4.5 8.9zM198 323.5l-5.3-4.7.1-.4 8.2 2.1c0 .2.1.3.1.5l-3.1 2.5zM296.1 188.2l-8.5 1.4c-.4-2.4-.2-2.6 2-2.7 1.6-.1 3.1-.4 4.7-.3.7 0 1.3.6 2 .9-.1.2-.2.4-.2.7zM298.2 229.1c.2 2.6.5 5.2.4 7.8 0 .8-1.2 1.5-2.1 2.5V230c0-.4.7-.8 1.1-1.2l.6.3zM293.6 161.5c-2.1 3.3-5.5 5.5-9.4 6 2.2-3.3 5.7-4.6 9.4-6zM294.5 176.2c.1-4.4.7-8.8 1.8-13 1.2 2.1 0 10.4-1.8 13zM223.7 262.4l-3.9 5-1.9-1.9 4.4-4.8 1.4 1.7zM297.8 203.3c.5-1.6 4.3-4.8 8.1-6.9-1.4 1.9-2.9 3.5-4 5.4-.6 1-1.6 1.6-2.7 1.7-.4 0-.9-.1-1.4-.2zM295.6 254.5c.6 1.5-.1 3.2-1.5 3.8-1.2.6-2.3 1.3-3.5 2-.9-1.9-.8-2 .7-2.9s2.8-1.9 4.3-2.9zM290.1 261.6l5.3-2.7v5.2l-5.3-2.5zM243.2 167.2c1.6-3.5 4.3-6.1 7.2-8.6-.4 2.5-4.2 7.1-7.2 8.6zM309.7 216l-8.7 3-.4-.3c.3-.5.4-1.3.8-1.6 1.1-.6 2.3-1.1 3.6-1.4 1.5-.1 3-.1 4.6-.1 0 .3.1.3.1.4zM353.7 229.1l-8.6.9c-.4-.9.2-1.5 1.1-1.8 2.5-1.1 5.4-.7 7.5.9zM326.4 264.7c0-.7-.1-1.1-.1-1.5 0-4.8 0-9.7.1-14.6 1.1 5 .5 10.1.9 15.2.1.3-.4.5-.9.9zM323 243.7c-.9 3.5-3.1 6-5.5 6.1.8-2.9 3.1-4.4 5.5-6.1zM295 162.6c-1.1 3.2-3.1 6.1-5.6 8.4-.1-2.1 2.7-6.4 5.6-8.4zM214.2 308.7l-2.8 2.6c-1.2-1.3-2.4-2.5-3.5-3.7l6.3 1.1zM326.6 244.1c1.2 1.2 2.5 2.4 3.6 3.7.3.3 0 1.2-.1 1.8-.5-.2-1.2-.2-1.5-.6-1-1.4-1.8-2.9-2.7-4.3l.7-.6zM330.5 198.4c1-2.9 3.2-4.9 5.5-6.8-1.4 2.5-3 5-5.5 6.8zM323.4 253.9c-.4-2.7-.1-5.5.9-8.1.2 2.8.7 5.6-.9 8.1zM334.7 246.1c-2.6.3-4.3-1.1-6.1-2.4 2.3-.7 4.5.1 6.1 2.4zM227.1 295.8l-2.1 2.4-3.1-3.8.1-.3 5.1 1.7zM321.6 242.9c-1.1 1-2.2 2.1-3.4 3-.4.2-.9.2-1.3 0 .9-1.7 2.7-2.9 4.7-3zM297.5 201v-1.8c.5-.1.9-.3 1.4-.4.4-.2.7-.4 1.1-.7l.3.3-2.8 2.6z"/><path class="st2" d="M341.6 316.8c-.6.5-1.2 1-1.9 1.4-.8.5-1.7.8-2.5 1.1-.3.1-.7-.1-1-.3-.1 0 0-.5.1-.6.2-.6 4-1.9 5.3-1.6zM332.9 321.2c-.5 1-3.7 2.8-4.6 2.6-.2 0-.5-.2-.5-.4s0-.7.2-.8c1.6-.7 3.2-1.4 4.7-2l.2.6zM323.8 326.2c-1.4 1.6-3.3 2-5 2.7-.1 0-.6-.6-.5-.8.2-.8 4.3-2.3 5.5-1.9zM350.4 313.2c-1.5.7-3 1.5-4.6 2.1-.2.1-.6-.2-.8-.4s.1-.6.3-.7c1.5-.8 3.1-1.7 4.9-1.7l.2.7zM360.6 307.5c-.6.5-1.3 1-2 1.4-.8.4-1.7.8-2.6 1.1-.3 0-.6-.1-.8-.3-.1-.1 0-.6.1-.8.6-.7 3.9-1.7 5.3-1.4zM269.6 355l-.9-.6c.2-.3.3-.6.6-.8 1.1-.5 2.2-.9 3.3-1.3.3-.1.8.2 1.1.3-.2.3-.3.8-.6.9-1.1.6-2.3 1-3.5 1.5zM297 340.5c-.4.8-3.5 2.6-4.2 2.4-.3-.2-.4-.6-.4-.9.4-.8 3.7-1.8 4.6-1.5zM309.4 333.7c.5-1.2 3.5-2.5 4.9-2.2-.6 1.3-3.5 2.6-4.9 2.2zM281 348.8c-.4.8-3 2.3-3.7 2-.2-.1-.3-1-.3-1.1 1.2-.5 2.5-1 3.8-1.5l.2.6zM305.9 336.4l-3.4 1.7c-.1.1-.8-.5-.8-.8.2-.8 2.9-1.6 4.2-.9zM288.3 344.5c-.5 1.1-1.5 1.8-2.6 2-.3 0-.5-.1-.7-.3-.1-.3 0-.6.2-.8.9-.5 1.9-1 2.8-1.5l.3.6zM365.7 304.6c-.8.5-1.6 1-2.5 1.4-.2.1-.6-.1-.7-.3-.1-.3 0-.6.2-.8.9-.4 1.8-.8 2.6-1.2.1.3.2.6.4.9zM288.6 329.8v-1.9c-.1-2.2 1.1-4.2 3.2-5.1 2.3-1 4.5-2.1 6.7-3.2.5-.1 1-.2 1.5-.2 0 .6 0 1.1-.2 1.6-1.2 2.1-2.4 4.2-3.7 6.3s-2.6 4-4 5.9c-.5.5-1.2.8-2 .8-1 0-1.5-.7-1.5-1.8.1-.8.1-1.6 0-2.4zm9.9-8.4-.4-.4c-1 .5-2 1.1-3 1.6-5.2 2.5-5.3 2.2-5 8.6v.4c.1.3.2.6.4.9.3-.2.8-.3.9-.5 2.4-3.5 4.7-7.1 7.1-10.6zM334 275.4c-1.2 0-3.2-2-3.3-3.1 0-.2.1-.6.2-.6.3 0 .6.1.9.2.9.8 1.7 1.6 2.5 2.4.1.1.3.5.2.6-.1.2-.3.4-.5.5zM344 270.5c-.4-.3-.7-.4-.9-.6-.1-.2 0-.5.1-.6.9-.7 1.8-1.3 2.7-1.9.3-.1.6-.1.8.1.1.2.1.5 0 .8-.8.7-1.7 1.5-2.7 2.2zM338.1 274.6l-1-.7c.2-.3.4-.7.6-.8.7-.4 1.5-.8 2.3-1.1.3-.1.6 0 .8.2.1.3.1.5-.1.8-.9.5-1.7 1-2.6 1.6zM328.5 267.2l1.7 2.9c-.3.1-.7.5-.8.4-.7-.8-1.3-1.5-1.9-2.4-.1-.1.3-.6.4-.9h.6zM351.3 262.3c0 1.3-1.2 1.7-2 2.4-.1.1-.5 0-.6-.2s-.2-.6-.1-.7c.7-.7 1.5-1.4 2.2-2l.5.5z"/><path class="st3" d="M298.5 321.4c-2.4 3.5-4.7 7-7.1 10.5-.2.3-.6.4-.9.5-.1-.3-.3-.6-.4-.9v-.4c-.2-6.4-.2-6 5-8.6 1-.5 2-1 3-1.6l.4.5z"/><path class="st2" d="M412.2 401.6c1.8.2 3.3.5 4.8.5 8.7.3 17.4.5 26.1 1 8 .4 16.1 1.2 24.1 1.8.3 0 .6.1.9.2.4.3.8.6 1.1 1-.4.3-.8.8-1.2.9-3 .4-5.9.8-8.9.9-13.2.5-26.5.7-39.8 1.3-8.4.4-16.8 1.3-25.1 2-1.6.1-3.1.9-3.9 2.3-1.2 2.2-3.5 3.5-6 3.6-1.1 0-2.2.6-2.8 1.5-.9 1.1-2.1 1.9-3.5 2.3-3.6 1-7.3 1.7-11 2-6.5.4-13 .4-19.6.4-4.8 0-9.6-1.2-13.9-3.4-1.7-.7-3.1-1.9-4.2-3.3-2-3.3-5.1-4.1-8.5-4.2-2.1 0-4.2.4-6.2 1.1-4.5 1.5-8.9 3.4-13.4 4.9-3.7 1.2-7.6 1.5-11.4.8-3.8-.7-7.2-2-9-5.9-.3-.7-1.7-1.2-2.6-1.2-4.2 0-8.5.1-12.8.3-4.7.2-9.4.5-14.1.8-9.9.6-19.9 1.2-29.8 1.7-5.3.3-10.7.3-16 .4-1.4 0-3.1 0-3.4-1.7s1.6-1.9 2.7-2.4c.9-.3 1.8-.7 2.6-1.2-1.5.1-3.1.2-4.6.3-7.5.4-15 .9-22.5 1-3.4-.1-6.8-.5-10.1-1.1-1.1-.1-2.1-.5-3.1-1.1-.7-.4-1.6-1.4-1.6-2 .2-.9.8-1.6 1.6-2 2.1-.8 4.2-1.4 6.4-1.7 6.6-.6 13.3-1.3 20-1.5 10.6-.3 21.3-.3 31.9-.5 4.9-.1 9.7-.3 14.5-.5 1.4-.1 2.8-.4 4.1-1 1.3-.5 1.3-1.5.3-2.4-1.1-1.1-1.8-2.6-1.7-4.1-.6-7.8 2.1-14.2 8.7-18.3 7.1-4.4 7.2-4.3 10.6-11.9 5.8-12.6 20-14 28.2-10.1 1.3.6 2.6 1.4 3.7 2.4 2.9 2.2 4.2 5.9 3.1 9.4-1 3.9-2.1 7.7-2.9 11.7-.9 4.5 1.7 7.5 6 7.2 1.8-.1 2.6-.9 2.7-2.7.1-1.9.2-3.8.6-5.7 1.1-5.1 4.6-7.1 9.6-5.6.4.1.8.2 1.1.4 1.2.5 1.9.1 2.2-1.1 1.6-6.7 6.5-9 12.7-9.6 6.5-.6 11.5 1.7 14.7 7.6.5.9 1.1 1.7 1.7 2.6.3.9 1.3 1.3 2.2.9.2-.1.4-.2.5-.4l1.5-.9c9.5-5.7 19.4-6.1 29.7-2.6 1 .4 1.9.8 2.8 1.3 4.3 2.5 5.9 6.4 4.9 11.8-.4 2.2-.9 4.4-1.1 6.6-.2 2.4.6 3.5 3 3.9 3.2.5 6.4.5 9.6.9s6.5 1 9.7 1.8c1.3.4 2.5 1 3.5 1.8 3.2 2 3.3 4 .6 6.8zm-22.4 9.9c-.7-.4-1.4-.8-2-1.3-1.4-1.4-3.1-1.4-4.8-1.1-1 .2-1.9.5-2.9.7-2.1.6-4.3-.7-4.9-2.9-.1-.4-.2-.9-.1-1.3.2-1.7.6-3.3 1-4.9.3-1.7.8-3.5.5-5.1-.6-3.6-3.3-5.5-6.3-7-2.1-1-4.5-1-6.6.1-3.5 1.7-6 4.9-6.7 8.8-.6 3-1 6-1.5 9.1-.3 1.6-.9 3.1-2.5 3.8-2.6 1.2-5.6.9-7.9-.9-2.3-1.7-2.9-4.2-2.2-6.9.5-1.9 1.1-3.8 1.7-5.7.9-2.7.9-5.5.1-8.2-1.7-6.1-6.9-10.3-12.6-10-3.5.1-6.9 1.1-9.9 2.8-4 2.3-6.5 5.5-6 10.4v.9c-.2 4.1-1.8 6.1-5.7 7-5.3 1.3-10.3.7-14.7-3-1.1-1.1-2.6-1.7-4.1-1.8-4 0-7.2-1.9-10-4.6-1.9-1.7-2.8-4.2-2.6-6.7.1-1.4.3-2.9.5-4.3.4-2.4-.5-4.7-2.4-6.2-2.9-2.5-7.1-2.7-10.2-.5-3.1 2-5.2 4.8-7.2 7.8-1.8 2.4-2.5 5.5-1.9 8.4.6 2.4-.3 3.9-2.6 4.8-1.6.7-3.3 1.1-4.9 1.7-1.6.4-2.9 1.5-3.4 3.1-.5 2-2.2 3.4-4.3 3.5-4.6.5-9.3.9-13.9.9-16.6.1-33.2-.1-49.7 1.3-3.2.3-6.4.9-9.7 1.5-.9.2-1.7.6-2.5 1v.6c1.2.5 2.3.9 3.5 1.2 7.1 1.7 14.4 1.1 21.6.8 5.2-.3 10.4-.7 15.6-1 .7 0 1.4 0 2 .2.4.2 1 .7 1 1-.1.5-.4 1-.8 1.2-1.2.6-2.5 1-3.7 1.4l-2.1.9c.5.3 1.1.5 1.6.5 6.7-.2 13.5-.4 20.2-.7 8.1-.4 16.2-.9 24.3-1.4 6.3-.4 12.5-.8 18.8-1 3.4-.1 6.7-.1 10.1-.1 1.3-.1 2.6.6 3.2 1.9 1.2 3.1 3.8 4.2 6.6 5 4 1 8.1.8 12-.5 4.6-1.4 9-3.3 13.5-5 2.4-1 5-1.3 7.6-1 3.4.5 6.6 1.4 8.6 4.7.8 1.1 1.9 2 3.1 2.6 4.3 2.3 9.1 3.5 14 3.6 6.4.1 12.9 0 19.3-.3 3.4-.3 6.9-.9 10.2-1.8 1.4-.4 2.6-1.2 3.5-2.2.6-1 1.7-1.6 2.9-1.7 2.8.2 5.3-1.5 6.3-4.1zm1.8-1.3.3-.4c-.9-1.5-.2-2.6.8-3.5 1.2-1.2 2.5-2.2 3.7-3.4.9-.9 1.7-2 1.1-3.5-.4-1-2.1-1.6-3.7-1.2-1.6.4-3.1 1.1-4.5 1.9-1.8 1.2-4.1 1.3-5.9.2-1.9-1-2.4-2.7-2.2-4.8.1-1.4.2-2.8.1-4.1-.3-2.6-2.1-3.8-4.3-4.9s-2.7-2.8-1.4-4.9c.5-.7 1-1.4 1.7-2.1 2.4-2.7 1.8-5.7-1.5-7.3-2.4-1.2-5.3-1-7.5.6-3.4 2.3-6.9 2-10.1.2-2.9-1.7-6.4-1.9-9.6-.8-1.4.6-3.1 0-3.9-1.2-1-1.2-1.9-2.6-2.6-3.9-2.2-3.8-5.4-6-9.9-6.2-1.7-.1-3.3 0-5 .3-4.1.7-7.5 2.5-8.9 6.9-1.3 4.1-1.6 4.3-5.8 3-3.9-1.1-6.6.3-7.5 4.2-.3 1.9-.5 3.9-.6 5.9 0 2.2-1.8 4-4 4-5.1.4-8.6-3.1-7.8-8.3.6-3.8 1.7-7.5 2.7-11.2 1.2-4.7.2-7.6-4-10.2-.9-.6-1.9-1.1-2.9-1.5-7.9-3.1-20.2-1.2-25.3 10-3.2 7-3.1 7.5-10.7 11.8-6.3 3.6-9 9.6-8.8 16.9.1 1.8 1.1 3.4 2.6 4.3 1.2-1.8 3-2.5 5-3 1.3-.4 2.5-.8 3.8-1.4 1.1-.4 1.7-1.5 1.5-2.6-.1-.8-.2-1.7-.3-2.5-.1-1.3 0-2.5.4-3.8 2.2-4.9 5.2-9.2 9.9-12.1 3.5-2.2 7-2 10.5.2 3.3 2.1 4.3 5.1 3.6 8.8-.4 2.3-.9 4.8.5 6.9 2.2 3.4 5.2 5.6 9.3 5.9 2.4.1 4.7.9 6.5 2.5 3.4 3 7.5 3.6 11.9 2.8 4.5-.8 5.9-2.5 5.9-7.1v-.9c-.1-3.1 1.1-6 3.5-8 3-2.7 6.8-4.5 10.8-5.2 8-1.6 15.9 3.5 17.5 11.6.4 1.8.4 3.6.1 5.4-.4 2.7-1.5 5.2-2.1 7.9-.3 1.2-.3 2.5 0 3.8.7 2.4 3.1 3.5 6 3.3 2.2-.2 3.1-1 3.6-4 .3-1.8.5-3.6.8-5.4.7-3.8 1.6-7.5 4.6-10.2 2.6-2.4 5.5-4.1 9.2-3.4 7.3 1.5 10.9 7.5 8.8 14.6-.1.5-.3.9-.4 1.4-.3.9-.4 1.9-.5 2.9-.1 1.5 1 2.7 2.4 2.9.3 0 .6 0 .9-.1 1-.2 2-.5 3-.7 2-.5 4.1-.1 5.7 1.3 1 .7 2 1.1 3 1.4zm1-1.8c1 .5 1.7 1.1 2.3 1.1 4-.2 7.9-.6 11.8-.9 7-.5 14-1.1 21-1.4 10.8-.4 21.6-.7 32.4-1 .7-.1 1.4-.1 2-.3-2.5-.4-5-.7-7.6-.8-10.3-.5-20.6-.8-30.9-1.3-3.9-.2-7.7-.5-11.5-.9-.7-.1-1.3-.9-2-1.3.4-.6.8-1.2 1.4-1.8 1.4-1.1 1.6-1.9.3-3-1.1-1.1-2.4-1.9-3.9-2.3-3.4-.8-7-1.4-10.5-1.9-3-.4-6-.4-9-.9-3.3-.6-4.6-2.8-4.2-6.1.3-2.1.8-4.3 1.2-6.4 1-5-.7-8.3-5.3-10.6-1-.5-2.1-.9-3.2-1.3-6.8-2.1-14-2-20.7.2-1.7.6-3.3 1.4-4.8 2.2 2.1.5 4.1.6 5.8 1.5 3.7 1.7 7 2.4 10.8 0 2.8-1.8 6.4-1.8 9.1.1 2.7 1.5 3.7 4.8 2.2 7.5-.2.4-.5.8-.9 1.2-.5.5-1 1-1.4 1.5-1.3 1.7-1.1 2.9.8 3.7 2.6 1.2 4.4 3 4.7 6 .1 1.5.1 3-.1 4.5-.3 1.7.9 3.3 2.6 3.6 1.3.4 2.3-.1 3.4-.6 1.8-.9 3.8-1.6 5.8-2.1 1.8-.5 3.6.4 4.5 2 .9 1.7.2 3.3-.9 4.6-.8.8-1.6 1.6-2.5 2.3-.6 1-1.5 1.8-2.7 2.9z"/><path class="st3" d="M389.8 411.5c-1 2.6-3.5 4.3-6.3 4.2-1.2.1-2.3.7-2.9 1.7-.9 1.1-2.2 1.9-3.5 2.2-3.3.9-6.8 1.5-10.2 1.8-6.4.4-12.9.5-19.3.3-4.9 0-9.7-1.3-14-3.6-1.3-.6-2.3-1.5-3.1-2.6-2-3.4-5.2-4.2-8.6-4.7-2.6-.3-5.2 0-7.6 1-4.5 1.7-8.9 3.5-13.5 5-3.9 1.3-8 1.5-12 .5-2.8-.8-5.4-1.9-6.6-5-.5-1.2-1.8-2-3.2-1.9-3.4 0-6.7 0-10.1.1-6.3.3-12.5.7-18.8 1-8.1.5-16.2 1-24.3 1.4-6.7.3-13.5.5-20.2.7-.6 0-1.2-.2-1.6-.5l2.1-.9c1.2-.5 2.5-.9 3.7-1.4.5-.3.8-.7.8-1.2 0-.4-.6-.9-1-1-.6-.2-1.3-.3-2-.2-5.2.3-10.4.8-15.6 1-7.2.4-14.4 1-21.6-.8-1.2-.4-2.4-.8-3.5-1.2v-.6c.8-.4 1.6-.8 2.5-1 3.2-.6 6.4-1.2 9.7-1.5 16.6-1.4 33.1-1.2 49.7-1.3 4.6 0 9.3-.5 13.9-.9 2.1-.1 3.8-1.5 4.3-3.5.5-1.5 1.8-2.7 3.4-3.1 1.6-.5 3.3-1 4.9-1.7 2.3-1 3.2-2.4 2.6-4.8-.7-2.9 0-6 1.9-8.4 2-3 4.1-5.8 7.2-7.8 3.1-2.2 7.3-2 10.2.5 1.9 1.4 2.9 3.8 2.4 6.2-.2 1.4-.4 2.8-.5 4.3-.2 2.5.7 5 2.6 6.7 2.8 2.7 6 4.6 10 4.6 1.5.1 3 .7 4.1 1.8 4.3 3.7 9.3 4.3 14.7 3 4-1 5.5-3 5.7-7v-.9c-.5-4.9 2.1-8 6-10.4 3-1.7 6.4-2.7 9.9-2.8 5.7-.2 10.9 3.9 12.6 10 .8 2.7.7 5.5-.1 8.2-.6 1.9-1.3 3.8-1.7 5.7-.6 2.7-.1 5.2 2.2 6.9 2.2 1.8 5.3 2.1 7.9.9 1.6-.7 2.2-2.2 2.5-3.8.5-3 .9-6.1 1.5-9.1.7-3.8 3.2-7.1 6.7-8.8 2-1.1 4.5-1.2 6.6-.1 3 1.4 5.8 3.4 6.3 7 .3 1.6-.3 3.4-.5 5.1-.4 1.6-.8 3.3-1 4.9-.2 2.2 1.5 4.1 3.7 4.3.4 0 .9 0 1.3-.1 1-.2 1.9-.5 2.9-.7 1.8-.4 3.4-.3 4.8 1.1.6.3 1.3.8 2 1.2z"/><path class="st3" d="M391.6 410.2c-1-.3-2-.7-2.9-1.3-1.6-1.3-3.7-1.8-5.7-1.3-1 .2-2 .5-3 .7-1.4.4-2.9-.4-3.2-1.8-.1-.3-.1-.6-.1-.9.1-1 .3-2 .5-2.9.1-.5.3-1 .4-1.4 2.1-7.1-1.5-13.1-8.8-14.6-3.7-.8-6.6 1-9.2 3.4-3 2.7-3.9 6.5-4.6 10.2-.3 1.8-.5 3.6-.8 5.4-.5 2.9-1.4 3.8-3.6 4-2.9.2-5.3-1-6-3.3-.3-1.2-.3-2.5 0-3.8.6-2.6 1.7-5.2 2.1-7.9 1.4-8.1-4.1-15.7-12.2-17.1-1.8-.3-3.6-.3-5.4.1-4 .6-7.8 2.4-10.8 5.2-2.3 2-3.6 4.9-3.5 8v.9c0 4.6-1.4 6.3-5.9 7.1-4.3.8-8.4.1-11.9-2.8-1.8-1.5-4.1-2.4-6.5-2.5-4.1-.3-7.1-2.5-9.3-5.9-1.4-2.2-.9-4.6-.5-6.9.6-3.8-.4-6.7-3.6-8.8-3.5-2.2-7-2.4-10.5-.2-4.6 2.9-7.7 7.2-9.9 12.1-.4 1.2-.5 2.5-.4 3.8 0 .8.1 1.7.3 2.5.2 1.1-.5 2.2-1.5 2.6-1.2.5-2.5 1-3.8 1.4-1.9.5-3.8 1.2-5 3-1.6-.8-2.6-2.5-2.6-4.2-.3-7.3 2.5-13.3 8.8-16.9 7.6-4.4 7.5-4.8 10.7-11.8 5.1-11.3 17.4-13.2 25.3-10 1 .4 2 .9 2.9 1.5 4.2 2.6 5.2 5.5 4 10.2-1 3.7-2.1 7.5-2.7 11.2-.9 5.2 2.6 8.7 7.8 8.3 2.2 0 4-1.8 4-4 .1-2 .3-3.9.6-5.9.9-3.9 3.6-5.4 7.5-4.2 4.2 1.2 4.5 1.1 5.8-3 1.4-4.3 4.8-6.1 8.9-6.9 1.7-.3 3.3-.4 5-.3 4.4.2 7.6 2.4 9.9 6.2.8 1.4 1.7 2.7 2.6 3.9.8 1.3 2.5 1.8 3.9 1.2 3.1-1.2 6.7-.9 9.6.8 3.2 1.8 6.7 2.1 10.1-.2 2.2-1.6 5.1-1.8 7.5-.6 3.2 1.5 3.8 4.6 1.5 7.3-.6.6-1.2 1.3-1.7 2.1-1.2 2.1-.7 3.9 1.4 4.9s4 2.3 4.3 4.9c.1 1.4.1 2.8-.1 4.1-.2 2 .3 3.7 2.2 4.8 1.8 1.1 4.1 1 5.9-.2 1.4-.8 2.9-1.4 4.5-1.9s3.3.2 3.7 1.2c.5 1.4-.2 2.5-1.1 3.5-1.2 1.2-2.5 2.2-3.7 3.4-1 1-1.8 2-.8 3.5l-.4.1z"/><path class="st3" d="M392.6 408.4c1.2-1.1 2-1.9 2.9-2.7.9-.7 1.7-1.5 2.5-2.3 1.1-1.4 1.8-2.9.9-4.6-.8-1.6-2.7-2.5-4.5-2a31 31 0 0 0-5.8 2.1c-1.1.5-2.1 1.1-3.4.6-1.7-.3-2.8-1.9-2.6-3.6.1-1.5.2-3 .1-4.5-.3-2.9-2.1-4.8-4.7-6-2-.9-2.1-2-.8-3.7.4-.5.9-1 1.4-1.5 2.1-2.2 2.1-5.7-.1-7.8l-1.2-.9c-2.7-1.9-6.4-2-9.1-.1-3.7 2.4-7.1 1.7-10.8 0-1.7-.8-3.7-1-5.8-1.5 1.6-.8 3.2-1.5 4.8-2.2 6.7-2.2 14-2.3 20.7-.2 1.1.3 2.1.8 3.2 1.3 4.6 2.2 6.2 5.5 5.3 10.6-.4 2.1-.9 4.3-1.2 6.4-.5 3.3.9 5.5 4.2 6.1 3 .5 6 .5 9 .9 3.5.5 7 1 10.5 1.9 1.5.5 2.8 1.3 3.9 2.3 1.3 1.1 1 2-.3 3-.5.5-1 1.1-1.4 1.8.7.5 1.3 1.2 2 1.3 3.8.4 7.7.7 11.5.9 10.3.5 20.6.9 30.9 1.3 2.5.1 5.1.4 7.6.8-.7.1-1.4.2-2 .3-10.8.3-21.6.5-32.4 1-7 .3-14 .9-21 1.4-3.9.3-7.9.7-11.8.9-.8-.2-1.4-.8-2.5-1.3z"/><path class="st2" d="M189.6 293.5c-.9 1.9-1.6 3.6-2.5 5.2-.9 2-2.5 3.6-4.5 4.5-2.6 1.1-3.9.1-3.8-2.7 0-.6.1-1.2.2-1.9-1.1.9-2.2 1.7-3.4 2.4-1.5.8-3.1 1.5-4.7 2-1 .4-2.2-.2-2.5-1.2-.2-.6-.1-1.2.2-1.8.5-1 1.1-1.9 1.9-2.6.7-.8 1.5-1.4 2.5-2.4-1.2.4-2.4.7-3.7.9-1.1.2-2.3.2-3.4 0-2-.4-2.3-1.6-.9-3l.4-.4c-3-2-3-2.7 0-5.1-.7-.3-1.4-.7-2-1.1-.5-.5-1.1-1.3-1-1.8.3-.7.8-1.3 1.5-1.6 1-.3 2-.6 3.1-.8-.9-1.2-1.8-2.4-2.7-3.7-.7-1.1-1.2-2.2-.4-3.4.8-1.1 2.1-1.6 3.4-1.3.9.1 1.7.3 2.6.6-.3-1.9 0-3.6 1.9-4.4 2.8-1.2 4.5.9 6.1 2.3.4-1.5.4-3.2 1.2-4.3 1.2-1.5 2.8-.5 3.8.2.9-.9 2-1.8 3.1-2.5 1.6-.8 2.7-.2 3.5 1.5.3.6.5 1.3.6 2 .2.6.2 1.2.4 2.2.7-1.2 1.3-2.3 2-3.2.9-1.3 1.9-2.4 3.7-2.4 1.4-.1 2.7 1 2.8 2.4v.2c0 .7 0 1.4-.1 2.1-.1.6-.3 1.3-.6 1.9 1.7-.6 3.3-1.3 5-1.8 1.1-.5 2.5-.1 3.2.9.8 1.1.3 2.2-.3 3.2-.8 1.2-1.7 2.4-2.5 3.5 1.3-.1 2.7-.4 4.1-.4s2.6.3 3 1.7-.5 2.3-1.4 3c-1.2.7-2.4 1.4-3.7 1.9l1.3.8c1.2.7 2.1 1.6 1.9 3.1s-1.4 2.1-2.8 2.3c-3.6.6-7.3.1-10.6-1.3-.1 0-.3-.1-.4-.1.9 1.3 1.7 2.7 2.4 4.1.5 1.2.8 2.5.9 3.8.1 2.5-2.1 3.9-4.2 2.5-1.3-1-2.5-2.2-3.4-3.6-.5-.9-.9-1.6-1.2-2.4zm-3.8-3.5c1.3-.5 2.5-1 3.7-1.7.9-.7 1.7-1.6 2.4-2.6 1.7-2.2.6-4.4-2.1-5.1-2.9-.7-5.3.3-7.7 1.4-1.6.8-2.6 2.5-2.5 4.2.1.9.5 1.7 1.3 2.2 1.6.7 3.2 1.2 4.9 1.6zm6.4-10.1 1.8 2.1c2.9-1.8 5.8-3.5 8.6-5.5 1.1-.9 1.9-2 2.6-3.2.8-1.3.3-2-1.2-1.8-1.3.1-2.5.5-3.6 1.3-2.8 2.2-5.4 4.7-8.2 7.1zm-13.3 3.9c-1-1.1-1.8-2.1-2.7-3-2.2-2.1-4.5-4.2-7.5-5.2-.9-.3-1.9-.4-2.9-.2-.3 0-.9 1.1-.7 1.4 1.4 2.6 3 5.1 6.4 5.4 1.2.2 2.3.4 3.5.7l3.9.9zm1-1.8c.2-.2.4-.4.7-.6 1.4-.6 1.3-1.6.6-2.6-1.3-1.8-2.6-3.5-4.1-5.2-.9-1-1.9-1.8-3.1-2.5-.7-.2-1.5-.1-2.1.3-.4.7-.5 1.5-.3 2.3.3.8.9 1.5 1.6 2.1 2.1 2.2 4.4 4.2 6.7 6.2zm8.9-3c0-3.2.1-6.4 0-9.6-.1-1.1-.2-2.5-1.8-2.7-1.2-.1-2.3 1.1-2.6 2.8-.1.6-.1 1.3-.1 1.9.2 1.7.4 3.4.7 5.1.5 2.8.5 2.8 3.8 2.5zm0 11.5c-1.6.4-3 .3-3.6.9-2.3 2.3-4 5.1-4.8 8.2-.1.8 0 1.7.2 2.5.9-.1 1.7-.3 2.5-.7 3.2-2.7 4.5-6.4 5.7-10.9zm1-11.4.3.5c.6-.2 1.1-.5 1.6-.8 1.1-.9 2-1.9 2.8-3.1 1.2-2.1 2.2-4.4 3.1-6.7.1-.7-.2-1.5-.7-2-.7-.2-1.5-.1-2.1.3-.6.5-1.1 1.1-1.5 1.8-2.1 3.1-2.7 6.6-3.5 10zm3.4 7 .2.6c3.6 1.8 7.6 2.5 11.6 2.2.9-.3 1.7-.7 2.4-1.2-.5-.7-1.1-1.4-1.8-1.9-3.3-1.8-6.9-1.4-10.4-.7-.7.2-1.4.5-2 1zm-24 15.3c3.6 1 11.9-5.6 14.1-10.8-.7.1-1.3.3-1.9.6-1.7 1-3.4 2-5 3.2-2 1.5-3.9 3.1-5.7 4.7-.6.7-1.1 1.5-1.5 2.3zm23.2-13.4c-.7.5-1.3 1-1.9 1.5-.2.2-.5.7-.4 1 .9 2.2 2 4.3 3.2 6.3.6 1 1.7 2.2 3 1.4s.8-2.4.2-3.5c-1.1-2.3-2.6-4.5-4.1-6.7zm1.7-4.4c2.4-.2 4.5-.3 6.7-.6s4.4-.8 6.6-1.5c.8-.3 1.4-1.3 2.1-2-.9-.4-1.8-.6-2.7-.6-4.3.6-8.5 2-12.2 4.2-.2.1-.3.2-.5.5zm-28.9 10.5c2.8 1.2 11.9-1.5 15.1-4.2-.3-.9-1.2-1.4-2.1-1.1-.1 0-.2.1-.3.1-3 1.1-6.1 2-9.1 3.1-1.3.7-2.5 1.3-3.6 2.1zm-1.3-10v.8c4.5 2 9.4 1.6 14.4 1.8-.1-.7-.3-1.7-.7-1.7-3-.7-6-1.2-9-1.5-1.6-.2-3.2.4-4.7.6zm20.2-4.3c-.4-3.2-.9-6.2-1.2-9.2-.1-1.1-1-2-2.1-2.1-.4-.1-1.2.6-1.2.9.1 1.9.4 3.7 1 5.5.8 1.8 1.8 3.5 2.9 5.1l.6-.2zm-10.2 8.7v-.3c-1.4-.2-2.8-.3-4.2-.3-1.3.1-2.7.3-3.9.8-.5.2-.8.9-1.2 1.4.8.4 1.8 1.3 2.5 1.1 2.3-.6 4.5-1.7 6.8-2.7z"/><path class="st3" d="M185.8 290c-1.7-.4-3.3-.9-4.9-1.5-.8-.5-1.2-1.3-1.3-2.2 0-1.8.9-3.4 2.5-4.2 2.4-1 4.8-2.1 7.7-1.4 2.6.6 3.8 2.9 2.1 5.1-.7 1-1.5 1.8-2.4 2.6-1.2.6-2.4 1.1-3.7 1.6zM192.2 279.9c2.7-2.4 5.3-4.9 8.1-7.1 1.1-.7 2.3-1.1 3.6-1.3 1.5-.2 2 .5 1.2 1.8-.6 1.2-1.5 2.3-2.6 3.2-2.8 2-5.7 3.7-8.6 5.5l-1.7-2.1zM178.9 283.8l-4-.9c-1.1-.3-2.3-.6-3.5-.7-3.4-.3-5-2.8-6.4-5.4-.1-.3.4-1.4.7-1.4 1-.1 1.9 0 2.9.2 3 1 5.3 3 7.5 5.2 1.1.9 1.8 1.9 2.8 3zM179.9 282c-2.3-2.1-4.6-4-6.8-6.1-.7-.6-1.2-1.3-1.6-2.1-.2-.8-.1-1.6.3-2.3.6-.5 1.4-.6 2.1-.3 1.2.6 2.2 1.5 3.1 2.5 1.5 1.6 2.8 3.4 4.1 5.2.7 1 .8 2-.6 2.6-.2.1-.4.3-.6.5zM188.8 279c-3.3.3-3.3.3-3.8-2.4-.3-1.7-.5-3.4-.7-5.1-.1-.6 0-1.3.1-1.9.2-1.7 1.3-2.9 2.6-2.8 1.6.1 1.8 1.6 1.8 2.7.1 3.1 0 6.3 0 9.5zM188.8 290.5c-1.1 4.5-2.5 8.2-5.8 10.9-.8.4-1.6.6-2.5.7-.2-.8-.2-1.7-.2-2.5.9-3.1 2.5-5.9 4.8-8.2.7-.6 2.1-.5 3.7-.9zM189.8 279.1c.9-3.4 1.4-6.9 3.4-10 .4-.7.9-1.3 1.5-1.8.6-.4 1.4-.5 2.1-.3.6.5.9 1.3.7 2-.9 2.3-1.9 4.5-3.1 6.7-.8 1.2-1.7 2.2-2.8 3.1-.5.3-1 .6-1.6.8l-.2-.5zM193.2 286.1c.6-.4 1.3-.8 2-1 3.5-.6 7.1-1.1 10.4.7.7.5 1.3 1.2 1.8 1.9-.7.5-1.5 1-2.4 1.2-4 .3-8-.4-11.6-2.2l-.2-.6zM169.2 301.4c.4-.8.9-1.6 1.4-2.3 1.8-1.7 3.7-3.2 5.7-4.7 1.6-1.1 3.3-2.2 5-3.2.6-.3 1.3-.5 1.9-.6-2 5.3-10.4 11.8-14 10.8zM192.4 288c1.4 2.3 2.9 4.4 4.2 6.7.6 1.1 1.1 2.7-.2 3.5s-2.4-.4-3-1.4c-1.2-2.1-2.2-4.2-3.2-6.3-.1-.2.1-.7.4-1 .5-.6 1.2-1.1 1.8-1.5zM194.1 283.6c.2-.3.2-.4.4-.5 3.8-2.2 7.9-3.6 12.2-4.2.9.1 1.9.3 2.7.6-.7.7-1.2 1.8-2.1 2-2.2.7-4.4 1.1-6.6 1.5-2.1.3-4.2.4-6.6.6zM165.2 294.1c1.1-.8 2.3-1.4 3.6-2 3-1.1 6.1-2.1 9.1-3.1.8-.4 1.9-.1 2.3.7 0 .1.1.2.1.3-3.2 2.6-12.3 5.4-15.1 4.1zM163.9 284.2c1.6-.2 3.2-.8 4.7-.7 3 .3 6 .8 9 1.5.4.1.6 1 .7 1.7-4.9-.1-9.8.2-14.4-1.8v-.7zM184.1 279.9l-.7.2c-1.1-1.6-2.1-3.3-2.9-5.1-.6-1.8-.9-3.7-1-5.5 0-.3.8-1 1.2-.9 1.1.1 2 1 2.1 2.1.5 2.9.9 5.9 1.3 9.2zM173.9 288.5c-2.3.9-4.5 2-6.8 2.7-.7.2-1.6-.7-2.5-1.1.4-.5.7-1.3 1.2-1.4 1.3-.4 2.6-.7 3.9-.8 1.4 0 2.8.1 4.2.3v.3zM371.6 196c0-1.7-1.4-3.2-3.1-3.2h-.3c-2.5 0-3.7 1.2-3.9 3.6 0 1.9 1.5 3.5 3.4 3.6 2.2-.1 3.9-1.8 3.9-4z"/><path class="st2" d="M372.1 195.9c0 2.5-1.9 4.5-4.4 4.6-2.2 0-4-1.8-4-4v-.1c.2-2.7 1.7-4.1 4.5-4.1 2-.2 3.7 1.3 3.9 3.3v.3zm-4-2.2c-2 .2-2.9.9-3 2.8 0 1.5 1.3 2.7 2.8 2.8 1.5 0 3-1.6 3-3.4-.2-1.4-1.4-2.3-2.8-2.2z"/><path class="st4" d="M141.4 209.8c0-1.7-1.4-3.1-3.1-3.2h-.3c-2.5 0-3.7 1.2-3.9 3.6 0 1.9 1.5 3.5 3.4 3.6h.1c2.1-.1 3.8-1.9 3.8-4z"/><path class="st2" d="M142 209.7c0 2.5-1.9 4.5-4.4 4.6-2.2 0-4-1.8-4-4v-.1c.2-2.7 1.7-4.1 4.5-4.1 2-.2 3.7 1.3 3.9 3.3v.3zm-4-2.2c-2 .2-2.9.9-3 2.8 0 1.5 1.3 2.7 2.8 2.8 1.5 0 3-1.6 2.9-3.4-.1-1.4-1.4-2.4-2.7-2.2 0 0-.1 0 0 0z"/><path class="st3" d="M137.9 207.5c1.3-.1 2.5.8 2.7 2.2 0 1.8-1.4 3.4-2.9 3.4s-2.7-1.3-2.8-2.8c.1-1.9 1-2.6 3-2.8zM163.1 216.2c.1-2.7-2.1-4.7-5.1-4.7-3.7 0-5.5 1.8-5.9 5.4-.3 2.8 2.3 5.3 5.2 5.3 3.3-.1 5.9-2.8 5.8-6z"/><path class="st2" d="M163.9 216.1c-.1 3.8-3 6.9-6.6 6.9-3.3-.1-6.2-2.9-6-6.1.4-4.1 2.5-6.1 6.7-6.1 3.5-.1 6 2.3 5.9 5.3zm-6-3.9c-3.4.4-5 1.6-5.2 4.7-.2 2.4 2.2 4.7 4.7 4.7s5-2.7 5-5.8c.1-1.9-1.9-3.5-4.5-3.6z"/><path class="st3" d="M376.2 211.1c.1-2.8-2.1-4.8-5.2-4.8-3.8 0-5.7 1.9-6 5.5-.3 2.9 2.4 5.4 5.4 5.5 3.3-.1 5.9-2.8 5.8-6.2z"/><path class="st2" d="M376.9 211.1c-.1 3.8-3 6.9-6.5 6.8-3.3-.1-6.2-2.9-6-6.1.4-4.1 2.5-6.1 6.7-6.1 3.4 0 5.8 2.3 5.8 5.4zm-6-3.9c-3.4.3-5 1.6-5.2 4.7-.2 2.4 2.2 4.7 4.7 4.7s5-2.7 5-5.8c.1-1.9-1.9-3.6-4.5-3.6z"/><path class="st3" d="M130.8 236c2.8 0 5 1.8 5 4 0 3.4-2.6 6.4-5.5 6.3s-5.3-2.5-5.2-5.2c.2-3.4 1.9-4.7 5.7-5.1z"/><path class="st2" d="M136.7 240.3c-.1 3.8-3 6.9-6.5 6.8-3.3-.1-6.2-2.9-5.9-6.1.4-4.1 2.5-6.1 6.7-6.1 3.3 0 5.7 2.3 5.7 5.4zm-6-3.9c-3.4.3-5 1.6-5.2 4.7-.2 2.4 2.2 4.7 4.7 4.8s5-2.7 5-5.8c.1-2-1.9-3.6-4.5-3.7z"/></svg>