<svg version="1.1" id="Layer_1" xmlns="http://www.w3.org/2000/svg" x="0" y="0" viewBox="0 0 565.8 382.8" style="enable-background:new 0 0 565.8 382.8" xml:space="preserve"><style>.st1{fill:#fff}</style><path d="M21.4 329.8V89l15.4 12.8v15h14.9v18.8h32.7v-15h4.9v14.9h4.5V96.9h4.5v38.9h7.2v-28.6l4.6-1.2v29.8h2.7v82.8l7.6-2.7v-8.4h8.7v-6.3H170l-2.5 6.9h8.2v6.3l5.8 1.1V51.9h85.3v112h28.6v-15.1h3.8V164h4.4v-32.8h4.7v33.2h5.2v-25h4.5v25.3h3.2v12.9h8.7v-10.4h11.4v-8.8h58.3v10.2h12.8v8.4h9v-60h12.9v-14.4l33.8-27.8 34 27.5v14.2l14.2.6v40.1l8-8.1v-23.4l14-14.4 6.1-.3v218.8z" style="opacity:5.000000e-02"/><path class="st1" d="M132.3 214.9h15.6v27.8h-15.6z"/><path d="M148.8 243.7h-17.4V214h17.4v29.7zm-15.6-1.8H147v-26.1h-13.8v26.1z"/><path class="st1" d="M138.2 204.9h9.7v10h-9.7z"/><path d="M148.8 215.8h-11.4V204h11.4v11.8zm-9.7-1.8h7.9v-8.2h-7.9v8.2z"/><path class="st1" d="M36.2 258.8h34.2v71H36.2z"/><path d="M71.3 330.7h-36v-72.8h36v72.8zm-34.2-1.8h32.5v-69.2H37.1v69.2z"/><path class="st1" d="M21.4 329.8h523"/><path d="M21.4 328.9h522.9v1.8H21.4z"/><path class="st1" d="M70.5 213.3h41v116.6h-41z"/><path d="M112.4 330.7H69.6V212.4h42.8v118.3zm-41.1-1.8h39.2V214.1H71.3v114.8z"/><path class="st1" d="M50.8 233.6h19.6v25.2H50.8z"/><path d="M71.3 259.7H49.9v-27h21.4v27zm-19.6-1.8h17.8v-23.4H51.7v23.4z"/><path class="st1" d="m111.5 246.2 36.4-11.8v95.4h-36.4z"/><path d="M148.8 330.7h-38.2v-85.1l38.2-12.4v97.5zm-36.4-1.8H147v-93.3l-34.6 11.2v82.1z"/><path class="st1" d="M147.9 260.2h74.3v69.6h-74.3z"/><path d="M223 330.7h-76v-71.4h76v71.4zm-74.2-1.8h72.5v-67.8h-72.5v67.8z"/><path class="st1" d="M164.3 235.6h48.3v17.1h-48.3z"/><path d="M213.5 253.6h-50.1v-18.9h50.1v18.9zm-48.3-1.8h46.5v-15.3h-46.5v15.3z"/><path class="st1" d="M170.1 252.7h36.6v7.5h-36.6z"/><path d="M207.6 261.1h-38.4v-9.3h38.4v9.3zm-36.6-1.8h34.8v-5.7H171v5.7z"/><path class="st1" d="M244.8 207.9h29v122h-29z"/><path d="M274.6 330.7h-30.7V207h30.7v123.7zm-28.9-1.8h27.2V208.8h-27.2v120.1z"/><path class="st1" d="M281.5 274.3h39.8v55.6h-39.8z"/><path d="M322.2 330.7h-41.6v-57.3h41.6v57.3zm-39.8-1.8h38v-53.8h-38v53.8z"/><path class="st1" d="M275.9 268.3h49.8v6h-49.8z"/><path d="M326.6 275.2H275v-7.8h51.6v7.8zm-49.8-1.8h48.1v-4.2h-48.1v4.2z"/><path class="st1" d="M297.1 222h24.2v46.3h-24.2z"/><path d="M322.2 269.2h-26v-48.1h26v48.1zm-24.2-1.8h22.4v-44.5H298v44.5z"/><path class="st1" d="M281.5 268.3v-24.2l39.8 19.3v4.9z"/><path d="M322.2 269.2h-41.6v-26.5l41.6 20.1v6.4zm-39.8-1.8h38v-3.5l-38-18.4v21.9z"/><path class="st1" d="M321.3 286h86.9v13.1h-86.9z"/><path d="M409.1 300h-88.7v-14.9h88.7V300zm-86.9-1.8h85.1v-11.3h-85.1v11.3z"/><path class="st1" d="M325.7 299.1h82.5v30.8h-82.5z"/><path d="M409.1 330.7h-84.3v-32.6h84.3v32.6zm-82.5-1.8h80.7v-29h-80.7v29z"/><path class="st1" d="M364.8 250.1h34.1V286h-34.1z"/><path d="M399.8 286.9h-35.9v-37.7h35.9v37.7zm-34.1-1.8H398V251h-32.3v34.1z"/><path class="st1" d="M456 263.7h19v-14.3l21.6-15.8v96.2H456"/><path d="M497.5 330.7H456v-1.8h39.7v-93.5l-19.8 14.4v14.8H456v-1.8h18.2v-13.9l23.3-17z"/><path class="st1" d="M496.6 233.6h20.7v25.7h-20.7z"/><path d="M518.3 260.2h-22.5v-27.5h22.5v27.5zm-20.8-1.8h19v-23.9h-19v23.9z"/><path class="st1" d="M496.6 259.3h35.1v70.5h-35.1z"/><path d="M532.6 330.7h-36.9v-72.3h36.9v72.3zm-35.1-1.8h33.3v-68.7h-33.3v68.7z"/><path class="st1" d="M44.6 268.5h9.6v9.5h-9.6z"/><path d="M55.1 278.9H43.7v-11.2h11.4v11.2zm-9.6-1.8h7.8v-7.7h-7.8v7.7z"/><path class="st1" d="M54.2 268.5h9.6v9.5h-9.6z"/><path d="M64.7 278.9H53.3v-11.2h11.4v11.2zm-9.6-1.8H63v-7.7h-7.8v7.7z"/><path class="st1" d="M44.6 286.4h9.6v9.5h-9.6z"/><path d="M55.1 296.8H43.7v-11.2h11.4v11.2zm-9.6-1.8h7.8v-7.7h-7.8v7.7z"/><path class="st1" d="M54.2 286.4h9.6v9.5h-9.6z"/><path d="M64.7 296.8H53.3v-11.2h11.4v11.2zm-9.6-1.8H63v-7.7h-7.8v7.7z"/><path class="st1" d="M44.6 302.9h9.6v9.5h-9.6z"/><path d="M55.1 313.3H43.7V302h11.4v11.3zm-9.6-1.8h7.8v-7.7h-7.8v7.7z"/><path class="st1" d="M54.2 302.9h9.6v9.5h-9.6z"/><path d="M64.7 313.3H53.3V302h11.4v11.3zm-9.6-1.8H63v-7.7h-7.8v7.7z"/><path class="st1" d="M56.3 316.8h10.4v13.1H56.3z"/><path d="M67.5 330.7H55.4v-14.9h12.2v14.9zm-10.4-1.8h8.6v-11.3h-8.6v11.3z"/><path class="st1" d="M78.7 221.2h10.4v12.4H78.7z"/><path d="M90 234.5H77.8v-14.2H90v14.2zm-10.4-1.8h8.6v-10.6h-8.6v10.6z"/><path class="st1" d="M93.8 221.2H104v12.4H93.8z"/><path d="M104.9 234.5h-12v-14.2h12v14.2zm-10.2-1.8h8.5v-10.6h-8.5v10.6z"/><path class="st1" d="M89.1 221.2h4.7v12.4h-4.7z"/><path d="M94.7 234.5h-6.4v-14.2h6.4v14.2zm-4.7-1.8h2.9v-10.6H90v10.6z"/><path class="st1" d="M78.7 244.7h10.4v12.4H78.7z"/><path d="M90 258H77.8v-14.2H90V258zm-10.4-1.8h8.6v-10.6h-8.6v10.6z"/><path class="st1" d="M93.8 244.7H104v12.4H93.8z"/><path d="M104.9 258h-12v-14.2h12V258zm-10.2-1.8h8.5v-10.6h-8.5v10.6z"/><path class="st1" d="M89.1 244.7h4.7v12.4h-4.7z"/><path d="M94.7 258h-6.4v-14.2h6.4V258zm-4.7-1.8h2.9v-10.6H90v10.6z"/><path class="st1" d="M78.7 267.9h10.4v12.4H78.7z"/><path d="M90 281.2H77.8V267H90v14.2zm-10.4-1.8h8.6v-10.6h-8.6v10.6z"/><path class="st1" d="M93.8 267.9H104v12.4H93.8z"/><path d="M104.9 281.2h-12V267h12v14.2zm-10.2-1.8h8.5v-10.6h-8.5v10.6z"/><path class="st1" d="M89.1 267.9h4.7v12.4h-4.7z"/><path d="M94.7 281.2h-6.4V267h6.4v14.2zm-4.7-1.8h2.9v-10.6H90v10.6z"/><path class="st1" d="M78.7 292h10.4v12.4H78.7z"/><path d="M90 305.3H77.8v-14.2H90v14.2zm-10.4-1.8h8.6v-10.6h-8.6v10.6z"/><path class="st1" d="M93.8 292H104v12.4H93.8z"/><path d="M104.9 305.3h-12v-14.2h12v14.2zm-10.2-1.8h8.5v-10.6h-8.5v10.6z"/><path class="st1" d="M89.1 292h4.7v12.4h-4.7z"/><path d="M94.7 305.3h-6.4v-14.2h6.4v14.2zm-4.7-1.8h2.9v-10.6H90v10.6z"/><path class="st1" d="M80.8 311.8h11.1v18H80.8z"/><path d="M92.7 330.7H79.9v-19.8h12.9v19.8zm-11.1-1.8h9.3v-16.2h-9.3v16.2z"/><path class="st1" d="M91.8 311.8h11.1v18H91.8z"/><path d="M103.8 330.7H90.9v-19.8h12.9v19.8zm-11.1-1.8h9.3v-16.2h-9.3v16.2z"/><path class="st1" d="M117.8 312.4h11.9v17.4h-11.9z"/><path d="M130.6 330.7h-13.7v-19.2h13.7v19.2zm-11.9-1.8h10.1v-15.7h-10.1v15.7z"/><path class="st1" d="M117.8 250.9h5.9v61.5h-5.9z"/><path d="M124.6 313.3h-7.7V250h7.7v63.3zm-5.9-1.8h4.2v-59.7h-4.2v59.7z"/><path class="st1" d="M123.7 250.9h5.9v61.5h-5.9z"/><path d="M130.6 313.3h-7.7V250h7.7v63.3zm-6-1.8h4.2v-59.7h-4.2v59.7z"/><path class="st1" d="M133.9 250.9h9.5v10.2h-9.5z"/><path d="M144.3 262H133v-12h11.3v12zm-9.5-1.8h7.8v-8.4h-7.8v8.4z"/><path class="st1" d="M133.9 261.1h9.5v3.3h-9.5z"/><path d="M144.3 265.3H133v-5.1h11.3v5.1zm-9.5-1.8h7.8V262h-7.8v1.5z"/><path class="st1" d="M133.9 264.4h9.5v7.4h-9.5z"/><path d="M144.3 272.7H133v-9.2h11.3v9.2zm-9.5-1.7h7.8v-5.7h-7.8v5.7z"/><path class="st1" d="M133.9 271.8h9.5v3.3h-9.5z"/><path d="M144.3 276.1H133V271h11.3v5.1zm-9.5-1.8h7.8v-1.6h-7.8v1.6z"/><path class="st1" d="M133.9 275.2h9.5v7.4h-9.5z"/><path d="M144.3 283.5H133v-9.2h11.3v9.2zm-9.5-1.8h7.8V276h-7.8v5.7z"/><path class="st1" d="M133.9 282.6h9.5v3.3h-9.5z"/><path d="M144.3 286.9H133v-5.1h11.3v5.1zm-9.5-1.8h7.8v-1.6h-7.8v1.6z"/><path class="st1" d="M133.9 286.6h9.5v7.4h-9.5z"/><path d="M144.3 294.9H133v-9.2h11.3v9.2zm-9.5-1.8h7.8v-5.7h-7.8v5.7z"/><path class="st1" d="M133.9 294h9.5v3.3h-9.5z"/><path d="M144.3 298.3H133v-5.1h11.3v5.1zm-9.5-1.8h7.8v-1.6h-7.8v1.6z"/><path class="st1" d="M133.9 297.4h9.5v12.2h-9.5z"/><path d="M144.3 310.5H133v-14h11.3v14zm-9.5-1.8h7.8v-10.4h-7.8v10.4z"/><path class="st1" d="M147.9 260.2h74.3v7.2h-74.3z"/><path d="M223 268.4h-76v-9h76v9zm-74.2-1.8h72.5v-5.5h-72.5v5.5z"/><path class="st1" d="M147.9 267.5H217v62.4h-69.1z"/><path d="M217.8 330.7H147v-64.2h70.8v64.2zm-69-1.8H216v-60.6h-67.3v60.6z"/><path class="st1" d="M153.4 274.6h9.5v10h-9.5z"/><path d="M163.7 285.5h-11.2v-11.8h11.2v11.8zm-9.4-1.8h7.7v-8.2h-7.7v8.2z"/><path class="st1" d="M169 274.6h9.5v10H169z"/><path d="M179.4 285.5h-11.2v-11.8h11.2v11.8zm-9.5-1.8h7.7v-8.2h-7.7v8.2z"/><path class="st1" d="M185.4 274.6h9.5v10h-9.5z"/><path d="M195.7 285.5h-11.2v-11.8h11.2v11.8zm-9.5-1.8h7.7v-8.2h-7.7v8.2z"/><path class="st1" d="M201.4 274.6h9.5v10h-9.5z"/><path d="M211.8 285.5h-11.2v-11.8h11.2v11.8zm-9.5-1.8h7.7v-8.2h-7.7v8.2z"/><path class="st1" d="M153.4 290.3h9.5v10h-9.5z"/><path d="M163.7 301.2h-11.2v-11.8h11.2v11.8zm-9.4-1.8h7.7v-8.2h-7.7v8.2z"/><path class="st1" d="M169 290.3h9.5v10H169z"/><path d="M179.4 301.2h-11.2v-11.8h11.2v11.8zm-9.5-1.8h7.7v-8.2h-7.7v8.2z"/><path class="st1" d="M185.4 290.3h9.5v10h-9.5z"/><path d="M195.7 301.2h-11.2v-11.8h11.2v11.8zm-9.5-1.8h7.7v-8.2h-7.7v8.2z"/><path class="st1" d="M201.4 290.3h9.5v10h-9.5z"/><path d="M211.8 301.2h-11.2v-11.8h11.2v11.8zm-9.5-1.8h7.7v-8.2h-7.7v8.2z"/><path class="st1" d="M153.4 309.6h9.5v14.5h-9.5z"/><path d="M163.7 325h-11.2v-16.3h11.2V325zm-9.4-1.8h7.7v-12.7h-7.7v12.7z"/><path class="st1" d="M201.4 309.6h9.5v14.5h-9.5z"/><path d="M211.8 325h-11.2v-16.3h11.2V325zm-9.5-1.8h7.7v-12.7h-7.7v12.7z"/><path class="st1" d="M169 311.1h14v18.7h-14z"/><path d="M183.9 330.7h-15.8v-20.5h15.8v20.5zm-14-1.8h12.2v-17h-12.2v17z"/><path class="st1" d="M183 311.1h13.9v18.7H183z"/><path d="M197.9 330.7h-15.7v-20.5h15.7v20.5zm-14-1.8H196v-17h-12.1v17z"/><path class="st1" d="M256.1 207.9v121.9"/><path d="M255.2 207.9h1.8v122h-1.8z"/><path class="st1" d="M262 207.9v121.9"/><path d="M261.1 207.9h1.8v122h-1.8z"/><path class="st1" d="M267 207.9v121.9"/><path d="M266.2 207.9h1.8v122h-1.8z"/><path class="st1" d="M281.5 281.6h39.8v6.4h-39.8z"/><path d="M322.2 288.9h-41.6v-8.2h41.6v8.2zm-39.8-1.8h38v-4.6h-38v4.6z"/><path class="st1" d="M304.4 226.6h12.1v24.9h-12.1z"/><path d="M317.4 252.4h-13.8v-26.7h13.8v26.7zm-12.1-1.7h10.3v-23.2h-10.3v23.2z"/><path class="st1" d="M304.4 237.5h12.1v3.2h-12.1z"/><path d="M317.4 241.5h-13.8v-4.9h13.8v4.9zm-12.1-1.8h10.3v-1.4h-10.3v1.4z"/><path class="st1" d="M287.3 302.1h13.5V324h-13.5z"/><path d="M301.7 324.9h-15.3v-23.7h15.3v23.7zm-13.5-1.8h11.7V303h-11.7v20.1z"/><path class="st1" d="M287.3 308.9h13.5v6.9h-13.5z"/><path d="M301.7 316.7h-15.3V308h15.3v8.7zm-13.5-1.8h11.7v-5.1h-11.7v5.1z"/><path class="st1" d="M305.6 304.6h10.7v25.2h-10.7z"/><path d="M317.1 330.7h-12.5v-27h12.5v27zm-10.6-1.8h8.9v-23.5h-8.9v23.5z"/><circle class="st1" cx="309.2" cy="317.2" r="1.2"/><circle class="st1" cx="336" cy="317.5" r="1.2"/><path class="st1" d="M332.3 306.8h13.4v23h-13.4z"/><path d="M346.6 330.7h-15.1v-24.8h15.1v24.8zm-13.4-1.8h11.6v-21.2h-11.6v21.2z"/><path class="st1" d="M358.9 307.7h20.8v15.1h-20.8z"/><path d="M380.6 323.7H358v-16.9h22.6v16.9zm-20.8-1.8h19v-13.3h-19v13.3z"/><path class="st1" d="M379.7 307.7h21.1v15.1h-21.1z"/><path d="M401.7 323.7h-22.9v-16.9h22.9v16.9zm-21.1-1.8h19.3v-13.3h-19.3v13.3z"/><path class="st1" d="M358.9 307.7h41.9v4h-41.9z"/><path d="M401.7 312.5H358v-5.8h43.6v5.8zm-41.9-1.7h40.1v-2.2h-40.1v2.2z"/><path class="st1" d="M378.8 254.9h14.3v13.6h-14.3z"/><path d="M394 269.3h-16.1V254H394v15.3zm-14.3-1.8h12.6v-11.8h-12.6v11.8z"/><path class="st1" d="M378.8 268.4h14.3V282h-14.3z"/><path d="M394 282.9h-16.1v-15.4H394v15.4zm-14.3-1.8h12.6v-11.8h-12.6v11.8z"/><path class="st1" d="M464 268.1h25v12.3h-25z"/><path d="M489.9 281.3h-26.7v-14.1h26.7v14.1zm-25-1.7h23.2V269h-23.2v10.6z"/><path class="st1" d="M474.8 268.1h3.9v12.3h-3.9z"/><path d="M479.6 281.3h-5.7v-14.1h5.7v14.1zm-3.9-1.7h2.2V269h-2.2v10.6z"/><path class="st1" d="M464 291.5h25v12.3h-25z"/><path d="M489.9 304.7h-26.7v-14.1h26.7v14.1zm-25-1.7h23.2v-10.6h-23.2V303z"/><path class="st1" d="M474.8 291.5h3.9v12.3h-3.9z"/><path d="M479.6 304.7h-5.7v-14.1h5.7v14.1zm-3.9-1.7h2.2v-10.6h-2.2V303z"/><path class="st1" d="M464.8 311.6h11v18.2h-11z"/><path d="M476.8 330.7H464v-20h12.8v20zm-11.1-1.8h9.3v-16.4h-9.3v16.4z"/><path class="st1" d="M476.3 311.6h11.8v18.2h-11.8z"/><path d="M489.1 330.7h-13.6v-20h13.6v20zm-11.9-1.8h10.1v-16.4h-10.1v16.4z"/><path class="st1" d="M503.5 268.1h9.9v9.7h-9.9z"/><path d="M514.4 278.8h-11.7v-11.5h11.7v11.5zm-10-1.8h8.1v-8h-8.1v8z"/><path class="st1" d="M513.5 268.1h9.5v9.7h-9.5z"/><path d="M523.8 278.8h-11.2v-11.5h11.2v11.5zm-9.4-1.8h7.7v-8h-7.7v8z"/><path class="st1" d="M503.5 286.6h9.9v9.7h-9.9z"/><path d="M514.4 297.3h-11.7v-11.5h11.7v11.5zm-10-1.8h8.1v-8h-8.1v8z"/><path class="st1" d="M513.5 286.6h9.5v9.7h-9.5z"/><path d="M523.8 297.3h-11.2v-11.5h11.2v11.5zm-9.4-1.8h7.7v-8h-7.7v8z"/><path class="st1" d="M503.5 302.5h9.9v9.7h-9.9z"/><path d="M514.4 313.1h-11.7v-11.5h11.7v11.5zm-10-1.7h8.1v-8h-8.1v8z"/><path class="st1" d="M513.5 302.5h9.5v9.7h-9.5z"/><path d="M523.8 313.1h-11.2v-11.5h11.2v11.5zm-9.4-1.7h7.7v-8h-7.7v8z"/><path class="st1" d="M501.2 316.8h9.7v13h-9.7z"/><path d="M511.9 330.7h-11.5V316h11.5v14.7zm-9.8-1.8h8v-11.2h-8v11.2z"/><path class="st1" d="m179.1 248.6 9.3-9"/><path transform="rotate(-43.703 183.747 244.111)" d="M177.3 243.2h13v1.8h-13z"/><path class="st1" d="m188.4 248.6 9.2-9"/><path transform="rotate(-44.566 193.025 244.124)" d="M186.6 243.2h12.8v1.8h-12.8z"/><path class="st1" d="M70.7 157.8s-9-1.1-8.9 7.3c0 0 .8 4.8 5.6 5.9h21.8s6.8-1.7 5.7-7.8c-1-6.1-7.6-6-8.6-5.9 0 0-1.9-6.1-7.8-5.8s-7.8 6.3-7.8 6.3z"/><path d="M89.3 171.9H67.2c-5.2-1.2-6.2-6.4-6.2-6.6v-.1c0-2.6.7-4.7 2.3-6.1 2.2-2 5.4-2.2 6.9-2.1.7-1.7 3-5.9 8.2-6.2 4.8-.3 7.5 3.3 8.5 5.8 2.1 0 7.9.6 8.9 6.7.9 5.5-3.8 8.2-6.4 8.8l-.1-.2zm-21.8-1.7h21.6c.8-.2 5.8-1.8 4.9-6.8-.9-5.4-6.6-5.3-7.7-5.2h-.7l-.2-.7c-.1-.2-1.8-5.5-6.9-5.2-5.2.3-6.9 5.6-6.9 5.6l-.2.7-.7-.1s-3.9-.4-6.2 1.6c-1.2 1.1-1.8 2.6-1.7 4.7 0 .8.9 4.4 4.7 5.4z"/><path class="st1" d="M171.4 105.1s-9-1.1-8.9 7.3c0 0 .8 4.8 5.6 5.9h21.8s6.8-1.7 5.7-7.8c-1-6.1-7.6-6-8.6-5.9 0 0-1.9-6.1-7.8-5.8-6.1.4-7.8 6.3-7.8 6.3z"/><path d="M189.9 119.3h-22.1c-5.2-1.2-6.2-6.4-6.2-6.6v-.1c0-2.6.7-4.7 2.3-6.1 2.2-2 5.4-2.2 6.9-2.1.7-1.7 3-5.9 8.2-6.2 4.8-.3 7.5 3.3 8.5 5.8 2.1 0 7.9.6 8.9 6.7.9 5.5-3.8 8.2-6.4 8.8l-.1-.2zm-21.8-1.8h21.6c.8-.2 5.8-1.8 4.9-6.8-.9-5.4-6.6-5.3-7.7-5.2h-.7l-.2-.7c-.1-.2-1.8-5.5-6.9-5.2-5.2.3-6.8 5.4-6.9 5.6l-.2.7-.7-.1s-3.9-.4-6.2 1.6c-1.2 1.1-1.8 2.6-1.7 4.7.1.8 1 4.4 4.7 5.4z"/><path class="st1" d="M281.5 144s-9-1.1-8.9 7.3c0 0 .8 4.8 5.6 5.9H300s6.8-1.7 5.7-7.8c-1-6.1-7.6-6-8.6-5.9 0 0-1.9-6.1-7.8-5.8s-7.8 6.3-7.8 6.3z"/><path d="M300 158.1h-22.1c-5.2-1.2-6.2-6.4-6.2-6.6v-.1c0-2.6.7-4.7 2.3-6.1 2.2-2 5.4-2.2 6.9-2.1.7-1.7 3-5.9 8.2-6.2 4.8-.3 7.5 3.3 8.5 5.8 2.1 0 7.9.6 8.9 6.7.9 5.5-3.8 8.2-6.4 8.8l-.1-.2zm-21.8-1.8h21.6c.8-.2 5.8-1.8 4.9-6.8-.9-5.4-6.6-5.3-7.7-5.2h-.7l-.2-.7c-.1-.2-1.8-5.5-6.9-5.2-5.2.3-6.9 5.6-6.9 5.6l-.2.7-.7-.1s-3.9-.4-6.2 1.6c-1.2 1.1-1.8 2.6-1.7 4.7 0 .8.9 4.5 4.7 5.4z"/><path class="st1" d="M411.4 208.8s-9-1.1-8.9 7.3c0 0 .8 4.8 5.6 5.9h21.8s6.8-1.7 5.7-7.8c-1-6.1-7.6-6-8.6-5.9 0 0-1.9-6.1-7.8-5.8s-7.8 6.3-7.8 6.3z"/><path d="M430 222.9h-22.1c-5.2-1.2-6.2-6.4-6.2-6.6v-.1c0-2.6.7-4.7 2.3-6.1 2.2-2 5.4-2.2 6.9-2.1.7-1.7 3-5.9 8.2-6.2 4.8-.3 7.5 3.3 8.5 5.8 2.1 0 7.9.6 8.9 6.7.9 5.5-3.8 8.2-6.4 8.8l-.1-.2zm-21.8-1.8h21.6c.8-.2 5.8-1.8 4.9-6.8-.9-5.4-6.6-5.3-7.7-5.2h-.7l-.2-.7c-.1-.2-1.8-5.5-6.9-5.2-5.2.3-6.8 5.4-6.9 5.6l-.2.7-.7-.1s-3.9-.4-6.2 1.6c-1.2 1.1-1.8 2.6-1.7 4.7 0 .8.9 4.4 4.7 5.4z"/><path class="st1" d="M382.3 109.7s-9-1.1-8.9 7.3c0 0 .8 4.8 5.6 5.9h21.8s6.8-1.7 5.7-7.8c-1-6.1-7.6-6-8.6-5.9 0 0-1.9-6.1-7.8-5.8-6.1.4-7.8 6.3-7.8 6.3z"/><path d="M400.8 123.8h-22.1c-5.2-1.2-6.2-6.4-6.2-6.6v-.1c0-2.6.7-4.7 2.3-6.1 2.2-2 5.4-2.2 6.9-2.1.7-1.7 3-5.9 8.2-6.2 4.8-.3 7.5 3.3 8.5 5.8 2.1 0 7.9.6 8.9 6.7.9 5.5-3.8 8.2-6.4 8.8l-.1-.2zm-21.8-1.7h21.6c.8-.2 5.8-1.8 4.9-6.8-.9-5.4-6.6-5.3-7.7-5.2h-.7l-.2-.7c-.1-.2-1.8-5.5-6.9-5.2-5.2.3-6.9 5.6-6.9 5.6l-.2.7-.7-.1s-3.9-.4-6.2 1.6c-1.2 1.1-1.8 2.6-1.7 4.7 0 .8.9 4.4 4.7 5.4z"/><path class="st1" d="M133.8 168.1h-25.4c-3.9 0-7.1 3.2-7.1 7.1v31l12.1-6h20.5c3.9 0 7.1-3.2 7.1-7.1v-17.8c-.1-4-3.3-7.2-7.2-7.2z"/><path d="M100.3 207.7v-32.4c0-4.4 3.6-8 8-8h25.4c4.4 0 8 3.6 8 8v17.8c0 4.4-3.6 8-8 8h-20.3l-13.1 6.6zm8-38.7c-3.4 0-6.3 2.8-6.3 6.3v29.6l11-5.5h20.7c3.4 0 6.3-2.8 6.3-6.3v-17.8c0-3.4-2.8-6.3-6.3-6.3h-25.4z"/><path class="st1" d="M225 163.1h25.4c3.9 0 7.1 3.2 7.1 7.1v31l-12.1-6H225c-3.9 0-7.1-3.2-7.1-7.1v-17.8c-.1-4 3.1-7.2 7.1-7.2z"/><path d="m258.4 202.7-13.2-6.6H225c-4.4 0-8-3.6-8-8v-17.8c0-4.4 3.6-8 8-8h25.4c4.4 0 8 3.6 8 8v32.4zM225 164c-3.4 0-6.3 2.8-6.3 6.3v17.8c0 3.4 2.8 6.3 6.3 6.3h20.7l11 5.5v-29.6c0-3.4-2.8-6.3-6.3-6.3H225z"/><path class="st1" d="M470.9 182.2h25.4c3.9 0 7.1 3.2 7.1 7.1v31l-12.1-6h-20.5c-3.9 0-7.1-3.2-7.1-7.1v-17.8c0-4 3.2-7.2 7.2-7.2z"/><path d="m504.3 221.8-13.2-6.6h-20.3c-4.4 0-8-3.6-8-8v-17.8c0-4.4 3.6-8 8-8h25.4c4.4 0 8 3.6 8 8v32.4zm-33.4-38.7c-3.4 0-6.3 2.8-6.3 6.3v17.8c0 3.4 2.8 6.3 6.3 6.3h20.7l11 5.5v-29.6c0-3.4-2.8-6.3-6.3-6.3h-25.4z"/><path class="st1" d="m222.1 251.1 16.5-17.8h12.3v96.5h-28.8z"/><path d="M251.8 330.7h-30.6v-80l17-18.4h13.5v98.4zm-28.8-1.8h27v-94.7h-11l-16 17.3v77.4z"/><path class="st1" d="M226.1 261.9h7.5v67.9h-7.5z"/><path d="M234.5 330.7h-9.3V261h9.3v69.7zm-7.5-1.8h5.7v-66.2H227v66.2z"/><path class="st1" d="M237.7 246h9.5v11.2h-9.5z"/><path d="M248.1 258.1h-11.3v-13h11.3v13zm-9.5-1.8h7.8v-9.4h-7.8v9.4z"/><path class="st1" d="M237.7 261.9h9.5v11.2h-9.5z"/><path d="M248.1 274h-11.3v-13h11.3v13zm-9.5-1.8h7.8v-9.4h-7.8v9.4z"/><path class="st1" d="M237.7 279h9.5v11.2h-9.5z"/><path d="M248.1 291.1h-11.3v-13h11.3v13zm-9.5-1.8h7.8v-9.4h-7.8v9.4z"/><path class="st1" d="M237.7 295.3h9.5v11.2h-9.5z"/><path d="M248.1 307.4h-11.3v-13h11.3v13zm-9.5-1.8h7.8v-9.4h-7.8v9.4z"/><path class="st1" d="M237.7 311.2h9.5v11.2h-9.5z"/><path d="M248.1 323.3h-11.3v-13h11.3v13zm-9.5-1.8h7.8v-9.4h-7.8v9.4z"/><path class="st1" d="M284.7 245.7v22.6"/><path d="M283.8 245.7h1.8v22.6h-1.8z"/><path class="st1" d="M287.9 247.2v21.1"/><path d="M287 247.2h1.8v21.1H287z"/><path class="st1" d="M291.3 248.9v19.4"/><path d="M290.4 248.9h1.8v19.4h-1.8z"/><path class="st1" d="M294.8 250.5v17.8"/><path d="M293.9 250.5h1.8v17.8h-1.8z"/><path class="st1" d="M298.2 252.2v16.1"/><path d="M297.3 252.2h1.8v16.1h-1.8z"/><path class="st1" d="M301.4 253.8v14.5"/><path d="M300.5 253.8h1.8v14.5h-1.8z"/><path class="st1" d="M304.4 255.2v13.1"/><path d="M303.6 255.2h1.8v13.1h-1.8z"/><path class="st1" d="M307.5 256.7v11.6"/><path d="M306.6 256.7h1.8v11.6h-1.8z"/><path class="st1" d="M310.3 258v10.3"/><path d="M309.4 258h1.8v10.3h-1.8z"/><path class="st1" d="M313.7 259.7v8.6"/><path d="M312.8 259.7h1.8v8.6h-1.8z"/><path class="st1" d="M317 261.3v7"/><path d="M316.1 261.3h1.8v7h-1.8z"/><path class="st1" d="M319.2 262.5v5.8"/><path d="M318.3 262.5h1.8v5.8h-1.8z"/><path class="st1" d="M408.2 261.9H456v67.9h-47.8z"/><path d="M456.9 330.7h-49.5V261h49.5v69.7zm-47.8-1.8h46v-66.2h-46v66.2z"/><path class="st1" d="m408.2 261.9-4.6-5.2h59.1l-6.7 5.2z"/><path d="M456.3 262.8h-48.5l-6.2-6.9h63.6l-8.9 6.9zm-47.7-1.8h47.1l4.4-3.4h-54.4l2.9 3.4z"/><path class="st1" d="M413.9 311.8H430V330h-16.1z"/><path d="M430.9 330.9H413v-20h17.9v20zm-16.1-1.8h14.3v-16.4h-14.3v16.4z"/><path class="st1" d="M432.1 269.3H450v18.4h-17.9z"/><path d="M450.9 288.6h-19.7v-20.2h19.7v20.2zm-17.9-1.8h16.1v-16.6H433v16.6z"/><path class="st1" d="M432.1 287.7H450v20h-17.9z"/><path d="M450.9 308.5h-19.7v-21.7h19.7v21.7zm-17.9-1.7h16.1v-18.2H433v18.2z"/></svg>