<svg id="OBJECTS" xmlns="http://www.w3.org/2000/svg" viewBox="0 0 500 500"><defs><style>.cls-3{fill:#fff}.cls-4{stroke:#000;stroke-miterlimit:10;stroke-width:.25px}</style></defs><path d="M464.59 321.23 301.13 172.65l-96-87.29Q170.58 54 136 22.59c-2.67-2.43-3.73-2.21-4.53 1-2.77 11-5.92 21.89-8.12 33-10.1 50.71-19.54 101.54-29.93 152.19C77.62 285.87 65 363.54 51.93 441.15c-.79 4.71.93 6.26 5.57 5 7.2-2 14.33-4.22 21.55-6.14 38.45-10.28 77.1-19.86 115.34-30.87 66.4-19.14 132.54-39.14 198.8-58.78 23.52-6.95 47.24-13.29 70.12-22.3 6.04-2.37 6.11-2.44 1.28-6.83Z" style="opacity:.1"/><circle cx="228.57" cy="249.36" r="137.69" transform="rotate(-45 228.57 249.363)" style="fill:#1d1d1b"/><path class="cls-3" d="M182.62 450.2c.24-8 2.52-15.07 7.92-21a37.36 37.36 0 0 1 10.62-8.45 16.22 16.22 0 0 0 3.63-2.4c4.19-3.85 9.25-5.8 14.67-7a99.47 99.47 0 0 0 14.21-4.35c7.12-2.77 14.38-2.22 21.57 1.11-.35.17-.49.31-.61.3-10.12-.75-19.7 1.39-29 5.12-10.12 4.05-19.57 9.19-27.46 16.77-2.7 2.59-4.76 5.85-7 8.87a7 7 0 0 0-.71 2.3l.52.25a5.76 5.76 0 0 0 1-1c5.24-9.32 13.49-15.36 22.57-20.39a83.78 83.78 0 0 1 27.51-10 42.57 42.57 0 0 1 14.11-.27c.53.1 1.06.23 1.21.26-5.2 3.12-10.38 6.57-15.88 9.43A65.58 65.58 0 0 1 230 424c-2.73.83-5.22 1.78-7.25 3.92-3.29 3.46-7.66 5.06-12.13 6.3a9 9 0 0 0-4.68 2.86 34 34 0 0 1-15.32 10.05c-2.62.87-5.29 2.02-8 3.07Z"/><path class="cls-3" d="M206.12 467.31a18.19 18.19 0 0 1-.52-12c.79-2.41 1.22-5 2.16-7.31a35.14 35.14 0 0 1 3-5.05 28.1 28.1 0 0 0 2.35-4 11 11 0 0 1 5.06-6 73.93 73.93 0 0 0 6.78-4.88 15.14 15.14 0 0 1 3.89-2c-7.62 7.28-12.52 16-16 25.62l1 .61c.38-.77.78-1.53 1.11-2.31 3.77-9 8.53-17.29 16.28-23.49a12 12 0 0 1 3.93-2.15c4.45-1.3 8.28-3.72 12.06-6.27a13.31 13.31 0 0 1 3.41-1.78 10.83 10.83 0 0 1-1 1.16 34.31 34.31 0 0 0-7.37 10.35c-1.45 2.85-2.89 5.72-5.72 7.59a3.73 3.73 0 0 0-1.24 2.22c-1.13 5.26-4.6 8.42-9.33 10.33a6.63 6.63 0 0 0-3.54 3.54c-1.31 2.5-2.73 5.15-4.77 7-3.48 3.17-7.54 5.82-11.54 8.82Z"/><path d="M215.16 410.69c2.83-.66 5.7-1.19 8.49-2 3.34-1 6.56-2.35 9.9-3.35a30.29 30.29 0 0 1 21.55 1.1c2.35 1.05 4.65 2.19 7 3.3.55.27 1.07.61 1.6.92v.55a9.9 9.9 0 0 1-2 .5c-2.15.11-4 .27-5.6 2.33-1.43 1.89-3.67 3.17-5.49 4.78a27.45 27.45 0 0 0-6.16 8.43c-1.76 3.49-3.36 7.09-6.78 9.42a3.2 3.2 0 0 0-.89 1.83c-1.37 5.55-5.14 8.79-10.19 11a5.07 5.07 0 0 0-2.51 2.36c-2.19 5.25-6 8.95-10.63 12a53.92 53.92 0 0 0-5.53 4.23c-1.73 1.48-2.75 1.35-3.43-.84-1.48-4.76-1.67-9.49.41-14.19a18.35 18.35 0 0 0 1.22-4.51c.39-2.42 1.81-4.22 3.17-6.14a43.92 43.92 0 0 0 3.76-6.71c-2.54.25-4.65.84-6.31 2.78a34.37 34.37 0 0 1-15.19 9.95c-2.86 1-5.63 2.26-8.41 3.47-1.67.73-2.42.29-2.33-1.56.67-14.14 7.52-24.33 19.88-31a8.33 8.33 0 0 0 1.06-.6c3.68-2.86 7.33-5.77 11.74-7.48Zm-32.54 39.51c2.71-1.05 5.33-2.17 8-3.08A34 34 0 0 0 206 437.07a9 9 0 0 1 4.68-2.86c4.47-1.24 8.84-2.84 12.13-6.3 2-2.14 4.52-3.09 7.25-3.92a65.58 65.58 0 0 0 11.42-4.21c5.5-2.86 10.68-6.31 15.88-9.43-.15 0-.68-.16-1.21-.26a42.57 42.57 0 0 0-14.11.27 83.78 83.78 0 0 0-27.51 10c-9.08 5-17.33 11.07-22.57 20.39a5.76 5.76 0 0 1-1 1l-.52-.25a7 7 0 0 1 .71-2.3c2.26-3 4.32-6.28 7-8.87 7.89-7.58 17.34-12.72 27.46-16.77 9.34-3.73 18.92-5.87 29-5.12.12 0 .26-.13.61-.3-7.19-3.33-14.45-3.88-21.57-1.11a99.47 99.47 0 0 1-14.21 4.26c-5.42 1.23-10.48 3.18-14.67 7a16.22 16.22 0 0 1-3.63 2.4 37.36 37.36 0 0 0-10.62 8.45c-5.38 5.99-7.66 13.1-7.9 21.06Zm23.5 17.11c4-3 8.06-5.65 11.61-8.86 2-1.85 3.46-4.5 4.77-7a6.63 6.63 0 0 1 3.54-3.54c4.73-1.91 8.2-5.07 9.33-10.33a3.73 3.73 0 0 1 1.24-2.22c2.83-1.87 4.27-4.74 5.72-7.59a34.31 34.31 0 0 1 7.37-10.35 10.83 10.83 0 0 0 1-1.16 13.31 13.31 0 0 0-3.41 1.78c-3.78 2.55-7.61 5-12.06 6.27a12 12 0 0 0-3.93 2.15c-7.78 6.2-12.54 14.54-16.3 23.54-.33.78-.73 1.54-1.11 2.31l-1-.61c3.49-9.59 8.39-18.34 16-25.62a15.14 15.14 0 0 0-3.89 2 73.93 73.93 0 0 1-6.78 4.88 11 11 0 0 0-5.06 6 28.1 28.1 0 0 1-2.35 4 35.14 35.14 0 0 0-3 5.05c-.94 2.35-1.37 4.9-2.16 7.31a18.19 18.19 0 0 0 .47 11.99Z"/><path class="cls-3" d="M196.52 351.26c-.63 1.44-1 2.56-1.59 3.58-1.85 3.28-4.8 4.65-8.46 5.12a14.36 14.36 0 0 0-5.29 1.92 12 12 0 0 1-9.51 1.29c-3.59-.89-7.25-1.48-11.17-2.26.22.66.22.88.34 1 4.14 4.21 6.31 9.55 8.52 14.87A57.68 57.68 0 0 0 178 390.5a3.23 3.23 0 0 0 4.34.94c3.44-1.69 6.7-3.62 9.08-6.86 1.07-1.46 2.86-2.42 4.4-3.51 1.7-1.2 3.59-2.16 5.2-3.47 2.06-1.66 2.63-4 2.43-6.62a7.78 7.78 0 0 1 0-2.36c.64-2.77.18-5.34-.35-8.13-.69-3.7-3.11-5.7-5.35-8.07-.37-.42-.75-.72-1.23-1.16Z"/><path class="cls-3" d="M181.06 393.66c4.63 4.71 9.63 8.68 16 10.09 5.8 1.27 10.88-.69 14.57-5.45a18.28 18.28 0 0 0 3.7-14.4c-.66-4.22-1.85-8.35-2.76-12.53-.21-.94-.13-1.94-.35-2.88a4.41 4.41 0 0 0-.93-2.22c-1.66-1.56-3.48-2.95-5.23-4.41-.18 3.72-.2 7.31-.58 10.86-.52 4.94-3.74 7.9-8.08 9.65a11.67 11.67 0 0 0-5.39 3.8c-2.71 3.62-6.64 5.56-10.95 7.49ZM147.33 392.33a41.25 41.25 0 0 1 .39 5 6.75 6.75 0 0 1-3.45 5.9 4.58 4.58 0 0 0-2 2 7.48 7.48 0 0 1-4.82 5.18v.55c1.59.64 3.13 1.67 4.77 1.86 5.49.63 10.24 2.84 14.85 5.73a6.41 6.41 0 0 0 9.52-4.36 13.81 13.81 0 0 1 3.19-6.86c2-2.38 1.79-6.38-.36-8.81a55.73 55.73 0 0 0-4.23-3.88c-.34-.31-.8-.57-1-1-2.29-4.74-6.52-3.26-10.19-3-2.31.22-4.51 1.14-6.67 1.69ZM206.31 359.24c1 .94 2 1.83 3 2.79 1.64 1.6 3.23 3.25 4.87 4.84a2.65 2.65 0 0 0 1.28.78c6.12 1 12.25 2 18.39 2.9a35.8 35.8 0 0 0 4.75.14 3 3 0 0 0 3-2.39c1.88-5.72 1.28-10.74-2.75-15.72-3.58-4.42-7.45-8-12.78-9.9a11.4 11.4 0 0 0-1.12-.3 1.49 1.49 0 0 0 0 .49c1.8 6.77-1.78 11.76-8.89 12.37a10.27 10.27 0 0 0-2.17.17 29.72 29.72 0 0 0-4.29 1.66 32.4 32.4 0 0 0-3.29 2.17Z"/><path class="cls-3" d="M190.93 328.56a15.09 15.09 0 0 1 4.06 8.58 9.22 9.22 0 0 0 1.58 3.34c1.84 3 2.77 6 1.06 9.1 2 2.19 4 4.17 5.75 6.39 1.3 1.7 2.8 1.7 4 .56 2.55-2.34 5.56-2.56 8.74-3a12 12 0 0 0 6.07-2.93c3.52-3.25 2.26-8.61-2.17-10.45-2.25-.94-4.58-1.71-6.82-2.67-3.45-1.47-6.86-3-10.29-4.56-2.42-1.06-4.81-2.17-7.28-3.1-1.48-.56-3.12-.82-4.7-1.26ZM194.29 350.14a32.28 32.28 0 0 0-13.83-5.24c-3.2-.36-6.37-.91-10.72-1.54a25.88 25.88 0 0 1-1.64 3.64c-1.5 2.48-5.78 3.4-9.77 2.5-2.28-.52-4.63-.69-7.43-1.09a18.22 18.22 0 0 0 1 1.55c2.09 2.54 4 5.32 6.39 7.52a10.29 10.29 0 0 0 5.62 2.44 37.24 37.24 0 0 1 8.7 1.57c2.85 1 5.5.14 8.09-1.44a19.05 19.05 0 0 1 6-2.38c4.58-.94 6.47-2.58 7.59-7.53Z"/><path class="cls-3" d="M171.59 341.82a47.22 47.22 0 0 0 6.24 1.14 36.19 36.19 0 0 1 16.34 5c.45.26.92.46 1.47.72a5.1 5.1 0 0 0 .27-5.49 29.33 29.33 0 0 1-3-8.28c-.63-3.8-4.95-7.21-8.82-7.32a52.09 52.09 0 0 0-8.63.58c-2.28.32-4.48 1.16-6.75 1.57s-4.56.54-6.84.8l-.3.56a30.32 30.32 0 0 0 4.92 3.25c3.29 1.38 5.51 3.3 5.1 7.47ZM164.63 391.67c1.37 1.2 2.72 2.43 4.12 3.61 2.84 2.4 4.76 5.27 3.91 9.15a25.06 25.06 0 0 1-2.06 4.82c-.67 1.46-1.72 2.85-2 4.38a9.19 9.19 0 0 1-5.87 7.23 9.34 9.34 0 0 0 7-.15 5.72 5.72 0 0 1 5 0c3.23 1.61 6.18.74 8.64-1.43s3-5.07 2.16-8.19a21 21 0 0 0-5-9.13 54.5 54.5 0 0 0-9.85-8.22c-1.68-1.1-3.14-2.21-5.11-2.54a2.73 2.73 0 0 0-.57 0ZM136.29 381.7a24.48 24.48 0 0 0 4.4 2.59c3.13 1.1 5.61 2.64 6.11 6.4a37.31 37.31 0 0 1 15.39-1.61c.38 0 1.11-.79 1.25-1.33.83-3.24-1-7-4.21-8.86-2.1-1.22-4.11-2.66-6.31-3.66-3.91-1.8-7.47-.34-10.75 1.83-1.96 1.29-3.71 2.94-5.88 4.64ZM213.94 369.71a14.27 14.27 0 0 0 1.56 2.46 139.45 139.45 0 0 1 26.22 38.72 31.35 31.35 0 0 0 1.55 3 4.52 4.52 0 0 0 5.58 2.22c1.67-.42 2-1.17 1.36-2.74-7.22-17-18.71-30.56-33.09-41.86-.81-.64-1.59-1.31-2.4-1.94-.07-.06-.25.03-.78.14Z"/><path class="cls-3" d="m116.43 392.89 6.18 2.11c.5.16 1.17.12 1.5.44 2.06 1.92 4 .64 6.11.08 2.93-.78 6-1.14 8.91-1.82a27 27 0 0 0 4.46-1.53 1.87 1.87 0 0 0 .9-3.07 10.21 10.21 0 0 0-2.62-2.54c-1.62-1.09-3.49-1.83-5.06-3a6.17 6.17 0 0 0-5.56-1.1 25.1 25.1 0 0 0-14.82 10.43ZM124.78 405.8c3.24 1.09 6.59 2.19 9.92 3.32 1.83.61 5.05-1.11 5.62-3.31a7.11 7.11 0 0 1 3.36-4.41 6.28 6.28 0 0 0 2.09-6.9 1.78 1.78 0 0 0-1.53-.77c-3.14.69-6.26 1.53-9.39 2.3-1.28.31-2.58.58-3.88.82-2.85.5-4.55 1.86-4.71 5-.08 1.52-1.07 2.94-1.48 3.95ZM136.44 340c2 .84 3.76 1.43 5.37 2.26 2.27 1.17 4.38 2.7 6.7 3.74a20.77 20.77 0 0 0 5.05 1.18 30 30 0 0 0 4.89.55 32.78 32.78 0 0 0 6.19-.46c.81-.15 1.54-1.12 2.14-1.86a27.72 27.72 0 0 0 1.85-3c-10.45-2.91-20.78-6.58-32.19-2.41Z"/><path class="cls-3" d="M137.21 338a18.18 18.18 0 0 0 1.84-.39c5.27-1.69 10.59-1.23 15.87-.18 4.84 1 9.63 2.2 14.45 3.31a3.53 3.53 0 0 0-2.5-4.34 16.48 16.48 0 0 1-6-4 6.53 6.53 0 0 0-5.6-1.83 41.14 41.14 0 0 0-15.57 4.88 22.59 22.59 0 0 0-2.7 2c.05.23.13.4.21.55ZM153.38 373.71a44.68 44.68 0 0 0 5.17 2.94c4.59 1.87 8.13 7.1 6.75 12.49 3.21 1.75 5.43 1.74 7.24-.2a2.17 2.17 0 0 0 .33-2c-2-3.93-4.1-7.81-6.2-11.69a2.61 2.61 0 0 0-1-1.14c-3.81-1.6-7.67-3.4-12.29-.4ZM241.24 414.81c-1.05-2.81-2.12-4.91-4.63-6.28a107.79 107.79 0 0 0-20.73-8.42c-2.09-.62-3.57-.43-4.52 1.6l15 6.42c4.85 2.11 8.98 5.95 14.88 6.68ZM101.32 406.88l22.89-9v-.46c-2.83-1-5.64-1.95-8.48-2.83a2 2 0 0 0-1.46.44c-3.42 2.34-6.91 4.59-10.18 7.14-1.37 1.08-2.24 2.79-3.34 4.21ZM124.62 399.37l-19.46 7.71.06.46c.65-.06 1.29-.11 1.93-.18 3.61-.35 7.2-.83 10.82-1 4.47-.28 6.8-2.5 6.65-6.99ZM174.54 389.35l-3.1 2.86c2.13 2 4.47 2.22 7.24 1.85Z"/><path d="M218.51 370.26c.48.4 1 .78 1.44 1.2 3.68 3.33 7.57 6.45 11 10 8.81 9.25 16.45 19.34 21.07 31.43 1 2.68.18 4.6-2.66 5.08-1.39.24-3.25.54-4.23-.14-2.29-1.58-4.93-1.39-7.31-2.25s-4.6-2.31-7-3.36c-6.51-2.92-13-5.82-19.61-8.55a4.77 4.77 0 0 0-3.5.32c-5 2.38-10 2.87-14.88.24a92.4 92.4 0 0 1-10.6-6.89 7.75 7.75 0 0 0-5.38-1.31l2 1.84a28.48 28.48 0 0 1 8 11.65c1.35 3.92 1 7.64-1.87 10.54a9.17 9.17 0 0 1-10.56 2.32 5.63 5.63 0 0 0-3.6-.17 13.9 13.9 0 0 1-9.9.06c-2.68-1.09-5.17-2.64-7.82-3.81s-5.29-2.55-8.07-3.08a31.84 31.84 0 0 1-10.28-3.91 20.61 20.61 0 0 0-8.25-3 106.24 106.24 0 0 0-15 .1c-3 .17-6 1-9 1.34-3.45.43-4.52-1.15-3.16-4.35s3.77-5.39 6.5-7.3c4.5-3.15 9-6.25 12.63-10.47 3.78-4.4 8.8-6.7 14.45-7.58a11.11 11.11 0 0 0 6.1-3 17.91 17.91 0 0 1 10.29-4.69 14.67 14.67 0 0 0 4-1 11.56 11.56 0 0 1 10.33-.1 8.73 8.73 0 0 0 1.67.32c-1.19-2-2-3.69-3.13-5.19-4.21-5.65-8.37-11.36-12.85-16.79a24.86 24.86 0 0 0-6.55-5.27 43.12 43.12 0 0 0-7.33-3c-1.79-.65-2.24-1.6-1-3.09a17 17 0 0 1 3.75-3.4 38.78 38.78 0 0 1 18.11-5.89c6.14-.45 12.28-.62 18.19-2.68a15.85 15.85 0 0 1 5.05-.91 49.2 49.2 0 0 1 25.66 6.42 40.52 40.52 0 0 0 5.36 2.56c4.68 1.84 9.38 3.6 14.09 5.36A33.79 33.79 0 0 1 240.4 351c4.35 5.64 5.46 11.22 3.37 17.75-.76 2.37-2.09 3.65-4.59 3.63a93.81 93.81 0 0 1-10.46-.63c-3.38-.41-6.72-1.2-10.08-1.82Zm-23.58-15.42c-1.85 3.28-4.8 4.65-8.46 5.12a14.36 14.36 0 0 0-5.29 1.92 12 12 0 0 1-9.51 1.29c-3.59-.89-7.25-1.48-11.17-2.26.22.66.22.88.34 1 4.14 4.21 6.31 9.55 8.52 14.87A57.68 57.68 0 0 0 178 390.5a3.23 3.23 0 0 0 4.34.94c3.44-1.69 6.7-3.62 9.08-6.86 1.07-1.46 2.86-2.42 4.4-3.51 1.7-1.2 3.59-2.16 5.2-3.47 2.06-1.66 2.63-4 2.43-6.62a7.78 7.78 0 0 1 0-2.36c.64-2.77.18-5.34-.35-8.13-.69-3.7-3.11-5.7-5.35-8.07-.35-.38-.75-.72-1.21-1.16-.65 1.44-1.04 2.56-1.61 3.58Zm2.13 48.91c5.8 1.27 10.88-.69 14.57-5.45a18.28 18.28 0 0 0 3.7-14.4c-.66-4.22-1.85-8.35-2.76-12.53-.21-.94-.13-1.94-.35-2.88a4.41 4.41 0 0 0-.93-2.22c-1.66-1.56-3.48-2.95-5.23-4.41-.18 3.72-.2 7.31-.58 10.86-.52 4.94-3.74 7.9-8.08 9.65a11.67 11.67 0 0 0-5.39 3.8c-2.71 3.62-6.64 5.56-10.95 7.49 4.63 4.71 9.63 8.68 16 10.09Zm-49.34-6.41a6.75 6.75 0 0 1-3.45 5.9 4.58 4.58 0 0 0-2 2 7.48 7.48 0 0 1-4.82 5.18v.55c1.59.64 3.13 1.67 4.77 1.86 5.49.63 10.24 2.84 14.85 5.73a6.41 6.41 0 0 0 9.52-4.36 13.81 13.81 0 0 1 3.19-6.86c2-2.38 1.79-6.38-.36-8.81a55.73 55.73 0 0 0-4.23-3.88c-.34-.31-.8-.57-1-1-2.29-4.74-6.52-3.26-10.19-3-2.26.15-4.46 1.07-6.62 1.62a41.25 41.25 0 0 1 .34 5.07Zm61.6-35.34c1.64 1.6 3.23 3.25 4.87 4.84a2.65 2.65 0 0 0 1.28.78c6.12 1 12.25 2 18.39 2.9a35.8 35.8 0 0 0 4.75.14 3 3 0 0 0 3-2.39c1.88-5.72 1.28-10.74-2.75-15.72-3.58-4.42-7.45-8-12.78-9.9a11.4 11.4 0 0 0-1.12-.3 1.49 1.49 0 0 0 0 .49c1.8 6.77-1.78 11.76-8.89 12.37a10.27 10.27 0 0 0-2.17.17 29.72 29.72 0 0 0-4.29 1.66 32.4 32.4 0 0 0-3.29 2.17c1.01.97 2.03 1.86 3 2.79ZM195 337.14a9.22 9.22 0 0 0 1.58 3.34c1.84 3 2.77 6 1.06 9.1 2 2.19 4 4.17 5.75 6.39 1.3 1.7 2.8 1.7 4 .56 2.55-2.34 5.56-2.56 8.74-3a12 12 0 0 0 6.07-2.93c3.52-3.25 2.26-8.61-2.17-10.45-2.25-.94-4.58-1.71-6.82-2.67-3.45-1.47-6.86-3-10.29-4.56-2.42-1.06-4.81-2.17-7.28-3.1-1.52-.57-3.16-.85-4.74-1.27a15.09 15.09 0 0 1 4.1 8.59Zm-14.53 7.76c-3.2-.36-6.37-.91-10.72-1.54a25.88 25.88 0 0 1-1.65 3.64c-1.5 2.48-5.78 3.4-9.77 2.5-2.28-.52-4.63-.69-7.43-1.09a18.22 18.22 0 0 0 1 1.55c2.09 2.54 4 5.32 6.39 7.52a10.29 10.29 0 0 0 5.62 2.44 37.24 37.24 0 0 1 8.7 1.57c2.85 1 5.5.14 8.09-1.44a19.05 19.05 0 0 1 6-2.38c4.63-1 6.52-2.6 7.64-7.55a32.28 32.28 0 0 0-13.88-5.22Zm-2.64-1.9a36.19 36.19 0 0 1 16.34 5c.45.26.92.46 1.47.72a5.1 5.1 0 0 0 .27-5.49 29.33 29.33 0 0 1-3-8.28c-.63-3.8-4.95-7.21-8.82-7.32a52.09 52.09 0 0 0-8.63.58c-2.28.32-4.48 1.16-6.75 1.57s-4.56.54-6.84.8l-.3.56a30.32 30.32 0 0 0 4.92 3.25c3.31 1.4 5.55 3.32 5.12 7.49a47.22 47.22 0 0 0 6.22 1.12Zm-9.08 52.32c2.84 2.4 4.76 5.27 3.91 9.15a25.06 25.06 0 0 1-2.06 4.82c-.67 1.46-1.72 2.85-2 4.38a9.19 9.19 0 0 1-5.87 7.23 9.34 9.34 0 0 0 7-.15 5.72 5.72 0 0 1 5 0c3.23 1.61 6.18.74 8.64-1.43s3-5.07 2.16-8.19a21 21 0 0 0-5-9.13 54.5 54.5 0 0 0-9.85-8.22c-1.68-1.1-3.14-2.21-5.11-2.54a2.73 2.73 0 0 0-.57 0l-.34.43c1.34 1.2 2.69 2.43 4.09 3.61Zm-28.06-11c3.13 1.1 5.61 2.64 6.11 6.4a37.31 37.31 0 0 1 15.39-1.61c.38 0 1.11-.79 1.25-1.33.83-3.24-1-7-4.21-8.86-2.1-1.22-4.11-2.66-6.31-3.66-3.91-1.8-7.47-.34-10.75 1.83-2 1.29-3.71 2.91-5.88 4.64a24.48 24.48 0 0 0 4.4 2.56Zm74.81-12.12a139.45 139.45 0 0 1 26.22 38.72 31.35 31.35 0 0 0 1.55 3 4.52 4.52 0 0 0 5.58 2.22c1.67-.42 2-1.17 1.36-2.74-7.22-17-18.71-30.56-33.09-41.86-.81-.64-1.59-1.31-2.4-1.94-.07-.05-.25 0-.78.15a14.27 14.27 0 0 0 1.56 2.42Zm-1.14 25.33 23.26 9.05a173.24 173.24 0 0 0-21.35-31.1c1.03 7.61 2.52 15.15-1.91 22.02ZM122.61 395c.5.16 1.17.12 1.5.44 2.06 1.92 4 .64 6.11.08 2.93-.78 6-1.14 8.91-1.82a27 27 0 0 0 4.46-1.53 1.87 1.87 0 0 0 .9-3.07 10.21 10.21 0 0 0-2.62-2.54c-1.62-1.09-3.49-1.83-5.06-3a6.17 6.17 0 0 0-5.56-1.1 25.1 25.1 0 0 0-14.82 10.41Zm12.09 14.12c1.83.61 5.05-1.11 5.62-3.31a7.11 7.11 0 0 1 3.36-4.41 6.28 6.28 0 0 0 2.09-6.9 1.78 1.78 0 0 0-1.53-.77c-3.14.69-6.26 1.53-9.39 2.3-1.28.31-2.58.58-3.88.82-2.85.5-4.55 1.86-4.71 5-.08 1.47-1.07 2.89-1.48 3.9 3.22 1.14 6.59 2.25 9.92 3.37Zm7.11-66.87c2.27 1.17 4.38 2.7 6.7 3.74a20.77 20.77 0 0 0 5.05 1.18 30 30 0 0 0 4.89.55 32.78 32.78 0 0 0 6.19-.46c.81-.15 1.54-1.12 2.14-1.86a27.72 27.72 0 0 0 1.85-3c-10.45-2.92-20.78-6.59-32.19-2.43 2.02.86 3.76 1.45 5.37 2.28Zm-2.76-4.63c5.27-1.69 10.59-1.23 15.87-.18 4.84 1 9.63 2.2 14.45 3.31a3.53 3.53 0 0 0-2.5-4.34 16.48 16.48 0 0 1-6-4 6.53 6.53 0 0 0-5.6-1.83 41.14 41.14 0 0 0-15.57 4.88 22.59 22.59 0 0 0-2.7 2c.09.16.17.33.25.49a18.18 18.18 0 0 0 1.8-.33Zm19.5 39c4.59 1.87 8.13 7.1 6.75 12.49 3.21 1.75 5.43 1.74 7.24-.2a2.17 2.17 0 0 0 .33-2c-2-3.93-4.1-7.81-6.2-11.69a2.61 2.61 0 0 0-1-1.14c-3.84-1.64-7.69-3.44-12.32-.44a44.68 44.68 0 0 0 5.2 3.01Zm78.06 31.88a107.79 107.79 0 0 0-20.73-8.42c-2.09-.62-3.57-.43-4.52 1.6l15 6.42c4.88 2.11 9 5.95 14.91 6.68-1.08-2.78-2.15-4.88-4.66-6.25Zm-112.4-10.68v-.46c-2.83-1-5.64-1.95-8.48-2.83a2 2 0 0 0-1.46.44c-3.42 2.34-6.91 4.59-10.18 7.14-1.37 1.08-2.24 2.79-3.34 4.21l.54.53Zm-19 9.23.06.46c.65-.06 1.29-.11 1.93-.18 3.61-.35 7.2-.83 10.82-1 4.47-.25 6.8-2.47 6.65-7Zm66.28-14.87c2.13 2 4.47 2.22 7.24 1.85l-4.14-4.71Z"/><path class="cls-3" d="M333.52 155.68c-3.5-1.6-4.46-10.88-1.43-13.86 2.17 1.7 3 9.78 1.43 13.86ZM341.14 158.34c-.59-3.67 1.07-8.15 3.54-9.59 1.78 2.13-.4 8.03-3.54 9.59ZM363 167.82c1.32-1.87 2.54-3.88 4.92-4.62a7.47 7.47 0 0 1 2.31 0c-.28.77-.33 1.84-.88 2.24a21.27 21.27 0 0 1-4 2.07 17 17 0 0 1-2.13.66ZM370.17 175.17a5.51 5.51 0 0 1 4.13-4 1.37 1.37 0 0 1 1.88 1.27 2 2 0 0 1-.85 1.7 52.23 52.23 0 0 1-5.16 1.03ZM355.87 157c1.35 2.41-.4 5.19-3.93 6.47a9.13 9.13 0 0 1 3.93-6.47ZM349.19 194.89c.41-3.63.64-6.8 3.34-9.2 1.47 2.13.21 5.6-3.34 9.2ZM377.25 228.82c2-2.55 4.61-2.54 7.24-2.3.32 0 .85.43.86.67a1.43 1.43 0 0 1-.55 1.17 6.72 6.72 0 0 1-2.61.78c-1.65.03-3.3-.2-4.94-.32ZM357.43 202l3.65-5.45c.74 2.19-.76 4.51-3.21 5.78ZM378.86 217.1c-1.48 1.86-3.5 2.24-5.67 2.23 1.59-1.51 3.29-2.75 5.67-2.23ZM369 208.54l-3.86 3.15-.55-.64 3.7-3.31c.27.26.51.54.71.8Z"/><path d="M268.62 333.58a28 28 0 0 1 .45-4.7C272 318 274.77 307 278 296.13c6.43-21.62 14.1-42.79 24.06-63.07A383.51 383.51 0 0 1 338.23 173c.24-.32.45-.67.79-1.19-4.15-2.37-6.22-6.17-6.84-10.68a22.06 22.06 0 0 0-2.16-7 14 14 0 0 1-.1-12.21 3.09 3.09 0 0 1 2.11-1.67 3 3 0 0 1 2.27 1.49c2.15 5.08 2 10.34.74 15.62-2.41 1.55-1 3.59-.55 5.37.87 3.38 2.13 5.08 4.07 6.21.29-3.63.72-7.34.84-11.07a14.76 14.76 0 0 1 3-9.14 3.73 3.73 0 0 1 2.88-1.34c.7.13 1.48 1.57 1.64 2.52a7 7 0 0 1-.46 3.58c-1.12 2.76-2.45 5.42-5.19 7a1.6 1.6 0 0 0-.55.82c-1.17 3.11-.71 6.16.25 9.18a12.06 12.06 0 0 0 9.8-8.22 18.57 18.57 0 0 1 3.12-5.54 2.86 2.86 0 0 1 2.67-.77 3.93 3.93 0 0 1 1.45 2.83c0 2.53-3.25 6-5.88 6.52a2.53 2.53 0 0 0-1.22.45c-2 1.9-4 3.86-6.13 6a44.4 44.4 0 0 0 6.54.24c4.45-.46 8.52-1.79 11.14-5.92a9.21 9.21 0 0 1 5.28-4.37c1.31-.36 2.76-.72 3.71.59s.32 2.85-.68 3.81a13.52 13.52 0 0 1-4.05 2.61c-3.05 1.27-6.22 2.24-9.31 3.41a21.83 21.83 0 0 1-12.41 1.14 13 13 0 0 0-1.41-.1 14.55 14.55 0 0 0 7.74 3.28c5.13.63 10.28.59 15.15-1.5a20 20 0 0 0 3.1-2.15 25.26 25.26 0 0 1 4.22-2.69c1.8-.74 3.11.07 3.71 1.84s.24 3.26-1.69 3.73a56.31 56.31 0 0 1-7.38.85 12.75 12.75 0 0 0-2.49.2c-6.65 2-13.28 2.59-19.89-.07-2.12-.86-4.15-1.92-5.28-4.43-.62.75-1.19 1.37-1.69 2.05-26 35.36-44.71 74.31-57.56 116.18-4.15 13.56-8.4 27.09-11.27 41a16.35 16.35 0 0 1-.8 2.22Zm64.9-177.9c1.57-4.08.74-12.16-1.43-13.86-3.03 2.98-2.09 12.26 1.43 13.86Zm7.62 2.66c3.14-1.56 5.32-7.46 3.54-9.59-2.47 1.44-4.13 5.92-3.54 9.59Zm21.86 9.48.26.37a17 17 0 0 0 2.13-.66 21.27 21.27 0 0 0 4-2.07c.55-.4.6-1.47.88-2.24a7.47 7.47 0 0 0-2.31 0c-2.42.72-3.64 2.78-4.96 4.6Zm7.17 7.35a52.23 52.23 0 0 0 5.16-1 2 2 0 0 0 .85-1.7 1.37 1.37 0 0 0-1.88-1.27 5.51 5.51 0 0 0-4.13 3.97ZM355.87 157a9.13 9.13 0 0 0-3.93 6.47c3.53-1.26 5.28-4.04 3.93-6.47Z"/><path d="M349.65 196.55c-1.9 4.77-1 15.12 1.44 19.09.14-.21.32-.35.36-.53.79-3.83 1.56-7.64 3.93-10.94.6-.84.41-2.22.94-3.14a33.76 33.76 0 0 1 3.56-5.13 2.55 2.55 0 0 1 2.32-.41 2.44 2.44 0 0 1 1 2c-.22 3.26-2.35 5.32-5 6.66a5 5 0 0 0-2.68 2.71c-1.08 3.1-1.93 6.29-2.88 9.47 3.38.72 8.7-2 10.23-4.52a24.65 24.65 0 0 1 4-4.73 2.13 2.13 0 0 1 3.28-.05c1 1.19.35 2.37-.54 3.26a14.31 14.31 0 0 1-3 2.36c-2.28 1.27-4.6 2.49-7 3.54-1.86.81-3.83 1.34-5.94 2.06 5.47 1.95 10.86 3 16.47 1.31.52-.16.9-.72 1.39-1 1.67-1 3.31-2.14 5.06-3a3.59 3.59 0 0 1 2.38-.17 2.53 2.53 0 0 1 1.63 1.32 2.48 2.48 0 0 1-.68 2c-1.77 1.82-4.17 2.23-6.56 2.51a58.16 58.16 0 0 1-7.31.63c-2.73 0-5.44-.45-8.16-.72-.5 0-1-.2-1.49-.3l-.22.44c1.63 1 3.19 2 4.89 2.85a41.3 41.3 0 0 0 13.54 3.3 3.33 3.33 0 0 0 2.12-.58 10.32 10.32 0 0 1 7.67-1.73 3.62 3.62 0 0 1 2.57 1.59 2.51 2.51 0 0 1-1.35 3.25 8.24 8.24 0 0 1-3.65 1 52.5 52.5 0 0 1-6.23-.68.88.88 0 0 1-.49-.18c-2.28-2.46-5.51-2.07-8.35-2.66a31.84 31.84 0 0 1-15.37-8.26 7.91 7.91 0 0 0-.85-.63 194 194 0 0 0-42.31 65.62l-.74-.28a11.39 11.39 0 0 1 .48-2.71c2.76-6.23 5.29-12.6 8.48-18.61A190.8 190.8 0 0 1 344 223.12c1.81-2 3.73-3.86 5.59-5.78-2.68-7-3.73-14.15-2-21.63.6-2.6.86-5.27 1.53-7.84a6.08 6.08 0 0 1 1.93-2.83 2.73 2.73 0 0 1 2.36-.48 2.86 2.86 0 0 1 1.32 2c.38 2.86-.91 5.23-2.6 7.39a32 32 0 0 1-2.48 2.6Zm-.46-1.66c3.55-3.6 4.82-7.07 3.34-9.2-2.7 2.4-2.93 5.57-3.34 9.2Zm28.06 33.93c1.64.12 3.29.35 4.94.32a6.72 6.72 0 0 0 2.61-.78 1.43 1.43 0 0 0 .55-1.17c0-.24-.54-.64-.86-.67-2.63-.24-5.23-.25-7.24 2.3ZM357.43 202l.44.33c2.45-1.27 3.95-3.59 3.21-5.78Zm21.43 15.14c-2.38-.52-4.08.72-5.67 2.23 2.17-.03 4.19-.37 5.67-2.27Zm-9.86-8.6c-.24-.26-.48-.53-.71-.8l-3.7 3.31.55.64Z"/><path class="cls-3" d="M306.6 283.87c.81 1.13 1.34 2 2 2.81 2.18 2.51 5 3.16 8.21 2.92a12.75 12.75 0 0 1 4.92.73 10.62 10.62 0 0 0 8.46-.58c2.94-1.4 6-2.56 9.25-3.93a4.17 4.17 0 0 1-.11.92c-2.84 4.37-3.77 9.37-4.74 14.36a50.63 50.63 0 0 1-5 13.4 2.84 2.84 0 0 1-3.59 1.59c-3.28-.85-6.43-1.95-9.06-4.32-1.19-1.08-2.91-1.59-4.43-2.25-1.69-.74-3.49-1.24-5.12-2.08a6.38 6.38 0 0 1-3.27-5.29 7.33 7.33 0 0 0-.42-2 17.15 17.15 0 0 1-1.15-7.09c-.05-3.32 1.68-5.48 3.2-7.93.25-.44.53-.81.85-1.26Z"/><path class="cls-3" d="M327.5 317.78c-3.17 4.9-6.79 9.22-12.05 11.57a12.21 12.21 0 0 1-13.57-2.13 16.15 16.15 0 0 1-5.75-11.79c-.18-3.77.12-7.55.16-11.32 0-.85-.23-1.71-.21-2.56a4 4 0 0 1 .41-2.08c1.16-1.65 2.49-3.18 3.74-4.74.82 3.17 1.47 6.28 2.43 9.29 1.33 4.17 4.64 6.16 8.7 6.9a10.4 10.4 0 0 1 5.34 2.33c2.99 2.65 6.72 3.63 10.8 4.53ZM356.42 310.65a39.27 39.27 0 0 0 .55 4.41 6 6 0 0 0 4 4.48 3.94 3.94 0 0 1 2.12 1.4 6.63 6.63 0 0 0 5.09 3.62c0 .15.08.31.13.47-1.26.84-2.42 2-3.8 2.46a31.09 31.09 0 0 0-11.82 7.58 5.66 5.66 0 0 1-9-2.08 12.2 12.2 0 0 0-4-5.37 6.15 6.15 0 0 1-1.25-7.67 47 47 0 0 1 3-4.11 3.63 3.63 0 0 0 .69-1c1.14-4.5 5.05-4 8.27-4.4a33.51 33.51 0 0 1 6.02.21ZM299.55 292.5c-.71 1-1.44 1.95-2.11 2.95-1.13 1.67-2.21 3.38-3.35 5.05a2.3 2.3 0 0 1-1 .9c-5.12 2-10.24 3.91-15.4 5.78a32.3 32.3 0 0 1-4.08 1 2.65 2.65 0 0 1-3-1.53c-2.64-4.62-3-9.07-.41-14.09 2.3-4.46 5-8.21 9.29-10.83a9.64 9.64 0 0 1 .91-.45 1.45 1.45 0 0 1 .12.42c-.36 6.17 3.62 9.85 9.89 9.12a8.93 8.93 0 0 1 1.9-.25 17.84 17.84 0 0 1 7.23 2Z"/><path class="cls-3" d="M307.41 263.25a13.24 13.24 0 0 0-2 8.13 8.33 8.33 0 0 1-.77 3.18c-1.07 2.89-1.34 5.67.7 8.05-1.34 2.25-2.75 4.32-3.84 6.55-.83 1.69-2.12 2-3.4 1.2-2.62-1.57-5.26-1.23-8.09-1a10.51 10.51 0 0 1-5.77-1.46c-3.61-2.18-3.48-7 0-9.42 1.79-1.2 3.66-2.29 5.43-3.51 2.73-1.89 5.39-3.85 8.09-5.77 1.9-1.35 3.78-2.73 5.74-4a41.2 41.2 0 0 1 3.91-1.95ZM308.33 282.5a28.74 28.74 0 0 1 11-7c2.7-.87 5.35-1.91 9-3.23a22.59 22.59 0 0 0 2.06 2.88c1.74 1.88 5.6 1.91 8.89.42 1.88-.85 3.89-1.42 6.23-2.26-.3.82-.39 1.19-.56 1.52a62.47 62.47 0 0 1-4.19 7.63 9 9 0 0 1-4.44 3.11 32.81 32.81 0 0 0-7.24 2.9c-2.29 1.34-4.73 1.1-7.25.19a16.63 16.63 0 0 0-5.59-1c-4.14.01-6.06-1.07-7.91-5.16Z"/><path class="cls-3" d="M326.48 271.27a41.17 41.17 0 0 1-5.19 2.1 32 32 0 0 0-13.29 7.21c-.34.3-.71.56-1.14.88a4.52 4.52 0 0 1-1.21-4.7 25.72 25.72 0 0 0 1.15-7.69c-.13-3.4 3-7.11 6.32-7.9a46.88 46.88 0 0 1 7.57-1c2-.13 4.08.21 6.11.16s4.05-.34 6.07-.52l.35.43a26.74 26.74 0 0 1-3.68 3.69c-2.54 1.76-4.17 3.81-3.06 7.34ZM341.35 313.15c-1 1.28-1.93 2.59-2.92 3.85-2 2.58-3.18 5.41-1.76 8.61a22.32 22.32 0 0 0 2.64 3.8c.84 1.15 2 2.16 2.5 3.43a8.07 8.07 0 0 0 6.35 5.21 8.25 8.25 0 0 1-6.07 1.11 5 5 0 0 0-4.3.9c-2.51 2-5.22 1.74-7.73.3a6.84 6.84 0 0 1-3.32-6.71 18.56 18.56 0 0 1 2.71-8.78 48 48 0 0 1 7.07-8.85 11.76 11.76 0 0 1 4-3.11 2.74 2.74 0 0 1 .5-.07ZM364.08 299.5a21.93 21.93 0 0 1-3.34 3c-2.51 1.5-4.38 3.28-4.15 6.62a33 33 0 0 0-13.59 1.35c-.32.1-1.1-.48-1.32-.92-1.29-2.65-.37-6.22 2.07-8.41 1.6-1.43 3.08-3 4.8-4.29 3.07-2.25 6.41-1.62 9.63-.32 1.92.77 3.72 1.85 5.9 2.97ZM294.81 302.91a12.15 12.15 0 0 1-.91 2.4 123.18 123.18 0 0 0-15.8 38.14 28.23 28.23 0 0 1-.81 2.86 4 4 0 0 1-4.43 2.91c-1.52-.07-2-.65-1.66-2.12 3.23-16 10.75-29.75 21.18-42.08.59-.69 1.15-1.41 1.73-2.1.05-.06.23-.01.7-.01Z"/><path class="cls-3" d="m383.24 305.65-5 2.92c-.4.23-1 .31-1.22.65-1.43 2-3.35 1.27-5.26 1.15-2.67-.15-5.36.07-8 0a24.07 24.07 0 0 1-4.13-.53 1.65 1.65 0 0 1-1.32-2.5 9.09 9.09 0 0 1 1.81-2.66c1.21-1.23 2.7-2.2 3.85-3.47a5.48 5.48 0 0 1 4.62-2 22.22 22.22 0 0 1 14.65 6.44ZM378.32 318.3l-8 4.62c-1.46.86-4.56-.06-5.44-1.86a6.27 6.27 0 0 0-3.69-3.22 5.52 5.52 0 0 1-3-5.59 1.58 1.58 0 0 1 1.18-.94c2.85 0 5.69.22 8.54.32 1.16 0 2.33.05 3.49 0 2.55-.07 4.27.8 5 3.53.27 1.28 1.39 2.33 1.92 3.14ZM356.56 263.46c-1.61 1.08-3 1.9-4.25 2.9-1.76 1.42-3.3 3.11-5.13 4.43a18.35 18.35 0 0 1-4.16 1.92 26.37 26.37 0 0 1-4.12 1.29 28.65 28.65 0 0 1-5.44.71c-.73 0-1.53-.7-2.18-1.23a26.23 26.23 0 0 1-2.13-2.25c8.52-4.34 16.85-9.35 27.41-7.77Z"/><path class="cls-3" d="M355.53 261.88a15.12 15.12 0 0 1-1.65 0c-4.86-.53-9.38.82-13.76 2.66-4 1.7-7.94 3.61-11.9 5.43a3.11 3.11 0 0 1 1.39-4.2 14.53 14.53 0 0 0 4.51-4.49 5.75 5.75 0 0 1 4.52-2.58 36.31 36.31 0 0 1 14.36 1.44 20 20 0 0 1 2.69 1.28c-.07.15-.11.31-.16.46ZM347.89 295.62a40.89 40.89 0 0 1-3.95 3.47c-3.63 2.43-5.77 7.57-3.62 12-2.47 2.08-4.38 2.47-6.3 1.11a1.9 1.9 0 0 1-.63-1.63c1-3.76 2.16-7.48 3.29-11.21a2.24 2.24 0 0 1 .64-1.16c3.02-2.11 6.03-4.35 10.57-2.58ZM279.21 346.75c.41-2.62 1-4.62 2.89-6.25a94.53 94.53 0 0 1 16.43-10.95c1.7-.92 3-1 4.2.57-3.92 2.72-7.87 5.46-11.81 8.22s-6.74 6.74-11.71 8.41ZM398.79 315.06l-21.39-3.74c0-.13-.07-.26-.11-.39 2.27-1.33 4.53-2.69 6.83-4a1.83 1.83 0 0 1 1.34.13c3.37 1.41 6.79 2.74 10.07 4.37 1.38.68 2.44 2 3.64 3ZM377.31 312.71l18.2 3.21v.41l-1.7.19c-3.18.33-6.38.56-9.54 1-3.88.6-6.27-.9-6.96-4.81ZM332.36 312.9l3.2 1.92c-1.49 2.08-3.48 2.72-5.93 2.89Z"/><path d="M290.78 303.9c-2.8 1.14-5.54 2.41-8.4 3.36a80.93 80.93 0 0 1-8.92 2.4c-2.16.46-3.54-.4-4.62-2.32-3-5.28-3-10.29-.23-15.95A29.88 29.88 0 0 1 280.23 279c3.76-2.35 7.52-4.71 11.24-7.13a34.8 34.8 0 0 0 4.18-3.17 43.47 43.47 0 0 1 21.05-10.1 14.05 14.05 0 0 1 4.53-.11c5.47.74 10.82-.21 16.2-.91a34.21 34.21 0 0 1 16.71 1.88 14.7 14.7 0 0 1 3.86 2.34c1.33 1.07 1.11 2-.31 2.85a38.76 38.76 0 0 0-5.82 3.88 21.91 21.91 0 0 0-4.72 5.72c-2.92 5.49-5.5 11.16-8.14 16.8-.69 1.49-1.11 3.11-1.78 5.05a7.67 7.67 0 0 0 1.38-.58 10.23 10.23 0 0 1 9-1.75 12.52 12.52 0 0 0 3.62.14 15.78 15.78 0 0 1 9.73 2.23 9.71 9.71 0 0 0 5.81 1.54 20.37 20.37 0 0 1 13.85 4c3.89 3 8.32 4.89 12.77 6.81a15.33 15.33 0 0 1 6.92 5.16c1.74 2.53 1.1 4.08-2 4.32-2.67.22-5.39.05-8 .45a93.25 93.25 0 0 0-13 2.57 18.33 18.33 0 0 0-6.61 4.05 28 28 0 0 1-8.19 5.21 33.4 33.4 0 0 0-6.43 4.09c-2.09 1.49-4 3.27-6.09 4.68a12.33 12.33 0 0 1-8.58 1.71 5 5 0 0 0-3.08.79 8.1 8.1 0 0 1-9.54-.14c-3-2-4-5.15-3.48-8.78a25.16 25.16 0 0 1 4.84-11.49l1.42-1.95a6.82 6.82 0 0 0-4.42 2.09 81.6 81.6 0 0 1-7.94 7.84c-3.76 3.14-8.19 3.61-12.91 2.43a4.27 4.27 0 0 0-3.08.34c-5.21 3.53-10.33 7.2-15.44 10.87-1.85 1.33-3.49 3-5.41 4.15s-4.22 1.47-5.92 3.24c-.74.76-2.39.83-3.64.87-2.54.09-3.62-1.42-3.21-3.92 1.86-11.28 6.68-21.35 12.65-30.91 2.31-3.7 5.12-7.09 7.71-10.62.33-.44.69-.86 1-1.3Zm15.82-20c-.32.45-.6.82-.84 1.21-1.52 2.45-3.25 4.61-3.2 7.93a17.15 17.15 0 0 0 1.15 7.09 7.33 7.33 0 0 1 .42 2 6.38 6.38 0 0 0 3.27 5.29c1.63.84 3.43 1.34 5.12 2.08 1.52.66 3.24 1.17 4.43 2.25 2.63 2.37 5.78 3.47 9.06 4.32a2.84 2.84 0 0 0 3.59-1.59 50.63 50.63 0 0 0 5-13.4c1-5 1.9-10 4.74-14.36a4.17 4.17 0 0 0 .11-.92c-3.25 1.37-6.31 2.53-9.25 3.93a10.62 10.62 0 0 1-8.46.58 12.75 12.75 0 0 0-4.92-.73c-3.24.24-6-.41-8.21-2.92-.67-.76-1.2-1.66-2.01-2.79Zm20.9 33.91c-4.08-.9-7.81-1.88-10.8-4.53a10.4 10.4 0 0 0-5.34-2.33c-4.06-.74-7.37-2.73-8.7-6.9-1-3-1.61-6.12-2.43-9.29-1.25 1.56-2.58 3.09-3.74 4.74a4 4 0 0 0-.41 2.08c0 .85.22 1.71.21 2.56 0 3.77-.34 7.55-.16 11.32a16.15 16.15 0 0 0 5.75 11.79 12.21 12.21 0 0 0 13.57 2.13c5.26-2.38 8.88-6.7 12.05-11.6Zm28.92-7.13a33.51 33.51 0 0 0-6-.22c-3.22.43-7.13-.1-8.27 4.4a3.63 3.63 0 0 1-.69 1 47 47 0 0 0-3 4.11 6.15 6.15 0 0 0 1.25 7.67 12.2 12.2 0 0 1 4 5.37 5.66 5.66 0 0 0 9 2.08 31.09 31.09 0 0 1 11.82-7.58c1.38-.46 2.54-1.62 3.8-2.46 0-.16-.09-.32-.13-.47a6.63 6.63 0 0 1-5.09-3.62 3.94 3.94 0 0 0-2.12-1.4 6 6 0 0 1-4-4.48 39.27 39.27 0 0 1-.57-4.43Zm-56.87-18.18a17.84 17.84 0 0 0-7.23-2 8.93 8.93 0 0 0-1.9.25c-6.27.73-10.25-2.95-9.89-9.12a1.45 1.45 0 0 0-.12-.42 9.64 9.64 0 0 0-.91.45c-4.26 2.62-7 6.37-9.29 10.83-2.6 5-2.23 9.47.41 14.09a2.65 2.65 0 0 0 3 1.53 32.3 32.3 0 0 0 4.08-1c5.16-1.87 10.28-3.82 15.4-5.78a2.3 2.3 0 0 0 1-.9c1.14-1.67 2.22-3.38 3.35-5.05.66-.93 1.39-1.89 2.1-2.88Zm7.86-29.25a41.2 41.2 0 0 0-3.88 1.93c-2 1.25-3.84 2.63-5.74 4-2.7 1.92-5.36 3.88-8.09 5.77-1.77 1.22-3.64 2.31-5.43 3.51-3.5 2.38-3.63 7.24 0 9.42a10.51 10.51 0 0 0 5.77 1.46c2.83-.19 5.47-.53 8.09 1 1.28.76 2.57.49 3.4-1.2 1.09-2.23 2.5-4.3 3.84-6.55-2-2.38-1.77-5.16-.7-8.05a8.33 8.33 0 0 0 .77-3.18 13.24 13.24 0 0 1 1.97-8.11Zm.92 19.25c1.85 4.09 3.77 5.17 7.94 5.17a16.63 16.63 0 0 1 5.59 1c2.52.91 5 1.15 7.25-.19a32.81 32.81 0 0 1 7.24-2.9 9 9 0 0 0 4.44-3.11 62.47 62.47 0 0 0 4.19-7.63c.17-.33.26-.7.56-1.52-2.34.84-4.35 1.41-6.23 2.26-3.29 1.49-7.15 1.46-8.89-.42a22.59 22.59 0 0 1-2.06-2.88c-3.65 1.32-6.3 2.36-9 3.23a28.74 28.74 0 0 0-11.03 6.99Zm18.15-11.23c-1.11-3.53.49-5.58 3.1-7.37a26.74 26.74 0 0 0 3.68-3.69l-.35-.43c-2 .18-4 .46-6.07.52s-4.09-.29-6.11-.16a46.88 46.88 0 0 0-7.57 1c-3.33.79-6.45 4.5-6.32 7.9a25.72 25.72 0 0 1-1.15 7.69 4.52 4.52 0 0 0 1.21 4.7c.43-.32.8-.58 1.14-.88a32 32 0 0 1 13.25-7.21 41.17 41.17 0 0 0 5.19-2.07Zm14.87 41.88-.37-.31a2.74 2.74 0 0 0-.5.07 11.76 11.76 0 0 0-4 3.11 48 48 0 0 0-7.07 8.85 18.56 18.56 0 0 0-2.71 8.78 6.84 6.84 0 0 0 3.32 6.71c2.51 1.44 5.22 1.66 7.73-.3a5 5 0 0 1 4.3-.9 8.25 8.25 0 0 0 6.07-1.11 8.07 8.07 0 0 1-6.35-5.21c-.51-1.27-1.66-2.28-2.5-3.43a22.32 22.32 0 0 1-2.64-3.8c-1.42-3.2-.27-6 1.76-8.61 1.03-1.26 1.99-2.57 2.96-3.85Zm22.73-13.65c-2.18-1.12-4-2.2-5.9-3-3.22-1.3-6.56-1.93-9.63.32-1.72 1.26-3.2 2.86-4.8 4.29-2.44 2.19-3.36 5.76-2.07 8.41.22.44 1 1 1.32.92a33 33 0 0 1 13.59-1.33c-.23-3.34 1.64-5.12 4.15-6.62a21.93 21.93 0 0 0 3.34-2.99Zm-69.27 3.41c-.47 0-.65-.05-.7 0-.58.69-1.14 1.41-1.73 2.1-10.38 12.34-17.95 26.13-21.18 42.09-.3 1.47.14 2 1.66 2.12a4 4 0 0 0 4.43-2.91 28.23 28.23 0 0 0 .81-2.86 123.18 123.18 0 0 1 15.8-38.14 12.15 12.15 0 0 0 .91-2.4Zm-1 5.37A153.14 153.14 0 0 0 280.87 339l18.51-12c-5.05-5.14-5.1-11.92-5.56-18.72Zm89.42-2.63a22.22 22.22 0 0 0-14.65-6.38 5.48 5.48 0 0 0-4.62 2c-1.15 1.27-2.64 2.24-3.85 3.47a9.09 9.09 0 0 0-1.81 2.66 1.65 1.65 0 0 0 1.32 2.5 24.07 24.07 0 0 0 4.13.53c2.67.06 5.36-.16 8 0 1.91.12 3.83.88 5.26-1.15.24-.34.82-.42 1.22-.65Zm-4.92 12.65c-.53-.81-1.65-1.86-2-3.12-.71-2.73-2.43-3.6-5-3.53h-3.49c-2.85-.1-5.69-.28-8.54-.32a1.58 1.58 0 0 0-1.18.94 5.52 5.52 0 0 0 3 5.59 6.27 6.27 0 0 1 3.69 3.22c.88 1.8 4 2.72 5.44 1.86Zm-21.76-54.84c-10.61-1.58-18.89 3.43-27.41 7.81a26.23 26.23 0 0 0 2.13 2.25c.65.53 1.45 1.24 2.18 1.23a28.65 28.65 0 0 0 5.44-.71 26.37 26.37 0 0 0 4.12-1.33 18.35 18.35 0 0 0 4.16-1.92c1.83-1.32 3.37-3 5.13-4.43 1.26-1 2.7-1.82 4.26-2.9Zm-1-1.58c.05-.15.09-.31.13-.46a20 20 0 0 0-2.69-1.28 36.31 36.31 0 0 0-14.33-1.45 5.75 5.75 0 0 0-4.52 2.58 14.53 14.53 0 0 1-4.51 4.49 3.11 3.11 0 0 0-1.39 4.2c4-1.82 7.89-3.73 11.9-5.43 4.38-1.84 8.9-3.19 13.76-2.66a15.12 15.12 0 0 0 1.63.01Zm-7.64 33.74c-4.54-1.77-7.55.47-10.57 2.57a2.24 2.24 0 0 0-.64 1.16c-1.13 3.73-2.27 7.45-3.29 11.21a1.9 1.9 0 0 0 .63 1.63c1.92 1.36 3.83 1 6.3-1.11-2.15-4.42 0-9.56 3.62-12a40.89 40.89 0 0 0 3.93-3.46Zm-68.68 51.13c5-1.67 7.86-5.73 11.71-8.41s7.89-5.5 11.81-8.22c-1.19-1.59-2.5-1.49-4.2-.57a94.53 94.53 0 0 0-16.45 10.95c-1.93 1.63-2.48 3.63-2.89 6.25Zm119.58-31.69.38-.55c-1.2-1-2.26-2.36-3.64-3-3.28-1.63-6.7-3-10.07-4.37a1.83 1.83 0 0 0-1.34-.13c-2.3 1.27-4.56 2.63-6.83 4 0 .13.07.26.11.39Zm-21.48-2.35c.67 3.91 3.08 5.41 7 4.83 3.16-.46 6.36-.69 9.54-1l1.7-.19v-.41Zm-44.95.19-2.73 4.81c2.45-.17 4.44-.81 5.93-2.89Z"/><path class="cls-3" d="M155.66 271.9c.66.08 1.7.13 2.71.34 4.48.93 4.8.77 7.45-2.95a72.87 72.87 0 0 0 7.47-14.5c1.15-2.76.78-5.49.15-8.28a39.84 39.84 0 0 1-.9-6 7 7 0 0 1 2.42-6.1 5.08 5.08 0 0 1 6.17-.38c1.35.9 1.57 1.87.69 3.23a8.73 8.73 0 0 1-1 1.14 3.24 3.24 0 0 0-.8 3.75 41 41 0 0 0 2.49 5.12 7.19 7.19 0 0 0 5.37 3.59h.13c5.41 1.2 7.06 3.64 6.11 9.54a17.73 17.73 0 0 1-2 5.16c-1.36 2.56-3.08 4.94-4.36 7.54a57.37 57.37 0 0 0-3.31 8.18c-1.3 4.16-.76 8.12 2.34 11.41a2.23 2.23 0 0 1 .5 2.68c-.1.25-.16.52-.25.78-.95 2.65-1.43 2.83-3.82 1.24-5.81-3.89-11.59-7.82-17.42-11.68-3.75-2.48-7.56-4.87-11.36-7.26a1.49 1.49 0 0 1-.89-1.62c.1-.75-.08-1.54-.05-2.3a2.71 2.71 0 0 1 2.16-2.63Zm19.65-2.16h-.41a2.24 2.24 0 0 0-.1.76c1.29 6.54 2.6 13.08 5.58 19.13.66 1.34 1.44 2.62 2.22 3.89.14.22.6.25.91.37a5.54 5.54 0 0 0 .06-1c0-.2-.23-.38-.35-.58a56.54 56.54 0 0 1-7-18.75c-.29-1.24-.61-2.56-.91-3.82Z"/><path class="cls-3" d="M188.28 292.37c-2.67-1.65-3.2-4.18-3.29-6.86-.12-3.32 1.08-6.35 2.5-9.24s3.19-5.6 4.72-8.43a62.27 62.27 0 0 0 2.88-6 11.15 11.15 0 0 0 .2-7 1.87 1.87 0 0 1 .77-2.2c2-1.63 4.37-2 6.79-2.56a57 57 0 0 0 7.69-2.16 10.1 10.1 0 0 0 5-4.29 13.38 13.38 0 0 1 6.09-5.42 3.22 3.22 0 0 1 4.07.77 27.88 27.88 0 0 1 3 4.92c.85 1.64 1.34 3.47 2.21 5.09a7.48 7.48 0 0 1 .62 5.79 11.64 11.64 0 0 0-.25 7 3.63 3.63 0 0 1 .07 1.61c-.14 1-.43 1.56-1.78 1.59a15.16 15.16 0 0 0-4.51 1.23 25.74 25.74 0 0 0-2.63 1.42c-1.73.87-3.47 1.26-5.33.26a5.26 5.26 0 0 0-4.36-.14 15.93 15.93 0 0 1-3.44.71A6.47 6.47 0 0 0 204 272a22.1 22.1 0 0 1-2.42 3.25c-1.24 1.55-2.46 3.13-3.8 4.6a14.75 14.75 0 0 1-3.37 3.06c-3.72 2.09-5.96 4.98-6.13 9.46Zm-.74-5.14c.38-.28.48-.32.52-.39a1.16 1.16 0 0 0 .13-.37 13.92 13.92 0 0 1 4.95-8.8 54.49 54.49 0 0 0 5.09-5.43 29.91 29.91 0 0 1 10.31-8.24 39.62 39.62 0 0 0 4-2.25c.22-.13.25-.59.36-.9a2.46 2.46 0 0 0-.95.06c-.85.42-1.62 1-2.49 1.38a31.83 31.83 0 0 0-11.85 8.92c-1.92 2.27-3.92 4.5-6 6.61a16.56 16.56 0 0 0-4.24 7.93 4.92 4.92 0 0 0 .17 1.48ZM178.28 304.3c4.15 1.45 6.1-.93 7.71-3.57a24.06 24.06 0 0 0 2.52-5.68 11.78 11.78 0 0 1 6.19-7.05 5.26 5.26 0 0 1 6.53 1.84 6.28 6.28 0 0 1 .67 2.58 7.3 7.3 0 0 0 2.72 5c3.88 3 4.94 6.75 3.5 11.35a11.06 11.06 0 0 0-.36 1.73c-.61 4.16-3.17 6.71-6.9 8.25a5 5 0 0 0-2.61 3c-.72 1.67-1.43 3.33-3.17 4.29a5.4 5.4 0 0 1-4.58.66c-4.24-1.59-8.52-3.14-12.61-5.06-3.43-1.61-3.8-4-1.83-7.75.37-.71 1.1-1.24 1.46-2a8.08 8.08 0 0 0 1-2.89 36.77 36.77 0 0 0-.24-4.7ZM175.14 305.57a9.13 9.13 0 0 1-3.37 4.39c-1.44 1-2.48 2.48-3.77 3.68a30.13 30.13 0 0 1-3.11 2.53c-2.33 1.65-4.9 3-7 4.89-3.52 3.14-7.34 5.26-12.15 5.39a6.43 6.43 0 0 0-5.13 2.95 42.47 42.47 0 0 0-3 4.88 7.24 7.24 0 0 1-3.95 3.7c-3.33 1.28-4.26 4.24-2.1 7.09a36.1 36.1 0 0 0 4.9 4.83 7 7 0 0 1 2.56 3.57c.23 1-.12 1.61-1.05 1.59a4.68 4.68 0 0 1-2.79-.6 21.1 21.1 0 0 1-3.86-4.31 11.47 11.47 0 0 0-4.21-4.12c-3.69-2-4.62-4.4-3.21-8.35a4.93 4.93 0 0 0 .09-3.93c-.65-1.5.6-3.58 2.34-4.19.65-.23 1.32-.34 2-.52 1.7-.45 2.35-2.07 1-3.14-3-2.41-2.12-5.34-1.11-8 1.07-2.88 3.8-4 6.67-3.72a9.34 9.34 0 0 0 7-2.11 5.91 5.91 0 0 1 3.54-1A15.89 15.89 0 0 0 156 307.8c3.88-3.05 8.42-3.39 13.07-3.07 1.93.13 3.93.53 6.07.84Zm-6.83 4.59-.17-.48a6.24 6.24 0 0 0-1.15.07 22.89 22.89 0 0 0-9.34 4.83c-2.32 1.95-4.78 3.74-7.17 5.61a4.32 4.32 0 0 0-.58.69c.08.12.16.24.25.35a7.73 7.73 0 0 0 1.63-.71 52.9 52.9 0 0 0 5.16-4 22.57 22.57 0 0 1 10.21-5.72 5 5 0 0 0 1.16-.64Z"/><path class="cls-3" d="M150.09 282.06c9.59 7.19 20.49 12.6 29.11 21-.87.44-1.74.94-2.67 1.33a1.92 1.92 0 0 1-1.25.09 27.54 27.54 0 0 0-13.48-.7 16.47 16.47 0 0 0-6.26 2.81 16.12 16.12 0 0 1-11.83 2.93 20.53 20.53 0 0 1-7.11-1.67 7.25 7.25 0 0 1-3.36-3.25c-.76-1.5-.72-2.73.58-3.8a58.64 58.64 0 0 1 5.14-3.55c.76-.49 1.59-.87 2.38-1.32a10.16 10.16 0 0 0 5.62-8c0-.45.17-.9.25-1.34.53-2.79.53-2.79 2.88-4.53Zm13.3 16.27-.12.55c2.9.63 5.81 1.27 8.71 1.88.11 0 .29-.27.58-.56a20.89 20.89 0 0 0-9.17-1.87ZM176.67 305.86c.21 1 .35 1.81.53 2.6a3.48 3.48 0 0 1-1.06 3.21 8.82 8.82 0 0 0-2.42 5.92 4.52 4.52 0 0 0 1.71 3.83 14.07 14.07 0 0 0 2.71 1.81c4.26 1.92 8.47 4 13.13 4.85a5.35 5.35 0 0 1 .73.34c-.83 1.33-1.6 2.61-2.43 3.86a15.57 15.57 0 0 0-1.79 2.53c-1.39 3.61-3.77 5.77-7.75 6.06a19.71 19.71 0 0 0-4 .85 12.13 12.13 0 0 1-11.61-2.4c-1.48-1.2-3.14-2.17-4.58-3.42-2.6-2.25-2.74-3.34-1.29-6.42a35.84 35.84 0 0 1 5.68-8.6c1.5-1.71 2.51-3.84 3.93-5.63a23.58 23.58 0 0 1 4.22-4.36 9.38 9.38 0 0 0 3.17-3.43 13 13 0 0 1 1.12-1.6ZM140 353.15c-.53-2.55-2.57-3.73-4.3-5.24a19.58 19.58 0 0 1-3.52-4.08 2.84 2.84 0 0 1 1.56-4.43 8.58 8.58 0 0 0 5.39-5.21c.31-.7.72-1.36 1.1-2a8 8 0 0 1 7.3-4.61 14.5 14.5 0 0 0 9-3.69c2.38-2 4.93-3.71 7.41-5.55a2.17 2.17 0 0 1 1.06-.41c-3.66 4.43-7.52 8.71-8.78 14.46a32.88 32.88 0 0 0-8.69 4.75 11.73 11.73 0 0 0-2.33 3.14 26.92 26.92 0 0 0-4.36 11.21 7.62 7.62 0 0 1-.54 1.61Z"/><path class="cls-3" d="M185.09 299.85c-2.09 3.84-2.93 4-6.09 1.2-6.4-5.73-13.71-10.16-20.84-14.86-5.38-3.55-10.67-7.25-16.1-10.73a82 82 0 0 0-13.46-7.13A81.92 81.92 0 0 1 120 264a4.45 4.45 0 0 0-3.47-.71A1.81 1.81 0 0 1 114 262c-.16-.48-1-.74-1.51-1.11-.32-.23-.93-.59-.89-.72.14-.46.47-1.16.82-1.21a30 30 0 0 1 4.83-.36 2.32 2.32 0 0 1 1.6.91c3.31 4.38 8.3 6.4 13 8.45 13.26 5.83 25.37 13.55 37.37 21.51 4.24 2.82 8.42 5.71 12.65 8.53.97.63 2.07 1.18 3.22 1.85ZM230.61 266.15a2.37 2.37 0 0 1-2.34 2.25 4.16 4.16 0 0 0-4.34 4 2 2 0 0 1-1.11 1.19 22.16 22.16 0 0 1-2.37.58 21.21 21.21 0 0 0-4 1.44c-2.22 1.23-3.15 1.25-4.82-.74s-3.54-2.91-6.09-2.36a3.83 3.83 0 0 1 3.22-2.77c1.68-.31 3.34-.75 5-1a4.39 4.39 0 0 1 2.5.21c2.77 1.45 5.23.77 7.73-.67a27.48 27.48 0 0 1 4-1.91 10.26 10.26 0 0 1 2.62-.22Z"/><path class="cls-3" d="M122.49 261.62a5 5 0 0 1-.72-4.46 14.9 14.9 0 0 0 .3-2.61c.08-.73.17-1.45.28-2.36 1.43.81 2 1.63 1.42 2.95a5 5 0 0 0-.28 1.45c-.15 1.67-.28 3.35-.41 5ZM131 266.19a6.21 6.21 0 0 1-3.1-3.67c-.12-.39 0-1.22.16-1.27a2.94 2.94 0 0 1 1.76 0 1.77 1.77 0 0 1 .74 1.2c.17 1.22.26 2.46.44 3.74ZM122.87 267c-1 .9-2 1.71-2.91 2.55-.31.27-.54.66-.89.82a4 4 0 0 1-1.22.14c.06-.38 0-.84.2-1.11a14.64 14.64 0 0 1 2-2.34 2.14 2.14 0 0 1 2.82-.06ZM117.94 264.48c-1.69.84-2 3.15-4.1 3.23-.18-2.13 1.54-3.54 4.1-3.23ZM136.7 268.7a32.72 32.72 0 0 1-1.29-3.07c-.11-.36.25-.86.4-1.3.38.32 1 .58 1.09 1a25 25 0 0 1 .35 3.25ZM130 275.32c.18-2 1-2.56 3-2.26ZM125.21 271.86a2.42 2.42 0 0 1 2.82-2.25l-2.52 2.55Z"/><path d="M175.31 269.74c.3 1.29.62 2.58.88 3.87a56.54 56.54 0 0 0 7 18.75c.12.2.32.38.35.58a5.54 5.54 0 0 1-.06 1c-.31-.12-.77-.15-.91-.37-.78-1.27-1.56-2.55-2.22-3.89-3-6.05-4.29-12.59-5.58-19.13a2.24 2.24 0 0 1 .1-.76ZM187.54 287.23a4.92 4.92 0 0 1-.17-1.51 16.56 16.56 0 0 1 4.24-7.93c2.1-2.11 4.1-4.34 6-6.61a31.83 31.83 0 0 1 11.85-8.92c.87-.37 1.64-1 2.49-1.38a2.46 2.46 0 0 1 .95-.06c-.11.31-.14.77-.36.9a39.62 39.62 0 0 1-4 2.25 29.91 29.91 0 0 0-10.31 8.27 54.49 54.49 0 0 1-5.09 5.43 13.92 13.92 0 0 0-4.95 8.8 1.16 1.16 0 0 1-.13.37c-.06.07-.14.16-.52.39ZM168.31 310.16a5 5 0 0 1-1.16.65 22.57 22.57 0 0 0-10.21 5.72 52.9 52.9 0 0 1-5.16 4 7.73 7.73 0 0 1-1.63.71c-.09-.11-.17-.23-.25-.35a4.32 4.32 0 0 1 .58-.69c2.39-1.87 4.85-3.66 7.17-5.61a22.89 22.89 0 0 1 9.34-4.83 6.24 6.24 0 0 1 1.15-.07ZM163.39 298.33a20.89 20.89 0 0 1 9.17 1.87c-.29.29-.47.58-.58.56-2.9-.61-5.81-1.25-8.71-1.88Z"/><path class="cls-4" d="M156.07 333.63c-2.22 1.25-4.69 2.6-7.11 4a3.88 3.88 0 0 0-1.35 1.32c-2.18 3.61-4.57 7.11-5.21 11.45a10.81 10.81 0 0 1-1.54 4.15 4.11 4.11 0 0 1-6.19 1.13 20.87 20.87 0 0 1-4.27-4.68 11.27 11.27 0 0 0-4-3.94q-6.08-3.19-3.67-9.69a4.8 4.8 0 0 0 .09-3.65c-.83-2.19 1.29-5.11 3.87-5.64a17.68 17.68 0 0 0 2-.66c-.41-.55-.86-1.08-1.24-1.65a5.33 5.33 0 0 1-1.05-1.85c-1-7.09 2.79-11.5 9.5-10.89 2.6.24 4.33-1.13 6.38-2v-.36c-.64-.1-1.3-.15-1.93-.3-3.24-.76-6.31-1.78-8-5-1.13-2.12-1-4 .86-5.5a63.47 63.47 0 0 1 5.53-3.71c.79-.52 1.65-.95 2.47-1.44a8.76 8.76 0 0 0 4.54-6.6c.1-.76.29-1.51.44-2.27.34-1.83.84-3.56 3-4.55-4.77-3.15-9-6.66-14.28-8.42-1.08.91-2.15 1.88-3.3 2.76-.72.55-1.76.9-2.3.05a2.52 2.52 0 0 1 0-2.33 12.18 12.18 0 0 1 2.65-2.05c-1.4-1.36-2.72-1.31-4.23.31A7 7 0 0 1 126 273c-1.14.61-2.28-.16-2-1.4a17.43 17.43 0 0 1 1.64-3.31 4.22 4.22 0 0 0-1.8-.07 14.55 14.55 0 0 0-2.72 1.7c-.47.34-.79.88-1.24 1.26a2.15 2.15 0 0 1-3 .16 2.19 2.19 0 0 1 .26-3c.84-1 1.69-1.89 2.72-3-.49 0-.89-.15-1.11 0a10.17 10.17 0 0 0-1.58 1.28c-.42.4-.74.92-1.16 1.33-.9.89-2.46 1.15-3.09.47-.9-1-.41-1.94.15-2.86.24-.39.53-.74.84-1.16-.72-1.09-.87-2.65-2.72-2.76-.32 0-.92-1.05-.82-1.49a4.8 4.8 0 0 1 1.27-2.2c.33-.33 1.11-.22 1.69-.29a13.5 13.5 0 0 1 2.67-.26 12.62 12.62 0 0 1 2.94.66 6.55 6.55 0 0 1 1.43 1.07c.18-2 .29-3.73.5-5.44a5 5 0 0 1 .58-1.79 1.23 1.23 0 0 1 2-.43 3.49 3.49 0 0 1 1.42 3.81 15.45 15.45 0 0 0-.22 2.26 11.65 11.65 0 0 1-.28 2.38c-.76 2.44-.73 2.58 1.59 3.67.31.15.64.25 1.06.41-.11-.34-.17-.56-.24-.77-.36-1-.75-2.22.24-2.88a4 4 0 0 1 2.8-.44 2.68 2.68 0 0 1 1.88 2.58 23.41 23.41 0 0 0 .63 3.44c.44 1.63.51 1.62 2.6 2.15a15.57 15.57 0 0 1-.7-2.37c-.13-1.08 0-2.19 1.26-2.57s1.87.54 2.34 1.42c.83 1.55.56 3.23.45 4.6l13.9 7.48c0-.45 0-1.05-.05-1.65 0-3 1.78-4.69 4.75-4.36 1.21.14 2.41.44 3.61.7a2.63 2.63 0 0 0 2.89-1 56.43 56.43 0 0 0 9-17.49c.51-1.6 0-3.56-.17-5.34-.27-2.7-1-5.38-1-8.07a7.43 7.43 0 0 1 5.23-7.36 6.19 6.19 0 0 1 5.23.74c2.22 1.4 2.77 3.57.92 5.37-2.06 2-1.57 3.83-.48 5.86a27.78 27.78 0 0 0 1.95 3.1 5.53 5.53 0 0 0 3.72 2.3 12.15 12.15 0 0 1 6.5 3.15c2.62-2.7 6-3.27 9.53-3.88a31.89 31.89 0 0 0 5.87-1.74 9.72 9.72 0 0 0 4.71-4 14.56 14.56 0 0 1 6.35-5.78c2.22-1 4-.88 5.77.77a13.56 13.56 0 0 1 3.47 5.77 38.74 38.74 0 0 0 1.92 4.5 8.54 8.54 0 0 1 .8 6.33 13.68 13.68 0 0 0-.37 7.24c.25 1-.25 2.19-.43 3.28 0 .26-.22.5-.23.75-.07 2.32-.83 3.28-3 3.76a6.14 6.14 0 0 1-.93.19 2.47 2.47 0 0 0-2.46 2.44 3 3 0 0 1-2.66 2.85c-.85.17-1.72.24-2.54.49a14.71 14.71 0 0 0-3.11 1.23c-2.56 1.54-4.19 1.37-6.26-.84l-.83-.91c-1.65-1.72-3.82-2-5.57-.36a48.32 48.32 0 0 0-5.18 5.53 13.91 13.91 0 0 1-4.61 4.12 8.39 8.39 0 0 0-4.88 6.09c1.06-.92 2-1.78 2.94-2.53 2.84-2.16 5.91-2.17 8.58.16a5.25 5.25 0 0 1 1.64 3 9.29 9.29 0 0 0 3.08 6 21.32 21.32 0 0 1 2.51 2.69 6.08 6.08 0 0 1 1.44 4.83c-.46 2.87-1 5.73-1.71 8.54-.87 3.31-3.45 5.13-6.37 6.5a4 4 0 0 0-2.3 2.34c-1.1 3.25-3.07 5.55-6.67 6.1a7.67 7.67 0 0 1-2.51 5.32 7.84 7.84 0 0 0-1.62 2.47 9.33 9.33 0 0 1-8.2 6.23 33.84 33.84 0 0 0-5.05 1.06 12.93 12.93 0 0 1-10.4-1.78 39.61 39.61 0 0 1-4.94-3.62c-1.35-1.16-2.5-2.56-3.99-4.1Zm-.41-61.73a2.71 2.71 0 0 0-2.16 2.62c0 .76.15 1.55.05 2.3a1.49 1.49 0 0 0 .89 1.62c3.8 2.39 7.61 4.78 11.36 7.26 5.83 3.86 11.61 7.79 17.42 11.68 2.39 1.59 2.87 1.41 3.82-1.24.09-.26.15-.53.25-.78a2.23 2.23 0 0 0-.5-2.68c-3.1-3.29-3.64-7.25-2.34-11.41a57.37 57.37 0 0 1 3.31-8.18c1.28-2.6 3-5 4.36-7.54a17.73 17.73 0 0 0 2-5.16c.95-5.9-.7-8.34-6.11-9.54h-.13a7.19 7.19 0 0 1-5.37-3.59 41 41 0 0 1-2.49-5.12 3.24 3.24 0 0 1 .8-3.75 8.73 8.73 0 0 0 1-1.14c.88-1.36.66-2.33-.69-3.23a5.08 5.08 0 0 0-6.17.38 7 7 0 0 0-2.42 6.1 39.84 39.84 0 0 0 .9 6c.63 2.79 1 5.52-.15 8.28a72.87 72.87 0 0 1-7.47 14.5c-2.65 3.72-3 3.88-7.45 2.95-1.01-.23-2.05-.23-2.71-.33Zm32.62 20.47c.17-4.48 2.41-7.42 6.15-9.5a14.75 14.75 0 0 0 3.37-3.06c1.34-1.47 2.56-3.05 3.8-4.6A22.1 22.1 0 0 0 204 272a6.47 6.47 0 0 1 5.31-3.51 15.93 15.93 0 0 0 3.44-.71 5.26 5.26 0 0 1 4.36.14c1.86 1 3.6.61 5.33-.26a25.74 25.74 0 0 1 2.63-1.42 15.16 15.16 0 0 1 4.53-1.24c1.35 0 1.64-.59 1.78-1.59a3.63 3.63 0 0 0-.07-1.61 11.64 11.64 0 0 1 .25-7 7.48 7.48 0 0 0-.62-5.79c-.87-1.62-1.36-3.45-2.21-5.09a27.88 27.88 0 0 0-3-4.92 3.22 3.22 0 0 0-4.07-.77 13.38 13.38 0 0 0-6.09 5.42 10.1 10.1 0 0 1-5 4.29 57 57 0 0 1-7.69 2.16c-2.42.51-4.81.93-6.79 2.56a1.87 1.87 0 0 0-.77 2.2 11.15 11.15 0 0 1-.2 7 62.27 62.27 0 0 1-2.88 6c-1.53 2.83-3.3 5.54-4.72 8.43s-2.62 5.92-2.5 9.24c.06 2.66.59 5.19 3.26 6.84Zm-10 11.93a36.77 36.77 0 0 1 .2 4.73 8.08 8.08 0 0 1-1 2.89c-.36.72-1.09 1.25-1.46 2-2 3.74-1.6 6.14 1.83 7.75 4.09 1.92 8.37 3.47 12.61 5.06a5.4 5.4 0 0 0 4.58-.66c1.74-1 2.45-2.62 3.17-4.29a5 5 0 0 1 2.61-3c3.73-1.54 6.29-4.09 6.9-8.25a11.06 11.06 0 0 1 .36-1.73c1.44-4.6.38-8.36-3.5-11.35a7.3 7.3 0 0 1-2.72-5 6.28 6.28 0 0 0-.67-2.58 5.26 5.26 0 0 0-6.49-1.87 11.78 11.78 0 0 0-6.19 7.07 24.06 24.06 0 0 1-2.52 5.68c-1.61 2.62-3.56 5-7.71 3.55Zm-3.14 1.27c-2.18-.31-4.14-.71-6.12-.84-4.65-.32-9.19 0-13.07 3.07a15.89 15.89 0 0 1-10.44 3.2 5.91 5.91 0 0 0-3.54 1 9.34 9.34 0 0 1-7 2.11c-2.87-.25-5.6.84-6.67 3.72-1 2.71-1.89 5.64 1.11 8 1.32 1.07.67 2.69-1 3.14-.66.18-1.33.29-2 .52-1.74.61-3 2.69-2.34 4.19a4.93 4.93 0 0 1-.09 3.93c-1.41 3.95-.48 6.39 3.21 8.35a11.47 11.47 0 0 1 4.21 4.12 21.1 21.1 0 0 0 3.86 4.31 4.68 4.68 0 0 0 2.79.6c.93 0 1.28-.59 1.05-1.59a7 7 0 0 0-2.56-3.57 36.1 36.1 0 0 1-4.9-4.83c-2.16-2.85-1.23-5.81 2.1-7.09a7.24 7.24 0 0 0 3.95-3.7 42.47 42.47 0 0 1 3-4.88 6.43 6.43 0 0 1 5.13-2.95c4.81-.13 8.63-2.25 12.15-5.39 2.12-1.88 4.69-3.24 7-4.89a30.13 30.13 0 0 0 3.11-2.53c1.29-1.2 2.33-2.72 3.77-3.68a9.13 9.13 0 0 0 3.29-4.32Zm-25-23.51c-2.35 1.74-2.35 1.74-2.88 4.51-.08.44-.2.89-.25 1.34a10.16 10.16 0 0 1-5.62 8c-.79.45-1.62.83-2.38 1.32a58.64 58.64 0 0 0-5.14 3.55c-1.3 1.07-1.34 2.3-.58 3.8a7.25 7.25 0 0 0 3.36 3.25 20.53 20.53 0 0 0 7.11 1.67 16.12 16.12 0 0 0 11.83-2.93 16.47 16.47 0 0 1 6.26-2.81 27.54 27.54 0 0 1 13.48.7 1.92 1.92 0 0 0 1.25-.09c.93-.39 1.8-.89 2.67-1.33-8.67-8.38-19.57-13.79-29.16-20.98Zm26.58 23.8a13 13 0 0 0-1.11 1.6 9.38 9.38 0 0 1-3.17 3.43 23.58 23.58 0 0 0-4.22 4.36c-1.42 1.79-2.43 3.92-3.93 5.63a35.84 35.84 0 0 0-5.68 8.6c-1.45 3.08-1.31 4.17 1.29 6.42 1.44 1.25 3.1 2.22 4.58 3.42a12.13 12.13 0 0 0 11.61 2.4 19.71 19.71 0 0 1 4-.85c4-.29 6.36-2.45 7.75-6.06a15.57 15.57 0 0 1 1.79-2.53c.83-1.25 1.6-2.53 2.43-3.86a5.35 5.35 0 0 0-.73-.34c-4.66-.86-8.87-2.93-13.13-4.85a14.07 14.07 0 0 1-2.71-1.81 4.52 4.52 0 0 1-1.71-3.83 8.82 8.82 0 0 1 2.42-5.92 3.48 3.48 0 0 0 1.06-3.21c-.26-.79-.38-1.58-.59-2.6ZM140 353.15l.32-.09a7.62 7.62 0 0 0 .54-1.61 26.92 26.92 0 0 1 4.36-11.21 11.73 11.73 0 0 1 2.33-3.14 32.88 32.88 0 0 1 8.69-4.75c1.26-5.75 5.12-10 8.78-14.46a2.17 2.17 0 0 0-1.06.41c-2.48 1.84-5 3.59-7.41 5.55a14.5 14.5 0 0 1-9 3.69 8 8 0 0 0-7.3 4.61c-.38.68-.79 1.34-1.1 2a8.58 8.58 0 0 1-5.39 5.21 2.84 2.84 0 0 0-1.56 4.43 19.58 19.58 0 0 0 3.52 4.08c1.75 1.55 3.79 2.73 4.28 5.28Zm45.05-53.3c-1.15-.67-2.25-1.22-3.26-1.89-4.23-2.82-8.41-5.71-12.65-8.53-12-8-24.11-15.68-37.37-21.51-4.68-2.05-9.67-4.07-13-8.45a2.32 2.32 0 0 0-1.6-.91 30 30 0 0 0-4.83.36c-.35.05-.68.75-.82 1.21 0 .13.57.49.89.72.52.37 1.35.63 1.51 1.11a1.81 1.81 0 0 0 2.53 1.3 4.45 4.45 0 0 1 3.55.74 81.92 81.92 0 0 0 8.62 4.36 82 82 0 0 1 13.46 7.13c5.43 3.48 10.72 7.18 16.1 10.73 7.13 4.7 14.44 9.13 20.84 14.86 3.14 2.81 3.98 2.61 6.07-1.23Zm45.52-33.7a10.26 10.26 0 0 0-2.58.22 27.48 27.48 0 0 0-4 1.91c-2.5 1.44-5 2.12-7.73.67a4.39 4.39 0 0 0-2.5-.21c-1.7.23-3.36.67-5 1a3.83 3.83 0 0 0-3.22 2.77c2.55-.55 4.47.42 6.09 2.36s2.6 2 4.82.74a21.21 21.21 0 0 1 4-1.44 22.16 22.16 0 0 0 2.37-.58 2 2 0 0 0 1.11-1.19 4.16 4.16 0 0 1 4.34-4 2.37 2.37 0 0 0 2.34-2.25Zm-108.12-4.53h.59c.13-1.67.26-3.35.41-5a5 5 0 0 1 .28-1.45c.54-1.32 0-2.14-1.42-2.95-.11.91-.2 1.63-.28 2.36a14.9 14.9 0 0 1-.3 2.61 5 5 0 0 0 .76 4.43Zm8.47 4.57c-.14-1.28-.23-2.52-.44-3.74a1.77 1.77 0 0 0-.74-1.2 2.94 2.94 0 0 0-1.76 0c-.18.05-.28.88-.16 1.27a6.21 6.21 0 0 0 3.18 3.67Zm-8.09.78a2.14 2.14 0 0 0-2.79.06 14.64 14.64 0 0 0-2 2.34c-.2.27-.14.73-.2 1.11a4 4 0 0 0 1.22-.14c.35-.16.58-.55.89-.82.95-.84 1.89-1.65 2.92-2.52Zm-4.93-2.49c-2.56-.31-4.28 1.1-4.1 3.23 2.2-.08 2.45-2.39 4.14-3.23Zm18.76 4.22.55-.16a25 25 0 0 0-.35-3.25c-.08-.38-.71-.64-1.09-1-.15.44-.51.94-.4 1.3a32.72 32.72 0 0 0 1.33 3.11Zm-6.66 6.62 3-2.26c-2-.3-2.81.29-3 2.26Zm-4.8-3.46.3.3 2.52-2.55a2.42 2.42 0 0 0-2.81 2.25Z"/><path class="cls-3" d="M297.63 195.29c-.64 3.75-1.22 7.43-1.91 11.08-1.29 6.82-2.42 13.68-4.07 20.42a36.36 36.36 0 0 1-3.92 8.91c-7.59 13.57-17.05 25.81-27.35 37.39-8.34 9.39-17 18.45-25.29 27.91a210.77 210.77 0 0 0-13.91 17.77c-2.45 3.5-4 7.66-5.88 11.51-.25.5-.49 1-1 2-1.19-5.62-2.28-10.73-3.36-15.84a1.86 1.86 0 0 0-.05-.34c-1.73-4.14-.11-7.61 1.88-11.2 4.17-7.5 10-13.65 15.77-19.83a538.22 538.22 0 0 0 45.47-54.85c7.18-10 13.07-20.88 18.85-31.76 1.07-1.97 2.21-3.29 4.77-3.17Z"/><path class="cls-3" d="M292.24 196.52c-.4.78-.78 1.48-1.13 2.19-11.54 23.18-27 43.63-43.92 63-8.2 9.42-16.61 18.66-25 27.88A75.13 75.13 0 0 0 209.88 307c-.1.2-.25.36-.61.88-.74-3.54-1.45-6.74-2.07-10-.79-4.07-1.57-8.13-2.2-12.22a5.24 5.24 0 0 1 .55-3.11c2.42-4.53 5.9-8.25 9.57-11.77a365.22 365.22 0 0 0 36.82-40.53c5.47-7.12 10.31-14.71 15.45-22.08q3.61-5.17 7.37-10.37a1.87 1.87 0 0 1 1.26-.7c5.19-.29 10.37-.51 15.56-.75a3.5 3.5 0 0 1 .66.17ZM222.08 285c-1.89.16-9.58 9.43-9.15 11.06 3.34-3.62 6.66-6.98 9.15-11.06ZM294.65 176.09a4.92 4.92 0 0 0-.14-1.75c-.44-.87-.95-2.22-1.62-2.33a4 4 0 0 0-3.08 1 8.79 8.79 0 0 0-1.86 3.51 2.91 2.91 0 0 1-2.57 2.2c-6.05.93-12.1 1.87-18.14 2.9-8.16 1.38-16.31 2.84-24.47 4.28a60.37 60.37 0 0 0-22.62 9 14.6 14.6 0 0 1-7.9 2.35c-7.05.16-14.13 1.1-21.13-.29-2.58-.51-5-1.74-7.5-2.66a3.31 3.31 0 0 1-.87-.58c-2.81-2.27-2.79-4.06.23-5.92 4-2.46 8.56-3.36 13.06-4.35.46-.1 1.07.32 1.58.57 2 1 3.91 2.08 5.9 3.07a4.06 4.06 0 0 0 2 .57 3.24 3.24 0 0 0 2.24-.9 2.66 2.66 0 0 0-.11-2.36 25.68 25.68 0 0 0-2.92-3.27c.89-.29 1.68-.57 2.49-.81 14.89-4.38 29.79-8.72 44.66-13.15 4.52-1.34 8.91-3.17 13.47-4.35 6-1.57 12.15-2.86 18.28-4 4.63-.88 9.31-1.49 14-2a15.07 15.07 0 0 1 5 .63c4.74 1.16 7.24 4.44 8.16 9.06a4.11 4.11 0 0 1-2.6 4.62c-2.26 1.08-4.64 1.91-7 2.77-2.12.77-4.27 1.44-6.54 2.19Zm-33.14-6.23a8.85 8.85 0 0 0-1.6-2.55c-.38-.31-1.65-.05-2.15.38a13.23 13.23 0 0 0-4.64 9.55 4.11 4.11 0 0 0 1.27 3.13c1.2.86 2.44-.14 3.28-1.16a19.26 19.26 0 0 0 3.84-9.35Zm31.87-6.08a4.16 4.16 0 0 0-4.12-4.27 4.09 4.09 0 0 0-4.14 4.06 4.55 4.55 0 0 0 4.44 4.27 3.74 3.74 0 0 0 3.82-4.06ZM184.65 171.77a18.37 18.37 0 0 1 1.32-3c3-4.62 7.4-7.76 12.12-10.39 11.3-6.31 23.23-11.19 35.38-15.6 13.82-5 28.07-8.32 42.36-11.56 4.61-1.05 9.17-2.28 13.89-3.46 1 2 3.06 2.86 5.17 3.62a29.36 29.36 0 0 1 4 1.68c3 1.59 3.74 4.19 2.87 7.42a10.73 10.73 0 0 1-7.6 7.74 286.81 286.81 0 0 1-34 9c-5.06 1-10.13 2.3-14.67 5a2.89 2.89 0 0 1-1.36.21c-10.08.17-20 2-29.87 3.55-4.66.74-9.38 1.08-14.08 1.56a44 44 0 0 0-14.38 4.21c-.25.12-.52.2-.79.3Zm95.22-24.64a14.67 14.67 0 0 0 2.79-.71 1.86 1.86 0 0 0 .48-3.26 5.86 5.86 0 0 0-1.93-1.15c-3.36-1.13-6.75-2.18-10.12-3.28a2.82 2.82 0 0 0-3.53 1.47c-.74 1.37.31 2.49 1.42 3.19a25.55 25.55 0 0 0 10.89 3.74Zm-54.51 14.93h1.22c1.56-.08 3.2-.32 3.7-2 .54-1.87-1-2.81-2.35-3.4-3.15-1.34-6.35-2.58-9.6-3.65a4.45 4.45 0 0 0-4.82 2.33c-.53 1.55.27 3.05 2.33 4.17a21.27 21.27 0 0 0 9.52 2.55ZM219 354c-.66-3-1.38-6.2-2.07-9.4-.41-1.89-.64-3.82-1.22-5.65-.83-2.57-.23-4.83.69-7.26 4.21-11.09 11.44-20.16 19.15-28.89 9.89-11.2 20-22.18 29.86-33.44a209.58 209.58 0 0 0 23.79-33.3c.16-.28.37-.54.79-1.14-1 5.7-1.91 11-2.77 16.25-.82 5-1.43 10.05-2.39 15a16.57 16.57 0 0 1-2.22 5.58c-10.38 16.59-23.36 31-37.16 44.78-8.3 8.26-16.23 16.83-21.83 27.23-1.73 3.33-3.06 6.86-4.62 10.24Z"/><path class="cls-3" d="M204.13 281.17c-.66-4.25-1.3-8.19-1.9-12.14-.41-2.66-.64-5.34-1.21-8a5.55 5.55 0 0 1 1-5.06c2.06-2.53 3.92-5.25 6.17-7.59a617.19 617.19 0 0 0 45-52.11 2.27 2.27 0 0 1 1.66-.86c6 .57 12.06 1.25 18.27 1.92-.22.4-.44.9-.74 1.35-5.33 7.88-10.44 15.92-16.06 23.6a308.62 308.62 0 0 1-29.07 34.1c-5 5-10.05 9.94-14.92 15.06-2.64 2.78-4.94 5.89-7.4 8.85-.21.25-.39.44-.8.88Zm51-63.57a15.56 15.56 0 0 0-1.41 1.33q-4.74 6.06-9.45 12.15a13.28 13.28 0 0 0-.91 1.68c2.18-.21 11.35-11.92 11.73-15.16ZM231.9 247l.4.32a9.54 9.54 0 0 0 1.35-1.08c2.19-2.56 4.37-5.13 6.5-7.74a4.54 4.54 0 0 0 .5-1.48c-.52.2-1.21.26-1.52.63-2.23 2.6-4.4 5.26-6.55 7.93a6.42 6.42 0 0 0-.68 1.42ZM223.24 371.44c-.54-2.18-1-4.08-1.47-6-.58-2.38-1.32-4.74-1.67-7.16a12 12 0 0 1 .58-3.78c.08-.38.4-.71.53-1.1 3.51-10.39 9.8-19.06 17.07-27 8.57-9.41 17.55-18.44 26-27.94 6.72-7.52 13.21-15.28 18.57-23.89a1.8 1.8 0 0 1 1-.78l-3.33 19.08a33.52 33.52 0 0 0-.72 3.78c-.42 6.17-3.49 11.11-7.06 15.87-7.58 10.12-16.13 19.38-24.76 28.57a250 250 0 0 0-23.78 29.15c-.2.31-.47.6-.96 1.2Zm2.28-7.69.85.61c2.56-3.82 4.92-7.78 7.72-11.42s6.06-7 9.11-10.42l-.35-.29c-7.32 5.96-12.8 13.37-17.33 21.52Zm22.82-27.11.43.45a4.91 4.91 0 0 0 1.18-.77q3.41-4 6.71-8.05c.25-.32.16-.91.24-1.37-.48.2-1.1.28-1.41.64-2.18 2.57-4.31 5.19-6.43 7.82a7.27 7.27 0 0 0-.72 1.28ZM283.1 95c1.58 1.22 3.2 2.28 4.6 3.57 3.06 2.84 3.33 6.73-.1 10.38-1.89 2-4.59 3.32-7.08 4.65a32.31 32.31 0 0 1-5.9 2.19 35.19 35.19 0 0 0-11.78 6.73 5.24 5.24 0 0 1-2.27 1.19c-13.4 2.29-26.57 5.64-39.66 9.29-1.18.33-1.86.3-2.51-.94-1-1.89-3.47-3.2-5.09-2.72a6.72 6.72 0 0 0-5.09 5.25 2 2 0 0 1-1.83 1.86c-1.93.37-3.82.88-6 1.39a36.24 36.24 0 0 1 6.86-11.62c5.8-6.34 13-10.61 20.78-13.92 11.45-4.84 23.43-7.83 35.55-10.36a3 3 0 0 1 .62 0v3.83a4.1 4.1 0 0 0 0 .7c.21 1.39.29 3 2 3.33s2.7-1.07 3.16-2.46a26.56 26.56 0 0 0 1.15-5.45 1.88 1.88 0 0 1 1.59-1.89c3.9-1.15 7.9-1.83 11-5Zm-35.65 18.89c0-2.2-2-3.3-3.59-2.15-2.82 2-5.49 4.31-8.12 6.61a5.92 5.92 0 0 0-1.51 2.52 1.91 1.91 0 0 0 2 2.65 3.9 3.9 0 0 0 1.68-.39 25.19 25.19 0 0 0 8.43-7 10.64 10.64 0 0 0 1.11-2.29Z"/><path class="cls-3" d="M271.05 99.08c-.25-1.5-.33-2.32-.53-3.1a3 3 0 0 0-2.93-2.56c-1.52 0-2.22 1.1-2.38 2.54 0 .29-.23.57-.21.85.24 3-1.56 3.71-4.14 4.24-12.82 2.64-25.49 5.92-37.3 11.73a79 79 0 0 0-11.45 7 37.16 37.16 0 0 0-12.92 17.09c-.41 1.07-1 1.88-2.61 1.41a22.44 22.44 0 0 1 1-2.68 4.84 4.84 0 0 0-.59-5.7c-2.77-3.51-3.11-7.44-1.82-11.58a20.88 20.88 0 0 1 7.4-10.59c6.74-5.18 14.48-8.19 22.54-10.54 1-.28 1.31.18 1.77.88a7.58 7.58 0 0 0 7.43 2.88 6.12 6.12 0 0 0 4.57-5.57c.16-1.46 1.13-1.23 2-1.36 5.13-.79 10.37-1.14 15.37-2.42 6.31-1.61 12.44-4 18.64-6 .55-.19 1.08-.44 1.62-.66 2.86-1.16 4.17-1.09 5.12 3a22.59 22.59 0 0 1 .33 5.4 2.07 2.07 0 0 1-1.12 1.41c-3.15 1.45-6.34 2.81-9.79 4.33ZM227.47 388.86c-1.2-4.94-2.41-9.61-3.39-14.33-.17-.78.51-1.9 1.07-2.65 5.53-7.3 10.83-14.8 16.76-21.77 8.77-10.3 18-20.18 27-30.32 2.51-2.84 4.68-6 7-9a4 4 0 0 1 1.27-1.22q-2.16 10.33-4.33 20.68a30.19 30.19 0 0 0-.76 3.59c-.45 4.65-2.62 8.44-5.45 12.06-6.73 8.6-13.71 16.95-21.8 24.36-4.9 4.48-9.37 9.43-14 14.23-1.16 1.28-2.12 2.75-3.37 4.37ZM185 167.16c.19-.81.26-1.42.46-2a4.83 4.83 0 0 0-1.44-5.4c-2.84-2.82-3.28-6-1.22-9.5a20.56 20.56 0 0 1 12.69-9.56c3.69-1.06 7.46-1.83 11.2-2.73.79-.19 1.45-.43 2.05.59 1.42 2.36 4.17 3.69 6.36 3.05 2.58-.75 3.84-2.78 4.23-5.3a1.71 1.71 0 0 1 1.54-1.71c13-3 26-6.3 39-9.12 7.28-1.57 14.7-2.55 22.09-3.53a11.57 11.57 0 0 1 5.5 1.05c.88.35 1.34 1.72 2.19 2.92-2.27.65-4.09 1.22-5.94 1.69-12.95 3.29-26 6.22-38.83 9.92A235.06 235.06 0 0 0 199.52 156c-5.24 2.79-10.14 6-13.89 10.75a3.29 3.29 0 0 1-.63.41ZM200.31 255.62c-.91-5.28-1.63-10.34-2.72-15.33a6.2 6.2 0 0 1 1.51-5.75c7.86-9.94 15.53-20 23.28-30 1.68-2.17 3.39-4.31 5.12-6.44.31-.39.76-.88 1.18-.93 7.07-.69 14.15-1.33 21.23-2a12.07 12.07 0 0 1 1.91.16c-.46.67-.78 1.17-1.13 1.64-13.35 17.85-28.34 34.28-43.62 50.46-2.11 2.24-3.93 4.77-5.89 7.16-.18.28-.48.57-.87 1.03Zm25.55-33.68-.36-.45a15 15 0 0 0-1.82 1.53q-9 10.33-18 20.7c-1 1.09-2 2.14-2.88 3.28a10.5 10.5 0 0 0-.95 1.93c1.99-.57 23.44-24.93 24.01-26.99ZM251 49.56a9.92 9.92 0 0 1 7 .11 18.4 18.4 0 0 1 10.74 10c1.14 2.56 0 5.81-2.9 8.29-1.13-1.07-2.28-1.9-4.1-1.21-1.2.45-1.69 1.11-1.51 2.14.45 2.43-.72 3.94-2.17 5.79-3.42 4.36-7.86 7.24-12.49 10-2.76 1.63-5.4 3.46-8.14 5.13a1.77 1.77 0 0 1-1.5.09c-3.69-2.33-9.24.34-9.84 4.53a1.67 1.67 0 0 1-.84 1.13c-5.15 1.83-10.32 3.61-15.56 5.42a10.51 10.51 0 0 1 2.24-8.52 44.19 44.19 0 0 1 4.76-5.11c3-2.82 6.22-5.49 9.31-8.25a3.38 3.38 0 0 1 2.83-.85c3.07.27 6.16.27 9.25.36a4.62 4.62 0 0 0 1-.17c1.33-.29 2.53-.81 2.68-2.35s-1.14-2.16-2.36-2.63c-1-.36-1.94-.61-3.33-1 1.89-1 3.4-1.82 5-2.58 4.42-2.13 8.33-4.83 11.13-9 3.01-4.64 2.8-7.65-1.2-11.32Z"/><path class="cls-3" d="M286.56 180.14c-.24 1-.51 2-.71 3a14.36 14.36 0 0 0-.34 2.6c0 1.25.1 2.78 1.54 3a3.62 3.62 0 0 0 2.9-1.32 23.37 23.37 0 0 0 3.29-6.49c.68-2.47 2-3.52 4.32-4.24 4.44-1.34 8.75-3.11 13.28-4.76-.56 1.61-1.25 3.41-1.82 5.25a28.29 28.29 0 0 0-1.3 5c-.43 3.71-1.88 6.62-5.2 8.61a31.06 31.06 0 0 1-15.74 4.11c-6.71.12-13.42.24-20.12 0-4.6-.15-9.17-.88-13.75-1.37-6.82-.72-13.51.39-20.22 1.26l-10.39 1.36-.24-.57c3.17-1.61 6.19-3.68 9.53-4.74a149.23 149.23 0 0 1 17.78-4.49c12.21-2.29 24.49-4.23 36.73-6.31a1.6 1.6 0 0 1 .46.1ZM232.74 407.26c-1.28-4.27-2.46-8.59-3.89-12.81a5.53 5.53 0 0 1 1-5.83c4.26-4.86 8.28-10 13-14.43a228.18 228.18 0 0 0 26.3-29.28c.1-.13.25-.23.67-.62-.41 2-.74 3.63-1.09 5.28s-.7 3.31-1.1 4.95c-1.21 5.05-2.36 10.11-3.72 15.12a12.27 12.27 0 0 1-2.27 4.64q-7.62 9-15.54 17.79c-4.47 4.95-10 9-12.92 15.25Zm27.72-36-17.36 19.87c2.59-.36 17.49-17.02 17.36-19.86ZM257.09 164c-3.89 1.2-7.76 2.43-11.66 3.59-13.36 4-26.73 7.89-40.08 11.9a4.09 4.09 0 0 1-4.19-.64 53.08 53.08 0 0 0-4.7-3 2.59 2.59 0 0 0-3.62.44c-1.05 1.14-1.42 2.45-.4 3.8.58.78 1.31 1.47 2.06 2.3-4.72 1.42-9.73 2.36-14 5.63.34-3.19.58-6.13 1-9.05a5.83 5.83 0 0 1 2.92-4.16c5.24-3.33 11.05-4.87 17.13-5.68 9.07-1.2 18.12-2.54 27.2-3.66 4.68-.58 9.4-.91 14.11-1.21s9.43-.41 14.15-.6ZM225.61 77.52c-3 2.58-5.86 4.94-8.56 7.5a71.54 71.54 0 0 0-6.7 7.12c-2.26 2.84-2.74 6.24-1.93 9.92l-2 1.23c-3.44-2.32-4.48-7.85-2.13-11.7.75-1.23 1.92-2.19 2.74-3.39s1.74-2.28 1.79-3.46c.37-9.21 5.88-14.84 13.39-18.64 4.31-2.17 9.22-3.19 13.88-4.65 2.34-.73 4.77-1.16 7.08-2 4.49-1.54 5.47-3.27 5.09-8.51a3.31 3.31 0 0 1 3.74 1.65 4.88 4.88 0 0 1 .26 5.46c-2 3.39-4.45 6.43-8 8.36-3.23 1.75-6.45 3.53-9.71 5.23a4.6 4.6 0 0 1-2 .33c-1.75 0-3.5-.1-5.25-.07-1.51 0-3 .32-3.63 1.91s.54 2.68 1.94 3.71ZM225.85 197.62c-9.65 12.55-19.21 25-29 37.82-1.08-5.15-1.93-9.78-3-14.35a4.53 4.53 0 0 1 1.34-4.86 77.76 77.76 0 0 0 11.59-15.5 3 3 0 0 1 2.78-1.6c5.31-.4 10.69-.98 16.29-1.51ZM237.49 420.7c-1.16-3.27-2.41-6.7-3.57-10.16a2 2 0 0 1 .29-1.48c1.69-2.64 3.15-5.5 5.21-7.81 6.19-6.91 12.64-13.58 19-20.38a41.52 41.52 0 0 1 3.81-4c-.48 2-.92 4-1.45 6-1.74 6.59-3.48 13.19-5.33 19.75a8 8 0 0 1-1.85 3.29c-2.16 2.28-4.47 4.43-6.79 6.55-3.05 2.77-6.13 5.42-9.32 8.24ZM260.38 74.31c.66 1.76 1.12 3.27 1.79 4.68a2.27 2.27 0 0 0 2.7 1.44 2.38 2.38 0 0 0 1.82-2.65c0-2.27-.19-4.54-.15-6.81a3.29 3.29 0 0 1 .76-2.08 11 11 0 0 0 3.39-6.53c2.78 1.21 4.77 3.08 5.32 6A33.66 33.66 0 0 1 277 77c-.17 2.32-1.46 4.58-2.35 6.83-.12.32-.76.49-1.18.65-10.1 3.92-20.41 7-31.28 7.77-1 .07-2.08.3-3.13.35a1.15 1.15 0 0 1-.94-.51 1.11 1.11 0 0 1 .28-1 23.28 23.28 0 0 1 2.68-2c3.33-2 6.83-3.84 10-6.09a77.72 77.72 0 0 0 7.16-6.33c.76-.67 1.36-1.49 2.14-2.36Z"/><path class="cls-3" d="M232.17 60.85c-2.75-6.47-1.2-12.06 2.72-16.81 2.8-3.41 6.54-6 10-9.15.19.52.28.64.25.71-2.14 5.56-.82 10.88 1.07 16.18 1 2.9.44 4.61-2.49 5.66-3.72 1.33-7.59 2.26-11.55 3.41Z"/><path class="cls-3" d="M244.91 33.47c-1.37 1.13-2.76 2.26-4.12 3.42-2.26 1.92-4.77 3.64-6.7 5.86a18.3 18.3 0 0 0-4.57 14.58 25.06 25.06 0 0 0 1 3.67c-1.74.6-3.47 1.29-5.25 1.78-1.36.38-3.05-.92-3.57-2.7a10.75 10.75 0 0 1 1.94-10.21 27 27 0 0 0 3.16-5.15 15.14 15.14 0 0 1 5.2-6.44A37.3 37.3 0 0 1 244.6 33c.11.15.21.31.31.47ZM299.6 147.19c.64 2.64.93 5.1-1.24 7.1a2.23 2.23 0 0 1-1.28.67c-7.52.31-14.77 2.12-22 4a110.78 110.78 0 0 1-21.26 3 24.53 24.53 0 0 1-4.61 0 13.57 13.57 0 0 1 1.51-.54c7.57-1.89 15.18-3.64 22.71-5.67 7.25-2 14.44-4.16 21.63-6.36a33.08 33.08 0 0 0 4.54-2.2ZM205.63 199.6a106.18 106.18 0 0 1-12.75 17c-1.09-6.14-2.09-11.82-3.11-17.55ZM253.52 408.73c-1.12 3.2-2 5.95-3 8.66a61.64 61.64 0 0 1-3.07 7.24 12.93 12.93 0 0 1-3.1 3.35 2.25 2.25 0 0 1-1.81 0c-2.24-.76-3.07-2.74-3.77-4.75a1.47 1.47 0 0 1 .33-1.18 62.26 62.26 0 0 1 4.65-5c3.02-2.67 6.25-5.29 9.77-8.32ZM265.49 122.16a62.16 62.16 0 0 1 6.42-3.68c5.11-2.2 10.66-3.35 15.28-6.77a7 7 0 0 1-.84 6.19 4.89 4.89 0 0 1-4.22 2.44c-5.14.48-10.24 1.44-15.36 2.2l-1 .16ZM227.77 95.33c0-2.8 2.41-4.39 4.79-4.56s4.68 2.21 4.68 4.81c0 2-2.25 4-4.36 4-2.73-.03-5.11-2.02-5.11-4.25ZM217.85 135.49c-.06 2.44-1.92 4.75-3.81 4.74a4.49 4.49 0 0 1-4.3-4.75c0-1.93 2.32-4.5 4-4.51 2.01.03 4.16 2.37 4.11 4.52ZM291.32 126.58c-.67-2.74-1.82-5-4.48-6l2.68-5.67a4.77 4.77 0 0 1 4.83 4c.81 3.36-.18 5.97-3.03 7.67ZM240.23 76.34a9.4 9.4 0 0 1-2.74.68c-3.46-.2-6.92-.58-10.37-.92a1.62 1.62 0 0 1-1-.39 9.65 9.65 0 0 1-1-1.27c.42-.27.84-.77 1.27-.77 2.6 0 5.22 0 7.82.18a21.83 21.83 0 0 1 4.25.93 9.47 9.47 0 0 1 1.77.89c.02.22.01.44 0 .67ZM287.33 187.28a6.9 6.9 0 0 1-.14-2.1c.95-3.23 2-6.43 3-9.63a3.63 3.63 0 0 1 .92-1.46 1.59 1.59 0 0 1 1.24-.35c.23 0 .54.66.5 1-.53 4.43-1.64 8.66-4.67 12.14-.11.12-.37.18-.85.4ZM206.66 186.19a7.59 7.59 0 0 1-1.83-.38c-3.42-2-6.83-4-10.23-6-.29-.17-.65-.46-.7-.74a2.25 2.25 0 0 1 .14-1.53 1.37 1.37 0 0 1 1.3-.34q5.31 3.68 10.51 7.5c.31.2.41.72.81 1.49ZM266.33 108.47a11.57 11.57 0 0 1-.48-2.55c.19-3.09.44-6.17.79-9.23.07-.56.68-1 1-1.56.47.53 1.31 1.05 1.34 1.6a38.13 38.13 0 0 1-.18 6.41 20.25 20.25 0 0 1-1.3 4.3c-.07.32-.5.5-1.17 1.03ZM265.2 74.88a26.55 26.55 0 0 1 0 3 1.5 1.5 0 0 1-.77 1c-.14.08-.81-.36-.87-.64-.61-3-1.19-6-1.65-9-.05-.29.85-1.06 1.15-1 .58.15 1.37.67 1.48 1.17.42 1.79.58 3.64.85 5.47ZM201.67 99.62l2.68 4.93-2.69 1.94c-2.53-1.26-2.5-4.68.01-6.87ZM268.35 54.83l-5.62-5a4.16 4.16 0 0 1 4.74.42 4 4 0 0 1 .88 4.58ZM259.28 168.77c.94 3-1.56 9-4.13 10.16-1.3-2.67.91-8.22 4.13-10.16ZM291.83 163.92a2.19 2.19 0 0 1-2.27 2.33 2.91 2.91 0 0 1-2.89-2.68 2.75 2.75 0 0 1 2.41-2.55 3.2 3.2 0 0 1 2.75 2.9ZM282 145.05c-.94.13-2 .58-2.8.32-3-.91-5.91-2-8.81-3.16-.51-.2-.77-1-1.15-1.51a5.1 5.1 0 0 1 1.9-.2c3 .93 6.07 2 9.09 3a13.42 13.42 0 0 1 1.8.94ZM225.5 161c-2.95-1-5.92-2-8.83-3.05-.89-.34-2.12-1.12-1.4-2.16a3.42 3.42 0 0 1 2.9-1.28 95.37 95.37 0 0 1 9.28 3.5c.55.23.89 1 1.32 1.46a16.51 16.51 0 0 1-1.9 1 3.55 3.55 0 0 1-1.22 0ZM246.24 113.13a8.89 8.89 0 0 1-1.26 2.35q-3.67 3.18-7.53 6.14c-.38.3-1.16.09-1.75.12.13-.54.08-1.26.42-1.57 2.59-2.39 5.23-4.74 7.94-7 .35-.3 1.15-.04 2.18-.04Z"/><path d="M200 107.75c-2.58-3.8-2.29-6.27 1-9.63a1.67 1.67 0 0 0 .44-1.2 10.69 10.69 0 0 1 3.6-9 7.65 7.65 0 0 0 2.4-5.58 16.71 16.71 0 0 1 4.13-9.85 32.59 32.59 0 0 1 11-8.58c-2.67-2.17-3-5.05-2.92-8.1a11.78 11.78 0 0 1 3.46-7.81 6.93 6.93 0 0 0 1.56-2.49c1.76-5.49 5.66-8.94 10.74-11.08a101.5 101.5 0 0 1 10.29-3.39 2.36 2.36 0 0 1 2 .37c.35.42.22 1.42 0 2.09-.56 2.07-1.37 4.09-1.85 6.18-.76 3.26.21 6.33 1.27 9.54.55-.22 1-.35 1.38-.54a12.8 12.8 0 0 1 10.69-.42 3.13 3.13 0 0 0 2.78 0 5.81 5.81 0 0 1 6.66 1.07 5.63 5.63 0 0 1 1 6.49c-.82 1.77.84 2.85 1.5 4.19a2.39 2.39 0 0 0 1 .94c4.72 2.52 6 6.89 6.37 11.74.28 3.38.54 6.77-1.09 9.62 1.42.56 3.2.72 4 1.69 1.08 1.38 1.45 3.34 2 5.08a3.92 3.92 0 0 1 0 1.74 3.48 3.48 0 0 0 2.2 3.94 10.26 10.26 0 0 1 1.86 1.31c4.45 3.53 5.26 7.26 2.7 12.33-1.17 2.6-1.17 2.6-.82 4.6 7.88 2.11 9.25 8.55 3.08 15.27.76.38 1.45.77 2.19 1.07 1.13.46 2.31.82 3.44 1.29 5.56 2.28 7.16 6.09 4.86 11.65a14.37 14.37 0 0 0-1.26 7.12c.17 1.83-.6 3.76-1 5.8-.18-.06 0 0 .23.06 8.54 1 12.73 8.11 11.6 16.33a7.72 7.72 0 0 1-.23 1.2 140 140 0 0 0-3.76 13.55c-.74 3.68-4 5.64-7.26 7.09a3.37 3.37 0 0 0-2.18 2.8c-3.14 17.16-6.46 34.28-9.47 51.45-1.91 10.91-3.28 21.92-5.05 32.85-1.18 7.31-2.53 14.6-4 21.86-2.28 11.61-4.54 23.14-7.18 34.61-4.68 20.4-9.33 40.81-14.55 61.07-2.32 9-6 17.66-9.08 26.47a14.43 14.43 0 0 1-.77 1.76c-.94 1.87-2.27 3.29-4.48 3.48-3 .25-5.47-.51-6.68-3.52-1.88-4.65-3.78-9.3-5.47-14-4.08-11.45-6.86-23.27-9.8-35.05-6.91-27.74-12.62-55.75-18.06-83.8-2.28-11.73-3.75-23.62-5.76-35.4-2.19-12.82-4.57-25.6-6.88-38.4-1.2-6.66-2.37-13.32-3.65-20a3 3 0 0 0-1.39-1.63c-1.18-.73-2.52-1.2-3.73-1.9-3.25-1.88-4.87-4.72-4.36-8.47s1.25-7.55 2-11.29a3.88 3.88 0 0 1 1.4-2.11 2.82 2.82 0 0 0 1.12-2.82 19.15 19.15 0 0 1 .54-5.5c.6-2.28.31-4-1.54-5.62-2.63-2.32-3-6.53-1.17-10.21a21.33 21.33 0 0 1 9-8.86 3.45 3.45 0 0 1 .47-.24c1.5-.64 3.37-.91 4.41-2s1.18-2.84 1.46-4.35a4.81 4.81 0 0 0-.23-3.09c-4.68-7.83-4.13-14.63 1.9-21.64.63-.72 1.31-1.42 1.94-2.13Zm97.6 87.54c-2.56-.12-3.7 1.2-4.72 3.12-5.78 10.88-11.67 21.72-18.85 31.76A538.22 538.22 0 0 1 228.59 285c-5.78 6.18-11.6 12.33-15.77 19.83-2 3.59-3.61 7.06-1.88 11.2a1.86 1.86 0 0 1 .05.34c1.08 5.11 2.17 10.22 3.36 15.84.46-1 .7-1.45 1-2 1.93-3.85 3.43-8 5.88-11.51a210.77 210.77 0 0 1 13.86-17.7c8.26-9.46 16.95-18.52 25.29-27.91 10.3-11.58 19.76-23.82 27.35-37.39a36.36 36.36 0 0 0 3.92-8.91c1.65-6.74 2.78-13.6 4.07-20.42.69-3.65 1.28-7.37 1.91-11.08Zm-5.39 1.23a3.5 3.5 0 0 0-.66-.17c-5.19.24-10.37.46-15.56.75a1.87 1.87 0 0 0-1.26.7q-3.73 5.2-7.34 10.43c-5.14 7.37-10 15-15.45 22.08a365.22 365.22 0 0 1-36.82 40.53c-3.67 3.52-7.15 7.24-9.57 11.77a5.24 5.24 0 0 0-.55 3.11c.63 4.09 1.41 8.15 2.2 12.22.62 3.22 1.33 6.42 2.07 10 .36-.52.51-.68.61-.88a75.13 75.13 0 0 1 12.28-17.38c8.42-9.22 16.83-18.46 25-27.88 16.91-19.42 32.38-39.87 43.92-63 .38-.8.76-1.5 1.16-2.28Zm2.41-20.43c2.27-.75 4.42-1.42 6.54-2.19 2.35-.86 4.73-1.69 7-2.77a4.11 4.11 0 0 0 2.6-4.62c-.92-4.62-3.42-7.9-8.16-9.06a15.07 15.07 0 0 0-5-.63c-4.69.49-9.37 1.1-14 2-6.13 1.17-12.24 2.46-18.28 4-4.56 1.18-8.95 3-13.47 4.35-14.85 4.44-29.75 8.83-44.64 13.16-.81.24-1.6.52-2.49.81a25.68 25.68 0 0 1 2.92 3.27 2.66 2.66 0 0 1 .11 2.36 3.24 3.24 0 0 1-2.24.9 4.06 4.06 0 0 1-2-.57c-2-1-3.93-2.06-5.9-3.07-.51-.25-1.12-.67-1.58-.57-4.5 1-9.06 1.89-13.06 4.35-3 1.86-3 3.65-.23 5.92a3.31 3.31 0 0 0 .87.58c2.49.92 4.92 2.15 7.5 2.66 7 1.39 14.08.45 21.13.29a14.6 14.6 0 0 0 7.9-2.35 60.37 60.37 0 0 1 22.62-9c8.16-1.44 16.31-2.9 24.47-4.28 6-1 12.09-2 18.14-2.9a2.91 2.91 0 0 0 2.57-2.2 8.79 8.79 0 0 1 1.86-3.51 4 4 0 0 1 3.08-1c.67.11 1.18 1.46 1.62 2.33a4.92 4.92 0 0 1 .15 1.74Zm-110-4.32.41.24c.27-.1.54-.18.79-.3a44 44 0 0 1 14.38-4.21c4.7-.48 9.42-.82 14.08-1.56 9.91-1.58 19.79-3.38 29.87-3.55a2.89 2.89 0 0 0 1.36-.21c4.54-2.69 9.61-4 14.67-5a286.81 286.81 0 0 0 34-9 10.73 10.73 0 0 0 7.6-7.74c.87-3.23.09-5.83-2.87-7.42a29.36 29.36 0 0 0-4-1.68c-2.11-.76-4.15-1.58-5.17-3.62-4.72 1.18-9.28 2.41-13.89 3.46-14.29 3.24-28.54 6.56-42.36 11.56-12.15 4.41-24.08 9.29-35.38 15.6-4.74 2.66-9.11 5.77-12.11 10.39a18.37 18.37 0 0 0-1.35 3.04ZM219 354c1.52-3.39 2.85-6.92 4.62-10.21 5.6-10.4 13.53-19 21.83-27.23 13.8-13.75 26.78-28.19 37.16-44.78a16.57 16.57 0 0 0 2.22-5.58c1-5 1.57-10 2.39-15 .86-5.28 1.79-10.55 2.77-16.25-.42.6-.63.86-.79 1.14a209.58 209.58 0 0 1-23.79 33.3c-9.82 11.26-20 22.24-29.86 33.44-7.71 8.73-14.94 17.8-19.15 28.89-.92 2.43-1.52 4.69-.69 7.26.58 1.83.81 3.76 1.22 5.65.73 3.18 1.45 6.37 2.07 9.37Zm-14.91-72.84c.41-.44.59-.63.76-.84 2.46-3 4.76-6.07 7.4-8.85 4.87-5.12 10-10 14.92-15.06a308.62 308.62 0 0 0 29.07-34.1c5.62-7.68 10.73-15.72 16.06-23.6.3-.45.52-.95.74-1.35-6.21-.67-12.24-1.35-18.27-1.92a2.27 2.27 0 0 0-1.66.86 617.19 617.19 0 0 1-45 52.11c-2.25 2.34-4.11 5.06-6.17 7.59a5.55 5.55 0 0 0-1 5.06c.57 2.62.8 5.3 1.21 8 .68 3.94 1.32 7.86 1.98 12.11Zm19.11 90.27c.49-.6.76-.89 1-1.21a250 250 0 0 1 23.8-29.14c8.63-9.19 17.18-18.45 24.76-28.57 3.57-4.76 6.64-9.7 7.06-15.87a33.52 33.52 0 0 1 .72-3.78l3.33-19.08a1.8 1.8 0 0 0-1 .78c-5.36 8.61-11.85 16.37-18.57 23.89-8.46 9.5-17.44 18.53-26 27.94-7.27 8-13.56 16.65-17.07 27-.13.39-.45.72-.53 1.1a12 12 0 0 0-.58 3.78c.35 2.42 1.09 4.78 1.67 7.16.44 1.93.91 3.83 1.45 6.01ZM283.1 95c-3.1 3.22-7.15 3.9-11 5a1.88 1.88 0 0 0-1.56 1.92 26.56 26.56 0 0 1-1.15 5.45c-.46 1.39-1.4 2.79-3.16 2.46s-1.78-1.94-2-3.33a4.1 4.1 0 0 1 0-.7v-3.83a3 3 0 0 0-.62 0c-12.12 2.53-24.1 5.52-35.55 10.36-7.82 3.31-15 7.58-20.78 13.92a36.24 36.24 0 0 0-6.86 11.62c2.16-.51 4.05-1 6-1.39a2 2 0 0 0 1.83-1.86 6.72 6.72 0 0 1 5.09-5.25c1.62-.48 4.12.83 5.09 2.72.65 1.24 1.33 1.27 2.51.94 13.09-3.64 26.26-7 39.66-9.33a5.24 5.24 0 0 0 2.27-1.19 35.19 35.19 0 0 1 11.78-6.73 32.31 32.31 0 0 0 5.9-2.19c2.49-1.33 5.19-2.64 7.08-4.65 3.43-3.65 3.16-7.54.1-10.38-1.43-1.33-3.05-2.39-4.63-3.56Zm-12.05 4.13c3.45-1.52 6.64-2.88 9.77-4.34a2.07 2.07 0 0 0 1.12-1.41 22.59 22.59 0 0 0-.33-5.4c-.95-4-2.26-4.11-5.12-3-.54.22-1.07.47-1.62.66-6.2 2-12.33 4.38-18.64 6-5 1.28-10.24 1.63-15.37 2.42-.85.13-1.82-.1-2 1.36a6.12 6.12 0 0 1-4.57 5.57 7.58 7.58 0 0 1-7.43-2.88c-.46-.7-.81-1.16-1.77-.88-8.06 2.35-15.8 5.36-22.54 10.54a20.88 20.88 0 0 0-7.4 10.59c-1.29 4.14-.95 8.07 1.82 11.58a4.84 4.84 0 0 1 .59 5.7 22.44 22.44 0 0 0-1 2.68c1.65.47 2.2-.34 2.61-1.41a37.16 37.16 0 0 1 12.92-17.09 79 79 0 0 1 11.45-7c11.81-5.81 24.48-9.09 37.3-11.73 2.58-.53 4.38-1.22 4.14-4.24 0-.28.17-.56.21-.85.16-1.44.86-2.54 2.38-2.54a3 3 0 0 1 2.95 2.54c.2.76.28 1.58.53 3.08Zm-43.58 289.73c1.25-1.62 2.21-3.09 3.4-4.34 4.6-4.8 9.07-9.75 14-14.23 8.09-7.41 15.07-15.76 21.8-24.36 2.83-3.62 5-7.41 5.45-12.06a30.19 30.19 0 0 1 .76-3.59q2.16-10.35 4.33-20.68a4 4 0 0 0-1.27 1.22c-2.31 3-4.48 6.13-7 9-9 10.14-18.24 20-27 30.32-5.93 7-11.23 14.47-16.76 21.77-.56.75-1.24 1.87-1.07 2.65.95 4.69 2.16 9.36 3.36 14.3ZM185 167.16a3.29 3.29 0 0 0 .65-.44c3.75-4.71 8.65-8 13.89-10.75a235.06 235.06 0 0 1 45.35-18.43c12.83-3.7 25.88-6.63 38.83-9.92 1.85-.47 3.67-1 5.94-1.69-.85-1.2-1.31-2.57-2.19-2.92A11.57 11.57 0 0 0 282 122c-7.39 1-14.81 2-22.09 3.53-13.05 2.82-26 6.08-39 9.12a1.71 1.71 0 0 0-1.54 1.71c-.39 2.52-1.65 4.55-4.23 5.3-2.19.64-4.94-.69-6.36-3.05-.6-1-1.26-.78-2.05-.59-3.74.9-7.51 1.67-11.2 2.73a20.56 20.56 0 0 0-12.69 9.56c-2.06 3.55-1.62 6.68 1.22 9.5a4.83 4.83 0 0 1 1.44 5.4c-.26.53-.33 1.14-.5 1.95Zm15.33 88.46c.39-.46.64-.75.87-1 2-2.39 3.78-4.92 5.89-7.16 15.28-16.18 30.27-32.61 43.62-50.46.35-.47.67-1 1.13-1.64a12.07 12.07 0 0 0-1.91-.16c-7.08.63-14.16 1.27-21.23 2-.42 0-.87.54-1.18.93-1.73 2.13-3.44 4.27-5.12 6.44-7.75 10-15.42 20.11-23.28 30a6.2 6.2 0 0 0-1.51 5.75c1.07 4.96 1.79 10.02 2.7 15.3ZM251 49.56c4.06 3.67 4.25 6.68 1.23 11.22-2.8 4.2-6.71 6.9-11.13 9-1.56.76-3.07 1.6-5 2.58 1.39.42 2.38.67 3.33 1 1.22.47 2.52 1 2.36 2.63s-1.35 2.06-2.68 2.35a4.62 4.62 0 0 1-1 .17c-3.09-.09-6.18-.09-9.25-.36a3.38 3.38 0 0 0-2.83.85c-3.09 2.76-6.27 5.43-9.31 8.25a44.19 44.19 0 0 0-4.76 5.11 10.51 10.51 0 0 0-2.24 8.52c5.24-1.81 10.41-3.59 15.56-5.42a1.67 1.67 0 0 0 .84-1.13c.6-4.19 6.15-6.86 9.84-4.53a1.77 1.77 0 0 0 1.5-.09c2.74-1.67 5.38-3.5 8.14-5.13 4.63-2.76 9.07-5.64 12.49-10 1.45-1.85 2.62-3.36 2.17-5.79-.18-1 .31-1.69 1.51-2.14 1.82-.69 3 .14 4.1 1.21 2.9-2.48 4-5.73 2.9-8.29a18.4 18.4 0 0 0-10.74-10 9.92 9.92 0 0 0-7.03-.01Zm35.6 130.58a1.6 1.6 0 0 0-.46-.14c-12.24 2.08-24.52 4-36.73 6.31a149.23 149.23 0 0 0-17.78 4.49c-3.34 1.06-6.36 3.13-9.53 4.74l.24.57 10.39-1.36c6.71-.87 13.4-2 20.22-1.26 4.58.49 9.15 1.22 13.75 1.37 6.7.22 13.41.1 20.12 0a31.06 31.06 0 0 0 15.74-4.11c3.32-2 4.77-4.9 5.2-8.61a28.29 28.29 0 0 1 1.3-5c.57-1.84 1.26-3.64 1.82-5.25-4.53 1.65-8.84 3.42-13.28 4.76-2.36.72-3.64 1.77-4.32 4.24a23.37 23.37 0 0 1-3.29 6.49 3.62 3.62 0 0 1-2.9 1.32c-1.44-.18-1.56-1.71-1.54-3a14.36 14.36 0 0 1 .34-2.6c.16-.98.43-1.97.67-2.96Zm-53.86 227.12.44.06c3-6.25 8.45-10.3 12.92-15.25q7.92-8.76 15.54-17.79a12.27 12.27 0 0 0 2.27-4.64c1.36-5 2.51-10.07 3.72-15.12.4-1.64.75-3.3 1.1-4.95s.68-3.3 1.09-5.28c-.42.39-.57.49-.67.62a228.18 228.18 0 0 1-26.3 29.28c-4.68 4.43-8.7 9.57-13 14.43a5.53 5.53 0 0 0-1 5.83c1.43 4.22 2.61 8.55 3.89 12.81ZM257.09 164l-.09-.37c-4.72.19-9.44.3-14.15.6s-9.43.63-14.11 1.21c-9.08 1.12-18.13 2.46-27.2 3.66-6.08.81-11.89 2.35-17.13 5.68a5.83 5.83 0 0 0-2.92 4.16c-.4 2.92-.64 5.86-1 9.05 4.26-3.27 9.27-4.21 14-5.63-.75-.83-1.48-1.52-2.06-2.3-1-1.35-.65-2.66.4-3.8a2.59 2.59 0 0 1 3.62-.44 53.08 53.08 0 0 1 4.7 3 4.09 4.09 0 0 0 4.19.64c13.35-4 26.72-7.93 40.08-11.9 3.91-1.18 7.78-2.41 11.67-3.56Zm-31.48-86.48c-1.4-1-2.66-2-2-3.71s2.12-1.89 3.63-1.91c1.75 0 3.5.08 5.25.07a4.6 4.6 0 0 0 2-.33c3.26-1.7 6.48-3.48 9.71-5.23 3.58-1.93 6-5 8-8.36a4.88 4.88 0 0 0-.26-5.46 3.31 3.31 0 0 0-3.7-1.59c.38 5.24-.6 7-5.09 8.51-2.31.8-4.74 1.23-7.08 2-4.66 1.46-9.57 2.48-13.88 4.65-7.51 3.8-13 9.43-13.39 18.64-.05 1.18-1.05 2.39-1.79 3.46s-2 2.16-2.74 3.39c-2.35 3.85-1.31 9.38 2.13 11.7l2-1.23c-.81-3.68-.33-7.08 1.93-9.92a71.54 71.54 0 0 1 6.7-7.12c2.72-2.62 5.62-4.98 8.58-7.56Zm.24 120.1c-5.6.53-11 1.11-16.38 1.51a3 3 0 0 0-2.78 1.6 77.76 77.76 0 0 1-11.59 15.5 4.53 4.53 0 0 0-1.34 4.86c1.11 4.57 2 9.2 3 14.35 9.88-12.81 19.44-25.27 29.09-37.82Zm11.64 223.08c3.19-2.82 6.27-5.47 9.28-8.21 2.32-2.12 4.63-4.27 6.79-6.55a8 8 0 0 0 1.85-3.29c1.85-6.56 3.59-13.16 5.33-19.75.53-2 1-4 1.45-6a41.52 41.52 0 0 0-3.81 4c-6.32 6.8-12.77 13.47-19 20.38-2.06 2.31-3.52 5.17-5.21 7.81a2 2 0 0 0-.29 1.48c1.2 3.43 2.45 6.86 3.61 10.13Zm22.89-346.39c-.78.87-1.43 1.69-2.18 2.39A77.72 77.72 0 0 1 251 83c-3.18 2.25-6.68 4.06-10 6.09a23.28 23.28 0 0 0-2.68 2 1.11 1.11 0 0 0-.28 1 1.15 1.15 0 0 0 .94.51c1.05-.05 2.08-.28 3.13-.35 10.87-.79 21.18-3.85 31.28-7.77.42-.16 1.06-.33 1.18-.65.89-2.25 2.18-4.51 2.35-6.83a33.66 33.66 0 0 0-.94-8.66c-.55-2.92-2.54-4.79-5.32-6a11 11 0 0 1-3.39 6.53 3.29 3.29 0 0 0-.76 2.08c0 2.27.13 4.54.15 6.81a2.38 2.38 0 0 1-1.82 2.65 2.27 2.27 0 0 1-2.7-1.44c-.64-1.39-1.14-2.9-1.76-4.66Zm-28.21-13.46c4-1.15 7.82-2.08 11.54-3.41 2.93-1 3.53-2.76 2.49-5.66-1.89-5.3-3.21-10.62-1.07-16.18 0-.07-.06-.19-.25-.71-3.45 3.1-7.19 5.74-10 9.15-3.88 4.75-5.46 10.34-2.71 16.81Zm12.74-27.38c-.1-.16-.2-.32-.31-.48a37.3 37.3 0 0 0-12.6 5.29 15.14 15.14 0 0 0-5.21 6.44 27 27 0 0 1-3.16 5.15 10.75 10.75 0 0 0-1.94 10.21c.52 1.78 2.21 3.08 3.57 2.7 1.78-.49 3.51-1.18 5.25-1.78a25.06 25.06 0 0 1-1-3.67 18.3 18.3 0 0 1 4.57-14.58c1.93-2.22 4.44-3.94 6.7-5.86 1.37-1.16 2.76-2.29 4.13-3.42Zm54.69 113.72a33.08 33.08 0 0 1-4.51 2.18c-7.19 2.2-14.38 4.4-21.63 6.36-7.53 2-15.14 3.78-22.71 5.67a13.57 13.57 0 0 0-1.51.54 24.53 24.53 0 0 0 4.61 0 110.78 110.78 0 0 0 21.26-3c7.2-1.9 14.45-3.71 22-4a2.23 2.23 0 0 0 1.28-.67c2.14-1.98 1.85-4.44 1.21-7.08Zm-94 52.41-15.83-.6c1 5.73 2 11.41 3.11 17.55a106.18 106.18 0 0 0 12.75-16.95Zm47.89 209.13c-3.56 3-6.75 5.65-9.81 8.42a62.26 62.26 0 0 0-4.65 5 1.47 1.47 0 0 0-.33 1.18c.7 2 1.53 4 3.77 4.75a2.25 2.25 0 0 0 1.81 0 12.93 12.93 0 0 0 3.1-3.35 61.64 61.64 0 0 0 3.07-7.24c1.06-2.81 1.95-5.56 3.07-8.76Zm12-286.57.27.54 1-.16c5.12-.76 10.22-1.72 15.36-2.2a4.89 4.89 0 0 0 4.22-2.44 7 7 0 0 0 .84-6.19c-4.62 3.42-10.17 4.57-15.28 6.77a62.16 62.16 0 0 0-6.41 3.68Zm-37.72-26.83c0 2.23 2.38 4.22 5.11 4.24 2.11 0 4.36-2 4.36-4 0-2.6-2.21-5-4.68-4.81s-4.82 1.77-4.79 4.57Zm-9.92 40.16c.05-2.15-2.1-4.52-4.09-4.52-1.7 0-4 2.58-4 4.51a4.49 4.49 0 0 0 4.3 4.75c1.87.01 3.73-2.3 3.79-4.74Zm73.47-8.91c2.85-1.7 3.84-4.31 3-7.61a4.77 4.77 0 0 0-4.83-4l-2.68 5.67c2.69.97 3.84 3.2 4.51 5.94Zm-51.09-50.24v-.67a9.47 9.47 0 0 0-1.77-.89 21.83 21.83 0 0 0-4.25-.93c-2.6-.2-5.22-.19-7.82-.18-.43 0-.85.5-1.27.77a9.65 9.65 0 0 0 1 1.27 1.62 1.62 0 0 0 1 .39c3.45.34 6.91.72 10.37.92a9.4 9.4 0 0 0 2.74-.68Zm47.1 110.94c.48-.22.74-.26.88-.42 3-3.48 4.14-7.71 4.67-12.14 0-.32-.27-.94-.5-1a1.59 1.59 0 0 0-1.24.35 3.63 3.63 0 0 0-.92 1.46c-1.05 3.2-2.08 6.4-3 9.63a6.9 6.9 0 0 0 .11 2.12Zm-80.67-1.09c-.4-.77-.5-1.29-.81-1.52q-5.21-3.81-10.51-7.5a1.37 1.37 0 0 0-1.3.34 2.25 2.25 0 0 0-.14 1.53c0 .28.41.57.7.74 3.4 2 6.81 4.05 10.23 6a7.59 7.59 0 0 0 1.83.41Zm59.67-77.72c.64-.53 1.1-.71 1.21-1a20.25 20.25 0 0 0 1.3-4.3 38.13 38.13 0 0 0 .18-6.41c0-.55-.87-1.07-1.34-1.6-.36.52-1 1-1 1.56-.35 3.06-.6 6.14-.79 9.23a11.57 11.57 0 0 0 .44 2.52Zm-1.13-33.59h.15c-.27-1.83-.43-3.68-.85-5.47-.11-.5-.9-1-1.48-1.17-.3-.08-1.2.69-1.15 1 .46 3 1 6 1.65 9 .06.28.73.72.87.64a1.5 1.5 0 0 0 .77-1 26.55 26.55 0 0 0 .04-3Zm-63.53 24.74c-2.51 2.19-2.54 5.61 0 6.87l2.69-1.94Zm66.68-44.79a4 4 0 0 0-.88-4.63 4.16 4.16 0 0 0-4.74-.42Z"/><path d="M222.08 285c-2.49 4.09-5.81 7.45-9.15 11.06-.43-1.64 7.26-10.91 9.15-11.06ZM261.51 169.86a19.26 19.26 0 0 1-3.84 9.35c-.84 1-2.08 2-3.28 1.16a4.11 4.11 0 0 1-1.27-3.13 13.23 13.23 0 0 1 4.64-9.55c.5-.43 1.77-.69 2.15-.38a8.85 8.85 0 0 1 1.6 2.55Zm-2.23-1.09c-3.22 1.94-5.43 7.49-4.13 10.16 2.57-1.11 5.07-7.12 4.13-10.16ZM293.38 163.78a3.74 3.74 0 0 1-3.82 4.06 4.55 4.55 0 0 1-4.44-4.27 4.09 4.09 0 0 1 4.14-4.06 4.16 4.16 0 0 1 4.12 4.27Zm-1.55.14a3.2 3.2 0 0 0-2.75-2.9 2.75 2.75 0 0 0-2.41 2.55 2.91 2.91 0 0 0 2.89 2.68 2.19 2.19 0 0 0 2.27-2.33ZM279.87 147.13a25.55 25.55 0 0 1-10.87-3.74c-1.11-.7-2.16-1.82-1.42-3.19a2.82 2.82 0 0 1 3.53-1.47c3.37 1.1 6.76 2.15 10.12 3.28a5.86 5.86 0 0 1 1.93 1.15 1.86 1.86 0 0 1-.48 3.26 14.67 14.67 0 0 1-2.81.71Zm2.15-2.08v-.61a13.42 13.42 0 0 0-1.8-.94c-3-1-6-2.07-9.09-3a5.1 5.1 0 0 0-1.9.2c.38.52.64 1.31 1.15 1.51 2.9 1.15 5.83 2.25 8.81 3.16.81.26 1.89-.19 2.81-.32ZM225.36 162.06a21.27 21.27 0 0 1-9.52-2.58c-2.06-1.12-2.86-2.62-2.33-4.17a4.45 4.45 0 0 1 4.82-2.33c3.25 1.07 6.45 2.31 9.6 3.65 1.36.59 2.89 1.53 2.35 3.4-.5 1.71-2.14 1.95-3.7 2-.41.05-.82.03-1.22.03Zm.14-1 .15-.5a3.55 3.55 0 0 0 1.22 0 16.51 16.51 0 0 0 1.9-1c-.43-.5-.77-1.23-1.32-1.46a95.37 95.37 0 0 0-9.28-3.5 3.42 3.42 0 0 0-2.9 1.28c-.72 1 .51 1.82 1.4 2.16 2.91 1.02 5.88 1.96 8.83 2.96ZM255.09 217.6c-.38 3.24-9.55 15-11.77 15.16a13.28 13.28 0 0 1 .91-1.68q4.7-6.09 9.45-12.15a15.56 15.56 0 0 1 1.41-1.33ZM231.9 247a6.42 6.42 0 0 1 .68-1.42c2.15-2.67 4.32-5.33 6.55-7.93.31-.37 1-.43 1.52-.63a4.54 4.54 0 0 1-.5 1.48c-2.13 2.61-4.31 5.18-6.5 7.74a9.54 9.54 0 0 1-1.35 1.08ZM225.52 363.75c4.53-8.15 10-15.56 17.33-21.52l.35.29c-3 3.46-6.3 6.78-9.11 10.42s-5.16 7.6-7.72 11.42ZM248.34 336.64a7.27 7.27 0 0 1 .72-1.28c2.12-2.63 4.25-5.25 6.43-7.82.31-.36.93-.44 1.41-.64-.08.46 0 1.05-.24 1.37q-3.3 4.07-6.71 8.05a4.91 4.91 0 0 1-1.18.77ZM247.45 113.84a10.64 10.64 0 0 1-1.08 2.26 25.19 25.19 0 0 1-8.43 7 3.9 3.9 0 0 1-1.68.39 1.91 1.91 0 0 1-2-2.65 5.92 5.92 0 0 1 1.51-2.52c2.63-2.3 5.3-4.56 8.12-6.61 1.55-1.17 3.58-.07 3.56 2.13Zm-1.21-.71c-1 0-1.83-.26-2.18 0a211.19 211.19 0 0 0-7.94 7c-.34.31-.29 1-.42 1.57.59 0 1.37.18 1.75-.12q3.86-3 7.53-6.14a8.89 8.89 0 0 0 1.26-2.31ZM225.86 221.94c-.57 2-22 26.42-24 27a10.5 10.5 0 0 1 .95-1.93c.91-1.14 1.92-2.19 2.88-3.28l18-20.7a15 15 0 0 1 1.82-1.53ZM260.46 371.27c.13 2.84-14.77 19.5-17.36 19.86Z"/><path class="cls-3" d="M276.93 375.4c-2.07-1.38-4.22-1-6.39-.6a4.07 4.07 0 0 1-2.38-.1 3.23 3.23 0 0 1-1.63-1.86c-.65-2.71-2.06-3.14-4.67-2.88-1.95.2-3.88.56-5.8.94a7.56 7.56 0 0 1-6.13-1.17c-3.08-2.15-6.43-4-9.33-6.32-3.32-2.71-5.63-6.36-7.73-10.1a45.18 45.18 0 0 0-2.69-4.28 5.65 5.65 0 0 1-.77-5.85 5.3 5.3 0 0 0 .45-2.47 9.08 9.08 0 0 1 3.26-7.88 35.75 35.75 0 0 1 4.9-4c4.72-3 8.78-2.48 13.32.84a102.7 102.7 0 0 0 9.84 6.16c4.77 2.73 9.52 5.46 13.46 9.39a11.07 11.07 0 0 1 3.34 7c.43 4.32.88 8.63 1.3 12.95a18.3 18.3 0 0 1-2.35 10.23Zm-14.51-17.84-.09.32a3 3 0 0 0 .52.42 10.12 10.12 0 0 1 4.15 4.32 16.23 16.23 0 0 0 2.64 3.29c1.54 1.58 3.46 2.81 4.31 5 .1.28.5.45.76.67.06-.38.3-.87.14-1.11a16.27 16.27 0 0 0-2.41-3.3 27.78 27.78 0 0 1-5.55-6.37c-.76-1.29-2.34-2.11-3.59-3.1-.2-.16-.58-.1-.88-.14ZM263.3 429.35a14.22 14.22 0 0 1-5.48-7.75 8.61 8.61 0 0 0-2.55-4.15 9.26 9.26 0 0 1-3.14-8.16 3.83 3.83 0 0 1 1.92-3c2.17-1.37 2.45-2.18 1.38-4.47-1.93-4.13-1.09-8 1.15-11.61 1.45-2.34 3.35-4.4 4.89-6.69a36.79 36.79 0 0 0 2.39-4.58c.87-1.81 2.37-3.49 5.07-3.1a19.8 19.8 0 0 0 3-.16 13.66 13.66 0 0 1 3.51.12 2.78 2.78 0 0 1 2.22 2.6c.65 6.47 2.66 12.42 7.33 17.19 1.23 1.26 2.61 2.37 3.92 3.55a5 5 0 0 1 1.72 3.16q.42 3.26.9 6.5a3 3 0 0 1-1.29 3 17.78 17.78 0 0 1-1.53 1 8.7 8.7 0 0 0-4.46 6.87 45.66 45.66 0 0 1-2.51 10.5c-.9 2.28-2.17 3.14-4.6 2.83a8.14 8.14 0 0 1-2.44-.64 28.59 28.59 0 0 0-7.43-1.95 33 33 0 0 1-3.97-1.06Z"/><path class="cls-3" d="M309.22 369.46c.16.87.25 1.63.46 2.36a1.61 1.61 0 0 0 2 1.31 1.58 1.58 0 0 0 1.28-2 15.55 15.55 0 0 0-1.17-2.84c.49.31 1 .59 1.43.93 1.07.8 2.05 1.74 3.19 2.43 1.42.87 2.06.67 3.27-.55a1 1 0 0 1 .7-.16 13.4 13.4 0 0 1 6.13 2.15 61.87 61.87 0 0 0 5.48 3.36 13.72 13.72 0 0 1 6.37 7 11.34 11.34 0 0 0 3.27 4.23c3 2.35 3.67 5.51 3.07 9.09a2.23 2.23 0 0 1-1.72 2c-3.74.89-7.45 1.86-11.22 2.59-2.67.51-5.17-.4-7.52-1.63A6.27 6.27 0 0 0 320 399a19.35 19.35 0 0 1-8.79-.42 2 2 0 0 1-.9-.43c-2.65-2.8-6.07-4.41-9.39-6.16a25.05 25.05 0 0 0-9.94-3.05 15.87 15.87 0 0 1-4.2-1.2c3.74-.44 7.45 0 11.17.2s7 2.53 10.58 3.31c.07-.15.13-.3.19-.45a7 7 0 0 0-.83-.6c-7.18-3.71-14.87-4-22.69-3.29-.92.08-1.84.19-2.76.21-1.68 0-1.7 0-2.12-1.72 2.63-1.42 5.26-2.49 8.42-1.77a21.8 21.8 0 0 0 5.05.08c2.41 0 4.83-.15 7.25-.17a18.37 18.37 0 0 1 7.52 1.5 12.49 12.49 0 0 0 1.23.37l.21-.41a8 8 0 0 0-2-1.09 30.73 30.73 0 0 0-5.95-1.18c-3-.15-6.06.1-9.09.13-1.95 0-3.89-.07-6-.11Z"/><path class="cls-3" d="m281.5 387.9 6.17 1.23c1.76.36 3.54.66 5.27 1.15a41.52 41.52 0 0 1 6.29 2.12 81.35 81.35 0 0 1 7.77 4.25 10.79 10.79 0 0 1 4.92 7.62 28.12 28.12 0 0 0 3.45 8.69 51.5 51.5 0 0 1 3.68 9.53 75.83 75.83 0 0 1 1.81 7.61 10.55 10.55 0 0 0 2.59 4.82c1.9 2.16 4 4.21 4.9 7a6.35 6.35 0 0 1 .4 2.35c-.18 2.63-.89 3.31-3.51 3.65a18.21 18.21 0 0 1-2.63.34 13.53 13.53 0 0 1-3.49-.36c-2-.57-4-1.43-6-2a5.41 5.41 0 0 1-4-4.35 13 13 0 0 1-.33-2.85 9.84 9.84 0 0 0-2.09-6.1c-2.67-3.47-5.4-6.89-8-10.4a57 57 0 0 1-3.63-5.6 16.34 16.34 0 0 1-1.07-3.2c-.17-.54-.17-1.23-.52-1.62a5 5 0 0 1-1-3.18c-.14-1.68-.53-3.34-.63-5-.18-3.06-2-4.95-4.14-6.87a54.77 54.77 0 0 1-5.28-5.89 11.35 11.35 0 0 1-1.2-2.56Zm2.19 3-.16.42a17.44 17.44 0 0 0 1.58.87 19.21 19.21 0 0 1 6 3.84 16.48 16.48 0 0 1 4.25 7.42c.41 1.36.76 2.73 1.14 4.1a13 13 0 0 0 3.12 5.57 30.07 30.07 0 0 1 2 2.55 2.38 2.38 0 0 0-.86-2.88 11.87 11.87 0 0 1-3.22-5.63c-.39-1.36-.75-2.74-1.16-4.1-1.8-6-5.87-9.85-11.61-12.06a3.65 3.65 0 0 0-1.08-.06ZM308.13 366.79a59 59 0 0 1-6.36 2.23c-2.93.69-6 .73-8.9 1.65-4 1.31-7.28 4.05-10.25 7-1 1-1.94 2.18-3.51 2.38-.45-1.38-1.24-2.73-1.24-4.08 0-1.14.84-2.35 1.47-3.42 1-1.71 2.37-3.24 3.24-5a15.18 15.18 0 0 0 1.58-5.11 45.76 45.76 0 0 0-3.42-21.75c-.91-2.27-2.55-4.25-3.82-6.39-1-1.67-1.91-3.36-2.78-4.91 1.81-.24 3.37-.38 4.91-.67a9 9 0 0 1 6.41 1.17 41.77 41.77 0 0 0 5.56 2.67c3 1.17 5.89 2.41 8.22 4.71a10.53 10.53 0 0 1 3.1 5.66 11.26 11.26 0 0 1 .22 1.13 17.73 17.73 0 0 0 3.26 9.75c1.67 2.2 1.53 5 1.05 7.67a1.73 1.73 0 0 1-.69.94 1.41 1.41 0 0 0-.37 2.25 24 24 0 0 0 2.32 2.12Zm-27.9 10.35.35.19c.26-.23.63-.41.77-.7.69-1.36 1.34-2.75 1.94-4.15.71-1.61 1.29-3.27 2-4.86 1.37-2.93 2.66-5.87 2.84-9.16a7.1 7.1 0 0 0-.12-1.12l-.44-.06c-.12.46-.25.93-.35 1.4a48.79 48.79 0 0 1-1.19 5.12c-.56 1.57-1.5 3-2.2 4.54-1.19 2.61-2.32 5.24-3.46 7.86a3.71 3.71 0 0 0-.14.94Zm12.31-19.7a6.69 6.69 0 0 0-.51 1.35 22.07 22.07 0 0 1-3.16 9.27 6.64 6.64 0 0 0-.39 1.34c2.18-.89 5.13-9.4 4.06-11.96Z"/><path class="cls-3" d="M280.18 369.19c0-1.24.14-2.41.05-3.56-.21-2.6-.55-5.19-.8-7.79-.21-2.13-.32-4.28-.56-6.41a10.69 10.69 0 0 0-2.66-6 2.46 2.46 0 0 1-.58-1.09 12.52 12.52 0 0 0-4-7 5.57 5.57 0 0 1-1.63-3.74 23.2 23.2 0 0 0-1.39-4.56c-.27-.75-.86-1.45 0-2.18a1.92 1.92 0 0 1 2.72 0 7.62 7.62 0 0 1 1.67 2.54 26.73 26.73 0 0 0 3.93 6.86c3.16 4 4.26 8.88 5.37 13.71a38.31 38.31 0 0 1 .61 13.83 9.26 9.26 0 0 1-2.73 5.39ZM337.55 360.09a18.82 18.82 0 0 1-2.05.55c-1.86.29-3.73.53-5.59.79a3.38 3.38 0 0 0-1 .23 12.89 12.89 0 0 0-1.27.8 5.46 5.46 0 0 0 1.18.89c1.32.53 2.69.92 4 1.46A18.19 18.19 0 0 1 335 366l-.14.47a11.07 11.07 0 0 1-1.93-.45c-1.81-.74-3.55-1.71-5.4-2.28a7 7 0 0 0-3.82-.21 103.75 103.75 0 0 0-12.45 4.13 87.36 87.36 0 0 0-10.34 5.76c-5.78 3.51-11.54 7-17.82 9.62l-3.21 1.28a3.59 3.59 0 0 1-.28-.5c-.84-2.41-.8-2.33 1.48-3.37 3.88-1.78 7.69-3.69 11.55-5.49 5-2.35 10-4.78 15.07-6.92 3.91-1.65 8-2.88 12-4.33 1.73-.62 3.44-1.31 5.15-2a15.28 15.28 0 0 0 7.31-6.26c.7-1.13.8-1.17 2.06-1.31a17.2 17.2 0 0 1-1 2.33c-.4.64-1.05 1.12-1.48 1.75a1.56 1.56 0 0 0-.21 1.23c.1.23.72.37 1.09.35 1.15-.08 2.29-.29 3.43-.38a8.72 8.72 0 0 1 1.44.1c-.02.2.01.39.05.57ZM283.7 377.86c4.42-3.83 8.95-7.43 15.59-7.49l-15.38 7.91Z"/><path class="cls-3" d="M313.12 367.71c.57-.08 1-.26 1.19-.14 1.24.65 2.47 1.35 3.65 2.12.32.2.45.71.67 1.07-.45.08-1 .36-1.32.19a18 18 0 0 1-2.42-1.68c-.54-.42-1.03-.9-1.77-1.56ZM322.84 359.33a4.54 4.54 0 0 1-3.44 3.36c.67-1.87 2.1-3.31 3.44-3.36ZM321.07 365.59c1.71-1.07 3.64-.65 4.1.89a1.88 1.88 0 0 1-2.46-.07 6.62 6.62 0 0 0-1.64-.82ZM311.54 364.32a20.77 20.77 0 0 1-.35-2.92c0-.37.56-.75.86-1.12.22.35.66.73.62 1.06a29.43 29.43 0 0 1-.62 3.05ZM318.75 366c1.19.4 2.39.77 3.55 1.25.23.1.29.61.43.93-.32 0-.7.21-.93.09-1.11-.56-2.17-1.19-3.25-1.79ZM319.38 359.06c.18 1.83-.87 2.94-2.19 3.89.81-1.26.81-2.95 2.19-3.89ZM306.6 363.56c1.34-.46 2.26.17 2.72 1.87a2.66 2.66 0 0 1-2.72-1.87ZM310.85 369.14a15 15 0 0 1 1 2c.08.22-.28.6-.44.92-.26-.22-.68-.39-.76-.66a14.64 14.64 0 0 1-.33-2Z"/><path d="M262.42 357.56c.3 0 .68 0 .88.14 1.25 1 2.83 1.81 3.59 3.1a27.78 27.78 0 0 0 5.55 6.37 16.27 16.27 0 0 1 2.41 3.3c.16.24-.08.73-.14 1.11-.26-.22-.66-.39-.76-.67-.85-2.19-2.77-3.42-4.31-5a16.23 16.23 0 0 1-2.64-3.29 10.12 10.12 0 0 0-4.15-4.32 3 3 0 0 1-.52-.42ZM283.69 390.94a3.65 3.65 0 0 1 1 .1c5.74 2.21 9.81 6 11.61 12.06.41 1.36.77 2.74 1.16 4.1a11.87 11.87 0 0 0 3.22 5.63 2.38 2.38 0 0 1 .86 2.88 30.07 30.07 0 0 0-2-2.55 13 13 0 0 1-3.12-5.57c-.38-1.37-.73-2.74-1.14-4.1a16.48 16.48 0 0 0-4.25-7.42 19.21 19.21 0 0 0-6-3.84 17.44 17.44 0 0 1-1.58-.87ZM280.23 377.14a3.71 3.71 0 0 1 .17-.94c1.14-2.62 2.27-5.25 3.46-7.86.7-1.53 1.64-3 2.2-4.54a48.79 48.79 0 0 0 1.19-5.12c.1-.47.23-.94.35-1.4l.44.06a7.1 7.1 0 0 1 .12 1.12c-.18 3.29-1.47 6.23-2.84 9.16-.74 1.59-1.32 3.25-2 4.86-.6 1.4-1.25 2.79-1.94 4.15-.14.29-.51.47-.77.7ZM292.54 357.44c1.07 2.53-1.88 11.07-4.06 12a6.64 6.64 0 0 1 .39-1.34 22.07 22.07 0 0 0 3.16-9.27 6.69 6.69 0 0 1 .51-1.39Z"/><path class="cls-4" d="M292.29 411.63a30.07 30.07 0 0 1-2.85 2.05 8.12 8.12 0 0 0-4.18 6.51 45.37 45.37 0 0 1-2.36 10.07c-1.24 3.33-3.32 4.54-6.79 3.75a3.89 3.89 0 0 1-.78-.21 48 48 0 0 0-9.42-2.51c-3.67-.78-6.1-3.37-8-6.5a4.9 4.9 0 0 1-.59-1.37 14.17 14.17 0 0 0-3.91-6.5A9.19 9.19 0 0 1 251 410a5.23 5.23 0 0 1 2.62-4.7c1.45-.86 1.57-1.3.84-2.84-2.18-4.57-1.31-8.84 1.28-12.89 1.41-2.19 3.1-4.19 4.58-6.34a21.51 21.51 0 0 0 2-3.5c.9-2 1.9-3.86 3.92-4.79-.37-.88-.78-1.67-1-2.5a1.78 1.78 0 0 0-1.94-1.44 23.68 23.68 0 0 0-4.79.56 11.39 11.39 0 0 1-10.93-2c-2.65-2.08-5.71-3.68-8.24-5.88A35.13 35.13 0 0 1 232 354a46 46 0 0 0-2.82-4.47 6.55 6.55 0 0 1-.93-6.42 5.74 5.74 0 0 0 .48-2.34 10 10 0 0 1 3.64-8.7 35 35 0 0 1 6.43-4.77 10.44 10.44 0 0 1 12 .9 125 125 0 0 0 12.54 7.74c3.6 2.09 6.93 4.66 10.38 7a.74.74 0 0 0 .64.09 21.76 21.76 0 0 0-1.47-2.74 29.29 29.29 0 0 0-2.52-2.83 4.28 4.28 0 0 1-1.29-3.11 9 9 0 0 0-1.29-4.6c-1.09-1.92-1-2.89.2-3.77a3.22 3.22 0 0 1 4.64.53 4.49 4.49 0 0 0 5.15 1.49 10.45 10.45 0 0 1 9.19 1.59 18.36 18.36 0 0 0 4 1.88c3.42 1.24 6.71 2.64 9.28 5.36a11.68 11.68 0 0 1 3.06 5.71 12.32 12.32 0 0 1 .29 1.47 17.1 17.1 0 0 0 3.11 9.32c1.73 2.31 1.69 5.2 1.25 8a1.14 1.14 0 0 0 .59 1.38 13.4 13.4 0 0 1 1.93 1.92c-.08-.59-.19-1.15-.23-1.72a9.08 9.08 0 0 1 0-2.27 1.7 1.7 0 0 1 1.84-1.42 1.49 1.49 0 0 1 1.53 1.45 15.27 15.27 0 0 1-.26 2.93 5.71 5.71 0 0 1-.44 1.16c2.15-.05 2.84-1.71 3.74-3.05a12.87 12.87 0 0 0 .9-2.11c.8-1.88 1.89-2.07 2.93-.89 1.16 0 2.19-.35 2.88 0 .39.2.21 1.5.29 2.42a15.62 15.62 0 0 0 5.25-3.36c1-1.1 1.87-2.33 2.81-3.49.29-.35.59-.84 1-.94a2.57 2.57 0 0 1 1.8.05A1.74 1.74 0 0 1 335 355a16.36 16.36 0 0 1-1.45 2.82 7.81 7.81 0 0 1-.8.89l1.78-.13c.57 0 1.15-.12 1.72-.11 1 0 2-.08 2.3 1.2.19.9-.64 1.67-2 1.9-1.75.28-3.5.49-5.25.7a6.15 6.15 0 0 1-1.13-.05l.09.4c1.33.58 2.68 1.13 4 1.73 1.48.66 2.16 1.61 1.81 2.43s-1.69 1-3.13.44c-1.8-.75-3.57-1.6-5.38-2.34a19.32 19.32 0 0 0-2.22-.6c.3.87.92 1.76.72 2.36s-1.22 1-2 1.38c-.68 1.49-1.51 1.88-3.08 1.11a17.17 17.17 0 0 1-3.26-1.93c-.9-.73-1.56-.42-2.54.09a17.87 17.87 0 0 1 2.93 1.35 11.09 11.09 0 0 0 3.78 1.48 24.46 24.46 0 0 1 5 2c2.23 1.18 4.32 2.64 6.52 3.88a14.7 14.7 0 0 1 6 7.12 10.65 10.65 0 0 0 3.07 4c3.09 2.5 4.14 5.79 3.22 10.39a2.89 2.89 0 0 1-2 2.21c-.51.18-1 .35-1.54.48-2.57.63-5.16 1.19-7.72 1.88a14.92 14.92 0 0 1-10.93-1.38 6 6 0 0 0-3.21-.5 21.49 21.49 0 0 1-8.23-.28.48.48 0 0 0-.23 0c.65 2.52 1.27 5.05 2 7.55a8.2 8.2 0 0 0 1.13 2.62c2.89 3.89 4.21 8.44 5.52 13 .67 2.28 1.11 4.63 1.61 6.95a9.91 9.91 0 0 0 2.56 4.56c1.81 2 3.67 4 4.76 6.6a7.21 7.21 0 0 1 .18 5.38 3.29 3.29 0 0 1-2.58 2.36c-3.53.67-7 1.2-10.43-.74a16.66 16.66 0 0 0-3.85-1.13 6.3 6.3 0 0 1-4.58-5.13 12.3 12.3 0 0 1-.34-3 9.3 9.3 0 0 0-2.09-5.85c-2.57-3.3-5.18-6.57-7.68-9.93a52.62 52.62 0 0 1-3.76-5.79 20.3 20.3 0 0 1-1.28-3.76c-.3-.68-.49-1.28-.72-1.98Zm-15.36-36.23a18.3 18.3 0 0 0 2.35-10.19c-.42-4.32-.87-8.63-1.3-12.95a11.07 11.07 0 0 0-3.34-7c-3.94-3.93-8.69-6.66-13.46-9.39a102.7 102.7 0 0 1-9.84-6.16c-4.54-3.32-8.6-3.81-13.32-.84a35.75 35.75 0 0 0-4.9 4 9.08 9.08 0 0 0-3.26 7.88 5.3 5.3 0 0 1-.45 2.47 5.65 5.65 0 0 0 .77 5.85 45.18 45.18 0 0 1 2.69 4.28c2.1 3.74 4.41 7.39 7.73 10.1 2.9 2.37 6.25 4.17 9.33 6.32a7.56 7.56 0 0 0 6.13 1.17c1.92-.38 3.85-.74 5.8-.94 2.61-.26 4 .17 4.67 2.88a3.23 3.23 0 0 0 1.63 1.86 4.07 4.07 0 0 0 2.38.1c2.17-.43 4.32-.84 6.39.56Zm-13.63 54a33 33 0 0 0 3.93 1.13 28.59 28.59 0 0 1 7.43 1.95 8.14 8.14 0 0 0 2.44.64c2.43.31 3.7-.55 4.6-2.83a45.66 45.66 0 0 0 2.51-10.5 8.7 8.7 0 0 1 4.46-6.87 17.78 17.78 0 0 0 1.53-1 3 3 0 0 0 1.29-3q-.48-3.24-.9-6.5a5 5 0 0 0-1.72-3.16c-1.31-1.18-2.69-2.29-3.92-3.55-4.67-4.77-6.68-10.72-7.33-17.19a2.78 2.78 0 0 0-2.22-2.6 13.66 13.66 0 0 0-3.51-.12 19.8 19.8 0 0 1-3 .16c-2.7-.39-4.2 1.29-5.07 3.1a36.79 36.79 0 0 1-2.39 4.58c-1.54 2.29-3.44 4.35-4.89 6.69-2.24 3.62-3.08 7.48-1.15 11.61 1.07 2.29.79 3.1-1.38 4.47a3.83 3.83 0 0 0-1.92 3 9.26 9.26 0 0 0 3.14 8.16 8.61 8.61 0 0 1 2.55 4.15 14.22 14.22 0 0 0 5.52 7.63Zm45.92-59.89-22.28 13.3c2.12 0 4.06.13 6 .11 3 0 6.07-.28 9.09-.13a30.73 30.73 0 0 1 5.95 1.18 8 8 0 0 1 2 1.09l-.18.38a12.49 12.49 0 0 1-1.23-.37 18.37 18.37 0 0 0-7.52-1.5c-2.42 0-4.84.13-7.25.17a21.8 21.8 0 0 1-5.05-.08c-3.16-.72-5.79.35-8.42 1.77.42 1.69.44 1.74 2.12 1.72.92 0 1.84-.13 2.76-.21 7.82-.68 15.51-.42 22.69 3.29a7 7 0 0 1 .83.6c-.06.15-.12.3-.19.45-3.61-.78-6.76-3.14-10.58-3.31s-7.43-.64-11.17-.2a15.87 15.87 0 0 0 4.2 1.2 25.05 25.05 0 0 1 9.94 3.05c3.32 1.75 6.74 3.36 9.39 6.16a2 2 0 0 0 .9.43 19.35 19.35 0 0 0 8.78.39 6.27 6.27 0 0 1 4.23.71c2.35 1.23 4.85 2.14 7.52 1.63 3.77-.73 7.48-1.7 11.22-2.59a2.23 2.23 0 0 0 1.72-2c.6-3.58-.06-6.74-3.07-9.09a11.34 11.34 0 0 1-3.27-4.23 13.72 13.72 0 0 0-6.37-7 61.87 61.87 0 0 1-5.48-3.36 13.4 13.4 0 0 0-6.13-2.15 1 1 0 0 0-.7.16c-1.21 1.22-1.85 1.42-3.27.55-1.14-.69-2.12-1.63-3.19-2.43-.45-.34-.94-.62-1.43-.93a15.55 15.55 0 0 1 1.17 2.84 1.58 1.58 0 0 1-1.28 2 1.61 1.61 0 0 1-2-1.31c-.2-.71-.29-1.47-.45-2.34ZM281.5 387.9l-.22.36a11.35 11.35 0 0 0 1.2 2.56 54.77 54.77 0 0 0 5.28 5.89c2.1 1.92 4 3.81 4.14 6.87.1 1.68.49 3.34.63 5a5 5 0 0 0 1 3.18c.35.39.35 1.08.52 1.62a16.34 16.34 0 0 0 1.08 3.23 57 57 0 0 0 3.63 5.6c2.62 3.51 5.35 6.93 8 10.4a9.84 9.84 0 0 1 2.09 6.1 13 13 0 0 0 .33 2.85 5.41 5.41 0 0 0 4 4.35c2 .57 4 1.43 6 2a13.53 13.53 0 0 0 3.49.36 18.21 18.21 0 0 0 2.63-.34c2.62-.34 3.33-1 3.51-3.65a6.35 6.35 0 0 0-.4-2.35c-.93-2.82-3-4.87-4.9-7a10.55 10.55 0 0 1-2.59-4.82 75.83 75.83 0 0 0-1.81-7.61 51.5 51.5 0 0 0-3.68-9.53 28.12 28.12 0 0 1-3.45-8.69 10.79 10.79 0 0 0-4.92-7.62 81.35 81.35 0 0 0-7.77-4.25 41.52 41.52 0 0 0-6.29-2.12c-1.73-.49-3.51-.79-5.27-1.15Zm26.63-21.11a24 24 0 0 1-2.32-2.1 1.41 1.41 0 0 1 .37-2.25 1.73 1.73 0 0 0 .69-.94c.48-2.67.62-5.47-1.05-7.67a17.73 17.73 0 0 1-3.26-9.75 11.26 11.26 0 0 0-.22-1.13 10.53 10.53 0 0 0-3.1-5.66c-2.33-2.3-5.24-3.54-8.22-4.71a41.77 41.77 0 0 1-5.56-2.67 9 9 0 0 0-6.41-1.17c-1.54.29-3.1.43-4.91.67.87 1.55 1.79 3.24 2.78 4.91 1.27 2.14 2.91 4.12 3.82 6.39a45.76 45.76 0 0 1 3.42 21.75 15.18 15.18 0 0 1-1.58 5.11c-.87 1.78-2.22 3.31-3.24 5-.63 1.07-1.46 2.28-1.47 3.42 0 1.35.79 2.7 1.24 4.08 1.57-.2 2.48-1.35 3.51-2.38 3-3 6.22-5.73 10.25-7 2.85-.92 6-1 8.9-1.65a59 59 0 0 0 6.36-2.25Zm-27.95 2.4a9.26 9.26 0 0 0 2.74-5.39 38.31 38.31 0 0 0-.61-13.83c-1.11-4.83-2.21-9.69-5.37-13.71a26.73 26.73 0 0 1-3.94-6.86 7.62 7.62 0 0 0-1.73-2.52 1.92 1.92 0 0 0-2.72 0c-.83.73-.24 1.43 0 2.18a23.2 23.2 0 0 1 1.45 4.54 5.57 5.57 0 0 0 1.67 3.76 12.52 12.52 0 0 1 4 7 2.46 2.46 0 0 0 .58 1.09 10.69 10.69 0 0 1 2.66 6c.24 2.13.35 4.28.56 6.41.25 2.6.59 5.19.8 7.79.05 1.13-.07 2.35-.09 3.54Zm57.37-9.1c0-.18-.07-.37-.11-.56a8.72 8.72 0 0 0-1.44-.1c-1.14.09-2.28.3-3.43.38-.37 0-1-.12-1.09-.35a1.56 1.56 0 0 1 .21-1.23c.43-.63 1.08-1.11 1.48-1.75a17.2 17.2 0 0 0 1-2.33c-1.26.14-1.36.18-2.06 1.31a15.28 15.28 0 0 1-7.31 6.26c-1.71.7-3.42 1.39-5.15 2-4 1.45-8.1 2.68-12 4.33-5.1 2.14-10.07 4.57-15.07 6.92-3.86 1.8-7.67 3.71-11.55 5.49-2.28 1-2.32 1-1.48 3.37a3.59 3.59 0 0 0 .28.5l3.21-1.28c6.28-2.58 12-6.11 17.82-9.62a87.36 87.36 0 0 1 10.34-5.76 103.75 103.75 0 0 1 12.45-4.13 7 7 0 0 1 3.82.21c1.85.57 3.59 1.54 5.4 2.28a11.07 11.07 0 0 0 1.93.45l.2-.48a18.19 18.19 0 0 0-2.15-1.21c-1.31-.54-2.68-.93-4-1.46a5.46 5.46 0 0 1-1.18-.89 12.89 12.89 0 0 1 1.27-.8 3.38 3.38 0 0 1 1-.23c1.86-.26 3.73-.5 5.59-.79a18.82 18.82 0 0 0 2.02-.53Zm-53.85 17.77.21.42 15.38-7.91c-6.64.06-11.17 3.63-15.59 7.49Zm29.42-10.15c.74.66 1.23 1.14 1.77 1.56a18 18 0 0 0 2.42 1.68c.32.17.87-.11 1.32-.19-.22-.36-.35-.87-.67-1.07-1.18-.77-2.41-1.47-3.65-2.12-.23-.12-.62.06-1.19.14Zm9.72-8.38c-1.34.05-2.77 1.49-3.44 3.36a4.54 4.54 0 0 0 3.44-3.36Zm-1.77 6.26a6.62 6.62 0 0 1 1.64.82 1.88 1.88 0 0 0 2.46.07c-.46-1.54-2.39-1.96-4.1-.89Zm-9.53-1.27.51.07a29.43 29.43 0 0 0 .62-3.05c0-.33-.4-.71-.62-1.06-.3.37-.85.75-.86 1.12a20.77 20.77 0 0 0 .35 2.92Zm7.21 1.72-.2.48c1.08.6 2.14 1.23 3.25 1.79.23.12.61-.05.93-.09-.14-.32-.2-.83-.43-.93-1.16-.48-2.36-.85-3.55-1.29Zm.63-7c-1.4.92-1.39 2.63-2.19 3.89 1.32-.93 2.37-2.04 2.19-3.87Zm-12.78 4.5a2.66 2.66 0 0 0 2.72 1.87c-.46-1.68-1.38-2.31-2.72-1.85Zm4.25 5.58-.48.24a14.64 14.64 0 0 0 .33 2c.08.27.5.44.76.66.16-.32.52-.7.44-.92a15 15 0 0 0-1.05-1.96Z"/></svg>