<svg xmlns="http://www.w3.org/2000/svg" viewBox="0 0 800 800" style="enable-background:new 0 0 800 800" xml:space="preserve"><path d="M333.8 378.3c-4.2 18.8-6.6 38-10.5 56.8-.8 4-1.1 8.8-4.1 11.9-2.9 3-6.3 5.5-10 7.6-7.9 4.5-16.7 6.9-25.6 8.6-18.7 3.5-37.9 3.1-56.8 2.9-17.6-.2-35.7-.4-52.4 6-14.7 5.6-27.7 15.3-37.2 27.9-10.1 13.5-16.2 30-18.8 46.6-5.9 37.8 7.8 74.5 9.4 112 .8 19-.2 38-3 56.8-2.8 18.8-5.1 37.7-9.8 56.1-1.1 4.5-2.6 8.8-3.9 13.2-.3.9 2.3 1.8 2.5 1 2.8-9.1 5.2-18.1 7.1-27.4 1.8-9.4 3.3-18.8 4.7-28.3 2.7-18.5 5.1-36.9 5.3-55.6.1-9.4-.2-18.9-1.2-28.3-1-9.4-2.6-18.7-4.3-27.9-3.3-18.6-6.3-37.4-5.6-56.4.7-17.5 5-35.1 13.5-50.4 8.1-14.6 20.3-26.6 35.2-34.2 16-8.1 33.5-9.6 51.1-9.5 18.8 0 37.8.9 56.5-1.4 8.7-1.1 17.5-2.7 25.7-5.7 7.5-2.7 15.9-6.9 21-13.3 1-1.3 1.4-2.8 1.8-4.5.5-2.4 1-4.8 1.5-7.3.9-4.7 1.8-9.3 2.6-14 1.6-9.4 3.1-18.7 4.9-28.1.9-4.7 1.8-9.3 2.9-14 .3-1-2.3-1.9-2.5-1.1zM347.3 345.3c-.2-2.1-.3-4.2-.6-6.3-.3-2.1-.9-4-1.6-6-1.3-3.8-2.8-7.6-4.2-11.4-2.8-7.6-5.6-15.1-8.1-22.8-2.4-7.6-4.4-15.4-5.5-23.4-.6-4-.9-8.1-.9-12.1 0-3.6 0-7.2 1.1-10.6.9-2.6 2.3-5.2 4.4-6.9 2.2-1.8 5.3-2.3 7.9-1 5.7 2.9 7.9 9.1 8.9 15 .3 1.9.3 3.7.4 5.5.1 2 .1 4 .2 5.9.2 4.2.4 8.5.4 12.7 0 4.1-.3 8.3-1.1 12.3-.4 1.9-.8 3.6-1.6 5.3-.6 1.4-1.4 2.7-2.2 4-1.8 2.8-4.3 5-7.3 6.4-1.2.5-2.4 1.1-3.6.6-1.2-.5-2.3-1.7-2.8-3-.2-.5-.1-1.7-.1-2.5 0-1-.1-2-.2-3.1-.1-2-.3-3.9-.3-5.9-.1-3.9.1-7.8 1.6-11.5.3-.8.7-2 1.5-2.5.7-.5 1.5-.5 2.3-.5-.3-.1-.5-.3-.8-.4 5.6 6.8 8.6 15.1 9.5 23.9.9 8.6 0 17.4-1.3 25.9-.8 4.9-1.7 9.7-2.5 14.6-.1.7.2 1.4.7 1.7.4.3 1.2.4 1.3-.3 1.7-9.8 3.6-19.6 4.1-29.5.5-9.7-.6-19.7-4.9-28.6-1.1-2.3-2.4-4.5-3.8-6.5-.3-.5-.7-1-1.1-1.4-.4-.5-.9-1.3-1.5-1.6-.8-.5-2.3-.1-3.2.3-1.3.6-1.8 1.8-2.3 3-.6 1.3-1 2.6-1.3 4-.6 2.6-.7 5.3-.6 8 .1 2.8.3 5.5.4 8.3 0 .7.1 1.4.1 2.1 0 .7-.1 1.4.1 2.1.2 1.1 1 2.2 1.6 3.1 1.2 1.6 3.1 3 5.2 3 1 0 1.9-.5 2.8-.8 1.1-.5 2.1-1 3.1-1.7 3.7-2.6 6.1-6.5 7.8-10.5 1.1-2.5 1.5-5.3 1.8-7.9.4-2.9.5-5.8.6-8.6.1-5.8-.4-11.7-.6-17.5-.1-2.6 0-5.2-.5-7.8-.4-2.2-.9-4.5-1.7-6.6-1.5-4.1-4-7.9-7.8-10.3-2-1.2-4-1.9-6.4-1.7-1.9.2-3.6 1-5 2.2-3 2.6-4.7 6.6-5.4 10.5-.5 2.7-.4 5.6-.4 8.3 0 2.8.2 5.6.5 8.4 1.1 11.3 4.1 22.2 7.7 33 1.8 5.3 3.7 10.6 5.7 15.9 1 2.6 2 5.3 2.9 7.9 1 2.7 2.1 5.4 2.9 8.1.7 2.8.8 5.7 1.1 8.6.1.7.4 1.4 1.1 1.6.9-.1 1.5-.4 1.5-1z"/><path d="M193.4 289.9c.1 5.8-1.3 11.4-3.8 16.6-2.6 5.2-6.2 9.7-10.2 13.8-1 1-2.1 2-3.2 3-.8.8-.6 2.3-.4 3.3.4 2.1 1.8 3.9 3.4 5.4 1.7 1.6 3.8 2.8 5.7 4.1.9.6 1.7 1.3 2.7 1.8 1.3.7 2.7 1.3 4.1 1.8 2.9 1.1 6 1.7 9.1 1.5 3.3-.3 6.3-1.7 8.7-4.1.4-.4.1-.8-.3-.9-1.7-.3-3.6.9-4.3 2.4-.4.9 1 .7 1.5.5 1.1-.4 2.1-1.1 3-1.9.3-.2.6-.6.3-.9-1.4-1.4-2.8-3.4-4.9-3.7-2.4-.4-4.8 1.3-6.1 3.2-1.7 2.5-1.5 5.3-1.5 8.2 0 2.9-.1 5.7-.4 8.6-.3 3.2-.9 6.3-1.9 9.3 0 .1 0 .2.1.3 7.5 6.3 18 4.9 26.9 2.8.6-.1 1.2-.3 1.8-.4.4-.1 1.2 0 1.8 0 1.2 0 2.4-.2 3.6-.5 0-.5-.1-.9-.1-1.4-1.7.5-3.3 1.1-5 1.5 0 .5.1.9.1 1.4 1.7-.5 3.3-1 5-1.5.3-.1 2.2-1.2 1.1-1.5-4.3-1.2-8.8-1.1-13.2-.9-1.1 0-2.2.1-3.3.1-1.2 0-2.5 0-3.6.1-1.6.2-3.4 1.2-4.6 2.3-2.4 2.1-3.8 5.4-3.8 8.7 0 1.6.9 3.3 1.8 4.6.9 1.4 2 2.6 3.3 3.7 2.4 2.2 5 4.1 7 6.7 2.2 2.9 3.7 6.4 4.5 9.9.9 3.5 1.2 7.2 1.3 10.8.1 3.1.2 5.9 1.6 8.8 4.7 10.1 18.3 10.6 27.4 6.7 1.4-.6 2.6-1.3 3.9-2 2-1 4-1.9 6-2.8 4.1-1.8 8.4-3.5 12.6-5 8.5-3.1 17.1-6 25.5-9.4 4.3-1.7 8.6-3.5 12.6-5.6 3-1.6 6.1-3.1 9.1-4.7 5.7-3 10.9-6.6 15.1-11.5 1.2-1.4 2.3-2.8 3.3-4.3.4-.5-.4-.7-.8-.7-.6 0-1.3.4-1.6.9-3.6 5.2-8.1 9.5-13.6 12.7-2.6 1.5-5.3 2.9-8 4.3-3.5 1.8-6.8 3.6-10.4 5.2-15.8 6.9-32.6 11.5-48.3 18.8-2.7 1.3-5.2 2.8-8.1 3.8-2.3.7-4.6 1.1-7 1.1-4.7 0-9.6-1.4-12.9-5-1.7-1.8-2.8-4.1-3.4-6.5-.7-3.1-.4-6.4-.7-9.6-.6-6.8-2.4-13.7-7.2-18.8-2.1-2.2-4.6-4-6.7-6.2-1.1-1.2-2.1-2.4-2.8-3.9-.3-.7-.6-1.4-.8-2.1-.2-.8 0-1.7.1-2.6.4-2.5 2.1-6.1 4.9-6.7.9-.2 2.1 0 3.1-.1 1.1 0 2.2-.1 3.3-.1 2.2-.1 4.3-.2 6.5-.1 2.1.1 4.1.3 6.2.9.4-.5.7-1 1.1-1.5-1.9.6-3.8 1.1-5.7 1.7-.4.1-1.1.6-1 1 .1.5.8.4 1.2.3 1.9-.5 3.8-1.1 5.7-1.7.4-.1 1.1-.6 1-1-.1-.5-.8-.4-1.2-.3-2 .6-4.1.3-6.1.7-2 .5-4.1 1-6.2 1.3-4.1.7-8.5 1-12.5 0-2.1-.5-4.1-1.4-5.9-2.6-.2-.1-1-.6-1.1-.8-.1-.4.4-1.3.5-1.6.3-1.2.6-2.4.8-3.6.9-5 .9-10.1.9-15.2 0-1.5.2-2.8.8-4.1.4-.8 1.2-2.2 2.1-2.5.8-.2 1.7.6 2.3 1.1.9.7 1.6 1.6 2.4 2.4l.3-.9c-.5.5-1.1.9-1.8 1.2.5.2 1 .3 1.5.5l.3-.6c.1-.2-.4-.1.1 0l-.3-.9c-4.2 4.1-10.2 2.8-15 .8-1.2-.5-2.5-1-3.5-1.8l-2.7-1.8c-1.9-1.2-3.8-2.5-5.4-4.2-1.8-1.8-2.7-4.1-2.3-6.7-.1.2-.3.4-.4.6 7.7-6.9 14.5-15.3 17.1-25.6.7-3 1.1-6 1-9-.6-1-3.1-.3-3.1.6zM187.1 194.5c-1.8 10.1-3.2 20.3-2.9 30.6.3 10.1 2.4 20.3 7.7 29.1 3 5.1 7.1 9.4 11.9 12.9.4.3 1 .4 1.2-.2.2-.6-.3-1.4-.8-1.7-8-5.8-13.3-14.1-15.8-23.6-2.5-9.5-2.6-19.5-1.7-29.2.5-5.5 1.4-10.9 2.3-16.3.1-.6-.3-1.3-.8-1.7-.2-.4-1-.5-1.1.1zM446.5 337.9c-2.2 9-4.2 18.1-5.6 27.3-.7 4.4-.9 8.8-1.1 13.2-.2 4.4-.7 8.9-.4 13.3.6 9 .1 18 2.1 26.9 1.8 8.1 3.5 16.6 8 23.7 4.4 7 10.1 13.4 15.9 19.3 5.7 5.8 11.8 11.2 18.1 16.4 3.1 2.6 6.2 5.1 9.3 7.6 3.2 2.6 6.3 5.2 10 7.2 8.1 4.5 16.2 9 24.4 13.3 16.6 8.8 33.3 17.3 50 25.8 14.7 7.5 29.5 15.9 39 29.9 4.5 6.7 8.4 14.4 10.7 22.3 2.6 9.2 4.5 18.8 6.3 28.1 1.7 9.2 2.7 18.4 2.7 27.8 0 9.4-.8 18.9-2.1 28.2-.7 4.6-1.5 9.2-2.4 13.7-.5 2.3-.9 4.6-1.4 6.9-.4 2-.7 4-1.8 5.8-.9 1.4-.9 3.1-1.2 4.7-.5 2.2-1 4.4-1.7 6.6-1.2 4.1-2.5 8.2-3.5 12.4-1 4.4-1.4 8.9-1.9 13.3-.5 4.7-1 9.3-1.6 14-1 9.2-2.2 18.4-3.6 27.6-.3 2-.4 4.1-.8 6.1-.3 1.9-.6 3.7-.3 5.7.1 1 2.8 1 2.7.1-.3-1.9 0-3.8.3-5.7.4-2.2.5-4.4.9-6.5.7-4.7 1.4-9.4 2-14.1 1.1-9 2.1-18 3.1-27 .5-4.6.9-9.2 2-13.7 1-4.2 2.3-8.2 3.5-12.4.5-1.9 1.1-3.9 1.5-5.9l.6-3.3c.2-1 .7-1.5 1.2-2.4.8-1.6.9-3.6 1.3-5.3.5-2.3 1-4.6 1.4-6.9 3.6-18.3 5.9-37.6 3.8-56.2-1-9-2.8-17.9-4.8-26.8-2-8.7-3.9-17.3-7.5-25.5-3.3-7.4-7.7-14.4-13.3-20.3-5.3-5.6-11.6-10.2-18.1-14.2-7.5-4.6-15.3-8.4-23.1-12.3-8.4-4.3-16.7-8.5-25.1-12.9-8.3-4.3-16.5-8.6-24.7-13-8.1-4.4-16.5-8.4-23.7-14.1-12.9-10.3-25.7-20.7-36.5-33.2-2.8-3.3-5.5-6.7-8-10.3-2.4-3.5-4.1-7.5-5.4-11.5-2.8-8.5-4.7-17.6-5-26.6-.2-4.5-.1-9-.4-13.4-.3-4.6.2-9.1.4-13.7.2-4.5.5-8.8 1.2-13.2.7-4.5 1.5-9.1 2.5-13.6.9-4.5 2-8.9 3.1-13.3-.1-.7-2.8-.9-3 .1z"/><path d="M570 676.2c-3.5 14.9-8.3 29.5-14 43.7-5.7 14.2-12.3 27.9-19.5 41.4-4.1 7.7-8.4 15.2-12.8 22.7-.5.8 1.7 2.5 2.1 1.7 7.8-13.3 15.2-26.9 21.9-40.8 6.6-13.8 12.6-27.9 17.4-42.4 2.7-8.2 5.1-16.5 7.1-24.9.2-.9-2-2.4-2.2-1.4zM208 382.4c1.6-.1 3.1.5 4.6 1 1.6.5 3.2.8 4.8.6 3.5-.5 6.6-2.6 9-5.1 1.4-1.4 2.3-3.1 3.1-4.9 1-2.1 2.1-4.2 3.4-6.1.5-.8 1.2-1.7 1.9-2.3.1-.1.6-.4.4-.3.1 0 .2-.1.2-.1.4-.2-.2 0 .2-.1.3-.1.1-.1.4 0 0 0 .3 0 .5.1l1.2-2.1c-1.3-.2-2.5-.8-3.7-1.2-1.3-.4-2.6-.6-3.9-.4-1.5.3-1.6 2.3.1 2 2.1-.4 4.3 1.3 6.4 1.6 1.2.2 2.8-1.6 1.2-2.1-4.4-1.3-7.4 4.5-9.1 7.5-1 1.8-1.8 3.8-2.9 5.6-.1.2-.2.3-.3.5 0 .1-.1.1-.1.2-.1.2.2-.2 0 0-.6.7-1.2 1.3-1.8 1.9-1.3 1.1-2.7 2.1-4.3 2.7-1.8.7-3.5.5-5.3-.1-1.8-.6-3.5-1.2-5.4-1.1-.6 0-1.4.4-1.5 1.1-.2.7.3 1.1.9 1.1zM172.9 136.5c-10.7 10.4-18.7 22.9-23.6 37-2.5 7.1-4.3 14.4-5.4 21.8-1.2 7.5-2.2 15.4-1.3 23 1 8 4.5 15.2 9.1 21.7 4.5 6.3 10.2 11.8 16.7 16 13.5 8.8 30.1 11.3 46 12 4 .2 8 .1 11.9.2h.4c.4 0 .7 0 1.1.1 1 .1 2 .1 3 .2 2.5.1 5.1.2 7.6.1 1.9-.1 4.1-.1 5.9-.8.6-.3 1.2-.7 1.4-1.4.2-.6-.6-1.2-1.1-1.4-1.9-.8-3.8-.3-5.8-.3-1.6 0-3.2-.5-4.6-1.3-1.3-.8-2.5-1.8-3.6-2.8-1.2-1.1-2.5-2.3-3.6-3.5-4.8-5.3-8.2-11.8-9.9-18.7-.7-2.8-1.4-5.9-.7-8.7.5-2.2 1.9-4.1 3.6-5.5 3.5-3.1 8.6-4.6 13.3-4.1 2.2.3 4.6 1.1 6.2 2.8 1.8 2 1.9 4.9 2.5 7.4 1.5 7.2 4.7 14.1 9.6 19.7 4.8 5.4 10.8 9.8 17.2 12.9 3.3 1.6 6.8 2.9 10.4 3.4 4 .6 8.1.4 12.1.4 2 0 4 0 6-.2 1.9-.2 3.8-.6 5.8-.8 2.7-.4 5.4-.5 8.2-.4 2.3 0 4.5 0 6.8-.3 2-.2 4.3-.5 6-1.7.7-.4 1.1-1.1 1.3-1.8.3-1.2-2.2-2.2-2.5-.9-.1.5-.7.9-1.2 1.2-.9.4-1.9.7-2.9.8-2.3.4-4.7.5-7.1.5-2.4 0-4.7-.1-7 .1-3.9.4-7.8 1.3-11.8 1.4-4.1.1-8.3.3-12.4-.2-3.8-.4-7.4-1.5-10.8-3.2-6.5-3.1-12.5-7.6-17.1-13.1-2.4-2.9-4.3-6.2-5.7-9.6-1.4-3.3-2.2-6.8-3-10.3-.6-2.8-1.4-5.3-3.7-7.2-2-1.7-4.5-2.6-7.1-3-4.9-.7-10.3.7-14.3 3.7-1.9 1.4-3.5 3.2-4.4 5.4-1.1 2.6-.9 5.2-.4 7.9 1.2 7.2 4.2 14.1 8.6 19.9 2.1 2.8 4.5 5.2 7.1 7.5 2.5 2.2 5.4 4.1 8.8 4.5 1.9.2 4-.6 5.8.2-.4-.5-.7-.9-1.1-1.4.1-.2-.1.1 0 0-.1.1-.2.2-.3.2-.2.1.1 0-.2.1-.2.1-.4.1-.6.2-.8.2-1.7.3-2.6.4-2.3.2-4.7.2-7 .1-1.9-.1-3.8-.2-5.8-.3-2.7-.1-5.5 0-8.2-.1-15.2-.3-31.3-2-45-9.2-6.6-3.5-12.4-8.3-17.1-14.1-4.9-5.9-9-12.7-10.6-20.2-1.6-7.4-.9-14.9.1-22.3.9-7.2 2.4-14.3 4.5-21.3 4.1-13.6 11.1-26.3 20.8-36.7 1.3-1.4 2.5-2.7 3.9-4 .8-1.2-1.4-2.8-2.2-2z"/><path d="M176.6 135.7c8.2-4.1 15.3-9.8 23.1-14.6 4.1-2.6 8.5-4.8 13.2-6.2.7-.2 1.6-.3 2.3-.6 1.1-.5 2.1-1.6 3.1-2.3 2-1.5 4.1-2.9 6.2-4.2 4.2-2.8 8.4-5.5 12.5-8.3 2.1-1.5 4.2-3 6.2-4.6 1.9-1.6 3.7-3.5 6-4.6 2.1-.9 4.6-1.4 6.4-2.9.9-.7 1.7-1.7 2.5-2.5 1-1 2.2-1.6 3.4-2.2 4.5-2.4 9.2-4.4 14-6.2 19-7.1 39.5-8.9 59.6-6.9 19.5 1.9 38.5 7.3 56.5 14.8 2.4 1 5 1.8 6.9 3.7.7.7 1.4 1.6 2.2 2.1 1 .7 2.3 1.1 3.4 1.7 4.3 2.2 8.5 4.7 12.5 7.4 7.8 5.2 15 11.2 21.8 17.6 7.1 6.7 13.7 13.8 20.2 21 1.5 1.7 2.9 3.4 4.1 5.4 1.2 1.9 2.6 3.5 3.9 5.3 1.2 1.7 2 3.7 2.9 5.6 1 2.2 3.3 3.5 4.6 5.5 10.2 16.9 15 36.1 19 55.2.5 2.3.3 4.5.4 6.7.1 2.6 1.1 5.4 1.7 8 1.2 5.2 2.6 10.4 3.8 15.6 2.3 10 4.1 20.1 4 30.3-.1 5.2-.9 10.1-2.3 15-1.5 4.9-3.4 9.6-5.7 14.1-2.3 4.5-5 9.2-8.4 13-3.3 3.8-6.9 7.3-10.5 10.8-7.1 6.9-14.7 13.4-22.6 19.4-1.8 1.4-3.5 2.9-5.4 4.2-.5.3-1.1.6-1.5.9-.7.5.9-.4 1-.1l-.3-.1c-.8-.6-2.6-.2-3.3.3-.4.3-.6.8-.8 1.3-.8 1.4-1.4 2.9-2.1 4.3.2-.3 2.3.1 2.7-.6.7-1.5 1.4-3 2.2-4.4.1-.3.4-.6.5-.9 0-.1.2-.1.2-.2 0 .1-2.4.3-2.2.5.7.8 2.8.1 3.5-.1 3.1-.9 5.5-3.6 8-5.5 4.1-3.1 8-6.3 11.9-9.6 3.9-3.3 7.6-6.8 11.3-10.3 3.7-3.6 7.6-7.2 10.8-11.3 6.2-7.9 10.8-17.2 13.6-26.9 1.5-5.1 2.2-10.1 2.2-15.4 0-5.3-.4-10.6-1.3-15.9-1.6-10.6-4.6-20.9-7-31.3-.3-1.3-.6-2.7-.9-4-.3-1.3-.3-2.5-.3-3.8 0-1.1.1-2.2-.1-3.3-.2-1.3-.6-2.7-.9-4-1.1-4.9-2.2-9.9-3.4-14.8-2.5-9.7-5.5-19.2-9.8-28.2-1-2.2-2.2-4.3-3.3-6.5-.6-1.1-1.2-2.1-1.9-3.2-.7-1.2-1.6-2.1-2.6-3.1-.8-.8-1.5-1.5-2-2.6-.5-1-.9-2-1.4-3-1.1-2.1-2.7-3.6-4-5.4-1.3-1.8-2.2-3.9-3.7-5.5-1.6-1.9-3.4-3.7-5-5.6-3.4-3.7-6.8-7.4-10.3-10.9-6.8-6.9-13.9-13.4-21.7-19.3-3.9-2.9-7.9-5.6-12-8.1-1.9-1.1-3.8-2.2-5.7-3.2-2.4-1.3-4.8-2.3-6.7-4.2-.8-.8-1.5-1.6-2.5-2.1-1.2-.5-2.4-1.1-3.6-1.6-2.3-1-4.7-2-7.1-2.9-4.6-1.8-9.3-3.4-14.1-4.9-9.5-3-19.3-5.2-29.2-6.7-19.1-2.8-38.7-2.2-57.5 2.5-9.5 2.4-18.8 5.8-27.6 10.2-1 .5-2 1-3 1.6-1.2.7-2.1 1.8-3.1 2.7-2 2-4.5 2.6-7 3.7-2.1.9-3.6 2.4-5.3 3.8-2.1 1.7-4.2 3.3-6.4 4.9-4.2 3-8.7 5.8-13 8.7-2.2 1.4-4.3 2.9-6.4 4.4-.9.7-1.8 1.5-2.8 2.1-.7.4-1.8.6-2.7.9-8.8 2.7-16.3 8.2-23.8 13.3-4 2.7-8 5.3-12.4 7.5-.5.2.4.1.5.1.6-.1 1.3-.3 1.8-.5zM266.6 630.8c-3 20.3-5.3 40.8-10.4 60.7-5.1 19.9-12.4 39.2-18.4 58.8-3.4 11.1-6.3 22.4-9 33.8-.2 1 1.9 2.6 2.2 1.5 2.4-10.1 5-20.1 7.9-30.1 2.9-9.9 6.2-19.6 9.5-29.4 3.2-9.8 6.4-19.5 9.1-29.5 2.7-9.9 4.7-20 6.3-30.2 1.8-11.4 3.3-22.9 5-34.3.1-.6-.3-1.2-.8-1.5-.3 0-1.3-.4-1.4.2zM321.5 377.2c9 3.9 19.2 4.5 28.6 1.9 9.3-2.6 17.8-8.3 23.7-16 3.4-4.4 6-9.5 7.5-14.9.2-.6-.5-.5-.9-.4-.5.2-1.3.6-1.4 1.2-2.5 8.8-7.8 16.8-15.2 22.2-7.2 5.2-16 8-24.9 7.8-5.3-.1-10.5-1.3-15.4-3.4-.8-.4-2.8 1.3-2 1.6zM307.9 369.8c3.8 2 7.7 4.1 11.6 6 .5.2.8-.1.6-.6-.2-.6-.7-1.2-1.3-1.5-3.9-1.9-7.7-4-11.6-6-.5-.3-.8.1-.6.6.2.7.8 1.3 1.3 1.5zM443.1 501.5c1.1 9.8 3.3 19.5 6.1 29 2.8 9.3 6.6 18.4 9 27.8 2.2 8.9 2.8 18.1 1.3 27.2-1.4 9.2-4.7 18-8.9 26.2-4.2 8.3-9 16.3-13.5 24.5-4.6 8.4-8.6 16.9-11.7 25.9-6.6 18.8-11 38.3-16.2 57.6-5.2 19.6-11.5 38.8-17.7 58.1-.8 2.4-1.6 4.8-2.3 7.2-.2.7 2.4.6 2.6-.1 6.3-19.4 12.7-38.7 18.2-58.3 5.4-19.3 9.7-39 15.9-58.1 3-9.1 6.4-18 10.8-26.5 4.3-8.4 9.1-16.4 13.6-24.7 4.4-8.2 8.4-16.5 10.6-25.6 2.2-8.7 2.8-17.8 1.5-26.7-1.4-9.7-5.1-18.9-8.2-28.1-3.2-9.4-5.7-19-7.3-28.7-.4-2.4-.7-4.8-1-7.2-.2-.6-2.9-.3-2.8.5z"/><path d="M340.2 341.7c.1 4.7-1.2 9.3-3.7 13.2-2.5 3.8-6 7-9.8 9.4-4.2 2.7-9 4.7-14 5.2-2.1.2-4.7.2-6.6-.7-1.6-.8-2.9-2.2-3.8-3.7-2.3-3.3-3.8-8.6-.3-11.5.9-.7-1.5-2-2.3-1.4-3.5 2.9-2.7 7.8-.8 11.3 1 1.9 2.4 3.7 4.1 5.1 1.9 1.5 4 2.3 6.4 2.5 5.6.7 11.4-1 16.4-3.6 4.4-2.4 8.6-5.5 11.7-9.5 3.6-4.6 5.5-10 5.4-15.8-.1-.9-2.7-1.7-2.7-.5zM505.6 263.9c-10.2 2.3-20.7.7-30.3-3.4-4.5-1.9-8.7-4.5-12.7-7.3-3.8-2.6-7.4-5.6-10.6-8.9-3.2-3.3-6-6.9-8.3-10.9-.5-.9-1.2-1.9-1.5-3-.4-1.4.9-2.6 2-3.2 1.8-1.1 4-.6 5.9 0 1 .3 1.9.8 3 1.1 1.2.4 2.5.6 3.8 1 2.4.7 4.8 1.7 7.1 2.7 4.8 2.1 9.4 4.7 13.9 7.5 2.3 1.5 4.9 2.8 7 4.7 1.6 1.4 2.8 3.2 3.7 5.2 1.9 3.7 3 7.9 5.8 11 .4-.3.8-.5 1.3-.8-1-.6-1.7-1.3-2.2-2.3-.5.2-.9.4-1.4.6.9.6 1.6 1.4 2.2 2.3.4-.2.8-.5 1.2-.7-1.9-.7-3.9-.9-5.8-1.4-2-.5-4-1.4-5.9-2.2-3.8-1.6-7.5-3.4-11.1-5.3-7.2-3.7-14.2-7.6-21.5-11-7.5-3.5-15.3-6.4-23.6-7.7-8.2-1.2-16.5-1.1-24.8-.3-8.5.8-16.8 2.3-25.2 3.7-4.1.7-8.3 1.3-12.4 1.9-3.3.4-6.6.8-9.9.6-1.4-.1-2.8-.3-4-1-.6-.3-1.1-.8-1.6-1.3s-1-1.1-.6-1.7c.4-.6.9-1.2 1.4-1.7.7-.7 1.6-1 2.5-1.4 2.2-.8 4.4-1.5 6.6-2.1 8.4-2.3 17-3.1 25.6-3.3 4.2-.1 8.5 0 12.7.3 2.3.2 4.6.4 6.8.7 1.9.3 3.7.7 5.5 1.1 6.8 1.5 14 2.7 20 6.5 1.5 1 3 2.1 4.3 3.4v-.8c-.3.2-.7.4-1 .6-.1 0-.6.2-.6.3-.2.3.4.6.7.5.6-.2.8-.5 1.6-.3-.2-.4-.4-.7-.6-1.1-14.9 9.8-31.2 17.7-48.7 21.5-5.4 1.2-10.8 2-16.3 2.4l1 1c.1-.2.3-.4.3-.6.2-.5.2.2 0-.2-.3-.7-1-.3-1.6-.2l1.1 1.1c7.4-5.8 15.6-10.3 24.2-14.1 4.2-1.8 8.6-3.5 12.9-5.1 2.1-.8 4.3-1.6 6.5-2.3 1-.4 2-.8 3.1-1.1 1.2-.4 2.6-.3 3.9-.2 2.5.2 5 .6 7.5.2 2-.4 4.2-2.1 5.4-3.7.2-.3 0-.6-.3-.8-1.3-.6-3.2-1.8-4.7-1.5-1 .2-1 1-.5 1.7 1.2 1.6 4.2 2.5 5.5.5.3-.4-.2-.7-.5-.9-13.2-6.5-25.6-14.4-38.6-21.4-3.6-2-7.3-3.9-11.1-5.6.2.3.3.6.5.9.5-.7 1.3-1.4 2-1.9.2-.1.9-.7 1.2-.5.3.1.5 1 .4 1.2-.2 1.5-3.2.7-4.1.3.2.3.3.6.5.9 4.3-5.7 12-.3 16.5 2.3 7.3 4.2 13.9 9.3 20.7 14.2 3.9 2.8 7.8 5.5 11.8 8 .3.2 1.4.4 1.4-.3 0-1.3-1.9-2-2.9-2-.6 0-1.2.3-.9.9.4.8 1.9 1.2 2.6 1.5.3.1 1.2.1 1.2-.4.2-2 .4-6.6-2.9-5.8-1.3.3-2.1 2-1.8 3.3.3 1.7 2.2 2.6 3.8 3 .3.1 1 0 1-.5 0-.8-.1-1.5-.4-2.2-.2-.5-1.4-.7-1.7-.1-.4 1-.3 1.8.4 2.5.3.3 1.5.5 1.6-.2.4-4.6-1-9.2-3.3-13.1-1.2-2-2.8-3.7-4.4-5.5-1.6-1.8-3.2-3.6-4.7-5.5-6-7.4-11.3-15.4-15.7-23.9-2.5-4.8-4.6-9.7-6.4-14.7-.5.1-1.1.2-1.6.3.5.6.7 1.3.7 2 .6-.1 1.1-.1 1.7-.2-.4-.7-.6-1.4-.8-2.2-.3.2-.7.4-1 .6.5.1.9.2 1.4.4.4.1 1.4.4 1.6.8.1.2 0 .3-.2.4l-.2-.1c-.2-.1-.3-.3-.4-.4-.5-.6-1-1.2-1.3-1.9-.3.3-.6.5-.9.8 7.8 1.1 12.4 8.6 16.8 14.3 5.3 6.8 10.5 14.2 12.7 22.6 1.3 4.8 1.4 9.8.1 14.7h1.7c-.5-.7-.2-1.3.3-1.9-.6-.1-1.1-.2-1.7-.3.1.8-.1 1.5-.3 2.2.4-.1.8-.3 1.2-.4-1-.5-2-1.5-1.9-2.7 0-.5.8-2.3 1.2-1.3.5 1.3-.2 3.1-.6 4.3.4-.1.8-.3 1.2-.4-7.2-3.2-12.4-9.4-18.8-13.9-6.6-4.6-14.4-7.3-21.6-10.8-3.5-1.7-7-3.6-9.8-6.4-2.9-2.9-4.8-6.6-7.1-10-4.7-7-10.4-13.3-14.1-21-3.9-8.2-5.9-18.1-2.4-26.8-.5 0-.9.1-1.4.1.7.5 1.3 1.4 1.5 2.2.1.4.2.9-.1 1.3-.2.2-.4.3-.6.3.5-.1.1.3.2-.1 0-.3-.1-.7-.1-1 0-.4.1-.8.1-1.2.1-.6.3-1.2.5-1.8-.5.1-1.1.1-1.6.2 4.8 5.3 9.3 10.9 13.2 16.9 1.9 3 3.7 6.1 5.3 9.3.8 1.6 1.5 3.2 2.2 4.9.7 1.6 1.5 3.3 1.7 5 1 6.3 5 11.4 9.4 15.8 1.1 1.1 2.2 2.2 3.3 3.2.9.9 1.6 1.9 2.1 3 .5 1 1 2.2.9 3.3-.1 1.4-1.1 1.8-2.3 2-14.4 2.8-29.2 1.9-43.3-2.3-7-2.1-13.7-4.9-20.2-8.1-1.6-.8-3.3-1.6-4.7-2.8-1.2-1-2.5-2.1-2.9-3.7-.7-2.8 2.1-4.8 4.5-5.2 1.8-.3 3.2.2 4.9.8 1.9.7 3.7 1.4 5.6 2.2 3.7 1.5 7.3 3 10.9 4.6 7.3 3.1 14.6 6.4 22 9.3 1.9.7 3.8 1.5 5.7 2.2.9.3 1.8-.6.7-1.1-.4-.2-.8-.5-1.2-.7-.3.3-.6.7-.9 1 .4.2.8.4 1.2.7v-1c-1 .4-1.9 0-2.9-.3-.8-.3-1.5-.4-2.4-.5.2.4.5.8.7 1.2 1.6-.7 3.3.1 4.8.7.2-.4.3-.8.5-1.2-3.1-.5-6.1-.9-9.1-1.7v1.3c2.9.2 5.9.6 8.7 1.6.1-.4.1-.8.2-1.2-5.1-.1-9.9-1.8-14.3-4.3-2.1-1.2-4.1-2.7-6.1-4.1-.9-.7-1.9-1.4-2.8-2.1-.9-.7-1.5-1.7-2.3-2.5-.9-.8-1.9-1.5-2.8-2.4-1-1.1-1.8-2.3-2.7-3.4-1.7-2.1-3.4-4.3-5-6.5-3.2-4.2-6.3-8.5-9.2-12.9-2.9-4.4-5.5-8.9-7.8-13.6-1.2-2.4-2.3-4.8-3.2-7.3-.5-1.2-.9-2.3-1.3-3.5-.2-.5-.5-1.1-.2-1.6.3-.4.9-.8 1.4-.9 1.8-.4 3.8 1.3 5 2.4 1.8 1.5 3.1 3.5 4.6 5.3 3.5 4.4 7.1 8.7 10.8 13 2.1 2.4 4.1 4.7 5.8 7.4 1.6 2.5 3 5.1 4.4 7.8 1.3 2.7 2.6 5.4 3.9 8 .6 1.2 1.1 2.5 2.1 3.6.9.9 1.9 1.6 2.8 2.5.3.3 1.6.6 1.6-.2 0-1.1-.6-2.8-2.1-2.2-1.3.6-.1 2 .6 2.4.4.3 1.8.2 1.4-.6-7.2-13.7-12.8-28.3-16.2-43.5-3.4-15.1-4.5-30.6-2.9-46 .5-4.6 1-9.3 1.9-13.8.6-3.2.8-7.2 3.5-9.5-.5-.2-1.1-.4-1.6-.6-.1.4-.2.6-.7.7l1.2.9c.3-.4.5-.7.9-.9-.5-.2-1-.5-1.4-.7 0 1.9 1.8 3.8 1 5.6.6 0 1.1.1 1.7.1-.7-1.6-2.4-3.6-1-5.3-.6-.1-1.1-.2-1.7-.3.5 1.7 1.2 3.4 1.3 5.2.6-.1 1.1-.1 1.7-.2-1-1.5-1.5-3.1-1.2-4.9-.6 0-1.2-.1-1.8-.1 3.3 11.6 4.8 23.6 4.8 35.6 0 5.9-.4 11.9-1 17.7-.3 3-.8 6-1.2 9-.5 3-1.2 6-1.7 9-.1.7-.2 1.5-.9 2-1.2.8-2.4-1.5-3-2.3-1.7-2.2-3.3-4.5-4.8-6.8-3.1-4.6-5.8-9.4-8.4-14.3-5-9.5-9.3-19.4-13.7-29.2-1.3-2.8-2.6-5.5-3.9-8.3-.6-1.3-1.2-2.8-2-3.9-.7-1-1.5-1.9-2.4-2.7-3.7-3.4-8.7-5.5-13.7-6-.3 0-1.2.1-1 .6.4 1.1.8 2.8 1.8 3.5.6.4 1.6.4 1.9-.4.6-1.7-1.1-3.5-2.7-3.7-.3 0-1.2.1-1 .6 3 9.9 9.1 18.2 15.8 25.9 6.7 7.8 14.2 15.1 19.3 24.1 2.5 4.3 3.6 9.6 8.7 11.7.5.2 1.5 0 1.2-.7-.6-1.5-1.1-3-2-4.3-.6-.8-2.3-2.1-3.1-.8-.6.9.6 2.3 1.1 3 .8 1 1.6 2.1 2.7 2.8.5.3 1.7.2 1.4-.6-4.9-11-6-23.1-6.8-35-.7-11.1-.8-23.1-6.7-33-2.9-4.9-7.2-8.7-12.3-10.9-.4-.2-1.3-.1-1.2.6.1.9.9 2 2 1.5s.1-1.6-.6-1.9c-.3-.2-1.7-.3-1.4.5 3.7 11.7 6.6 23.7 9.8 35.6 3.2 11.9 6.8 23.7 12 34.9 2.9 6.3 6.4 12.3 10.5 18 .5.6 2.2.4 1.6-.3-7.2-10-12.4-21.2-16.4-32.8-4-11.7-7-23.7-10.2-35.6-1.7-6.6-3.5-13.2-5.6-19.7-.5.2-1 .3-1.4.5.4.3 1 .3 1.5.1-.1-.2-.1-.4-.1-.5l-1.2.6c10.5 4.5 14.9 15.3 16.5 25.9.8 5.5 1.1 11 1.4 16.6.3 5.7.8 11.5 1.7 17.2 1 6.4 2.6 12.6 5.2 18.6.5-.2.9-.4 1.4-.6-.5-.4-1.2-1.2-1.7-1.7l-.9-1.2c-.2-.3-.4-.9-.6-1.1-.3-.3.4-.2-.3 0-.4.1-.3-.1 0 .3s.6.9.8 1.4c.5 1 .8 2 1.3 3 .4-.2.8-.5 1.2-.7-4.4-1.9-5.4-7-7.6-10.7-2.4-4.3-5.5-8.2-8.6-11.9-6.3-7.6-13.4-14.5-19-22.7-3.2-4.7-5.9-9.8-7.6-15.3-.3.2-.7.4-1 .6.9.1 1 1 1.2 1.8v.3s.9.1 1 0l-.1-.1c0-.2-.3-.6-.4-.8-.3-.6-.4-1.1-.6-1.7-.3.2-.7.4-1 .6 4.8.4 9.5 2.5 12.9 5.8.9.8 1.7 1.8 2.3 2.8.7 1.2 1.2 2.5 1.8 3.8 1.2 2.5 2.4 5 3.5 7.6 4.6 10.1 9 20.3 14.3 30.2 2.7 5 5.5 9.9 8.7 14.6 1.6 2.3 3.3 4.6 5 6.9 1.1 1.5 3.3 2.8 5 1.4.6-.5 1-1.2 1.2-2 .3-1.3.5-2.7.7-4 .6-3.1 1.1-6.1 1.5-9.2.9-6.1 1.4-12.2 1.6-18.4.5-13.7-1-27.5-4.7-40.7-.2-.6-1.6-1-1.8-.1-.4 2 .2 3.9 1.3 5.5.4.5 1.8.7 1.7-.2-.1-1.8-.7-3.5-1.3-5.2-.2-.7-1.3-.8-1.7-.3-1.7 2 .2 4.3 1 6.3.2.5 1.4.7 1.7.1.9-2.2-.9-3.8-.9-6 0-.6-.9-1-1.4-.7-.6.4-1.1.8-1.5 1.4-.4.6.8 1 1.2.9.9-.2 1.5-.7 1.8-1.6.2-.7-1.2-1-1.6-.6-2.3 2-2.9 5.1-3.4 7.9-.7 3.9-1.4 7.8-1.8 11.8-.9 7.9-1.4 15.8-1.1 23.8.6 15.8 3.9 31.4 9.2 46.2 3 8.3 6.6 16.4 10.7 24.3.5-.2.9-.4 1.4-.6-.2-.1-.4-.5-.5-.5-.2-.1-.9.1-1 .1v.7c.5-.1 1.1-.1 1.6-.2-.8-.8-1.8-1.4-2.6-2.3-1.1-1-1.6-2.5-2.2-3.8-1.2-2.6-2.5-5.1-3.7-7.7-2.6-5.1-5.5-9.8-9.3-14.1-3.9-4.5-7.8-9-11.5-13.6-2.7-3.4-5.7-8-10.4-8.9-1.6-.3-3.9.2-4.6 2-.2.5.2 1.3.4 1.8l.6 1.8c.5 1.3 1 2.7 1.6 4 2.1 5 4.6 9.9 7.5 14.5 2.9 4.8 6.2 9.5 9.6 14.1 1.7 2.3 3.4 4.5 5.1 6.8 1.7 2.2 3.4 4.7 5.4 6.8 1 1.1 2.3 1.8 3.3 2.9.4.5.6 1 1.2 1.4.6.5 1.2.9 1.8 1.4 2.3 1.8 4.7 3.5 7.2 5.1 5 3.1 10.5 5.1 16.4 5.2.8 0 1-.9.2-1.2-3.1-1.1-6.3-1.6-9.6-1.8-1.1-.1-.8 1 0 1.3 3 .8 6.1 1.2 9.1 1.7.9.2 1.4-.8.5-1.2-2.1-.9-4.3-1.7-6.6-.7-.9.4.2 1.1.7 1.2 1.1.1 2.1.6 3.2.9 1 .2 1.9.2 2.9-.2.5-.2.4-.7 0-1-.5-.4-1-.7-1.6-.9-.7-.3-1.8.4-.9 1 .5.3 1 .6 1.6.9.2-.4.5-.7.7-1.1-8.1-3-16-6.4-23.9-9.8-3.9-1.7-7.9-3.4-11.8-5l-6-2.4c-1.8-.7-3.7-1.8-5.6-2-2.6-.3-5.7.3-7.5 2.3-2 2.2-1.4 5 .5 7.1 1.1 1.2 2.4 2.3 3.8 3.1 1.7.9 3.4 1.8 5.2 2.6 3.5 1.7 7.1 3.3 10.8 4.6 14.3 5.4 29.6 7.7 44.9 6 2.1-.2 4.2-.5 6.2-.9 1.3-.2 2.8-.4 3.7-1.4 1.5-1.7.3-4.5-.6-6.2-1.4-2.7-3.9-4.6-6-6.8-2.4-2.5-4.6-5.1-6.2-8.1-.8-1.5-1.4-3.2-1.8-4.9-.2-.8-.3-1.7-.5-2.5-.3-.9-.7-1.9-1-2.8-1.4-3.5-3-6.9-4.8-10.2-3.7-6.6-8.1-12.7-13-18.5-1.2-1.5-2.5-2.9-3.8-4.3-.4-.4-1.4-.5-1.6.2-.6 1.6-1.5 5.5 1.2 5.7 1.4.1 2.7-.9 2.6-2.3-.1-1.4-1.2-2.8-2.3-3.7-.3-.2-1.2-.3-1.4.1-3.1 7.7-2.2 16.2.7 23.9 3.1 8.1 8.4 14.8 13.5 21.7 2.6 3.5 4.7 7.4 7.3 10.8 2.4 3.1 5.3 5.5 8.7 7.4 7.3 4.1 15.4 6.7 22.6 11 7.8 4.7 13.6 12 21.9 15.8.4.2 1.1.1 1.2-.4.5-2 1.7-6.3-1.7-6.3-1.4 0-2.5 1.5-2.5 2.8-.1 1.8 1.5 3.2 3 3.9.4.2 1.1.1 1.2-.4.2-.9.4-1.7.3-2.6-.1-.8-1.3-.7-1.7-.3-.7.9-.9 1.9-.3 2.9.3.5 1.5.7 1.7 0 2.4-9.1-.3-18.1-4.8-26-2.3-4-5-7.7-7.8-11.4-2.4-3.2-4.8-6.5-7.5-9.4-3-3.2-6.7-5.7-11.2-6.4-.5-.1-1.2.2-.9.8.5 1.1 1.4 2.4 2.4 3 1 .6 2.5.5 3-.6.8-1.9-3.3-3-4.5-3.2-.3-.1-1.2.1-1 .6.2.9.5 1.7 1 2.5.3.6 1.8.7 1.7-.2-.1-1-.4-1.9-1.1-2.6-.3-.4-1.9-.5-1.6.3 3.2 8.7 7.2 17 12.1 24.8 2.5 4 5.2 7.9 8.1 11.6 1.4 1.8 2.9 3.7 4.4 5.4 1.6 1.8 3.3 3.6 4.9 5.4 3.4 4 5.5 9.7 5 15 .5-.1 1.1-.1 1.6-.2-.4-.4-.4-.8-.2-1.2-.6 0-1.1-.1-1.7-.1.2.5.2 1 .2 1.6.3-.2.7-.3 1-.5-.9-.2-2.1-.8-2.2-1.9 0-.4.4-2.1.9-1.8.5.3.5 1.7.5 2.1 0 .7-.1 1.4-.1 2 .4-.1.8-.3 1.2-.4-.4-.2-1.2-.8-1.6-.8-.3 0 .2-.7-.4.3-.4.7-.3.3-.2.4.1.2.9.3.9.4.5-.1 1-.2 1.4-.3-7.8-4.7-14.9-10.4-22.3-15.7-3.7-2.6-7.6-5-11.5-7.3-2.7-1.6-5.5-3.2-8.6-4-3.5-.9-7.1-.3-9.3 2.8-.3.4.2.8.5.9 1.8.7 7.2 1.6 6.5-1.9-.3-1.7-1.9-2.4-3.5-1.9-1.4.5-2.7 1.7-3.5 2.9-.3.4.2.7.5.9 13.3 6.3 25.7 14.2 38.6 21.2 3.6 2 7.3 3.9 11 5.7-.2-.3-.3-.6-.5-.9-.6.9-1.6.4-2.2-.3-.1-.1-.2-.3-.2-.3.1 0-.3.2-.2.2 0 0 .8.2.9.2.7.2 1.4.6 2 .9-.1-.3-.2-.5-.3-.8-1.3 1.8-3.5 3.2-5.8 3.3-2.3.1-4.6-.4-6.9-.5-2.2-.1-4 .6-6 1.3-2.2.8-4.3 1.5-6.5 2.3-8.6 3.1-17.1 6.5-25 11-4.5 2.5-8.9 5.4-12.9 8.6-.8.6.6 1.1 1.1 1.1.8-.1 3.2-.9 1.7-2-1.1-.8-2.5 0-2.9 1.1-.3.6.5 1 1 1 18.7-1.3 36.7-7.4 53.1-16.4 4.5-2.4 8.9-5.1 13.1-7.9.6-.4-.2-1-.6-1.1-1-.3-3.5-.1-3.6 1.4-.1.7.7 1 1.3 1 1 0 2.1-.8 2.9-1.3.3-.2.2-.6 0-.8-5.2-5.2-12.1-7.6-19.2-9.2l-5.4-1.2c-1.9-.4-3.8-.9-5.7-1.2-4.4-.6-8.8-1-13.3-1.1-8.8-.3-17.7.2-26.4 1.8-4.4.8-8.6 1.9-12.8 3.4-1 .4-2.3.6-3.2 1.2-.6.4-1 1-1.5 1.5-.4.5-.9 1-1.2 1.6-.3.7 0 1.1.4 1.7 1.6 2.5 4.3 3.5 7.2 3.8 3.2.3 6.4 0 9.6-.4 8.7-1 17.4-2.7 26.1-4 8.8-1.4 17.7-2.5 26.6-2.3 8.9.2 17.6 1.8 25.9 5.1 7.9 3.1 15.5 7.2 23 11.1 3.6 1.9 7.3 3.8 11 5.6 1.9.9 3.9 1.8 5.9 2.7 1.9.8 3.9 1.8 6 2.3 2 .5 4.1.7 6.1 1.4.4.2 1.6 0 1.2-.7-.8-1.1-1.6-2.1-2.7-2.9-.5-.3-1.7-.2-1.4.6.6 1.3 1.6 2.1 2.7 2.9.6.3 2 0 1.3-.8-2.7-3-3.8-7.1-5.6-10.7-.9-1.8-2-3.6-3.5-5.1-1.8-1.7-4-2.9-6-4.3-4.7-3-9.5-5.8-14.6-8.2-2.5-1.2-5.1-2.2-7.8-3.1-1.2-.4-2.3-.7-3.5-1-1.3-.3-2.4-.8-3.6-1.2-2-.7-4.1-1.2-6.2-.8-1.8.4-4.3 1.9-4.5 3.9-.1 1.1.5 2.1 1 3.1.6 1.1 1.2 2.3 1.9 3.4 1.2 2 2.6 3.8 4.1 5.6 3.1 3.7 6.7 7 10.5 9.9 4.1 3.2 8.4 6.1 13 8.4 10.9 5.5 23.3 8 35.4 5.3.4.2-.6-.9-1.4-.7z"/><path d="M507.2 258.4c-4.7 2.5-9.6 4.8-14.9 5.7-1.4.2-3 .2-4.4.2h-4.8c-3 0-5.9-.1-8.9-.2-11.9-.4-23.8-1.5-35.7-1.6-1.1 0-2.2 0-3.3-.2-.8-.1-1.5-.3-2.3-.5-1.5-.3-3.1-.8-4.5-1.6-1.5-.9-2.3-1.9-2.3-3.6 0-2.1 2-3.1 3.8-3.7.9-.3 1.8-.4 2.7-.5 1.4-.1 2.8.2 4.1.3 3 .3 6.1.5 9.1.7 6.1.4 12.1.7 18.2.9 12 .5 24.1.9 36 2.1 1.5.2 3.1.3 4.6.5.2 0-.3-1.5-.7-1.6-12.6-1.5-25.3-2-38-2.5-6.4-.2-12.7-.5-19.1-.9-3.1-.2-6.3-.4-9.4-.7-2.5-.2-4.9-.7-7.4-.2-1.7.3-3.8 1-4.6 2.7-.7 1.5 0 3.7.8 5.1 1.7 3 5.1 4 8.2 4.6.7.2 1.5.3 2.3.4 1.4.2 3 0 4.4.1l9.3.3c6.2.3 12.4.7 18.7 1 6.2.3 12.5.5 18.8.4 1.4 0 2.9 0 4.4-.1 1.4-.1 2.8-.5 4.1-.8 2.7-.8 5.3-1.9 7.9-3.1 1.2-.6 2.5-1.2 3.7-1.9.3.2-.5-1.4-.8-1.3zM423.2 685.3c0-6.1-.8-12.2.4-18.3.3-1.4.6-2.8 1.1-4.2.6-1.6 1.5-2.9 2.4-4.2 1.6-2.3 3.3-4.5 4.9-6.9 1.4-2.2 2.7-4.6 3.4-7.2.9-3.2 1.4-6.5 1.8-9.7.8-6.5.9-13 1.3-19.5.2-3.3.5-6.7 1.1-10 .5-3.1 1.5-6.2 1.4-9.4-.1-1.4-.3-2.9-.8-4.2-.4-1.1-.8-2.5-1.7-3.3-1.3-1.3-3.9-1.9-5.5-.8-1.9 1.3-2.6 3.8-3.3 5.9-.5 1.5-.5 3.2-.7 4.7-.2 1.8-.5 3.5-.8 5.3-1.1 6.8-2.3 13.5-3.1 20.4-.9 7.4-.8 14.9-1.1 22.3-.1 3.7-.3 7.3-.3 11 0 .8 0 1.5.3 2.3.3.6.7 1.1 1.1 1.6 1 1.2 2.3 2.1 3.4 3.1.3.3 1.4.7 1.6.1.3-1 1.1-2.9.6-4.1-.3-.8-1.5-1-2.1-.5-1.2 1-1.3 3.5-.2 4.5.3.3 1.4.6 1.6.1 1.5-5 3.8-9.7 5-14.8 1.2-5.1.5-9.9-.8-14.8-2.5-9.3-6.8-18.1-12.7-25.7-1.4-1.9-2.9-3.6-4.5-5.4-1.6-1.7-3.2-3.5-5.1-4.8-1.9-1.3-4-2.5-6.3-2.7-.9-.1-1.8-.1-2.6.5s-1.3 1.3-1.8 2.2c-.8 1.7-.7 3.7-.5 5.5.3 2 .7 4.1 1.2 6.1 1.5 5.1 3.3 10.2 5.4 15.1 1.1 2.6 2.4 5.2 3.7 7.7 1.3 2.4 2.5 4.8 4.6 6.7 3.8 3.5 8.6 5.5 12.4 9 .3.3 2 .5 1.5-.2-.4-.6-1-1.1-1.6-1.6-.3-.2-1.4-.7-1.6-.1-.1.5 1.4 1.6 1.7 1.8.3.3 2 .6 1.5-.2-.6-1-1.9-3.8-3.5-3.3-1.5.5 1.5 3 1.9 3.5.3.3 2 .6 1.5-.2-2.5-4.3-1.3-9.7-2.6-14.3-1.2-4.5-3-9-4.8-13.4-3.9-9.2-8.1-18.5-9.1-28.5-.5-5.1-.2-10.3.2-15.4.5-5.2 1.4-10.4 2.7-15.4 1.3-5 3.2-9.8 4.8-14.7 1.7-5.1 3.3-10.3 4.8-15.5.7-2.6 1.5-5.2 1.9-7.8.3-1.6.4-3.4-.1-4.9-.5-1.4-1.4-2.4-2.9-2.9-1.6-.5-3 .1-4.1 1.3-1.5 1.5-2.3 3.7-3.1 5.6-1 2.3-2 4.7-2.8 7-1.7 4.7-3 9.6-4.1 14.5-1.1 5.1-2.2 10.2-2.7 15.4-.5 5.3-.2 10.6.6 15.9.4 2.7 1 5.4 1.6 8.1.5 2.3 1 4.6 1.8 6.8.5 1.2 1.2 2.2 2.6 2.4 1.8.3 2.8-.4 3.6-1.9.5-.9.9-1.5 1.7-2.1 1-.8 2-1.6 2.9-2.4 1.7-1.5 3.2-3 4.7-4.7 3.1-3.3 5.8-7 8.2-10.8 4.8-7.8 8-16.2 10.9-24.8.8-2.3 2.1-4.3 2.9-6.7.2-.6-1.1-.8-1.4-.7-.7.2-2.5.9-1.3 1.8 1.1.8 2.2 0 2.7-1 .3-.6-1.1-.8-1.4-.7-3.6 1-5.9 4-8 6.8-2.9 3.8-6 7.6-8.9 11.5-5.3 7.1-11 14.6-13.8 23.1-1 3.1-1.1 8.2-4.7 9.5.5.2 1 .4 1.6.5-2.9-7.7-6.2-15.3-9.4-22.9-2.9-7.1-6.2-14-8.3-21.3-.1-.4-.6-.6-1-.6s-.8-1.8-1.1-2.1c-.6-.7-1.9-1.1-2.8-.8-.7.3-1 1.2-1.2 1.9-.4 1-.6 2.1-.7 3.2-.2 2 .1 4 .6 5.9 1.1 4.2 3 8.4 5.2 12.2 2.3 3.9 4.9 7.6 7.2 11.5 1.3 2.2 2.4 4.5 3.6 6.8 1.1 2.2 2.4 4.3 3.4 6.5.2-.2.5-.4.7-.6.4.1.1.1 0-.1 0-.1-.1-.3-.2-.3v-.1c-.1-.4-.5-.4-1.2.2 0 .2.7.8.7.9.2-.2.5-.4.7-.6-.9 0-3.5-.2-3.9-1.2-.1-.4.1-.7.4-1 .5-.5.8-.5 1.3 0 .7.7 1.2 1.7 1.5 2.6.3-.1.5-.3.8-.4-9.4-.5-15.5-9.4-21.7-15.3-4-3.8-8.3-7.4-12.7-10.8-4-3.1-8.4-5.8-12.4-8.9-3.1-2.4-7.1-5.9-11.3-4.8-.2 0-.4.2-.3.4 2.6 7.4 8.1 13.2 14 18.3 6.4 5.5 13.1 10.9 21 14.1 4.6 1.9 9.5 2.9 14.4 2.8.2 0 .6-.1.5-.4-1.4-5.4-4.9-9.8-8-14.3-3.4-4.9-5.7-10.3-7.7-15.8-2-5.4-4-10.9-6.9-15.9-1.5-2.6-3.2-5.1-5.1-7.4-1.7-2.1-4.1-3.9-6.1-5.7-8.4-7.3-17.4-14-27.7-18.4-1.2-.5-2.5-.9-3.7-1.5-1.2-.6-2.5-1.3-3.8-1.8-2.1-.9-4.5-1.5-6.8-1.1-1.2.2-2.2.6-3.2 1.3-.3.2-.6.4-.7.7-.1.3 0 1.3.1 1.6.3 1 1.4 2 2.1 2.7.9 1 2 1.9 3.1 2.8 1 .8 2.1 1.6 3.1 2.4 1.3 1 2.3 2.1 3.3 3.3 1.7 2 3.2 4.2 5.2 5.8 2.2 1.8 5 3.1 7.6 4.4 2.7 1.4 5.5 2.6 8.2 3.9 2.8 1.3 5.5 2.6 8.2 4.1 2.2 1.3 4.4 2.5 6 4.5 2.1 2.6 3.8 6.3 7 7.7 1.4.6 2.9.6 4.3 0 1-.5 1.4-.8 1.7-1.8.5-1.6.9-3.2 1.3-4.8 1.4-5.9 2.2-11.8 2.5-17.8.6-11.9-1-23.9-5-35.2-1.3-3.8-4-8.2-8.4-8.7-.9-.1-1.8 0-2.6.3-.4.1-1.1.4-1.4.7-.3.4-.3 1.4-.4 2-.4 2.6-.3 5.2 0 7.7.7 5.3 2.7 10.4 4.5 15.4.9 2.6 1.9 5.2 2.6 7.9.8 2.8 1.2 5.7 1.7 8.6.5 2.8 1 5.6 1.9 8.3.1.5 1.7 1 1.8.3 0-1.1-.4-2.3-1.8-2.1-.1 0-.3.1-.3.3-.1.5.2 1.1.4 1.5.2.4 1.6 1 1.8.3.3-1.9.3-3.7.4-5.6 0-.5-1.1-.7-1.4-.6-1.2.4-1.8 1.1-1.6 2.4.1 1 1.1 2.3.9 3.4.6.2 1.2.3 1.8.5.1-1.2.1-2.4.2-3.6 0-.4.1-1.1 0-1.5-.2-.8-1.5-1.1-1.8-.3-.3.7-.2 1.9-.2 2.7 0 .8-.1 1.8.2 2.6.2.4 1.6.8 1.7.2.5-6.7-2-12.5-5.3-18.1-3-5-6.7-9.7-10.8-13.9-8.5-8.8-18.7-16.1-28.9-22.9-1.4-.9-2.7-1.9-3.8-3.2-.9-1.1-1.7-2.2-2.9-3.1-1.1-.8-2.3-1.4-3.6-1.6-.8-.1-1.5-.1-2.3.1-.5.1-.9.6-1.4.7-.1 0-.3.1-.3.3-.6 3.8 2.1 6.8 4.3 9.5 2.7 3.5 5.7 6.7 8.8 9.9 6.1 6.1 12.7 11.7 19.5 16.9 3.8 2.9 7.7 5.8 11.6 8.7.2-.3.4-.5.7-.8-.4-.1-.8-.3-1.2-.6-.2-.2-.3-.5-.5-.6v-.1c-.9-.1-1.1-.1-.8.1.1 0 .1.1.2.1.3.5 1 1.1 1.4 1.6.5-.1.9-.2 1.4-.3-.5-.2-.9-.3-1.4-.5-.9-.3-1.6-.9-2.4-1.4-1.7-1.1-3.3-2.1-5-3.2-3.3-2-6.6-4-10-5.9-6.5-3.7-13.3-7-20.2-9.8-14.9-6.1-30.9-10.1-46.9-11-4.6-.3-9.3-.3-13.9-.2-2.4 0-4.9.1-7.3.2-.9 0-2.2-.1-3 .2-.7.2-1 .9-1.7 1.2-.6.3.3.8.6.9.4.1.8.3 1.2.1.2-.1.3-.2.3-.4 0-.8-1.5-.8-2-.7-.6.2-.2.7.2.9 1.2.5 2.4 1.2 3.6 1.6.8.3 2.3.7 3.1 0 .2-.2 0-.4-.1-.5-1.7-1.5-4.7-2.8-6.9-1.9-.5.2.1.7.3.8 10.6 3.8 21.2 7.7 32.5 8.7 12 1 23.9 2.3 35.8 4.1 1.3.2 2.9.7 4.2.7.8 0 1.3-1 1.7-1.6.9-1.4 1-3.1 0-4.5-.6-.8-1.4-1.4-2.2-1.9-1.3-.9-2.6-1.7-3.8-2.6-2.4-1.7-4.8-3.3-7.2-5.1-9.4-6.7-18.7-13.7-28.4-20-1.3-.8-2.5-1.7-3.9-2.4-1.6-.8-3.1-1.4-4.7-2.1-2.8-1.2-6-2.3-8.1-4.6-3.8-4.2-6.4-9.4-6.4-15.1l-1.2.3c1 .5 2 1.2 3 1.7.1.1.1.3.2.1 0-.1.1.1-.1-.1-.8-.4-2-.7-1.8-1.9-.4.1-.8.1-1.2.2 9.1 3.8 17 10.2 24 17.1 6.9 6.8 12.6 14.9 20.4 20.7 3.5 2.6 8.1 4.9 9.6 9.3.5-.1.9-.1 1.4-.2-1.2-.7-2.5-1.5-3.6-2.5l-.6-.6c-.1-.1 0 .1-.1.1.3.1.6.3.8.5.9.7 1.7 1.7 2.1 2.7.5-.1.9-.1 1.4-.2-4.5-3.3-9.9-5.1-15.2-6.8-5.4-1.8-11.2-2.7-16.7-3.8-11.2-2.3-22.8-4.7-32.7-10.8-4.7-3-8.6-7.2-9.5-12.9-.3.1-.7.2-1 .4 0 0 .4.3.5.3.3-.1.6-.1.9-.2-.2-.2-.3-.4-.5-.6-.5.1-1 .1-1.5.2 4.5 3.7 9.8 5.9 15.1 8.2 5.8 2.5 11.9 4.4 17.8 6.6 11.7 4.5 23.4 9.4 34.3 15.7 3.1 1.8 6.2 3.6 9.2 5.6 1.2.8 2.4 1.8 3.6 2.7 1.3.9 2.4 1.8 3 3.3.2.6 2 .8 1.8.2-.9-2.3-2.7-3.4-4.6-4.8-1.2-.8-2.2-1.7-3.4-2.5-1.4-.9-2.8-1.8-4.2-2.6-5.5-3.3-11.1-6.3-16.9-9.1-11.5-5.5-23.5-9.9-35.5-14.3-6.4-2.4-13.3-4.9-18.7-9.3-.3-.2-2-.6-1.5.2.4.6 1.9 2.3 2.8 1.4.9-.9-1.4-1.8-1.9-1.9-.3-.1-1.1-.1-1 .4 1.6 10.6 12.8 15.9 21.8 19.2 11.1 4.1 22.9 5.5 34.3 8.3 6.4 1.6 13.3 3.7 18.6 7.6.2.2 1.7.4 1.4-.2-.6-1.4-1.8-2.8-3.1-3.7-.6-.4-2.9-1.4-3.3-.2-.2.8 1.4 1.8 1.9 2.2 1 .7 2 1.4 3 2 .2.1 1.6.5 1.4-.2-1.3-3.8-4.7-6.2-7.8-8.4-4-2.8-7.6-6-10.9-9.6-3.5-3.7-6.8-7.7-10.4-11.4-3.5-3.6-7.3-7.1-11.4-10.2-4.5-3.4-9.3-6.4-14.5-8.6-.2-.1-1.2-.3-1.2.2-.3 2.1 2.4 3.4 4.1 3.5.6 0 1.6-.2 1.2-1-.6-1.3-2.9-2.1-4.1-2.6-.3-.2-1.2-.3-1.2.3 0 5.5 2.5 10.6 6 14.8.8.9 1.6 1.9 2.6 2.6 1.3.8 2.7 1.4 4.1 2.1 3 1.4 6.3 2.5 9.1 4.3 11 6.9 21.4 14.8 32 22.3 3.1 2.2 6.3 4.4 9.5 6.6 1.2.8 2.3 1.9 2.2 3.5-.1 1.2-.9 2.3-1.7 3.1.2-.1.5-.1.7-.2-9.6-1.6-19.2-2.8-28.9-3.8-4.7-.5-9.5-.7-14.2-1.3-4.6-.6-9-1.7-13.4-3-5-1.5-10-3.3-14.9-5.1.1.3.2.6.3.8 1.2-.5 3.2.5 4.1 1.4 0-.2-.1-.3-.1-.5-.5.5-3.7-1.4-4.3-1.7.1.3.1.6.2.9-.3-.2-.5-.3-.8-.5.1-.1.2-.3.3-.4 0 0 0-.1.1-.1l.6.9c.5-.3.8-.8 1.3-1 .7-.3 2.1-.1 2.9-.2 2-.1 4.1-.1 6.1-.2 4.2-.1 8.4-.1 12.5.1 8.4.4 16.7 1.4 24.8 3.5 7.3 1.9 14.5 3.9 21.5 6.7 6.8 2.7 13.5 5.9 19.9 9.4 3.7 2 7.3 4.2 10.9 6.4 1.8 1.1 3.6 2.2 5.4 3.4.7.5 1.4 1.1 2.2 1.4.4.2.7.3 1.1.4.2 0 .8.2.7.2.2.1 1.9.4 1.4-.3-.6-.9-1.3-1.9-2.3-2.4-.4-.2-1.4-.5-1.7.1-.6 1.3 2.4 2.6 3.1 2.8.6.2 1.4-.2.7-.8-13.4-9.8-26.8-19.9-37.5-32.7-1.4-1.7-2.9-3.4-4.1-5.3-1.3-1.8-2.2-3.7-1.8-6l-.3.3c.5-.1.7-.3 1.1-.6.7-.4 1.7-.3 2.4-.1 1.2.4 2.3 1.4 3.1 2.3.9 1 1.6 2.1 2.6 3 .9.8 2 1.5 3 2.2 4.9 3.2 9.6 6.6 14.2 10.1 8.9 6.9 17.4 14.6 23.5 24.2 3.8 5.9 6.9 12.2 6.3 19.3.6.1 1.1.1 1.7.2-.3-.6-.1-1.9-.1-2.6 0-.5.1-.9.1-1.4 0-.1.1-.4.1-.5-.1-.5.6 0-.5 0-.4-.2-.8-.3-1.2-.5-.1-.2 0 .1 0 .2v.9c0 1.2-.1 2.5-.2 3.7 0 .7 1.6 1.1 1.8.5.3-1.5-2.3-4.5 0-5.2-.5-.2-.9-.4-1.4-.6 0 1.8 0 3.6-.3 5.4l1.8.3c-.1-.3-.5-.9-.4-1.2l-.3.3-1.2-.3c.2.1.2.8.2 1l1.8.3c-1.6-5.1-2-10.5-3.3-15.7-1.2-4.9-3.2-9.6-4.8-14.4-1.6-4.7-3-9.6-2.9-14.6 0-1.2.1-2.4.3-3.6.1-.6.1-1.1.7-1.4.5-.3 1.3-.4 1.9-.4 2.2.2 3.9 2.4 5 4.1 1.4 2.2 2 4.8 2.8 7.2.8 2.6 1.5 5.3 2 8 1.1 5.5 1.7 11 1.8 16.6.1 5.5-.3 11-1.1 16.5-.4 2.8-1 5.5-1.6 8.2-.3 1.3-.7 2.6-1 3.9-.2.6-.3 1.3-.8 1.7-.3.3-.8.5-1.3.6-1.5.4-2.6-.7-3.5-1.6-1.2-1.3-2.2-2.8-3.2-4.2-.9-1.3-2-2.7-3.2-3.6-2.1-1.6-4.7-2.9-7-4.1-5-2.6-10.1-4.8-15.1-7.3-2.4-1.3-5-2.5-7-4.4-1.7-1.7-3.2-3.8-4.8-5.6-1.7-2-3.9-3.4-5.9-5-1.7-1.4-4.7-3.5-4.8-5.8 0-.6.3-.7.9-1 .6-.3 1.2-.6 1.8-.7 1.3-.3 2.7-.1 4 .3 2.4.7 4.6 2.1 6.9 3 9.7 3.8 18.4 9.8 26.4 16.5 2 1.7 4 3.4 5.9 5.2 2.1 1.9 3.8 3.8 5.4 6.1 3.2 4.6 5.5 9.7 7.5 14.9 1.8 4.8 3.5 9.6 5.7 14.2 2.4 4.8 5.8 8.8 8.5 13.3 1.4 2.2 2.5 4.6 3.1 7.1.2-.1.4-.3.5-.4-8.5.2-16.3-3.4-23.1-8.1-3.3-2.3-6.4-4.8-9.4-7.4-2.8-2.3-5.5-4.8-7.9-7.5-2.8-3.2-5.2-6.9-6.6-10.9-.1.1-.2.3-.3.4 2-.5 4 .7 5.6 1.8 1.6 1.1 3.1 2.3 4.7 3.5 4.4 3.1 8.9 6.2 13.1 9.5 4.2 3.3 8.3 6.9 12.1 10.7 3.1 3 5.9 6.3 9.2 9.1 3.6 2.9 7.7 5.1 12.4 5.4.2 0 .9 0 .8-.4-.4-1.4-1.3-3-2.7-3.8-1.3-.8-3.2-.7-3.9.9-1.1 2.5 4.3 3.3 5.8 3.4.3 0 1-.1.7-.6-.4-.6-.9-1.4-1.6-1.6-.4-.2-1.2-.3-1.3.3-.2 1 1.5 1.8 2.2 1.9.4.1.9-.1.7-.6-.9-1.9-1.9-3.7-2.9-5.5-1.1-1.9-1.9-4-3-5.9-2.1-3.9-4.7-7.5-7-11.3-2.4-3.8-4.3-7.7-5.7-11.9-1.4-4.2-1.8-8.5.3-12.5l-.3.3c.7-.2.8 1.1 1.1 1.7.4.8 1.2 1.2 2.1 1.2-.3-.2-.7-.4-1-.6 2 7.4 5.4 14.3 8.3 21.3 3.1 7.6 6.4 15.2 9.4 22.9.2.6 1.1.7 1.6.5 2.9-1.1 3.6-4.4 4.3-7.2 1-4.2 2.8-8.1 5-11.8 4.7-8.1 10.7-15.5 16.4-22.8 2.5-3.2 5.1-7.9 9.4-9.1-.5-.2-.9-.5-1.4-.7-.2.5-1.2 1.2.4 1.1.2 0 .7-.4 1-.4-.5-.2-.9-.5-1.4-.7-.7 2.3-2 4.2-2.8 6.5-.7 2.1-1.3 4.2-2.1 6.2-1.5 4.1-3.1 8-5.1 11.9-3.8 7.6-8.7 14.6-14.9 20.5-1.6 1.5-3.3 2.9-5 4.3-.9.7-2 4.3-3.5 3.4-.5-.3-.6-1.2-.8-1.7-.4-1-.6-2.1-.9-3.2-.6-2.6-1.2-5.1-1.7-7.7-1-5.1-1.6-10.2-1.4-15.3.1-5.1 1.1-10.1 2.1-15.1 1.8-9.3 4.5-18.4 8.5-27 .8-1.8 1.7-4.1 3.7-5 1.7-.8 2.5 1.9 2.6 3.1.2 1.9-.2 3.7-.7 5.5-.6 2.5-1.3 5.1-2 7.6-1.4 4.8-2.9 9.6-4.5 14.3-1.5 4.7-3.4 9.2-4.6 14-2.4 9.2-3.6 19-3.1 28.5.5 9.4 4 18.3 7.7 26.9.9 2.2 1.8 4.3 2.7 6.5.8 2 1.5 4.1 2.2 6.1.8 2.2 1.6 4.3 2 6.6.4 2.2.3 4.5.5 6.7.2 2.1.6 4.1 1.7 5.9.5-.1 1-.1 1.5-.2-.3-.3-.7-.6-1-.9-.2-.3-.5-.5-.7-.8-.1-.1-.2-.2-.2-.3-.2-.5-.6-.5-1.3-.3 0 .3.9 1.1 1.1 1.5.2.4.4.7.6 1.1.5-.1 1-.1 1.5-.2-.5-.5-1-.9-1.5-1.4.1.1.1.3.2.4-.5 0-1.1 0-1.6-.1.4.4 1.2 1.1 1.4 1.3.5-.1 1-.1 1.5-.2-3-2.8-6.7-4.7-10-7.1-1.8-1.3-3.6-2.9-4.8-4.8-1.2-2.1-2.4-4.3-3.4-6.4-2.2-4.4-4.1-9-5.7-13.7-1.4-4.1-2.7-8.3-3.2-12.5-.2-1.9-.1-4 1-5.5 1.9-2.5 4.8-.7 6.8.7 1.9 1.2 3.5 3 5 4.6 1.6 1.7 3 3.4 4.4 5.2 5.5 7.1 9.6 15.1 12.2 23.7 1.5 5.2 2.6 10.3 1.5 15.7-1.1 5.4-3.5 10.4-5.2 15.6.5 0 1.1 0 1.6.1-.8-.7-.5-2.2 0-3.1.1-.1.3-.3.3-.4 0 .4-1.2-.5-1.2-.3 0 .1.1.2 0 .3-.2 1.1-.4 2.3-.7 3.4.5 0 1.1 0 1.6.1-1-.8-2-1.6-2.9-2.5-.4-.4-.8-.9-1.2-1.4-.5-.8-.5-1.5-.5-2.5 0-3.3.1-6.6.3-9.8.1-3.1.3-6.3.3-9.4.1-3.1 0-6.2.3-9.3.5-6.4 1.5-12.6 2.6-18.9.5-3.2 1.1-6.4 1.5-9.6.4-2.8.6-5.5 1.6-8.1.7-1.9 3.2-6.2 5.3-3.1.8 1.1 1.2 2.8 1.5 4.1.3 1.5.4 3.1.3 4.7-.2 1.6-.6 3.1-.9 4.7-.3 1.6-.5 3.1-.7 4.7-.4 3.1-.6 6.1-.8 9.2-.4 6-.5 12-1.2 17.9-.4 3.1-.9 6.3-1.7 9.4-.7 2.6-1.9 5-3.3 7.3-1.6 2.5-3.4 4.8-5.1 7.2-.8 1.2-1.6 2.3-2.1 3.7-.6 1.5-1 3.1-1.3 4.6-1.2 6.1-.4 12.4-.4 18.5-.7-.7 1-.3 1-1.1z"/><path d="M415.8 688.5c.9-5.8-1.9-10.7-5.2-15.3-3.9-5.5-8.3-10.7-12.2-16.2-3.6-5.1-6.4-10.6-8.3-16.6-.9-2.9-2-5.5-3.7-8-.8-1.2-1.7-2.5-2.3-3.9-.5-1.3-.7-2.6-1.2-3.9-.9-2-2.5-3.9-4.7-4.6-2.4-.8-4.6.6-6.2 2.3-3.6 3.9-4.6 9.4-2.5 14.3 3.8 8.9 13.4 13.4 20.6 19 4.7 3.7 8.4 8.5 12 13.2 1.9 2.4 3.9 4.8 5.8 7.2 1.7 2.2 3.1 4.6 3.7 7.3.3 1.4.3 2.9 0 4.3-.1.5 1.4 1.5 1.5 1 .8-5.5-2-10-5.3-14.1-3.9-4.6-7.4-9.6-11.5-14-3.3-3.6-7-6.5-11-9.3-3.8-2.7-7.8-5.3-10.9-8.7-3.2-3.6-5.4-8.2-4.2-13.1.6-2.6 2-5 4-6.7 1.7-1.6 4.4-2.5 6.2-.4 1.8 2 1.8 4.9 3 7.2.6 1.2 1.4 2.2 2.2 3.3.9 1.3 1.6 2.7 2.1 4.2 1 2.7 1.7 5.5 2.8 8.1 1.1 2.7 2.5 5.3 4.1 7.9 3.3 5.4 7.4 10.3 11.2 15.3 1.9 2.4 3.7 4.9 5.4 7.5 1.5 2.3 2.7 4.8 3.1 7.6.2 1.4.2 2.9-.1 4.3.1.3 1.5 1.3 1.6.8zM585.8 221.6c-5 2.8-9.9 5.9-14.9 8.8-5 2.9-10.3 5.3-15.3 8.3-4.9 2.9-9.7 5.9-14 9.7-4.2 3.6-7.9 7.7-11.4 11.9-1.8 2.2-3.6 4.4-5.3 6.6-1.8 2.2-3.7 4.4-5.3 6.7-1.6 2.1-2.7 4.4-4.5 6.4-.3.3-.5.5-.6.9-.1.4-.2.9-.4 1.3-.7 1.2-1.7 2.3-2.5 3.4-6.6 9.3-12.3 19.2-17.7 29.2-5.4 10-10.5 20.2-15.9 30.3-.7 1.3-1.4 2.5-2 3.8-.3.5.6.5.8.1 5.4-9.9 10.5-20 15.8-30 5.3-10 10.8-19.9 17.1-29.2 1.6-2.4 3.4-4.8 5.1-7.2.4-.6.4-1.4.8-2 .8-.9 1.6-1.8 2.3-2.8.7-1.1 1.4-2.2 2.1-3.2.8-1.3 1.9-2.4 2.8-3.6 1.8-2.2 3.5-4.4 5.2-6.6 3.5-4.3 7-8.6 11-12.4 4.1-4 8.7-7.3 13.5-10.4 4.9-3.1 10-5.7 15.1-8.4s9.9-5.8 14.9-8.7c1.2-.7 2.5-1.5 3.7-2.2.4-.4.1-1-.4-.7z"/><path d="M442.9 505.4c2.3-17.4 2.2-35.1 4.3-52.5 2-17.2 5-34.3 9.8-51 1.1-4 2.5-8 3.6-12 1.1-4.2 2.1-8.4 3.4-12.6 2.6-8.1 6.4-15.8 10.3-23.3 7.8-15.4 14.9-31.1 21.7-47 3.3-7.6 6-15.4 8-23.3 2.1-8 3.2-15.9 3.8-24 .4-4.5 1-8.8 2.1-13.2.9-3.8 1.9-7.6 2.4-11.5.9-8.4.8-17 1-25.5.2-8.6.4-17.1 1.3-25.7.9-8.6 2.7-17.1 4.7-25.5 1.9-7.8 3.6-15.8 6.7-23.2 3.3-7.6 7.9-14.2 13.2-20.6 2.7-3.3 5.6-6.4 8.2-9.8 2.3-3.1 4.1-6.4 6.1-9.7 4.5-7.3 10.4-13.8 15.8-20.5 5.4-6.8 11.4-13.4 15.9-20.8 3.5-5.8 6.9-11.7 11.1-17 1.7-2.2 3.6-4.5 6-5.9-.2-.2-.4-.3-.5-.5.7 3.1-.5 6.4-1.4 9.4-.8 2.8-1.2 5.6-1.9 8.5-1.6 7-5.2 13.2-9.6 18.7-4.2 5.3-8.7 10.6-13.2 15.7-4.3 4.9-9.2 8.7-15 11.6-3.3 1.7-6.9 3.3-9.9 5.6-2.7 2.1-4 5.4-6.9 7.4.2.2.4.3.5.5-.6-7.1 5.3-13.5 8.6-19.3 3.6-6.2 7.6-11.8 12.1-17.3 2.2-2.6 3.5-5.3 4.3-8.6.9-3.6 1.6-7 3.7-10 3.3-4.6 8.3-8.2 10.2-13.8.1-.2-.1-.5-.2-.6-3.6-3.3-8.5 1.7-10.8 4.2-3.9 4.2-7 9-10.5 13.4-5.9 7.6-13.3 14.3-16.6 23.5-1.7 4.8-2.7 9-2.8 14-.1 5.7-1.6 11.5-4.8 16.3-3.7 5.5-13.5 11.9-8.6 19.4.1.1.3.4.5.3 2.7-1.9 4.6-4.6 6.7-7 2.8-3.2 6.2-5.9 9.5-8.7 6.2-5.2 12.6-9.5 19.8-13.2 7-3.6 13.7-7.3 20.3-11.8 2.6-1.7 5.1-3.5 7.6-5.4 2-1.5 4.5-3.8 7.1-3.9-.2-.2-.3-.4-.5-.6-2.5 17.2-20.8 24.6-34 32.2-4.3 2.5-8.6 5.1-12.8 7.8-3.5 2.3-6.8 4.9-10.6 6.7-3.2 1.4-7 1.3-10 3.1-2.6 1.6-4.7 4.5-6.2 7.1-2.1 3.5-2.8 7.6-4.8 11.1-1.9 3.2-3.7 5.4-3 9.3.1.4.7.8.7.2-1-13.9.9-28.6-3.6-42-2.4-7-6.4-13.3-9.5-20-1.8-3.8-3.3-7.8-3.7-12-.4-3.8 0-7.5.6-11.3 0-.2-.2-.5-.4-.6-7.1-2.6-6.9 14-6.6 17.6.4 6.2 2.3 13.1 4.9 18.8 1.8 4 4.5 7.5 6.1 11.5l5.1 12.3c.9 2.3 1.9 4.6 2.4 7 .5 2.2.4 4.5.3 6.7-.1 3.5-.2 7.2 1.7 10.4.1.1.3.4.5.3 3.1-2.3 2.8-7.4 2.5-10.8-.3-5.2-1.4-10.4-2.7-15.5-2-7.8-4.6-15.4-5.9-23.4-.7-4.4-1-8.8.1-13.2.5-2.1.9-4.2 1.3-6.3.5-2.4 1-4.8 1.9-7 .4-.9.9-2.2 1.8-2.8 1.6-1.1 2.5 1.8 2.8 3.1.7 2.7.5 5.4 1 8.1.7 3.8 1.7 7.5 2.3 11.3.6 3.8.8 7.7 1 11.5.3 4.3.6 8.5.5 12.8-.2 8.2-3.1 15.6-5.1 23.5-1 4.1-1.4 8.3-1.8 12.5-.5 4.5-1.6 9-2 13.5-.4 4.2 0 8.4-1.1 12.5-.7 2.6-1.7 5.4-.9 8.1.1.2.5.6.6.2 3.3-7.1 4.4-14.9 7.6-22 3.1-7 7.4-13.6 12.2-19.5 2.2-2.8 4.6-5.4 7.6-7.4 2.9-1.8 5.4-4 8.2-5.9 2.9-2 6.4-2.7 9.7-3.9 3.6-1.3 6.5-3.5 9.6-5.7-.2-.2-.3-.5-.5-.7-8.9 10.1-17.9 19.7-29.1 27.2-9.9 6.6-15.3 17.7-23.3 26.2.2.2.4.5.6.7 5.9-8.3 13.7-16 23.1-20.2 5.1-2.3 10.5-3.9 15.3-6.8 1.9-1.2 3.5-2.7 5.5-3.6.5-.2 1.4-.8 1.9-.8.7 0 .3-.4.6.2.3.4.1 1.2-.1 1.6-.6 2.1-2.6 4-4.2 5.4-2.4 2.2-5 4-7.6 5.8-4.5 3-9.2 5.7-14 8.2-4.3 2.2-8.6 4.2-13.3 5.5-4.4 1.2-8.9 2.5-11.9 6.1-.2.3.3 1 .6.7 4.3-5.2 11.6-5.5 17.4-7.9 3.8-1.6 7.5-3.5 11.1-5.5 7-3.9 14.7-8.1 20.1-14.1 1.6-1.8 3.5-4.4 2-6.8-.1-.1-.2-.3-.4-.3-4.4.9-7.8 4.6-11.8 6.5-4.6 2.3-9.6 3.7-14.2 6.1-8.3 4.5-15.4 11.5-20.8 19.1-.2.3.3 1 .6.7 4.1-4.3 7.4-9.2 11.1-14 3.9-5.1 8.1-9.5 13.5-13.1 10.7-7.2 19.4-16.8 27.9-26.4.2-.2-.2-.9-.5-.7-3.3 2.3-6.2 4.5-10 5.8-3.5 1.2-7 2-10 4.2-1.4 1-2.6 2.1-3.9 3.1-1.4 1.1-3 1.9-4.4 2.9-2.7 1.9-4.8 4.3-6.9 6.9-4.6 5.8-8.7 12.2-11.9 18.9-3.5 7.3-4.6 15.4-8 22.7.2.1.4.2.6.2-1-3.4 1.2-7 1.6-10.4.6-4.3.2-8.6.9-12.8 1.6-8.9 1.9-17.9 4.4-26.6 1.2-4.2 2.7-8.4 3.4-12.7.7-4.1.8-8.3.6-12.5-.3-8.4-.9-17-2.7-25.2-.8-3.7-1.3-7.3-1.8-11.1-.3-2.6-1-5.2-3.1-6.9-.1-.1-.2-.1-.3-.1-3.4 1.8-4.1 7.6-4.8 10.9-1.1 5.4-2.4 10.6-1.9 16.2 1.3 13.6 7.3 26.2 8.8 39.8.3 2.6.5 5.4.1 8-.2 1.1-.4 2.3-1 3.3-.2.3-.5 1-.9 1-.6.1-1-2.3-1.1-2.8-.6-3.4-.1-6.8-.2-10.2-.1-2.9-1-5.6-2-8.3-1.3-3.5-2.9-6.9-4.3-10.3-1.3-3.3-2.6-6.4-4.3-9.5-1.8-3.2-3.6-6.3-4.8-9.8-1.2-3.6-2.1-7.3-2.8-11-.7-3.9-1.9-23.4 5.5-20.8-.1-.2-.3-.4-.4-.6-1 6.9-1 13.2 1.6 19.8 2.9 7.5 7.4 14.3 10.4 21.8 5.5 13.8 3.3 29.4 4.3 43.9.2.1.4.1.7.2-.8-4.2 1.8-6.5 3.5-10 1.7-3.4 2.4-7.2 4.5-10.5 1.7-2.7 3.9-5.8 6.9-7 1.7-.7 3.6-.8 5.4-1.3 1.8-.5 3.6-1.2 5.2-2.2 3.8-2.1 7.3-4.8 10.9-7.1 4.1-2.6 8.3-5.1 12.5-7.5 7-3.9 14.2-7.3 20.4-12.5 5.9-4.9 10.7-11.2 11.9-19 0-.2-.2-.6-.5-.6-3.4.2-6.5 3.5-9.1 5.4-3.8 2.9-8 5.5-12 8.1-9.3 5.9-19.9 9.6-28.6 16.5-4.4 3.4-8.8 7.1-12.8 10.9-1.6 1.6-3 3.4-4.5 5.1-.8.9-1.6 1.9-2.5 2.7-1.1 1-1 1.3-1.7.6-.5-.5-.6-1.7-.6-2.4-.1-4.2 3.7-7.9 6.3-10.8 2.9-3.2 5.3-6.6 6.7-10.8 1.6-4.7 1.4-9.3 1.8-14.2.5-5.3 2.7-11 5.4-15.5 4.3-7.3 10.6-13.1 15.5-19.9 3.6-5 7.3-10.5 12.2-14.3 1.1-.9 5.6-3.6 6.4-1.3.2.5-1.1 2.3-1.5 2.9-.6 1-1.3 1.9-2 2.7-1.5 1.8-3.2 3.5-4.7 5.3-1.5 1.8-2.9 3.7-3.8 5.9-1.1 2.8-1.4 5.9-2.4 8.8-1 3.1-3.1 5.5-5.2 7.9-2 2.3-3.8 4.7-5.5 7.2-3.2 4.8-5.9 9.9-9 14.8-2.6 4-5.2 8.4-4.8 13.4 0 .2.3.6.5.5 2.4-1.7 3.6-4.3 5.6-6.3 2.6-2.7 6.5-4.3 9.8-6 5.8-2.9 10.8-6.3 15.3-11 4.9-5.3 9.7-11 14.2-16.7 4.3-5.4 7.9-11.4 9.7-18.1.9-3.4 1.3-6.9 2.3-10.3.9-2.9 1.9-6.1 1.2-9.1 0-.2-.3-.6-.5-.5-4.6 2.8-7.9 8.2-10.9 12.6-2 3-3.8 6.2-5.7 9.3-2.2 3.7-4.7 7.1-7.4 10.4C572 68.8 566.4 76 560.6 83c-2.6 3.2-5.2 6.3-7.4 9.8-2.1 3.4-4 6.9-6.3 10.1-5 6.8-11.1 12.7-15.8 19.8-4.1 6.2-7.2 13.1-9 20.3-4.3 16.2-8.1 32.3-9 49.1-1 17.4.6 35.3-3.6 52.3-2.1 8.3-2.1 16.6-3.3 25-1.3 8.4-3.5 16.7-6.3 24.7-2.8 8.1-6.3 15.8-9.7 23.6-3.5 8-7.1 16-10.9 23.9-3.7 7.6-7.8 15.1-11.3 22.9-1.8 3.9-3.4 7.9-4.7 12-1.3 4.1-2.2 8.4-3.4 12.6-2.3 8.3-5 16.5-6.9 24.9-1.8 8.1-3.3 16.3-4.6 24.4-2.6 17.5-3.3 35-4.7 52.6-.4 4.5-.8 8.9-1.4 13.3-.1 1.1.5 1.6.6 1.1z"/><path d="M515.6 186.9c-.4.5-.8 1-1.1 1.4-.1.2-.1.4.1.5.2.1.5 0 .6-.1.4-.5.8-1 1.1-1.4.1-.2.1-.4-.1-.5-.2-.1-.5-.1-.6.1z"/><path d="M516.2 187.1c-10.9-8.6-17.8-21.2-23.1-33.8-1.5-3.5-2.9-6.9-4.5-10.3-1.4-2.8-3.1-5.4-4.7-8-2.2-3.4-4-7.1-6.4-10.4-1.2-1.7-4.1-6.1-6.7-4.2-1.1.8-1.3 2.2-1.3 3.4 0 1.9.5 3.7 1 5.5 1.2 3.9 2.9 7.7 4.7 11.3.8 1.5 1.7 2.9 2.6 4.3 2.2 3.3 4.4 6.5 6.8 9.6 2.2 3 4.5 6 7.1 8.7 2.4 2.6 5 5.1 7.4 7.7 5.1 5.6 8.5 12.3 11.8 19.1.8 1.7 1.6 3.4 2.5 5h.7c-7.7-7.2-15.3-14.5-23.4-21.3-2.1-1.7-4.2-3.3-6.3-5.1-1.8-1.6-3.5-3.4-5.1-5.2-3.1-3.6-5.9-7.3-9.1-10.7-3.8-4-7.9-7.8-10.7-12.5-.1-.2-.4-.4-.6-.4-1.7.1-3.2.7-3.4 2.5-.2 2 .8 4.2 1.7 5.9 2.2 4.5 5.3 8.5 8.4 12.4 4.6 5.8 8.8 12.2 14.6 16.9 3.8 3.1 7.9 5.8 11.9 8.8 1.9 1.5 3.8 3 5.6 4.7 1.1 1.1 1.9 2 2.6 3.4 1.6 3.2 2.8 6.6 4.3 9.8 1 2 2.5 5.2 5.1 5.4 0 0 .2 0 .2-.1 1.3-4.6-.5-9.4-2.4-13.6-1-2.3-2.2-4.6-2.9-7-.9-2.8-1.5-5.7-2-8.6-1.9-9.8-4.5-19.7-4.1-29.7.2-5.7 1.6-11.2 4.5-16.1-.3-.1-.5-.1-.8-.2 1.4 1.8 1.3 4.5 1.2 6.6-.1 2.5-.5 5.1-.7 7.6-.3 3.1.3 6.3.8 9.3.3 1.8.7 3.5 1 5.3.1.9.2 1.8.2 2.7-.1 1-.1 2.1 0 3.1 0 .8 0 1.7.3 2.5s.9 1.7 1.3 2.5c.9 1.8 1.7 3.5 2.4 5.4.7 1.7 1 3.6 1.3 5.4.3 1.8.6 3.6.8 5.4.8 7.3 1.4 14.8.8 22.1-.3 4.2-1.3 8.3-2.5 12.3-1.1 3.7-2.3 7.5-1.7 11.4 0 .2.8.6.8.3 1.3-9.4 7.5-17.4 12.8-24.9 4.6-6.5 9.2-13.2 15.3-18.4 3.4-2.9 7.3-5.2 11.8-6-.2-.2-.5-.3-.7-.5-1.2 5.8-6.7 9.7-11.1 12.9-2.6 1.9-5 3.8-7.2 6.1-2.4 2.6-4.5 5.4-6.7 8.2-3.6 4.6-8.3 8.8-10.4 14.3-1.5 3.8-2.7 7.7-3.9 11.6-.7 2.3-1.3 4.6-1.9 6.9-.3 1.2-.8 2.8-.6 4.1 0 .2.6.6.8.4 2.4-2.4 4.2-5.4 6-8.4 2.1-3.5 4.2-7.1 6.4-10.6 2.1-3.1 4.3-6.3 7.3-8.7 1.2-.9 2.5-1.5 3.8-2.1 1.6-.7 3.1-1.4 4.7-2.1 2.1-.9 4.2-1.7 6.5-2.3 1.7-.4 3.9-.9 5.6-.1l-.3-.3c-.1 2.3-2.1 3.9-3.9 5.1-2.3 1.6-4.9 2.7-7.5 3.7-5.1 1.9-10.4 3-15.4 5.4-3.2 1.5-6.5 3.4-8.8 6.3-.2.2.6.6.8.4 2-2.6 5-4.4 8-5.8 3-1.5 6.2-2.6 9.4-3.5 4.8-1.4 9.8-3 14-5.7 1.9-1.2 4-3 4.1-5.4 0-.1-.2-.3-.3-.3-3.1-1.5-7.1 0-10 1.1-1.8.7-3.6 1.5-5.4 2.3-1.4.6-2.8 1.1-4.1 1.8-3.2 1.7-5.6 4.7-7.6 7.5-2.5 3.5-4.6 7.2-6.8 10.8-2.1 3.6-4.3 7.5-7.2 10.5.3.1.5.3.8.4-.2-1.1.2-2.5.5-3.6.5-2 1-4 1.6-5.9 1.2-4.1 2.5-8.1 4-12.1 1.9-5.2 5.8-9.1 9.2-13.3 2.3-2.8 4.4-5.8 6.7-8.5 2.2-2.6 4.6-4.8 7.3-6.7 4.8-3.6 11.2-7.6 12.5-14 .1-.3-.5-.5-.7-.5-8 1.4-14.3 7.6-19.2 13.6-2.5 3-4.8 6.3-7.1 9.5-2.7 3.8-5.5 7.5-7.9 11.5-2.8 4.6-5.2 9.5-5.9 14.8.3.1.6.2.8.3-.5-3.7.5-7.3 1.6-10.9 1-3.4 1.9-6.7 2.4-10.2 1-7.5.5-15.1-.2-22.6-.4-3.7-.8-7.4-1.7-11-.4-1.7-1.1-3.3-1.8-4.9-.4-.8-.8-1.7-1.2-2.5-.5-1-1.2-2-1.4-3.1-.3-1.9-.2-3.8-.1-5.7.1-1.8-.5-3.8-.8-5.5-.6-3.3-1.4-6.8-1.2-10.2.1-2.8.6-5.5.8-8.3.1-2.3.2-5.2-1.4-7.1-.1-.1-.6-.4-.8-.2-7.5 12.3-4.2 27.3-1.5 40.6.7 3.5 1.3 7.1 2.2 10.6.9 3.6 2.3 6.8 3.8 10.2 1.4 3.2 2.8 6.5 2.9 10 0 .9 0 1.7-.2 2.5 0 .1-.1 1-.2 1s-.4-.1-.5-.2c-.8-.4-1.3-1.3-1.8-2-2.5-3.9-3.8-8.4-5.9-12.5-1.1-2.2-3-3.7-4.8-5.3-2.7-2.3-5.7-4.5-8.6-6.6-3-2.2-6.1-4.3-8.8-6.8-2.6-2.4-4.9-5.2-7-8.1-2.4-3.1-4.8-6.1-7.2-9.2-2.4-3.1-4.7-6.4-6.5-9.9-1-1.9-3.2-6.2-.7-7.8.6-.4 1.3-.5 2-.5-.2-.1-.4-.2-.6-.4 2.5 4.2 5.9 7.7 9.3 11.1 3.4 3.5 6.4 7.2 9.4 10.9 1.5 1.8 3.1 3.6 4.8 5.3 1.8 1.7 3.8 3.2 5.7 4.8 4.2 3.4 8.3 7 12.4 10.7 4.4 4 8.8 8.2 13.2 12.3.1.1.9.4.7 0-3.3-6.5-6.2-13.3-10.4-19.3-3.9-5.6-9.3-10-13.7-15.2-2.4-2.9-4.7-6-7-9.1-2-2.8-4.1-5.7-5.9-8.7-1.8-2.9-3.2-6-4.4-9.1-.8-2-1.5-4-2-6.1-.4-1.6-.7-3.4-.4-5 .2-1 1-2.4 2.2-2.3.6.1 1.2.6 1.6 1 .7.6 1.3 1.4 1.8 2.1 2.5 3.3 4.5 7 6.6 10.6 1.3 2.2 2.8 4.3 4 6.5 1.7 3.2 3.2 6.6 4.6 9.9 2.6 6.2 5.3 12.4 8.8 18.2 3.3 5.6 7.3 10.8 12 15.3 1.2 1.1 2.4 2.1 3.6 3.1-.1 1 .7 1 .2.7zM620.1 217.2c2.3 1.5 4.7 2.8 7.3 3.5 1.9.5 3.9.7 5.9.7 2.2 0 4.4-.3 6.6-.3 3.3-.1 6.6.1 9.9.3 3.6.2 7.3.4 10.9.9 3.1.4 6 1.1 9 1.8 3.7.8 7.5 1.4 11.2 2.4 1.7.5 3.4 1 4.9 1.9 1 .6 1.7 1.4 1.3 2.6-.4 1.2-1.6 1.8-2.7 2.2-1.7.6-3.6.7-5.4.8-3.8.1-7.6-.2-11.3-.8-4.9-.7-9.7-2.3-14.5-3.7-3.4-1.1-6.9-2.2-10.3-3.5-3.1-1.2-6.1-2.8-9.1-4.2-3-1.4-6.1-2.6-9.3-3.5-.7-.2-1.5-.5-2.2-.7l-.2-.1s-.6 0-.4.1h.2c.2 0 .5.1.5 0 .2 0 .4-.1.7-.1h-.1c-.2 0-.3 0-.5-.1-.7-.1-1.3-.2-2-.3.3-.1-.4.1-.4.1 2.1 1.1 4.2 2.4 5.8 4.1 1 1.1 1.7 2.3 2.3 3.6.7 1.4 1.3 2.7 2.3 3.9 1.4 1.7 3.1 3.1 4.9 4.3 4.8 3.2 10.4 5 15.8 7.1 2.7 1 5.4 2.2 8.1 3.1 2.5.9 5 1.5 7.5 2.1.6.1 1.3.3 2 .4.5.1 2.1.2 2.4.6.3.3.2 1.3.2 1.7-.1.9-.5 1.7-1.3 2.3-2.1 1.4-5.4 1-7.8.7-5.6-.7-10.9-2.4-16.2-4.2-5.3-1.7-10.6-3.4-15.3-6.4-3.2-2-3.7-5.9-4.1-9.4-.4-3.1-.5-7.1-3.2-9.2-1.7-1.3-3.6-1-5.6-.8-6.4.8-12.7 2.5-19.1 3.4-1.4.2-2.7.3-4.1.3-.8 0-1.8 0-2.6-.4-.5-.3-.5-.5 0-.9 1.1-.7 2.4-1.2 3.7-1.5 2.7-.6 5.6-.5 8.4-.2 2.5.2 5 .5 7.5.5 2.9 0 5.8-.4 8.7-.8 4.6-.7 9.3-1.2 13.9-1.9 8.9-1.4 18.2-3.4 25.5-9 1.8-1.4 3.5-3 4.9-4.7-1.8-.7-4.1-.1-5.9.4-2.6.8-5 2.1-7.4 3.2-3.3 1.6-6.9 2.3-10.5 2.9-1.8.3-3.7.5-5.5.9-1.8.4-3.5 1.2-5.3 1.7-.5.1-1 .3-1.5.4-.4.1-.8 0-1.2-.1-1-.1-2.1-.3-3.1-.4-1.8-.2-3.7-.4-5.5-.3-3.6.2-7.1.9-10.6 1.6-7.2 1.6-14.5 3.6-21.3 6.6-3.6 1.6-6.9 3.6-10 5.9-3.3 2.4-6.6 5-10.7 5.8h.7c7.6-3.9 12.9-11.2 17.8-18 4.9-7 10.3-13.9 13.6-21.9 1.8-4.4 2.9-9.3 2.1-14.1 0-.1-.8.1-.9.1-4.8 2.8-6.7 8.7-8.3 13.7-.9 2.9-1.8 5.9-3.1 8.6-1.6 3.2-3.6 6.2-5.5 9.2-2 3-3.7 6.2-5.7 9.3-1.4 2.2-2.9 4.3-4.8 6-2.9 2.6-6.1 4.9-9.2 7.2-2 1.5-4 2.9-6.1 4.3-.8.5-1.6 1-2.4 1.4-.5.3-1.1.7-1.6.7h.6c1.7-3.3 4.1-6.2 6.5-9.1 2.7-3.2 5.5-6.4 8-9.8 2.2-3 4.5-6.3 5.4-10 .4-1.4.4-2.9.5-4.3.2-1.8.3-3.6.4-5.4.1-2.2.1-4.3-.1-6.5-.2-1.7-.6-3.5-1.8-4.7-.1-.1-.7 0-.8.1-1.9.8-2.9 2.8-3.5 4.7-.8 2.6-1.1 5.5-1.2 8.2-.2 5.6.5 11.1 0 16.7-.3 3.7-1 7.7-3.1 10.8.1-.1.8.1.9-.1 1.8-2.8 2.5-6.1 2.9-9.4.4-3.3.5-6.6.3-9.9-.3-4.9-.4-10 .6-14.8.5-2.3 1.4-5.2 3.8-6.2-.3 0-.6.1-.8.1 1 1.1 1.5 2.6 1.7 4 .3 1.9.4 3.8.3 5.7 0 1.9-.2 3.8-.4 5.7-.1 1.4-.1 2.8-.3 4.2-.5 3.6-2.6 6.9-4.6 9.8-2.5 3.6-5.4 6.9-8.3 10.3-2.6 3.1-5.4 6.3-7.3 10h.6c1.1-.2 2.1-.8 3.1-1.4 1.8-1.1 3.5-2.2 5.2-3.4 3.6-2.5 7.1-5.1 10.4-7.9 4.2-3.4 6.7-8.2 9.4-12.7 1.9-3.1 4-6.1 5.9-9.3 1.8-3 3.1-6.1 4.2-9.4 1.8-5.8 3.5-13.2 9.1-16.5-.3 0-.6.1-.9.1 1.4 8.8-3.1 17.3-7.7 24.4-2.3 3.5-4.7 6.9-7.1 10.3-2.4 3.5-4.9 6.9-7.7 10.1-3.1 3.6-6.7 7-10.9 9.1h.7c5.7-1.1 10-5.5 14.8-8.5 5.7-3.6 12.1-5.8 18.6-7.6 3.3-.9 6.6-1.8 10-2.5 3.7-.8 7.5-1.4 11.3-1.1 1.7.1 3.5.3 5.2.6.6.1 1.1.2 1.7.2.6-.1 1.2-.2 1.8-.4 1.6-.4 3.1-1 4.6-1.6 1.8-.7 4-.8 5.9-1.1 3.1-.4 6.2-.9 9.1-1.9 2.1-.7 4-1.8 6-2.7 2.2-1 4.9-2.5 7.4-2.1.1 0 .6 0 .7.2.2.2-.1.5-.3.7-.5.5-.9 1-1.4 1.5-.9.9-1.9 1.8-3 2.6-8.7 6.6-20.1 8.2-30.7 9.6-2.7.4-5.4.7-8.1 1.1-3.8.5-7.6 1-11.4.6-4.9-.4-10.1-1.2-14.9.4-1.2.4-2.2.9-3.2 1.6.3.6 1.1.8 1.7.9 1.2.2 2.4.1 3.6 0 3.5-.3 6.9-.9 10.3-1.6 3.6-.7 7.2-1.5 10.8-2 1.1-.2 2.3-.4 3.5-.2 1.4.2 2.6 1.3 3.3 2.4 2.1 3.3 1.6 7.8 2.5 11.5.4 1.8 1.1 3.6 2.5 4.9.9.8 2.1 1.4 3.2 2 1.4.8 2.8 1.4 4.3 2 2.8 1.1 5.6 2 8.5 3 1.7.6 3.5 1.2 5.2 1.8 2.6.8 5.4 1.5 8.1 2 3 .6 6.2 1 9.2.7 2-.2 4.6-.9 4.8-3.3 0-.6-.1-1.3-.3-1.9-4.5-.9-8.9-1.9-13.2-3.5-2.2-.8-4.4-1.8-6.7-2.6s-4.6-1.6-6.9-2.5c-4.4-1.7-8.8-3.8-12.3-7-2-1.9-3.2-4.1-4.4-6.5-1.7-3.3-4.5-5.3-7.8-7-.1-.1-.4 0-.7 0 .9.1 1.7.3 2.5.3.3 0 .7.1 1-.1-.4-.2-1.2-.1-1.7-.1-.2 0-.5 0-.4.2.2.3 1.4.5 1.8.6 3.4 1 6.7 2.2 9.9 3.8 3.2 1.5 6.4 3.1 9.7 4.4 3.6 1.4 7.3 2.6 11 3.7 3.4 1 6.8 2 10.3 2.8 3.2.7 6.5 1 9.8 1.2 3.6.2 7.5.3 11-.8 1.1-.3 2.4-.9 2.9-2 .6-1.1.1-2.1-.9-2.8-1.5-1.1-3.5-1.6-5.2-2.1-2.2-.6-4.4-1.1-6.6-1.5-5-1-9.9-2.3-15-2.9-4-.4-8-.6-11.9-.9-3.1-.2-6.1-.3-9.2-.1-2.4.1-4.7.4-7.1.3-2.4-.1-4.8-.8-7-1.8-1.4-.7-2.8-1.5-4.2-2.3 0-.1-.7.1-.7.1zM459.9 387.2c3.5-5.5 6.1-11.6 6.6-18.1.3-3.6-.1-7.3-.2-10.9-.1-3.9-.1-7.8-.1-11.7-.1-7-.1-14.2-2.3-21-1.9-5.7-4.9-11-8.3-16-3.9-5.8-8.2-11.3-11.8-17.2-.1-.1-.4-.5-.6-.4-1.6 1.7-1.8 4.1-1.7 6.3.1 2.3.7 4.5 1.1 6.7.6 2.8 1.1 5.7 1.9 8.4.8 2.9 2.3 5.6 3.8 8.2 1.7 3 3.6 5.9 5 9.1 1.5 3.2 2.6 6.6 3.4 10 .8 3.2 1.4 6.5 1.9 9.7.5 3.4 1.1 6.7 1.5 10.1 1 7.7-.5 15.5.9 23.1.2.1.4.3.7.4-1.6-4.5-3.7-8.8-4.8-13.5-1-4.3-1.4-8.7-2.6-12.9-1.2-4.1-3.3-7.5-5.9-10.7l-4.2-5.1c-1-1.4-1.8-2.8-2.5-4.3-1.1-2.5-2.5-6.2-5.4-7.1h-.1c-2.5 2.4-.7 6.8.5 9.4.8 1.7 1.6 3.4 2.5 5 1.1 2.1 2.1 4.2 3.2 6.3 1.4 2.6 2.8 5.1 4.1 7.8 1.3 2.6 2.3 5.4 3.5 8.1 1.2 2.7 2.6 5.2 3.5 8 .6 1.8.7 3.8 2.2 5.2 1.2 1.1 2.8 1.5 4.3 1.9.8.2 1.7.5 2.5.9.9.5 1.3 1.4 1.4 2.5 0 .2.6.7.7.5.3-4.1-1.1-7.5-3.3-10.8-1.1-1.6-2.2-3.1-3.1-4.8-1.1-2-1.7-4.2-1.9-6.5-.2-2.6-.9-4.9-1.9-7.3-1.1-2.7-2-5.4-2.9-8.2-1.2-3.9-2.5-7.7-4.8-11.1-3-4.5-6.4-8.9-9.8-13.1-4.3-5.3-8.8-10.5-14-15-1.9-1.7-4-3.4-6.4-4.5-1.4-.7-3.3-1.3-4.9-.6-.3.1-.6.3-.9.6v.2c3.4 7.8 9.6 13.8 16.8 18.2 3.9 2.3 7.8 4.5 11.4 7.3 3.1 2.4 6.2 4.8 9.2 7.4 3 2.6 5.7 5.5 8 8.8 2.5 3.6 4.1 7.6 5.3 11.8 1.3 4.6 1.9 9.3 1.7 14.1-.2 4.8-1.4 9.5-2.1 14.3-.4 2.8-.8 5.6-1.3 8.4-.4 1.9-.7 3.8-.8 5.8-.3 3.5-.3 8-2.8 10.7l.6.6c2.7-3 3.8-7 5.6-10.6 2.1-4.1 4.7-8 7.4-11.7 4.9-6.9 10.5-13.5 16.9-19 3.4-3 7.3-5.8 11.7-7.2l-.6-.6c1 2.9-.8 5.9-2.5 8.1-2.4 3.1-5.3 5.8-8.4 8.2-2.8 2.3-5.8 4.5-8.8 6.6-3.4 2.4-6.9 4.8-9.9 7.8-4.7 4.7-8 10.5-12.8 15.2-.2.2.5.8.6.6 4.2-4 9.1-7.2 14.2-9.8 5.3-2.6 11-4.6 16.9-5.1-.1-.1-.3-.2-.4-.2 4.7 4.8-3.7 8.5-7.3 9.8-5.2 2-10.9 2.8-16 5.3-1.3.6-2.7 1.2-3.9 2-1 .6-1.8 1.5-2.7 2.3-1.6 1.7-3.3 3.6-5.8 3.6-.2 0 .3.7.6.7 3.3-.1 5.2-3.2 7.4-5.1 1.4-1.2 3-1.9 4.6-2.7 1.4-.7 2.8-1.4 4.4-1.8 3.7-1.1 7.4-1.9 11.1-3.3 2.1-.8 4.2-1.6 6.1-2.8 1.4-.9 2.9-2 3.4-3.6.5-1.5-.2-3-1.2-4.2-.2-.3-.5-.7-.9-.8-.4-.1-.9.1-1.3.1-.5.1-1.1.1-1.6.2-1.9.3-3.8.8-5.7 1.4-8.3 2.6-16.3 7.2-22.6 13.2l.6.6c4.3-4.3 7.5-9.6 11.6-14 3.1-3.3 6.7-5.9 10.4-8.5 6.2-4.3 12.7-8.8 17.4-14.7 1.9-2.4 4.1-5.7 3-8.9-.1-.2-.4-.6-.6-.6-3.8 1.2-7.1 3.4-10.2 5.9-3.2 2.6-6.2 5.5-9 8.6-6.2 6.8-11.6 14.2-16.2 22.1-2.2 3.9-3.4 8.5-6.4 11.9-.2.2.5.8.6.6 2.5-2.7 2.5-7 2.8-10.4.4-4.8 1.4-9.5 2.1-14.2.8-5.3 2.1-10.5 2.2-15.9.1-5.2-.8-10.5-2.5-15.4-1.4-4.2-3.5-8.1-6.2-11.6-2.6-3.3-5.6-6.2-8.8-8.9-3.5-2.9-7.1-5.9-10.9-8.4-4.4-2.9-9.1-5.1-13.2-8.4-4-3.1-7.4-7.1-9.7-11.6-.3-.5-.6-1.1-.8-1.6-.2-.4-.2-.4.1-.6.2-.2.6-.4.9-.4.7-.2 1.4-.2 2.1-.1 1.9.4 3.6 1.5 5.2 2.6 2.1 1.5 4.1 3.3 6 5.1 4.4 4.3 8.4 9 12.2 13.8 2.9 3.6 5.7 7.3 8.2 11.1 2 3.1 3.3 6.4 4.4 9.9.7 2.3 1.4 4.6 2.2 6.9.8 2.1 1.8 4.2 2.3 6.5.5 2.2.4 4.4 1.1 6.5.5 1.6 1.2 3.1 2.1 4.5 1.7 2.8 4 5.3 5.1 8.5.6 1.8.7 3.7.6 5.5.2.2.4.3.7.5-.3-2.7-2.6-3.8-5-4.5-1.3-.3-2.7-.6-3.7-1.5-.6-.6-.9-1.3-1.1-2.2-.3-1.2-.6-2.3-1.1-3.4-.9-2.3-1.9-4.4-3-6.6-1.1-2.4-2-4.8-3.1-7.2-2.1-4.6-4.8-8.9-7-13.4-1.3-2.8-2.9-5.4-4-8.3-.6-1.6-1.2-3.3-1.1-5 0-.7.2-1.3.5-1.9.1-.2.3-.5.5-.7.4-.3.9.1 1.2.4 1.3 1.1 2.1 3 2.8 4.5.6 1.4 1.2 2.8 2 4 2.6 4 6.2 7.3 8.7 11.4 2.8 4.8 3.4 10.4 4.4 15.8 1.1 5.7 3.4 10.8 5.4 16.2.1.2.7.8.7.4-1.2-6.9-.2-13.9-.7-20.8-.2-3.2-.8-6.4-1.3-9.6-.5-3.3-1-6.6-1.7-9.8-1.3-6.4-3.5-12.5-6.8-18.2-1.7-2.9-3.5-5.8-4.9-8.9-1.2-2.7-1.8-5.7-2.4-8.7-.5-2.6-1.2-5.3-1.6-7.9-.3-2.6-.4-5.7 1.5-7.7-.2-.1-.4-.3-.6-.4 6.2 10.3 14.8 19.4 19.1 30.8 2.5 6.6 2.9 13.6 3 20.5.1 3.8.1 7.5.1 11.3.1 3.7.4 7.3.4 11 0 7.5-2.7 14.5-6.7 20.8 0 .7.7 1.3.8 1.1zM558.5 84.1c-1.7-.8-2-2.2-2.2-3.9-.2-1.6-.6-3.3-.5-4.9.2-1.8.8-3.6 1-5.4.2-2 .2-4.1.1-6.1-.3-6.4-1.4-12.7.6-18.9 1.2-3.8 2.7-7.6 4.2-11.3 1.8-4.5 3.8-9.1 6.2-13.3 1-1.9 2.2-3.8 3.6-5.4.7-.7 1.8-2 2.9-1.5-.1-.1-.1-.2-.2-.4-1.2 2.5-1.8 5.3-2.4 8-.6 2.8-1.4 5.5-2.2 8.3-.8 2.6-1.4 5.2-1.7 7.9-.2 2.2-.3 4.4-.7 6.6-1.8 9.2-5.9 17.7-8.3 26.7-1.2 4.5-2.1 9.4-1.2 14.1.1.4 1 .2.9-.2-.7-4.1-.1-8.4.9-12.4 1.1-4.7 2.7-9.2 4.3-13.8 1.5-4.2 3-8.4 4-12.7.4-1.9.8-3.8.9-5.8.1-2.7.6-5.4 1.2-8.1.8-3 1.8-5.8 2.5-8.8.7-3.2 1.2-6.5 2.7-9.6.1-.2 0-.3-.2-.4-2.7-1.2-5.2 2.9-6.3 4.7-2.7 4.2-4.8 8.9-6.7 13.6-1.8 4.2-3.4 8.4-4.8 12.7-.4 1.2-.8 2.5-1.1 3.8-.9 4.5-.5 9.1-.1 13.6.2 2.6.4 5.3.2 7.9-.2 2.2-.9 4.3-1.1 6.4-.2 1.8.3 3.7.5 5.5.2 1.8.9 2.9 2.5 3.7.3.1 1-.4.5-.6z"/><path d="M507.4 247c-1.1 1.9-1.8 4-2.6 6.1-.3.9-.6 1.9-1.2 2.7-.5.8-.9 1.4-1.1 2.4-.2 1-.2 2-.2 3-.1 1.1-.3 2.2-.2 3.3.1 1.9.6 3.9 1.2 5.7.7 2 1.9 3.9 2 6.1.1 2-.5 3.9-.9 5.9-.4 2.1-.8 4.1-1.6 6.1-.9 2.1-1.8 4.1-2.8 6.2-1 2.1-2.2 4.1-3 6.2-.6 1.7-1.2 3.9-2.8 4.9h.6c-1.9-1.4-1-4.7-.8-6.6.4-3-.3-6.2-1.1-9.2-.8-3-1.7-6.1-3.1-8.8-1.4-2.6-3.1-5-5.2-7.1-2.3-2.3-5-4.3-8-5.7-.2-.1-.5-.1-.6 0-1.3 1.1.9 3.7 1.5 4.6 1.7 2.3 3.6 4.4 5.6 6.5 1.9 2 3.9 3.8 5.5 6.1 2.5 3.6 2.5 8.3 2.7 12.5 0 1.7.1 3.3.1 5 0 1.4-.2 2.7-.3 4-.1 1.1.1 2.1.7 3 .7.9 1.4 1.7 1.4 2.9 0 .4.9.3.9 0 0-2-2.1-3-2.2-5-.1-1.1.2-2.2.3-3.3.1-1.4 0-2.7 0-4.1 0-2.7-.1-5.4-.4-8.1-.2-1.8-.5-3.5-1.3-5.2-1.2-2.6-3.2-4.6-5.2-6.6-1.9-2-3.8-4-5.5-6.1-1-1.1-1.9-2.3-2.6-3.6-.2-.4-1.1-1.8-.5-2.2h-.6c5.5 2.5 10.2 7.1 13 12.5 1.5 2.9 2.5 6.2 3.2 9.3.7 2.9 1.3 6 .9 8.9-.3 2.1-.9 5.1 1.1 6.5.2.1.5.1.6 0 1.3-.8 2-2.4 2.5-3.8.7-1.8 1.4-3.5 2.3-5.1 1.1-2.1 2.2-4.2 3.1-6.4.9-1.9 1.7-3.8 2.1-5.9.4-2 .8-4 1.1-5.9.3-2 .2-3.7-.6-5.6-.4-1-.8-1.9-1.2-2.8-.4-1.2-.7-2.4-.9-3.6-.5-2.1-.1-4 0-6.1.1-1.2 0-2.5.6-3.6.5-1 1.1-1.8 1.5-2.8.9-2.3 1.6-4.8 2.9-7 .1-.4-.8-.5-.9-.2zM494.2 323.9c7.8-4 15.5-8.3 23.1-12.7 3.9-2.2 7.7-4.5 11.6-6.7 1.7-1 3.4-2 5-3.2 1.4-1.1 2.7-2.3 3.9-3.5 2.5-2.5 4.7-5.2 7.3-7.6 2.6-2.4 5.7-4.1 8.6-6.2 1.8-1.3 3.5-2.9 4.7-4.8 1.1-1.9 1.7-3.9 2.1-6.1.8-4.6 1-9.2 2.4-13.7 1.1-3.5 3.3-9.2 7.9-8.8 1.8.2 4.6 1.4 5.2 3.3.5 1.6-1.1 3.1-2.2 4-1.6 1.3-3.5 2.4-5.3 3.4-1.3.8-3 1.5-4 2.6-1.8 1.9-2.3 5.2-2.7 7.7-.4 3.2-.5 6.5-1.7 9.5-.6 1.6-1.7 3.1-3.1 4.1-1.5 1.1-3.2 1.4-5 1.6-1.6.1-3.3.2-4.9.6-1.7.4-3.3 1.2-4.9 2.1-1.7.9-3.4 2-5.2 2.6.1 0 .3 0 .4.1-.3-.6-.2-1.4-.1-2.1.1-1.1.4-2.2.6-3.3.6-2.7 1.3-5.3 1.8-8 .6-3.7 1.3-10.1-4.2-10.1-3.4 0-9 2.1-7.8 6.5.8 3.1 4.2 5.8 7.3 6.4 1.5.3 3 0 4.1-1.2 1.5-1.6 1.5-4 1.3-6-.1-.8-.2-1.7-.4-2.5-.1-.4-.9 0-.8.3.6 2.9 1.2 9.1-3.4 8.6-2.9-.3-6.1-2.8-7.1-5.6-1.6-4 3.3-5.9 6.6-5.9 5.1 0 4.1 6.4 3.5 9.8-.5 2.7-1.2 5.4-1.8 8.1-.3 1.6-1.1 3.8-.3 5.4.1.2.3.1.4.1 3.8-1.4 6.9-4.2 10.9-4.9 3.3-.6 6.6-.2 9.4-2.3 5.5-4.2 4-11.9 5.8-17.8.4-1.2.9-2.7 1.8-3.6.5-.5 1.2-.9 1.8-1.3 1.8-1.1 3.7-2.1 5.5-3.3 2.4-1.6 6.7-4.9 3.4-7.8-1.6-1.4-4-2.3-6.1-1.9-1.9.4-3.4 1.7-4.5 3.2-2.6 3.6-3.7 8.4-4.3 12.7-.7 4.6-.6 9.9-3.5 13.9-1.6 2.2-3.8 3.8-6 5.2-1.5 1-3.1 2-4.6 3.1-1.5 1.2-2.8 2.5-4.1 3.8-2.5 2.6-4.8 5.3-7.5 7.7-3.3 2.8-7.2 4.8-10.9 6.9-7.9 4.6-15.7 9.2-23.7 13.5-2.1 1.1-4.1 2.2-6.2 3.3-.6.4-.6 1-.1.8z"/><path d="M536.6 299.6c2 .4 4.1.1 6.1-.4 2.5-.6 4.9-1.4 7.3-2.4 4.6-1.8 9-4.1 13.4-6.5 3-1.6 6.1-2.8 9.4-3.4.1 0 .2-.1.2-.2.9-2.8 1.3-5.7 2-8.6.4-1.6.8-3.1 1.4-4.6.2-.4.4-1.2.7-1.3.2-.1.5 0 .6 0 1.9.2 3.5 1.7 4.6 3.2 1.8 2.3 4.5 8.1.8 10-1.1.6-2.5.5-3.7.3-2.2-.3-4.3-1.2-6.3-2.1-.5-.2-.8.4-.3.6 2.5 1.2 5.4 2.4 8.3 2.4 1.5 0 3.1-.5 4-1.8 1.7-2.7.1-6.6-1.5-9-.9-1.4-2.2-2.7-3.7-3.6-.7-.4-1.4-.6-2.1-.7-.3 0-.7-.1-1 0-.9.1-1.1 1.4-1.4 2.1-.9 2.3-1.4 4.7-1.9 7.1-.2 1.2-.5 2.4-.8 3.5-.1.4-.2 1.5-.5 1.8-.4.5-1.5.5-2.1.6-4 1-7.4 3-10.9 4.9-3.5 1.9-7.2 3.5-10.9 4.9-2.1.8-4.2 1.5-6.3 2-1.8.4-3.6.7-5.4.4-.5 0-.5.7 0 .8zM515.6 311.8c3 0 6-.1 9-.1 2.9 0 6.2 0 9 .9 2 .6 3.6 1.9 5.7 2.2 2.9.5 5.8-.6 8.7.4-.2-.2-.3-.5-.5-.7-2.4 3-6.7 5.9-4.4 10.2 1.5 3 4.8 4.3 8.1 4.2 1.7-.1 3.4-.5 4.8-1.5 1.2-.9 2.6-2.3 3-3.9.5-2.3-2-4-3.8-4.8-3-1.2-6.4-1.7-9.6-1.7.1 0 .3.7.5.7 2.4 0 4.9.3 7.2.9 1.8.5 5.3 1.4 5.2 3.7-.1 1.3-1.1 2.5-2 3.3-1.1 1.1-2.2 1.8-3.7 2.1-2.8.7-6.5.2-8.6-1.9-1.7-1.7-1.3-4.3-.1-6.1 1.1-1.7 2.8-3 4-4.6.1-.1-.4-.7-.5-.7-2.7-1-5.5-.1-8.3-.4-1.3-.1-2.4-.6-3.6-1.1-.9-.4-1.8-1-2.8-1.2-2.7-.8-5.7-.8-8.5-.9-3.1 0-6.3.1-9.4.1.2.1.4.9.6.9z"/><path d="M512.8 314.6c0-3.4-.6-6.8-.6-10.3 0-3 .2-6.2 2.3-8.6 1.5-1.7 3.8-2.5 5.9-1.4 1.8 1 3.2 2.8 3.7 4.8.6 2.6-.8 4.9-3 6.2 0 0 .7.3.8.2 2.1-1.3 3.6-3.4 3.1-6-.4-2.1-1.9-4-3.7-5.1-1.7-1-4-1.4-5.8-.5-2.8 1.4-3.9 4.6-4.1 7.5-.3 4.3.5 8.6.5 12.9 0 .2.9.3.9.3zM506.7 144.5c-2.7-10.3-6.4-20.3-11.3-29.8s-10.9-18.5-17.9-26.5c-3.8-4.3-7.9-8.2-11.9-12.3-1-1-2-2-3.1-2.8-1-.7-2.1-1.3-3.1-1.9-2.1-1.1-4.4-2.2-5.8-4.2-1-1.5-1.3-3.3-.4-4.9 1-1.7 2.9-2.7 4.8-2.9 1.3-.2 2.6 0 3.8.3.3.1.7.2 1 .3.4.2.4.6.4 1 .1.7.2 1.5.2 2.2.2 2.7-.1 5.5-.1 8.2 0 2.5.1 5.1.9 7.6.8 2.4 2.3 4.4 4 6.3 3.3 3.7 7.3 6.7 10.4 10.6.7.9 1.4 1.9 2 2.9l.2-.2c-2.6.8-5.3.1-7.7-.8-2.9-1.1-5.6-2.7-8.2-4.3-2.7-1.7-5.3-3.4-8-5.1-2.3-1.4-4.6-2.8-7.1-3.8-2.8-1-5.9-1.2-8.7-.3-2.4.8-4.7 2.5-5.2 5.1-.6 3 1.6 6.3 3.9 8 1.9 1.4 4.5 1.8 6.8 1.5 2.4-.3 4.9-1.4 6.4-3.3 1.5-2 .9-4.1-.9-5.6-.2-.2-1.1 0-.8.2 1.6 1.3 2.3 3.1 1.1 4.9-1.2 1.8-3.4 2.9-5.4 3.3-2.5.5-5.1.1-7-1.7-2.1-2-4.1-5.2-2.9-8.2 1-2.6 3.9-4 6.5-4.3 2.8-.3 5.5.5 8 1.8 5.1 2.5 9.6 6 14.5 8.9 4.3 2.5 10.1 5.7 15.3 4.1.1 0 .3-.1.2-.2-2.5-4.4-6.5-7.6-10-11-1.9-1.8-3.7-3.7-5.1-6-1.5-2.5-2.1-5.3-2.2-8.1-.1-2.8.2-5.6.1-8.5 0-1.4-.1-2.8-.3-4.3-.1-.6 0-.8-.5-1l-1.8-.6c-3.3-.8-8.1-.1-9.7 3.4-1.8 4.2 2.9 7.1 6 8.7 1.2.6 2.5 1.3 3.6 2.1 1.2.9 2.2 1.9 3.3 2.9 2.3 2.3 4.5 4.6 6.8 6.8 7.9 7.9 14.6 16.9 20.1 26.6 5.5 9.6 9.8 19.9 12.9 30.6.4 1.4.8 2.9 1.2 4.3-.1.2.8.2.7 0z"/><path d="M479.4 92.8c-1-1.3-2.3-2.5-3.4-3.7-.6-.7-1.3-1.4-1.8-2.3-.5-.8-.7-1.8-.9-2.7-.4-2.4-.3-4.9-.3-7.3 0-2.6-.3-5-.8-7.6-1.1-5.7-2.5-11.3-4.1-16.8-.7-2.5-1.6-5-2.2-7.5-.5-2.2-.7-4.5-1.5-6.6-.7-2-2.1-3-3.8-4.1-1.8-1.2-3.2-2.8-4.1-4.7-1.2-2.5-.9-5.3 1-7.4 1.9-2 4.9-3 7.6-2.8 1.4.1 2.9.5 4.1 1.3.6.4 1.1.8 1.5 1.3.2.2.6.6.7.9.1.4-.3.9-.5 1.3-3.3 6-10.8 9.8-11 17.3 0 1 .1 2 .2 3 0 .2.9 0 .9-.1-.7-4 .4-7.6 2.9-10.8 2.3-2.9 5.1-5.2 7.1-8.3.3-.4.5-.8.7-1.2.1-.3.6-.9.6-1.2 0-.5-1-1.3-1.3-1.5-1-.9-2.3-1.6-3.6-1.9-2.5-.7-5.4-.4-7.8.6-2.3 1-4.5 2.9-4.9 5.5-.6 3.6 2.1 7.1 4.9 8.9.8.5 1.7 1.1 2.4 1.8.8.9 1.2 1.9 1.5 3 .6 2.3.9 4.8 1.5 7.1.7 2.8 1.7 5.5 2.5 8.3.8 2.9 1.6 5.8 2.2 8.8.7 2.9 1.3 5.7 1.8 8.7.4 2.5.2 5.1.3 7.6 0 2.3 0 5 1.1 7 .9 1.6 2.4 3 3.6 4.3.6.6 1.2 1.2 1.7 1.9.5.2 1.2-.1 1.2-.1z"/><path d="M473.3 80.9c0-4.8.2-9.6.8-14.3.7-4.9 1.9-9.8 4.5-14 1.4-2.3 3.3-4.3 5.6-5.7v-.1c-1.8-3.7-4-7.3-4.9-11.4-.4-1.8-.6-3.9.3-5.6 1-2 3.1-3 5.1-3.5 6.8-1.5 9.8 7.8 8.2 13-.5 1.5-1.4 2.9-2.7 3.8-1.7 1.1-3.7 1.2-5.6.9-.2 0 .4.4.6.5 2.4.4 5 0 6.8-1.8 1.6-1.7 2.2-4.1 2.1-6.3-.1-4.4-2.5-9.4-7.1-10.5-2.6-.6-5.9.4-7.6 2.5-1.9 2.4-1.3 5.8-.5 8.4 1 3.2 2.7 6.1 4.1 9 .2.4.3.5-.1.8-.4.3-.8.5-1.2.8-.7.6-1.4 1.2-2.1 1.9-1.3 1.4-2.3 3-3.2 4.7-3.6 7.2-4.1 15.7-4.2 23.7v2.7c.3.3 1.1.5 1.1.5zM586.5 221.3c-5 2.8-9.9 5.9-14.9 8.8-5 2.9-10.3 5.3-15.3 8.3-4.9 2.9-9.7 5.9-14 9.7-4.2 3.6-7.9 7.7-11.4 11.9-1.8 2.2-3.6 4.4-5.3 6.6-1.8 2.2-3.7 4.4-5.3 6.7-1.6 2.1-2.7 4.4-4.5 6.4-.3.3-.5.5-.6.9-.1.4-.2.9-.4 1.3-.7 1.2-1.7 2.3-2.5 3.4-6.6 9.3-12.3 19.2-17.7 29.2-5.4 10-10.5 20.2-15.9 30.3-.7 1.3-1.4 2.5-2 3.8-.3.5.6.5.8.1 5.4-9.9 10.5-20 15.8-30 5.3-10 10.8-19.9 17.1-29.2 1.6-2.4 3.4-4.8 5.1-7.2.4-.6.4-1.4.8-2 .8-.9 1.6-1.8 2.3-2.8.7-1.1 1.4-2.2 2.1-3.2.8-1.3 1.9-2.4 2.8-3.6 1.8-2.2 3.5-4.4 5.2-6.6 3.5-4.3 7-8.6 11-12.4 4.1-4 8.7-7.3 13.5-10.4 4.9-3.1 10-5.7 15.1-8.4s9.9-5.8 14.9-8.7c1.2-.7 2.5-1.5 3.7-2.2.3-.4 0-1-.4-.7z"/><path d="M443.5 505.1c2.3-17.4 2.2-35.1 4.3-52.5 2-17.2 5-34.3 9.8-51 1.1-4 2.5-8 3.6-12 1.1-4.2 2.1-8.4 3.4-12.6 2.6-8.1 6.4-15.8 10.3-23.3 7.8-15.4 14.9-31.1 21.7-47 3.3-7.6 6-15.4 8-23.3 2.1-8 3.2-15.9 3.8-24 .4-4.5 1-8.8 2.1-13.2.9-3.8 1.9-7.6 2.4-11.5.9-8.4.8-17 1-25.5.2-8.6.4-17.1 1.3-25.7.9-8.6 2.7-17.1 4.7-25.5 1.9-7.8 3.6-15.8 6.7-23.2 3.3-7.6 7.9-14.2 13.2-20.6 2.7-3.3 5.6-6.4 8.2-9.8 2.3-3.1 4.1-6.4 6.1-9.7 4.5-7.3 10.4-13.8 15.8-20.5 5.4-6.8 11.4-13.4 15.9-20.8 3.5-5.8 6.9-11.7 11.1-17 1.7-2.2 3.6-4.5 6-5.9-.2-.2-.4-.3-.5-.5.7 3.1-.5 6.4-1.4 9.4-.8 2.8-1.2 5.6-1.9 8.5-1.6 7-5.2 13.2-9.6 18.7-4.2 5.3-8.7 10.6-13.2 15.7-4.3 4.9-9.2 8.7-15 11.6-3.3 1.7-6.9 3.3-9.9 5.6-2.7 2.1-4 5.4-6.9 7.4.2.2.4.3.5.5-.6-7.1 5.3-13.5 8.6-19.3 3.6-6.2 7.6-11.8 12.1-17.3 2.2-2.6 3.5-5.3 4.3-8.6.9-3.6 1.6-7 3.7-10 3.3-4.6 8.3-8.2 10.2-13.8.1-.2-.1-.5-.2-.6-3.6-3.3-8.5 1.7-10.8 4.2-3.9 4.2-7 9-10.5 13.4-5.9 7.6-13.3 14.3-16.6 23.5-1.7 4.8-2.7 9-2.8 14-.1 5.7-1.6 11.5-4.8 16.3-3.7 5.5-13.5 11.9-8.6 19.4.1.1.3.4.5.3 2.7-1.9 4.6-4.6 6.7-7 2.8-3.2 6.2-5.9 9.5-8.7 6.2-5.2 12.6-9.5 19.8-13.2 7-3.6 13.7-7.3 20.3-11.8 2.6-1.7 5.1-3.5 7.6-5.4 2-1.5 4.5-3.8 7.1-3.9-.2-.2-.3-.4-.5-.6-2.5 17.2-20.8 24.6-34 32.2-4.3 2.5-8.6 5.1-12.8 7.8-3.5 2.3-6.8 4.9-10.6 6.7-3.2 1.4-7 1.3-10 3.1-2.6 1.6-4.7 4.5-6.2 7.1-2.1 3.5-2.8 7.6-4.8 11.1-1.9 3.2-3.7 5.4-3 9.3.1.4.7.8.7.2-1-13.9.9-28.6-3.6-42-2.4-7-6.4-13.3-9.5-20-1.8-3.8-3.3-7.8-3.7-12-.4-3.8 0-7.5.6-11.3 0-.2-.2-.5-.4-.6-7.1-2.6-6.9 14-6.6 17.6.4 6.2 2.3 13.1 4.9 18.8 1.8 4 4.5 7.5 6.1 11.5l5.1 12.3c.9 2.3 1.9 4.6 2.4 7 .5 2.2.4 4.5.3 6.7-.1 3.5-.2 7.2 1.7 10.4.1.1.3.4.5.3 3.1-2.3 2.8-7.4 2.5-10.8-.3-5.2-1.4-10.4-2.7-15.5-2-7.8-4.6-15.4-5.9-23.4-.7-4.4-1-8.8.1-13.2.5-2.1.9-4.2 1.3-6.3.5-2.4 1-4.8 1.9-7 .4-.9.9-2.2 1.8-2.8 1.6-1.1 2.5 1.8 2.8 3.1.7 2.7.5 5.4 1 8.1.7 3.8 1.7 7.5 2.3 11.3.6 3.8.8 7.7 1 11.5.3 4.3.6 8.5.5 12.8-.2 8.2-3.1 15.6-5.1 23.5-1 4.1-1.4 8.3-1.8 12.5-.5 4.5-1.6 9-2 13.5-.4 4.2 0 8.4-1.1 12.5-.7 2.6-1.7 5.4-.9 8.1.1.2.5.6.6.2 3.3-7.1 4.4-14.9 7.6-22 3.1-7 7.4-13.6 12.2-19.5 2.2-2.8 4.6-5.4 7.6-7.4 2.9-1.8 5.4-4 8.2-5.9 2.9-2 6.4-2.7 9.7-3.9 3.6-1.3 6.5-3.5 9.6-5.7-.2-.2-.3-.5-.5-.7-8.9 10.1-17.9 19.7-29.1 27.2-9.9 6.6-15.3 17.7-23.3 26.2.2.2.4.5.6.7 5.9-8.3 13.7-16 23.1-20.2 5.1-2.3 10.5-3.9 15.3-6.8 1.9-1.2 3.5-2.7 5.5-3.6.5-.2 1.4-.8 1.9-.8.7 0 .3-.4.6.2.3.4.1 1.2-.1 1.6-.6 2.1-2.6 4-4.2 5.4-2.4 2.2-5 4-7.6 5.8-4.5 3-9.2 5.7-14 8.2-4.3 2.2-8.6 4.2-13.3 5.5-4.4 1.2-8.9 2.5-11.9 6.1-.2.3.3 1 .6.7 4.3-5.2 11.6-5.5 17.4-7.9 3.8-1.6 7.5-3.5 11.1-5.5 7-3.9 14.7-8.1 20.1-14.1 1.6-1.8 3.5-4.4 2-6.8-.1-.1-.2-.3-.4-.3-4.4.9-7.8 4.6-11.8 6.5-4.6 2.3-9.6 3.7-14.2 6.1-8.3 4.5-15.4 11.5-20.8 19.1-.2.3.3 1 .6.7 4.1-4.3 7.4-9.2 11.1-14 3.9-5.1 8.1-9.5 13.5-13.1 10.7-7.2 19.4-16.8 27.9-26.4.2-.2-.2-.9-.5-.7-3.3 2.3-6.2 4.5-10 5.8-3.5 1.2-7 2-10 4.2-1.4 1-2.6 2.1-3.9 3.1-1.4 1.1-3 1.9-4.4 2.9-2.7 1.9-4.8 4.3-6.9 6.9-4.6 5.8-8.7 12.2-11.9 18.9-3.5 7.3-4.6 15.4-8 22.7.2.1.4.2.6.2-1-3.4 1.2-7 1.6-10.4.6-4.3.2-8.6.9-12.8 1.6-8.9 1.9-17.9 4.4-26.6 1.2-4.2 2.7-8.4 3.4-12.7.7-4.1.8-8.3.6-12.5-.3-8.4-.9-17-2.7-25.2-.8-3.7-1.3-7.3-1.8-11.1-.3-2.6-1-5.2-3.1-6.9-.1-.1-.2-.1-.3-.1-3.4 1.8-4.1 7.6-4.8 10.9-1.1 5.4-2.4 10.6-1.9 16.2 1.3 13.6 7.3 26.2 8.8 39.8.3 2.6.5 5.4.1 8-.2 1.1-.4 2.3-1 3.3-.2.3-.5 1-.9 1-.6.1-1-2.3-1.1-2.8-.6-3.4-.1-6.8-.2-10.2-.1-2.9-1-5.6-2-8.3-1.3-3.5-2.9-6.9-4.3-10.3-1.3-3.3-2.6-6.4-4.3-9.5-1.8-3.2-3.6-6.3-4.8-9.8-1.2-3.6-2.1-7.3-2.8-11-.7-3.9-1.9-23.4 5.5-20.8-.1-.2-.3-.4-.4-.6-1 6.9-1 13.2 1.6 19.8 2.9 7.5 7.4 14.3 10.4 21.8 5.5 13.8 3.3 29.4 4.3 43.9.2.1.4.1.7.2-.8-4.2 1.8-6.5 3.5-10 1.7-3.4 2.4-7.2 4.5-10.5 1.7-2.7 3.9-5.8 6.9-7 1.7-.7 3.6-.8 5.4-1.3 1.8-.5 3.6-1.2 5.2-2.2 3.8-2.1 7.3-4.8 10.9-7.1 4.1-2.6 8.3-5.1 12.5-7.5 7-3.9 14.2-7.3 20.4-12.5 5.9-4.9 10.7-11.2 11.9-19 0-.2-.2-.6-.5-.6-3.4.2-6.5 3.5-9.1 5.4-3.8 2.9-8 5.5-12 8.1-9.3 5.9-19.9 9.6-28.6 16.5-4.4 3.4-8.8 7.1-12.8 10.9-1.6 1.6-3 3.4-4.5 5.1-.8.9-1.6 1.9-2.5 2.7-1.1 1-1 1.3-1.7.6-.5-.5-.6-1.7-.6-2.4-.1-4.2 3.7-7.9 6.3-10.8 2.9-3.2 5.3-6.6 6.7-10.8 1.6-4.7 1.4-9.3 1.8-14.2.5-5.3 2.7-11 5.4-15.5 4.3-7.3 10.6-13.1 15.5-19.9 3.6-5 7.3-10.5 12.2-14.3 1.1-.9 5.6-3.6 6.4-1.3.2.5-1.1 2.3-1.5 2.9-.6 1-1.3 1.9-2 2.7-1.5 1.8-3.2 3.5-4.7 5.3-1.5 1.8-2.9 3.7-3.8 5.9-1.1 2.8-1.4 5.9-2.4 8.8-1 3.1-3.1 5.5-5.2 7.9-2 2.3-3.8 4.7-5.5 7.2-3.2 4.8-5.9 9.9-9 14.8-2.6 4-5.2 8.4-4.8 13.4 0 .2.3.6.5.5 2.4-1.7 3.6-4.3 5.6-6.3 2.6-2.7 6.5-4.3 9.8-6 5.8-2.9 10.8-6.3 15.3-11 4.9-5.3 9.7-11 14.2-16.7 4.3-5.4 7.9-11.4 9.7-18.1.9-3.4 1.3-6.9 2.3-10.3.9-2.9 1.9-6.1 1.2-9.1 0-.2-.3-.6-.5-.5-4.6 2.8-7.9 8.2-10.9 12.6-2 3-3.8 6.2-5.7 9.3-2.2 3.7-4.7 7.1-7.4 10.4-5.7 7.1-11.3 14.3-17.1 21.3-2.6 3.2-5.2 6.3-7.4 9.8-2.1 3.4-4 6.9-6.3 10.1-5 6.8-11.1 12.7-15.8 19.8-4.1 6.2-7.2 13.1-9 20.3-4.3 16.2-8.1 32.3-9 49.1-1 17.4.6 35.3-3.6 52.3-2.1 8.3-2.1 16.6-3.3 25-1.3 8.4-3.5 16.7-6.3 24.7-2.8 8.1-6.3 15.8-9.7 23.6-3.5 8-7.1 16-10.9 23.9-3.7 7.6-7.8 15.1-11.3 22.9-1.8 3.9-3.4 7.9-4.7 12-1.3 4.1-2.2 8.4-3.4 12.6-2.3 8.3-5 16.5-6.9 24.9-1.8 8.1-3.3 16.3-4.6 24.4-2.6 17.5-3.3 35-4.7 52.6-.4 4.5-.8 8.9-1.4 13.3-.1 1.1.5 1.6.6 1.1z"/><path d="M516.2 186.7c-.4.5-.8 1-1.1 1.4-.1.2-.1.4.1.5.2.1.5 0 .6-.1.4-.5.8-1 1.1-1.4.1-.2.1-.4-.1-.5-.2-.2-.4-.1-.6.1z"/><path d="M516.9 186.8c-10.9-8.6-17.8-21.2-23.1-33.8-1.5-3.5-2.9-6.9-4.5-10.3-1.4-2.8-3.1-5.4-4.7-8-2.2-3.4-4-7.1-6.4-10.4-1.2-1.7-4.1-6.1-6.7-4.2-1.1.8-1.3 2.2-1.3 3.4 0 1.9.5 3.7 1 5.5 1.2 3.9 2.9 7.7 4.7 11.3.8 1.5 1.7 2.9 2.6 4.3 2.2 3.3 4.4 6.5 6.8 9.6 2.2 3 4.5 6 7.1 8.7 2.4 2.6 5 5.1 7.4 7.7 5.1 5.6 8.5 12.3 11.8 19.1.8 1.7 1.6 3.4 2.5 5h.7c-7.7-7.2-15.3-14.5-23.4-21.3-2.1-1.7-4.2-3.3-6.3-5.1-1.8-1.6-3.5-3.4-5.1-5.2-3.1-3.6-5.9-7.3-9.1-10.7-3.8-4-7.9-7.8-10.7-12.5-.1-.2-.4-.4-.6-.3-1.7.1-3.2.7-3.4 2.5-.2 2 .8 4.2 1.7 5.9 2.2 4.5 5.3 8.5 8.4 12.4 4.6 5.8 8.8 12.2 14.6 16.9 3.8 3.1 7.9 5.8 11.9 8.8 1.9 1.5 3.8 3 5.6 4.7 1.1 1.1 1.9 2 2.6 3.4 1.6 3.2 2.8 6.6 4.3 9.8 1 2 2.5 5.2 5.1 5.4 0 0 .2 0 .2-.1 1.3-4.6-.5-9.4-2.4-13.6-1-2.3-2.2-4.6-2.9-7-.9-2.8-1.5-5.7-2-8.6-1.9-9.8-4.5-19.7-4.1-29.7.2-5.7 1.6-11.2 4.5-16.1-.3-.1-.5-.1-.8-.2 1.4 1.8 1.3 4.5 1.2 6.6-.1 2.5-.5 5.1-.7 7.6-.3 3.1.3 6.3.8 9.3.3 1.8.7 3.5 1 5.3.1.9.2 1.8.2 2.7-.1 1-.1 2.1 0 3.1 0 .8 0 1.7.3 2.5s.9 1.7 1.3 2.5c.9 1.8 1.7 3.5 2.4 5.4.7 1.7 1 3.6 1.3 5.4.3 1.8.6 3.6.8 5.4.8 7.3 1.4 14.8.8 22.1-.3 4.2-1.3 8.3-2.5 12.3-1.1 3.7-2.3 7.5-1.7 11.4 0 .2.8.6.8.3 1.3-9.4 7.5-17.4 12.8-24.9 4.6-6.5 9.2-13.2 15.3-18.4 3.4-2.9 7.3-5.2 11.8-6-.2-.2-.5-.3-.7-.5-1.2 5.8-6.7 9.7-11.1 12.9-2.6 1.9-5 3.8-7.2 6.1-2.4 2.6-4.5 5.4-6.7 8.2-3.6 4.6-8.3 8.8-10.4 14.3-1.5 3.8-2.7 7.7-3.9 11.6-.7 2.3-1.3 4.6-1.9 6.9-.3 1.2-.8 2.8-.6 4.1 0 .2.6.6.8.4 2.4-2.4 4.2-5.4 6-8.4 2.1-3.5 4.2-7.1 6.4-10.6 2.1-3.1 4.3-6.3 7.3-8.7 1.2-.9 2.5-1.5 3.8-2.1 1.6-.7 3.1-1.4 4.7-2.1 2.1-.9 4.2-1.7 6.5-2.3 1.7-.4 3.9-.9 5.6-.1l-.3-.3c-.1 2.3-2.1 3.9-3.9 5.1-2.3 1.6-4.9 2.7-7.5 3.7-5.1 1.9-10.4 3-15.4 5.4-3.2 1.5-6.5 3.4-8.8 6.3-.2.2.6.6.8.4 2-2.6 5-4.4 8-5.8 3-1.5 6.2-2.6 9.4-3.5 4.8-1.4 9.8-3 14-5.7 1.9-1.2 4-3 4.1-5.4 0-.1-.2-.3-.3-.3-3.1-1.5-7.1 0-10 1.1-1.8.7-3.6 1.5-5.4 2.3-1.4.6-2.8 1.1-4.1 1.8-3.2 1.7-5.6 4.7-7.6 7.5-2.5 3.5-4.6 7.2-6.8 10.8-2.1 3.6-4.3 7.5-7.2 10.5.3.1.5.3.8.4-.2-1.1.2-2.5.5-3.6.5-2 1-4 1.6-5.9 1.2-4.1 2.5-8.1 4-12.1 1.9-5.2 5.8-9.1 9.2-13.3 2.3-2.8 4.4-5.8 6.7-8.5 2.2-2.6 4.6-4.8 7.3-6.7 4.8-3.6 11.2-7.6 12.5-14 .1-.3-.5-.5-.7-.5-8 1.4-14.3 7.6-19.2 13.6-2.5 3-4.8 6.3-7.1 9.5-2.7 3.8-5.5 7.5-7.9 11.5-2.8 4.6-5.2 9.5-5.9 14.8.3.1.6.2.8.3-.5-3.7.5-7.3 1.6-10.9 1-3.4 1.9-6.7 2.4-10.2 1-7.5.5-15.1-.2-22.6-.4-3.7-.8-7.4-1.7-11-.4-1.7-1.1-3.3-1.8-4.9-.4-.8-.8-1.7-1.2-2.5-.5-1-1.2-2-1.4-3.1-.3-1.9-.2-3.8-.1-5.7.1-1.8-.5-3.8-.8-5.5-.6-3.3-1.4-6.8-1.2-10.2.1-2.8.6-5.5.8-8.3.1-2.3.2-5.2-1.4-7.1-.1-.1-.6-.4-.8-.2-7.5 12.3-4.2 27.3-1.5 40.6.7 3.5 1.3 7.1 2.2 10.6.9 3.6 2.3 6.8 3.8 10.2 1.4 3.2 2.8 6.5 2.9 10 0 .9 0 1.7-.2 2.5 0 .1-.1 1-.2 1s-.4-.1-.5-.2c-.8-.4-1.3-1.3-1.8-2-2.5-3.9-3.8-8.4-5.9-12.5-1.1-2.2-3-3.7-4.8-5.3-2.7-2.3-5.7-4.5-8.6-6.6-3-2.2-6.1-4.3-8.8-6.8-2.6-2.4-4.9-5.2-7-8.1-2.4-3.1-4.8-6.1-7.2-9.2-2.4-3.1-4.7-6.4-6.5-9.9-1-1.9-3.2-6.2-.7-7.8.6-.4 1.3-.5 2-.5l-.6-.3c2.5 4.2 5.9 7.7 9.3 11.1 3.4 3.5 6.4 7.2 9.4 10.9 1.5 1.8 3.1 3.6 4.8 5.3 1.8 1.7 3.8 3.2 5.7 4.8 4.2 3.4 8.3 7 12.4 10.7 4.4 4 8.8 8.2 13.2 12.3.1.1.9.4.7 0-3.3-6.5-6.2-13.3-10.4-19.3-3.9-5.6-9.3-10-13.7-15.2-2.4-2.9-4.7-6-7-9.1-2-2.8-4.1-5.7-5.9-8.7-1.8-2.9-3.2-6-4.4-9.1-.8-2-1.5-4-2-6.1-.4-1.6-.7-3.4-.4-5 .2-1 1-2.4 2.2-2.3.6.1 1.2.6 1.6 1 .7.6 1.3 1.4 1.8 2.1 2.5 3.3 4.5 7 6.6 10.6 1.3 2.2 2.8 4.3 4 6.5 1.7 3.2 3.2 6.6 4.6 9.9 2.6 6.2 5.3 12.4 8.8 18.2 3.3 5.6 7.3 10.8 12 15.3 1.2 1.1 2.4 2.1 3.6 3.1-.2.8.6.9.2.5zM620.7 217c2.3 1.5 4.7 2.8 7.3 3.5 1.9.5 3.9.7 5.9.7 2.2 0 4.4-.3 6.6-.3 3.3-.1 6.6.1 9.9.3 3.6.2 7.3.4 10.9.9 3.1.4 6 1.1 9 1.8 3.7.8 7.5 1.4 11.2 2.4 1.7.5 3.4 1 4.9 1.9 1 .6 1.7 1.4 1.3 2.6-.4 1.2-1.6 1.8-2.7 2.2-1.7.6-3.6.7-5.4.8-3.8.1-7.6-.2-11.3-.8-4.9-.7-9.7-2.3-14.5-3.7-3.4-1.1-6.9-2.2-10.3-3.5-3.1-1.2-6.1-2.8-9.1-4.2-3-1.4-6.1-2.6-9.3-3.5-.7-.2-1.5-.5-2.2-.7l-.2-.1s-.6 0-.4.1h.2c.2 0 .5.1.5 0 .2 0 .4-.1.7-.1h-.1c-.2 0-.3 0-.5-.1-.7-.1-1.3-.2-2-.3.3-.1-.3.1-.4.1 2.1 1.1 4.2 2.4 5.8 4.1 1 1.1 1.7 2.3 2.3 3.6.7 1.4 1.3 2.7 2.3 3.9 1.4 1.7 3.1 3.1 4.9 4.3 4.8 3.2 10.4 5 15.8 7.1 2.7 1 5.4 2.2 8.1 3.1 2.5.9 5 1.5 7.5 2.1.6.1 1.3.3 2 .4.5.1 2.1.2 2.4.6.3.3.2 1.3.2 1.7-.1.9-.5 1.7-1.3 2.3-2.1 1.4-5.4 1-7.8.7-5.6-.7-10.9-2.4-16.2-4.2-5.3-1.7-10.6-3.4-15.3-6.4-3.2-2-3.7-5.9-4.1-9.4-.4-3.1-.5-7.1-3.2-9.2-1.7-1.3-3.6-1-5.6-.8-6.4.8-12.7 2.5-19.1 3.4-1.4.2-2.7.3-4.1.3-.8 0-1.8 0-2.6-.4-.5-.3-.5-.5 0-.9 1.1-.7 2.4-1.2 3.7-1.5 2.7-.6 5.6-.5 8.4-.2 2.5.2 5 .5 7.5.5 2.9 0 5.8-.4 8.7-.8 4.6-.7 9.3-1.2 13.9-1.9 8.9-1.4 18.2-3.4 25.5-9 1.8-1.4 3.5-3 4.9-4.7-1.8-.7-4.1-.1-5.9.4-2.6.8-5 2.1-7.4 3.2-3.3 1.6-6.9 2.3-10.5 2.9-1.8.3-3.7.5-5.5.9-1.8.4-3.5 1.2-5.3 1.7-.5.1-1 .3-1.5.4-.4.1-.8 0-1.2-.1-1-.1-2.1-.3-3.1-.4-1.8-.2-3.7-.4-5.5-.3-3.6.2-7.1.9-10.6 1.6-7.2 1.6-14.5 3.6-21.3 6.6-3.6 1.6-6.9 3.6-10 5.9-3.3 2.4-6.6 5-10.7 5.8h.7c7.6-3.9 12.9-11.2 17.8-18 4.9-7 10.3-13.9 13.6-21.9 1.8-4.4 2.9-9.3 2.1-14.1 0-.1-.8.1-.9.1-4.8 2.8-6.7 8.7-8.3 13.7-.9 2.9-1.8 5.9-3.1 8.6-1.6 3.2-3.6 6.2-5.5 9.2-2 3-3.7 6.2-5.7 9.3-1.4 2.2-2.9 4.3-4.8 6-2.9 2.6-6.1 4.9-9.2 7.2-2 1.5-4 2.9-6.1 4.3-.8.5-1.6 1-2.4 1.4-.5.3-1.1.7-1.6.7h.6c1.7-3.3 4.1-6.2 6.5-9.1 2.7-3.2 5.5-6.4 8-9.8 2.2-3 4.5-6.3 5.4-10 .4-1.4.4-2.9.5-4.3.2-1.8.3-3.6.4-5.4.1-2.2.1-4.3-.1-6.5-.2-1.7-.6-3.5-1.8-4.7-.1-.1-.7 0-.8.1-1.9.8-2.9 2.8-3.5 4.7-.8 2.6-1.1 5.5-1.2 8.2-.2 5.6.5 11.1 0 16.7-.3 3.7-1 7.7-3.1 10.8.1-.1.8.1.9-.1 1.8-2.8 2.5-6.1 2.9-9.4.4-3.3.5-6.6.3-9.9-.3-4.9-.4-10 .6-14.8.5-2.3 1.4-5.2 3.8-6.2-.3 0-.6.1-.8.1 1 1.1 1.5 2.6 1.7 4 .3 1.9.4 3.8.3 5.7 0 1.9-.2 3.8-.4 5.7-.1 1.4-.1 2.8-.3 4.2-.5 3.6-2.6 6.9-4.6 9.8-2.5 3.6-5.4 6.9-8.3 10.3-2.6 3.1-5.4 6.3-7.3 10h.6c1.1-.2 2.1-.8 3.1-1.4 1.8-1.1 3.5-2.2 5.2-3.4 3.6-2.5 7.1-5.1 10.4-7.9 4.2-3.4 6.7-8.2 9.4-12.7 1.9-3.1 4-6.1 5.9-9.3 1.8-3 3.1-6.1 4.2-9.4 1.8-5.8 3.5-13.2 9.1-16.5-.3 0-.6.1-.9.1 1.4 8.8-3.1 17.3-7.7 24.4-2.3 3.5-4.7 6.9-7.1 10.3-2.4 3.5-4.9 6.9-7.7 10.1-3.1 3.6-6.7 7-10.9 9.1h.7c5.7-1.1 10-5.5 14.8-8.5 5.7-3.6 12.1-5.8 18.6-7.6 3.3-.9 6.6-1.8 10-2.5 3.7-.8 7.5-1.4 11.3-1.1 1.7.1 3.5.3 5.2.6.6.1 1.1.2 1.7.2.6-.1 1.2-.2 1.8-.4 1.6-.4 3.1-1 4.6-1.6 1.8-.7 4-.8 5.9-1.1 3.1-.4 6.2-.9 9.1-1.9 2.1-.7 4-1.8 6-2.7 2.2-1 4.9-2.5 7.4-2.1.1 0 .6 0 .7.2.2.2-.1.5-.3.7-.5.5-.9 1-1.4 1.5-.9.9-1.9 1.8-3 2.6-8.7 6.6-20.1 8.2-30.7 9.6-2.7.4-5.4.7-8.1 1.1-3.8.5-7.6 1-11.4.6-4.9-.4-10.1-1.2-14.9.4-1.2.4-2.2.9-3.2 1.6.3.6 1.1.8 1.7.9 1.2.2 2.4.1 3.6 0 3.5-.3 6.9-.9 10.3-1.6 3.6-.7 7.2-1.5 10.8-2 1.1-.2 2.3-.4 3.5-.2 1.4.2 2.6 1.3 3.3 2.4 2.1 3.3 1.6 7.8 2.5 11.5.4 1.8 1.1 3.6 2.5 4.9.9.8 2.1 1.4 3.2 2 1.4.8 2.8 1.4 4.3 2 2.8 1.1 5.6 2 8.5 3 1.7.6 3.5 1.2 5.2 1.8 2.6.8 5.4 1.5 8.1 2 3 .6 6.2 1 9.2.7 2-.2 4.6-.9 4.8-3.3 0-.6-.1-1.3-.3-1.9-4.5-.9-8.9-1.9-13.2-3.5-2.2-.8-4.4-1.8-6.7-2.6s-4.6-1.6-6.9-2.5c-4.4-1.7-8.8-3.8-12.3-7-2-1.9-3.2-4.1-4.4-6.5-1.7-3.3-4.5-5.3-7.8-7-.1-.1-.3-.1-.7 0 .9.1 1.7.3 2.5.3.3 0 .7.1 1-.1-.4-.2-1.2-.1-1.7-.1-.2 0-.5 0-.4.2.2.3 1.4.5 1.8.6 3.4 1 6.7 2.2 9.9 3.8 3.2 1.5 6.4 3.1 9.7 4.4 3.6 1.4 7.3 2.6 11 3.7 3.4 1 6.8 2 10.3 2.8 3.2.7 6.5 1 9.8 1.2 3.6.2 7.5.3 11-.8 1.1-.3 2.4-.9 2.9-2 .6-1.1.1-2.1-.9-2.8-1.5-1.1-3.5-1.6-5.2-2.1-2.2-.6-4.4-1.1-6.6-1.5-5-1-9.9-2.3-15-2.9-4-.4-8-.6-11.9-.9-3.1-.2-6.1-.3-9.2-.1-2.4.1-4.7.4-7.1.3-2.4-.1-4.8-.8-7-1.8-1.4-.7-2.8-1.5-4.2-2.3 0-.2-.6.1-.7.1zM460.5 387c3.5-5.5 6.1-11.6 6.6-18.1.3-3.6-.1-7.3-.2-10.9-.1-3.9-.1-7.8-.1-11.7-.1-7-.1-14.2-2.3-21-1.9-5.7-4.9-11-8.3-16-3.9-5.8-8.2-11.3-11.8-17.2-.1-.1-.4-.5-.6-.4-1.6 1.7-1.8 4.1-1.7 6.3.1 2.3.7 4.5 1.1 6.7.6 2.8 1.1 5.7 1.9 8.4.8 2.9 2.3 5.6 3.8 8.2 1.7 3 3.6 5.9 5 9.1 1.5 3.2 2.6 6.6 3.4 10 .8 3.2 1.4 6.5 1.9 9.7.5 3.4 1.1 6.7 1.5 10.1 1 7.7-.5 15.5.9 23.1.2.1.4.3.7.4-1.6-4.5-3.7-8.8-4.8-13.5-1-4.3-1.4-8.7-2.6-12.9-1.2-4.1-3.3-7.5-5.9-10.7l-4.2-5.1c-1-1.4-1.8-2.8-2.5-4.3-1.1-2.5-2.5-6.2-5.4-7.1h-.1c-2.5 2.4-.7 6.8.5 9.4.8 1.7 1.6 3.4 2.5 5 1.1 2.1 2.1 4.2 3.2 6.3 1.4 2.6 2.8 5.1 4.1 7.8 1.3 2.6 2.3 5.4 3.5 8.1 1.2 2.7 2.6 5.2 3.5 8 .6 1.8.7 3.8 2.2 5.2 1.2 1.1 2.8 1.5 4.3 1.9.8.2 1.7.5 2.5.9.9.5 1.3 1.4 1.4 2.5 0 .2.6.7.7.5.3-4.1-1.1-7.5-3.3-10.8-1.1-1.6-2.2-3.1-3.1-4.8-1.1-2-1.7-4.2-1.9-6.5-.2-2.6-.9-4.9-1.9-7.3-1.1-2.7-2-5.4-2.9-8.2-1.2-3.9-2.5-7.7-4.8-11.1-3-4.5-6.4-8.9-9.8-13.1-4.3-5.3-8.8-10.5-14-15-1.9-1.7-4-3.4-6.4-4.5-1.4-.7-3.3-1.3-4.9-.6-.3.1-.6.3-.9.6v.2c3.4 7.8 9.6 13.8 16.8 18.2 3.9 2.3 7.8 4.5 11.4 7.3 3.1 2.4 6.2 4.8 9.2 7.4 3 2.6 5.7 5.5 8 8.8 2.5 3.6 4.1 7.6 5.3 11.8 1.3 4.6 1.9 9.3 1.7 14.1-.2 4.8-1.4 9.5-2.1 14.3-.4 2.8-.8 5.6-1.3 8.4-.4 1.9-.7 3.8-.8 5.8-.3 3.5-.3 8-2.8 10.7l.6.6c2.7-3 3.8-7 5.6-10.6 2.1-4.1 4.7-8 7.4-11.7 4.9-6.9 10.5-13.5 16.9-19 3.4-3 7.3-5.8 11.7-7.2l-.6-.6c1 2.9-.8 5.9-2.5 8.1-2.4 3.1-5.3 5.8-8.4 8.2-2.8 2.3-5.8 4.5-8.8 6.6-3.4 2.4-6.9 4.8-9.9 7.8-4.7 4.7-8 10.5-12.8 15.2-.2.2.5.8.6.6 4.2-4 9.1-7.2 14.2-9.8 5.3-2.6 11-4.6 16.9-5.1-.1-.1-.3-.2-.4-.2 4.7 4.8-3.7 8.5-7.3 9.8-5.2 2-10.9 2.8-16 5.3-1.3.6-2.7 1.2-3.9 2-1 .6-1.8 1.5-2.7 2.3-1.6 1.7-3.3 3.6-5.8 3.6-.2 0 .3.7.6.7 3.3-.1 5.2-3.2 7.4-5.1 1.4-1.2 3-1.9 4.6-2.7 1.4-.7 2.8-1.4 4.4-1.8 3.7-1.1 7.4-1.9 11.1-3.3 2.1-.8 4.2-1.6 6.1-2.8 1.4-.9 2.9-2 3.4-3.6.5-1.5-.2-3-1.2-4.2-.2-.3-.5-.7-.9-.8-.4-.1-.9.1-1.3.1-.5.1-1.1.1-1.6.2-1.9.3-3.8.8-5.7 1.4-8.3 2.6-16.3 7.2-22.6 13.2l.6.6c4.3-4.3 7.5-9.6 11.6-14 3.1-3.3 6.7-5.9 10.4-8.5 6.2-4.3 12.7-8.8 17.4-14.7 1.9-2.4 4.1-5.7 3-8.9-.1-.2-.4-.6-.6-.6-3.8 1.2-7.1 3.4-10.2 5.9-3.2 2.6-6.2 5.5-9 8.6-6.2 6.8-11.6 14.2-16.2 22.1-2.2 3.9-3.4 8.5-6.4 11.9-.2.2.5.8.6.6 2.5-2.7 2.5-7 2.8-10.4.4-4.8 1.4-9.5 2.1-14.2.8-5.3 2.1-10.5 2.2-15.9.1-5.2-.8-10.5-2.5-15.4-1.4-4.2-3.5-8.1-6.2-11.6-2.6-3.3-5.6-6.2-8.8-8.9-3.5-2.9-7.1-5.9-10.9-8.4-4.4-2.9-9.1-5.1-13.2-8.4-4-3.1-7.4-7.1-9.7-11.6-.3-.5-.6-1.1-.8-1.6-.2-.4-.2-.4.1-.6.2-.2.6-.4.9-.4.7-.2 1.4-.2 2.1-.1 1.9.4 3.6 1.5 5.2 2.6 2.1 1.5 4.1 3.3 6 5.1 4.4 4.3 8.4 9 12.2 13.8 2.9 3.6 5.7 7.3 8.2 11.1 2 3.1 3.3 6.4 4.4 9.9.7 2.3 1.4 4.6 2.2 6.9.8 2.1 1.8 4.2 2.3 6.5.5 2.2.4 4.4 1.1 6.5.5 1.6 1.2 3.1 2.1 4.5 1.7 2.8 4 5.3 5.1 8.5.6 1.8.7 3.7.6 5.5.2.2.4.3.7.5-.3-2.7-2.6-3.8-5-4.5-1.3-.3-2.7-.6-3.7-1.5-.6-.6-.9-1.3-1.1-2.2-.3-1.2-.6-2.3-1.1-3.4-.9-2.3-1.9-4.4-3-6.6-1.1-2.4-2-4.8-3.1-7.2-2.1-4.6-4.8-8.9-7-13.4-1.3-2.8-2.9-5.4-4-8.3-.6-1.6-1.2-3.3-1.1-5 0-.7.2-1.3.5-1.9.1-.2.3-.5.5-.7.4-.3.9.1 1.2.4 1.3 1.1 2.1 3 2.8 4.5.6 1.4 1.2 2.8 2 4 2.6 4 6.2 7.3 8.7 11.4 2.8 4.8 3.4 10.4 4.4 15.8 1.1 5.7 3.4 10.8 5.4 16.2.1.2.7.8.7.4-1.2-6.9-.2-13.9-.7-20.8-.2-3.2-.8-6.4-1.3-9.6-.5-3.3-1-6.6-1.7-9.8-1.3-6.4-3.5-12.5-6.8-18.2-1.7-2.9-3.5-5.8-4.9-8.9-1.2-2.7-1.8-5.7-2.4-8.7-.5-2.6-1.2-5.3-1.6-7.9-.3-2.6-.4-5.7 1.5-7.7-.2-.1-.4-.3-.6-.4 6.2 10.3 14.8 19.4 19.1 30.8 2.5 6.6 2.9 13.6 3 20.5.1 3.8.1 7.5.1 11.3.1 3.7.4 7.3.4 11 0 7.5-2.7 14.5-6.7 20.8 0 .6.7 1.2.8 1.1zM559.1 83.8c-1.7-.8-2-2.2-2.2-3.9-.2-1.6-.6-3.3-.5-4.9.2-1.8.8-3.6 1-5.4.2-2 .2-4.1.1-6.1-.3-6.4-1.4-12.7.6-18.9 1.2-3.8 2.7-7.6 4.2-11.3 1.8-4.5 3.8-9.1 6.2-13.3 1-1.9 2.2-3.8 3.6-5.4.7-.7 1.8-2 2.9-1.5-.1-.1-.1-.2-.2-.4-1.2 2.5-1.8 5.3-2.4 8-.6 2.8-1.4 5.5-2.2 8.3-.8 2.6-1.4 5.2-1.7 7.9-.2 2.2-.3 4.4-.7 6.6-1.8 9.2-5.9 17.7-8.3 26.7-1.2 4.5-2.1 9.4-1.2 14.1.1.4 1 .2.9-.2-.7-4.1-.1-8.4.9-12.4 1.1-4.7 2.7-9.2 4.3-13.8 1.5-4.2 3-8.4 4-12.7.4-1.9.8-3.8.9-5.8.1-2.7.6-5.4 1.2-8.1.8-3 1.8-5.8 2.5-8.8.7-3.2 1.2-6.5 2.7-9.6.1-.2 0-.3-.2-.4-2.7-1.2-5.2 2.9-6.3 4.7-2.7 4.2-4.8 8.9-6.7 13.6-1.8 4.2-3.4 8.4-4.8 12.7-.4 1.2-.8 2.5-1.1 3.8-.9 4.5-.5 9.1-.1 13.6.2 2.6.4 5.3.2 7.9-.2 2.2-.9 4.3-1.1 6.4-.2 1.8.3 3.7.5 5.5.2 1.8.9 2.9 2.5 3.7.4.2 1-.3.5-.6z"/><path d="M508 246.8c-1.1 1.9-1.8 4-2.6 6.1-.3.9-.6 1.9-1.2 2.7-.5.8-.9 1.4-1.1 2.4-.2 1-.2 2-.2 3-.1 1.1-.3 2.2-.2 3.3.1 1.9.6 3.9 1.2 5.7.7 2 1.9 3.9 2 6.1.1 2-.5 3.9-.9 5.9-.4 2.1-.8 4.1-1.6 6.1-.9 2.1-1.8 4.1-2.8 6.2-1 2.1-2.2 4.1-3 6.2-.6 1.7-1.2 3.9-2.8 4.9h.6c-1.9-1.4-1-4.7-.8-6.6.4-3-.3-6.2-1.1-9.2-.8-3-1.7-6.1-3.1-8.8-1.4-2.6-3.1-5-5.2-7.1-2.3-2.3-5-4.3-8-5.7-.2-.1-.5-.1-.6 0-1.3 1.1.9 3.7 1.5 4.6 1.7 2.3 3.6 4.4 5.6 6.5 1.9 2 3.9 3.8 5.5 6.1 2.5 3.6 2.5 8.3 2.7 12.5 0 1.7.1 3.3.1 5 0 1.4-.2 2.7-.3 4-.1 1.1.1 2.1.7 3 .7.9 1.4 1.7 1.4 2.9 0 .4.9.3.9 0 0-2-2.1-3-2.2-5-.1-1.1.2-2.2.3-3.3.1-1.4 0-2.7 0-4.1 0-2.7-.1-5.4-.4-8.1-.2-1.8-.5-3.5-1.3-5.2-1.2-2.6-3.2-4.6-5.2-6.6-1.9-2-3.8-4-5.5-6.1-1-1.1-1.9-2.3-2.6-3.6-.2-.4-1.1-1.8-.5-2.2h-.6c5.5 2.5 10.2 7.1 13 12.5 1.5 2.9 2.5 6.2 3.2 9.3.7 2.9 1.3 6 .9 8.9-.3 2.1-.9 5.1 1.1 6.5.2.1.5.1.6 0 1.3-.8 2-2.4 2.5-3.8.7-1.8 1.4-3.5 2.3-5.1 1.1-2.1 2.2-4.2 3.1-6.4.9-1.9 1.7-3.8 2.1-5.9.4-2 .8-4 1.1-5.9.3-2 .2-3.7-.6-5.6-.4-1-.8-1.9-1.2-2.8-.4-1.2-.7-2.4-.9-3.6-.5-2.1-.1-4 0-6.1.1-1.2 0-2.5.6-3.6.5-1 1.1-1.8 1.5-2.8.9-2.3 1.6-4.8 2.9-7 .1-.5-.7-.6-.9-.2zM494.8 323.6c7.8-4 15.5-8.3 23.1-12.7 3.9-2.2 7.7-4.5 11.6-6.7 1.7-1 3.4-2 5-3.2 1.4-1.1 2.7-2.3 3.9-3.5 2.5-2.5 4.7-5.2 7.3-7.6 2.6-2.4 5.7-4.1 8.6-6.2 1.8-1.3 3.5-2.9 4.7-4.8 1.1-1.9 1.7-3.9 2.1-6.1.8-4.6 1-9.2 2.4-13.7 1.1-3.5 3.3-9.2 7.9-8.8 1.8.2 4.6 1.4 5.2 3.3.5 1.6-1.1 3.1-2.2 4-1.6 1.3-3.5 2.4-5.3 3.4-1.3.8-3 1.5-4 2.6-1.8 1.9-2.3 5.2-2.7 7.7-.4 3.2-.5 6.5-1.7 9.5-.6 1.6-1.7 3.1-3.1 4.1-1.5 1.1-3.2 1.4-5 1.6-1.6.1-3.3.2-4.9.6-1.7.4-3.3 1.2-4.9 2.1-1.7.9-3.4 2-5.2 2.6.1 0 .3 0 .4.1-.3-.6-.2-1.4-.1-2.1.1-1.1.4-2.2.6-3.3.6-2.7 1.3-5.3 1.8-8 .6-3.7 1.3-10.1-4.2-10.1-3.4 0-9 2.1-7.8 6.5.8 3.1 4.2 5.8 7.3 6.4 1.5.3 3 0 4.1-1.2 1.5-1.6 1.5-4 1.3-6-.1-.8-.2-1.7-.4-2.5-.1-.4-.9 0-.8.3.6 2.9 1.2 9.1-3.4 8.6-2.9-.3-6.1-2.8-7.1-5.6-1.6-4 3.3-5.9 6.6-5.9 5.1 0 4.1 6.4 3.5 9.8-.5 2.7-1.2 5.4-1.8 8.1-.3 1.6-1.1 3.8-.3 5.4.1.2.3.1.4.1 3.8-1.4 6.9-4.2 10.9-4.9 3.3-.6 6.6-.2 9.4-2.3 5.5-4.2 4-11.9 5.8-17.8.4-1.2.9-2.7 1.8-3.6.5-.5 1.2-.9 1.8-1.3 1.8-1.1 3.7-2.1 5.5-3.3 2.4-1.6 6.7-4.9 3.4-7.8-1.6-1.4-4-2.3-6.1-1.9-1.9.4-3.4 1.7-4.5 3.2-2.6 3.6-3.7 8.4-4.3 12.7-.7 4.6-.6 9.9-3.5 13.9-1.6 2.2-3.8 3.8-6 5.2-1.5 1-3.1 2-4.6 3.1-1.5 1.2-2.8 2.5-4.1 3.8-2.5 2.6-4.8 5.3-7.5 7.7-3.3 2.8-7.2 4.8-10.9 6.9-7.9 4.6-15.7 9.2-23.7 13.5-2.1 1.1-4.1 2.2-6.2 3.3-.6.4-.6 1.1-.1.8z"/><path d="M537.2 299.4c2 .4 4.1.1 6.1-.4 2.5-.6 4.9-1.4 7.3-2.4 4.6-1.8 9-4.1 13.4-6.5 3-1.6 6.1-2.8 9.4-3.4.1 0 .2-.1.2-.2.9-2.8 1.3-5.7 2-8.6.4-1.6.8-3.1 1.4-4.6.2-.4.4-1.2.7-1.3.2-.1.5 0 .6 0 1.9.2 3.5 1.7 4.6 3.2 1.8 2.3 4.5 8.1.8 10-1.1.6-2.5.5-3.7.3-2.2-.3-4.3-1.2-6.3-2.1-.5-.2-.8.4-.3.6 2.5 1.2 5.4 2.4 8.3 2.4 1.5 0 3.1-.5 4-1.8 1.7-2.7.1-6.6-1.5-9-.9-1.4-2.2-2.7-3.7-3.6-.7-.4-1.4-.6-2.1-.7-.3 0-.7-.1-1 0-.9.1-1.1 1.4-1.4 2.1-.9 2.3-1.4 4.7-1.9 7.1-.2 1.2-.5 2.4-.8 3.5-.1.4-.2 1.5-.5 1.8-.4.5-1.5.5-2.1.6-4 1-7.4 3-10.9 4.9-3.5 1.9-7.2 3.5-10.9 4.9-2.1.8-4.2 1.5-6.3 2-1.8.4-3.6.7-5.4.4-.5-.1-.5.7 0 .8zM516.3 311.5c3 0 6-.1 9-.1 2.9 0 6.2 0 9 .9 2 .6 3.6 1.9 5.7 2.2 2.9.5 5.8-.6 8.7.4-.2-.2-.3-.5-.5-.7-2.4 3-6.7 5.9-4.4 10.2 1.5 3 4.8 4.3 8.1 4.2 1.7-.1 3.4-.5 4.8-1.5 1.2-.9 2.6-2.3 3-3.9.5-2.3-2-4-3.8-4.8-3-1.2-6.4-1.7-9.6-1.7.1 0 .3.7.5.7 2.4 0 4.9.3 7.2.9 1.8.5 5.3 1.4 5.2 3.7-.1 1.3-1.1 2.5-2 3.3-1.1 1.1-2.2 1.8-3.7 2.1-2.8.7-6.5.2-8.6-1.9-1.7-1.7-1.3-4.3-.1-6.1 1.1-1.7 2.8-3 4-4.6.1-.1-.4-.7-.5-.7-2.7-1-5.5-.1-8.3-.4-1.3-.1-2.4-.6-3.6-1.1-.9-.4-1.8-1-2.8-1.2-2.7-.8-5.7-.8-8.5-.9-3.1 0-6.3.1-9.4.1.1.2.3.9.6.9z"/><path d="M513.4 314.3c0-3.4-.6-6.8-.6-10.3 0-3 .2-6.2 2.3-8.6 1.5-1.7 3.8-2.5 5.9-1.4 1.8 1 3.2 2.8 3.7 4.8.6 2.6-.8 4.9-3 6.2 0 0 .7.3.8.2 2.1-1.3 3.6-3.4 3.1-6-.4-2.1-1.9-4-3.7-5.1-1.7-1-4-1.4-5.8-.5-2.8 1.4-3.9 4.6-4.1 7.5-.3 4.3.5 8.6.5 12.9 0 .3.9.3.9.3zM507.4 144.2c-2.7-10.3-6.4-20.3-11.3-29.8s-10.9-18.5-17.9-26.5c-3.8-4.3-7.9-8.2-11.9-12.3-1-1-2-2-3.1-2.8-1-.7-2.1-1.3-3.1-1.9-2.1-1.1-4.4-2.2-5.8-4.2-1-1.5-1.3-3.3-.4-4.9 1-1.7 2.9-2.7 4.8-2.9 1.3-.2 2.6 0 3.8.3.3.1.7.2 1 .3.4.2.4.6.4 1 .1.7.2 1.5.2 2.2.2 2.7-.1 5.5-.1 8.2 0 2.5.1 5.1.9 7.6.8 2.4 2.3 4.4 4 6.3 3.3 3.7 7.3 6.7 10.4 10.6.7.9 1.4 1.9 2 2.9l.2-.2c-2.6.8-5.3.1-7.7-.8-2.9-1.1-5.6-2.7-8.2-4.3-2.7-1.7-5.3-3.4-8-5.1-2.3-1.4-4.6-2.8-7.1-3.8-2.8-1-5.9-1.2-8.7-.3-2.4.8-4.7 2.5-5.2 5.1-.6 3 1.6 6.3 3.9 8 1.9 1.4 4.5 1.8 6.8 1.5 2.4-.3 4.9-1.4 6.4-3.3 1.5-2 .9-4.1-.9-5.6-.2-.2-1.1 0-.8.2 1.6 1.3 2.3 3.1 1.1 4.9-1.2 1.8-3.4 2.9-5.4 3.3-2.5.5-5.1.1-7-1.7-2.1-2-4.1-5.2-2.9-8.2 1-2.6 3.9-4 6.5-4.3 2.8-.3 5.5.5 8 1.8 5.1 2.5 9.6 6 14.5 8.9 4.3 2.5 10.1 5.7 15.3 4.1.1 0 .3-.1.2-.2-2.5-4.4-6.5-7.6-10-11-1.9-1.8-3.7-3.7-5.1-6-1.5-2.5-2.1-5.3-2.2-8.1-.1-2.8.2-5.6.1-8.5 0-1.4-.1-2.8-.3-4.3-.1-.6 0-.8-.5-1l-1.8-.6c-3.3-.8-8.1-.1-9.7 3.4-1.8 4.2 2.9 7.1 6 8.7 1.2.6 2.5 1.3 3.6 2.1 1.2.9 2.2 1.9 3.3 2.9 2.3 2.3 4.5 4.6 6.8 6.8 7.9 7.9 14.6 16.9 20.1 26.6 5.5 9.6 9.8 19.9 12.9 30.6.4 1.4.8 2.9 1.2 4.3-.2.3.7.2.7 0z"/><path d="M480 92.6c-1-1.3-2.3-2.5-3.4-3.7-.6-.7-1.3-1.4-1.8-2.3-.5-.8-.7-1.8-.9-2.7-.4-2.4-.3-4.9-.3-7.3 0-2.6-.3-5-.8-7.6-1.1-5.7-2.5-11.3-4.1-16.8-.7-2.5-1.6-5-2.2-7.5-.5-2.2-.7-4.5-1.5-6.6-.7-2-2.1-3-3.8-4.1-1.8-1.2-3.2-2.8-4.1-4.7-1.2-2.5-.9-5.3 1-7.4 1.9-2 4.9-3 7.6-2.8 1.4.1 2.9.5 4.1 1.3.6.4 1.1.8 1.5 1.3.2.2.6.6.7.9.1.4-.3.9-.5 1.3-3.3 6-10.8 9.8-11 17.3 0 1 .1 2 .2 3 0 .2.9 0 .9-.1-.7-4 .4-7.6 2.9-10.8 2.3-2.9 5.1-5.2 7.1-8.3.3-.4.5-.8.7-1.2.1-.3.6-.9.6-1.2 0-.5-1-1.3-1.3-1.5-1-.9-2.3-1.6-3.6-1.9-2.5-.7-5.4-.4-7.8.6-2.3 1-4.5 2.9-4.9 5.5-.6 3.6 2.1 7.1 4.9 8.9.8.5 1.7 1.1 2.4 1.8.8.9 1.2 1.9 1.5 3 .6 2.3.9 4.8 1.5 7.1.7 2.8 1.7 5.5 2.5 8.3.8 2.9 1.6 5.8 2.2 8.8.7 2.9 1.3 5.7 1.8 8.7.4 2.5.2 5.1.3 7.6 0 2.3 0 5 1.1 7 .9 1.6 2.4 3 3.6 4.3.6.6 1.2 1.2 1.7 1.9.5.1 1.2-.2 1.2-.1z"/><path d="M473.9 80.7c0-4.8.2-9.6.8-14.3.7-4.9 1.9-9.8 4.5-14 1.4-2.3 3.3-4.3 5.6-5.7v-.1c-1.8-3.7-4-7.3-4.9-11.4-.4-1.8-.6-3.9.3-5.6 1-2 3.1-3 5.1-3.5 6.8-1.5 9.8 7.8 8.2 13-.5 1.5-1.4 2.9-2.7 3.8-1.7 1.1-3.7 1.2-5.6.9-.2 0 .4.4.6.5 2.4.4 5 0 6.8-1.8 1.6-1.7 2.2-4.1 2.1-6.3-.1-4.4-2.5-9.4-7.1-10.5-2.6-.6-5.9.4-7.6 2.5-1.9 2.4-1.3 5.8-.5 8.4 1 3.2 2.7 6.1 4.1 9 .2.4.3.5-.1.8-.4.3-.8.5-1.2.8-.7.6-1.4 1.2-2.1 1.9-1.3 1.4-2.3 3-3.2 4.7-3.6 7.2-4.1 15.7-4.2 23.7v2.7c.3.3 1.1.5 1.1.5zM373.4 545.2c-5.4-5-12.6-6.5-19.6-7.9-7.7-1.5-15.3-4.2-23.1-4.9-2.6-.3-5.2-.3-7.7-.9-1.8-.5-3.2-1.5-4.4-2.9-2.1-2.4-3.7-5.2-5.7-7.6-2.1-2.5-4.6-4.5-7.6-5.9-1.2-.6-2.5-1-3.8-1.3-.9-.2-1.9-.3-2.7-.6-2-.8-1.3-4.7-1.1-6.3.1-.5-1.6-1.1-1.7-.7-.6 3.3.5 6.3 3.6 7.8.9.4 1.3.5 2.1-.1.5-.4 1-.9 1.1-1.5.4-1.6-1.2-2.9-2.3-3.8-.4-.3-2-.6-1.1.2.8.6 1.8 1.5 1.7 2.6-.1 1-.9 1.6-1.7 2 .3 0 .6.1.9.1-2.6-1.1-3.1-4.2-2.7-6.7-.6-.2-1.1-.5-1.7-.7-.3 2-.8 4.9.8 6.5 1.2 1.3 3.2 1.6 4.9 1.9 2.8.6 5.4 1.9 7.6 3.8 2.6 2.3 4.3 5.4 6.4 8.1 1.4 1.8 2.9 3.5 4.8 4.6 1.8 1 3.8 1.5 5.9 1.7 3.3.4 6.6.6 9.9 1.2 4.1.8 8 1.9 12 2.9 8.1 2 17.4 2.3 23.9 8.3.3.3.8.5 1.2.5.2 0 .4-.1.1-.4zM312.9 529.7c-2.8-2.6-6.2-4.4-9.7-6.1-3.3-1.6-6.8-3-10.4-3.6-2.3-.4-4.6-.3-6.3-2.1-2.7-2.9-3.8-6.9-5-10.5-1.3-3.7-3.3-7-6.7-9.1-2.3-1.4-5-2-7.7-1.4-2.1.5-4.4 1.5-5.4 3.5-1.1 1.9-.5 4.1 1 5.7 1.3 1.4 3.1 2.5 4.8 3 2.3.7 4.8.4 7 1.4 2.1 1 3.6 2.9 4.8 4.8 1.2 1.8 2.3 3.7 3.5 5.4.3-.2.5-.3.8-.5-2 .7-4.3.8-6.4.7-2.2 0-4.4-.2-6.6-.3-2-.1-4-.2-6 0-2.2.2-4.4.5-6.5.4-2.9-.1-6.6-1.1-7.8-4-.5-1.1-.7-2.3-1.1-3.5-.5-1.5-1.3-3.1-2.4-4.4-3.6-4.4-10.5-3.9-14.8-.8-1.9 1.3-3.1 3.5-2.5 5.8.3 1.1.8 2.3 1.8 3 .9.6 2 .9 3 1.2 6.4 1.3 12.9-.2 19.3-.2.4 0 .8-.2 1.2-.4.1-.1.6-.3.2-.3-5.7 0-11.3 1-17 .5-2.1-.2-4.8-.5-6-2.4-1.3-2.1-1.3-4.6.4-6.6 1.7-1.9 4.2-2.5 6.7-2.2 3 .3 5.4 1.9 6.9 4.4.8 1.3 1.4 2.7 1.8 4.2.3 1 .6 2.1 1.1 3 1.5 2.5 5.1 3.3 7.7 3.4 2.4.1 4.7-.3 7.1-.5 2.2-.2 4.4-.1 6.5.1 4.5.3 9.1.7 13.4-.8.1 0 .9-.3.8-.5-2-3-3.6-6.4-6.3-8.8-1.5-1.4-3.3-2-5.3-2.2-2-.3-3.9-.5-5.7-1.5-2.1-1.1-4.4-3.1-4.4-5.7 0-1.8 1.3-3.6 3-4.3 2.4-.9 5.3 0 7.4 1.3 3.3 2.1 5.3 5.4 6.5 8.9 1.2 3.6 2.2 7.3 4.7 10.2 1.5 1.7 3.2 2.1 5.4 2.4 3.7.5 7.1 1.7 10.5 3.2 3.8 1.7 7.7 3.7 10.9 6.6.4.5 1.7-.4 1.8-.4z"/><path d="M277.9 520.6c-2.6 3.6-4.2 7.8-6.7 11.4-1 1.4-2.4 3.2-4.3 3.5-1.9.3-3.8-.9-5.5-1.7-1.7-.9-3.6-1.9-5.5-1.8-1.9.1-3.6 1.3-4.5 2.8-1.9 3-1 7.2 1.6 9.5.7.6 1.6 1.1 2.5 1.3.5.1 1 .2 1.5.2.8 0 1.2-.5 1.7-1.1.8-.9 1.4-1.9 2.1-2.9.7-1 1.6-1.6 2.8-2 1-.4.8-1.8-.4-1.4-1.4.5-2.6 1.3-3.5 2.5-1 1.2-1.7 2.6-2.8 3.7.3-.1.6-.2.8-.3-3.1.1-5.2-2.5-5.6-5.4-.4-2.8 1.4-6 4.6-5.3 3.2.7 5.7 3.3 9.1 3.5 3.4.1 5.7-2.9 7.4-5.4 2.2-3.4 3.8-7.2 6.1-10.5.2-.3.1-.8-.3-1-.4-.2-.9.1-1.1.4zM303.1 544.5c-2.6 0-5.3-.5-7.9.1-1.3.3-2.5.8-3.5 1.7-.5.4-.9.9-1.3 1.4-.4.6-.4 1-.1 1.6 1 2.1 3.5 3 5.7 3.2 2.3.2 5.2-.2 6.8-2 .8-.9 1.1-2 1.8-2.9.4-.6.9-1 1.3-1.6.4-.5.6-1.1 1-1.6.6-1 1.3-1.7 2.4-2 1.1-.2 2.3-.1 3.4 0 2.6.2 5.3.4 7.9.4 3.7.1 7.5.3 11.1-.5 3.2-.7 5.7-2.5 7.9-4.9 2.1-2.4 4-5.1 6.5-7.1.3-.2.3-.7 0-.8-.4-.2-.9.1-1.2.3-3.4 2.7-5.4 6.7-8.8 9.4-4.3 3.4-10.7 2.6-15.8 2.4-2-.1-3.9-.2-5.8-.3-1.7-.1-3.7-.4-5.3.1-1.9.5-3 1.7-4 3.4-.5 1-1.3 1.7-1.9 2.6-.5.7-.8 1.5-1.3 2.3-1.1 1.8-3.7 2-5.6 1.7-2-.3-4.1-1.3-4.6-3.4 0 .2-.1.3-.1.5 2.5-3.8 7.2-2.6 11.1-2.5.7-.2 1.5-1.5.3-1.5zM446 500.4c4.1-1.5 7.3-5.1 10.2-8.2 1.6-1.8 3.1-3.5 4.8-5.2 1.7-1.8 3.6-3.3 5.5-4.8 4.2-3.3 9.1-6.2 12.6-10.3 1.3-1.6 2.2-3.4 2.6-5.4.3-1.9.2-3.8.6-5.7.8-4.2 3.7-7.7 7.5-9.6 1.8-.9 4-1.5 5.9-.9 2 .6 3.7 2.3 4.4 4.2 1.4 3.8-1.1 7.9-3.6 10.5-2.8 2.9-6.5 5.2-10.5 5.9-1.9.3-3.8.4-5.8.5-1.9.2-3.6.5-5.4 1.1-2 .6-3.9 1.3-5.9 1.8-1.8.5-3.7.9-5.5.6-.8-.1-1.5-.4-2.1-.9.1.3.3.5.4.8-.4-5.7 4.6-9.9 5.6-15.3.7-3.7-1.4-8.7-5.8-7.8-3.8.8-6.9 4.4-7.7 8.1-1.4 6.2 2.7 11.2 4.9 16.6 1.1 2.7 1.9 5.7 1.1 8.6-.8 2.9-2.9 5.3-4.7 7.6-.3.4.3 1.2.7 1.4 2.8.8 5.8.1 8.7 0 2.4-.1 5.1-.1 6.6 2 1.4 2 2.2 4.5 2.9 6.8.7 2.2 1.2 4.6 1.4 6.9.2 2.7-.5 5.7-2.2 7.9-.8 1-1.9 1.8-3.1 2-1.5.2-2.9-.6-3.9-1.6-1.6-1.6-3.1-3.9-3-6.3.1-1.9 1.3-3.6 2.5-5 1.6-1.8 3.5-3.2 5.4-4.8 1.7-1.4 3.4-2.8 4.6-4.6.2-.3 0-.7-.2-1-.7-1-1.5-2-2.2-3-.6-.9-1.6-.2-.9.7.7 1 1.5 2 2.2 3-.1-.3-.1-.6-.2-1-1.2 1.8-2.9 3.2-4.5 4.5-1.9 1.5-3.8 3-5.4 4.8-1.4 1.6-2.6 3.4-2.8 5.6-.2 2.6 1.2 5.1 2.8 7 2 2.3 4.9 4.2 7.9 2.6 2.7-1.5 4.1-4.9 4.4-7.8.3-2.5-.2-5-.8-7.4-.7-2.8-1.6-5.6-2.9-8.2-.6-1.1-1.3-2.3-2.2-3.1-1.1-1-2.6-1.5-4.1-1.7-3.7-.4-7.6 1.1-11.2.1.2.5.5.9.7 1.4 2-2.6 4.3-5.4 5-8.7.7-3.5-.6-7.1-2.1-10.3-1.6-3.5-4-6.8-4.4-10.7-.3-3.3.8-6.4 3.2-8.6 1.4-1.3 4-3.1 6.1-2.1 1 .5 1.4 1.7 1.6 2.7.3 1.7-.1 3.3-.8 4.8-1.4 3.4-3.6 6.4-4.5 9.9-.2.8-.3 1.6-.3 2.4 0 1 .1 1.5.9 2.1 1.1.8 2.5 1.2 3.9 1.2 3.3 0 6.5-1.2 9.5-2.2 1.4-.4 2.8-.9 4.2-1.2 1.7-.3 3.5-.3 5.3-.5 3.2-.2 6.1-1 8.9-2.7 2.9-1.8 5.4-4 7.2-6.9 1.6-2.6 2.3-5.8 1.2-8.8-1.2-3.1-4.3-5.8-7.7-5.8-3.4-.1-6.6 1.9-8.9 4.2-2.5 2.5-3.8 5.5-4.1 9-.1 1.6-.1 3.2-.5 4.7-.4 1.9-1.4 3.5-2.7 4.8-3.1 3.2-6.9 5.8-10.4 8.5-3.3 2.5-6.3 5.1-9.1 8.2-2.6 2.9-5.2 6-8.2 8.5-1.3 1.1-2.7 2-4.3 2.6-1 .2 0 1.8.7 1.5z"/><path d="M466.8 491.3c7.8 0 15.6 1.3 23.3.3 3.8-.5 7.2-2.1 10.5-3.9 2.9-1.6 5.6-3.1 8.7-4.4 2.9-1.2 6.4-2.4 8.7-4.8.2-.2.3-.5.2-.8-1.3-3.2-4.2-8.3-1.3-11.4 2.4-2.6 6.7-1.9 9.2.2 2.1 1.7 3.4 5.5 1.9 8-1.3 2.1-4.2 2.7-6.5 2.9-3.1.3-6.1.1-9.2.1-1.1 0-1.1 1.6 0 1.6 3.1 0 6.3.2 9.4-.1 2.8-.3 6.3-1 7.8-3.7 1.8-3 .6-7.4-1.9-9.7-2.8-2.6-7.6-3.6-10.9-1.4-5 3.3-2 9.5-.2 13.8.1-.3.2-.5.2-.8-1.9 2-4.8 3.1-7.3 4.1-2.9 1.2-5.6 2.5-8.3 4-3.2 1.8-6.5 3.7-10.1 4.3-3.7.7-7.6.6-11.4.4-4.3-.2-8.6-.6-12.9-.6-1 .3-1 1.9.1 1.9z"/><path d="M490.2 487.4c-.3 1.9-.5 4 .6 5.6.8 1.2 2.1 1.9 3.4 2.5 1.5.8 3 1.6 4 2.9 1.6 2 1.8 4.6 1.6 7-.2 3-.8 6-.1 9 .1.2.7.3.9.3 3.2.2 6.6-.9 8.1-3.9 1.3-2.6.6-5.6-1.9-7.1-2-1.2-4.6-1.4-6.8-1.3-.2 0-.7 0-.6.2 0 .2 1 .2 1.1.2 2.9-.1 6.3.8 7.1 4 .6 2.3-.6 4.8-2.5 6.2-1.2.9-2.8 1.4-4.4 1.3l.9.3c-.6-2.6-.2-5.3 0-7.9.2-2.4.3-5.1-1-7.3-.9-1.5-2.3-2.6-3.8-3.4-1.3-.7-2.7-1.3-3.8-2.3-1.6-1.6-1.4-4.1-1.1-6.2.1-.2-1.6-.4-1.7-.1zM443.1 505.4c-1.9-1.7-2.7-3.8-2.7-6.3 0-2.3.3-4.6.1-6.9-.6-6-2.6-11.8-3.6-17.7-.8-4.8-1.7-9.6-3.6-14.1-1.5-3.6-4.2-6.6-6.9-9.4-1.7-1.7-3.5-3.3-5.5-4.6-1.6-1-3.5-1.9-5.4-1.8-.2 0-.5.1-.6.3-1.7 4.6-.4 9.3 1.8 13.5 1.1 2.2 2.4 4.2 3.5 6.4 1.2 2.2 2.2 4.5 3 6.8 1.8 4.8 3.4 9.8 6.4 14.1 1.3 1.8 2.8 3.4 4 5.2 1.5 2.2 2.2 4.6 2.1 7.2-.1 1.5-.3 3-.4 4.6 0 1.4.2 2.8.6 4.2.8 2.7 2.3 5.1 2.7 7.9.1.7 1.9 1.1 1.7.3-.3-2.4-1.5-4.5-2.3-6.8-.5-1.2-.8-2.4-1-3.6-.1-1.4 0-2.7.1-4.1.3-2.6.3-5-.8-7.4-.9-2-2.3-3.8-3.7-5.5-1.5-1.9-2.8-3.8-3.9-6-1.2-2.4-2.1-4.8-3-7.3-.9-2.4-1.7-4.7-2.8-7-1-2.2-2.3-4.3-3.5-6.5-2.6-4.7-5-9.9-3-15.3l-.6.3c1.6-.1 3.1.8 4.3 1.6 1.7 1.2 3.3 2.6 4.8 4 2.7 2.7 5.3 5.7 6.7 9.3 1.8 4.5 2.6 9.3 3.5 14 1 5.8 3 11.4 3.5 17.2.2 2.5-.2 5-.1 7.5.2 2.6 1.3 4.8 3.3 6.5.7.5 2.2.2 1.3-.6zM452.1 609.7c5.1-4.6 6.4-11.4 9.7-17.1 2.6-4.4 6-8.5 9.7-11.9 1.7-1.6 3.7-3.2 6-3.9 2.3-.7 5.2.2 5.3 3 .1 1.4-.5 2.9-1.7 3.8-1.2.9-2.6 1.4-3.9 2-2.4 1.2-4.3 3.2-6.1 5.1-3.7 3.9-9.1 10.7-15.3 8 .1.4.3.8.4 1.2 1.2-3.7 4.2-6.4 6.2-9.6 1.1-1.7 1.8-3.6 2-5.6.3-2.3-.1-4.7-.2-7-.1-3.1.5-6.3 1.3-9.3.8-3.2 2-6.3 3.7-9.1 1.6-2.7 3.9-5.3 7.1-6.2-.2 0-.4-.1-.6-.1 1.2.5 2.4 1.2 2.5 2.6.1 1.3-.7 2.7-1.4 3.7-2 2.9-4.7 5.3-7.5 7.4-1 .8-2 1.5-3.1 2.1-.9.5.1 2 1 1.5 1.3-.7 2.5-1.6 3.6-2.5 1.8-1.4 3.5-2.9 5-4.5 2.3-2.5 5.8-6.9 3-10.2-.6-.7-1.7-1.5-2.6-1.7-.6-.1-1.2.3-1.7.5-.6.3-1.2.6-1.8 1-2.2 1.6-3.9 3.8-5.2 6.2-2.7 4.9-4.4 10.7-4.7 16.3-.2 2.4.2 4.8.2 7.2 0 2.4-.6 4.6-1.8 6.6-2.1 3.4-5.1 6.1-6.4 10-.1.4 0 1 .4 1.2 6.1 2.6 11.2-2 15.2-6.1 2-2 3.8-4.5 6.2-6.1 2.5-1.7 6.2-2.2 7.4-5.4 1.1-2.8.3-6.2-2.7-7.4-2.5-1-4.9-.3-7.1 1.1-2.5 1.5-4.7 3.6-6.7 5.8-2 2.1-3.8 4.4-5.5 6.8-1.9 2.7-3.2 5.5-4.5 8.5-1.6 3.9-3.3 7.9-6.5 10.8-.6.4.4 1.9 1.1 1.3zM416.1 699.7c0-5.5-1.8-11.4-5.9-15.2-2-1.9-4.8-3.4-7.6-3.5-1.8-.1-3.6.4-5.4.6-1.5.2-2.8 0-4.2-.6-2.1-.9-4.2-2.4-6.5-2.5-1.1 0-2.2.2-3.1.9-.4.3-.7.7-1 1.1-.4.6-.6 1.2-.3 1.9 1.2 2.7 3.7 4.7 6.2 6.2 2.6 1.5 5.5 2.4 8.4 2.9 2.3.4 4.8.2 7 .8 3 .8 5.4 3.1 7.7 5.1.3.3 1.9-.4 1.6-.7-2-1.8-4.1-3.7-6.6-4.7-1.6-.6-3.3-.8-4.9-.9-5.5-.4-11-1.9-15.1-5.8-1-.9-2-2.1-2.5-3.4-.3-.8.4-2.5 1.3-2.6 1-.1 2.2.5 3.1.9 1 .5 2 1 3.1 1.5 1 .5 2 .8 3.1.8 1.7.1 3.3-.3 5-.6 3-.4 5.8.6 8.2 2.4 4.7 3.7 6.8 10.2 6.8 16-.2.2 1.6-.1 1.6-.6z"/></svg>