<svg version="1.1" id="Layer_1" xmlns="http://www.w3.org/2000/svg" xmlns:xlink="http://www.w3.org/1999/xlink" x="0" y="0" viewBox="0 0 626.6 831" style="enable-background:new 0 0 626.6 831" xml:space="preserve"><style>.st0{fill:#fff;stroke-linecap:round;stroke-linejoin:round}.st0,.st1,.st2{stroke:#000;stroke-miterlimit:10}.st2{fill:none;stroke-linecap:round;stroke-linejoin:round;stroke-dasharray:2,3}.st4{fill:#767676}.st6{fill:none;stroke:#000;stroke-miterlimit:10}.st7{fill:#ffeef7}.st10,.st9{fill:#fff;stroke:#000;stroke-miterlimit:10}.st10{fill:none;stroke:#b3d8e3}.st11{fill:#fff}.st12,.st14{fill:#767676;stroke:#000;stroke-miterlimit:10}.st14{fill:none;stroke:#fff;stroke-linecap:round;stroke-linejoin:round}</style><path class="st0" d="M115.6 485.1c4.9-.6 9.7-2.1 14.1-4.4.7-.4 1.4-.7 2.1-1.1-.3-.2-.7-.5-1-.7-12.2-9.1-8.9-26.7-8.9-26.7l-20.4-.2-1.3.2s3.3 17.6-8.9 26.7c-.3.2-.6.5-1 .7 4.6 3.7 12.8 6.9 25.3 5.5z"/><path class="st1" d="M168.1 511.5c-9.7-25-24.4-23.7-36.4-31.9-.7.4-1.4.8-2.1 1.1-4.4 2.2-9.2 3.8-14.1 4.4-12.5 1.4-20.6-1.8-25.3-5.6-.2.1-.3.2-.5.3l.5 31.6h77.9z"/><path class="st0" d="m75.6 486.9-1.9 13.3 4.2 11.3h12.4l-.5-31.6c-4.5 3-9.4 4.7-14.2 7z"/><path class="st0" d="M75.6 486.9c-7.9 3.8-15.8 9.2-21.7 24.6H78l-4.2-11.3c-.1 0 .9-7 1.8-13.3z"/><path d="M86.1 499.2c0 1.9-1.5 3.4-3.4 3.4s-3.4-1.5-3.4-3.4 1.5-3.4 3.4-3.4 3.4 1.5 3.4 3.4z"/><path class="st2" d="M63.3 495.9c3.5 5.4 2.9 12.1 3.5 15.6"/><path class="st0" d="m146.4 486.9 1.9 13.3-4.2 11.3h-12.4 0l.5-31.6c4.5 3 9.3 4.7 14.2 7z"/><path class="st0" d="M146.4 486.9c7.9 3.8 15.8 9.2 21.7 24.6H144l4.2-11.3c.1 0-.9-7-1.8-13.3z"/><path class="st2" d="M158.7 495.9c-3.5 5.4-2.9 12.1-3.5 15.6"/><path style="fill:none;stroke:#000;stroke-linecap:round;stroke-linejoin:round;stroke-miterlimit:10" d="m144.1 499.2-6.7-.7"/><path class="st0" d="M161 419.8c-.3-3.5-1.7-6.4-5.8-5.5-.8.2-1.6.7-2.5 1.3.5-2.9.9-5.8 1.2-8.7 2.6-28.8-4.5-58.1-41.7-58.1h-.9c-37.2 0-44.3 29.3-41.7 58.1.3 2.9.7 5.8 1.2 8.7-.9-.6-1.7-1.1-2.5-1.3-4.1-.9-5.5 2-5.8 5.5-.5 6.3 3.7 12.2 9.7 15.3 1 .5 3.1 1.1 5.3 1.3 6.9 13.4 18.1 22.4 34.2 21.6 16 .8 27.3-8.2 34.2-21.6 2.2-.3 4.3-.8 5.3-1.3 6.1-3.2 10.3-9 9.8-15.3z"/><path d="M112.5 412.1c.4.5.8.9 1.3 1.3s1 .6 1.5.9c.6.3 1.1.6 1.6 1 .1.1.3.2.4.4l.3.6c.1.4.1.8 0 1.2-.4 1.4-1.4 2.3-2.5 3.1-.5.4-1.1.7-1.7.9-.6.2-1.2.4-1.9.3.6-.1 1.2-.4 1.7-.7.5-.3 1-.7 1.4-1.1.9-.8 1.7-1.7 2-2.7.1-.5.1-.8-.3-1.2-.4-.4-.9-.7-1.4-1.1-.5-.3-1-.7-1.5-1.2-.4-.5-.7-1.1-.9-1.7zM80.7 391c.8-1.4 1.9-2.5 3.1-3.6 1.2-1 2.7-1.8 4.3-2.3 1.6-.4 3.1-.6 4.7-.6s3.1.1 4.7.7c-1.5.5-3 .9-4.4 1.2-1.4.4-2.9.7-4.2 1.1-1.3.4-2.6.9-3.9 1.5-1.4.7-2.8 1.4-4.3 2zM121.9 429.5c-11.6 9.5-20 0-20 0h20zM142.8 391c-1.5-.6-2.8-1.3-4.2-1.9-1.3-.6-2.6-1.1-3.9-1.5-1.3-.4-2.8-.7-4.2-1.1-1.5-.4-2.9-.8-4.4-1.2 1.5-.6 3.1-.7 4.7-.7s3.1.2 4.7.6c1.6.5 3.1 1.2 4.3 2.3 1.1 1 2.1 2.1 3 3.5zM67.2 421.3c1 .2 1.9.8 2.7 1.5.8.7 1.5 1.5 2.1 2.3.6.9 1.1 1.8 1.5 2.7.4 1 .7 1.9 1 2.9-.7-.8-1.2-1.7-1.7-2.5-.5-.9-1-1.7-1.6-2.5l-1.8-2.4c-.7-.7-1.3-1.5-2.2-2zM156.3 421.3c-.9.6-1.5 1.3-2.2 2.1-.6.8-1.2 1.5-1.8 2.4-.6.8-1.1 1.6-1.6 2.5-.5.9-1 1.8-1.7 2.5.3-1 .6-1.9 1-2.9.4-.9.9-1.9 1.5-2.7.6-.8 1.3-1.6 2.1-2.3.7-.8 1.6-1.4 2.7-1.6zM141.2 407.8c-1.2.5-2.5.9-3.7 1.2-1.2.3-2.5.5-3.8.7-1.3.2-2.5.3-3.8.4-1.3.1-2.6.1-3.9-.1 1.2-.5 2.5-.9 3.7-1.2 1.2-.3 2.5-.5 3.8-.7 1.3-.2 2.5-.3 3.8-.4 1.3 0 2.6 0 3.9.1zM82.3 407.8c1.3-.1 2.6-.1 3.9-.1 1.3.1 2.6.2 3.8.4 1.3.2 2.5.4 3.8.7 1.2.3 2.5.7 3.7 1.2-1.3.1-2.6.1-3.9.1-1.3-.1-2.6-.2-3.8-.4-1.3-.2-2.5-.4-3.8-.7-1.2-.3-2.5-.7-3.7-1.2z"/><path d="M166.1 369.7c-.1-.2-.1-.4-.2-.6-.3-2.2-.7-4.5-1.2-6.6-2.6-12.1-10.9-19.6-21.5-24.5-11.3-5.2-26.1-8.6-38.6-7.7-6.7.5-9.9 3.3-9.8 8-.4-.1-.8-.1-1.2-.1-3.3-2.3-10.2-4.5-13.2-.8 1.6.5 3.8-.3 5.3.9-3.2-.1-5.9 2.1-8.4 3.8-4.6 3-8.9 5.8-12.4 10.1-5.8 7.2-8.3 17.3-6.2 26.3.3-1.5.8-2.9 1.7-4-.6 2.3-.8 3.1-1.2 5.2-.6 3.8-.8 9.2-.5 13.1.5 5.2 2.7 14.7 5.8 18.9.2-1.9-.6-3.6-.5-5.5 0 4.5 6.2 11 9.6 13.6-1-3.4-.5-9.5-.5-14.3.7-6.9.7-12.9 1.2-17.4.3-2.8 1.3-6.2 2.5-9.6 0 2.3 0 4.6-.1 6.8 1.6-2.4 4.6-7 6.4-9.6 1.8-2.6 3.3-6.4 4.3-9.4.1 2.1-.3 4.2-1.1 6.1 3.4-1.2 6.2-5.1 8.4-8.4 1.6-2.4 2.1-5.8 2.8-8.6 12.7-3 28.8.9 39.2 5.4 4.1 1.7 8.3 4.1 10 8.2.2.4.3.7.4 1.1 0 1.7-.1 3.6-.4 5.7 5.7 3.9 3.8 41.4 3.4 42.7.1-.3.6 1.3 2.7-2.5.7-1.2 1.3-1.2 2-2.3 1.6-1.8 3.4-3.5 4.3-5.1 1.2-2 2.2-4.3 3-6.7.4-.7.7-1.4 1-2.2.2 2 .5 4.1-.1 6 5-5.4 4.9-16.7 4.7-23.2.3 1.7.7 3.5 1.2 5.2 1.2-6.1-.8-12.1-2.8-18z"/><path class="st4" d="M93.7 338.3c-.5-.6-.3-3.4.2-4.5 1-2.7 4.2-4.4 6.5-5.7 2.8-1.6 6-2.8 9.1-3.3 2.6-.4 5 .5 7.5.9 5.8.9 12.3 2.6 18.2 1.9 3.3-.4 6.3-1.5 8.8-3.6 1.1-.9 3.6-2.6 3.6-4 0 2.6.2 4.9-1 7.3-1.4 2.7-3.5 3.3-5.5 5.3 3.3-.5 5.4-2.4 8.9-.9 2.3 1 3.1 1.8 4.7 3.1.1 0 0 .1-.1.1-2.3-1.1-4.4.2-7.3.1 5.2.8 11.7 3.8 15.2 8 3.1 3.7 5.8 10.6 5.3 15.3-1-2-5.1-4.6-6.6-6.4 5.1 6 3.4 17.1 1.5 23.8.3-2.8-1.9-9.6-3.6-12.1.1 1.3.6 2.5.7 3.9.1 3.1-1 6.6-2.1 9.4-1.4 3.4-3.6 6.7-6.5 8.8 1.4-4.6 1.2-12-1.3-16 .1 2.9-1.3 8.6-4.1 10.1-.7-3.4.7-6.7-2.2-9.4-1.5-1.5-8.1-4.6-10.1-5.2 1.8 2.2 6.6 5.6 8.4 7.8-1.6 1.6-3.5 2.1-5.6 2.4-4.9.8-10.1 0-14.7-1.8-4.8-1.8-9-4.9-12.6-8.5-1.3-1.3-2.4-2.9-3.7-4.1.5 5.1 5.9 7.9 9.3 10.7-3.1.6-5.9-.1-7.7-1.1-3.5-2-8-5.4-9.8-9.2-1.9-3.9-1.8-9.8 1-13.3.4-.5 1.9-1.4 2.1-1.9.7-1.5-.8-2.6-6.5-7.9z"/><path d="M94.2 338.2c-.3-.5-.3-1.4-.2-1.9 0-.8.1-1.6.4-2.4.6-1.8 2.1-3 3.6-4.1 1.8-1.2 3.7-2.3 5.7-3.2 2.2-1 4.8-1.9 7.2-1.8 1.3 0 2.5.3 3.7.6 1.2.2 2.3.4 3.5.6 2.4.4 4.7.9 7.1 1.2 4.5.7 9.2 1.1 13.6-.2 2.2-.7 4.2-1.8 5.9-3.2.8-.6 1.5-1.2 2.2-1.9.6-.6 1.2-1.3 1.3-2.1-.3 0-.7.1-1 .1 0 2.7.1 5.5-1.4 7.8-1.3 2-3.5 3-5.1 4.6-.2.2.4.3.5.2 1.2-.2 2.3-.5 3.4-.9 1.2-.4 2.4-.7 3.6-.5 1.3.2 2.5.8 3.6 1.5l1.2.9c.2.2.4.3.6.5.2.1.6.4.7.6.1-.1.2-.2.3-.2h-.1.6c-2.5-1.1-5 .1-7.6.1-.3 0-1 .3-.3.4 4.4.7 8.8 2.6 12.3 5.4 3.4 2.7 5.6 6.6 6.9 10.7.7 2.2 1.2 4.7 1 7 .3-.1.6-.1 1-.2-.7-1.3-2-2.3-3.1-3.3-1.2-1-2.4-1.9-3.4-3.1-.2-.2-1.1 0-.9.2 2.1 2.4 2.9 5.6 3.2 8.7.3 3.3 0 6.7-.6 9.9-.3 1.7-.7 3.4-1.2 5 .3 0 .7 0 1-.1.2-2.1-.5-4.3-1.1-6.2-.6-2-1.4-4.1-2.6-5.9-.1-.2-1-.1-1 .2.1 1.1.5 2.1.6 3.2.1 1 .1 2.1 0 3.1-.3 2.2-.9 4.3-1.7 6.3-1.4 3.6-3.5 7.1-6.7 9.4h.9c.8-2.7 1-5.5.8-8.3-.2-2.7-.7-5.5-2.1-7.8-.1-.2-1-.1-1 .2 0 1.8-.3 3.7-.9 5.5-.6 1.7-1.4 3.6-3 4.5h.9c-.6-3.3.5-7-2.3-9.5-.8-.7-1.8-1.3-2.7-1.8-1.3-.7-2.6-1.4-3.9-2-1.1-.5-2.3-1.1-3.5-1.4-.1 0-1 0-.8.3 2.4 3 5.9 4.9 8.4 7.8v-.2c-1.9 1.8-4.5 2.3-7.1 2.5-2.9.2-5.8-.1-8.5-.8-5.2-1.3-9.9-4-14-7.5-1.1-.9-2.1-1.9-3-2.9-1-1.1-1.9-2.3-3-3.3-.2-.1-1-.2-1 .2.6 5.2 5.7 7.8 9.4 10.8l.3-.3c-2.1.4-4.3.2-6.2-.6-1.6-.7-3.2-1.8-4.6-2.9-2.9-2.2-5.7-5-6.8-8.6-.9-3.3-.8-7.2.9-10.2.4-.7.8-1.2 1.5-1.7.5-.4 1.2-.8 1.4-1.4.2-.5.1-.9-.1-1.4-.4-.9-1.2-1.6-1.9-2.3-1.8-1.1-3.3-2.5-4.8-3.9-.2-.2-1.1.1-.9.2 1.4 1.3 2.9 2.6 4.3 3.9.7.7 1.5 1.4 2.1 2.3.3.4.5 1 .2 1.5-.3.7-1.1 1.1-1.6 1.5-.6.5-1 1.1-1.4 1.8-1.7 3.1-1.8 7.1-.7 10.4 1.1 3.6 4 6.3 6.9 8.5 1.6 1.2 3.3 2.4 5.2 3.1 2.1.8 4.4.8 6.6.4.1 0 .5-.2.3-.3-3.6-2.9-8.7-5.5-9.3-10.7-.3.1-.6.1-1 .2 1.1.9 1.9 2.1 2.9 3.1.9 1.1 2 2 3 3 2.1 1.8 4.4 3.5 6.8 4.8 5.1 2.8 11 4.2 16.8 3.8 2.8-.2 5.9-.8 8-2.8 0 0 .1-.1 0-.2-2.5-2.9-6-4.8-8.4-7.8-.3.1-.5.2-.8.3 2.3.7 4.6 1.9 6.7 3.1 1 .6 2.1 1.1 3 1.8 1.2 1 1.9 2.4 2.1 3.9.2 1.9 0 3.8.3 5.7.1.3.7.1.9 0 1.7-.9 2.6-2.8 3.2-4.5.6-1.8 1.1-3.8 1-5.7-.3.1-.6.1-1 .2 1.4 2.3 1.9 5.1 2 7.7.2 2.7 0 5.5-.8 8.1-.1.4.8.1.9 0 3.2-2.3 5.4-5.9 6.8-9.5.8-2 1.4-4 1.7-6.1.2-1.1.2-2.1.1-3.2-.1-1.2-.5-2.3-.6-3.4-.3.1-.6.1-1 .2 1.2 1.8 1.9 3.9 2.6 6 .6 1.9 1.2 4.1 1 6.1 0 .2.9.2 1-.1.9-3 1.5-6.1 1.8-9.3.3-3.3.2-6.8-.8-10-.5-1.7-1.3-3.2-2.4-4.6-.3.1-.6.1-.9.2 1 1.2 2.3 2.1 3.4 3.1s2.4 2 3.1 3.3c.1.2.9.1 1-.2.2-2.2-.2-4.4-.8-6.5-.6-2.2-1.6-4.3-2.7-6.3-2.3-3.9-5.9-6.6-10-8.5-2.3-1-4.7-1.8-7.2-2.2-.1.1-.2.3-.3.4 1.4 0 2.7-.3 4.1-.5.6-.1 1.3-.1 1.9 0 .6.1 1 .5 1.6.3.1 0 .4-.1.3-.2 0-.2-.4-.4-.5-.5-.2-.2-.5-.4-.7-.6-.4-.3-.8-.7-1.3-1-1.1-.8-2.5-1.4-3.8-1.7-2.8-.5-5.2.9-7.8 1.4.2.1.3.2.5.2 1.7-1.6 3.9-2.6 5.2-4.7 1.5-2.4 1.4-5.2 1.4-8 0-.3-1-.2-1 .1-.1.9-.8 1.6-1.4 2.1-.6.6-1.3 1.1-2 1.7-1.8 1.5-3.7 2.5-5.9 3.1-4.6 1.2-9.6.5-14.2-.3-2.4-.4-4.9-.8-7.3-1.3-2.3-.4-4.6-1.1-7-.7-4.4.6-8.5 2.6-12.1 5-1.6 1.1-3.4 2.5-4 4.4-.3.8-.4 1.7-.4 2.5 0 .6-.1 1.5.3 2.1.2.4 1.1.2 1-.1z"/><path class="st0" d="M355.7 491.2c-7.6-5.5-15.8-7-22.9-12.3-12.2-9.1-8.9-26.7-8.9-26.7l-20.4-.2-1.3.2s3.3 17.6-8.9 26.7c-6.2 4.6-13.2 6.3-19.9 10.3 3.9 3.3 14.5 9.2 39.4 9.2 29.9-.1 38.1-2.6 42.9-7.2z"/><path d="M362.9 498.1c-2.3-2.9-4.7-5.1-7.1-6.9-4.9 4.7-13 7.2-42.9 7.2-24.9 0-35.5-6-39.4-9.2-3.1 1.9-6.2 4.2-9.1 7.6-3 3.6-5.9 8.3-8.4 14.7H370.3c-2.3-5.7-4.8-10-7.4-13.4z" style="fill:#767676;stroke:#000;stroke-linecap:round;stroke-linejoin:round;stroke-miterlimit:10"/><path class="st0" d="M274.8 511.5s-.6-10.1 1-10.4c1.6-.3 5.1 0 5.1 0h67.8s1-.3 1.6 1.4c.7 1.7 0 9 0 9h-75.5z"/><path class="st0" d="M288.5 482.4s.6 21.9 0 21.8c-.6-.1-7.6 0-7.6 0v-18.7l7.6-3.1z"/><circle class="st0" cx="285.2" cy="500.2" r="1.8"/><path class="st0" d="M338.2 482.4s-.6 21.9 0 21.8c.6-.1 7.6 0 7.6 0v-18.7l-7.6-3.1z"/><circle class="st0" cx="341.5" cy="500.2" r="1.8"/><path class="st6" d="M297.2 474.2h31.3"/><path d="M315.7 477.8c0 1.4-1.1 2.5-2.5 2.5s-2.5-1.1-2.5-2.5 1.1-2.5 2.5-2.5 2.5 1.1 2.5 2.5zM361.6 429.7c6.2-7.7 7-16.2 6.7-26.1-.3-10.7-1.3-21.2-3.1-31.7-1.1-6.5-6.2-17.4-11.7-21.9-4.7-3.8-12.4-7.8-18.3-9.1-3.6-.8-6.5-1.3-9.4-1.7-5.2-1.2-19.8-1.1-26.5.1-2.7.4-5.5.9-8.9 1.7-5.9 1.3-13.6 5.3-18.3 9.1-5.5 4.5-10.6 15.3-11.7 21.9-4.1 24.1-7.8 51.3 13 68.8 8.6 7.2 19.5 11.4 30.7 12.5 21 2.1 42.7-6.7 56.6-22.6.4-.3.6-.7.9-1z"/><path d="M285.3 439.8c-1.8-1.6-3.8-3.1-6.1-3.6-3.1-.7-7.8 1.5-10.1 3.5-2.5 2.3-4 5.9-4.7 9.1-.9 3.6-.5 6.7 1.7 9.7 2.1 2.9 4.4 4.8 5.1 8.5.6 3.3-.9 5.4-2.6 8.1-1.9 2.9-3.3 5.7-3.6 9.3-.5 5.8 1.1 11.4 5.2 15.6-.1-.1-.1-.2-.1-.3 2 3.2 4.8 5.4 7.9 7.4 0-1.3-.2-2.9-.2-4.3.4 2 1.9 3.9 2.6 5.9 3.1-8.6 14.8-16.6 13.1-26.4-.4-2.2-.8-4.7.3-6.6 1.2 2.3 1.6 4.9 1.1 7.4 2-4 2.8-8.5 1.8-12.8-.6-2.4-1.7-4.6-2.5-6.9-1.3-4.2-.2-8.5-1.4-12.5-1.4-4.4-4.2-8.1-7.5-11.1z"/><path class="st0" d="M362.3 419.8c-.3-3.5-1.7-6.4-5.8-5.5-.8.2-1.6.7-2.5 1.3.5-2.9.9-5.8 1.2-8.7 2.6-28.8-4.5-58.1-41.7-58.1h-.9c-37.2 0-44.3 29.3-41.7 58.1.3 2.9.7 5.8 1.2 8.7-.9-.6-1.7-1.1-2.5-1.3-4.1-.9-5.5 2-5.8 5.5-.5 6.3 3.7 12.2 9.7 15.3 1 .5 3.1 1.1 5.3 1.3 6.9 13.4 18.1 22.4 34.2 21.6 16 .8 27.3-8.2 34.2-21.6 2.2-.3 4.3-.8 5.3-1.3 6.1-3.2 10.3-9 9.8-15.3z"/><path d="M312.9 421.8c1.8-.2 3.3-1.4 4.2-2.8.9-1.4.9-3.3-.1-4.5-.5-.6-1.2-.9-2.1-1.2-.8-.3-1.8-.5-2.6-1.2s-1.2-1.7-1.2-2.6c-.1-.5 0-.9 0-1.4.1-.5.1-.9.2-1.3 0 .5 0 .9.1 1.4.1.4.1.9.2 1.3.2.9.6 1.6 1.2 2.1s1.5.7 2.4.9c.9.3 1.9.6 2.6 1.4.7.8 1 1.8.9 2.8 0 1-.4 2-.9 2.7-1.2 1.6-3.1 2.6-4.9 2.4zM282.1 391c.9-1.3 2-2.4 3.2-3.4 1.2-1 2.7-1.7 4.3-2.2 1.5-.4 3.1-.6 4.6-.7 1.5 0 3.1 0 4.6.5-1.5.4-3 .7-4.4 1-1.5.3-2.9.7-4.3 1-1.4.4-2.7.9-4 1.6-1.3.8-2.6 1.6-4 2.2zM323.2 429.5c-11.6 9.5-20 0-20 0h20z"/><ellipse class="st7" cx="288.2" cy="421.7" rx="8.2" ry="5.2"/><path d="M344.1 391c-1.4-.6-2.7-1.4-4-2.1-1.3-.7-2.6-1.2-4-1.6-1.4-.4-2.8-.7-4.3-1-1.5-.3-2.9-.7-4.4-1 1.5-.5 3.1-.6 4.6-.5 1.6.1 3.1.2 4.6.7 1.5.4 3 1.2 4.3 2.2 1.2.9 2.3 2 3.2 3.3z"/><path class="st7" d="M329.8 421.7c0 2.9 3.7 5.2 8.2 5.2 4.5 0 8.2-2.3 8.2-5.2 0-2.9-3.7-5.2-8.2-5.2-4.6-.1-8.2 2.3-8.2 5.2z"/><path d="M268.5 421.3c1 .2 1.9.8 2.7 1.5.8.7 1.5 1.5 2.1 2.3.6.9 1.1 1.8 1.5 2.7.4 1 .7 1.9 1 2.9-.7-.8-1.2-1.7-1.7-2.5-.5-.9-1-1.7-1.6-2.5l-1.8-2.4c-.7-.7-1.3-1.5-2.2-2zM357.6 421.3c-.9.6-1.5 1.3-2.2 2.1-.6.8-1.2 1.5-1.8 2.4-.6.8-1.1 1.6-1.6 2.5-.5.9-1 1.8-1.7 2.5.3-1 .6-1.9 1-2.9.4-.9.9-1.9 1.5-2.7.6-.8 1.3-1.6 2.1-2.3.8-.8 1.7-1.4 2.7-1.6zM294.6 410.1c-1.4 1.4-3.7 1.4-5 0-1.4-1.4-1.4-3.7 0-5 1.4-1.4 3.7-1.4 5 0 1.4 1.3 1.4 3.6 0 5zM331.6 410.1c1.4 1.4 3.7 1.4 5 0 1.4-1.4 1.4-3.7 0-5-1.4-1.4-3.7-1.4-5 0-1.4 1.3-1.4 3.6 0 5z"/><path d="M360.7 374.2c-4.2-16.8-26.7-37.4-47.6-27.6-20.6-8.9-42.8 11-46.9 27.6-2.9 11.8-1.4 22.7 1.8 34.2.8 2.8 2.9 7.5 9.1 11.8-2.5-5.4-3.8-10.5-3.8-16.5 0-2.7.3-5.1.8-7.7.7-3.5 2.3-3.3 5-5.4 4.4-3.5 9.4-5.7 13.7-9.5 8.9-7.7 18.8-18.1 20.8-30.1 2.1 11.9 11.8 22.5 20.6 30.1 4.3 3.7 9.3 5.9 13.7 9.5 2.7 2.1 4.3 1.9 5 5.4.5 2.6.8 5 .8 7.7 0 6-1.3 11.1-3.8 16.5 6.2-3.8 7.7-9.6 8.5-12.4 3.1-11.5 5.2-21.9 2.3-33.6z"/><path class="st4" d="M179.9 235.2c-2.7-12.4-5.4-24.2-4.6-37.2 2.2-36.3-37-86.8-76.1-66.1-8.3 4.4-17.8 2.1-26.1 6.6-6.1 3.3-11.1 8.7-14.2 14.9-5.6 11-6.3 23.8-6.2 36.1.1 10.8-.7 22.2-1.8 33.2-.6 5.6-.9 11.5-1.9 17-2.6 13.9-4.2 26.1 1.2 39.7 1.8 4.7 4.5 9.3 9 11.7-.6-3.1-.8-6-.8-9.2 3.3 6.8 9.3 12.1 16.4 14.6 2.7 1 5.3 1 8 .8 69.4 10.1 82.9-6 89.2-12.9 2.4-2.6 6.2-10.3 6.3-13.8.7 2.2 1.3 4.3 2 6.5 5.5-9.6 2.5-28.4-.4-41.9z"/><path d="M180.3 235.3c-1.5-6.7-3-13.5-3.9-20.4-.4-3.4-.7-6.9-.8-10.3-.1-3 .2-6 .2-9 .1-9.1-2.2-18.2-5.7-26.5-3.7-8.8-9-17-15.5-24-6.2-6.6-13.6-12.2-22-15.4-8.2-3.2-17.3-3.8-25.7-1.3-2.2.7-4.4 1.5-6.5 2.5-1.4.7-2.7 1.4-4.2 2-1.5.6-3 .9-4.6 1.3-6.1 1.2-12.5 1-18.1 3.8-5.2 2.6-9.6 6.8-12.8 11.6-3.5 5.3-5.6 11.4-6.8 17.6-1.2 6.3-1.5 12.8-1.6 19.3-.1 7.1-.1 14.2-.6 21.3-.4 7.1-1.2 14.2-1.8 21.4-.3 3.5-.7 7.1-1.3 10.6-.6 3.3-1.2 6.7-1.6 10-.8 6.3-1.1 12.7-.1 19 .5 3.4 1.4 6.6 2.6 9.8 1 2.7 2.2 5.3 3.9 7.7 1.5 2.1 3.4 3.9 5.7 5.1.1 0 .7.2.7 0-.6-3-.8-6.1-.8-9.2-.3-.1-.6-.1-.9-.2 2.2 4.6 5.6 8.5 9.8 11.3 2.1 1.4 4.3 2.6 6.7 3.4 2.8 1 5.7 1.1 8.6.9-.2-.2-.4-.3-.7-.5-.4.1.5.5.6.5 12.7 1.8 25.4 3.2 38.3 3.2 8.4.1 16.8-.4 25-2.1 5.2-1.1 10.4-2.7 15.2-5.2 3-1.6 5.8-3.6 8.3-6 .9-.8 1.7-1.7 2.5-2.6 1.2-1.3 2.1-2.7 2.9-4.2 1.3-2.2 2.4-4.6 3.1-7.1.3-.9.5-1.9.6-2.8l-.9-.3c.7 2.2 1.3 4.3 2 6.5.1.2.8.5.9.3 2.5-4.3 3.1-9.6 3.2-14.6.1-5.9-.6-11.8-1.6-17.6-.9-3.4-1.6-6.6-2.3-9.8-.1-.3-1-.5-.9-.2 1.2 5.7 2.3 11.5 3 17.3.6 5.7.9 11.5-.1 17.1-.5 2.6-1.2 5.1-2.5 7.4l.9.3c-.7-2.2-1.3-4.3-2-6.5-.1-.2-.9-.5-.9-.3-.1 2.2-1 4.4-1.9 6.4-1 2.2-2.1 4.4-3.6 6.4-.8 1.1-1.9 2.2-2.9 3.2-2.3 2.3-4.8 4.3-7.6 5.9-4.3 2.5-9.1 4.2-14 5.4-7.7 1.8-15.7 2.5-23.6 2.6-12.1.2-24.2-.9-36.2-2.5-1.8-.2-3.7-.5-5.5-.8.2.2.4.3.6.5.4-.1-.5-.5-.7-.5-2.9.2-5.6.1-8.4-1-2.2-.8-4.3-2-6.2-3.3-3.8-2.7-7-6.4-9-10.7-.1-.2-.9-.6-.9-.2 0 3.1.2 6.2.8 9.2h.7c-5.3-2.9-8-9-9.8-14.5-2-6.2-2.7-12.7-2.4-19.1.3-6.6 1.7-12.9 2.7-19.4.5-3.4.8-6.8 1.1-10.3.3-3.5.7-7 1-10.5.6-6.9 1-13.9 1.2-20.8.2-6.6-.1-13.1.4-19.6.9-12.2 4.3-24.9 13.7-33.4 2.1-1.9 4.5-3.7 7.1-4.9 2.9-1.4 6.1-2.1 9.3-2.6 2.9-.4 5.9-.7 8.8-1.2 2.9-.6 5.5-1.6 8.2-2.9 8.2-4.1 17.5-5.3 26.4-3.2 8.7 2.1 16.6 7 23.1 13 6.9 6.4 12.6 14.2 16.8 22.6 4.1 8.1 6.9 16.8 7.8 25.8.5 5.2-.1 10.4.1 15.7.2 6.7 1.3 13.3 2.6 19.9.7 3.3 1.4 6.5 2.1 9.7-.2.1.8.3.7 0z"/><path class="st0" d="M153.8 166.2c.5-.5 1-1 1.5-1.4 2.1-2 3.5-4.8 4.9-1.5 1.6 3.6 3 13 .7 12.1-1.8 0-4.3-1.3-6.4-2.7M149.6 167.6c-1.6-1.4-3.8-1.6-6.7-2.5-2.4.1.7 12.8 2.4 13 1.3.1 4.7-4.5 5.8-5.1"/><path class="st0" d="M153.7 165.9c-.6-.7-1.6-.9-2.7-.6-2.6.8-1.1 3.2-.7 5.3.4 1.5 1.4 5.5 3.8 3.1 1.2-1.2-.1-6.1-.3-7.5l-.1-.3z"/><path d="M110.2 283.1h.3c0-.1-.1-.2-.1-.3-.1.2-.2.2-.2.3z" style="fill:none;stroke:#2700ff;stroke-linecap:round;stroke-linejoin:round;stroke-miterlimit:10"/><path class="st0" d="M107.6 283.1h2.5c0-.1.1-.2.1-.3 0 .1.1.2.1.3 6-.3 13.2-2.2 18.7-5.9-10.1-9.4-7.2-25.2-7.2-25.2l-20.4-.2-1.3.2s2.8 15.1-6.5 24.6c3.6 4.1 8.1 6.2 14 6.5z"/><path class="st0" d="M121.3 301.9c8.3 2.9 18.9-10.2 23.1-16.2-4.6-2.1-9.3-3.9-13.5-7.1-.6-.5-1.2-.9-1.7-1.5-5.6 3.6-12.7 5.6-18.7 5.9 2.3 4.7 6 17.3 10.8 18.9zM96.9 302.7c7.4-.6 10.7-13.1 13.2-19.6h-2.5c-5.9-.3-10.4-2.4-13.7-6.5-.7.7-1.5 1.5-2.4 2.1-4.4 3.3-9.3 5.1-14.1 7.3.7 6.5 12.3 17.3 19.5 16.7z"/><path class="st0" d="M144.4 285.8c-4.2 5.9-14.8 19-23.1 16.2-4.8-1.7-8.5-14.2-10.9-18.8h-.3c-2.5 6.5-5.9 19-13.2 19.6-7.2.6-18.9-10.2-19.6-16.6-8.4 3.9-16.9 9-23.3 25.3H168.3c-6.5-16.9-15.2-21.8-23.9-25.7z"/><path class="st9" d="M150.9 217.3c1.2-7.8-1.8-27-3.5-30.6 0 0-18.4-4.1-23.8-6.5-6.7-3-11.6-7.5-16.1-13-1.9-2.3-5.9-8.9-8.9-15.7-.8 2.2-10.5 30.3-27.9 35.1-1.1.3-.8 2.4-1 4.3-.3 4.3.4 24.7 2.6 26.3-1.5-.2-2.9-1.3-4.2-2.8-.2-.1-.3-.1-.5-.2-4.1-.9-5.5 2-5.8 5.5-.5 6.3 3.7 12.2 9.7 15.3 1 .5 3.1 1.1 5.3 1.3 6.9 13.4 18.1 22.4 34.2 21.6 16 .8 27.3-8.2 34.2-21.6 2.2-.3 4.3-.8 5.3-1.3 6.1-3.1 10.3-9 9.7-15.3-.3-3.5-1.7-6.4-5.8-5.5-.1 0-.1 0-.2.1-.9 1.5-2.1 2.8-3.3 3z"/><path d="M108.8 213.7c1.3.5 2.7.3 4.2.5.7 0 1.4.1 2.2.4.4.1.7.3 1.1.5.3.2.7.6.8 1 .3 1-.1 1.8-.5 2.4-.4.6-.9 1.2-1.5 1.6-.6.5-1.2.8-1.9 1.1-.7.3-1.4.5-2.1.4.7-.1 1.3-.4 1.9-.8.6-.4 1.1-.8 1.6-1.3s.9-1 1.2-1.5c.3-.5.5-1.2.4-1.6-.1-.4-.7-.8-1.3-1-.6-.2-1.3-.3-2-.5-1.4-.2-2.9-.3-4.1-1.2zM80.2 190.9c1-1.1 2.2-2.2 3.4-3.1 1.3-.9 2.7-1.6 4.2-2 1.5-.4 3-.6 4.6-.8 1.5-.1 3.1-.1 4.6.1-1.5.1-3 .4-4.5.6-1.5.3-3 .5-4.4.9-1.4.4-2.8 1-4.1 1.7-1.3.9-2.5 1.8-3.8 2.6zM101.3 229.3c1.4 1.2 3 2.1 4.7 2.8 1.7.6 3.5 1 5.2.9.4 0 .9-.1 1.3-.1l.7-.1.7-.2c.4-.1.9-.2 1.3-.3l1.3-.5c.4-.1.8-.4 1.2-.6l1.2-.6c.8-.4 1.6-1 2.4-1.4l-2.1 1.8c-.8.5-1.5 1.1-2.4 1.5-1.7.9-3.6 1.3-5.5 1.4-1.9.1-3.9-.4-5.6-1.2-1.7-.7-3.2-1.9-4.4-3.4zM92.7 209.9c-1.4 1.4-3.7 1.4-5 0-1.4-1.4-1.4-3.7 0-5 1.4-1.4 3.7-1.4 5 0 1.4 1.4 1.4 3.7 0 5z"/><path class="st7" d="M94.5 221.5c0 2.9-3.7 5.2-8.2 5.2-4.5 0-8.2-2.3-8.2-5.2 0-2.9 3.7-5.2 8.2-5.2 4.5 0 8.2 2.3 8.2 5.2z"/><path d="M142.2 190.9c-1.3-.8-2.6-1.7-3.8-2.4-1.3-.7-2.6-1.3-4.1-1.7-1.4-.4-2.9-.7-4.4-.9-1.5-.2-3-.5-4.5-.6 1.5-.2 3.1-.2 4.6-.1 1.5.1 3 .3 4.6.8 1.5.4 2.9 1.1 4.2 2 1.2.7 2.3 1.8 3.4 2.9z"/><path class="st7" d="M127.9 221.5c0 2.9 3.7 5.2 8.2 5.2 4.5 0 8.2-2.3 8.2-5.2 0-2.9-3.7-5.2-8.2-5.2-4.5 0-8.2 2.3-8.2 5.2z"/><path d="M66.7 221.1c1 .2 1.9.8 2.7 1.5.8.7 1.5 1.5 2.1 2.3.6.9 1.1 1.8 1.5 2.7.4.9.7 1.9 1 2.9-.7-.8-1.2-1.7-1.7-2.5-.5-.9-1-1.7-1.6-2.5l-1.8-2.4c-.7-.7-1.4-1.4-2.2-2zM129.7 209.9c1.4 1.4 3.7 1.4 5 0 1.4-1.4 1.4-3.7 0-5s-3.7-1.4-5 0c-1.4 1.4-1.4 3.7 0 5zM155.7 221.1c-.9.6-1.5 1.3-2.2 2.1-.6.8-1.2 1.5-1.8 2.4-.6.8-1.1 1.6-1.6 2.5-.5.9-1 1.8-1.7 2.5.3-1 .6-1.9 1-2.9.4-.9.9-1.9 1.5-2.7.6-.8 1.3-1.6 2.1-2.3.8-.7 1.7-1.4 2.7-1.6zM530.5 259.8c3.8.1 10.6-.1 14.3-1.1-.3.7-2.5 4.2-2.8 4.9 4.7-1.6 9.9-3.6 12-7.9-.5 2.5-1.1 5.1-1.6 7.6 7.2-2.2 14.3-5.4 19.8-10.3 19.4-17.3-1.8-45-1.2-65 .5-18.7 0-36.7-16.2-48.7-7.8-5.8-21.1-8.3-30.8-8.6-10.2-.4-16 2.8-25.8 4.7-19.9 0-33.5 16.7-38.4 33.5-3.1 10.8-1.3 23.9-3.1 35-1.1 6.7-4.8 15.3-5.9 22-1.1 6.7-3.1 10.9-1.1 17.4s6.6 12.6 13.3 15.4c-1.6-1.4-2.8-3.4-3.2-5.4 5.4 4.8 12.8 7.6 20.2 7.5.2-.7.2.1-.3-.4-1.4-1.6-2.4-3.5-2.9-5.4 2.8 2.3 6.3 3.8 9.9 4.6 2.8.6 5.7.4 8.4 1 3.3.8 5.7 2.2 9.3 2-.4-.8-.7-1.6-1.1-2.3 5 1.7 10 1.8 15.2 2.6 4.5.7 7.5-3.2 12-3.1z"/><path class="st9" d="m524.6 252-20.4-.2-1.2.2s1.6 8.8-1.7 17.2h25.1c-3.4-8.4-1.8-17.2-1.8-17.2zM526.4 269.2h-25.1c-.6 1.4-1.3 2.8-2.1 4.1h29.3c-.9-1.3-1.6-2.7-2.1-4.1z"/><path class="st1" d="M533.5 278.7c-2.1-1.6-3.8-3.5-5.1-5.4h-29.3c-1.3 2-2.9 3.8-5.1 5.4-12.2 9.1-27.4 6.9-37.4 32.6H570.9c-10-25.7-25.2-23.5-37.4-32.6z"/><path class="st9" d="M563 219.6c-.3-3.5-1.7-6.4-5.8-5.5-.8.2-1.6.7-2.5 1.3.5-2.9.9-5.8 1.2-8.7 2.6-28.8-4.5-58.1-41.7-58.1h-.9c-37.2 0-44.3 29.3-41.7 58.1.3 2.9.7 5.8 1.2 8.7-.9-.6-1.7-1.1-2.5-1.3-4.1-.9-5.5 2-5.8 5.5-.5 6.3 3.7 12.2 9.7 15.3 1 .5 3.1 1.1 5.3 1.3 6.9 13.4 18.1 22.4 34.2 21.6 16 .8 27.3-8.2 34.2-21.6 2.2-.3 4.3-.8 5.3-1.3 6.2-3.1 10.4-9 9.8-15.3z"/><path d="M513.7 202c.1 1.1.1 2.2.2 3.2 0 1.1.1 2.1.3 3.2.3 2.1 1.3 4 2.9 5.1.2.2.4.3.6.4l.7.4c.5.3.9.8 1.2 1.4.5 1.1.7 2.4 0 3.5-.4.5-.8.9-1.3 1.2-.5.3-1 .5-1.5.7-1 .3-2.1.6-3.2.6 1.1-.2 2.1-.5 3-1 .9-.5 1.9-1 2.4-1.8.4-.8.3-1.9-.1-2.7-.2-.4-.5-.8-.9-1-.4-.3-1-.5-1.4-.9-.9-.7-1.7-1.6-2.2-2.6-.5-1-.8-2.1-.9-3.2-.3-2.2 0-4.4.2-6.5zM482.8 190.9c1-1.1 2.2-2.2 3.4-3.1 1.3-.9 2.7-1.6 4.2-2 1.5-.4 3-.6 4.6-.8 1.5-.1 3.1-.1 4.6.1-1.5.1-3 .4-4.5.6-1.5.3-3 .5-4.4.9-1.4.4-2.8 1-4.1 1.7-1.2.9-2.5 1.8-3.8 2.6zM503.9 229.3s8.4 9.5 20 0h-20z"/><path class="st7" d="M497.1 221.5c0 2.9-3.7 5.2-8.2 5.2-4.5 0-8.2-2.3-8.2-5.2s3.7-5.2 8.2-5.2c4.5 0 8.2 2.4 8.2 5.2z"/><path d="M544.8 190.9c-1.3-.8-2.6-1.7-3.8-2.4-1.3-.7-2.6-1.3-4.1-1.7-1.4-.4-2.9-.7-4.4-.9-1.5-.2-3-.5-4.5-.6 1.5-.2 3.1-.2 4.6-.1 1.5.1 3 .3 4.6.8 1.5.4 2.9 1.1 4.2 2 1.3.7 2.4 1.8 3.4 2.9z"/><path class="st7" d="M530.5 221.5c0 2.9 3.7 5.2 8.2 5.2 4.5 0 8.2-2.3 8.2-5.2s-3.7-5.2-8.2-5.2c-4.5 0-8.2 2.4-8.2 5.2z"/><path d="M469.3 221.2c1 .2 1.9.8 2.7 1.5.8.7 1.5 1.5 2.1 2.3.6.9 1.1 1.8 1.5 2.7.4 1 .7 1.9 1 2.9-.7-.8-1.2-1.7-1.7-2.5-.5-.9-1-1.7-1.6-2.5l-1.8-2.4c-.7-.7-1.3-1.5-2.2-2zM558.3 221.2c-.9.6-1.5 1.3-2.2 2.1-.6.8-1.2 1.5-1.8 2.4-.6.8-1.1 1.6-1.6 2.5-.5.9-1 1.8-1.7 2.5.3-1 .6-1.9 1-2.9.4-.9.9-1.9 1.5-2.7.6-.8 1.3-1.6 2.1-2.3.8-.8 1.7-1.5 2.7-1.6zM495.4 210c-1.4 1.4-3.7 1.4-5 0-1.4-1.4-1.4-3.7 0-5 1.4-1.4 3.7-1.4 5 0 1.4 1.3 1.4 3.6 0 5z"/><circle transform="rotate(-45.001 534.832 207.45)" cx="534.8" cy="207.4" r="3.6"/><path d="M560.8 179.5c-2.7-8-4.2-18.4-17.2-27.6-5.2-8.6-21.6-10.5-27-10.8-11.2-.6-25.4 1.4-33.7 8.9-9.8 8.9-14.7 15.8-15.9 26.3-1.5 4.9-2.5 11.4-2.6 19.2-.1 4.4.3 7.9 2.2 11.8 2 4 5.5 11.1 10 12-2.4-7.4-3.3-14.9-3.1-23 0-2.2.6-7.1 1.2-12.5 4.3-7.6 11-12.2 18.2-17-1.6 3.8-3.7 8.9-6.4 12.3 7.5-.3 24-5.8 30.7-13.7-2 4.9-3.1 10.9-6.3 15.3 12.1-4.5 27.1-8.5 32.2-18.3 1.3 7.8 6.1 14.5 8.1 22.8 2.3 9.4 5.5 28.1-1.9 36 6.5-2.1 8.9-7.7 11.9-13.7 3.5-7.2 2.1-20.5-.4-28z"/><circle class="st6" cx="492.2" cy="207.4" r="16.6"/><path class="st6" d="M547.1 195.7c6.5 6.5 6.5 16.9 0 23.4s-16.9 6.5-23.4 0-6.5-16.9 0-23.4 17-6.5 23.4 0zM508.8 207.5h10.1"/><path class="st11" d="M477.2 146c12.2 7.6 35.1 13.2 46 14.8 9.2 1.4 41.7 1.9 47.1-.1 5.3-2 10.1-5.7 8.9-10.6-2.1-8.6-68.8-39.9-76.7-34.7-2.2 1.4-19 8.8-20.7 10.8-2.5 2.9-11.7 15.4-4.6 19.8z"/><path d="M476.8 146.2c4.9 3 10.3 5.2 15.7 7.1 5.8 2.1 11.8 3.8 17.8 5.2 4.5 1.1 9.1 2.1 13.7 2.7 3.9.5 7.9.7 11.8.8 5.1.2 10.2.3 15.3.3 4.5 0 9-.1 13.5-.4 1.5-.1 3-.3 4.5-.6 2-.4 3.9-1.3 5.6-2.4 2.3-1.4 4.6-3.5 5.1-6.3.2-1.3.1-2.6-.7-3.7-1.2-1.7-2.9-3-4.6-4.3-2.6-2-5.4-3.7-8.2-5.4-3.5-2.1-7.1-4-10.7-5.9-4-2.1-8-4-12-5.9-4.1-1.9-8.2-3.7-12.3-5.4-3.8-1.5-7.6-3-11.4-4.3-3.1-1-6.3-2-9.5-2.7-2.1-.4-4.4-.9-6.6-.6-.8.1-1.4.3-2 .7-1.2.7-2.6 1.3-3.9 2-4.1 2-8.2 3.9-12.3 6-1.3.7-2.8 1.4-4 2.4-1.1.8-1.8 2.1-2.6 3.2-1.3 1.9-2.5 3.9-3.5 6-.9 2-1.6 4.2-1.6 6.4.3 2.3 1.2 4 2.9 5.1.2.1 1.2 0 .9-.2-4.1-2.6-2.4-8-.7-11.6 1-2 2.1-3.8 3.4-5.6.7-1 1.5-2.2 2.5-2.9 1.3-1 2.8-1.7 4.3-2.5l6-3c2-1 4-1.9 5.9-2.8 1.2-.6 2.5-1.2 3.7-1.9.5-.3.9-.5 1.6-.5.8-.1 1.8 0 2.7.1 2.7.3 5.4 1 8.1 1.8 7.6 2.2 15 5.3 22.3 8.4 7.9 3.5 15.7 7.3 23.3 11.4 3.2 1.7 6.3 3.6 9.3 5.5 2.2 1.4 4.4 3 6.4 4.7.6.6 1.3 1.2 1.8 1.9.7 1 .9 2.3.7 3.5-.4 2.9-2.9 4.9-5.3 6.3-1.6 1-3.3 1.8-5.2 2.1-3.5.6-7.2.7-10.8.8-5 .1-9.9.1-14.9 0-4.6-.1-9.1-.3-13.7-.6-3.6-.3-7.2-.8-10.8-1.5-5.6-1.1-11.1-2.5-16.6-4.1-5.8-1.7-11.5-3.6-17-6.1-2.4-1.1-4.7-2.3-6.9-3.6-.4 0-1.3.2-1 .4z"/><path class="st11" d="M522.7 122.9c-1.1-1.9-1.7-4.7-1.7-6.9 0-1.2.8-6.3 2.8-3.1.5.7-.5 4.5-.5 5.5.1 1.7.3 3.5-.6 4.5z"/><path d="M523.2 123c-1-1.8-1.5-3.9-1.7-6-.1-1.2 0-2.4.4-3.5.2-.5.4-.9.7-1.3 0 0 .1-.1.2-.1-.1.1-.2-.2 0 .1.2.2.5.5.6.8.2.5.1 1.2 0 1.7-.1.8-.2 1.5-.4 2.3-.1.8-.1 1.5-.1 2.3 0 1.2 0 2.5-.7 3.5-.2.3.8.5.9.3.7-1 .7-2.2.7-3.4 0-.8 0-1.6.1-2.4.1-.8.3-1.7.4-2.5.1-.5.2-1.3-.1-1.8-.5-1-2.1-1.9-2.9-.7-.7 1-.9 2.4-.9 3.5-.1 2.4.5 5 1.7 7.1.3.3 1.2.3 1.1.1z"/><path class="st0" d="M329.3 276.1c-8.7-9.4-6-24.1-6-24.1l-20.4-.2-1.3.2s2.8 15-6.4 24.5c5.5 3.8 13.7 8.8 17.2 10.4 0 0 11.3-7.5 16.9-10.8z"/><path class="st12" d="m277 286.8-1.9 13.3 4.2 11.3h12.4l-.5-31.6c-4.5 2.9-9.3 4.7-14.2 7z"/><path class="st12" d="M277 286.8c-7.9 3.8-15.8 9.2-21.7 24.6h24.1l-4.2-11.3c-.1 0 .9-7 1.8-13.3zM347.8 286.8c-1.2-.6-2.4-1.1-3.6-1.6-.1-.1-.2-.1-.4-.2 0 0-.1 0-.1-.1-3.5-1.5-6.9-3-10.1-5.2l-.5 31.6h12.4l4.2-11.3c0 .1-1-6.9-1.9-13.2z"/><path class="st12" d="M347.8 286.8c7.9 3.8 15.8 9.2 21.7 24.6h-24.1l4.2-11.3c.1 0-.9-7-1.8-13.3z"/><path class="st1" d="M343.7 284.9s.1 0 .1.1c0-.1-.1-.1-.1-.1z"/><path class="st0" d="M343.8 285c.1.1.2.1.4.2-.1-.1-.2-.2-.4-.2z"/><path d="M333.2 279.4c-.7.4-1.4.7-2.1 1.1-6.2 3.7-18.7 11.8-18.7 11.8-1.9.1-16.1-9.2-20.7-13-.2.1-.3.2-.5.3l.5 31.6H333.1l.5-31.6c-.1 0-.3-.1-.4-.2z"/><defs><path id="SVGID_1_" d="M333.2 279.4c-.7.4-1.4.7-2.1 1.1-6.2 3.7-18.7 11.8-18.7 11.8-1.9.1-16.1-9.2-20.7-13-.2.1-.3.2-.5.3l.5 31.6H333.1l.5-31.6c-.1 0-.3-.1-.4-.2z"/></defs><clipPath id="SVGID_2_"><use xlink:href="#SVGID_1_" style="overflow:visible"/></clipPath><g style="clip-path:url(#SVGID_2_)"><path class="st14" d="M294.4 273.4v43M300.4 273.4v43M306.5 273.4v43M312.5 273.4v43M318.2 273.4v43M324.2 273.4v43M330.2 273.4v43"/></g><use xlink:href="#SVGID_1_" style="overflow:visible;fill:none;stroke:#000;stroke-miterlimit:10"/><path class="st0" d="M329.3 276.1c-5.6 3.3-16.8 10.8-16.8 10.8-3.5-1.6-11.7-6.6-17.2-10.4-.8.8-1.6 1.5-2.5 2.2-.3.2-.6.5-1 .7 4.6 3.8 16.3 11 20.7 13 0 0 14.3-9.6 18.7-11.8.7-.4 1.4-.7 2.1-1.1-.3-.2-.7-.5-1-.7-1.2-.9-2.2-1.7-3-2.7z"/><path d="M362.3 199.1c.9-2.5 6.4-12.8-1-11.5 1.4-4.4 4.1-14.7-2.4-16.7 1.7-3.7 1-12-4.2-12-.1-2.5.1-5-1-7.3-1.2-2.4-3.7-2.7-4.7-4.4-1.2-1.9.6-4.1-1.7-6-1.6-1.2-4.1-.6-5.9-.6-.1-7.6-7.9-6.1-12.4-3.7-.8-6.7-11.5-3.2-13.8.6 1.1-6.6-10.4-6.7-10.5-.4-5.3-2.5-11-4.4-11.6 1.9-2.4-.8-5.2-1.2-7-.8-3.6.8-4.4 2.4-4.4 6.6-1.8.1-6.5-.9-7.9 0-2.2 1.3-2.7 6.1-2.5 8.6-5.4-.6-14.6 9.5-7.2 11.5-6.6 0-9.6 9.6-1.9 10.8-5.4 2.9-4.9 11.6 1 13.5-5.1 2.1-4.1 9.7.9 11.1-5.7 4.1-.7 12.4 5.8 11.2-2.2 2.4-2.3 6.3-1.3 9.2 2.3 6.3 7.5 7.4 12.3 10.4 2.8 1.7 2.1 3.7 4.4 6.1 3.9 4.2 7.2 2 10.3-.6 2 2.3 4.8 5.3 7.8 3.9 1.6-.7 2.5-4.2 3.1-6.8 3 9.8 5.5 11.1 7.1 11.7 7.6 2.9 13.3-2.5 14.8-9.5 12.1 4.8 20.5-.6 23.5-12.2 5.5 3.3 11.6-11.3 4.9-13.6 2-.9 4.5-2.8 5-5 .3-1.2-1-2.7-.8-3.6.4-1.3.9-1.3 1.3-2.4z"/><path class="st0" d="M361.6 219.6c-.3-3.5-1.7-6.4-5.8-5.5-.5.1-1 .4-1.6.7-.5 1.6-1.4 2.7-2.8 1.6-3.7-2.8 1.5-24.1-.2-23.8-3.1.7-4.9-12.1-.3-14.5-3 2-5.4-.5-7.4-2.1-3.6-2.8-4.9-6.6-5.4-11.8-5 0-7.7-1.9-9.5-5.4-2.6 2.4-10.1 2.7-12.6-2.1 3.6 7-6.1 7.8-10.6 6.4-3.3-1-5.2-4.5-6.1-7.6.5 1.6-.3 2.7-1.5 3.4-1.7 2.5-4.8 3.6-8.9 2.7 0 0 0 0 0 0-.1 3.3-.4 6.2-4.3 6.8-.2 5.8-5.7 12.1-8.3 11.2 2.5 4.1 3.7 11.7-2.2 13.9 1.3 6.8 1.1 14 1.8 20.9.3 3 .3 5.9-3.2 3.8-1.4-.9-2.2-2.1-2.5-3.5-.4-.2-.8-.4-1.1-.4-4.1-.9-5.5 2-5.8 5.5-.5 6.3 3.7 12.2 9.7 15.3 1 .5 3.1 1.1 5.3 1.3 6.9 13.4 18.1 22.4 34.2 21.6 16 .8 27.3-8.2 34.2-21.6 2.2-.3 4.3-.8 5.3-1.3 6-3.3 10.2-9.2 9.6-15.5z"/><path d="M270.3 206.8c-.3 2.3-.9 5.3-.2 7.8.5.2.9.5 1.4.9-.5-2.9-.9-5.8-1.2-8.7z"/><path d="M269.8 206.8c-.2 1.6-.5 3.2-.5 4.8 0 .8 0 1.6.2 2.4 0 .2 0 .4.1.6.1.1.2.2.3.2.4.2.8.5 1.1.8.1.1 1 .2.9-.1-.5-2.9-.9-5.8-1.2-8.7.1-.3-.9-.3-.9 0 .3 2.9.7 5.8 1.2 8.7.3 0 .6-.1.9-.1-.3-.2-.7-.5-1-.7-.2-.1-.3-.2-.4-.4-.1-.2-.1-.4-.1-.6-.1-.8-.1-1.6-.1-2.4.1-1.5.3-3 .5-4.6 0-.2-1-.2-1 .1zM311.7 193.3c-.1 1.5.3 3 .6 4.5.4 1.5.8 2.9 1.3 4.4 1 2.9 2.1 5.7 3.3 8.5.6 1.4 1.2 2.8 1.9 4.1.3.7.7 1.4 1.1 2 .2.3.4.7.6.8l.1.1s.2.2.2.3c.1.2.1.3.1.4 0 .2 0 .5-.1.7-.1.2-.1.4-.3.7 0 .1-.1.1-.2.2 0 0-.1 0-.1.1h-.1l-.3.1-1.1.4c-.7.2-1.5.4-2.2.6-1.5.3-3 .6-4.6.8 1.5-.4 3-.7 4.4-1.2.7-.2 1.4-.5 2.2-.8l1.1-.4.3-.1h.1c.1-.1.1-.2.1-.4v-.6s.1.2 0 .1l-.1-.1c-.4-.3-.5-.7-.8-1-.4-.7-.8-1.3-1.2-2-.7-1.4-1.4-2.8-2-4.2-1.2-2.8-2.3-5.7-3.1-8.7-.8-3.1-1.6-6.2-1.2-9.3zM281.4 190.9c.8-1.4 1.8-2.7 3-3.7 1.2-1.1 2.8-1.9 4.3-2.3 1.6-.5 3.2-.6 4.7-.6 1.6 0 3.2.2 4.7.9-1.5.6-3 1-4.4 1.4l-4.2 1.1c-1.3.4-2.6.8-3.9 1.4-1.3.6-2.6 1.3-4.2 1.8zM302.5 229.3c1.4 1.2 3 2.1 4.7 2.8 1.7.6 3.5 1 5.2.9.4 0 .9-.1 1.3-.1l.7-.1.7-.2c.4-.1.9-.2 1.3-.3l1.3-.5c.4-.1.8-.4 1.2-.6l1.2-.6c.8-.4 1.6-1 2.4-1.4l-2.1 1.8c-.8.5-1.5 1.1-2.4 1.5-1.7.9-3.6 1.3-5.5 1.4-1.9.1-3.9-.4-5.6-1.2-1.7-.7-3.2-1.9-4.4-3.4zM343.4 190.9c-1.6-.5-2.9-1.2-4.3-1.7-1.3-.6-2.6-1-3.9-1.4l-4.2-1.1c-1.4-.4-2.9-.9-4.4-1.4 1.5-.7 3.1-.9 4.7-.9s3.1.1 4.7.6 3.1 1.3 4.3 2.3c1.3.9 2.3 2.1 3.1 3.6zM267.9 221.2c1 .2 1.9.8 2.7 1.5.8.7 1.5 1.5 2.1 2.3.6.9 1.1 1.8 1.5 2.7.4 1 .7 1.9 1 2.9-.7-.8-1.2-1.7-1.7-2.5-.5-.9-1-1.7-1.6-2.5l-1.8-2.4c-.7-.7-1.4-1.5-2.2-2zM356.9 221.2c-.9.6-1.5 1.3-2.2 2.1-.6.8-1.2 1.5-1.8 2.4-.6.8-1.1 1.6-1.6 2.5-.5.9-1 1.8-1.7 2.5.3-1 .6-1.9 1-2.9.4-.9.9-1.9 1.5-2.7.6-.8 1.3-1.6 2.1-2.3.8-.8 1.7-1.5 2.7-1.6zM294 210c-1.4 1.4-3.7 1.4-5 0-1.4-1.4-1.4-3.7 0-5 1.4-1.4 3.7-1.4 5 0 1.3 1.3 1.3 3.6 0 5zM330.9 210c1.4 1.4 3.7 1.4 5 0 1.4-1.4 1.4-3.7 0-5-1.4-1.4-3.7-1.4-5 0-1.4 1.3-1.4 3.6 0 5z"/><path class="st0" d="M338.7 685.8c-.7-.5-1.5-1-2.2-1.5-12.2-9.1-8.9-26.7-8.9-26.7l-20.4-.2-1.3.2s3.3 17.6-8.9 26.7c-.9.6-1.8 1.2-2.6 1.8l21.7 15.5 22.6-15.8z"/><path d="M339.2 686c.1 0 .1.1.2.1-.2-.1-.5-.3-.7-.4l-22.6 15.8-21.6-15.5 8.1 14v16.8h28.5V700l8.1-14z" style="stroke:#000;stroke-linejoin:round;stroke-miterlimit:10"/><path class="st0" d="M294.5 686c-11.7 7.1-25.5 7-34.8 30.9h42.9v-16.8l-8.1-14.1z"/><path class="st0" d="M304.1 675.2s-.1 5-7 9l5.5 15.8-12.4-11.7c-.1.1-2.9-5.1 13.9-13.1z"/><path d="M299.4 703.4h-3.5c-.3 0-.5.2-.5.5s.2.5.5.5h3.5c.3 0 .5-.2.5-.5s-.2-.5-.5-.5zM299.4 712.3h-3.5c-.3 0-.5.2-.5.5s.2.5.5.5h3.5c.3 0 .5-.2.5-.5s-.2-.5-.5-.5z"/><path class="st0" d="M373.1 714.7c-.1-.2-.2-.4-.3-.7-.2-.5-.4-.9-.6-1.4-.1-.3-.3-.5-.4-.8-.2-.4-.4-.8-.6-1.1-.1-.3-.3-.5-.4-.8-.2-.3-.4-.7-.6-1-.1-.3-.3-.5-.4-.7l-.6-.9c-.1-.2-.3-.5-.4-.7l-.6-.9c-.2-.2-.3-.4-.5-.6-.2-.3-.4-.5-.6-.8-.2-.2-.3-.4-.5-.6-.2-.3-.4-.5-.6-.7-.2-.2-.3-.4-.5-.6-.2-.2-.4-.5-.6-.7l-.5-.5-.6-.6-.5-.5-.6-.6c-.2-.1-.3-.3-.5-.4l-.6-.6c-.2-.1-.3-.3-.5-.4-.2-.2-.4-.4-.7-.5-.2-.1-.3-.2-.5-.4s-.4-.3-.7-.5c-.1-.1-.3-.2-.4-.3-.2-.2-.5-.3-.7-.5-.1-.1-.3-.2-.4-.3-.2-.2-.5-.3-.7-.5-.1-.1-.3-.2-.4-.2-.3-.2-.5-.3-.8-.5-.1-.1-.3-.1-.4-.2-.3-.1-.5-.3-.8-.4-.1-.1-.2-.1-.3-.2-.3-.1-.6-.3-.8-.4-.1 0-.2-.1-.3-.1-.3-.2-.6-.3-.9-.4-.1 0-.1-.1-.2-.1-.3-.2-.7-.3-1-.5h-.1c-2.5-1.2-5.1-2.2-7.6-3.4 0 0-.1 0-.1-.1-.3-.2-.6-.3-.9-.5-.1 0-.1-.1-.2-.1-.3-.1-.6-.3-.9-.4-.1 0-.2-.1-.3-.1-.3-.1-.5-.3-.8-.4-.1-.1-.2-.1-.3-.2-.3-.1-.5-.3-.8-.4-.1 0-.1-.1-.2-.1l-8.1 14v16.8H374c-.3-1-.6-1.8-.9-2.5z"/><path class="st0" d="M329.6 675.2s.1 5 7 9l-5.5 15.8 12.4-11.7c0 .1 2.9-5.1-13.9-13.1z"/><path d="M336.3 703.9c0 .6-.5 1-1 1-.6 0-1-.5-1-1 0-.6.5-1 1-1s1 .4 1 1zM336.3 712.8c0 .6-.5 1-1 1-.6 0-1-.5-1-1 0-.6.5-1 1-1s1 .4 1 1z"/><path class="st0" d="M366.1 625.2c-.3-3.5-1.7-6.4-5.8-5.5-.8.2-1.6.7-2.5 1.3.5-2.9.9-5.8 1.2-8.7 2.6-28.8-4.5-58.1-41.7-58.1h-.9c-37.2 0-44.3 29.3-41.7 58.1.3 2.9.7 5.8 1.2 8.7-.9-.6-1.7-1.1-2.5-1.3-4.1-.9-5.5 2-5.8 5.5-.5 6.3 3.7 12.2 9.7 15.3 1 .5 3.1 1.1 5.3 1.3 6.9 13.4 18.1 22.4 34.2 21.6 16 .8 27.3-8.2 34.2-21.6 2.2-.3 4.3-.8 5.3-1.3 6.1-3.1 10.3-9 9.8-15.3z"/><path d="M318.2 612.5c-.2 2.3.4 4.5 1.6 6.3.6.9 1.4 1.6 2.3 2.4.8.7 1.8 1.6 2.2 2.9.2.6.2 1.3.1 1.9-.1.3-.1.6-.2.9-.1.3-.2.6-.4.8-.7 1.1-1.9 1.7-3 2-2.3.6-4.7.2-6.8-.8 1.1.3 2.2.5 3.3.5 1.1 0 2.2-.1 3.2-.4 1-.3 1.9-.9 2.4-1.8.5-.8.7-1.9.4-2.9-.5-1.9-3-3-4.1-5.1-.6-1-1-2.1-1.2-3.3-.1-1.1-.1-2.3.2-3.4zM285.8 596.4c.8-1.4 1.8-2.7 3-3.7 1.2-1.1 2.8-1.9 4.3-2.3 1.6-.5 3.2-.6 4.7-.6 1.6 0 3.2.2 4.7.9-1.5.6-3 1-4.4 1.4l-4.2 1.1c-1.3.4-2.6.8-3.9 1.4-1.2.7-2.6 1.3-4.2 1.8zM327 634.9l-2.1 1.8-1.2.8c-.4.3-.8.5-1.2.7-1.7.9-3.6 1.3-5.5 1.4-1.9.1-3.9-.4-5.6-1.2-1.7-.8-3.2-2-4.4-3.5 1.4 1.2 3 2.1 4.7 2.8 1.7.6 3.5 1 5.2.9.4 0 .9-.1 1.3-.1l.7-.1.7-.2c.4-.1.9-.2 1.3-.3l1.3-.5c.4-.1.8-.4 1.2-.6l1.2-.6c.8-.3 1.6-.9 2.4-1.3zM347.8 596.4c-1.6-.5-2.9-1.2-4.3-1.7-1.3-.6-2.6-1-3.9-1.4l-4.2-1.1c-1.4-.4-2.9-.9-4.4-1.4 1.5-.7 3.1-.9 4.7-.9s3.1.1 4.7.6 3.1 1.3 4.3 2.3c1.4 1 2.4 2.2 3.1 3.6zM272.3 626.7c1 .2 1.9.8 2.7 1.5.8.7 1.5 1.5 2.1 2.3.6.9 1.1 1.8 1.5 2.7.4 1 .7 1.9 1 2.9-.7-.8-1.2-1.7-1.7-2.5-.5-.9-1-1.7-1.6-2.5l-1.8-2.4c-.7-.7-1.3-1.4-2.2-2zM361.4 626.7c-.9.6-1.5 1.3-2.2 2.1-.6.8-1.2 1.5-1.8 2.4-.6.8-1.1 1.6-1.6 2.5-.5.9-1 1.8-1.7 2.5.3-1 .6-1.9 1-2.9.4-.9.9-1.9 1.5-2.7.6-.8 1.3-1.6 2.1-2.3.7-.8 1.6-1.4 2.7-1.6zM298.4 615.5c-1.4 1.4-3.7 1.4-5 0s-1.4-3.7 0-5c1.4-1.4 3.7-1.4 5 0s1.4 3.6 0 5zM335.3 615.5c1.4 1.4 3.7 1.4 5 0s1.4-3.7 0-5c-1.4-1.4-3.7-1.4-5 0s-1.4 3.6 0 5zM290 627.2c.6 0 .6-1 0-1-.7 0-.7 1 0 1zM290.1 630.5c.6 0 .6-1 0-1s-.6 1 0 1zM296.5 628h-.4c-.1 0-.1.1-.2.1 0 0-.1.1-.1.2V628.6c0 .1.1.2.1.2l.1.1c.1 0 .2.1.3.1h.4c.1 0 .1-.1.2-.1 0 0 .1-.1.1-.2V628.4c0-.1-.1-.2-.1-.2l-.1-.1c-.2 0-.3-.1-.3-.1zM293.8 626.1c.6 0 .6-1 0-1-.7 0-.7 1 0 1zM287.3 623.3c.6 0 .6-1 0-1-.7 0-.7 1 0 1zM284.4 627.4c.6 0 .6-1 0-1-.7 0-.7 1 0 1zM338 625.6c.6 0 .6-1 0-1s-.6 1 0 1zM341.8 622.2c.6 0 .6-1 0-1s-.6 1 0 1zM343.6 627.8c.6 0 .6-1 0-1s-.6 1 0 1zM348.9 626c.6 0 .6-1 0-1-.7 0-.7 1 0 1zM346.9 622.9c.6 0 .6-1 0-1-.7 0-.7 1 0 1zM340.9 628.9v-.4c0-.1-.1-.1-.1-.2 0 0-.1-.1-.2-.1H340.3c-.1 0-.2.1-.2.1l-.1.1c0 .1-.1.2-.1.3v.4c0 .1.1.1.1.2 0 0 .1.1.2.1H340.5c.1 0 .2-.1.2-.1l.1-.1c.1-.1.1-.2.1-.3zM346.5 630.1c.6 0 .6-1 0-1s-.6 1 0 1z"/><path d="M369.9 584.9c.8-7.7.6-15.3-1.9-23.6.1 1.9-.4 3.8-1.3 5.4-.8-6.3-4-12.2-8.7-16.5-.8 1.9-1.6 3.7-2.5 5.6-4.5-10.3-16.4-15-27.5-16.8-11.1-1.8-22.7-1.7-32.8-6.5l3.6 7.5c-7.3.4-14.7-1.5-21-5.3.7 2.6 1.5 5.1 2.2 7.7-2.1.3-5.4-1.9-7.9-4.8.6 3.8 1.1 7.6 1.7 11.4-1.8-.8-3.6-1.6-5.3-2.4 1.2 8.1 1.1 30.7.5 34.3-1.5 8.8-1.9 18.5 1 26.8 1 2.8 1.9 9.4 3.3 11.9.8 1.4 5.1 5.7 6.2 3.6-.6-4-.7-27.6 1-33.9 1.4-4.8 4-8 7.4-11.9 2.6-3 6-4.8 9.5-6.5.9 2.1-.8 4.2-2.4 5.5 5.5 1.4 14.2-1.6 19.4-3.9 3.4-1.5 9.8-5.7 12.5-11.3-.3 2.2-4.2 8-5.6 9.5 3.3.1 9.6-3.8 11.6-6.3-1.9 6.3-4.2 7.3-5.2 10 5.8-1.6 9.5-5.1 12.7-10.8 2.4 5.1 6 9.9 8.3 15 1.8 3.9 6.8 10.2 7.2 28.3.1 5.4.7 9.4.7 14.6.9-3.2-1.1 5.4 3.6-2.1 1.7-2.7 5.8-12 6.4-15.1 1.3-6.5 2.7-13 3.3-19.4z"/><path d="M277.3 610h2.2v2.6h-2.2z"/><path class="st6" d="M311.7 605.8s6.1-5.4 14.8 0M303.1 598.9h29.3"/><path d="M303.9 598.4c-5.1-1.3-11.5-.6-16.3.9-6.7 2.1-9 9.3-8.2 15.7.6 5.8 3.2 12.9 9.5 13.8 11.2 1.7 23.8-7.5 24.8-20.9.1-1.2-.4-7.1-9.8-9.5zM357.3 610h2.2v2.6h-2.2z"/><path d="M332.8 598.4c5.1-1.3 11.5-.6 16.3.9 6.7 2.1 9 9.3 8.2 15.7-.6 5.8-3.2 12.9-9.5 13.8-11.2 1.7-23.8-7.5-24.8-20.9 0-1.2.5-7.1 9.8-9.5z"/><path class="st0" d="M512.2 687.4c6.9.8 13.4-1.2 17.5-5.7-7.1-9.4-4.7-22.5-4.7-22.5l-20.4-.2-1.3.2s2.4 13-4.7 22.5c3.4 3.6 9.1 5.2 13.6 5.7z"/><path class="st9" d="M515.1 692.1c9.1-.5 14.5-3.8 17.6-7.2-1.2-1-2.2-2.1-3-3.2-4.1 4.5-10.6 6.5-17.5 5.7-4.6-.5-10.3-2.1-13.5-5.8-.8 1.1-1.8 2.2-2.9 3.2 3.2 3.8 9 7.8 19.3 7.3z"/><path class="st9" d="M554.7 696.7c-7-4.4-14.3-6-20.8-10.8l-1.2-.9c-3.1 3.4-8.5 6.7-17.6 7.2-10.3.5-16.2-3.5-19.4-7.3-.4.4-.8.7-1.3 1-6.5 4.8-13.8 6.5-20.8 10.8-.9 6.5-1.9 13.5-2.1 21.8h85.1c0-8.3-1-15.3-1.9-21.8z"/><path class="st1" d="M457.1 718.5h14.6c.2-8.3 1.2-15.3 2.1-21.8-6.2 3.8-12.1 9.7-16.7 21.8zM554.7 696.7c.9 6.5 1.9 13.5 2.1 21.8h14.6c-4.8-12.1-10.6-18-16.7-21.8z"/><path d="M544.7 547.8c.1.6-1.2-.7-1.6-1-1-1.3-1.7-3.7-1.5-5.3.5-4.4 5.6-1.4 7.6-.9-2.3.2-2-6.4.1-7.2 1.9-.7 4.6 1.6 4.9 3.4-1.1-3.4 3.8-4.8 6.2-4.9 3.3-.2 5.2 1.2 5.4 4.5.7-3 5.8-2.5 7.5-.8 1.8 1.7 2.7 3.9 1.6 6.3 5.6-1.2 7.4 5 6.1 9.4 2.7.7 4 3.7 4.1 5.2.1 3.1-.8 4.7-3.6 6.1 2.5 1.1 1.3 4.9.5 5.8-1.6 1.8-2.7 2-5.3 1.1.6.2 1.8 1 0 3.4-1.2 1.7-11.1 2.3-12.3 2.1-5.5-1.3-11.1-3.9-19.7-27.2z"/><path class="st11" d="M536 548c7.5-9 19.5.8 25 7 4.6 5.2 12.6 11.5 12.4 19.2-.2 6.1-14.1 8.4-37.4-26.2z"/><path d="M536.5 548.1c1.4-1.7 3.2-3 5.4-3.4 2-.4 4 0 5.9.7 4.1 1.5 7.6 4.4 10.7 7.4 1.4 1.4 2.7 2.9 4.1 4.4 1.6 1.7 3.3 3.4 4.8 5.1 2.8 3.3 5.8 7.4 5.5 11.9-.1 2.2-2.1 3.3-4 3.3-1.6 0-3.3-.5-4.8-1.2-2.4-1.1-4.7-2.6-6.7-4.2-7.2-5.7-13-13-18.2-20.4-.9-1.2-1.8-2.5-2.6-3.8-.2-.2-1.1-.2-1 0 5.7 8.4 11.9 16.8 19.8 23.3 2.2 1.9 4.7 3.6 7.3 4.9 1.8.9 3.7 1.6 5.7 1.7 2.3.2 5.1-.5 5.6-3.1.3-1.4-.1-3-.5-4.4-.7-2.3-2-4.4-3.4-6.3-1.5-2-3.2-3.7-4.9-5.5l-4.5-4.8c-3-3.2-6.6-6.2-10.6-8.1-3.7-1.7-8.2-2.5-11.8-.1-.9.6-1.8 1.4-2.5 2.2-.5.4.5.6.7.4zM461.1 572.9c-1.1 4.2-10 2.7-12.3.3-2.5-2.7-3.2-7.8 1.8-7.5-4.2.3-9.2-6.1-3.3-7.2-5.6-.2-4.5-9.4 1.3-9.2-2-1.1-3.5-4.5-2.6-6.7 1.3-3.3 4.3-2.6 7.1-2-.4-6.7 9.7-10.2 8.8-4-.7-6.7 9.7-5.3 9.5 1.9 3.3-3.9 8.5.8 7.3 3.9 1-.9 2.3-.4 3.1.1 3.3 1.9 2.7 6.6 2.7 8.5 5.6.1 5.3 5.8 2.9 9.4-3.8 5.7-9.6 8.2-26.3 12.5z"/><path class="st11" d="M455.4 577.9c-2.6-1.3-2.5-7.4-2.3-10 .5-4.6 3.1-8.8 6.1-12.1 5-5.4 9.9-10.6 21.2-11.4 2.5-.2 4.3 1.7 6.6 2.6 1 .4 5 1.5-31.6 30.9z"/><path d="M455.7 577.8c-1.8-.9-2.1-3.6-2.2-5.4-.2-2.2-.1-4.4.4-6.5 1.3-5.3 5-9.4 8.7-13.2 3.2-3.2 7-5.8 11.4-7 1.4-.4 2.8-.7 4.2-.9 1.6-.2 3.1-.5 4.6.2 1.4.6 2.7 1.5 4.1 2.2.1 0 .1.1 0 0 .1.1.1.1.1 0l.2.2c.1.3-.1.9-.3 1.3-.5 1-1.3 1.9-2 2.8-1.5 1.7-3.1 3.3-4.7 4.8-6.7 6.4-14 12.4-21.2 18.2-1.3 1.1-2.6 2.1-3.9 3.2-.2.1.7.5.9.3 8.2-6.5 16.4-13.1 24-20.3 1.9-1.7 3.7-3.5 5.4-5.4.9-1 1.7-2 2.4-3.1.4-.8.8-1.8-.1-2.3-.8-.4-1.7-.8-2.5-1.3-1.1-.7-2.3-1.3-3.6-1.5-1.5-.2-3 .1-4.5.3-4.9.8-9.3 2.8-13.1 6-1.7 1.4-3.2 3-4.6 4.6-2 2.2-3.8 4.5-5 7.2-1.1 2.3-1.7 4.8-1.7 7.4-.1 2.1 0 4.4.9 6.4.3.8.9 1.5 1.6 1.9.2.1.5.2.7.1-.1 0 0-.1-.2-.2z"/><path d="M574.2 595.6c3.9-2.9 2.6-10.2-2.1-11.6 1.9-4.6 1-10.3-2.3-14-.8-.9-1.7-1.7-2.1-2.7-.5-1.1-.3-2.4-.5-3.6-.2-1.6-1.1-3.3-2.5-4.1-1.5-.8-3.5-.5-4.4.9.3-2.1.1-4.4-1.2-6-1.3-1.6-4-2.3-5.6-.9-.7-4.8-6.8-6.6-10.5-4.4 2.2-5.1-2.3-4.3-5.6-4.5-4.7-.3-9.2-1.7-13.9-1.5-5.1.2-10 1.9-15 3-7.4 1.7-15.1 2.3-22.7 2.7-5.8.3-12.3-2.5-17.5 1.2-2.1 1.5-.4 2.6-3.2 3.2-1.7.3-2.8.3-4 2-1.7 2.3-1.8 6.6 1.6 7.3-5.6-.6-8.6 5.3-3.9 8.7-2.5-1.8-6.5 3.1-7.3 4.8-1.6 3.5-.8 7.3 1.7 10.1-2 1.6-3.7 3.7-4.5 6.1-.8 2.5-.4 5.4 1.3 7.2-2.3 1.2-2.7 4.7-1.2 6.9 1.5 2.2 4.2 3.1 6.8 3.5-2.3 1.8-3.2 5.2-2.2 7.9s3.6 2.2 2.9 5.2c-.7 2.7-3.2 3.6-1.4 7 .3.6 4.4 4.4 4.8 3.8-1.4 1.9-1.1 4.7.3 6.6 1.3 1.8 3.9 3.7 6 4.5 1.2.5 2-.2 3.1.6 1.1.7 1.3 2.6 2.4 3.5 1 .8 9.4 3.7 9.5.6-.1 3.8 2.2 7.5 5.6 9.2 3.4 1.7 7.7 1.1 10.6-1.3 3.3 1.6 6.8 3.2 10.5 3.3 3.7.1 7.7-1.8 8.9-5.2 4.1 4.8 12.8 4.6 16.7-.5 3 2.2 7.3 2.5 10.6.6 3.2-1.8 5.2-5.7 4.8-9.4 3.4.3 7 .2 9.9-1.5 2.9-1.7 4.9-5.4 3.8-8.6 5.5-.4 10.6-4.1 12.7-9.2.6-1.4.2-3.8-1.3-3.6 4.8-3.3 5.6-11 1.6-15.2 3.7-3 3.2-10.1-1.2-12.6z"/><path class="st0" d="M563.4 626.7c-.3-3.5-1.7-6.4-5.8-5.5-.8.2-1.6.7-2.5 1.3.5-2.9.9-5.8 1.2-8.7 2.6-28.8-4.5-58.1-41.7-58.1h-.9c-37.2 0-44.3 29.3-41.7 58.1.3 2.9.7 5.8 1.2 8.7-.9-.6-1.7-1.1-2.5-1.3-4.1-.9-5.5 2-5.8 5.5-.5 6.3 3.7 12.2 9.7 15.3 1 .5 3.1 1.1 5.3 1.3 6.9 13.4 18.1 22.4 34.2 21.6 16 .8 27.3-8.2 34.2-21.6 2.2-.3 4.3-.8 5.3-1.3 6.1-3.1 10.3-9 9.8-15.3z"/><path d="M515.3 618.5c0 .8.3 1.5.9 2 .6.5 1.3.8 2 1.3.7.4 1.4 1.1 1.7 2 .2.9.1 1.8-.3 2.7-.4.8-1.1 1.5-1.9 1.9-.8.4-1.7.5-2.5.5-1.7 0-3.4-.5-4.6-1.6.7.4 1.4.7 2.2.8.8.1 1.5.2 2.3.1 1.5-.2 3-.8 3.6-2.1.2-.3.2-.6.3-1v-1c-.1-.6-.6-1.2-1.2-1.6-.6-.5-1.3-.9-1.9-1.5-.6-.8-.8-1.7-.6-2.5zM483.2 598c.9-1.3 2-2.4 3.2-3.4 1.2-1 2.7-1.7 4.3-2.2 1.5-.4 3.1-.6 4.6-.7 1.5 0 3.1 0 4.6.5-1.5.4-3 .7-4.4 1-1.5.3-2.9.7-4.3 1-1.4.4-2.7.9-4 1.6-1.3.8-2.6 1.6-4 2.2zM504.3 636.4c1.4 1.2 3 2.1 4.7 2.8 1.7.6 3.5 1 5.2.9.4 0 .9-.1 1.3-.1l.7-.1.7-.2c.4-.1.9-.2 1.3-.3l1.3-.5c.4-.1.8-.4 1.2-.6l1.2-.6c.8-.4 1.6-1 2.4-1.4l-2.1 1.8c-.8.5-1.5 1.1-2.4 1.5-1.7.9-3.6 1.3-5.5 1.4-1.9.1-3.9-.4-5.6-1.2-1.7-.7-3.2-1.9-4.4-3.4z"/><path class="st7" d="M497.5 628.7c0 2.9-3.7 5.2-8.2 5.2-4.5 0-8.2-2.3-8.2-5.2 0-2.9 3.7-5.2 8.2-5.2 4.5-.1 8.2 2.3 8.2 5.2z"/><path d="M545.2 598c-1.4-.6-2.7-1.4-4-2.1-1.3-.7-2.6-1.2-4-1.6-1.4-.4-2.8-.7-4.3-1-1.5-.3-2.9-.7-4.4-1 1.5-.5 3.1-.6 4.6-.5 1.6.1 3.1.2 4.6.7 1.5.4 3 1.2 4.3 2.2 1.2.9 2.3 2 3.2 3.3z"/><path class="st7" d="M530.9 628.7c0 2.9 3.7 5.2 8.2 5.2 4.5 0 8.2-2.3 8.2-5.2 0-2.9-3.7-5.2-8.2-5.2-4.5-.1-8.2 2.3-8.2 5.2z"/><path d="M469.7 628.3c1 .2 1.9.8 2.7 1.5.8.7 1.5 1.5 2.1 2.3.6.9 1.1 1.8 1.5 2.7.4 1 .7 1.9 1 2.9-.7-.8-1.2-1.7-1.7-2.5-.5-.9-1-1.7-1.6-2.5l-1.8-2.4c-.7-.7-1.4-1.5-2.2-2zM558.7 628.3c-.9.6-1.5 1.3-2.2 2.1-.6.8-1.2 1.5-1.8 2.4-.6.8-1.1 1.6-1.6 2.5-.5.9-1 1.8-1.7 2.5.3-1 .6-1.9 1-2.9.4-.9.9-1.9 1.5-2.7.6-.8 1.3-1.6 2.1-2.3.8-.8 1.7-1.4 2.7-1.6zM495.7 617.1c-1.4 1.4-3.7 1.4-5 0s-1.4-3.7 0-5c1.4-1.4 3.7-1.4 5 0s1.4 3.6 0 5z"/><circle transform="rotate(-44.952 535.222 614.58)" cx="535.2" cy="614.6" r="3.6"/><path d="M540.4 556.3c1.3-1.8 2.2-4.1 2.1-5.4-.3-3.4-7.7-8.4-10-9.6-4.6-2.3-11.6-2.1-16.3-1.6-3.9.4-15.8-1.2-17.1 2.6-3.8-1-10.3-2.3-10.5 3.4-4.7-2.4-9.5-2.2-9.8 3.6-4.8-2.7-12.9 4.7-14.7 8.7-.7 1.6.6 3.9-.1 5.5-.7 1.8-2.8 2.2-3.4 3.7-2 4.8-2.2 6.3 0 11.1-5 2.2-3.4 9.9-.4 13.3-2.6 2.3-3.1 9.1-2 11.7 1.9 4.5 6.9 5.1 8.4 9.2 1.2-.1 2.2-.4 3.1-.8.8.8 1.5 1.8 2 3.1 1.5 3.8-2.2 8.8 3.4 10-.7-6.7-.3-13.4-.5-18.2.7-1.5 1.2-3 1.4-4.5.7-5.1 2.5-11.2 2.8-16.4 5.1 3.7 17.5-4.2 19.2-9.3 1.8 5.9 11 1.8 12.2-2.8 3.7 3 11.3-2 14.6-3.9 3-1.8 5.6-3.8 6.8-6.5.1.3.3.5.5.8.7 1.3 3.2 0 4.1 1.2.7.8-.6 3 .1 3.6 1.9 1.8.5 4.4 5 4.3-.5 8 .8 7 4.4 13.3 2.2 3.8-.7 7.2 5.7 8.9-4.1 6.8 0 8.6 1.6 14.1 1.2 4.1-2.4 8.8-1.5 12.5 1.8 7.5 3.2 1.3 4.4-2.5 1.4-4.2 2.7-8.6 3.4-13 2.7-14.9-1-41.7-18.9-50.1z"/><path class="st9" d="M141.1 691.8c-3.3-1.5-6.5-3-9.6-5.3-.6-.5-1.2-.9-1.7-1.5-10.1-9.4-7.2-25.2-7.2-25.2l-20.4-.2-1.3.2s2.8 15.1-6.5 24.6c-.7.7-1.5 1.5-2.4 2.1-2.5 1.9-5.2 3.3-8 4.6 4.7 2.8 12.7 5.6 25.7 5.4 16.6-.2 24.8-1.7 31.4-4.7zM157.2 719.1h11.7c-3-7.7-6.4-12.8-10.1-16.6-1.4 4.9-1.9 10.9-1.6 16.6z"/><path class="st9" d="M144.8 693.4c-1.2-.6-2.5-1.1-3.7-1.6-6.6 3-14.7 4.5-31.3 4.7-13 .2-21-2.7-25.7-5.4-1 .5-2.1.9-3.1 1.4 3.9 3.2 12.4 7.8 28.8 7.6 19.7-.3 27.5-2.4 35-6.7z"/><path class="st1" d="M156.9 700.8c-3.8-3.4-7.9-5.4-11.9-7.3-.1 0-.2-.1-.2-.1-7.4 4.2-15.2 6.3-35 6.6-16.4.2-24.9-4.3-28.8-7.6-1 .5-2.1.9-3.1 1.4-4.3 2-8.6 4.3-12.7 8.2 2.2 5.6 3.3 11.2 3.3 17.1h86.3c-.4-6.4.4-13.2 2.1-18.3z"/><path class="st9" d="M63.6 703.7c-3.3 3.6-6.3 8.5-9 15.4h11.7c0-5.3-.9-10.3-2.7-15.4zM158.8 702.5c-.6-.6-1.2-1.2-1.8-1.7-1.8 5.1-2.5 11.9-2.1 18.3h2.4c-.4-5.7.1-11.7 1.5-16.6z"/><path class="st9" d="M65.2 702.1c-.5.5-1.1 1.1-1.6 1.7 1.8 5 2.7 10.1 2.7 15.4h2.2c0-5.9-1.1-11.5-3.3-17.1z"/><path d="M180.2 603.7c-.9-2.1-2.6-4-3.5-5.9-1.9-4 .9-8.1.3-12.4-.4-2.7-2.2-5.4-4.8-6.2-.6-.2-1.3-.3-1.6-.7-.3-.4-.3-1-.3-1.5.1-2.4-.1-4.8-1-7s-2.7-4.1-5.1-4.7c-.8-.2-1.6-.3-2.3-.7-1.6-1-1.5-3.2-1.7-5.1-.4-3.9-2.6-7.4-5.5-10-2.2-2.1-5-3.3-7.3-5.3-1.6-1.4-2.6-3.1-4.4-4.3-5.4-3.5-13.2-5.2-19.6-5.2-7.2 0-14.3 1.5-21.3 3.2-3.7.9-6.9 2.4-9.1 4.7-5.2.7-10.1-.4-15.1 1.7-4.7 2-8.6 5.9-10.4 10.7-.4 1.2-.8 2.5-1.6 3.4-1.8 2.2-5.2 1.9-7.6 3.4-1.9 1.2-3 3.3-3.4 5.5-.4 2.2-.3 4.4-.1 6.6.4 5.1-2.5 4.3-5.7 7.3-2.7 2.5-4.4 6.1-3.6 9.8.4 1.8 1.4 3.7.9 5.5-.7 2.8-4.4 4.1-4.8 6.9-.3 1.9.8 3.8.6 5.7-.3 2.3-1.4 3.9-.1 6.4 1.2 2.3 3.9 3.7 4.6 6.2.7 2.7-1 6 .9 8 2.1 2.1 5.8 1 7.3 4 .7 1.4.4 3.3 1.3 4.5 1.2 1.7 4.1 1.7 4.9 3.6.4 1 0 2 0 3.1.1 2.5 2.5 4.4 4.9 5.1 2.4.6 5 .3 7.5.5s5.2 1 6.5 3.2c1.2 1.9 1 4.4 2.3 6.2 1.7 2.4 5.6 2 8.2 2.2 3.9.3 7.8-.1 11.7-.6 5.5-.7 11.4 2.6 16.9 3.1 5.7.5 11.6-1.5 15.9-5.2 1.5-1.3 2.9-2.8 4.8-3.2 2.9-.7 5.6.8 8.6 0 1.4-.4 2.7-.9 4-1.7.6-.4 2.4-2.3 3-2.3 2.3-.1 4.8-.3 6.6-1.8 3.5-3 2.3-9.4 6-12.1 2.7-2 5.3-1.1 5.5-4.9.1-3.2-.7-6.5 1.9-9.1 1.7-1.7 4.5-2.6 4.9-5 .3-1.9-1.2-3.6-1.3-5.5-.1-2.3 1.7-4.2 2-6.4.1-1.3-.3-2.5-.8-3.7z"/><path d="M169.5 580.8c.1 2.2.1 4.4.5 6.5.4 2.1 1.3 4.1 2.7 5.7 1.4 1.6 3.2 2.8 5 4.1 1.7 1.3 3.6 2.8 4.5 5 .9 2.2.6 4.7-.3 6.8-.9 2.1-2.1 4-3.6 5.6-1.5 1.7-3.1 3.2-4.9 4.4-1.8 1.2-3.8 2.4-5.9 2.9 2.1-.7 3.9-1.9 5.6-3.3 1.7-1.3 3.3-2.9 4.6-4.5 1.3-1.7 2.6-3.5 3.3-5.5.8-2 1-4.2.2-6.1-.4-.9-1-1.8-1.8-2.5-.7-.8-1.6-1.5-2.4-2.1-1.7-1.3-3.6-2.6-5-4.3-1.5-1.7-2.4-3.9-2.6-6.1-.1-2.2 0-4.4.1-6.6zM56 572.7c.2 1.1 0 2.2-.3 3.3-.4 1.1-.9 2.1-1.8 2.9-.5.4-1.1.7-1.7.8-.7 0-1.3-.1-1.8-.5-.5-.3-1-.8-1.2-1.3-.3-.6-.1-1.3.3-1.6-.5 1.1.4 1.9 1.3 2.3.4.2.9.3 1.3.2.4 0 .8-.3 1.2-.6.7-.6 1.3-1.5 1.7-2.4.4-1 .8-2 1-3.1zM174 624.7c.1.9.1 1.9.2 2.7.1.9.3 1.7.6 2.4.4.7 1 1.2 1.8 1.5.8.3 1.7.4 2.6.6-.9.3-1.9.4-2.8.1-1-.2-1.9-.9-2.4-1.8s-.6-1.9-.5-2.9c0-.8.2-1.7.5-2.6z"/><path d="M151.5 625.1c.8-5.2 1.5-10.3 2.3-15.4.7-4.7-1.4-11.1-5.3-13.9-2-1.4-4.7-2.5-5.2-4.8-.2-1.2.2-2.4-.3-3.5-.7-1.6-2.8-1.8-4.6-2-2.8-.2-5.7-.6-8.1-2-2.4-1.4-4.3-4-4.3-6.8 0-1.4.4-3-.6-3.9-.4-.4-1.1-.5-1.7-.6-8-1.5-16.4 2.6-22.2-5.1-.5-.7-1.1-1.4-1.8-1.6-1.3-.4-2.9.6-4.1 0-.8-.4-1.3-1.3-2.1-1.3.3 0-1.8 9.3-2.1 10.1-1.2 3.2-2.5 5-5.7 6.2-1.5.5-3.3.7-4.4 1.9-2.5 2.6 0 7.2-1.8 10.3-1.1 2-3.6 2.6-5.5 3.8-5 3.2-3.6 8.5-3.4 13.4.1 3.2-.7 12.8 2.3 15.1-1.5-.2-2.9-1.3-4.2-2.8-.2-.1-.3-.1-.5-.2-4.1-.9-5.5 2-5.8 5.5-.5 6.3 3.7 12.2 9.7 15.3 1 .5 3.1 1.1 5.3 1.3 6.9 13.4 18.1 22.4 34.2 21.6 16 .8 27.3-8.2 34.2-21.6 2.2-.3 4.3-.8 5.3-1.3 6.1-3.1 10.3-9 9.7-15.3-.3-3.5-1.7-6.4-5.8-5.5-.1 0-.1 0-.2.1-.9 1.5-2.1 2.7-3.3 3z" style="fill:#fff;stroke:#000;stroke-linejoin:round;stroke-miterlimit:10"/><path class="st7" d="M95 629.3c0 2.9-3.7 5.2-8.2 5.2s-8.2-2.3-8.2-5.2c0-2.9 3.7-5.2 8.2-5.2s8.2 2.3 8.2 5.2zM128.5 629.3c0 2.9 3.7 5.2 8.2 5.2s8.2-2.3 8.2-5.2c0-2.9-3.7-5.2-8.2-5.2s-8.2 2.3-8.2 5.2z"/><path d="M111.6 629.3c1-.2 1.9-.7 2.6-1.3.8-.6 1.4-1.3 2-2.1.5-.7.9-1.7.3-2.2-.6-.6-1.5-1.1-2.4-1.6-.9-.6-1.7-1.5-2.1-2.4-.5-1-.8-1.9-1-2.9-.4-2-.5-4.1.1-6-.1 1-.1 2 .1 3 .1 1 .3 1.9.6 2.9.5 1.9 1.3 3.7 2.9 4.7.8.5 1.7 1 2.5 1.8.1.1.2.3.3.4.1.2.1.3.2.5 0 .3 0 .6-.1.9-.1.6-.4 1-.8 1.5-.7.8-1.5 1.5-2.3 2-.9.4-1.9.9-2.9.8zM80.8 598.5c.8-1.4 1.9-2.5 3.1-3.6 1.2-1 2.7-1.8 4.3-2.3 1.6-.4 3.1-.6 4.7-.6s3.1.1 4.7.7c-1.5.5-3 .9-4.4 1.2-1.4.4-2.9.7-4.2 1.1-1.3.4-2.6.9-3.9 1.5-1.5.7-2.8 1.4-4.3 2zM101.9 636.9c1.4 1.2 3 2.1 4.7 2.8 1.7.6 3.5 1 5.2.9.4 0 .9-.1 1.3-.1l.7-.1.7-.2c.4-.1.9-.2 1.3-.3l1.3-.5c.4-.1.8-.4 1.2-.6l1.2-.6c.8-.4 1.6-1 2.4-1.4l-2.1 1.8c-.8.5-1.5 1.1-2.4 1.5-1.7.9-3.6 1.3-5.5 1.4-1.9.1-3.9-.4-5.6-1.2-1.7-.7-3.3-1.9-4.4-3.4zM142.8 598.5c-1.5-.6-2.8-1.3-4.2-1.9-1.3-.6-2.6-1.1-3.9-1.5-1.3-.4-2.8-.7-4.2-1.1-1.5-.4-2.9-.8-4.4-1.2 1.5-.6 3.1-.7 4.7-.7s3.1.2 4.7.6c1.6.5 3.1 1.2 4.3 2.3 1.1 1 2.1 2.1 3 3.5zM67.2 628.8c1 .2 1.9.8 2.7 1.5.8.7 1.5 1.5 2.1 2.3.6.9 1.1 1.8 1.5 2.7.4 1 .7 1.9 1 2.9-.7-.8-1.2-1.7-1.7-2.5-.5-.9-1-1.7-1.6-2.5l-1.8-2.4c-.7-.7-1.3-1.5-2.2-2zM156.3 628.8c-.9.6-1.5 1.3-2.2 2.1-.6.8-1.2 1.5-1.8 2.4-.6.8-1.1 1.6-1.6 2.5-.5.9-1 1.8-1.7 2.5.3-1 .6-1.9 1-2.9.4-.9.9-1.9 1.5-2.7.6-.8 1.3-1.6 2.1-2.3.8-.8 1.7-1.4 2.7-1.6z"/><circle transform="rotate(-45.001 90.777 615.187)" cx="90.8" cy="615.2" r="3.6"/><path d="M130.3 617.7c1.4 1.4 3.7 1.4 5 0 1.4-1.4 1.4-3.7 0-5-1.4-1.4-3.7-1.4-5 0-1.4 1.4-1.4 3.6 0 5z"/><path class="st11" d="M82.3 550.4c14-6.7 33.2-8.9 48.7-4.8 7.7 2 14.5 5.8 20.2 10.5 6.4 5.2 9.9 12.9 11.8 20.7 2.1 8.2 2.3 15.3 1.2 23.6-.8 5.8-3.1 11.7-7.8 16.1 3-13-.2-30.2-8.9-40.5-3.7-4.4-8-6.2-12.8-9-7.8-4.7-17-7.1-26.1-6.8-16.6.5-34.1 9.9-39.2 26.3-3.4 10.9-.9 25.9-1.1 35.4-4.3-4.4-7.2-13.5-8.6-19.4-2.3-9.9-2-20.7 1.1-30.4 3.7-11.3 11.3-16.8 21.5-21.7z"/><path d="M82.7 550.6c7.9-3.7 16.5-5.8 25.1-6.6 8.8-.8 18.1-.2 26.5 2.7 4.3 1.5 8.4 3.6 12.2 6.2 3.6 2.5 6.9 5.3 9.5 8.8 2.5 3.5 4.3 7.5 5.6 11.6 1.4 4.6 2.4 9.3 2.7 14.1.3 4.8.1 9.8-.8 14.5-.8 4.3-2.5 8.4-5.2 11.8-.7.9-1.5 1.7-2.3 2.5l.9.3c1.2-5.3 1.3-10.8.7-16.2-.6-5.6-2.1-11.2-4.6-16.3-2.4-5.1-5.8-9.7-10.5-12.8-2.5-1.6-5.1-3-7.7-4.5-2.8-1.6-5.7-3-8.8-4.1a49.37 49.37 0 0 0-34.1.5c-9.6 3.8-18.1 10.7-22.1 20.4-2.2 5.4-2.7 11.2-2.8 17 0 5.8.5 11.6.7 17.5 0 1.2.1 2.4 0 3.6.3 0 .6.1.9.1-1.7-1.8-3-4-4.1-6.2-1.2-2.4-2.1-4.9-2.9-7.4-1.8-5.6-2.9-11.3-3.1-17.1-.2-6.4.6-12.9 2.6-19 1.5-4.7 4-9 7.6-12.5 4.2-3.7 9.1-6.5 14-8.9.3-.2-.5-.5-.8-.4-4.5 2.1-8.9 4.6-12.6 7.9-3.7 3.2-6.5 7.3-8.3 11.9-2.3 6-3.3 12.5-3.3 18.9 0 5.9.9 11.8 2.5 17.5.8 2.9 1.8 5.8 3.1 8.6 1.2 2.5 2.5 5 4.5 7 .1.1.9.4.9.1.2-11.1-2.1-22.4.5-33.4 2.5-10.2 10-18.2 19.1-22.9 10-5.1 21.7-6.6 32.6-4 3.2.8 6.3 1.9 9.3 3.3 2.8 1.3 5.4 2.9 8 4.4 2.6 1.5 5.1 3 7.3 5.1 2 1.9 3.6 4.2 5 6.6 2.7 4.7 4.5 9.9 5.5 15.3s1.3 10.9.5 16.4c-.2 1.2-.4 2.5-.7 3.7-.1.3.8.5.9.3 3.3-3.1 5.5-7.1 6.8-11.4.7-2.3 1-4.6 1.3-6.9.3-2.5.4-5 .4-7.5-.1-5-.8-9.9-2.1-14.7-1.1-4.2-2.7-8.4-5-12.2-2.3-3.8-5.3-6.9-8.9-9.6-3.6-2.7-7.6-5-11.8-6.8-8.4-3.5-17.6-4.6-26.6-4.3-9 .3-18 2.1-26.3 5.5-1 .4-1.9.8-2.9 1.3 0 .1.9.4 1.1.3z"/><path class="st11" d="M90.5 550.2c-7.5-6-15.3 1.6-23.2 2 1.8 8.6 6.7 9.2 10 10.6 3 1.3 6.6 2 9.8 1.4 2.8-.5 8.4-2.6 3.4-14z"/><path d="M91 550.2c-2.6-2.1-5.7-2.8-8.9-2.3-3.3.5-6.3 1.9-9.4 2.9-1.8.6-3.6 1.1-5.5 1.2-.1 0-.3.1-.3.2.7 3.2 2 6.4 4.8 8.3 1 .7 2 1.2 3.1 1.6 1.2.5 2.4 1 3.7 1.4 3.2 1.1 7 1.7 10.3.6 1.6-.5 3-1.6 3.7-3.1 1.4-3.4-.1-7.6-1.5-10.8-.1-.2-1-.2-.9 0 1.7 4 3.9 10.9-1.4 13.3-2.7 1.2-6 .8-8.8 0-1.3-.4-2.6-1-3.9-1.4-1-.4-2-.8-2.9-1.3-3.1-1.8-4.5-5.1-5.2-8.5-.1.1-.2.1-.3.2 3.9-.2 7.5-2 11.1-3.2 1.8-.6 3.7-1.1 5.6-1.1 2.2 0 4.1.8 5.8 2.2.2.1.5.2.7.2.1-.2.4-.3.2-.4z"/><path class="st11" d="M95.6 550c-.4-4.4 4.5-7.8 7.6-10.2 3.1-2.3 6.1-7.2 9.7-8.6 1.5 5.5 3.3 10.4 3.1 16.3-.3 7.3-16.2 17-20.4 2.5z"/><path d="M96 550c-.2-3.5 2.6-6.2 5.1-8.2 1.2-1 2.6-1.9 3.7-2.9 1.3-1.2 2.5-2.6 3.7-3.9 1.3-1.4 2.8-2.8 4.7-3.5l-.9-.3c1.2 4.5 2.8 8.9 3.1 13.5.1 1.5.2 3-.3 4.4-.3 1-.9 1.9-1.5 2.7-1.4 1.8-3.3 3.3-5.4 4.3-2 .9-4.4 1.4-6.5.8-3.1-.9-4.8-4-5.7-6.9-.1-.3-1-.4-1-.2.8 2.8 2.4 5.6 5.1 6.9 2.2 1.1 4.8 1.1 7.1.5 2.4-.7 4.6-2.1 6.3-3.9 1.5-1.5 2.8-3.5 2.8-5.7.2-5.6-1.7-11-3.1-16.4-.1-.3-.6-.4-.9-.3-3.4 1.3-5.6 4.6-8.1 7.1-2.4 2.4-5.5 4-7.6 6.8-1.1 1.5-1.8 3.1-1.7 5 .2.3 1.2.6 1.1.2z"/><path d="M101 552.2c1.3-2.5 2.4-5.5 5.1-6.8.6-.3.1-1.1-.5-.9-2.9 1.4-4.1 4.5-5.5 7.2-.2.5.6 1 .9.5zM102.1 553.8c1.8-.7 3.7-1.4 5.3-2.6.2-.2.2-.5 0-.7-.2-.2-.5-.2-.7 0-1.4 1.1-3.1 1.8-4.8 2.4-.3.1-.4.3-.3.6 0 .2.3.4.5.3zM78.5 555.4c1.6-.8 3.2-1.3 5-1.4 1.7-.1 3.4.3 5 .9.6.2.9-.7.3-1-1.7-.6-3.6-1-5.4-.9-1.9.1-3.6.7-5.3 1.5-.7.3-.2 1.2.4.9zM82.8 560.5c2.3-.9 4.6-1.8 6.8-2.8.6-.3.1-1.1-.5-.9-2.1 1-4.4 1.8-6.6 2.7-.3.1-.4.3-.3.6.1.3.4.5.6.4z"/><path class="st11" d="M97.9 545.5c-3.8.6-8.3 1.4-11.4 3.9-2.6 2.1-2 5.7-.4 8.7 2.1 4 5.9 4.6 9.9 3.7 3.3-.8 8.4-2 9.2-5.4.7-2.8-.6-9.4-7.3-10.9z"/><path d="M97.6 545.2c-2.4.4-4.9.8-7.2 1.6-2 .7-4.5 1.8-5.6 3.8-1 1.9-.5 4.3.3 6.3s2.1 3.7 4.1 4.6c1.9.8 3.9.9 5.9.6 2-.3 4-.9 5.9-1.6 1.7-.7 3.5-1.7 4.3-3.4.5-1.2.5-2.5.3-3.8-.7-4.1-3.7-7.1-7.7-8.1-.1 0-.5-.1-.5.1s.3.3.4.3c3.4.8 5.8 3.4 6.7 6.7.3 1.1.4 2.4.2 3.5-.3 1.6-1.6 2.8-3 3.6-1.6.9-3.5 1.4-5.3 1.8-1.9.5-3.8.8-5.7.4-2-.5-3.5-2.1-4.4-3.9-.9-1.8-1.5-3.9-1-5.9.7-2.4 3.2-3.6 5.3-4.4 2.4-.9 4.9-1.4 7.5-1.8.6 0-.2-.4-.5-.4z"/><path d="M159.8 593c-1.5-3.9-.7-10-3.3-13.3-1.7-2.1-3.5-1.5-5.6-2.6-2.5-1.4-2.9-3.8-4.2-6.2-2.7-5-8.1-9.5-14-9.5-2.1 0-4 .9-6.1.3-3.4-.9-6.3-3.7-9.8-4.5-4.4-1.1-9.9-1.3-14.2.4-4.7 1.9-5.7 9.3-2.9 13.6 2 3.1 5.8 4.6 9.5 5 3.6.4 7.8.3 10 3.1 1.5 1.9 1.5 4.6 3 6.6 2.2 2.9 6.5 3 10.1 2.8 3.8-.2 7.7.1 10 3.5 2.3 3.3 1.4 7.6 5.2 10.1 5 3.3 6.7 6.1 3.1 11.8-1.2 1.9-2.4 4.4-1.3 6.3.5.9 1.4 1.5 1.6 2.5.4 1.8-1.8 3-3 4.5-1.3 1.7-1 4.5.7 5.9 0-1.2 0-2.5.8-3.4 1.4-1.6 4.2-.8 5.9-2 2.4-1.7 1.2-5.7 2.8-8.2 1.2-1.8 3.5-2.4 4.6-4.2 1.2-2 1-4.6.7-6.7-.7-5.2-1.6-10.7-3.6-15.8z"/><path d="M77.3 593.9c-4.6 1.1-7.8 7.5-8.3 12-.4 4.2 1.4 9 2.5 13-3.1-7.2-1.9-15.2-1.2-22.7.5-5.3 1.7-8.1 5.1-12.3 4.7-5.9 8.6-16 26.4-22.9-1.9 5.3-2.3 7.8-4.1 13.2-.7 2-2.1 4.6-3.9 5.8-1.5 1-3.9.8-5.3 1.8-2.5 1.9-1 5-2.4 7.8-1.7 3.1-4.7 2.4-7.1 4.2-2.4 1.8-2 5.3-3.9 7.7-1.1 1.3-2.5 2.4-3.3 3.9-1.6 3.1-.1 7 2.3 9.6 1.1 1.2 2.6 2.8 1.9 4.3-.3.6-.8 1-1.2 1.5-1.1 1.3-1.2 3.4-.3 4.8-2.7.4-5.3-2.1-5.2-4.8.1-1.6.8-3.7-.6-4.6-.5-.3-1.2-.3-1.8-.6-2.1-.7-2.4-3.5-2.1-5.7.3-2.2.9-4.7-.5-6.4-.6-.8-1.6-1.3-2.3-2.1-1.7-2.2-.1-5.4 1.9-7.4s4.5-3.9 4.7-6.6c.2-2.3-1.3-4.4-1.6-6.7-.3-2.9 1.5-5.8 3.9-7.5 2.4-1.7 5.4-2.5 8.2-3.1 2.8-.6 5.9-1.3 7.7-3.5.9-1.2 1.4-2.7 2.3-3.8 2.8-3.5 8.1-3 12.5-2.2"/><path d="M98.7 562.1c-.1 1.8-.2 3.7.2 5.4.4 1.7 1.2 3.3 2.4 4.6 1.1 1.3 2.7 1.9 4.5 2.3 1.7.4 3.6.7 5.5 1.5.9.4 1.8 1.2 2.3 2.2.2.5.4 1 .5 1.5.1.5.1 1 .1 1.6-.1 1.1-.5 2-.8 2.9-.4.9-.8 1.7-1.1 2.5-.3.8-.6 1.7-.6 2.5s.3 1.5 1 2.1c.6.6 1.5.9 2.2 1.6.4.3.7.7.9 1.2.2.4.2.9.2 1.4-.1-.9-.6-1.7-1.4-2.2-.7-.5-1.6-.7-2.5-1.3-.9-.6-1.4-1.6-1.5-2.6-.1-1 .2-2 .5-2.9.6-1.8 1.5-3.5 1.6-5 0-.8-.1-1.7-.4-2.3-.3-.7-.9-1.1-1.6-1.5-1.5-.7-3.3-1-5.1-1.5-.9-.3-1.8-.6-2.7-1-.9-.5-1.7-1.1-2.3-1.9-1.2-1.6-2-3.4-2.2-5.3-.5-2.1-.1-4 .3-5.8zM68.2 584c.5 1.1.9 2.4.7 3.8-.1.7-.3 1.3-.7 1.9-.4.6-.9 1.1-1.5 1.4-1.2.7-2.8.7-4-.1-.6-.4-1-1-1.2-1.7-.1-.7 0-1.3.2-1.9 0 .6 0 1.3.2 1.8s.6.9 1.1 1.2c1 .5 2.2.4 3.2-.1s1.7-1.5 1.9-2.6c.3-1.2.3-2.4.1-3.7z"/><path class="st0" d="M534.1 478.8c-1.7-1.2-3-2.7-4.2-4.2-7.1-9.4-4.7-22.5-4.7-22.5l-20.4-.2-1.3.2s2.4 13-4.7 22.5c-.8 1.1-1.8 2.2-3 3.2l5.2 3 14.2 8.3 13.9-7.5 5-2.7c.1 0 .1 0 0-.1z"/><path class="st0" d="m534.3 479-5 2.7-13.9 7.5-14.2-8.3-5.2-3c-.4.4-.8.7-1.3 1-.4.3-.8.5-1.2.8l4.6 2.7 17.2 10 17-9.1 4.6-2.5c-.8-.6-1.7-1.2-2.6-1.8z"/><path class="st1" d="m498.1 482.4-4.6-2.7c-6.2 4.2-13 5.9-19.6 10-6.1 3.8-12 9.8-16.7 21.8h8.6c3.7-12.8 20.8-23.4 32.3-29.1zM554.9 489.7c-5.9-3.7-12.1-5.5-17.9-8.9l-4.6 2.5c11.4 5.9 27 16.1 30.5 28.2h8.6c-4.7-12.1-10.5-18-16.6-21.8z"/><path class="st9" d="m532.4 483.2-17 9.1-17.2-10c-11.5 5.8-28.6 16.3-32.3 29.1H563c-3.6-12.1-19.2-22.2-30.6-28.2z"/><path class="st1" d="M551.7 505.4c0 1.7-3.3 3.1-7.3 3.1s-7.3-1.4-7.3-3.1c0-1.7 3.3-3.1 7.3-3.1s7.3 1.4 7.3 3.1z"/><path class="st4" d="M465.6 364c-.6 1.7-1.1 3.5-1.4 5.3-1.9 12.5-1.1 37.4 5.1 48.6 3.6 6.6 11.1-2.6 17.4-1 17.1 4.4 34.9 4.5 52.5 6.9 8 0 12.8 3 17.4-3.6 4.5-6.6 8.2-21.2 8.7-29.2 1.4-21.1-8.6-48.9-32.3-54.6-12.6-3.1-22.8-4.2-35-.2-12.4 4-27.5 14.5-32.4 27.8z"/><path d="M465.1 363.9c-1.8 4.8-2 10.1-2.2 15.1-.2 5.3 0 10.6.4 15.9.4 5.1 1.2 10.2 2.5 15.2.6 2.1 1.3 4.2 2.2 6.1.8 1.7 1.7 3.5 3.7 4.1 1.8.5 3.6-.1 5.3-.7 2.1-.8 4.1-1.9 6.3-2.4 1.1-.2 2.1-.3 3.2-.1 1.8.4 3.5.9 5.3 1.2 3.5.7 7 1.3 10.5 1.8 7.2 1 14.5 1.6 21.7 2.3 3.7.3 7.3.7 11 1.1 1.7.2 3.5.5 5.2.6 1.3 0 2.6.1 3.8.3 2.2.2 4.4.6 6.5.3 2.1-.3 3.9-1.3 5.3-2.8 1.5-1.7 2.6-3.8 3.6-5.9 1.1-2.4 2-5 2.8-7.6 1.6-5 2.7-10.2 3.3-15.5.5-4.5.3-9-.2-13.5-1.1-9.4-4.2-18.9-9.5-26.8-5.3-7.9-13-14-22.4-16.3-6.4-1.6-13.1-2.9-19.7-2.9-6.4 0-12.8 1.2-18.7 3.5-5.1 2-10 4.7-14.4 8-4.6 3.4-8.7 7.4-11.9 12.1-1.5 2.2-2.7 4.5-3.6 6.9-.1.2.9.5 1 .2 1.9-5.1 5.2-9.6 9.1-13.5 4-4 8.6-7.3 13.5-10 5-2.8 10.5-4.8 16.1-5.9 6.4-1.2 13-1 19.4.1 5.6.9 11.3 2.1 16.3 4.7 4.1 2.1 7.7 5.1 10.8 8.6 6.2 7.1 10.1 16.1 12 25.2 1 4.5 1.5 9.1 1.5 13.7s-.6 9.2-1.6 13.7c-1.1 5.1-2.6 10.3-4.8 15.1-1 2.1-2.1 4.2-3.7 5.9-1.4 1.5-3.3 2.4-5.4 2.5-2.2.1-4.5-.3-6.7-.5-1.3-.1-2.7-.1-4-.2-1.7-.2-3.4-.5-5.1-.7-7.1-.8-14.2-1.4-21.3-2.1-7.1-.7-14.2-1.6-21.1-3.1-2.6-.6-5.1-1.6-7.8-1.1-2.1.4-4.1 1.3-6.1 2.2-1.5.7-3.6 1.7-5.3 1.2-1.8-.6-2.7-2.9-3.3-4.5-1.8-4.3-2.8-8.9-3.5-13.5-.8-5.2-1.2-10.5-1.3-15.8-.1-4.7 0-9.4.6-14.1.3-2.7.8-5.3 1.7-7.9.1-.3-.9-.5-1-.2z"/><path class="st0" d="M563.6 419.8c-.3-3.5-1.7-6.4-5.8-5.5-.3.1-.6.2-.8.3-.5 1.2-1.2 2.2-2 2.5-3.2 1.5-3.5-5.3-3.5-7.5.2-12.2-.7-25.1-3-37.9-.4-2.4-2.4-8.3-5.1-8.5-2.2-.2-21.3 10.5-57.9.3-5.7-1.6-8.3 32.1-8.3 37.2 0 4.9 1.8 20.5-1.7 17.1-1-.2-1.8-1.3-2.5-2.6-.7-.5-1.4-.8-2-1-4.1-.9-5.5 2-5.8 5.5-.5 6.3 3.7 12.2 9.7 15.3 1 .5 3.1 1.1 5.3 1.3 6.9 13.4 18.1 22.4 34.2 21.6 16 .8 27.3-8.2 34.2-21.6 2.2-.3 4.3-.8 5.3-1.3 6-3.1 10.2-8.9 9.7-15.2z"/><path d="M513.7 393.5c-.2 2.8-.2 5.6 0 8.4.2 2.8.6 5.5 1.3 8.3l.2 1 .1.5c0 .1.1.2.2.4.3.6.8 1.1 1.2 1.7.8 1.1 1.7 2.2 2.4 3.6.3.7.6 1.4.6 2.2 0 .8-.6 1.6-1.2 1.9-.7.3-1.4.5-2.1.5-.7.1-1.4 0-2.1 0 1.4-.1 2.9-.2 4-.9.6-.3.9-.9.8-1.5 0-.6-.3-1.2-.6-1.8-.7-1.2-1.6-2.2-2.5-3.3-.4-.6-.9-1.1-1.3-1.8-.1-.2-.2-.3-.3-.6l-.1-.5c-.1-.3-.2-.7-.3-1-.6-2.8-1-5.6-1.1-8.4-.1-3.1.2-6 .8-8.7zM483.4 391c.8-1.4 1.8-2.7 3-3.7 1.2-1.1 2.8-1.9 4.3-2.3 1.6-.5 3.2-.6 4.7-.6 1.6 0 3.2.2 4.7.9-1.5.6-3 1-4.4 1.4l-4.2 1.1c-1.3.4-2.6.8-3.9 1.4-1.3.6-2.7 1.3-4.2 1.8zM504.5 429.5c1.4 1.2 3 2.1 4.7 2.8 1.7.6 3.5 1 5.2.9.4 0 .9-.1 1.3-.1l.7-.1.7-.2c.4-.1.9-.2 1.3-.3l1.3-.5c.4-.1.8-.4 1.2-.6l1.2-.6c.8-.4 1.6-1 2.4-1.4l-2.1 1.8c-.8.5-1.5 1.1-2.4 1.5-1.7.9-3.6 1.3-5.5 1.4-1.9.1-3.9-.4-5.6-1.2-1.7-.8-3.2-2-4.4-3.4zM545.4 391c-1.6-.5-2.9-1.2-4.3-1.7-1.3-.6-2.6-1-3.9-1.4l-4.2-1.1c-1.4-.4-2.9-.9-4.4-1.4 1.5-.7 3.1-.9 4.7-.9s3.1.1 4.7.6 3.1 1.3 4.3 2.3c1.3 1 2.3 2.2 3.1 3.6zM469.9 421.3c1 .2 1.9.8 2.7 1.5.8.7 1.5 1.5 2.1 2.3.6.9 1.1 1.8 1.5 2.7.4 1 .7 1.9 1 2.9-.7-.8-1.2-1.7-1.7-2.5-.5-.9-1-1.7-1.6-2.5l-1.8-2.4c-.7-.7-1.4-1.5-2.2-2zM558.9 421.3c-.9.6-1.5 1.3-2.2 2.1-.6.8-1.2 1.5-1.8 2.4-.6.8-1.1 1.6-1.6 2.5-.5.9-1 1.8-1.7 2.5.3-1 .6-1.9 1-2.9.4-.9.9-1.9 1.5-2.7.6-.8 1.3-1.6 2.1-2.3.8-.8 1.7-1.4 2.7-1.6zM495.9 410.1c-1.4 1.4-3.7 1.4-5 0-1.4-1.4-1.4-3.7 0-5 1.4-1.4 3.7-1.4 5 0 1.4 1.3 1.4 3.6 0 5zM532.9 410.1c1.4 1.4 3.7 1.4 5 0 1.4-1.4 1.4-3.7 0-5-1.4-1.4-3.7-1.4-5 0-1.4 1.3-1.4 3.6 0 5z"/></svg>