<svg width="240" height="325" viewBox="0 0 240 325" fill="none" xmlns="http://www.w3.org/2000/svg">
<path fill-rule="evenodd" clip-rule="evenodd" d="M117.565 124.562C120.404 123.776 123.668 123.867 126.581 124.068C129.539 124.273 132.714 124.623 135.49 125.728C137.903 126.689 139.938 128.304 141.177 130.619C142.197 132.521 142.675 134.608 142.975 136.728C143.097 137.595 143.2 138.465 143.297 139.335L143.498 141.146C143.576 141.838 143.645 142.357 143.783 143.13C144.164 145.266 144.694 147.051 145.878 148.606C148.747 152.369 153.43 153.629 157.689 155.235C160.414 156.263 162.572 158.112 163.171 161.083C163.749 163.949 185.713 187.994 187.869 190.021L187.928 190.076C189.601 191.583 189.404 194.414 189.638 196.482C189.889 198.699 190.128 200.918 190.354 203.137C190.814 207.645 191.224 212.159 191.584 216.676C192.991 234.344 193.629 252.073 193.494 269.796L193.485 270.799C193.464 273.048 193.481 275.307 193.38 277.554C193.283 279.714 192.63 281.875 190.63 283.003C188.776 284.049 186.433 283.957 184.362 284.061L184.238 284.067C182.016 284.189 179.793 284.289 177.568 284.371C168.529 284.706 159.482 284.742 150.437 284.7C132.494 284.618 114.533 284.223 96.607 285.228C92.0375 285.484 77.4697 283.928 72.9146 284.371C68.5608 284.795 72.2964 286.931 69.6068 286.79C60.7614 286.327 52.3711 284.353 43.8964 281.975C42.8377 281.678 42.0281 280.65 42.0414 279.539C42.1988 267.336 42.5432 255.136 43.0813 242.944C43.5607 232.084 44.1923 221.23 44.9759 210.387C45.3166 205.675 45.686 200.963 46.0839 196.255L46.2562 194.237C46.481 191.635 46.6103 188.985 47.1218 186.419C47.6278 183.881 48.7756 181.68 50.4399 179.714C51.9334 177.95 68.8422 164.139 72.9146 161.525C76.8125 159.022 80.9056 156.911 84.9072 154.591C86.572 153.626 88.1709 153.973 89.5931 152.789C90.3429 152.164 101.223 147.957 104.158 146.568L104.244 146.527C106.491 145.449 108.558 144.28 110.111 142.415C110.631 141.79 111.652 137.852 111.654 136.594C111.657 134.347 111.487 131.979 112.165 129.802C112.975 127.199 114.929 125.292 117.565 124.562ZM122.379 182.512L104.994 216.381H116.298L108.195 235.2H125.99L119.678 261.558L155.777 216.381H142.23L155.777 198.594H146.381L155.777 183.531L122.379 182.512Z" fill="white"/>
<path fill-rule="evenodd" clip-rule="evenodd" d="M180.777 201.558C180.737 201.598 180.695 201.638 180.655 201.68C180.701 201.615 180.741 201.547 180.777 201.48V201.558ZM146.991 191.692C145.43 193.687 143.778 197.747 142.261 199.778C142.043 200.07 141.83 200.361 141.619 200.655C140.989 201.536 141.83 202.885 142.865 202.828C144.934 202.718 147 202.564 149.066 202.407C144.822 207.139 141.298 213.017 137.4 218.03C137.136 218.366 136.876 218.705 136.616 219.043C135.629 220.33 136.618 220.913 137.966 220.566C138.245 220.495 138.524 220.423 138.803 220.353C140.763 219.85 142.722 219.347 144.682 218.846C145.766 218.567 146.856 218.223 147.955 218.009C148.407 217.923 148.84 217.994 149.267 218.018C149.062 218.33 148.774 218.895 148.717 218.981C148.077 219.979 147.433 220.972 146.784 221.961C145.521 223.885 144.251 225.806 142.935 227.693C137.801 235.052 132.264 242.078 126.775 249.169C125.393 250.952 123.993 252.717 122.569 254.465C122.575 254.454 122.579 254.444 122.586 254.433C123.868 251.935 125.15 249.439 126.433 246.941C128.871 242.194 131.286 237.434 133.749 232.7C133.876 232.453 134.005 232.208 134.134 231.96C134.645 230.98 133.806 229.961 132.756 230.168C127.634 231.178 122.561 232.418 117.551 233.887C117.326 234.128 116.994 234.198 116.698 234.14C116.497 234.2 116.295 234.258 116.093 234.319C116.155 234.193 116.218 234.067 116.279 233.941C116.074 233.763 115.973 233.488 116.106 233.144C118.988 225.703 122.941 218.519 127.624 211.94C127.435 211.944 127.247 211.946 127.058 211.952C121.918 212.091 116.875 212.829 111.921 214.23C111.898 213.771 112.174 213.062 112.324 212.723C112.924 211.373 113.613 210.054 114.258 208.724C115.576 205.994 116.894 203.265 118.212 200.535C119.501 197.867 120.779 195.192 121.992 192.487C122.628 191.068 123.264 189.648 123.898 188.228C124.415 187.072 124.823 185.907 125.252 184.724C126.511 185.094 142.679 185.174 146.609 185.446C147.572 185.514 148.538 185.575 149.503 185.628C150.272 185.673 151.356 185.842 151.886 185.146L152.087 185.315C150.342 187.403 148.669 189.549 146.991 191.692ZM83.8667 152.896C83.947 152.861 84.0251 152.825 84.1033 152.789C84.1435 152.846 84.192 152.899 84.2427 152.951C84.3695 153.08 84.4942 153.22 84.6251 153.347C84.3716 153.198 84.1181 153.048 83.8667 152.896ZM196.861 271.673C196.715 268.594 196.553 265.514 196.379 262.435C196.037 256.416 195.684 250.397 195.213 244.386C194.256 232.206 193.365 220.03 191.93 207.894C191.328 202.807 190.487 197.758 189.644 192.706C189.752 192.609 189.862 192.512 189.97 192.417C189.853 193.799 191.729 194.674 192.659 193.296C192.729 193.192 192.796 193.089 192.864 192.981C193.669 191.679 195.524 185.292 195.395 184.751C195.162 183.777 194.516 182.91 194.011 182.052C193.57 181.302 193.124 180.551 192.672 179.808C191.77 178.317 190.84 176.842 189.866 175.399C187.848 172.41 185.643 169.54 183.044 167.032C180.355 164.432 177.268 162.295 174.08 160.357C172.548 159.427 170.968 158.584 169.358 157.797C167.77 157.024 166.031 156.168 164.32 155.728C164.222 155.703 164.123 155.838 164.212 155.91C164.666 156.27 165.141 156.608 165.625 156.933C164.315 156.479 162.965 156.151 161.605 156.035C158.97 155.109 156.304 154.262 153.682 153.296C151.105 152.345 148.565 151.275 146.852 149.022C145.388 147.097 144.462 144.74 143.75 142.445C142.969 139.915 142.658 137.286 141.936 134.752C141.879 134.547 141.543 134.524 141.498 134.752C140.983 137.411 141.006 140.399 141.3 143.083C141.608 145.898 142.4 148.661 144.124 150.95C146.127 153.611 148.844 155.092 151.901 156.274C154.367 157.229 156.864 158.201 159.389 159.055C159.059 159.271 158.725 159.486 158.381 159.691C157.012 160.505 155.588 161.228 154.132 161.877C151.474 163.062 148.675 163.95 145.859 164.671C140.617 166.006 135.243 166.685 129.839 166.774C119.026 166.953 108.093 164.688 98.2033 160.313C95.4188 159.081 92.6998 157.726 90.0082 156.303C89.1674 155.859 88.3223 155.411 87.4815 154.951C87.5512 154.947 87.623 154.94 87.6927 154.934C89.5709 154.756 91.4258 154.395 93.2427 153.883C96.9632 152.833 100.529 151.195 104.032 149.582C107.003 148.215 110.062 146.657 111.877 143.808C112.846 142.285 113.292 140.497 113.653 138.747C114.057 136.798 114.532 134.841 114.826 132.873C114.929 132.184 114.775 131.252 114.036 130.927C113.74 130.797 113.497 130.692 113.165 130.692C112.432 130.692 111.68 131.225 111.505 131.956C111.072 133.78 110.81 135.654 110.47 137.497C110.176 139.091 109.908 140.754 109.048 142.155C107.546 144.609 104.6 145.865 102.112 147.059C98.9575 148.572 95.8012 150.047 92.5244 151.275C91.0815 151.816 89.6132 152.307 88.1237 152.708C88.1829 152.343 88.1322 151.958 87.9167 151.668C87.5575 151.191 87.1498 150.874 86.6871 150.508C86.1843 150.111 85.5082 149.904 84.9146 150.079C84.9146 150.081 84.9125 150.079 84.9125 150.079C84.6716 150.026 84.4054 150.047 84.1308 150.172C83.2815 150.561 82.4343 150.954 81.5871 151.354C69.3991 157.09 57.5575 163.827 48.5892 174.088C47.2963 175.568 46.0857 177.124 44.9512 178.727C43.8484 180.285 42.4836 181.976 42.1794 183.908C42.154 184.068 42.3885 184.142 42.4287 183.977C42.5005 183.679 42.5977 183.388 42.7181 183.105C42.4667 183.984 42.4815 184.918 42.8364 185.837C43.2568 186.919 44.028 187.636 45.0019 187.921C44.0237 192.21 43.3667 196.555 42.8385 200.949C42.0801 207.279 41.5413 213.624 41.1357 219.985C40.3244 232.681 39.9632 245.44 40.2251 258.159C40.2991 261.754 40.4216 265.35 40.6075 268.943C40.7005 270.739 40.8019 272.533 40.9181 274.33C41.0322 276.097 40.9392 278.043 42.4794 278.975C42.4984 279.045 42.5195 279.113 42.5385 279.182C42.9125 280.486 44.5794 280.068 44.7357 278.884C44.7378 278.872 44.7399 278.857 44.742 278.844C46.0012 277.883 45.8111 276.281 45.7181 274.744C45.6188 273.085 45.5132 271.428 45.4244 269.771C45.2554 266.592 45.1118 263.414 44.9829 260.233C44.7315 253.943 44.5899 247.645 44.5434 241.351C44.4505 228.76 45.1773 216.189 46.0392 203.635C46.4005 198.383 46.823 193.154 46.9519 187.904C47.6258 187.553 47.8329 186.556 47.4949 185.884C55.4765 191.332 62.8836 197.846 68.8308 205.417C69.8237 206.681 70.7723 207.983 71.6808 209.308C71.9765 209.739 72.2575 210.187 72.5406 210.635C72.266 211.884 72.0526 213.154 71.7737 214.353C71.1991 216.828 70.9561 219.395 70.6266 221.911C69.9568 227.019 69.4857 232.174 69.0864 237.31C68.3005 247.452 67.7174 257.593 67.5336 267.765C67.4322 273.518 67.297 279.307 67.5505 285.058C67.3625 286.182 68.3744 287.281 69.4329 287.423C70.3604 287.547 71.2265 287.066 71.6322 286.29C74.5223 286.649 77.4885 286.814 80.3596 286.835C84.228 286.863 88.0963 286.859 91.9646 286.776C99.7033 286.607 107.44 286.409 115.177 286.178C130.65 285.722 146.123 285.263 161.598 284.804C165.889 284.677 170.18 284.551 174.471 284.424C176.406 284.367 178.819 284.925 180.344 283.431C180.606 283.173 180.809 282.87 180.953 282.547C181.409 282.661 181.969 282.549 182.269 282.196C182.829 281.535 183.241 280.922 183.22 280.005C183.201 279.146 182.964 278.242 182.841 277.392C182.609 275.797 182.385 274.201 182.172 272.603C181.751 269.445 181.358 266.284 180.997 263.12C180.258 256.65 179.586 250.166 179.062 243.675C178.022 230.84 177.729 217.937 177.765 205.062C177.769 203.91 177.775 202.758 177.781 201.606C177.83 201.668 177.883 201.724 177.94 201.773C177.986 201.813 178.033 201.853 178.079 201.896C178.62 202.371 179.52 202.617 180.169 202.166C180.965 201.651 181.515 200.877 182.136 200.178C182.789 199.444 183.46 198.73 184.139 198.02C185.453 196.646 186.811 195.329 188.197 194.027C188.309 193.924 188.421 193.818 188.533 193.716C188.541 197.815 188.537 201.911 188.647 206.007C188.812 212.091 189.141 218.17 189.443 224.246C190.043 236.278 190.665 248.306 191.262 260.336C191.429 263.695 191.588 267.055 191.755 270.413C191.839 272.094 191.922 273.774 192.002 275.454C192.044 276.363 192.086 277.274 192.129 278.183C192.175 279.159 192.114 280.203 192.443 281.131C193.193 283.253 196.434 283.553 197.058 281.131C197.448 279.612 197.148 277.853 197.079 276.293C197.007 274.755 196.935 273.214 196.861 271.673Z" fill="black"/>
<path fill-rule="evenodd" clip-rule="evenodd" d="M164.338 81.4847C162.162 73.6255 153.843 70.1961 146.351 69.6519C126.067 67.5424 105.419 78.8547 96.4266 97.198C89.228 111.127 89.0026 125.758 104.476 133.711C105.321 134.177 106.204 134.675 107.105 135.128C107.888 135.856 108.694 136.556 109.575 137.143C118.001 142.686 128.342 145.084 138.364 144.564C153.162 144.265 158.444 134.22 161.677 121.339C165.086 108.514 166.993 94.5986 164.338 81.4847Z" fill="white"/>
<path fill-rule="evenodd" clip-rule="evenodd" d="M174.051 155.564C173.361 153.474 172.494 151.447 171.685 149.399C171.514 148.378 171.4 147.349 171.371 146.311C171.258 142.604 171.952 138.865 172.729 135.256C174.309 127.92 175.984 120.66 176.825 113.189C178.327 99.8249 177.434 85.9286 171.358 73.7294C166.093 63.1619 157.171 54.5198 145.646 51.2819C142.24 50.3243 138.733 49.7961 135.203 49.5852C134.766 49.5157 134.329 49.4476 133.895 49.3821C128.984 48.6415 124.013 48.2725 119.049 48.5919C110.818 49.1217 102.664 51.488 95.809 56.1681C88.9071 60.8806 84.0032 67.4883 81.7213 75.5477C79.3475 83.932 79.5488 93.0122 75.4496 100.873C74.2386 103.195 72.825 105.403 71.4769 107.647C67.8999 111.64 64.0164 116.079 63.1654 121.568C62.1154 128.353 66.0176 134.087 69.7105 139.381C73.0485 144.162 77.5781 150.765 74.1429 156.651C72.5225 159.428 69.926 161.505 67.976 164.037C65.9542 166.666 64.376 169.685 63.5605 172.91C62.0288 178.967 63.438 185.28 67.5345 190.014C69.6683 192.479 72.4084 194.108 75.3746 195.378C78.4105 196.676 81.3767 197.908 83.8866 200.117C85.0338 201.125 86.0838 202.23 87.0767 203.389C88.0021 204.836 89.0795 206.189 90.2943 207.428C91.6316 208.791 94.2514 206.924 93.0239 205.32C92.933 205.202 92.8443 205.086 92.7535 204.967C91.8556 203.797 90.9535 202.626 90.0091 201.493C87.1929 197.029 86.1091 191.564 87.5098 186.35C87.8732 184.995 88.3845 183.71 89.0206 182.497C89.1556 182.85 89.3035 183.198 89.4598 183.543C90.0683 184.879 90.922 186.461 92.0077 187.814C92.0499 188.742 92.1896 189.661 92.4598 190.562C94.133 196.144 99.7274 198.897 104.772 201.041C105.267 201.252 105.755 201.455 106.234 201.656C107.553 202.207 108.947 200.328 108.125 199.195C107.91 198.897 107.701 198.593 107.502 198.285C105.136 194.62 104.01 190.236 104.648 185.87C105.32 181.252 108.041 177.431 110.743 173.764C113.396 170.158 116.246 166.478 117.434 162.08C118.748 157.221 117.552 152.377 115.524 147.905C113.667 143.813 111.193 140.041 109.119 136.061C109.829 136.77 110.562 137.455 111.317 138.116C112.166 138.86 113.038 139.71 114.045 140.235C114.789 140.622 115.534 139.695 114.945 139.068C114.17 138.244 113.179 137.607 112.319 136.872C111.494 136.166 110.692 135.432 109.91 134.678C108.947 133.75 108.031 132.778 107.148 131.777C106.442 129.976 105.859 128.127 105.385 126.25C104.741 123.71 104.145 121.006 104.192 118.373C104.238 115.672 105.641 113.78 107.508 111.967C108.299 111.199 109.098 110.44 109.895 109.68C111.593 108.433 113.194 107.041 114.75 105.652C117.522 103.176 120.203 100.56 122.763 97.8673C123.45 97.1449 124.131 96.4145 124.804 95.6756C127.154 93.2629 129.396 90.7436 131.508 88.1372C133.608 87.3721 135.626 86.3597 137.519 85.1677C136.695 86.0026 135.863 86.8268 135.034 87.6574C133.19 89.5089 131.274 91.3687 129.136 92.8776C128.916 93.0342 129.049 93.366 129.32 93.3132C132.039 92.77 134.582 91.8654 136.957 90.424C139.372 88.9572 141.499 86.9642 143.485 84.9648C144.609 84.4576 145.693 83.8045 146.684 83.162C146.737 83.1282 146.789 83.0923 146.842 83.0582C145.866 86.1526 144.434 89.6568 141.381 90.7601C141.282 90.796 141.288 90.9608 141.406 90.9545C143.978 90.8036 146.045 89.646 147.677 87.9588C148.99 87.0141 150.242 86.0129 151.437 84.923C152.595 83.8671 153.692 82.7347 154.733 81.5621C153.277 84.4468 151.647 87.2675 150.039 90.0563C149.954 90.2042 150.132 90.405 150.284 90.3014C153.679 88.0019 156.254 85.0346 158.361 81.5259C158.672 81.0094 158.968 80.4844 159.258 79.9554C159.039 80.7833 158.801 81.6058 158.545 82.4242C158.083 83.9055 157.628 85.3903 157.164 86.8708C156.915 87.6691 156.61 88.4491 156.276 89.2159C156.037 89.7646 155.724 90.3122 155.675 90.9139C155.672 90.9539 155.716 90.9801 155.751 90.9714C157.104 90.6328 158.365 89.0883 159.33 88.1315C159.867 87.5987 160.37 87.0139 160.833 86.3971C160.919 89.9493 160.978 93.5019 160.9 97.0646C160.754 103.608 160.332 110.149 159.791 116.671C159.313 122.437 158.961 128.488 155.745 133.499C153.256 137.378 149.221 140.062 144.837 141.362C144.451 141.478 144.062 141.581 143.671 141.674C137.325 143.181 131.003 141.474 125.392 138.455C123.706 137.549 122.265 140.009 123.892 141.021C129.981 144.813 137.699 146.104 144.59 144.405C144.373 152.548 148.384 160.273 152.375 167.18C154.608 171.046 156.844 174.886 158.422 179.077C159.761 182.636 160.672 186.328 160.978 190.126C161.342 194.603 160.984 199.105 160.359 203.543C160.325 203.784 160.292 204.027 160.256 204.268C160.116 205.221 160.972 206.02 161.899 205.532C166 203.376 167.768 198.781 168.844 194.533C169.849 190.553 170.532 186.495 170.912 182.41C171.47 183.951 171.922 185.53 172.272 187.14C172.321 187.37 172.368 187.601 172.414 187.831C172.68 189.177 174.717 189.082 175.042 187.831C175.101 187.605 175.158 187.379 175.211 187.151C176.891 180.356 177.343 173.269 176.456 166.322C175.989 162.668 175.209 159.062 174.051 155.564Z" fill="black"/>
<path fill-rule="evenodd" clip-rule="evenodd" d="M143.152 128.774C141.732 128.195 140.465 127.228 139.538 125.993C139.216 125.563 139.133 125.11 139.2 124.695C139.276 124.229 139.552 123.806 139.928 123.523C140.305 123.239 140.777 123.098 141.233 123.17C141.63 123.232 142.024 123.449 142.337 123.899L142.402 123.989C142.953 124.735 143.67 125.346 144.488 125.741C145.276 126.121 146.158 126.298 147.07 126.195C148.808 125.999 150.005 125.059 151.278 123.782C151.436 123.621 151.594 123.455 151.752 123.286C151.852 123.133 151.991 123.034 152.146 122.983C152.317 122.925 152.511 122.929 152.689 122.991C152.86 123.05 153.013 123.164 153.116 123.315C153.213 123.458 153.269 123.635 153.251 123.839C153.134 125.161 152.443 126.342 151.461 127.269C150.37 128.299 148.924 129.011 147.563 129.261C146.064 129.536 144.536 129.339 143.152 128.774ZM148.271 108.366C149.866 109.336 152.297 111.598 150.581 114.003C148.56 116.124 145.652 113.693 144.218 112.593C142.889 111.741 141.396 113.933 142.629 114.928C152.986 122.599 157.19 108.62 149.077 107.226C148.184 107.072 147.853 108.066 148.271 108.366ZM129.711 99.4429C129.887 97.2541 133.219 96.757 133.551 98.923C133.847 100.863 133.498 102.645 132.624 104.392C131.79 106.061 129.692 105.283 129.533 103.763C129.32 101.726 129.601 100.804 129.711 99.4429ZM155.076 98.4739C155.541 97.8652 156.211 97.4497 157.015 97.6845C159.526 98.4185 158.786 101.985 157.904 103.72C157.425 104.663 155.876 104.902 155.176 104.072C154.035 102.719 153.489 100.016 154.939 98.6825C154.979 98.6136 155.022 98.544 155.076 98.4739ZM132.589 89.8654L132.986 89.7959C134.213 89.5836 135.738 89.3796 136.606 90.3665C137.067 90.8898 137.225 91.8624 136.606 92.3633C135.518 93.2446 134.314 92.9031 133.01 92.9777C131.935 93.0394 130.902 93.2174 129.867 93.5135C127.595 94.163 125.744 95.3486 123.804 96.6505C123.549 96.8213 123.29 96.4956 123.411 96.2574C124.531 94.063 126.701 92.2604 128.875 91.1616C130.036 90.5751 131.305 90.0885 132.589 89.8654ZM152.787 88.8823L153.091 88.9445C156.394 89.6353 160.687 91.0153 162.251 94.2615C162.311 94.7205 162.248 94.8189 162.196 94.8832L162.179 94.9046C162.137 94.9595 162.104 95.0351 161.905 95.0976C161.849 95.0844 161.794 95.0705 161.737 95.0557C161.02 94.8677 160.453 94.6087 159.904 94.34L159.308 94.0465C158.617 93.7076 157.92 93.381 157.181 93.1399C155.605 92.6255 153.983 92.2631 152.337 92.0696C151.98 92.0277 151.636 91.9072 151.365 91.7006C151.107 91.5046 150.911 91.2332 150.821 90.8724C150.705 90.4056 150.738 90.0521 150.989 89.6309C151.177 89.3146 151.447 89.0953 151.756 88.9694C152.071 88.8411 152.43 88.8108 152.787 88.8823Z" fill="black"/>
</svg>
