<svg width="240" height="325" viewBox="0 0 240 325" fill="none" xmlns="http://www.w3.org/2000/svg">
<path fill-rule="evenodd" clip-rule="evenodd" d="M186.455 183.62C183.523 169.722 173.122 158.937 159.135 153.564C156.446 152.042 153.84 145.515 150.226 144.319C149.647 144.128 150.561 145.653 150.226 145.744C149.031 146.069 147.692 146.103 146.373 144.929C144.015 142.833 143.275 136.707 141.841 133.939C134.28 119.337 115.4 125.05 112.871 141.192C111.108 142.342 108.615 143.355 106.695 144.281C104.718 145.235 102.979 147.547 100.942 148.373C99.1244 149.11 96.1294 148.588 94.2978 149.231C85.8737 152.187 78.7388 155.917 73.145 163.475C71.9664 165.069 70.6377 167.028 69.5651 168.639C64.0354 175.007 60.1945 182.145 56.6571 189.802C46.76 212.28 44.0681 237.167 41.6529 261.385C41.7078 265.622 38.8971 277.372 43.0542 279.404C42.8057 279.661 42.8957 280.179 43.3567 280.174C53.8975 280.068 64.4138 281.012 74.791 282.846C79.7979 283.732 84.7779 284.946 89.8779 285.145C100.465 285.072 111.013 283.297 121.586 284.977C134.297 284.977 149.744 284.606 163.884 284.062C177.099 283.554 190.385 284.702 203.437 282.454C204.47 282.29 204.974 281.03 204.758 280.126C203.227 274.545 202.475 268.8 201.616 263.087C201.787 259.422 201.481 255.597 200.126 252.184C196.585 229.143 192.045 206.252 186.455 183.62Z" fill="white"/>
<path fill-rule="evenodd" clip-rule="evenodd" d="M182.191 213.906C181.912 215.261 181.521 216.616 181.001 217.899C180.5 219.137 179.746 220.247 179.227 221.471C179.157 221.635 179.043 221.76 178.905 221.855L178.948 222.188L178.988 222.521C179.247 224.767 179.538 227.007 179.791 229.253L179.913 230.377C180.41 235.067 181.193 239.733 181.802 244.41C182.398 248.99 183.004 253.57 183.653 258.144C184.322 262.859 185.005 267.568 185.801 272.264C186.137 274.248 186.488 276.229 186.854 278.21L187.136 279.725C190.043 280.425 190.838 284.478 187.878 285.975C186.534 286.651 184.808 286.488 183.701 285.425C182.55 284.318 182.503 282.32 182.236 280.82L181.978 279.425C180.054 268.942 178.383 258.337 177.602 247.705C177.401 244.96 177.232 242.213 177.122 239.463C177.018 236.876 177.068 234.29 177.028 231.704L177.014 230.998C176.953 228.24 177.004 225.486 177.076 222.728C177.084 222.392 177.099 222.056 177.116 221.718C177.019 221.604 176.949 221.468 176.92 221.337L176.881 221.164C176.786 220.718 176.894 220.196 177.237 219.877C177.384 217.998 177.579 216.121 177.631 214.244C177.636 214.09 177.857 214.095 177.87 214.244C177.995 215.842 178.244 217.444 178.493 219.044C180.097 217.755 181.282 215.629 181.981 213.849C182.032 213.72 182.22 213.767 182.191 213.906ZM144.251 139.211C144.517 140.428 145.043 141.521 145.749 142.538C146.085 143.024 146.467 143.476 146.926 143.854C147.319 144.178 147.767 144.389 148.185 144.67C148.793 144.575 149.429 144.805 149.856 145.253L149.789 144.598C149.767 144.387 150.118 144.345 150.158 144.549C152.007 153.875 153.692 163.206 155.151 172.598L155.791 176.746L156.393 180.64C157.392 187.129 158.359 193.615 159.086 200.152C160.056 208.874 160.871 217.62 161.467 226.378C162.065 235.198 162.433 244.024 162.695 252.86C162.76 255.088 162.83 257.314 162.898 259.541L163.349 256.878C163.799 254.214 164.241 251.548 164.619 248.872C165.978 239.296 167.064 229.652 167.594 219.993C168.08 211.155 167.917 202.141 165.67 193.53C165.103 191.364 164.41 189.231 163.574 187.153C162.762 185.133 161.656 183.26 160.783 181.27C159.769 178.953 159.464 176.768 159.986 174.274C160.443 172.101 161.244 170.058 161.387 167.821C161.656 163.671 160.305 159.65 158.398 156.018C157.895 155.06 157.364 154.115 156.811 153.179C155.136 150.349 153.247 147.623 151.286 145.008C151.181 144.869 151.405 144.715 151.519 144.829C153.306 146.596 155.26 148.333 156.868 150.262C157.65 151.201 158.412 152.158 159.135 153.141C167.062 154.466 173.873 159.405 178.529 165.928C183.813 173.329 186.486 182.238 188.463 191.011C190.663 200.76 192.517 210.599 194.493 220.397C196.538 230.535 198.572 240.674 200.63 250.81C201.652 255.842 202.675 260.875 203.695 265.909C204.213 268.458 204.756 271.001 205.324 273.541C205.616 274.843 205.929 276.143 206.199 277.449C206.503 278.922 206.22 279.864 205.223 280.947C204.855 281.348 204.274 281.342 203.818 281.128L203.675 281.061L203.537 280.995C202.973 280.717 202.53 280.429 202.179 279.812C201.792 279.133 201.731 278.381 201.598 277.626C201.352 276.238 201.11 274.849 200.865 273.459C200.498 271.379 200.1 269.305 199.695 267.232L197.662 256.871C197.12 254.108 196.577 251.346 196.031 248.585C194.081 238.71 192.129 228.838 190.177 218.966C188.302 209.487 186.644 199.942 184.51 190.518L184.389 189.987L184.266 189.457C182.358 181.333 179.692 173.474 174.855 166.589C171.133 161.295 165.963 156.567 159.874 154.174C160.303 154.792 160.715 155.422 161.108 156.064C163.576 160.097 165.378 164.884 164.955 169.686C164.748 172.032 163.857 174.337 163.941 176.702C164.019 178.803 165.319 180.648 166.217 182.476C168.255 186.619 169.73 191.021 170.681 195.538C172.589 204.607 172.582 213.938 171.925 223.144C171.211 233.152 169.855 243.157 168.31 253.067C167.518 258.15 166.464 263.191 165.657 268.266C165.258 270.768 164.714 273.264 164.239 275.754L164.013 276.943C163.886 277.603 163.754 278.261 163.602 278.912L163.508 279.302V279.372C163.504 279.852 163.373 280.249 163.162 280.566C162.872 281.494 162.513 282.399 162.036 283.267C161.791 283.711 161.436 283.96 161.049 284.051C160.66 284.941 159.779 285.626 158.727 285.622L144.891 285.569C136.855 285.537 128.818 285.484 120.781 285.44C118.753 285.429 116.727 285.391 114.701 285.339C112.802 285.286 110.981 285.057 109.103 284.821C106.981 284.554 105.832 283.052 106.149 280.932C106.219 280.465 106.295 280 106.367 279.535C105.944 279.674 105.441 279.609 105.101 279.277L104.782 278.965C104.34 278.527 103.945 278.098 103.665 277.514C103.375 276.914 103.14 276.28 102.885 275.667C102.333 274.348 101.797 273.025 101.275 271.696C100.229 269.037 99.1837 266.368 98.2116 263.681C96.2872 258.362 94.5842 252.962 93.1034 247.501C90.4625 237.757 88.5525 227.826 87.3482 217.806L87.0603 215.418L86.9766 214.712C86.52 210.829 86.1356 206.885 86.3173 203.009C86.4294 200.583 86.8053 198.138 87.7118 195.872C88.5482 193.782 89.8391 191.994 91.0666 190.125L91.207 189.91L91.3482 189.689C92.4217 187.992 93.2759 186.218 93.3187 184.157C93.362 182.065 92.753 180.03 92.072 178.072L91.9023 177.589L91.7884 177.27C90.3398 173.223 88.6912 169.234 89.2349 164.831C90.0379 158.347 93.9673 153.12 98.9111 149.09C94.5144 149.96 90.1625 151.68 86.3217 153.862C81.7856 156.44 77.7018 159.843 74.1799 163.683C67.525 170.941 62.7736 179.649 58.8844 188.639C54.813 198.049 51.794 207.908 49.5189 217.897C47.2308 227.942 45.6992 238.148 44.6532 248.395C44.1315 253.494 43.7215 258.607 43.3815 263.722C43.2083 266.342 43.0773 268.967 42.8745 271.584C42.6717 274.198 42.5806 276.853 41.9426 279.398C41.6447 280.583 39.6356 280.704 39.4203 279.398C38.9425 276.481 39.076 273.464 39.2094 270.51L39.2215 270.242C39.3527 267.3 39.5238 264.36 39.7264 261.42C40.1407 255.411 40.694 249.411 41.4165 243.43C43.9496 222.434 48.621 201.549 57.7837 182.384C62.0977 173.357 67.6351 164.586 75.3379 158.068C79.0053 154.967 83.1398 152.492 87.5954 150.7C91.5801 149.096 95.628 148.337 99.8618 148.339C101.985 146.712 104.265 145.294 106.542 144.082C106.679 144.009 106.823 144.186 106.709 144.3C106.65 144.357 106.593 144.416 106.534 144.471C106.791 144.488 107.057 144.609 107.296 144.86C108.133 145.737 108.839 146.834 109.47 147.973C110.431 149.174 111.348 150.414 112.308 151.602C113.843 153.504 115.415 155.379 117.006 157.239C119.678 160.365 122.437 163.431 125.314 166.374L125.795 166.864C127.286 168.375 128.797 170.184 130.561 171.38L130.655 171.443C131.399 171.928 131.927 172.016 132.562 171.292C133.139 170.632 133.619 169.867 134.112 169.14L134.227 168.973C136.747 165.311 139.084 161.513 141.198 157.603C142.162 155.823 143.079 154.018 143.949 152.193L144.209 151.645C144.682 150.639 145.196 149.652 145.586 148.616C145.677 148.373 145.766 148.13 145.852 147.889C144.521 147.016 143.491 145.127 143.117 143.647C142.728 142.111 142.925 140.534 143.617 139.129C143.748 138.864 144.188 138.93 144.251 139.211ZM78.5915 201.65C78.4074 207.492 78.2957 213.34 78.0208 219.178L77.9259 221.17C78.3546 221.648 78.606 222.2 78.4053 222.956C78.3273 223.246 78.0969 223.508 77.8095 223.605L77.7199 225.458C77.3122 233.795 76.8343 242.114 75.9609 250.43C74.8687 260.837 73.6053 271.227 72.3442 281.615C72.1647 283.086 71.1419 284.252 69.5511 284.037C67.9414 283.819 67.2886 282.418 67.4999 280.957C68.3302 275.228 69.1285 269.493 69.828 263.745L70.6245 257.195C71.6232 249.008 72.6454 240.823 73.8231 232.661C74.3154 229.25 74.8266 225.841 75.3398 222.432L75.1604 222.2C74.4271 221.247 73.6687 220.315 72.9187 219.376C71.478 217.567 70.0562 215.772 68.7358 213.879C68.6701 213.784 68.8034 213.644 68.8983 213.716C70.749 215.084 72.5006 216.546 74.2626 218.032L75.8048 219.338C76.6921 213.448 77.571 207.555 78.3546 201.65C78.3738 201.502 78.5957 201.492 78.5915 201.65ZM105.213 145.744C104.1 146.794 102.961 147.821 101.839 148.865L101.428 149.25L101.019 149.636C99.0471 151.506 97.1579 153.454 95.5837 155.69C92.6935 159.797 90.9717 164.803 92.1736 169.817C93.171 173.969 95.459 177.734 96.0738 181.99C96.382 184.123 96.2323 186.266 95.4292 188.28C94.6095 190.335 93.2996 192.095 92.1229 193.949C89.5665 197.977 89.218 202.398 89.4717 207.065C89.7379 211.939 90.2975 216.814 90.9886 221.644C92.387 231.429 94.4954 241.114 97.2863 250.597C98.683 255.346 100.333 259.993 101.975 264.66C102.792 266.983 103.745 269.251 104.727 271.508C105.245 272.696 105.775 273.877 106.314 275.056C106.115 273.391 106.115 271.681 106.018 270.026C105.879 267.655 105.701 265.288 105.538 262.919C105.207 258.11 104.911 253.298 104.647 248.485C103.711 231.324 103.022 214.147 103.073 196.958C103.098 188.363 103.274 179.767 103.644 171.18C103.817 167.136 104.152 163.096 104.456 159.058L104.52 158.192C104.789 154.568 105.11 150.935 105.661 147.342C105.498 146.973 105.356 146.6 105.251 146.217L105.213 146.074L105.241 146.078C105.215 145.966 105.207 145.854 105.213 145.744ZM114.843 130.975C114.866 130.875 115.007 130.884 115.033 130.975C115.66 133.088 115.438 135.413 114.898 137.539C114.606 138.691 114.192 139.809 113.691 140.887L113.516 141.264C113.087 142.182 112.604 143.128 111.769 143.7C111.42 143.939 110.797 143.954 110.448 143.7L110.271 143.565C110.241 143.542 110.212 143.519 110.184 143.495C109.859 143.222 109.698 142.62 109.848 142.223C110.235 141.198 111.112 140.445 111.718 139.532C112.255 138.721 112.73 137.865 113.125 136.975C113.976 135.049 114.359 133.006 114.843 130.975Z" fill="black"/>
<path fill-rule="evenodd" clip-rule="evenodd" d="M164.761 69.0754C164.292 67.8907 163.462 66.4018 162.075 66.3424C161.002 63.0612 158.335 59.7195 154.624 59.8083C143.734 48.6672 130.023 49.1924 115.689 51.5508C108.126 52.954 100.447 55.7015 94.807 61.1235C88.0515 67.5067 85.421 78.6447 90.7112 86.7163C86.1391 89.1674 86.0504 94.9837 88.0057 99.1809C85.6553 100.807 85.5125 104.753 88.1591 105.993C88.0184 106.57 88.1179 107.166 88.3862 107.678C87.074 108.771 85.3661 109.578 83.9542 110.272C83.3301 110.579 82.9701 111.08 82.8206 111.644C78.1845 114.687 66.6244 122.122 66.7621 128.04C66.6941 131.128 68.9834 133.16 71.7653 133.969C70.1101 137.279 68.8536 141.146 70.4382 144.717C70.8761 145.796 74.1576 148.967 74.3228 149.025C74.6116 149.273 79.3192 147.111 81.6072 146.008C82.0509 148.895 85.1369 150.408 87.797 149.418C90.3193 148.658 91.8698 146.521 93.4606 144.578C95.5722 149.186 101.785 149.239 105.8 147.253C109.406 145.586 112.148 142.532 113.675 138.851C121.784 142.822 131.271 143.98 140.081 142.394C140.646 143.395 141.898 144.067 143.012 143.68C147.697 142.271 152.877 142.192 156.848 138.964C165.125 133.02 165.822 122.063 165.245 112.723C164.733 103.41 165.181 94.02 163.489 84.8078C164.223 82.0956 165.445 79.6978 166.575 77.1498C167.803 74.4779 167.777 70.506 164.761 69.0754Z" fill="white"/>
<path fill-rule="evenodd" clip-rule="evenodd" d="M87.8048 108.605C88.2926 108.482 88.5545 109.138 88.1405 109.402C85.5114 111.074 82.7956 112.568 80.256 114.389C77.8404 116.119 75.6093 118.09 73.5288 120.209L73.2983 120.445C71.4174 122.381 69.3343 124.843 69.3131 127.699C69.2969 129.919 71.0075 132.341 73.3942 132.05C74.2934 131.94 75.1198 133.081 74.8061 133.904L74.476 134.771C73.148 138.28 71.797 142.257 72.8459 145.949L72.8844 146.081C73.1381 146.926 73.4056 147.673 74.3865 147.656C75.2969 147.64 76.2442 147.333 77.0964 147.04C78.865 146.432 80.4676 145.417 81.828 144.141C83.0313 143.012 84.5686 144.159 84.4066 145.593L84.4008 145.639C84.1792 147.249 86.7425 147.996 87.9079 147.766C90.2088 147.311 91.8493 145.004 93.156 143.246C93.7841 142.401 95.3096 142.069 95.8615 143.246C96.955 145.578 99.209 147.322 101.846 147.395C103.215 147.433 104.53 147.043 105.69 146.319C106.163 146.024 106.587 145.673 106.975 145.275L107.071 145.174C107.646 144.565 108.043 144.241 108.776 143.843C109.5 143.451 110.435 143.937 110.431 144.792C110.425 145.9 110.1 146.637 109.337 147.44C108.705 148.106 107.954 148.69 107.164 149.157C105.578 150.095 103.693 150.622 101.846 150.561C98.935 150.465 96.1566 149.013 94.3555 146.756C92.5167 148.956 90.2356 150.976 87.2713 150.922C85.0522 150.882 82.9841 149.726 81.9932 147.935C80.5944 148.9 79.0591 149.654 77.4167 150.147L77.2704 150.19C74.9456 150.867 72.2702 151.136 70.7738 148.827C69.3689 146.66 69.2641 143.658 69.5861 141.18C69.8736 138.967 70.5543 136.865 71.336 134.792C69.111 134.127 67.3838 132.037 66.7906 129.783C65.8931 126.374 67.6342 123.069 69.7866 120.537C72.1247 117.786 75.0674 115.459 78.0322 113.422C80.9891 111.392 84.3015 109.483 87.8048 108.605ZM163.834 81.9467C163.839 81.852 163.994 81.8188 164.009 81.9228C165.03 89.3365 165.621 96.7353 166.111 104.2C166.359 107.982 166.641 111.76 166.949 115.537C167.245 119.158 167.738 122.877 167.626 126.513C167.452 132.208 164.688 136.838 160.155 140.17C155.812 143.364 150.425 144.943 145.139 145.61C142.069 145.997 138.956 146.016 135.883 145.652C134.286 145.463 132.692 145.211 131.129 144.833L130.453 144.664C129.222 144.349 127.847 143.923 127.672 142.464C127.586 141.757 127.962 141.236 128.568 140.881C129.357 140.419 130.263 140.691 131.077 140.902C132.449 141.257 133.835 141.562 135.237 141.772C138.248 142.225 141.344 142.252 144.371 141.939C149.462 141.411 154.832 139.759 158.757 136.347C160.463 134.865 161.947 133.058 162.727 130.912C163.73 128.153 163.582 125.143 163.548 122.254C163.47 115.537 163.539 108.819 163.445 102.1C163.351 95.3615 163.433 88.6756 163.834 81.9467ZM112.636 50.5517C118.585 49.0169 124.623 48.6181 130.733 49.0801C136.496 49.5155 143.061 50.8053 147.767 54.3512C147.996 54.5232 147.859 54.8489 147.576 54.8039C144.43 54.3021 141.363 53.3895 138.229 52.7857C135.216 52.2049 132.148 51.7689 129.08 51.6679C118.702 51.3257 107.154 53.6782 98.7858 60.1508C94.8619 63.1856 91.8674 67.2663 90.6757 72.1217C89.4535 77.1017 90.1147 82.4874 92.569 86.9923C92.9225 87.6409 92.7767 88.667 92.0394 89.0124C89.8021 90.0603 88.2085 92.3817 88.2431 94.8869C88.2598 96.1019 88.6785 97.2671 89.3514 98.2714C90.063 99.3335 91.1461 100.077 91.942 101.068C92.2553 101.459 92.2673 101.997 92.0191 102.357C92.4845 102.561 92.9865 102.67 93.4445 102.911C93.8328 103.115 93.8438 103.753 93.4445 103.955C92.4347 104.463 91.3428 103.923 90.6613 103.103C90.5396 102.957 90.4344 102.804 90.3385 102.649C89.5221 102.476 88.7907 102.066 88.1521 101.505C86.9352 102.234 86.7685 103.857 87.8138 105.097C88.3477 105.73 89.1062 106.121 89.8727 106.402L89.9647 106.435C90.7107 106.7 91.394 106.848 91.8786 107.445C92.1983 106.778 92.5652 106.15 92.9742 105.577C94.4614 103.496 96.7473 101.65 99.4597 101.884C101.584 102.067 103.425 103.589 103.861 105.689C103.893 105.844 103.659 105.965 103.589 105.803C102.57 103.425 99.3442 103.338 97.4229 104.577C95.1634 106.035 93.9285 108.781 93.4331 111.339C92.9455 113.859 93.2273 116.924 95.1125 118.84C95.8838 119.624 96.9332 120.167 98.0284 120.31C98.5638 120.38 99.036 120.311 99.548 120.208L99.8873 120.137C100.123 120.088 100.357 120.049 100.604 120.071L100.971 120.12L101.18 120.218C101.362 120.299 101.345 120.277 101.131 120.151C101.756 120.099 102.079 120.561 102.113 121.068C102.133 121.081 102.153 121.095 102.169 121.114C104.54 124.018 106.301 127.355 108.818 130.164L109.555 130.986C111.449 133.094 113.611 135.379 116.184 136.473L116.49 136.599C117.239 136.916 117.991 137.349 118.086 138.251C118.172 139.06 117.535 139.668 116.8 139.857C115.127 140.286 113.22 138.799 111.995 137.823C109.361 135.726 107.146 133.052 105.318 130.238L105.137 129.958C103.634 127.61 102.221 124.931 101.782 122.144L101.703 122.273C101.697 122.282 101.693 122.289 101.69 122.293C101.6 122.414 101.501 122.517 101.387 122.616C101.079 122.881 100.704 123.036 100.314 123.142C99.5827 123.339 98.7805 123.378 98.0284 123.301C96.5007 123.145 95.0728 122.563 93.8652 121.616C90.1883 118.731 89.7541 113.364 91.2412 109.009C90.0209 109.3 88.631 108.479 87.6782 107.775C86.5855 106.967 85.6845 105.801 85.4692 104.429C85.2554 103.068 86.1228 101.266 87.4095 100.74C86.0745 99.1369 85.2972 96.8613 85.2169 95.0393C85.0775 91.8698 86.7607 88.8742 89.3449 87.1449C86.9147 81.9349 86.4465 75.8905 88.0828 70.3586C91.3297 59.3813 102.207 53.2426 112.636 50.5517ZM103.378 133.956L103.409 133.859C103.668 133.01 104.002 131.321 105.27 131.964C106.481 132.578 105.708 134.396 105.284 135.28C104.777 136.339 103.902 137.188 102.726 137.415C101.77 137.6 100.72 137.363 100.051 136.624C99.8563 136.408 99.7463 136.172 99.6307 135.911C99.5857 135.81 99.5654 135.74 99.557 135.695C99.546 135.745 99.5147 135.819 99.4349 135.906C98.9012 136.489 98.3971 137.168 98.0099 137.858C97.9182 138.021 97.6291 137.907 97.7022 137.728C98.1533 136.625 98.0775 134.918 99.0829 134.12C99.9691 133.416 100.802 133.97 101.271 134.789L101.294 134.832C101.98 136.076 103.071 134.895 103.378 133.956ZM93.7384 129.968L93.831 129.839C94.7785 128.544 96.3766 126.985 97.9756 128.19C98.4841 128.573 98.5029 129.213 97.9756 129.593L97.7761 129.736C97.0775 130.231 96.3819 130.699 95.8688 131.409C95.3113 132.182 94.8106 133 94.061 133.606C92.7353 134.677 90.5929 134.889 89.4425 133.444L89.3294 133.301C89.2331 133.177 89.1227 133.027 89.0331 132.878L88.9632 132.975C88.9564 132.985 88.95 132.994 88.9441 133.003L88.9281 133.027C88.4553 133.783 87.858 134.406 87.1141 134.897C85.7003 135.83 84.1072 135.96 82.5076 135.466C82.3511 135.417 82.3931 135.207 82.5446 135.193C84.4399 135.016 86.2866 133.669 87.0575 131.935L87.1446 131.74C87.4565 131.05 87.806 130.394 88.5767 130.123C89.3269 129.86 90.1145 130.138 90.629 130.706C91.0591 131.18 91.1698 132.124 91.9458 131.916C92.7955 131.688 93.2738 130.623 93.7384 129.968ZM88.3099 118.444C88.7297 118.125 89.3872 118.467 89.5027 118.93C90.0264 121.024 87.8512 123.491 85.761 123.555C85.2229 123.572 84.7053 123.442 84.2286 123.193C83.8589 122.999 83.4214 122.506 83.0155 122.424C82.4914 122.318 82.027 123.017 81.6579 123.375C81.2001 123.82 80.7472 124.233 80.2342 124.612C80.0293 124.764 79.7113 124.509 79.7979 124.277L79.9714 123.814C80.5995 122.167 81.6813 119.763 83.7057 120.447C84.6976 120.781 85.4443 121.91 86.4888 121.016C87.3252 120.3 87.4031 119.133 88.3099 118.444ZM97.242 110.016C99.1293 107.849 103.566 108.993 104.407 111.63C104.593 112.212 104.399 112.969 103.944 113.381C103.345 113.924 102.491 114.088 101.764 113.663C101.138 113.296 100.881 112.697 100.421 112.183C99.7466 111.429 98.8291 111.011 97.8836 110.711C97.6472 110.836 97.4273 110.999 97.23 111.196C97.129 111.297 96.9382 111.158 97.0278 111.04C97.1495 110.878 97.2982 110.726 97.4674 110.586L97.3861 110.562C97.1372 110.493 97.0834 110.198 97.242 110.016ZM109.508 86.0878C109.931 86.0885 110.423 86.4858 110.369 86.9497L110.353 87.0786C110.231 87.9618 109.947 88.4618 109.064 88.8722C108.314 89.2199 107.526 89.412 106.705 89.4881C106.394 89.5168 106.064 89.5185 105.731 89.4938L105.661 89.8992C105.521 90.71 105.392 91.5214 105.368 92.3478C105.322 93.8799 105.894 95.1425 106.507 96.5104C107.683 99.1379 107.816 101.761 106.535 104.384C106.347 104.768 105.817 105.081 105.389 105.042C104.834 104.992 104.566 104.831 104.243 104.384C103.972 104.009 104.034 103.479 104.221 103.087L104.243 103.044C104.888 101.793 105.092 100.38 104.762 99.005C104.452 97.7125 103.751 96.551 103.438 95.2626C102.927 93.1639 103.471 91.0821 104.533 89.2816C103.731 89.0506 102.99 88.6389 102.495 88.0109L102.497 88.0101C102.308 87.8082 102.411 87.3866 102.743 87.412L103.118 87.4422C104.19 87.5319 105.177 87.6252 106.261 87.3262C106.817 87.1727 107.297 86.9169 107.774 86.6071L107.876 86.5399C108.473 86.143 108.805 86.087 109.508 86.0878ZM112.074 70.5763C114.762 70.4235 117.057 72.1982 118.173 74.5606C119.385 77.1255 118.876 80.0684 117.807 82.5919L117.503 83.2982C116.971 84.5218 116.272 85.977 115.183 86.6336C113.959 87.3712 112.902 86.5159 113.262 85.1563C113.477 84.3466 114.059 83.722 114.53 83.0538C114.97 82.4296 115.38 81.7837 115.739 81.11C116.444 79.7886 116.97 78.3163 116.964 76.8024C116.954 74.0392 115.129 70.8726 112.074 70.9132C111.856 70.9157 111.859 70.5883 112.074 70.5763ZM125.67 66.1177C125.502 65.9905 125.652 65.7075 125.839 65.8269C128.957 67.8102 131.284 71.5357 131.753 75.1956C132.013 77.2263 131.814 79.3964 130.95 81.2705C130.454 82.3458 129.603 83.3723 128.413 83.6672C127.319 83.9379 126.192 83.313 125.852 82.2448C125.72 81.8303 125.947 81.3969 126.289 81.1705C127.398 80.4369 128.291 79.5112 128.814 78.2659C129.357 76.9712 129.574 75.5972 129.58 74.2006C129.597 70.9299 128.292 68.1112 125.67 66.1177ZM163.749 67.5352C163.604 67.3753 163.786 67.1394 163.977 67.2396C166.23 68.4252 167.662 70.6964 168.073 73.1838C168.475 75.619 167.934 78.9342 166.05 80.6954C164.986 81.6896 163.081 80.3674 163.965 79.0868C164.589 78.1837 165.262 77.44 165.619 76.3729C165.937 75.4207 166.05 74.4606 166.033 73.46C165.995 71.2772 165.215 69.1626 163.749 67.5352ZM136.196 64.4858C140.046 64.3024 142.379 68.6995 142.914 71.9769C143.244 74.0019 142.996 76.0875 141.878 77.8438L141.812 77.9461C140.89 79.3491 139.213 80.9645 137.407 80.3001C136.642 80.0192 136.439 79.1998 136.953 78.5783C137.739 77.6268 138.953 77.2389 139.692 76.223C140.521 75.0836 140.793 73.6561 140.745 72.2705L140.739 72.1175C140.61 69.5687 139.395 64.6768 136.196 64.7633C136.016 64.768 136.018 64.4941 136.196 64.4858ZM148.239 63.7553C151.964 63.2791 154.232 67.6621 154.931 70.6814C155.368 72.569 155.463 74.6747 154.905 76.5481L154.863 76.6815C154.408 78.0797 153.066 80.4753 151.314 79.7608C150.834 79.5651 150.344 79.0319 150.574 78.457C150.868 77.7221 151.291 77.5315 151.856 77.0612C152.29 76.6992 152.594 76.1795 152.818 75.6676C153.413 74.3033 153.546 72.7095 153.464 71.2394L153.453 71.0654C153.243 68.1938 151.686 63.9143 148.239 63.993C148.082 63.9966 148.093 63.7738 148.239 63.7553ZM155.058 59.6347C157.13 58.8451 158.828 60.8278 160.02 62.2428C161.513 64.0158 162.867 65.9258 163.632 68.1329C164.314 70.0995 164.434 72.2861 163.82 74.2881C163.516 75.2793 163.042 76.1985 162.396 77.0075L162.313 77.1096C161.64 77.9303 160.991 78.4346 159.888 78.1408C159.44 78.0209 159.25 77.5773 159.328 77.1533C159.494 76.2475 159.961 76.0123 160.565 75.3799C161.098 74.8221 161.494 74.1353 161.76 73.4131C162.308 71.9233 162.337 70.3092 161.968 68.7744C161.556 67.0561 160.746 65.4695 159.807 63.9826L159.605 63.6642C158.611 62.0922 157.194 59.6715 155.097 59.9266C154.918 59.9486 154.915 59.6888 155.058 59.6347Z" fill="black"/>
<path fill-rule="evenodd" clip-rule="evenodd" d="M138.834 119.341C140.016 117.396 142.535 122.16 142.803 122.979C143.04 123.705 143.197 124.448 143.276 125.2C144.192 125.406 145.144 125.406 146.083 125.226C147.478 124.958 148.331 124.208 149.544 123.563C150.381 123.118 151.437 123.64 151.873 124.379C152.385 125.248 152.059 126.15 151.385 126.798C150.107 128.027 147.592 128.309 145.924 127.983C144.968 127.796 144.092 127.437 143.319 126.916C143.314 127.013 143.31 127.111 143.303 127.208L143.288 127.376C143.16 128.739 142.785 130.453 141.727 131.339C139.992 132.794 137.85 129.997 139.536 128.544L139.589 128.5C140.637 127.653 140.865 125.38 140.809 124.128C140.772 123.311 140.623 122.483 140.365 121.705L140.312 121.55C140.235 121.33 139.388 119.244 139.082 119.51L139.068 119.525C138.941 119.676 138.738 119.5 138.834 119.341ZM148.271 108.366C149.866 109.336 152.297 111.598 150.581 114.003C148.56 116.124 145.652 113.693 144.218 112.593C142.889 111.741 141.396 113.933 142.629 114.928C152.986 122.599 157.19 108.62 149.078 107.226C148.184 107.072 147.853 108.066 148.271 108.366ZM131.235 99.3993C132.794 99.1226 134.391 99.5105 135.681 100.423L135.779 100.493C137.022 101.403 138.413 103 137.7 104.567C137.413 105.197 136.556 105.295 136.012 105.01C135.106 104.535 134.942 103.366 134.134 102.719C133.471 102.189 132.579 101.867 131.725 101.945C129.72 102.127 128.487 104.105 127.864 105.81C127.785 106.028 127.464 106.113 127.339 105.879C125.871 103.133 128.47 99.89 131.235 99.3993ZM156.209 98.363C159.196 98.1168 162.692 101.214 161.905 104.368C161.528 105.881 159.284 105.838 158.885 104.368C158.666 103.559 158.688 102.844 158.106 102.172C157.625 101.617 156.943 101.295 156.209 101.345C155.4 101.399 154.654 101.804 154.087 102.372C153.576 102.885 153.269 103.636 152.739 104.09C152.609 104.202 152.434 104.209 152.305 104.09C151.392 103.248 151.94 101.496 152.519 100.617C153.347 99.3595 154.695 98.4879 156.209 98.363ZM125.547 93.8059C127.463 92.1091 130.945 90.4705 133.528 91.3056C135.014 91.7856 135.661 94.1799 134.003 94.9389C132.083 95.8177 129.869 95.4601 127.915 96.371C127.094 96.7538 126.322 97.2321 125.75 97.9335C125.3 98.4864 124.842 99.2139 124.191 99.5326C124.02 99.6165 123.788 99.6186 123.651 99.4631C122.224 97.8479 124.301 94.9093 125.547 93.8059ZM152.916 91.2214C154.1 90.8889 155.414 90.8957 156.617 91.1045C157.819 91.3133 159.04 91.8119 160.022 92.5391L160.136 92.6243C161.208 93.4322 162.487 94.6078 162.418 96.0391C162.361 97.2343 161.104 98.0427 160.019 97.4162C159.134 96.9054 158.718 95.8821 157.969 95.2007C157.351 94.6383 156.625 94.1948 155.851 93.8842C154.99 93.539 154.129 93.3773 153.205 93.3619C152.495 93.3501 151.779 93.5834 151.082 93.658C151.139 93.7759 150.588 93.721 150.272 93.6164C150.038 93.5166 150.036 93.2205 150.118 93.0284C150.52 92.0767 151.984 91.4826 152.916 91.2214Z" fill="black"/>
<path fill-rule="evenodd" clip-rule="evenodd" d="M148.503 116.601C146.153 115.542 141.934 116.466 140.403 116.833C136.842 117.687 133.26 119.533 132.153 122.426C130.905 125.685 133.394 126.712 133.76 126.544C136.225 126.718 139.161 125.167 141.744 124.767C143.841 124.44 146.053 124.154 148.018 123.039C149.453 123.829 152.693 124.255 155.307 124.946C157.534 125.533 158.499 126.807 160.564 126.536C163.038 126.212 162.025 121.006 159.268 118.896C156.25 116.588 151.145 115.652 148.503 116.601ZM153.155 138.861C151.099 139.362 150.961 134.855 150.731 133.263C150.551 132.019 149.537 128.811 146.964 128.949C144.392 129.088 143.425 131.776 143.555 133.447C143.64 134.531 144.639 140.023 141.451 140.717C139.419 140.71 137.068 140.573 134.931 140.179C132.416 139.609 129.146 137.614 128.282 141.543C127.971 142.957 139.05 147.158 143.966 147.538C148.951 148.549 154.784 146.994 158.334 143.179C159.142 142.311 161.416 138.708 161.578 137.825C161.918 135.971 161.13 134.777 158.836 135.431C157.216 136.297 154.477 138.539 153.155 138.861Z" fill="black"/>
<path fill-rule="evenodd" clip-rule="evenodd" d="M163.095 111.965C159.925 113.493 155.501 111.24 153.369 108.879C152.593 108.02 151.995 105.561 152.293 104.002C153.102 99.7791 156.14 97.2446 159.347 96.3791C163.793 95.1791 168.267 98.2192 167.745 101.807C167.251 105.207 166.502 110.138 163.095 111.965ZM141.514 103.853C141.26 108.455 137.566 112.483 133.15 113.677C126.036 115.663 122.52 110.66 120.928 105.27C120.769 104.735 120.397 103.1 121.395 101.698C125.321 96.1828 134.873 97.1229 139.644 98.637C141.041 99.9729 141.612 101.901 141.514 103.853ZM166.54 95.9154C166.538 95.9182 166.536 95.9205 166.534 95.9233C166.517 95.9133 166.501 95.9032 166.485 95.8935C166.503 95.9011 166.522 95.9076 166.54 95.9154ZM172.493 96.4474C172.079 91.7618 157.383 93.5559 155.665 93.94C150.975 95.3196 146.925 99.0732 141.682 97.4232C136.25 91.3653 117.957 93.1026 114.122 96.1885C113.396 95.9036 112.513 96.0564 111.578 96.3253C106.775 96.1517 84.8487 97.8081 89.3335 103.94C90.0142 104.413 90.6943 103.932 90.7131 102.959C114.093 94.5163 111.826 102.424 114.599 101.501C115.022 101.623 115.464 101.7 115.851 101.781C117.997 102.472 118.725 102.258 119.008 104.668C120.95 123.278 145.722 116.855 143.691 101.59C145.702 101.48 147.462 100.61 149.589 101.459C151.066 115.839 162.633 116.419 166.114 111.434C168.739 107.975 167.698 102.753 171.307 100.032C172.731 101.224 172.823 97.1996 172.493 96.4474Z" fill="black"/>
</svg>
