<svg width="240" height="325" viewBox="0 0 240 325" fill="none" xmlns="http://www.w3.org/2000/svg">
<path fill-rule="evenodd" clip-rule="evenodd" d="M55.9684 288.306C63.0179 288.328 69.8677 288.569 76.937 288.593C105.673 288.689 134.674 288.549 163.515 287.384C171.666 287.054 173.701 287.062 181.817 286.551C186.61 286.534 201.004 286.138 200.284 279.608C199.966 267.446 196.956 255.336 196.008 243.207C194.188 220.407 192.639 196.893 183.503 175.567C181.388 170.474 176.846 167.143 172.35 164.148C167.841 160.917 166.735 157.33 162.573 153.68C161.693 152.909 156.697 152.595 154.008 150.637C150.095 147.788 148.155 143.123 146.695 142.329C145.62 141.744 145.64 137.713 143.487 136.286C140.597 134.372 131.39 132.948 128.04 132.682C124.825 132.426 119.232 132.963 116.215 134.141C111.185 136.105 109.178 139.852 106.963 144.679C77.6922 153.729 50.9383 169.053 42.6296 199.964C35.4644 225.889 35.2018 253.682 37.9698 280.27C38.5236 282.215 38.1355 285.263 39.8151 286.551C33.9782 286.886 55.1765 288.09 55.9684 288.306Z" fill="white"/>
<path fill-rule="evenodd" clip-rule="evenodd" d="M189.101 262.708C188.548 262.431 187.97 262.115 187.338 262.093C186.251 262.055 186.25 260.364 187.338 260.402C188.286 260.435 189.12 260.831 189.955 261.248C190.929 261.734 190.072 263.192 189.101 262.708ZM187.338 215.115C188.079 215.116 188.826 215.21 189.396 215.728C189.734 216.037 189.707 216.612 189.396 216.924C189.062 217.257 188.538 217.231 188.2 216.924C188.31 217.024 188.201 216.925 188.161 216.903C188.152 216.897 188.147 216.894 188.144 216.892C188.136 216.889 188.127 216.888 188.113 216.884C188.025 216.862 187.938 216.84 187.848 216.824C187.847 216.828 187.66 216.812 187.616 216.81C187.523 216.807 187.43 216.806 187.338 216.806C186.879 216.806 186.493 216.42 186.493 215.961C186.493 215.504 186.881 215.115 187.338 215.115ZM179.391 234.081C179.149 235.143 177.52 234.691 177.761 233.632C178.112 232.091 178.048 230.514 177.761 228.968C177.563 227.903 179.192 227.45 179.391 228.519C179.735 230.373 179.812 232.233 179.391 234.081ZM177.256 173.316C175.997 173.017 174.752 172.981 173.465 172.981C172.376 172.98 172.377 171.29 173.465 171.29C174.901 171.29 176.303 171.352 177.705 171.685C178.765 171.937 178.314 173.567 177.256 173.316ZM173.038 214.499C172.308 214.134 171.578 213.769 170.848 213.404C169.874 212.917 170.731 211.459 171.701 211.944L173.891 213.04C174.865 213.527 174.009 214.985 173.038 214.499ZM172.734 247.796C171.808 249.131 170.506 249.961 168.944 250.376C167.89 250.655 167.444 249.024 168.494 248.745C169.612 248.449 170.605 247.909 171.275 246.942C171.891 246.053 173.356 246.9 172.734 247.796ZM166.894 188.266C166.644 187.798 166.267 187.6 165.798 187.589C164.711 187.564 164.711 185.874 165.798 185.899C166.865 185.923 167.844 186.459 168.354 187.413C168.867 188.373 167.407 189.226 166.894 188.266ZM156.174 199.759C155.871 200.089 155.284 200.081 154.979 199.759C154.792 199.562 154.636 199.342 154.512 199.101C154.465 199.009 154.421 198.916 154.37 198.827C154.347 198.787 154.321 198.748 154.295 198.71C154.286 198.702 154.268 198.683 154.249 198.663C153.924 198.32 153.932 197.813 154.249 197.468C154.552 197.137 155.139 197.146 155.444 197.468C155.63 197.665 155.787 197.885 155.91 198.126C155.957 198.217 156.002 198.31 156.053 198.4C156.076 198.439 156.102 198.478 156.128 198.516C156.137 198.524 156.155 198.543 156.174 198.563C156.499 198.907 156.491 199.414 156.174 199.759ZM155.273 224.725C154.172 225.229 152.965 225.229 151.864 224.725C151.447 224.535 151.349 223.932 151.561 223.569C151.808 223.147 152.303 223.076 152.717 223.265C153.217 223.494 153.921 223.494 154.42 223.265C154.837 223.075 155.327 223.142 155.576 223.569C155.79 223.935 155.688 224.535 155.273 224.725ZM152.271 242.398C152.081 242.845 151.673 243.083 151.196 243.102C150.723 243.119 150.37 242.7 150.351 242.256C150.338 241.97 150.493 241.725 150.715 241.573C150.715 241.557 150.716 241.542 150.716 241.526C150.716 241.052 151.103 240.701 151.561 240.68C152.017 240.66 152.406 241.084 152.406 241.526C152.406 241.824 152.387 242.12 152.271 242.398ZM147.91 270.493C146.561 270.514 145.243 270.836 143.894 270.858C142.804 270.875 142.808 269.184 143.894 269.167C145.243 269.145 146.561 268.823 147.91 268.802C149 268.784 148.997 270.475 147.91 270.493ZM142.301 162.142C141.512 162.894 140.537 163.265 139.575 163.735C138.6 164.211 137.745 162.753 138.722 162.275C139.536 161.877 140.438 161.583 141.106 160.946C141.894 160.196 143.091 161.39 142.301 162.142ZM140.182 181.631C139.628 181.354 139.051 181.037 138.418 181.015C137.332 180.977 137.33 179.287 138.418 179.325C139.367 179.358 140.2 179.754 141.035 180.17C142.01 180.657 141.153 182.115 140.182 181.631ZM130.022 259.848C129.772 259.379 129.395 259.181 128.927 259.171C127.839 259.146 127.838 257.455 128.927 257.48C129.993 257.504 130.972 258.04 131.482 258.994C131.995 259.955 130.535 260.808 130.022 259.848ZM126.504 223.132C126.167 222.824 126.191 222.25 126.504 221.937C126.869 221.572 127.234 221.206 127.599 220.841C127.933 220.507 128.456 220.531 128.794 220.841C129.13 221.15 129.107 221.724 128.794 222.037C128.429 222.402 128.064 222.767 127.699 223.132C127.364 223.467 126.841 223.442 126.504 223.132ZM122.355 280.353C121.136 280.325 119.993 279.975 118.845 279.593C117.816 279.25 118.26 277.618 119.294 277.962C120.292 278.294 121.294 278.638 122.355 278.662C123.443 278.688 123.443 280.378 122.355 280.353ZM116.879 244.197C115.777 244.167 114.864 243.605 114.091 242.854C113.31 242.094 114.506 240.899 115.286 241.658C115.728 242.088 116.239 242.489 116.879 242.506C117.966 242.537 117.967 244.227 116.879 244.197ZM120.28 197.7C120.293 198.15 120.483 198.633 120.762 198.928C121.509 199.72 120.315 200.917 119.567 200.124C118.95 199.47 118.615 198.595 118.589 197.7C118.558 196.61 120.249 196.615 120.28 197.7ZM107.388 160.875C107.034 160.182 106.571 159.37 105.866 158.987C104.908 158.468 105.762 157.008 106.719 157.527C107.677 158.048 108.363 159.073 108.847 160.022C109.342 160.99 107.883 161.845 107.388 160.875ZM105.197 178.459C104.805 178.448 104.416 178.381 104.038 178.278C103.876 178.234 103.716 178.184 103.554 178.14C103.485 178.121 103.191 178.084 103.372 178.094C102.914 178.069 102.527 177.726 102.527 177.248C102.527 176.809 102.915 176.378 103.372 176.403C103.999 176.437 104.569 176.75 105.197 176.768C106.284 176.799 106.285 178.49 105.197 178.459ZM99.7209 205.485H97.8955C96.8063 205.485 96.8082 203.794 97.8955 203.794H99.7209C100.81 203.794 100.808 205.485 99.7209 205.485ZM97.5918 280.238C97.0382 280.515 96.3858 280.777 95.9375 281.201C95.147 281.949 93.9503 280.755 94.7424 280.006C95.3134 279.466 96.0436 279.126 96.7389 278.778C97.1485 278.573 97.6522 278.665 97.8951 279.081C98.1146 279.457 97.9999 280.034 97.5918 280.238ZM93.5132 258.874C93.4425 258.855 93.3677 258.841 93.296 258.831C93.0087 258.792 92.7081 258.806 92.4195 258.806C91.3302 258.805 91.3319 257.114 92.4195 257.115C93.2766 257.115 94.1686 257.127 94.8425 257.728C95.1846 258.033 95.1514 258.614 94.8425 258.923C94.5066 259.259 93.9879 259.227 93.6474 258.923C93.6833 258.956 93.5601 258.887 93.5132 258.874ZM92.4199 230.143C92.6654 229.636 92.6692 229.306 92.6696 228.743C92.6705 227.654 94.3606 227.655 94.3598 228.743C94.3594 229.56 94.2379 230.256 93.8794 230.996C93.6793 231.409 93.0936 231.516 92.7233 231.299C92.3079 231.056 92.2211 230.553 92.4199 230.143ZM87.5331 190.481C86.5528 190.814 85.6777 191.286 84.8145 191.856C83.9033 192.458 83.0576 190.993 83.9614 190.396C84.9465 189.746 85.9655 189.231 87.0837 188.85C88.1177 188.499 88.5573 190.132 87.5331 190.481ZM81.8325 162.024C81.1042 162.045 80.3525 162.324 79.7035 162.639C78.7281 163.113 77.8722 161.655 78.8506 161.179C79.7777 160.729 80.792 160.363 81.8325 160.334C82.9224 160.303 82.9177 161.994 81.8325 162.024ZM79.277 237.989C78.9905 238.001 78.7456 237.847 78.5939 237.624C78.5781 237.624 78.5625 237.623 78.5468 237.623C78.0732 237.623 77.7225 237.236 77.7017 236.778C77.6813 236.322 78.1048 235.932 78.5468 235.933C78.8451 235.933 79.1411 235.951 79.4183 236.068C79.866 236.257 80.1039 236.665 80.122 237.143C80.14 237.617 79.7204 237.969 79.277 237.989ZM75.1207 179.524C74.0827 179.864 73.642 178.231 74.6713 177.894C75.8796 177.499 77.1142 177.193 78.3222 176.798C79.3602 176.459 79.8009 178.092 78.7714 178.429C77.5636 178.824 76.3287 179.129 75.1207 179.524ZM71.3303 211.438C71.0084 212.476 69.3776 212.03 69.7004 210.988C70.0122 209.983 70.0346 208.971 70.0353 207.926C70.0359 206.836 71.726 206.838 71.7254 207.926C71.7248 209.115 71.6848 210.293 71.3303 211.438ZM60.0303 249.662C59.9688 250.083 59.635 250.386 59.1981 250.406C58.7534 250.426 58.337 250.003 58.353 249.56C58.3841 248.709 59.0777 248.016 59.9282 247.985C60.4015 247.967 60.7534 248.386 60.7733 248.83C60.7927 249.262 60.4323 249.599 60.0303 249.662ZM54.3117 201.072C53.4186 201.37 52.4643 201.654 51.7642 202.315C50.973 203.062 49.7764 201.868 50.5691 201.12C51.4923 200.248 52.6798 199.836 53.8625 199.441C54.8982 199.096 55.3382 200.729 54.3117 201.072ZM50.436 233.918C50.1905 234.337 49.6934 234.413 49.2799 234.221C48.7255 233.963 48.1135 233.972 47.5158 233.971C46.4267 233.97 46.4284 232.28 47.5158 232.28C48.4378 232.281 49.2884 232.368 50.133 232.761C50.5486 232.955 50.6498 233.552 50.436 233.918ZM48.246 273.779C47.7727 273.797 47.4208 273.378 47.4009 272.934C47.3815 272.502 47.7417 272.165 48.1441 272.102C48.2054 271.681 48.5394 271.378 48.9761 271.358C49.421 271.338 49.8374 271.761 49.8212 272.204C49.7901 273.055 49.097 273.748 48.246 273.779ZM202.223 280.172C201.936 279.139 201.279 278.304 200.783 277.374C200.616 277.061 200.558 276.866 200.468 276.636C200.346 276.882 200.108 277.066 199.75 277.066C199.064 277.067 198.261 277.022 197.621 277.316C197.204 277.507 196.714 277.439 196.465 277.013C196.251 276.647 196.353 276.046 196.768 275.856C197.712 275.424 198.726 275.376 199.75 275.375C200.003 275.375 200.194 275.469 200.329 275.608C200.721 270.249 200.711 264.885 200.341 259.521C199.946 253.789 199.037 248.172 198.087 242.514C197.626 239.771 197.028 237 197.145 234.206C197.261 231.431 198.45 228.844 197.607 226.06C197.269 224.944 196.69 223.921 196.314 222.818C195.911 221.63 195.947 220.457 196.131 219.227C196.509 216.723 197.136 214.248 196.132 211.803C195.689 210.718 194.97 209.75 194.624 208.63C194.193 207.237 194.252 205.697 194.181 204.253C194.035 201.341 193.997 198.409 193.756 195.503C193.648 194.201 193.414 192.967 192.879 191.773C192.366 190.623 191.603 189.577 191.263 188.358C190.925 187.157 190.895 185.891 190.714 184.663C190.524 183.365 190.226 182.087 189.824 180.84C188.274 176.013 185.432 171.676 182.075 167.916C178.507 163.919 174.241 160.91 169.714 158.105C167.333 156.63 164.952 155.155 162.573 153.68C162.523 153.957 162.346 154.211 162.007 154.325C161.114 154.623 160.16 154.907 159.46 155.568C158.669 156.315 157.472 155.121 158.265 154.373C159.092 153.592 160.131 153.18 161.188 152.819C160.104 152.136 159.009 151.428 157.785 151.033C156.714 150.686 155.134 150.989 154.266 150.203C153.583 149.583 153.368 148.436 153.106 147.594C152.778 146.55 152.495 145.449 152.079 144.435C151.796 143.742 151.384 143.076 150.864 142.539C150.636 141.66 150.218 140.857 149.478 140.368C147.543 139.088 145.166 140.36 144.315 142.186C143.612 142.184 142.87 142.338 142.185 142.38C140.778 142.469 139.369 142.509 137.96 142.505C135.203 142.497 132.444 142.317 129.71 141.951C124.821 141.296 120.078 139.975 115.272 138.946C115.245 138.883 115.213 138.819 115.175 138.756C114.14 137.018 111.56 137.312 109.935 137.97C109.238 138.251 108.528 138.606 108.129 139.265C107.707 139.55 107.341 139.897 107.098 140.263C106.595 141.017 106.207 142.539 105.186 142.666C104.514 142.748 103.832 142.619 103.15 142.716C102.296 142.835 101.531 143.135 100.743 143.477C94.7432 146.083 88.5404 148.981 82.0289 149.991C80.5017 150.228 78.9467 150.473 77.62 151.329C76.5425 152.024 75.7099 152.98 74.8207 153.886C73.9545 154.77 73.2404 155.161 72.0045 155.319C70.5045 155.512 69.2052 155.926 68.1087 157.016C67.1982 157.923 66.6045 159.081 65.8904 160.134C65.1634 161.208 64.0967 161.812 62.9897 162.435C60.3721 163.911 57.9341 165.692 55.8108 167.829C51.3383 172.335 48.6298 178.126 45.9003 183.769C42.9489 189.873 40.1897 196.051 38.2756 202.569C36.3996 208.968 35.2841 215.552 34.7686 222.197C34.2256 229.169 34.1496 236.169 33.6974 243.146C33.4714 246.631 33.3003 250.12 33.127 253.608C32.958 257.053 32.7108 260.504 32.7508 263.953C32.827 270.621 34.1599 277.311 36.4904 283.554C37.0714 285.107 37.7155 286.64 38.4022 288.149C39.0045 289.474 41.0643 289.326 41.7108 288.149C41.8587 287.878 41.9749 287.599 42.0721 287.316C43.7622 287.331 45.4693 287.2 47.1489 287.356C50.1151 287.633 53.0874 287.787 56.062 287.971C61.9482 288.337 67.8446 288.58 73.7327 288.916C74.3039 288.948 74.8752 288.981 75.4463 289.015C71.2503 276.023 71.7945 261.977 71.1305 248.465C71.077 247.375 72.7676 247.382 72.8206 248.465C73.4874 262.035 72.9197 276.117 77.264 289.13C78.9495 289.244 80.6327 289.384 82.3101 289.588C83.6663 289.751 85.0291 289.943 86.3982 289.875C87.951 289.801 89.4679 289.446 90.9827 289.138C93.7355 288.578 96.3869 288.831 99.1503 289.176C102.106 289.546 105.072 289.751 108.047 289.88C119.958 290.402 131.95 290.877 143.857 290.08C146.738 289.888 149.614 289.618 152.476 289.25C155.426 288.872 158.343 288.235 161.29 287.874C164.195 287.519 166.866 288.493 169.737 288.673C172.665 288.857 175.671 288.246 178.572 287.895C179.518 287.78 180.466 287.669 181.413 287.558C180.193 279.194 179.5 270.767 178.826 262.343C178.739 261.256 180.43 261.266 180.516 262.343C181.184 270.701 181.863 279.065 183.081 287.364C188.103 286.779 193.131 286.187 198.102 285.276C199.517 285.019 200.924 284.598 201.771 283.334C202.399 282.398 202.526 281.25 202.223 280.172Z" fill="black"/>
<path fill-rule="evenodd" clip-rule="evenodd" d="M176.592 92.5542C174.659 82.0081 169.892 71.9734 162.571 64.1219C161.726 63.1896 160.967 61.7191 159.678 61.484C158.384 58.8462 155.917 56.9814 153.946 54.8512C149.642 50.5585 145.524 45.7615 139.973 43.0507C114.226 32.4574 89.4494 62.6627 84.1916 85.3789C78.9693 103.647 84.6731 128.848 107.304 129.588C110.506 133.824 114.924 136.756 119.463 139.375C125.66 143.345 132.421 144.956 139.591 142.747C146.731 144.614 154.133 138.624 158.425 133.37C161.817 129.301 164.141 124.335 167.244 120.123C170.907 120.031 174.072 116.929 174.562 113.292C177.983 107.003 177.828 99.4666 176.592 92.5542Z" fill="white"/>
<path fill-rule="evenodd" clip-rule="evenodd" d="M120.51 39.4615C125.195 38.3665 130.108 38.5935 134.749 39.797C143.946 42.1825 151.514 48.3858 157.789 55.3022C163.909 62.0485 168.957 69.7823 172.643 78.1135L172.83 78.5373C175.438 84.4762 177.704 90.649 177.801 97.1883C177.884 102.816 177.316 108.68 175.499 114.033C173.879 118.801 170.901 123.607 165.777 124.75C162.823 132.263 157.042 138.769 149.761 142.25C145.245 144.41 140.286 145.374 135.292 144.894C130.198 144.406 125.44 141.957 121.458 138.834C121.349 138.749 121.49 138.583 121.602 138.648C126.396 141.411 132.065 142.399 137.555 142.217C146.578 141.919 154.85 137.047 159.603 129.389C160.786 127.483 161.839 125.473 162.68 123.381C162.631 123.209 162.602 123.035 162.602 122.865C162.602 122.145 162.944 121.594 163.454 121.238C163.691 120.499 163.9 119.752 164.074 118.996C164.471 117.283 164.692 115.546 164.825 113.795C164.933 112.373 164.873 110.863 165.016 109.404C164.964 108.235 164.892 107.067 164.786 105.902C164.445 102.147 163.756 98.4008 162.429 94.8615C161.084 91.2766 158.96 88.1152 156.281 85.3941C150.534 79.558 143.379 75.2967 137.791 69.3012L137.498 68.984L137.478 68.9777C136.785 69.6889 136.092 70.4001 135.397 71.1098L132.222 74.3491C125.743 80.9678 119.316 87.6508 113.679 95.0158C110.433 99.257 107.517 103.703 105.004 108.417C103.815 110.65 102.736 112.938 101.761 115.273L101.377 116.202C100.92 117.315 100.427 118.559 100.153 119.815C100.968 120.625 101.565 121.814 102.224 122.732C102.972 123.774 103.835 124.766 104.723 125.691C105.621 126.628 106.607 127.526 107.653 128.296L107.779 128.387C108.979 129.239 110.357 129.827 110.537 131.45C110.615 132.154 109.986 132.721 109.403 132.94C107.807 133.54 106.154 131.817 105.091 130.826C104.428 130.208 103.818 129.542 103.252 128.839C102.702 128.918 102.148 128.958 101.6 128.893C100.75 128.791 99.9091 128.643 99.0816 128.425C92.2179 126.622 87.1376 120.922 84.3966 114.574C80.7167 106.051 80.8023 96.2264 82.3321 87.2136C85.1274 70.7431 94.1743 55.3614 107.835 45.6235C111.661 42.8962 115.903 40.5382 120.51 39.4615ZM127.905 41.6649C119.08 41.1997 111.034 45.7522 104.579 51.4191C92.8253 61.7372 85.5856 76.8446 84.1291 92.3583C83.3553 100.601 83.9344 109.485 88.2307 116.768C89.8976 119.594 92.0445 122.056 94.5786 124.131C96.9666 126.088 99.6886 127.215 102.599 127.983C102.466 127.8 102.335 127.616 102.208 127.43C101.531 126.438 100.994 125.384 100.543 124.28C100.503 124.32 100.429 124.328 100.384 124.267C98.5477 121.746 99.1226 118.738 99.9981 115.965C100.916 113.057 102.079 110.228 103.407 107.483C108.247 97.4802 115.446 88.766 122.919 80.6343C126.735 76.4815 130.678 72.4489 134.606 68.4026C136.568 66.3821 138.524 64.3557 140.456 62.306C141.418 61.2856 142.373 60.2599 143.32 59.226C144.257 58.2037 145.099 57.1209 146.265 56.3552C147.194 55.745 148.122 56.9113 147.688 57.7786C147.02 59.1128 145.871 60.1704 144.854 61.2552L144.749 61.3676C143.758 62.4379 142.758 63.4995 141.752 64.5554C140.594 65.7698 139.428 66.976 138.258 68.179C139.256 68.0634 140.265 67.9968 141.257 67.8461C142.604 67.6415 143.933 67.3401 145.255 67.0123C146.649 66.6672 148.024 66.2265 149.351 65.6787C150.598 65.1643 151.777 64.34 153.149 64.2593C154.311 64.1908 154.674 65.6295 154.03 66.3865C153.143 67.4297 151.549 67.8403 150.252 68.2277L150.069 68.283C148.634 68.7209 147.167 69.0495 145.683 69.2691C143.731 69.5583 141.475 69.6906 139.387 69.3947C143.557 71.8409 147.395 74.8724 151.222 77.829L151.897 78.3498C155.636 81.2275 159.285 84.3297 161.951 88.267C164.439 91.9426 165.941 96.2218 166.785 100.558C167.201 102.697 167.475 104.858 167.659 107.029C168.346 108.954 168.235 111.242 168.063 113.359L168.001 114.089L168.006 114.304C168.031 115.628 168.563 118.575 167.311 119.575C167.289 119.681 167.27 119.789 167.247 119.895C167.403 119.799 167.557 119.7 167.71 119.598C167.773 119.556 167.833 119.509 167.895 119.464L168.068 119.322C168.075 119.316 168.08 119.311 168.085 119.307C168.474 118.966 168.844 118.61 169.19 118.224C169.829 117.512 170.436 116.608 171.011 115.565C172.274 113.274 173.082 110.784 173.706 108.209C174.847 103.501 175.318 98.4441 174.798 93.616C174.725 92.942 174.576 92.0971 174.344 91.2301C173.795 89.1716 173.163 87.1348 172.456 85.1255C171.04 81.1058 169.305 77.2062 167.283 73.456C163.174 65.8389 157.888 58.7967 151.555 52.8872C145.141 46.9023 136.823 42.1349 127.905 41.6649ZM115.46 66.0018C115.778 65.8074 116.105 66.1851 115.948 66.4898C115.184 67.9648 113.899 69.2101 112.831 70.474C111.726 71.7827 110.629 73.0985 109.535 74.4163C107.306 77.0994 105.131 79.8317 103.042 82.6249L102.49 83.3638C100.654 85.8304 98.8392 88.336 97.2336 90.9568C96.3936 92.3278 95.6533 93.7458 94.9811 95.206C94.3411 96.596 94.046 98.2739 93.277 99.5797C93.2286 99.6621 93.0786 99.6553 93.06 99.5511C92.809 98.1452 93.4291 96.4519 93.8721 95.1354C94.3988 93.5697 95.1484 92.0784 95.9508 90.6381C97.6244 87.6335 99.6298 84.8173 101.644 82.0351C103.691 79.2099 105.815 76.4425 108.044 73.7588C109.09 72.4982 110.161 71.2628 111.263 70.0518L111.678 69.5988C112.832 68.3459 113.996 66.8958 115.46 66.0018ZM110.11 61.6339C110.633 61.2461 111.079 62.0387 110.746 62.4588C108.752 64.9684 106.483 67.2233 104.3 69.5638C102.204 71.8115 100.201 74.1433 98.3109 76.5669C94.4567 81.5089 91.3716 86.9317 88.7586 92.6151C88.7094 92.7223 88.5544 92.6424 88.5776 92.5388C89.9616 86.3913 93.1974 80.8079 96.8816 75.7632L97.0217 75.5719C100.748 70.4988 105.032 65.3992 110.11 61.6339Z" fill="black"/>
<path fill-rule="evenodd" clip-rule="evenodd" d="M131.904 117.266C135.526 116.826 139.036 117.936 142.577 118.495C144.446 118.79 146.318 119.01 148.209 119.092C148.59 119.109 148.97 119.118 149.351 119.126C149.387 118.791 149.574 118.483 149.981 118.298C150.814 117.921 151.481 117.75 152.395 117.787C153.233 117.82 154.073 117.906 154.898 118.057C156.395 118.331 157.899 118.955 158.994 120.037C161.528 122.542 161.143 126.566 159.184 129.295C155.138 134.933 147.753 135.195 141.428 135.121L140.844 135.114C135.085 135.031 126.846 135.89 124.23 129.336C123.267 126.925 123.401 124.131 124.579 121.819C125.984 119.062 128.942 117.626 131.904 117.266ZM149.893 126.654L149.842 126.656C147.187 126.758 144.532 126.83 141.875 126.877C141.955 127.56 142.036 128.243 142.129 128.924C142.201 129.46 142.279 129.995 142.36 130.53C142.395 130.756 142.521 131.107 142.485 131.332L142.472 131.42C142.609 131.482 142.733 131.581 142.825 131.726C142.857 131.776 142.88 131.826 142.903 131.876C144.966 131.892 147.185 131.852 149.288 131.477L149.292 131.432C149.33 131.163 149.442 130.982 149.59 130.858C149.738 130.001 149.725 129.088 149.782 128.238C149.818 127.71 149.856 127.182 149.893 126.654ZM139.846 126.914C137.932 126.946 136.018 126.971 134.104 126.948L133.236 126.934C133.419 127.919 133.619 128.9 133.785 129.891C133.958 130.924 133.049 131.581 132.262 131.554C132.351 131.569 132.439 131.584 132.527 131.596C134.984 131.944 137.536 131.851 140.03 131.849C139.896 131.065 139.95 130.181 139.93 129.527L139.926 129.426C139.888 128.588 139.861 127.751 139.846 126.914ZM126.846 126.733C126.913 127.245 127.042 127.746 127.235 128.212C128.052 130.183 129.925 131.103 131.907 131.49C131.563 131.371 131.29 131.086 131.221 130.597C131.049 129.382 130.987 128.146 130.983 126.912C129.602 126.899 128.211 126.87 126.846 126.733ZM157.095 126.312C156.112 126.544 154.97 126.438 154.005 126.482C153.101 126.523 152.197 126.559 151.293 126.595C151.336 127.212 151.377 127.829 151.422 128.446C151.481 129.244 151.486 130.086 151.639 130.88C153.458 130.259 155.087 129.263 156.31 127.671C156.615 127.274 156.888 126.808 157.095 126.312ZM131.489 120.499C129.852 120.887 128.303 121.706 127.47 123.204C126.976 124.094 126.759 125.147 126.801 126.186C128.184 126.025 129.591 125.964 130.992 125.913C130.996 125.661 131.002 125.409 131.01 125.157L131.031 124.513C131.07 123.283 131.089 121.74 131.489 120.499ZM139.961 120.649L139.24 120.568C137.239 120.34 135.238 120.101 133.237 120.238C132.947 120.258 132.653 120.29 132.359 120.333C132.712 121.61 132.683 123.11 132.83 124.374C132.888 124.863 132.96 125.347 133.04 125.83L133.387 125.814C135.534 125.698 137.684 125.626 139.833 125.541C139.833 125.137 139.835 124.733 139.842 124.329L139.85 123.925C139.874 122.893 139.807 121.73 139.961 120.649ZM150.01 120.486C147.914 120.824 145.748 120.896 143.689 120.899C142.867 120.9 142.045 120.849 141.223 120.776C141.277 121.214 141.304 121.656 141.345 122.088C141.426 122.96 141.519 123.831 141.619 124.7L141.709 125.462C144.351 125.342 146.992 125.212 149.634 125.078L150.006 125.058L150.111 123.595C150.182 122.62 150.26 121.645 150.371 120.674L150.288 120.644C150.19 120.604 150.098 120.549 150.01 120.486ZM150.921 120.849C151.036 122.228 151.1 123.613 151.185 124.994L152.926 124.901C153.216 124.885 153.506 124.869 153.797 124.852C154.925 124.787 156.375 124.445 157.49 124.764C157.575 123.75 157.285 122.762 156.37 122.08C154.764 120.883 152.718 121.309 150.921 120.849ZM144.972 108.52C147.565 107.034 154.07 105.516 154.482 110.184C154.671 112.332 153.075 114.112 151.211 114.906L151.141 114.935C149.393 115.654 146.294 116.466 144.781 114.907C143.522 113.609 145.192 111.283 146.757 112.346C147.561 112.892 149.253 112.489 150.151 112.23L150.207 112.213C151.175 111.928 152.466 111.017 152.066 109.825C151.711 108.77 150.204 108.577 149.26 108.543C147.85 108.492 146.479 108.819 145.082 108.926C144.861 108.943 144.793 108.623 144.972 108.52ZM155.712 101.014C159.231 100.849 161.42 104.693 160.611 107.842C160.471 108.386 159.863 108.919 159.277 108.858L159.129 108.844C159.054 108.837 158.978 108.828 158.909 108.809C158.352 108.654 157.853 108.075 157.893 107.474L157.904 107.299C157.986 105.811 157.825 104.097 156.058 103.737C154.559 103.431 153.722 104.875 153.704 106.203C153.701 106.439 153.436 106.604 153.227 106.477C152.144 105.817 151.956 104.505 152.37 103.375C152.895 101.943 154.207 101.085 155.712 101.014ZM129.599 101.839C132.159 100.984 134.922 102.349 136.162 104.614C136.597 104.74 137.031 105.076 136.971 105.589C136.884 106.328 136.752 106.794 136.24 107.354C135.439 108.231 133.939 107.782 133.606 106.704L133.592 106.655C133.214 105.26 131.679 104.34 130.281 104.828C128.648 105.398 128.695 107.124 127.55 108.129C127.415 108.247 127.254 108.266 127.093 108.188C125.876 107.6 126.094 105.829 126.528 104.816C127.097 103.487 128.203 102.304 129.599 101.839ZM126.111 94.0593C128.186 91.9411 133.597 89.8915 135.017 93.8029C135.287 94.5479 134.711 95.5525 133.936 95.707C132.666 95.9598 131.54 95.4083 130.279 95.5073C129.257 95.5878 128.192 95.9291 127.376 96.5619C125.115 98.3144 124.618 101.279 123.042 103.509C122.966 103.618 122.817 103.572 122.803 103.444C122.444 100.197 123.838 96.3791 126.111 94.0593ZM153.173 91.9741C154.55 91.4876 156.11 91.5292 157.494 91.9608C158.888 92.3958 160.168 93.2217 161.155 94.3009C161.602 94.7908 162.016 95.3314 162.348 95.9069C162.525 96.2119 162.71 96.8419 162.911 97.2171C163.996 97.8436 164.459 99.2713 163.488 100.287L163.444 100.332L163.314 100.46C162.792 100.977 162.005 101.201 161.292 100.995C159.698 100.533 159.504 99.2769 158.952 97.9433C158.587 97.0624 157.963 96.2829 157.205 95.7104C155.415 94.3577 152.48 93.9268 150.325 94.5642C150.21 94.5983 150.075 94.452 150.157 94.3459C150.566 93.8167 150.801 93.3824 151.348 92.9554C151.903 92.5222 152.508 92.2091 153.173 91.9741Z" fill="black"/>
</svg>
