<svg width="17" height="16" viewBox="0 0 17 16" fill="none" xmlns="http://www.w3.org/2000/svg">
<path d="M11.3334 5.33331C12.3942 5.33331 13.4117 5.75474 14.1618 6.50489C14.9119 7.25503 15.3334 8.27245 15.3334 9.33331V14H12.6667V9.33331C12.6667 8.97969 12.5262 8.64055 12.2762 8.3905C12.0261 8.14046 11.687 7.99998 11.3334 7.99998C10.9798 7.99998 10.6406 8.14046 10.3906 8.3905C10.1405 8.64055 10 8.97969 10 9.33331V14H7.33337V9.33331C7.33337 8.27245 7.7548 7.25503 8.50495 6.50489C9.25509 5.75474 10.2725 5.33331 11.3334 5.33331V5.33331Z" stroke="#F8F8F8" stroke-width="1.33333" stroke-linecap="round" stroke-linejoin="round"/>
<path d="M4.66667 6H2V14H4.66667V6Z" stroke="#F8F8F8" stroke-width="1.33333" stroke-linecap="round" stroke-linejoin="round"/>
<path d="M3.33333 3.99998C4.06971 3.99998 4.66667 3.40303 4.66667 2.66665C4.66667 1.93027 4.06971 1.33331 3.33333 1.33331C2.59695 1.33331 2 1.93027 2 2.66665C2 3.40303 2.59695 3.99998 3.33333 3.99998Z" stroke="#F8F8F8" stroke-width="1.33333" stroke-linecap="round" stroke-linejoin="round"/>
</svg>
