<svg width="240" height="325" viewBox="0 0 240 325" fill="none" xmlns="http://www.w3.org/2000/svg">
<path fill-rule="evenodd" clip-rule="evenodd" d="M200.256 272.588C199.919 266.325 199.505 260.067 199.01 253.814C198.022 241.359 196.729 228.895 194.577 216.583C192.454 204.435 189.482 192.623 185.202 181.048C183.216 175.677 181.065 171.096 177.945 166.268C174.995 161.704 171.23 158.611 166.54 155.855C162.314 153.373 157.405 149.065 153.352 146.285C151.66 145.125 148.179 145.202 147.019 143.485C145.499 141.237 146.484 137.796 144.953 135.556C143.202 132.994 140.749 131.003 137.983 129.557C134.964 127.512 131.409 126.587 127.844 126.714C122.586 126.395 117.292 128.07 113.916 132.35C112.232 134.487 111.249 136.951 111.113 139.68C111.077 140.39 111.305 140.95 111.68 141.354C111.458 141.652 111.236 141.95 111.017 142.249C110.326 141.226 108.712 140.682 107.637 141.455C104.119 143.981 100.317 145.99 96.3039 147.462C95.365 147.018 94.2284 147.223 93.4241 147.949C93.0977 148.243 92.7514 148.495 92.3895 148.709C90.9016 149.112 89.3906 149.449 87.8572 149.71C87.3772 149.791 86.9705 150.064 86.6621 150.431C86.2051 150.004 85.577 149.799 84.8756 150.066C76.7766 153.155 69.1283 157.953 63.3149 164.453C56.8742 171.654 53.4914 180.612 50.916 189.79C48.1281 199.725 46.3465 209.907 44.8501 220.106C43.3338 230.441 41.8404 240.816 40.7971 251.21C40.21 257.059 39.9861 262.962 40.2518 268.837C40.3843 271.773 40.6524 274.7 41.0794 277.608C41.1789 278.288 41.283 279.072 41.4508 279.854C40.941 279.755 40.3338 280.186 40.4371 280.876C41.1567 285.682 46.9653 287.082 50.9713 287.636C57.5242 288.541 64.1111 289.043 70.727 289.081C77.2283 289.119 83.7286 288.702 90.2164 288.328C96.868 287.945 103.519 287.56 110.171 287.17C136.82 285.607 163.47 284.061 190.12 282.497C192.554 282.354 195.334 282.161 197.42 280.748C200.278 278.811 200.425 275.734 200.256 272.588Z" fill="white"/>
<path fill-rule="evenodd" clip-rule="evenodd" d="M70.3428 218.83C70.2503 218.657 70.4649 218.501 70.6073 218.626C73.8424 221.466 75.5362 226.027 75.8913 230.243C76.2676 234.714 75.7341 239.343 75.5303 243.811C75.3034 248.789 75.0995 253.769 74.8225 258.744C74.5413 263.792 74.2384 268.838 73.9787 273.887L73.3946 285.245C73.3324 286.455 73.467 287.944 73.0026 289.073C72.2831 290.825 70.1456 290.554 69.6964 289.09L69.6824 289.042L69.6414 289.073C69.245 287.754 69.5417 286.188 69.6088 284.824L70.2209 272.415C70.6533 263.644 71.0389 254.873 71.5034 246.103L71.6613 243.18C71.8785 239.245 72.0449 235.32 72.1786 231.387L72.222 230.075C72.349 226.125 72.2482 222.396 70.3428 218.83ZM148.767 146.017C150.57 145.846 151.931 146.444 153.567 147.074C154.28 147.348 154.955 147.664 155.639 147.992C156.495 148.403 157.045 149.129 157.573 149.897L157.854 150.311C160.05 153.528 161.526 157.24 163.193 160.743C165.142 164.841 167.111 168.93 169.018 173.048L169.959 175.076C170.43 176.09 170.899 177.105 171.361 178.124L172.16 179.895C172.962 181.693 173.682 183.594 172.538 185.448C171.475 187.172 169.59 188.506 168.097 189.839C166.852 190.951 165.606 192.063 164.361 193.174C166.936 195.754 168.665 199.002 169.681 202.486C171.125 201.884 172.887 201.769 174.38 201.508C176.469 201.144 176.725 204.309 174.753 204.27C173.297 204.241 171.588 204.39 170.094 204.083C170.353 205.228 170.542 206.39 170.662 207.555C171.29 213.662 169.918 219.805 168.487 225.714L168.369 226.199C166.815 232.594 165.342 239.006 164.024 245.455C162.703 251.917 161.514 258.407 160.459 264.918C159.386 271.545 158.626 278.209 157.809 284.871C157.686 285.88 157.052 286.744 155.938 286.744C155.01 286.744 153.949 285.877 154.066 284.871C154.909 277.616 156.103 270.399 157.291 263.193C159.335 250.784 161.909 238.483 164.869 226.263L165.387 224.135C166.719 218.615 167.927 212.928 167.259 207.235C166.715 202.599 164.777 197.657 160.948 194.777L160.831 194.691C159.936 194.034 159.592 192.779 160.473 191.915C161.034 191.365 161.595 190.816 162.157 190.267L165.528 186.974L166.208 186.309C166.774 185.756 167.344 185.206 167.93 184.673C168.285 184.35 169.247 183.735 169.318 183.204C169.363 182.858 168.954 182.25 168.787 181.931L168.027 180.395C167.595 179.519 167.176 178.636 166.754 177.755C165.88 175.93 164.993 174.11 164.138 172.276L158.999 161.262C157.55 158.155 156.259 154.874 154.363 152.002L153.99 151.442C153.678 150.97 153.402 150.517 153.205 149.94C153.016 149.385 152.778 148.776 152.428 148.303C151.607 147.191 150.038 146.561 148.725 146.329C148.536 146.295 148.605 146.033 148.767 146.017ZM109.249 143.124C109.363 143.124 109.38 143.287 109.275 143.319C107.692 143.795 106.178 144.564 104.944 145.673C104.353 146.204 103.758 146.807 103.394 147.522C103.254 147.795 103.177 148.084 103.12 148.384L103.102 148.484C103.008 149.025 102.873 149.326 102.598 149.76L102.551 149.833C100.982 152.257 99.8825 154.95 98.8771 157.645L96.6875 163.523L94.4994 169.402C93.7944 171.296 93.089 173.19 92.3838 175.085C91.9942 176.13 91.5936 177.172 91.1933 178.213C91.02 178.664 90.8337 179.112 90.6753 179.569C90.6535 179.631 90.5842 180.007 90.5322 180.099L90.55 180.13C90.9913 180.872 92.1683 181.493 92.8355 182.033L95.1328 183.89C96.7707 185.215 98.4507 186.503 100.039 187.887C101.038 188.756 100.417 190.313 99.3036 190.676C97.4386 191.284 95.6113 192.011 93.7741 192.699C93.032 192.976 92.2593 193.218 91.5258 193.524L91.0793 193.717C90.9049 193.796 90.9888 193.795 90.9957 194.117C91.0027 194.455 91.0984 194.807 91.1534 195.139C91.7722 198.882 92.4281 202.618 93.1205 206.348C95.5695 219.539 98.4953 232.633 101.832 245.627C103.518 252.189 105.325 258.718 107.048 265.27C108.766 271.805 111.027 278.245 113.186 284.645C113.795 286.45 110.934 287.227 110.34 285.43C107.852 277.903 105.576 270.31 103.226 262.741C99.0497 249.29 95.759 235.548 92.8486 221.772C91.406 214.945 90.0867 208.091 88.8917 201.216C88.6655 199.914 88.4436 198.612 88.2263 197.309L87.9096 195.392C87.6925 194.026 87.5689 192.603 88.6304 191.521C89.6669 190.466 91.4464 190.092 92.8104 189.597L92.9094 189.561C93.7773 189.237 94.6515 188.925 95.5224 188.603C94.2395 187.592 92.9726 186.56 91.6929 185.55C90.6607 184.736 89.6122 183.938 88.5947 183.104C87.7557 182.417 87.0717 181.535 86.9842 180.417C86.895 179.275 87.3843 178.215 87.7789 177.167L87.8168 177.066C88.2043 176.02 88.5928 174.975 88.9912 173.933L91.4567 167.483C93.0235 163.384 94.5241 159.252 96.172 155.185C96.824 153.576 97.5345 151.992 98.3741 150.47C98.7788 149.737 99.213 149.019 99.6848 148.326C100.213 147.55 100.693 147.171 101.512 146.743C102.822 146.058 103.85 144.909 105.165 144.203C106.456 143.51 107.784 143.14 109.249 143.124ZM113.501 135.812C113.551 135.726 113.683 135.764 113.685 135.862C113.719 137.899 113.236 139.98 112.938 141.995C112.639 144.016 112.543 146.15 112.111 148.149C112.102 148.243 112.084 148.334 112.058 148.424L112.037 148.493C111.855 149.053 111.38 149.528 110.798 149.677C110.981 150.692 111.154 151.709 111.299 152.731C111.548 154.489 111.775 156.249 111.999 158.01L112.267 160.123C112.52 162.114 112.766 164.106 113.009 166.099C113.627 166.357 114.259 166.571 114.905 166.756C116.393 167.182 117.918 167.355 119.454 167.506C122.581 167.813 125.733 167.955 128.872 168.129L129.545 168.167C133.074 168.369 136.622 168.405 140.142 168.043C141.888 167.863 143.619 167.562 145.322 167.135C146.187 166.918 147.027 166.594 147.89 166.381C148.177 166.311 148.433 166.149 148.719 165.975C148.847 165.814 149.026 165.692 149.258 165.645L149.321 165.634L149.384 165.625L149.405 165.616L149.404 165.622C149.58 165.598 149.748 165.599 149.906 165.62C149.969 164.067 150.038 162.513 150.123 160.96C150.353 156.789 150.987 152.438 150.14 148.303C150.112 148.164 150.301 148.115 150.35 148.245C152.011 152.622 151.825 157.409 151.908 162.016C151.99 166.521 151.941 171.03 151.918 175.536C152.241 175.674 152.529 175.86 152.757 176.121C153.212 176.643 153.343 177.551 152.757 178.054C152.497 178.278 152.209 178.433 151.904 178.54C151.888 182.455 151.86 186.371 151.821 190.286C152.565 190.861 152.635 192.226 151.793 192.794C151.653 205.472 151.422 218.151 151.231 230.828L150.831 257.424C150.778 260.967 150.69 264.51 150.658 268.053L150.683 268.063L150.772 268.104C150.921 268.174 151.143 268.288 151.189 268.404C151.201 268.434 151.204 268.455 151.202 268.47C151.447 268.505 151.689 268.62 151.898 268.819C152.415 269.31 152.31 270.05 151.898 270.551L151.788 270.684C151.531 270.996 151.044 271.116 150.646 271.053C150.65 273.264 150.664 275.476 150.657 277.687C150.655 278.363 150.644 279.038 150.633 279.714L150.605 281.333C150.586 282.257 150.505 283.432 149.558 283.847C148.491 284.316 147.534 283.932 147.101 282.847C146.984 282.553 147.009 282.28 147.052 281.989C147.039 281.553 146.971 281.047 146.979 280.642L147.014 278.954C147.02 278.693 147.03 278.433 147.038 278.173L147.007 278.176C143.214 278.36 139.394 278.27 135.595 278.268L133.905 278.27C132.495 278.272 131.082 278.264 129.674 278.21L129.146 278.188C128.092 278.138 126.984 278.122 125.891 278.028C126.03 279.15 126.16 280.273 126.276 281.397C126.386 282.463 125.287 283.369 124.306 283.369C123.141 283.369 122.474 282.453 122.335 281.397C121.677 276.418 121.407 271.393 120.778 266.412C120.215 261.95 119.727 257.477 119.23 253.007L119.064 251.517C117.247 235.248 115.483 218.973 113.796 202.69L113.01 195.078C112.217 187.406 111.419 179.734 110.746 172.05C110.361 167.658 110.006 163.264 109.672 158.867C109.427 155.637 109.273 152.425 109.173 149.201C108.778 148.794 108.58 148.201 108.755 147.588C108.858 147.23 108.977 146.874 109.102 146.519C109.094 146.17 109.086 145.822 109.079 145.472C109.073 145.142 109.408 144.972 109.677 145.026C110.165 143.844 110.702 142.672 111.151 141.502C111.877 139.607 112.475 137.565 113.501 135.812ZM72.9595 156.292C80.548 151.534 89.5809 148.111 98.6281 148.48C98.8338 148.488 98.8917 148.802 98.6781 148.849C93.8524 149.927 88.9736 151.24 84.4049 153.151C79.8229 155.067 75.4662 157.648 71.5858 160.749C64.4264 166.471 58.8616 173.913 55.1974 182.302C53.0511 187.216 51.5466 192.405 50.233 197.595C48.8428 203.088 47.6971 208.64 46.7445 214.225C44.863 225.258 43.7676 236.412 43.1847 247.585C42.5916 258.951 42.8361 270.325 42.4131 281.693C42.34 283.663 39.5259 283.624 39.3829 281.693C38.4246 268.769 38.9555 255.638 39.8418 242.723C40.6387 231.113 42.0303 219.527 44.2712 208.103L44.4664 207.113C46.5613 196.544 49.0882 185.719 54.1526 176.148C58.4764 167.976 65.1516 161.187 72.9595 156.292ZM178.337 206.804C178.377 206.691 178.527 206.692 178.566 206.804C179.432 209.227 179.463 211.96 179.693 214.514L179.711 214.71C179.931 217.039 180.097 219.371 180.252 221.705L180.309 222.58C180.929 232.102 181.703 241.612 182.87 251.084C184.033 260.519 185.606 269.889 187.306 279.24C187.496 280.281 187.035 281.342 185.944 281.642C184.981 281.906 183.746 281.313 183.543 280.278C182.487 274.911 181.633 269.536 180.872 264.122C179.531 254.589 178.531 245.012 177.887 235.406C177.564 230.581 177.366 225.759 177.287 220.924C177.25 218.681 177.308 216.432 177.428 214.191L177.456 213.674C177.588 211.384 177.575 208.988 178.337 206.804ZM96.3388 267.449C96.4402 267.394 96.5657 267.507 96.5015 267.612C95.0321 270.001 93.0443 272.061 91.1231 274.091C89.1145 276.213 87.1557 278.399 85.1066 280.48C83.626 281.983 81.2444 279.559 82.8069 278.179C85.0039 276.241 87.3002 274.399 89.5362 272.503L90.5141 271.674C92.3475 270.125 94.2352 268.589 96.3388 267.449ZM166.129 266.253C166.02 266.044 166.27 265.874 166.44 266.013C167.626 266.977 168.688 268.127 169.832 269.145C170.966 270.153 172.141 271.093 173.349 272.01C174.562 272.93 175.801 273.814 177.074 274.65C178.13 275.344 179.218 275.9 180.323 276.476C180.835 276.542 181.309 276.793 181.689 277.269C182.289 278.023 182.353 279.444 181.521 280.099L181.371 280.216C180.4 280.979 179.247 281.072 178.291 280.216C177.224 279.26 176.215 278.207 175.19 277.197L174.881 276.895C173.78 275.824 172.705 274.718 171.692 273.563L170.775 272.519C169.073 270.577 167.302 268.485 166.129 266.253ZM160.67 154.336C160.473 154.205 160.594 153.854 160.837 153.937L161.284 154.092C163.149 154.74 165.068 155.459 166.762 156.457C168.581 157.53 170.262 158.808 171.867 160.179C175.189 163.016 178.016 166.505 180.418 170.142C185.239 177.44 188.22 185.797 190.627 194.16C193.193 203.076 195.169 212.185 196.782 221.319C198.421 230.601 199.686 239.968 200.517 249.358C200.926 253.983 201.201 258.612 201.339 263.254C201.41 265.641 201.408 268.027 201.388 270.416C201.383 271.03 201.387 271.644 201.394 272.258L201.418 274.101C201.43 275.265 201.57 276.489 201.293 277.627C200.847 279.459 197.82 279.117 197.919 277.245C197.828 276.622 197.825 275.978 197.848 275.333C197.834 275.25 197.818 275.166 197.801 275.079C197.751 274.832 197.794 274.603 197.891 274.406C197.906 274.096 197.921 273.789 197.926 273.486C197.945 272.257 197.944 271.032 197.91 269.802C197.839 267.21 197.735 264.617 197.631 262.026C197.423 256.848 197.134 251.668 196.714 246.502C195.254 228.523 192.172 210.441 186.994 193.143C184.589 185.111 181.273 177.225 176.519 170.284C174.408 167.203 172.027 164.356 169.387 161.715C166.731 159.057 163.804 156.412 160.67 154.336ZM124.841 270.24L125.2 272.837C125.379 274.135 125.557 275.434 125.726 276.734C126.871 276.577 128.043 276.511 129.146 276.413C131.078 276.242 133.024 276.159 134.961 276.079C138.969 275.914 142.996 275.627 147.007 275.647C147.048 275.647 147.087 275.65 147.126 275.653L147.325 270.53L144.507 270.526C142.119 270.522 139.731 270.502 137.344 270.481C135.193 270.463 133.042 270.46 130.892 270.415L129.97 270.393C128.34 270.349 126.539 270.44 124.841 270.24ZM147.561 262.804C147.446 262.818 147.329 262.829 147.205 262.835C146.647 262.858 146.084 262.842 145.525 262.846C144.336 262.857 143.147 262.865 141.957 262.865C139.578 262.864 137.2 262.879 134.821 262.907C132.373 262.937 129.926 262.98 127.477 262.984C126.29 262.987 125.108 262.955 123.922 262.922C124.114 264.608 124.314 266.293 124.535 267.974C126.377 267.725 128.358 267.85 130.158 267.833L130.392 267.83C132.849 267.788 135.308 267.819 137.765 267.822C140.293 267.825 142.821 267.833 145.349 267.854L147.426 267.871L147.43 267.766C147.491 266.114 147.53 264.46 147.561 262.804ZM123.008 254.738C123.238 256.728 123.454 258.722 123.675 260.715C123.821 260.692 123.969 260.673 124.12 260.657C125.309 260.533 126.494 260.426 127.687 260.352C130.064 260.205 132.44 260.127 134.821 260.063C137.269 259.998 139.718 259.947 142.167 259.913C143.357 259.896 144.546 259.898 145.735 259.906C146.294 259.91 146.858 259.892 147.415 259.93C147.481 259.934 147.545 259.941 147.608 259.948L147.649 256.956C147.657 256.457 147.664 255.959 147.672 255.46C145.833 255.574 143.964 255.53 142.126 255.531L141.703 255.532C139.394 255.542 137.084 255.511 134.775 255.463C132.394 255.413 130.017 255.335 127.64 255.183C126.676 255.121 125.72 255.039 124.762 254.933L124.283 254.878C123.866 254.829 123.437 254.79 123.008 254.738ZM147.862 246.294C143.433 246.645 139.028 246.792 134.587 246.836L133.921 246.842C129.997 246.871 126.04 247.033 122.107 246.929C122.342 248.969 122.577 251.009 122.813 253.048C123.376 253.022 123.942 253.022 124.493 253.002C125.613 252.962 126.729 252.951 127.85 252.949C130.158 252.944 132.467 252.964 134.775 252.959C137.155 252.954 139.534 252.914 141.912 252.869C143.841 252.833 145.79 252.688 147.724 252.693L147.862 246.294ZM148.049 237.592C147.536 237.762 146.93 237.773 146.266 237.803L144.551 237.889C143.757 237.928 142.962 237.964 142.167 237.994C139.517 238.091 136.868 238.181 134.218 238.266C131.503 238.352 128.774 238.402 126.058 238.316C124.728 238.274 123.409 238.204 122.082 238.093C121.754 238.066 121.42 238.048 121.085 238.024C121.394 240.727 121.704 243.429 122.015 246.131C125.93 245.651 129.874 245.351 133.784 244.854L137.319 244.403C140.853 243.951 144.383 243.509 147.93 243.136L148.049 237.592ZM148.238 228.793C147.485 228.979 146.627 228.97 145.904 229.016L145.77 229.025C144.4 229.129 143.026 229.181 141.653 229.215C138.961 229.281 136.268 229.314 133.576 229.331L131.957 229.341C129.798 229.353 127.641 229.359 125.482 229.308C124.097 229.276 122.716 229.209 121.332 229.139C120.917 229.118 120.493 229.105 120.068 229.083C120.358 231.642 120.65 234.2 120.941 236.758C121.396 236.686 121.853 236.631 122.288 236.557C123.403 236.369 124.517 236.218 125.64 236.084C128.073 235.792 130.519 235.582 132.963 235.405C135.472 235.223 137.984 235.069 140.494 234.893L142.271 234.768C142.864 234.727 143.456 234.687 144.049 234.65C145.062 234.588 146.238 234.658 147.242 234.438C147.514 234.325 147.816 234.299 148.119 234.363L148.238 228.793ZM148.466 218.495C148.205 218.826 147.816 218.999 147.352 219.059C144.936 219.373 142.457 219.423 140.02 219.571L139.59 219.598C137.074 219.764 134.556 219.894 132.037 220.028C129.45 220.165 126.864 220.277 124.275 220.368C123.176 220.406 122.071 220.41 120.97 220.396L120.499 220.389C120.046 220.382 119.573 220.383 119.098 220.367C119.361 222.76 119.626 225.152 119.895 227.544C120.379 227.491 120.863 227.451 121.332 227.401C122.715 227.255 124.096 227.11 125.482 227.001C128.109 226.794 130.737 226.67 133.368 226.539C136.06 226.406 138.754 226.317 141.447 226.191C142.752 226.13 144.057 226.055 145.359 225.934C146.271 225.851 147.355 225.54 148.306 225.654C148.358 223.267 148.412 220.881 148.466 218.495ZM148.678 209.269C148.637 209.333 148.589 209.395 148.53 209.452C147.466 210.504 146.155 210.423 144.745 210.533L144.659 210.54C143.277 210.656 141.894 210.767 140.511 210.867C137.746 211.066 134.975 211.206 132.205 211.331C129.371 211.458 126.519 211.546 123.682 211.488C121.865 211.451 119.963 211.457 118.11 211.28C118.394 213.915 118.681 216.55 118.969 219.184C119.49 219.086 120.014 219.011 120.511 218.932C121.763 218.735 123.016 218.537 124.275 218.392C126.79 218.103 129.307 217.832 131.828 217.587C133.983 217.378 136.138 217.166 138.295 216.975L139.59 216.863C142.164 216.646 144.77 216.289 147.352 216.236C147.778 216.228 148.259 216.459 148.503 216.825C148.56 214.306 148.619 211.788 148.678 209.269ZM148.857 201.801C148.2 201.881 147.492 201.835 146.885 201.855C145.351 201.905 143.818 201.952 142.284 201.997L133.081 202.269C129.947 202.361 126.803 202.43 123.669 202.386C122.29 202.367 120.905 202.364 119.526 202.289L119.067 202.262C118.5 202.224 117.804 202.218 117.124 202.149L117.927 209.586C119.771 209.32 121.671 209.22 123.499 209.064L123.89 209.029C126.587 208.783 129.296 208.621 131.998 208.438C134.769 208.25 137.536 208.022 140.303 207.789C141.687 207.673 143.069 207.557 144.452 207.43L144.622 207.413C145.928 207.277 147.156 206.986 148.312 207.756C148.481 207.869 148.614 208.019 148.704 208.188C148.755 206.059 148.804 203.93 148.857 201.801ZM149.071 193.122C143.467 193.347 137.861 193.519 132.252 193.594C129.095 193.636 125.942 193.606 122.785 193.54C121.416 193.512 120.036 193.446 118.668 193.341L118.156 193.3C117.506 193.245 116.822 193.206 116.142 193.14C116.423 195.697 116.702 198.254 116.979 200.812C117.648 200.688 118.348 200.63 118.934 200.555L119.067 200.538C120.524 200.337 121.995 200.22 123.459 200.091C126.311 199.84 129.176 199.678 132.035 199.54C134.963 199.399 137.892 199.28 140.819 199.15L143.748 199.019C144.236 198.997 144.724 198.976 145.212 198.955C145.909 198.926 146.606 198.898 147.304 198.869C147.647 198.855 148.005 198.808 148.349 198.826L148.447 198.812C148.492 198.807 148.532 198.802 148.569 198.798C148.663 198.727 148.764 198.668 148.87 198.623L148.935 198.598L149.071 193.122ZM115.223 184.897C115.483 187.199 115.741 189.501 115.995 191.804C116.794 191.712 117.603 191.662 118.366 191.593C119.905 191.455 121.452 191.334 122.995 191.263L126.081 191.12C128.137 191.025 130.194 190.933 132.252 190.858C137.885 190.652 143.518 190.416 149.147 190.129C149.187 188.567 149.228 187.005 149.27 185.444C148.999 185.733 148.609 185.924 148.096 185.923C142.186 185.907 136.271 185.941 130.362 185.844C127.404 185.795 124.449 185.723 121.495 185.571C120.049 185.497 118.595 185.346 117.161 185.147C116.549 185.062 115.879 185.002 115.223 184.897ZM114.277 176.695C114.555 179.052 114.828 181.411 115.096 183.77C115.83 183.639 116.588 183.569 117.273 183.476C118.744 183.276 120.224 183.117 121.706 183.033C124.589 182.87 127.475 182.788 130.362 182.726C136.271 182.601 142.186 182.602 148.096 182.555C148.651 182.55 149.063 182.77 149.334 183.098C149.375 181.626 149.418 180.153 149.463 178.681C148.892 178.62 148.326 178.535 147.802 178.498C146.193 178.386 144.582 178.283 142.971 178.191C139.61 177.998 136.245 177.833 132.881 177.687C129.516 177.54 126.15 177.397 122.784 177.273L121.312 177.219C118.971 177.132 116.591 177.022 114.277 176.695ZM113.219 167.814C113.508 170.202 113.793 172.591 114.077 174.98L114.163 175.719C116.979 175.172 119.945 175.011 122.784 174.89C126.151 174.747 129.511 174.673 132.881 174.684C136.247 174.694 139.608 174.774 142.971 174.913C144.652 174.982 146.333 175.062 148.012 175.154C148.474 175.179 149.015 175.165 149.573 175.173C149.585 174.798 149.595 174.423 149.608 174.047C149.659 172.527 149.709 171.006 149.761 169.486C148.625 170.07 147.148 170.305 146.007 170.554L145.876 170.583C143.991 171.006 142.066 171.281 140.142 171.449C136.363 171.779 132.545 171.655 128.77 171.336L128.109 171.279C124.794 170.992 121.357 170.627 118.143 169.807C116.612 169.416 115.03 168.869 113.658 168.076C113.515 167.994 113.368 167.906 113.219 167.814ZM145.139 139.435C145.171 139.306 145.365 139.276 145.428 139.397C145.875 140.246 146.041 141.264 146.351 142.173C146.684 143.15 146.996 144.135 147.364 145.1C148.132 147.117 149.039 149.055 150.121 150.924C151.192 152.774 148.193 154.095 147.405 152.069C146.591 149.979 145.923 147.818 145.518 145.609C145.321 144.531 145.145 143.439 145.088 142.344C145.038 141.403 144.906 140.352 145.139 139.435Z" fill="black"/>
<path fill-rule="evenodd" clip-rule="evenodd" d="M163.535 85.9321C161.623 77.8684 157.443 70.3641 150.75 64.2994C130.61 44.3805 93.625 55.1921 93.7926 85.2085C93.0703 88.7144 92.777 92.3192 93.0162 95.8946C93.115 97.4201 93.775 99.549 92.8884 100.922C90.8883 103.491 89.7259 105.384 90.4066 108.8C90.9753 111.784 93.0048 113.897 95.7436 115.021C97.3862 115.492 98.9448 116.519 99.5532 118.085C103.209 124.782 105.918 130.351 111.682 134.915C113.169 136.09 128.424 143.137 133.45 143.137C148.166 143.137 166.712 137.804 167.02 121.361C167.073 117.75 166.439 114.096 166.042 110.513C165.075 102.337 165.416 93.8637 163.535 85.9321Z" fill="white"/>
<path fill-rule="evenodd" clip-rule="evenodd" d="M163.204 81.8988C163.209 81.799 163.352 81.7766 163.379 81.8751C163.926 83.8164 164.236 85.794 164.664 87.7655C165.076 89.6644 165.465 91.5689 165.789 93.4846C166.399 97.1001 166.914 100.725 167.393 104.359L167.512 105.268C168.344 111.663 169.718 118.325 168.516 124.757C167.491 130.246 164.053 134.669 159.623 137.912C155.429 140.983 150.343 142.954 145.293 144.074C139.873 145.277 133.449 145.636 129.039 141.66C127.274 140.068 129.68 136.909 131.596 138.346C136.093 141.718 141.813 140.724 146.888 139.382L147.041 139.341C151.495 138.155 155.978 136.356 159.514 133.321C163.423 129.966 165.356 125.31 165.579 120.202C165.705 117.333 165.437 114.467 165.149 111.615L165.117 111.298C164.786 108.036 164.438 104.775 164.118 101.512C163.825 98.5364 163.573 95.5435 163.44 92.5545L163.378 91.0469C163.248 88.0075 163.074 84.9236 163.204 81.8988ZM110.463 56.6442C117.781 52.8329 126.191 51.4688 134.335 52.7479C142.164 53.9775 149.349 58.019 154.72 63.814C157.342 66.6433 159.669 69.9161 161.156 73.4915C161.895 75.2677 162.474 77.1206 162.782 79.0236C162.94 80.0019 163.096 81.0156 163.126 82.0075C163.153 82.9258 162.884 83.787 162.915 84.7206C162.92 84.8666 162.697 84.8947 162.663 84.7548C162.408 83.7139 161.795 82.9268 161.411 81.9381C161.123 81.1999 160.797 80.4792 160.465 79.7606L160.18 79.1449C159.353 77.3554 158.363 75.6395 157.384 73.9296C155.414 70.4859 152.885 67.3562 149.924 64.7154C144.724 60.0788 138.054 57.0859 131.093 56.5469C123.867 55.9873 116.539 57.7102 110.368 61.5268C104.198 65.3431 99.532 71.2757 97.1096 78.1063C95.8874 81.5533 95.2124 85.1447 95.0554 88.7964C94.976 90.6449 95.0501 92.5088 95.1796 94.3537L95.244 95.2334C95.3193 96.2885 95.371 97.3394 95.2134 98.3689C96.3264 98.0217 97.493 97.8777 98.6639 98.0496C100.404 98.3049 101.443 99.0184 102.224 100.574C102.264 100.655 102.183 100.736 102.102 100.695C101.09 100.19 99.4529 100.456 98.3814 100.721C97.2663 100.997 96.262 101.476 95.3144 102.124C93.5615 103.322 92.1875 105.179 91.8503 107.309C91.5243 109.367 92.3687 111.45 93.7872 112.925C94.5173 113.685 95.3901 114.341 96.3672 114.75C97.553 115.247 98.7268 115.232 99.776 116.052C100.425 116.559 100.268 117.427 99.8279 117.99C102.041 120.418 104.004 123.074 106.218 125.512C107.243 126.641 108.261 127.773 109.244 128.939L109.611 129.378C110.593 130.563 112.154 131.815 112.603 133.305C112.882 134.232 111.889 135.445 110.886 135.023C109.347 134.374 108.248 132.688 107.209 131.394L107.141 131.31C106.05 129.97 105.082 128.554 104.197 127.071L103.906 126.583C102.305 123.89 100.718 121.097 99.6974 118.138C99.63 118.207 99.5586 118.271 99.4834 118.324C98.0129 119.37 95.8753 118.566 94.4068 117.886C93.0205 117.245 91.7495 116.281 90.7589 115.118C88.6044 112.59 87.6112 109.316 88.3308 106.035C88.9403 103.255 90.866 100.552 93.3906 99.1456C92.2253 97.8036 91.7427 95.9944 91.4216 94.2256C91.0117 91.9678 90.93 89.6539 91.0413 87.3643C91.2634 82.804 92.4365 78.3088 94.2501 74.133C97.4947 66.6611 103.231 60.411 110.463 56.6442ZM95.061 106.504C96.597 106.216 98.0283 106.147 99.5097 106.797C101.117 107.502 102.248 108.667 103.299 110.032C104.495 111.585 101.429 113.281 100.656 111.22L100.634 111.156C100.427 110.546 100.056 109.956 99.5862 109.413C99.4453 109.629 99.2568 109.819 99.0354 109.928C98.7673 110.06 98.3579 109.969 98.2934 109.626C98.222 109.246 98.301 108.785 98.5203 108.463L98.5503 108.419C97.4847 107.562 96.2029 106.935 95.061 106.733C94.947 106.713 94.9482 106.525 95.061 106.504Z" fill="black"/>
<path fill-rule="evenodd" clip-rule="evenodd" d="M132.112 117.819C132.156 117.778 132.227 117.763 132.28 117.797C133.194 118.375 133.302 120.32 133.313 121.443C133.691 121.541 134.064 121.653 134.418 121.732C135.168 121.898 135.922 122.042 136.675 122.195L137.239 122.311C139.125 122.709 141.046 123.003 142.967 123.151C144.832 123.293 146.752 123.346 148.611 123.105C149.41 123.002 150.204 122.829 150.976 122.599C151.888 122.327 152.614 121.876 153.463 121.481C155.587 120.491 157.367 123.391 155.323 124.664C153.568 125.756 151.174 126.15 149.148 126.319C147.078 126.492 145.016 126.302 142.97 125.974C140.759 125.62 138.593 125.076 136.496 124.287C135.609 123.953 134.751 123.548 133.913 123.106L133.685 122.985C133.545 122.91 133.4 122.834 133.254 122.757C133.097 124.158 132.645 125.51 132.098 126.811L132.086 126.788C131.787 127.814 130.707 128.449 129.632 127.996C128.371 127.464 128.275 126.069 129.009 125.078L129.044 125.032C129.907 123.922 130.447 122.544 130.917 121.231C131.158 120.558 131.381 119.868 131.575 119.18C131.715 118.682 131.72 118.181 132.112 117.819ZM164.612 106.665C163.864 108.925 162.234 110.666 159.963 111.431C157.712 112.189 155.208 111.913 152.908 111.503C152.404 111.413 151.894 111.314 151.385 111.199C151.802 111.457 152.17 111.82 152.522 112.205C153.043 112.773 153.515 113.372 153.659 114.083C153.801 114.789 153.577 115.326 153.168 115.731C152.54 116.354 151.526 116.69 150.667 116.876C148.744 117.291 146.818 117.227 144.905 116.8C144.416 116.692 144.085 116.43 143.899 116.088C143.673 115.673 143.655 115.156 143.784 114.686C143.914 114.216 144.194 113.782 144.6 113.543C144.934 113.345 145.353 113.291 145.827 113.449C146.78 113.766 147.726 113.976 148.733 114.001C149.159 114.01 149.588 113.998 150.013 113.959C150.253 113.937 150.493 113.906 150.732 113.868C150.591 113.681 150.455 113.49 150.322 113.297C150.164 113.069 150.01 112.839 149.864 112.604C149.44 111.925 149.087 111.227 148.777 110.49C148.677 110.254 148.585 110.017 148.497 109.779C148.484 109.745 148.471 109.711 148.459 109.676C148.431 109.654 148.404 109.631 148.377 109.607C147.771 109.082 147.262 108.436 146.902 107.635C145.928 105.465 146.087 102.772 146.678 100.519C147.151 98.713 148.197 97.0427 149.578 95.908C149.819 95.5111 149.978 95.2703 150.173 95.0675C150.967 94.2414 152.075 93.6842 153.156 93.3453C155.57 92.588 158.199 93.1313 160.245 94.5732C162.134 95.9045 163.614 97.9011 164.413 100.122C165.17 102.225 165.318 104.532 164.612 106.665ZM131.73 92.9301C134.601 92.9055 137.522 93.7535 139.852 95.4504C142.08 97.0742 143.83 99.4716 143.828 102.327C143.826 105.107 142.34 107.841 140.693 109.994C138.843 112.41 136.426 113.575 133.387 113.602C131.808 113.616 130.217 113.476 128.648 113.284L127.807 113.178C126.648 113.029 125.478 112.852 124.379 112.453C119.152 110.556 118.99 103.711 120.926 99.3357C122.421 95.9574 126.205 92.6629 129.977 93.0584C130.546 92.9787 131.13 92.9353 131.73 92.9301ZM136.579 96.1491C132.984 94.5348 128.616 95.0182 125.128 96.7409C123.747 98.2487 122.737 100.149 122.328 101.893C121.892 103.756 121.956 105.762 122.612 107.566C123.413 109.77 125.385 110.316 127.513 110.654L128.338 110.784L128.685 110.836C130.775 111.148 133.061 111.391 135.07 111.001C137.309 110.565 138.731 108.756 139.85 106.9L139.902 106.813C141.064 104.87 142.037 102.506 141.062 100.279C140.233 98.3854 138.423 96.9772 136.579 96.1491ZM157.799 96.7116C156.565 96.0277 155.158 95.9034 153.825 96.3612C153.252 96.5581 152.757 96.8773 152.277 97.2351L152.085 97.3801C151.495 97.8336 150.943 98.0633 150.5 98.6758L150.443 98.7579C150.219 99.0919 149.828 99.2254 149.472 99.181C149.057 100.326 148.886 101.564 148.882 102.783L148.882 102.944L148.885 103.109C148.911 104.55 149.162 106.312 150.296 107.278C151.329 108.158 152.894 108.37 154.291 108.492L155.368 108.582L155.654 108.604C157.127 108.706 158.741 108.671 159.975 107.799C161.05 107.04 161.557 105.75 161.688 104.477C161.999 101.47 160.477 98.1964 157.799 96.7116ZM130.943 96.9894C132.922 95.9783 135.301 96.2318 136.978 97.499C136.829 97.5282 136.682 97.5654 136.536 97.6387C136.156 97.8296 135.919 98.2117 135.829 98.6183C135.728 99.078 135.966 99.5132 136.42 99.6582C136.814 99.7841 137.282 99.8418 137.649 99.6019C137.841 99.4764 137.975 99.3109 138.063 99.1025L138.076 99.0719L138.091 99.0494L138.097 99.0389C138.098 99.0349 138.091 99.0425 138.08 99.0596C138.092 99.0336 138.102 99.0076 138.112 98.9812C138.128 98.9497 138.142 98.918 138.155 98.8853C138.176 98.8669 138.195 98.8464 138.215 98.8259C138.52 99.2949 138.759 99.8245 138.911 100.414C139.885 104.196 135.888 108.121 132.317 108.514C130.968 108.662 129.737 108.34 128.716 107.707C128.725 107.694 128.735 107.683 128.744 107.67C129.154 107.744 129.644 107.56 129.793 107.102C130.173 105.935 129.783 104.569 128.511 104.187C127.693 103.942 126.855 104.213 126.27 104.773C125.828 103.689 125.67 102.47 125.879 101.249C126.174 99.5254 127.213 97.9726 128.83 97.2557C129.618 96.9064 130.296 96.833 130.943 96.9894ZM151.792 99.3229L151.852 99.2279C152.464 98.2861 153.634 97.1308 154.845 97.4485C155.016 97.4931 155.183 97.5649 155.333 97.6581C155.999 97.5677 156.696 97.719 157.269 98.0713L157.253 98.1108C157.251 98.1174 157.248 98.1241 157.247 98.1311C157.195 98.3602 157.225 98.572 157.332 98.7825C157.448 99.0105 157.613 99.2268 157.837 99.3576C157.991 99.4472 158.171 99.4943 158.348 99.4907C158.608 99.4861 158.837 99.3717 159.024 99.1972C159.126 99.1025 159.198 98.9636 159.237 98.8208C159.329 98.9095 159.419 99.0084 159.505 99.1207C160.91 100.969 160.716 103.939 159.067 105.587C159.001 105.653 158.93 105.714 158.86 105.775C158.191 106.697 157.159 107.322 155.92 107.449C154.773 107.566 153.626 107.227 152.746 106.531C152.817 106.493 152.883 106.444 152.94 106.38C153.09 106.21 153.214 106.042 153.305 105.834C153.328 105.782 153.35 105.729 153.371 105.676L153.401 105.596C153.407 105.581 153.454 105.446 153.441 105.47L153.438 105.475L153.455 105.436C153.612 105.043 153.549 104.594 153.175 104.347L153.134 104.321C153.012 104.25 152.86 104.217 152.707 104.216C152.326 103.749 151.758 103.642 151.225 103.778L151.206 103.627C151.203 103.602 151.201 103.577 151.199 103.552C150.786 102.182 150.985 100.625 151.792 99.3229ZM133.455 85.5323L133.592 85.511C134.629 85.361 135.334 85.5337 136.008 86.4202C136.329 86.8427 136.23 87.4808 136.008 87.9125C135.29 89.3077 133.315 89.0192 131.985 89.2963C130.686 89.5666 129.391 89.9345 128.176 90.4701C126.936 91.0166 125.772 91.6632 124.637 92.4014C123.61 93.0695 122.679 94.0736 121.507 94.4623C121.454 94.4798 121.39 94.4325 121.394 94.3765C121.477 93.0422 122.591 91.8175 123.454 90.8672C124.452 89.7684 125.666 88.7928 126.93 88.0172C128.234 87.217 129.644 86.5582 131.104 86.0987C131.873 85.8567 132.659 85.6644 133.455 85.5323ZM149.252 87.344C150.558 85.434 153.804 85.8003 155.719 86.3107C158.12 86.9502 160.722 88.2439 162.406 90.1165C163.914 91.794 161.658 93.9734 159.962 92.5618L159.509 92.1863L159.219 91.9483C157.917 90.8844 156.628 89.9216 155.041 89.2123C153.181 88.3811 151.296 87.9761 149.329 87.5331C149.252 87.5158 149.207 87.411 149.252 87.344Z" fill="black"/>
<path fill-rule="evenodd" clip-rule="evenodd" d="M129.449 130.098C131.159 126.09 134.892 123.144 139.191 122.066C142.347 121.277 145.66 121.303 148.877 121.616C150.563 121.779 152.371 121.912 153.96 122.538C155.316 123.073 156.422 124.085 157.253 125.272C158.243 126.679 158.916 128.289 159.389 129.939C159.456 130.174 159.519 130.41 159.578 130.648C159.372 131.893 158.936 132.953 157.783 133.735C156.658 134.5 155.316 134.813 153.978 134.924C153.846 134.861 153.72 134.796 153.603 134.729C151.518 133.535 150.05 130.713 147.419 131.095C145.07 131.436 143.524 134.393 142.127 136.126C137.644 136.649 133.163 135.301 129.515 132.736C129.33 131.859 129.319 130.973 129.449 130.098ZM162.625 127.057C162.266 126.051 161.814 125.075 161.279 124.157C159.509 121.119 156.791 118.698 153.565 117.314C145.934 114.046 136.06 116.35 129.897 121.711C127.792 123.544 125.663 126.237 125.019 129.134C124.827 129.172 124.645 129.272 124.496 129.413C120.043 126.608 115.458 123.91 111.87 120.023C109.264 117.198 107.452 113.855 106.342 110.182C106.251 109.88 105.764 109.924 105.779 110.259C105.783 110.337 105.787 110.415 105.791 110.493C105.745 110.349 105.526 110.423 105.509 110.563C104.912 115.025 104.165 119.756 104.853 124.241C105.264 126.918 106.479 128.877 108.104 130.993C109.845 133.261 111.815 135.37 113.83 137.393C115.109 138.677 116.444 140.158 118.01 141.1C119.831 142.194 121.896 143.025 123.839 143.869C125.816 144.73 127.823 145.526 129.867 146.216C133.954 147.599 138.178 148.556 142.476 148.975C145.917 149.309 149.85 149.673 153.148 148.378C155.675 147.386 157.715 145.592 159.334 143.433C161.095 141.083 162.488 138.405 163.258 135.582C164.058 132.649 162.793 127.53 162.625 127.057Z" fill="black"/>
</svg>
