<svg width="247" height="325" viewBox="0 0 247 325" fill="none" xmlns="http://www.w3.org/2000/svg">
<path fill-rule="evenodd" clip-rule="evenodd" d="M241.496 179.825C238.479 180.121 235.463 180.417 232.446 180.713C217.998 181.818 203.555 184.124 189.218 185.508C188.861 184.927 188.162 185.022 187.738 185.426C186.307 185.301 184.704 184.207 183.408 185.345C183.366 185.339 183.323 185.332 183.281 185.328C180.973 180.898 179.378 176.172 177.83 171.44C176.842 168.531 175.513 165.715 173.056 163.761C168.864 160.85 159.258 154.946 154.335 155.194C154.254 154.313 153.843 153.404 153.168 152.817C154.655 150.281 148.71 148.626 148.29 148.92C148.559 140.447 144.575 133.089 135.791 131.402C127.921 129.762 116.727 129.486 112.495 137.714C112.03 137.661 107.274 137.637 106.814 137.688C106.098 136.782 98.2412 145.371 101.461 148.362C72.6714 161.102 56.3014 159.582 48.3328 195.4C47.2555 198.764 47.1771 202.446 46.0395 205.736C41.9924 215.19 38.7098 225.257 37.8928 235.543C35.9197 236.049 35.6928 239.53 37.9783 240.033C38.8513 240.225 39.5813 240.488 40.2179 240.987C39.7202 249.417 41.7583 268.674 43.0424 268.614C45.6607 276.951 57.3399 279.303 65.6084 276.374C64.1831 279.057 65.6084 280.743 65.6084 282.177C95.3606 283.303 127.892 282.654 157.635 284.199C161.44 284.145 165.442 285.133 169.195 284.564C171.483 284.015 171.487 280.415 169.166 279.97L179.309 277.766C179.083 277.681 183.491 274.748 186.822 269.267C189.923 263.135 187.813 255.734 189.218 249.065C200.192 248.167 211.347 247.783 222.201 245.924C223.681 250.354 230.088 245.056 232.124 242.925C232.122 242.922 232.119 242.919 232.117 242.915C233.102 242.645 233.892 241.721 233.919 240.627C234.61 239.64 234.755 238.247 234.092 237.293C237.13 219.757 241.761 201.853 243.435 184.153C244.027 184.022 244.584 183.763 245.056 183.363L245.018 183.324C245.818 182.432 245.974 180.891 244.64 180.132C243.563 179.52 242.664 179.71 241.496 179.825Z" fill="white"/>
<path fill-rule="evenodd" clip-rule="evenodd" d="M113.043 135.803C113.94 133.549 116.97 134.425 116.632 136.793C116.43 138.211 115.654 139.709 114.956 140.952C114.388 141.964 113.741 142.951 112.862 143.709C114.426 145.169 116.048 146.574 117.712 147.909C119.528 149.366 121.437 150.708 123.411 151.942C125.141 153.024 126.95 153.983 128.581 155.218C130.098 156.365 131.479 157.746 132.183 159.548C132.931 161.467 132.606 163.449 132.054 165.367L131.991 165.584C131.428 167.484 130.452 169.774 131.805 171.565C132.493 172.476 133.494 173.121 134.359 173.85C135.127 174.497 135.848 175.202 136.509 175.958C137.951 177.607 139.124 179.462 139.864 181.53L139.93 181.718C140.564 183.548 141.028 185.79 140.171 187.587C139.925 188.102 139.132 187.934 138.994 187.433C138.683 186.297 138.699 185.107 138.438 183.955C138.166 182.756 137.714 181.619 137.123 180.542C135.981 178.461 134.434 176.682 132.606 175.179L132.058 174.733C130.632 173.563 129.322 172.321 129.033 170.383C128.723 168.31 129.553 166.335 130.087 164.373C130.459 163.005 130.58 161.694 130.178 160.459C129.687 161.261 129.017 162.022 128.487 162.701C127.431 164.054 126.366 165.399 125.303 166.746C124.213 168.127 123.15 169.53 122.138 170.97C121.685 171.614 121.237 172.262 120.791 172.91C120.455 173.397 119.987 173.884 119.621 174.381C119.71 174.647 119.703 174.954 119.542 175.171C117.602 177.794 114.841 172.322 114.121 170.939C112.655 168.123 111.564 165.132 110.093 162.316C108.568 159.398 106.833 156.558 104.898 153.893C103.728 152.282 102.416 150.768 101.346 149.105C98.8238 151.393 95.5052 152.927 92.457 154.317C89.1079 155.845 85.6285 157.093 82.1947 158.418L81.1804 158.813C75.2639 161.122 69.2029 163.66 64.2851 167.763C58.5063 172.585 55.0876 179.305 52.5424 186.264C49.6126 194.275 47.1887 202.502 44.9292 210.725C43.7729 214.931 42.6758 219.157 41.6444 223.397C40.7355 227.132 39.9822 230.904 38.93 234.601C41.0638 234.525 43.4974 235.352 45.3192 235.59C53.6218 236.677 61.8126 238.41 69.6513 241.411C70.6195 241.782 70.8997 242.749 70.6888 243.533C71.2472 243.375 71.8052 243.216 72.3636 243.059C71.7518 242.121 72.0438 240.445 72.0919 239.405L72.0948 239.334C72.1443 237.949 72.2945 236.562 72.3919 235.18C72.5773 232.545 72.8188 229.929 73.1398 227.308L73.2217 226.653C73.5855 223.802 73.8545 220.935 74.2514 218.089L74.2984 217.764C74.108 217.035 73.8864 216.316 73.6538 215.6C73.0339 213.693 72.1591 211.897 71.3924 210.05C71.3019 209.832 71.6117 209.708 71.7564 209.838C73.0548 211.007 74.0862 212.489 74.9148 214.039C74.9292 213.966 74.9419 213.893 74.9569 213.82L75.0514 213.354C75.2846 212.219 75.5682 211.024 76.2644 210.103C76.3386 210.006 76.4852 209.985 76.5553 210.103C77.2217 211.231 77.2962 212.66 77.3987 213.943C77.5147 215.395 77.5293 216.866 77.5088 218.322C77.4688 221.167 77.2684 224.021 77.1086 226.861C76.9519 229.653 76.6442 232.409 76.2477 235.173L76.1723 235.692C75.9784 237.007 75.8197 238.339 75.564 239.646L75.4918 240.002C75.3551 240.65 75.271 241.563 74.9989 242.322C81.9999 240.369 89.0117 238.46 96.0367 236.585C101.114 235.229 106.197 233.894 111.277 232.55C111.545 232.067 111.879 231.615 112.296 231.212C113.668 229.882 115.488 229.289 117.156 230.312C117.292 230.396 117.303 230.608 117.156 230.689C116.836 230.864 116.516 231.043 116.201 231.23L119.252 230.403C121.532 229.785 123.84 229.012 126.174 228.581C130.472 226.459 135.096 224.923 139.624 223.405L140.158 223.224C142.476 222.434 144.874 221.548 147.27 221.11C149.024 220.789 151.082 221.176 151.788 222.974C152.68 223.562 153.52 224.254 154.331 224.934C154.917 225.426 155.479 225.949 156.05 226.457L156.155 226.55C156.622 226.955 156.992 227.227 157.107 227.872C157.166 228.205 156.954 228.656 156.544 228.612C155.286 228.477 154.264 227.019 153.411 226.149C152.753 225.476 152.089 224.78 151.487 224.04C151.137 224.231 150.656 224.197 150.433 223.774C149.276 221.583 146.107 223.101 144.354 223.621L141.842 224.365C140.586 224.737 139.33 225.112 138.077 225.492C134.633 226.539 131.205 227.71 127.729 228.671C128.04 229.013 127.997 229.621 127.407 229.853C124.686 230.921 121.701 231.473 118.875 232.206C117.09 232.669 115.306 233.134 113.524 233.603C113.218 234.098 112.998 234.659 112.905 235.311C112.565 237.71 113.221 240.478 113.861 242.798L113.957 243.145C114.482 245.01 115.255 247.297 116.864 248.475C117.257 248.762 117.757 248.962 118.261 249.007C121.41 247.385 124.56 245.764 127.711 244.145C128.294 243.845 128.834 244.251 128.965 244.734C130.076 244.552 131.184 244.264 132.194 243.922C133.89 243.345 135.215 242.246 136.805 241.486C139.883 240.015 143.025 241.822 145.781 243.195L146.416 243.507C147.651 244.107 150.222 245.259 150.815 243.619C151.388 242.032 149.575 240.336 148.404 239.622C147.009 238.77 145.384 238.315 143.806 237.935C142.906 237.718 141.994 237.541 141.077 237.412C140.037 237.266 138.962 237.288 137.96 236.95C137.463 236.783 137.386 235.992 137.96 235.861C139.502 235.51 141.343 235.893 142.952 236.284L143.793 236.492C145.414 236.89 147.05 237.389 148.527 238.183C149.6 238.76 150.734 239.637 151.474 240.711C152.117 240.114 152.917 240.134 153.75 240.356L154.203 240.481C154.95 240.688 155.555 240.831 156.282 240.687C156.379 240.158 156.478 239.629 156.583 239.1C157.619 233.898 158.755 228.716 160.009 223.561C162.171 214.67 164.672 205.876 167.493 197.173L167.776 196.303C168.427 194.312 168.95 192.143 169.999 190.315C170.991 188.585 172.58 187.589 174.468 187.062C176.611 186.463 178.862 186.15 181.048 185.746C181.535 185.656 182.024 185.57 182.512 185.482C182.1 184.737 181.792 183.891 181.515 183.242L181.466 183.13C180.87 181.771 180.335 180.388 179.819 178.997L179.432 177.952C178.499 175.434 177.536 172.958 176.224 170.604C174.843 168.126 173.011 166.1 170.728 164.424C166.072 161.005 160.46 159.261 155.944 155.607C155.759 155.458 155.996 155.202 156.184 155.296C159.233 156.829 162.525 157.871 165.697 159.119L166.322 159.366C168.829 160.36 171.375 161.442 173.544 163.052C175.963 164.847 177.869 167.076 179.301 169.726C180.712 172.339 181.615 175.263 182.61 178.054L182.877 178.798C183.278 179.913 183.693 181.024 184.168 182.109C184.546 182.971 185.25 183.954 185.57 184.938C186.446 184.786 187.321 184.634 188.198 184.488C207.184 181.316 226.382 179.453 245.623 178.908C246.375 178.887 246.765 179.605 246.654 180.262C244.807 191.185 243.166 202.145 241.366 213.076C240.58 217.847 239.779 222.614 238.958 227.379C238.543 229.793 238.062 232.198 237.669 234.616C237.351 236.568 237.12 238.536 236.575 240.443C236.085 242.153 235.335 243.802 234.101 245.107C232.772 246.513 230.917 247.194 229.049 247.515C224.308 248.332 219.445 248.665 214.666 249.209L189.219 252.105C189.591 255.486 189.619 258.815 189.448 262.236L189.351 264.103C189.271 265.605 189.176 267.109 188.961 268.596C188.69 270.46 187.838 272.039 186.582 273.432C185.428 274.711 184.027 275.803 182.664 276.848C181.25 277.934 179.788 278.982 178.125 279.654L177.909 279.74C176.449 280.31 173.712 281.192 171.718 280.87C171.978 282.176 172.483 283.581 172.036 284.874C171.828 285.475 171.043 285.774 170.562 285.264C169.61 284.251 169.535 282.914 169.31 281.593C169.075 280.218 168.873 278.839 168.693 277.456C168.345 274.782 168.075 272.084 167.992 269.387C167.907 266.618 167.94 263.845 168.089 261.079C168.166 259.659 168.261 258.239 168.441 256.827C168.518 256.226 168.596 255.623 168.686 255.023C168.719 254.804 168.755 254.586 168.794 254.368L166.51 254.626C163.008 255.017 159.504 255.371 155.978 255.425C155.56 255.432 155.239 255.241 155.029 254.964C154.805 255.329 154.415 255.59 153.857 255.588C148.932 255.569 144.345 253.958 139.866 252.059C137.608 251.102 135.385 250.066 133.123 249.116C131.013 248.23 128.756 247.598 126.696 246.6L121.283 249.44C121.244 249.58 121.193 249.712 121.139 249.823C120.786 250.542 120.091 250.933 119.382 251.227C118.701 251.509 117.995 251.597 117.308 251.526C113.203 253.678 109.097 255.828 104.988 257.973L100.879 260.116C92.6909 264.381 84.5353 268.715 76.2959 272.88L75.6893 273.186C72.8434 274.613 69.7874 276.06 66.6291 277.14C66.5729 277.94 66.6084 278.718 66.6754 279.564L66.6915 279.748C66.7857 280.749 66.9876 282.002 66.1855 282.714C65.7682 283.085 65.0229 283.086 64.7391 282.528C64.2243 281.515 64.6865 279.919 64.8496 278.819C64.9075 278.427 64.9781 278.025 65.0824 277.635C61.4617 278.713 57.7314 279.236 54.0469 278.631C50.4595 278.042 47.6812 275.781 45.4413 273.016C43.0774 270.098 41.3976 266.697 40.4964 263.051C39.4707 258.903 39.4037 254.619 39.4278 250.369C39.4534 245.845 39.6207 241.297 40.1708 236.803C39.5681 236.661 38.8996 236.539 38.2905 236.581C37.9888 237.064 37.4036 237.267 36.8748 237.204C35.7249 238.473 38.6417 239.77 39.5738 240.094C39.8974 240.207 39.8628 240.733 39.4895 240.717L39.2543 240.706C37.814 240.629 36.326 240.383 35.4792 239.044C34.8006 237.971 35.0045 236.7 35.8134 235.825C36.3477 230.771 37.625 225.849 38.8138 220.919C39.9805 216.081 41.2779 211.273 42.653 206.489L43.2695 204.348C45.4346 196.848 47.6977 189.287 50.6843 182.084C52.1757 178.488 53.8937 174.958 56.2225 171.822C58.3933 168.899 60.9562 166.397 63.9021 164.261C69.394 160.278 75.8382 157.871 82.1699 155.579L82.4533 155.476C85.7345 154.289 89.0076 153.087 92.2514 151.801C95.1203 150.663 97.8686 149.22 100.724 148.066C100.631 147.897 100.542 147.727 100.455 147.554L100.403 147.599C100.394 147.606 100.384 147.613 100.375 147.62C100.088 147.819 99.6648 147.721 99.4282 147.497C98.7601 146.867 98.9863 146.167 99.4323 145.513L99.4903 145.429C100.036 144.665 100.522 143.857 101.026 143.065L101.341 142.569C102.186 141.246 103.074 139.914 104.201 138.82C104.723 138.313 105.294 137.934 105.899 137.651C105.848 137.542 106.301 137.318 106.43 137.431C108.348 136.729 110.554 136.876 112.645 137.069M187.988 252.245L185.322 252.548C182.388 252.882 179.454 253.205 176.519 253.525L170.145 254.217C170.128 254.581 170.084 254.937 170.076 255.211C170.035 256.626 170.004 258.043 169.974 259.458C169.915 262.296 169.98 265.137 170.167 267.97C170.348 270.714 170.586 273.459 170.957 276.185L171.033 276.73L171.076 277.017C171.379 277.046 171.676 277.19 171.923 277.485C172.462 278.129 174.414 277.503 175.177 277.232C176.431 276.785 177.611 276.031 178.701 275.275C179.765 274.537 180.723 273.676 181.644 272.769L182.397 272.023C183.146 271.278 183.896 270.485 184.355 269.548C184.978 268.277 185.059 266.717 185.241 265.333C185.466 263.631 185.734 261.929 186.016 260.235M110.589 234.377L110.312 234.449C100.266 237.12 90.2353 239.869 80.1585 242.422C75.1717 243.685 70.1613 244.857 65.1684 246.096L64.3601 246.298C60.4212 247.294 56.4351 248.492 53.4188 251.351C53.3074 251.456 53.1458 251.294 53.2506 251.182C56.5014 247.72 61.1248 246.255 65.5639 244.984C66.3845 244.75 67.2061 244.52 68.0269 244.287C61.9897 242.134 55.8572 240.261 49.5832 238.925C47.9676 238.581 46.3333 238.328 44.719 237.983C43.5932 237.742 42.4937 237.393 41.3798 237.104L40.5036 236.884L40.4919 239.654C40.4773 243.578 40.4843 247.498 40.6844 251.422L40.7223 252.148C40.9557 256.514 41.3202 260.971 42.8689 265.087C44.1274 268.433 46.1334 271.584 48.7567 274.021C50.0841 275.254 51.5112 276.213 53.2753 276.687C54.9133 277.127 56.6294 277.179 58.3132 277.061C66.3898 276.498 73.5792 272.108 80.595 268.475C92.0704 262.531 103.547 256.59 115.034 250.669C114.724 250.457 114.431 250.212 114.165 249.937C112.625 248.345 111.812 246.167 111.279 244.057C110.711 241.811 110.371 239.404 110.331 237.085M125.205 252.963C125.306 252.909 125.424 252.977 125.429 253.092C125.464 253.969 124.979 254.835 124.617 255.626L124.579 255.71C124.139 256.689 123.657 257.656 123.158 258.607C122.162 260.507 121.127 262.387 120.046 264.24C117.874 267.969 115.459 271.54 112.606 274.787C111.961 275.52 110.901 274.58 111.315 273.79C113.309 269.984 115.634 266.39 118.027 262.827C119.225 261.043 120.423 259.258 121.632 257.482C122.137 256.741 122.648 256.003 123.173 255.275L123.49 254.841M244.35 181.088C234.269 181.393 224.2 182.05 214.167 183.081C204.836 184.04 195.54 185.316 186.295 186.906C184.365 187.238 182.436 187.584 180.51 187.944L179.355 188.161C177.428 188.526 175.075 188.677 173.36 189.706C171.552 190.792 171.063 193.06 170.461 194.93C169.754 197.13 169.065 199.336 168.394 201.548C165.73 210.328 163.297 219.184 161.127 228.099C160.049 232.524 159.093 236.973 158.086 241.415C157.191 245.36 156.203 249.262 155.172 253.168C155.299 253.069 155.455 252.994 155.643 252.954C160.766 251.864 165.995 251.39 171.195 250.787L171.698 250.729C177.076 250.096 182.455 249.468 187.837 248.862L223.469 244.854C225.57 244.617 227.822 244.585 229.867 244.021C233.344 243.062 234.159 239.173 234.742 236.076L234.76 235.982C236.519 226.625 237.919 217.187 239.559 207.806M156.001 242.291C154.618 242.199 152.724 240.932 151.675 241.023C152.226 241.948 152.474 243.003 152.157 244.129C151.273 247.264 147.277 245.642 145.351 244.684C143.773 243.899 142.249 242.938 140.502 242.57C138.522 242.153 137.181 242.941 135.508 243.848C134.135 244.594 132.639 245.129 131.1 245.406C130.282 245.554 129.505 245.569 128.73 245.512C128.683 245.55 128.63 245.585 128.57 245.617L128.16 245.832C130.015 245.917 131.905 246.49 133.631 247.014C135.42 247.557 137.177 248.212 138.924 248.882L140.642 249.543C144.881 251.167 149.27 252.709 153.857 252.695C154.187 252.694 154.457 252.786 154.67 252.935M148.261 232.468C149.628 232.301 150.889 232.481 151.981 233.371C153.298 234.444 154.183 236.224 156.077 236.341C156.629 236.375 156.757 237.151 156.208 237.313C154.799 237.731 153.658 236.968 152.698 235.978L152.052 235.303C151.103 234.32 150.228 233.56 148.618 233.619C146.893 233.682 145.166 234.08 143.453 234.283C141.512 234.513 139.572 234.708 137.625 234.877C137.535 234.885 137.519 234.743 137.604 234.722L139.784 234.179M146.942 226.879L147.167 226.857C149.152 226.664 150.967 226.656 152.739 227.724L153.079 227.93C154.677 228.902 156.417 230.046 157.416 231.619C157.579 231.877 157.309 232.18 157.036 232.114C155.115 231.653 153.711 230.244 152.096 229.188C150.283 228.005 148.411 228.2 146.344 228.384C144.343 228.562 142.343 228.807 140.361 229.14C138.499 229.454 136.631 229.948 134.751 230.106L134.751 230.102C134.536 230.102 134.414 229.779 134.633 229.669C136.541 228.716 138.752 228.265 140.828 227.829M207.23 207.256C207.038 206.338 208.167 205.913 208.69 206.641L208.801 206.794C209.931 208.343 211.566 210.287 211.483 212.257C212.476 212.278 213.506 212.882 213.893 213.779C214.072 214.194 214.133 214.685 214.093 215.194C214.996 215.265 215.981 215.858 216.533 216.435C217.448 217.392 217.52 218.745 216.864 219.863C215.432 222.301 212.306 223.188 209.666 223.386L209.572 223.393C206.846 223.582 202.918 223.531 201.049 221.191C199.245 218.934 201.238 217.106 203.282 216.114C202.75 215.628 202.474 214.931 202.733 214.197C203.188 212.905 204.794 212.406 205.701 211.508C206.808 210.413 207.539 208.912 207.247 207.342M208.729 209.241C208.428 210.548 207.689 211.743 206.661 212.691C206.267 213.053 205.837 213.376 205.38 213.653L205.325 213.685C204.919 213.912 203.922 214.339 203.998 214.851C204.077 215.376 205.702 216.198 206.145 216.199C206.246 216.199 206.303 216.356 206.2 216.402C205.397 216.756 204.696 216.908 203.912 216.534C203.387 217.069 202.878 217.623 202.373 218.173C201.481 219.145 201.786 220.171 202.841 220.895C204.535 222.058 207.11 222.029 209.086 221.945C211.075 221.86 213.202 221.416 214.756 220.09L214.823 220.031C215.668 219.28 216.439 218.007 215.146 217.283C214.639 217 214.092 217.016 213.611 216.879C213.161 217.761 212.431 218.468 211.541 218.604C210.821 218.714 210.325 217.809 210.98 217.376L211.127 217.285C211.949 216.76 212.651 215.951 212.632 214.898C212.62 214.167 211.599 213.244 210.934 213.931L210.904 213.964C210.348 214.591 209.368 213.8 209.734 213.105L209.751 213.074M78.985 172.893C78.9825 172.736 79.2033 172.677 79.2804 172.813C80.5717 175.086 81.2467 177.872 81.9346 180.376C82.655 182.998 83.2366 185.648 83.7591 188.317C84.8173 193.721 85.3812 199.095 85.4194 204.603C85.4247 205.389 84.144 205.599 84.0187 204.793C83.187 199.435 82.39 194.071 81.552 188.715C81.1303 186.021 80.6395 183.337 80.1698 180.651M91.7684 176.852C91.6734 176.538 92.1293 176.433 92.2459 176.72C94.8373 183.084 95.7149 190.295 94.0512 197.009C93.7966 198.036 92.293 197.591 92.4851 196.577M125.195 171.197C125.182 170.963 125.486 170.926 125.601 171.087C126.829 172.818 127.338 175.136 129.492 176.03C130.568 176.477 131.778 176.399 132.728 177.153C133.364 177.658 133.851 178.454 133.374 179.218C133.22 179.465 132.79 179.589 132.581 179.321C132.276 178.93 132.115 178.462 131.701 178.169C131.118 177.756 130.33 177.73 129.661 177.536C128.795 177.285 128.032 176.845 127.407 176.193M145.708 142.33C145.835 142.266 145.956 142.307 146.037 142.416C146.153 142.572 146.139 142.724 145.997 142.831C146.186 143.218 146.41 144.186 146.441 144.327C146.571 144.899 146.708 145.467 146.852 146.034C147.142 147.179 147.397 148.333 147.687 149.478C147.995 150.692 148.362 151.893 148.771 153.077C148.797 153.154 148.826 153.232 148.856 153.311L148.903 153.431L148.914 153.413C148.997 153.282 149.17 153.374 149.15 153.512C149.131 153.639 149.105 153.764 149.084 153.891L149.126 154.004C149.393 154.723 149.576 155.481 149.086 156.116C148.903 156.353 148.701 156.493 148.45 156.535C148.047 157.865 147.541 159.169 146.999 160.422L146.841 160.788C146.044 162.616 145.195 164.421 143.927 165.977C142.542 167.676 140.637 168.836 139.431 170.698C138.87 171.565 138.48 172.475 138.163 173.453L138.043 173.825C137.819 174.517 137.559 175.187 136.91 175.593C136.703 175.722 136.393 175.681 136.226 175.505C134.896 174.097 136.289 171.468 137.091 170.105C138.206 168.21 139.82 166.997 141.436 165.567C143.178 164.026 144.289 161.964 145.363 159.933C146.022 158.688 146.657 157.417 147.326 156.167C146.627 155.549 146.403 154.321 146.167 153.468L146.145 153.391C145.754 152.025 145.443 150.623 145.246 149.214C145.057 147.86 144.978 146.526 145.028 145.164L145.043 144.817M148.307 148.775C148.153 148.563 148.409 148.323 148.621 148.367C149.909 148.634 151.168 149.414 152.325 150.045L152.448 150.112C153.371 150.61 154.3 151.22 154.785 152.187C155.312 153.238 155.268 154.449 155.196 155.592L155.19 155.699C155.102 157.069 155.087 158.493 154.798 159.838C154.649 160.527 154.026 160.721 153.493 160.558C152.859 162.561 151.077 164.037 149.776 165.618C148.116 167.634 148.428 170.355 148.602 172.782C148.672 173.765 147.45 174.044 146.821 173.52L145.37 172.315C145.129 172.114 144.888 171.912 144.647 171.71C144.441 171.536 144.237 171.362 144.034 171.185L143.732 170.917C143.598 170.797 143.006 170.136 142.833 170.109C142.414 170.042 141.418 171.147 141.077 171.493L141.034 171.537C140.393 172.166 139.813 172.843 139.273 173.561C139.174 173.693 138.98 173.583 139.051 173.431C139.535 172.394 140.097 171.403 140.765 170.476L140.9 170.291C141.344 169.692 141.94 168.635 142.725 168.458C143.682 168.242 144.638 169.203 145.335 169.736L145.379 169.769C145.711 170.018 146.038 170.271 146.365 170.526C146.331 168.719 146.559 166.893 147.492 165.335C148.15 164.237 149.135 163.423 149.978 162.479C150.917 161.428 151.407 160.137 152.257 159.042C152.366 158.901 152.517 158.825 152.68 158.801C152.713 157.921 152.843 157.033 152.943 156.162L152.972 155.902C153.073 154.956 153.312 153.801 152.849 152.915C152.412 152.078 151.409 151.488 150.666 150.92L150.059 150.449M106.494 138.774C106.107 138.998 105.744 139.278 105.415 139.627C104.38 140.725 103.639 142.093 102.919 143.408C102.531 144.117 102.157 144.833 101.766 145.54C101.596 145.847 101.421 146.151 101.244 146.455C101.163 146.595 100.92 146.873 100.799 147.045C100.933 147.232 101.071 147.417 101.212 147.599C101.266 147.669 104.98 151.717 106.275 153.301C108.258 155.727 110.03 158.29 111.545 161.034C113.028 163.72 114.158 166.565 115.532 169.303C116.22 170.674 116.988 172.035 117.967 173.222C118.005 173.268 118.045 173.312 118.084 173.358C118.457 172.348 119.415 171.266 119.885 170.645L119.929 170.587C120.996 169.148 122.123 167.753 123.274 166.382C124.325 165.129 125.403 163.904 126.507 162.699L126.922 162.248C127.691 161.417 128.668 160.173 129.795 159.579C129.674 159.364 129.534 159.151 129.374 158.941C128.319 157.562 126.827 156.561 125.356 155.658L124.401 155.077C120.804 152.884 117.262 150.589 114.139 147.739C112.487 146.232 110.857 144.652 109.468 142.894L108.977 142.272M112.497 137.688C110.812 137.83 108.993 137.796 107.436 138.345C108.82 139.654 110.136 141.067 111.487 142.398C111.608 141.498 111.853 140.609 112.062 139.731" fill="black"/>
<path fill-rule="evenodd" clip-rule="evenodd" d="M129.727 54.4492C141.723 54.4492 154.131 63.7511 158.528 69.687C162.225 74.6775 164.215 97.2446 164.215 112.496C164.215 115.685 165.975 121.698 165.461 124.749C163.58 135.929 155.382 145.306 139.157 145.306C122.932 145.306 111.299 138.872 99.2393 121.598C93.3879 121.598 90.552 117.109 90.5108 110.025C90.4697 102.94 96.1589 100.363 96.1589 100.363C96.1589 100.363 94.1304 72.4057 99.2393 65.127C104.348 57.8483 117.731 54.4492 129.727 54.4492Z" fill="white"/>
<path fill-rule="evenodd" clip-rule="evenodd" d="M124.679 50.4962C132.253 49.729 139.675 50.3736 147.139 51.7074C147.709 51.8108 148.032 52.1851 148.153 52.635C151.668 52.7957 155.188 53.0537 158.699 53.2461C159.973 53.3158 160.696 54.5752 160.115 55.7125C159.999 55.9384 159.878 56.1582 159.755 56.3781L159.909 56.3273C160.966 55.9883 162.107 55.8212 163.136 56.3592C164.446 57.044 164.959 58.555 164.67 59.9456C164.596 60.3007 164.471 60.641 164.33 60.973C164.617 60.954 164.906 60.9603 165.194 60.9984C166.723 61.2013 167.86 62.3743 167.94 63.9362C168.058 66.2946 166.539 68.6873 164.75 70.3758C165.01 70.9107 165.109 71.5405 165.001 72.1788C164.786 73.4406 163.857 74.1961 162.78 74.689C163.229 76.1158 163.441 77.6076 163.316 79.132C163.274 79.641 162.829 80.0613 162.359 80.1645C164.11 84.9862 164.996 90.163 165.633 95.2073C166.087 98.7963 166.311 102.406 166.339 106.022C166.352 107.655 166.325 109.289 166.257 110.922L166.229 111.534C166.144 113.299 166.14 115.152 165.823 116.898C166.905 118.739 167.34 121.024 167.524 123.087C167.752 125.64 167.391 128.273 166.586 130.702C163.548 139.878 154.379 145.669 145.17 147.174C136.645 148.567 126.781 146.692 121.799 138.946C121.721 138.824 121.888 138.722 121.985 138.803C125.549 141.702 129.684 142.996 134.175 143.626C141.942 144.712 150.671 142.869 156.903 137.983C159.895 135.637 162.052 132.221 163.001 128.546C163.485 126.667 163.651 124.708 163.461 122.774C163.267 120.813 162.399 119.139 161.851 117.285C161.668 116.659 161.862 116.078 162.244 115.664C162.352 114.159 162.606 112.642 162.703 111.141C162.81 109.435 162.876 107.73 162.899 106.022C162.944 102.48 162.796 98.9313 162.498 95.4041C161.953 88.945 160.506 82.6428 159.656 76.2386C159.342 76.5208 158.891 76.6366 158.419 76.3901L158.37 76.3633L158.112 76.2156C158.097 76.2156 158.08 76.2177 158.065 76.2196C156.301 76.391 154.472 76.1459 152.782 75.6194C151.013 75.0701 149.372 74.2247 147.905 73.0982C147.627 74.5119 147.51 75.9406 147.508 77.382C147.506 78.2824 146.554 78.7497 145.797 78.365C142.444 76.6613 139.242 74.6981 136.201 72.4916C135.846 74.3113 135.492 76.1308 135.134 77.9527C134.997 78.6546 134.103 78.9378 133.531 78.6039C131.254 77.2785 129.287 75.5435 127.685 73.4805C127.366 74.0922 127.045 74.7037 126.722 75.3139L126.236 76.2281C125.756 77.1263 125.114 78.1199 124.064 78.4071C122.953 78.7114 122.025 77.9909 121.651 76.9847C121.537 76.6721 121.432 76.3507 121.335 76.0273C120.388 78.1896 119.319 80.3031 118.111 82.3194C116.298 85.3436 114.122 88.0383 111.952 90.8028C111.293 91.6421 110.165 90.8408 110.074 90.0252C110.021 89.5455 109.977 89.0636 109.939 88.5836C108.674 91.1359 107.355 93.6643 105.918 96.1193L106.124 96.926C106.717 99.3096 107.209 101.71 107.745 104.106C107.917 104.88 107.507 105.985 106.604 106.117C105.525 106.274 104.504 106.825 103.399 106.446C102.195 106.032 101.956 104.99 101.388 104.003C101.274 103.806 101.142 103.625 101 103.454L100.964 103.501C100.875 103.617 100.664 103.49 100.717 103.357L100.779 103.203C100.29 102.684 99.7054 102.252 99.1677 101.786C97.8899 101.571 96.4527 101.807 95.5723 102.326C93.5674 103.509 92.6465 105.948 92.6275 108.191C92.6042 110.816 93.4174 113.766 94.7906 116.011C95.3951 116.998 96.2233 117.889 97.3174 118.327C98.4035 118.762 99.5803 118.627 100.685 119.037C101.416 119.31 101.866 120.122 101.425 120.857C101.395 120.908 101.361 120.954 101.329 121.003L101.658 121.439C101.884 121.741 102.12 122.065 102.339 122.402C102.901 123.049 103.493 123.672 104.066 124.308C105.124 125.481 106.151 126.686 107.192 127.876C108.175 128.998 109.214 130.053 110.285 131.09C111.297 132.073 112.561 132.9 113.49 133.948C114.394 134.971 114.639 136.757 113.152 137.349C111.506 138.005 110.049 136.467 108.942 135.441L108.895 135.398C106.864 133.528 105.031 131.392 103.574 129.04C102.132 130.022 100.045 130.116 98.6089 129.134C97.853 128.617 97.273 127.749 96.9912 126.804C96.7254 126.864 96.4599 126.898 96.2009 126.894C96.0676 126.972 95.9338 127.047 95.7986 127.117C94.7273 127.675 93.4113 127.426 92.9211 126.24C92.4748 125.163 92.9347 123.941 93.3368 122.903L93.4197 122.689C93.6479 122.098 93.8993 121.453 94.212 120.846C93.3416 120.191 92.5977 119.377 91.9683 118.452C89.8535 115.334 88.7972 110.775 89.2641 107.056C89.5451 104.811 90.5991 102.486 92.3252 100.973L92.262 100.808C91.7782 99.5804 91.3385 98.348 91.0535 97.0505C90.7197 95.533 90.5568 93.9606 90.4092 92.4156C90.0965 89.1524 90.181 85.8151 90.5972 82.5646C91.3789 76.446 93.3606 70.4394 96.8782 65.348C95.8808 64.1536 95.0909 62.7482 95.5026 61.1315C95.6909 60.3895 96.1195 59.6859 96.7662 59.2609C97.123 59.0265 97.5479 58.9906 97.9049 58.7961L98.0123 58.737C98.1691 58.6454 98.0492 58.6551 97.9556 58.2297C97.5859 56.5302 97.8923 54.8882 99.762 54.3239C101.522 53.7935 103.187 54.9199 104.228 56.262C106.954 54.328 110.545 53.3158 113.704 52.4556C117.295 51.4811 120.979 50.8726 124.679 50.4962ZM95.2409 107.497C95.2281 106.113 96.54 105.259 97.8311 105.486C98.698 105.636 99.4212 106.154 100.1 106.689L100.431 106.951C101.258 107.601 102.208 108.301 102.701 109.22C103.423 110.577 101.896 112.403 100.47 111.452C99.4916 110.796 98.8645 109.745 98.2229 108.769L98.1564 108.668C97.8649 108.231 97.6093 107.766 97.2097 107.415L97.1234 107.339C96.9922 107.227 96.8512 107.125 96.6816 107.077C96.3545 106.983 95.7486 107.114 95.6043 107.504L95.5914 107.544C95.5386 107.741 95.2431 107.698 95.2409 107.497Z" fill="black"/>
<path fill-rule="evenodd" clip-rule="evenodd" d="M149.973 126.659C148.539 127.223 146.845 127.356 145.365 126.875C143.95 126.416 142.665 125.393 141.887 124.107C141.195 122.961 140.906 121.602 141.315 120.247C141.334 120.182 141.398 120.14 141.459 120.124C141.794 120.429 142.001 120.732 142.208 121.034C142.556 121.542 142.905 122.045 143.385 122.479C144.082 123.111 145.022 123.625 145.955 123.794C146.868 123.96 147.803 123.813 148.62 123.376C149.118 123.11 149.52 122.755 149.918 122.398C150.351 122.009 150.778 121.615 151.375 121.395C151.854 121.219 152.356 121.368 152.742 121.662C153.157 121.978 153.456 122.473 153.439 122.991C153.414 123.793 153.063 124.462 152.554 125.013C151.865 125.759 150.892 126.297 149.973 126.659ZM148.271 106.675C149.866 107.646 152.297 109.908 150.581 112.313C148.56 114.433 145.652 112.002 144.218 110.902C142.889 110.05 141.396 112.242 142.629 113.237C152.986 120.908 157.19 106.929 149.078 105.535C148.184 105.381 147.853 106.375 148.271 106.675ZM131.49 93.2338C133.665 93.1298 135.581 94.1067 137.653 94.5505C139.568 94.961 141.455 94.7145 143.317 94.1925C146.339 93.3452 147.589 97.9738 144.608 98.8758C142.437 99.5327 140.151 99.5783 137.923 99.2398C135.944 98.9388 134.285 97.975 132.398 97.4139C130.779 96.9326 128.874 97.1326 127.164 97.3592L126.5 97.4486C125.514 97.5815 124.522 97.7149 123.545 97.9078C122.697 98.0754 121.851 98.3821 120.986 98.4176C120.888 98.4218 120.804 98.2942 120.866 98.209C121.871 96.8288 123.808 95.7397 125.349 95.0133L125.453 94.9644C127.355 94.0773 129.373 93.3348 131.49 93.2338ZM130.694 103.412L130.694 103.364C130.696 102.016 131.481 98.939 133.421 98.939C134.632 98.939 135.368 101.033 135.495 103.192L135.5 103.28C135.556 104.622 135.188 107.556 133.421 107.556C131.635 107.556 130.712 104.777 130.694 103.412ZM159.248 103.412L159.248 103.364C159.245 102.016 158.46 98.939 156.521 98.939C155.34 98.939 154.611 100.93 154.457 103.03L154.446 103.192C154.37 104.489 154.714 107.556 156.521 107.556C158.307 107.556 159.229 104.777 159.248 103.412ZM159.218 91.5923L159.357 91.5954C161.623 91.674 163.955 93.0171 164.56 95.2733C164.591 95.3904 164.447 95.4692 164.361 95.3889C162.497 93.6434 159.991 95.3113 158.125 96.1855L157.439 96.5023C155.034 97.622 152.298 98.9383 149.626 98.1039C148.358 97.7076 147.552 96.4036 147.914 95.0865C148.236 93.9145 149.65 92.9296 150.875 93.3526L150.93 93.3728C151.925 93.7536 153.149 93.3678 154.176 92.9874L155.021 92.6703C156.378 92.155 157.742 91.5785 159.218 91.5923Z" fill="black"/>
</svg>
