<svg width="240" height="325" viewBox="0 0 240 325" fill="none" xmlns="http://www.w3.org/2000/svg">
<path fill-rule="evenodd" clip-rule="evenodd" d="M189.444 220.288C188.032 215.946 189.714 210.931 188.615 206.25C188.238 204.398 187.522 197.52 186.802 193.497C186.4 191.247 188.807 190.549 189.177 189.651C191.78 181.583 172.79 162.605 171.631 161.905C169.894 160.901 168.356 160.037 166.659 159.011C161.708 157.271 155.771 152.431 151.282 155.539C143.505 143.958 146.581 129.689 142.361 127.993C138.141 126.297 125.679 122.869 118.554 127.246C114.284 130.407 114.598 135.849 112.65 140.336C111.506 142.449 110.944 145.509 109.613 146.887C105.089 151.568 99.4475 152.375 93.1407 153.169C92.6604 153.23 92.155 151.923 91.6882 152.084C81.0496 155.763 68.6706 156.836 56.6224 177.433C54.9209 180.379 50.3307 185.105 51.8655 188.509C41.7526 212.034 31.8018 264.985 59.5507 278.19C60.4377 278.758 66.4551 275.714 67.4355 275.742C69.0699 275.789 65.9383 279.759 67.4355 279.052C78.4275 279.886 138.911 277.734 162.095 279.886C178.038 279.767 188.136 282.563 191.817 279.767C190.345 276.209 190.414 272.398 190.879 268.637C194.267 266.115 190.078 248.339 190.433 243.135C193.605 239.331 191.079 225.066 189.444 220.288Z" fill="white"/>
<path fill-rule="evenodd" clip-rule="evenodd" d="M184.39 194.252C182.869 196.465 181.472 198.743 180.209 201.113C179.557 202.335 178.95 203.582 178.403 204.853C178.289 202.103 178.264 199.321 177.943 196.598C177.92 196.401 177.592 196.306 177.558 196.545C177.203 199.014 177.144 201.547 177.01 204.043C176.856 203.996 176.685 203.969 176.497 203.969C174.671 203.969 172.874 204.118 171.055 204.266C170.24 204.332 169.387 204.382 168.556 204.512C169.225 203.773 169.848 202.992 170.423 202.177C171.01 201.346 171.681 200.048 170.658 199.25C169.529 198.369 167.314 199.521 166.222 199.97C165.669 200.197 165.127 200.444 164.593 200.707C163.919 198.817 161.852 198.567 160.081 198.827C158.818 199.014 157.592 199.446 156.361 199.775C154.798 200.193 153.229 200.586 151.654 200.955C148.818 201.619 145.962 202.199 143.093 202.702C143.017 202.614 142.912 202.545 142.771 202.51C141.789 202.264 140.705 202.452 139.697 202.471C138.661 202.49 137.625 202.488 136.589 202.467C134.738 202.429 132.889 202.414 131.038 202.382C130.512 202.063 129.845 201.605 129.682 201.005C129.478 200.255 130.115 199.425 130.41 198.787C131.546 196.338 131.943 193.598 131.497 190.93C131.418 190.455 131.254 189.935 131.018 189.448C133.046 189.665 135.047 189.812 137.085 189.879C141.156 190.011 145.226 190.15 149.298 190.18C157.441 190.241 165.584 190.241 173.726 190.182C178.33 190.148 182.923 190.106 187.522 189.871C187.147 190.346 186.782 190.831 186.427 191.324C186.353 191.302 186.257 191.342 186.268 191.433C186.272 191.465 186.276 191.497 186.279 191.528C185.63 192.435 185.005 193.357 184.39 194.252ZM175.336 278.468C173.444 278.408 171.552 278.348 169.66 278.287C165.946 278.169 162.232 278.051 158.518 277.933C151.16 277.698 143.802 277.472 136.443 277.269C129.102 277.067 121.758 276.852 114.414 277.082C107.054 277.311 99.7133 277.905 92.3671 278.382C88.2831 278.647 84.1961 278.877 80.1045 278.987C76.2077 279.091 72.2764 278.933 68.3857 279.211C68.2549 278.249 68.351 277.289 68.3369 276.331C69.6132 275.593 70.8658 274.81 72.1038 274.039C76.6173 271.231 80.8836 268.054 84.9079 264.581C85.5265 264.047 86.133 263.501 86.7334 262.95C86.3155 263.864 86.65 265.042 87.8477 265.428C89.3082 265.9 90.8035 265.732 92.3204 265.697C93.8608 265.66 95.4011 265.626 96.9417 265.593C99.9525 265.53 102.963 265.472 105.974 265.422C111.857 265.323 117.739 265.25 123.621 265.203C135.457 265.107 147.284 265.268 159.117 265.482C162.444 265.542 165.768 265.617 169.096 265.541C170.761 265.504 172.432 265.492 174.095 265.402C175.427 265.33 176.768 265.141 178.1 264.972C178.268 267.293 178.443 269.613 178.639 271.932C178.768 273.463 178.901 274.994 179.033 276.525C179.087 277.156 179.091 277.801 179.18 278.401C177.901 278.471 176.63 278.509 175.336 278.468ZM176.637 212.933C176.591 214.71 176.566 216.487 176.553 218.265C176.4 218.177 176.227 218.113 176.032 218.083C173.962 217.767 171.748 218.007 169.654 218.042C167.631 218.076 165.6 218.065 163.578 218.16C161.552 218.256 159.527 218.37 157.502 218.475C156.552 218.525 155.612 218.567 154.669 218.696C154.023 218.784 153.197 218.778 152.506 218.962C155.402 216.156 158.282 213.335 161.169 210.522C161.256 210.437 161.318 210.348 161.362 210.257C163.287 209.083 165.135 207.762 166.809 206.25C168.137 206.762 169.648 206.826 171.055 206.941C172.874 207.088 174.671 207.238 176.497 207.238C176.62 207.238 176.736 207.226 176.845 207.204C176.755 209.113 176.687 211.022 176.637 212.933ZM101.458 247.444C105.879 248.856 110.668 248.84 115.267 249.123C120.169 249.425 125.064 249.675 129.972 249.867C139.775 250.247 149.571 250.765 159.372 251.177C164.971 251.412 170.568 251.672 176.164 251.954C176.561 251.974 176.939 251.872 177.273 251.685C177.461 255.372 177.681 259.057 177.938 262.74C177.97 263.2 178.005 263.66 178.038 264.121C175.404 263.791 172.79 263.474 170.137 263.25C167.157 262.998 164.179 262.786 161.195 262.588C155.38 262.202 149.556 261.686 143.731 261.498C131.856 261.114 119.955 261.244 108.075 261.329C104.714 261.353 101.353 261.385 97.9919 261.426C96.3115 261.446 94.631 261.469 92.9506 261.493C91.2617 261.518 89.4467 261.342 87.8477 261.932C87.8324 261.937 87.8196 261.946 87.8046 261.951C92.6289 257.379 96.9508 252.325 101.458 247.444ZM116.998 232.825C124.385 234.17 131.888 234.078 139.376 234.211C147.038 234.348 154.711 234.257 162.374 234.273C166.727 234.282 171.118 234.473 175.455 234.086C175.968 234.04 176.365 233.846 176.648 233.57C176.727 238.185 176.872 242.798 177.072 247.409C176.79 247.29 176.483 247.217 176.164 247.198C166.372 246.622 156.579 246.099 146.774 245.78C136.978 245.46 127.169 245.082 117.368 245.2C112.584 245.258 107.526 244.952 102.809 245.995C104.601 244.089 106.433 242.219 108.348 240.428C111.141 237.817 114.121 235.371 116.998 232.825ZM122.642 227.392C122.651 227.381 122.656 227.368 122.664 227.357C122.69 227.376 122.723 227.39 122.766 227.389C129.681 227.233 137.439 229.415 143.906 226.066C146.794 224.571 149.185 222.208 151.506 219.936C151.507 219.953 151.509 219.97 151.51 219.987C151.525 220.171 151.603 220.393 151.79 220.475C152.553 220.81 153.446 220.832 154.266 220.951C155.208 221.088 156.133 221.168 157.083 221.225C159.178 221.351 161.273 221.484 163.369 221.603C165.46 221.721 167.561 221.731 169.654 221.783C171.754 221.835 173.954 222.09 176.032 221.79C176.223 221.763 176.392 221.702 176.543 221.619C176.546 224.309 176.571 226.998 176.596 229.686C176.6 230.124 176.608 230.562 176.613 231C176.333 230.743 175.947 230.563 175.455 230.519C171.602 230.18 167.718 230.331 163.851 230.344C160.053 230.356 156.255 230.369 152.458 230.382C144.789 230.407 137.127 230.482 129.46 230.628C125.731 230.699 122.019 231.013 118.345 231.617C119.833 230.261 121.279 228.865 122.642 227.392ZM62.5562 276.291C61.1405 276.724 59.7351 276.536 58.3167 276.833C58.2294 276.851 58.1489 276.885 58.0752 276.93C53.8274 275.114 50.996 271.471 49.0583 267.388C47.0158 263.085 45.6079 258.485 44.6648 253.822C42.7203 244.208 42.7169 234.24 43.7234 224.514C44.7123 214.959 46.6703 205.455 49.4646 196.266C51.3831 189.956 53.8281 183.582 57.2229 177.829C61.143 180.456 64.1832 184.239 67.0471 187.937C70.4694 192.356 73.5535 197.033 76.3141 201.892C76.0287 202.724 75.9843 203.768 75.8474 204.512C75.5836 205.947 75.3453 207.399 75.1579 208.846C74.7575 211.939 74.3734 215.033 73.9642 218.125C73.1548 224.238 72.1885 230.334 71.121 236.407C71.0346 236.899 71.1727 237.315 71.4269 237.628C69.3096 238.744 67.2199 239.91 65.1839 241.174C60.7078 243.952 56.5245 247.189 53.2401 251.341C53.1548 251.448 53.2885 251.592 53.3941 251.495C60.4374 244.984 69.1877 240.897 77.7789 236.857C82.1692 234.793 86.538 232.695 90.7503 230.282C95.1552 227.758 99.356 224.906 103.382 221.815C107.98 218.286 112.308 214.428 116.365 210.288C116.843 209.8 116.727 209.189 116.367 208.804C116.489 208.766 116.587 208.66 116.593 208.484C116.691 205.781 117.502 203.478 119.091 201.29C120.565 199.26 122.443 197.587 124.137 195.75C124.89 194.934 125.61 194.084 126.252 193.177C126.914 192.243 127.317 191.212 127.892 190.237C128.565 189.097 129.137 189.68 129.449 190.711C129.802 191.881 129.78 193.25 129.638 194.453C129.488 195.725 129.101 196.965 128.543 198.115C128.019 199.196 127.415 200.294 127.768 201.532C128.347 203.567 130.832 204.745 132.714 205.204C134.809 205.714 137.002 205.615 139.124 205.35C141.782 205.018 144.427 204.533 147.054 204.017C150.096 203.42 153.121 202.73 156.122 201.951C157.532 201.584 158.933 201.103 160.357 200.8C160.865 200.692 161.805 200.529 162.402 200.794C154.73 205.369 146.366 208.417 137.87 211.073C136.815 211.403 137.248 212.998 138.328 212.734C147.454 210.501 156.041 206.358 164.212 201.821C164.338 201.751 164.444 201.643 164.522 201.516C165.344 201.227 166.179 200.975 167.032 200.768C167.413 200.675 169.372 200.029 169.617 200.277C169.964 200.629 168.763 201.772 168.463 202.104C166.327 204.471 163.787 206.402 161.038 207.999C158.249 209.618 155.281 210.909 152.3 212.128C148.96 213.493 145.43 214.566 142.184 216.134C140.894 216.758 141.799 218.875 143.158 218.446C144.909 217.892 146.61 217.079 148.312 216.387C149.757 215.801 151.203 215.214 152.64 214.607C153.642 214.184 154.637 213.747 155.623 213.29C154.147 214.68 152.67 216.07 151.194 217.46C148.638 219.868 146.209 222.611 143.084 224.299C139.996 225.968 136.474 226.162 133.037 226.126C131.312 226.108 129.594 226.053 127.868 226.122C126.053 226.196 124.44 226.475 122.719 227.046C122.688 227.057 122.665 227.076 122.645 227.098C122.585 227.024 122.483 226.988 122.377 227.05C117.701 229.816 113.439 233.403 109.34 236.95C105.115 240.604 101.14 244.491 97.3517 248.596C93.7262 252.526 90.1296 256.47 86.1843 260.085C82.3323 263.615 78.2158 266.821 73.9173 269.787C71.5752 271.404 69.1752 272.96 66.692 274.352C65.365 275.095 64.0173 275.844 62.5562 276.291ZM62.9493 169.898C64.6239 168.016 66.4262 166.272 68.3333 164.659C69.1748 164.908 70.0581 164.978 70.9481 164.987C72.3064 165 73.6676 165.057 75.0258 165.043C77.6411 165.016 80.2553 164.933 82.8713 164.919C88.2199 164.89 93.5703 164.889 98.9189 164.935C99.6197 164.941 100.125 164.642 100.437 164.206C101.52 165.434 102.636 166.634 103.761 167.814C105.589 169.733 107.538 171.563 109.613 173.23C109.209 173.233 108.805 173.237 108.404 173.234C106.554 173.221 104.703 173.21 102.853 173.2C99.1408 173.179 95.4282 173.164 91.7155 173.154C84.3347 173.135 76.9308 173.196 69.5595 173.574C67.5136 173.679 65.4516 173.722 63.4129 173.921C62.3071 174.029 61.2026 174.156 60.0979 174.273C59.8718 174.297 59.6551 174.328 59.4423 174.362C60.5242 172.807 61.6896 171.313 62.9493 169.898ZM92.5105 153.126C92.4607 153.159 92.4068 153.19 92.3591 153.226C92.2505 153.307 92.2676 153.455 92.3956 153.504C92.5659 153.571 92.7448 153.621 92.9291 153.661C93.4885 154.473 93.9256 155.476 94.2309 155.985C95.1079 157.446 96.1163 158.838 97.1422 160.197C97.3484 160.47 97.5586 160.74 97.7696 161.009C92.8017 160.997 87.8363 161.023 82.8713 161.21C80.2572 161.31 77.6343 161.393 75.0258 161.589C73.9532 161.669 72.8813 161.805 71.812 161.939C77.3768 157.915 83.635 154.842 90.1182 152.561C90.1093 152.571 90.1002 152.578 90.0913 152.588C89.9485 152.746 90.1617 152.952 90.3224 152.819C91.1658 152.122 91.8979 152.449 92.5105 153.126ZM117.613 200.425C117.471 200.639 117.333 200.86 117.197 201.087C116.871 200.762 116.416 200.544 115.83 200.526C109.322 200.323 102.817 200.146 96.3053 200.141C93.0941 200.139 89.8536 200.031 86.6464 200.19C85.0359 200.27 83.426 200.365 81.8164 200.456C80.691 200.52 79.4954 200.599 78.3964 200.925C75.8635 196.493 73.0517 192.232 69.9812 188.158C76.9479 189.013 84.0341 188.922 91.0403 189.159C98.9783 189.428 106.921 189.486 114.861 189.674C117.04 189.726 119.218 189.782 121.395 189.843C122.519 189.875 123.644 189.907 124.768 189.941C125.119 189.952 125.483 189.962 125.847 189.952C125.819 190.009 125.791 190.066 125.764 190.122C125.151 191.389 124.38 192.554 123.482 193.636C121.573 195.936 119.267 197.917 117.613 200.425ZM109.075 214.077C108.834 213.407 108.246 212.891 107.31 212.934C101.978 213.176 96.6358 213.344 91.3095 213.695C88.7149 213.866 86.1098 213.982 83.5194 214.209C82.1834 214.326 80.8496 214.544 79.5193 214.717C78.6072 214.836 77.6523 214.974 76.7774 215.298C76.9471 213.425 77.0967 211.55 77.2266 209.672C77.3308 208.163 77.3624 206.641 77.3544 205.128C77.3504 204.363 77.3244 203.593 77.2874 202.828C77.366 202.843 77.4448 202.851 77.5222 202.842C77.6586 202.825 77.786 202.809 77.9043 202.777C79.1303 203.257 80.5179 203.363 81.8164 203.456C83.3565 203.565 84.8963 203.682 86.4364 203.792C89.7134 204.026 93.0212 204.011 96.3053 204.118C102.77 204.329 109.237 204.451 115.703 204.625C115.403 205.912 115.392 207.235 115.873 208.481C115.538 208.371 115.153 208.422 114.824 208.747C112.962 210.588 111.044 212.363 109.075 214.077ZM90.2646 227.77C90.1329 227.406 89.8845 227.071 89.5904 226.844C88.4597 225.973 86.3956 226.474 85.0384 226.541C83.4317 226.62 81.8248 226.698 80.2182 226.777C79.7305 226.8 77.2418 226.927 75.4139 227.317C75.7917 224.464 76.1343 221.606 76.4407 218.742C76.5049 218.141 76.5645 217.54 76.6234 216.939C77.4846 217.216 78.4205 217.317 79.3086 217.36C80.6396 217.423 81.9767 217.53 83.309 217.551C85.9708 217.593 88.6473 217.462 91.3095 217.417C96.1036 217.338 100.898 217.109 105.69 216.92C100.879 220.826 95.7953 224.391 90.4925 227.634C90.4169 227.68 90.3402 227.724 90.2646 227.77ZM75.1226 229.463C75.5276 229.517 75.9292 229.534 76.2364 229.566C77.7786 229.721 79.2968 229.863 80.8469 229.885C82.3839 229.908 83.9206 229.93 85.4576 229.953C85.7844 229.957 86.1112 229.962 86.4381 229.967C82.391 232.178 78.2198 234.159 74.1074 236.245C74.4698 233.987 74.808 231.727 75.1226 229.463ZM119.221 179.106C128.444 183.027 140.274 183.382 148.2 176.869C148.988 177.085 149.859 177.157 150.554 177.226C152.117 177.383 153.665 177.528 155.235 177.577C158.295 177.673 161.358 177.816 164.42 177.853C170.613 177.93 176.807 177.966 183 178.021C183.528 178.026 183.949 177.865 184.269 177.607C184.896 178.671 185.48 179.761 186.013 180.88C186.789 182.511 187.448 184.196 187.988 185.919C187.873 185.899 187.752 185.885 187.623 185.883C179.484 185.742 171.338 185.976 163.197 186.01C155.054 186.045 146.912 186.01 138.77 186.068C136.516 186.084 134.28 186.084 132.032 186.251C130.862 186.339 129.678 186.377 128.52 186.565C128.39 186.586 128.259 186.605 128.126 186.624C126.573 185.716 124.646 185.905 122.871 185.872C120.833 185.834 118.796 185.799 116.758 185.769C112.754 185.71 108.748 185.666 104.743 185.639C96.7942 185.584 88.8647 185.788 80.9208 186.065C76.9684 186.202 73.031 186.436 69.1296 187.045C68.8676 186.705 68.6082 186.365 68.3428 186.028C65.5784 182.523 62.3012 178.036 57.7522 176.95C57.9267 176.665 58.1037 176.382 58.2835 176.102C61.4352 176.933 64.912 176.891 68.1322 177.065C71.8439 177.266 75.5479 177.404 79.2641 177.496C86.651 177.677 94.0365 177.791 101.425 177.903C103.476 177.935 105.526 177.967 107.577 178.002C108.683 178.02 109.789 178.041 110.895 178.058C111.513 178.068 112.065 178.066 112.654 177.861C113.2 177.671 113.731 177.386 114.258 177.15C114.442 177.067 114.592 176.945 114.714 176.801C116.162 177.667 117.663 178.443 119.221 179.106ZM155.261 166.068C156.421 166.39 157.618 166.444 158.845 166.536C160.455 166.658 162.061 166.679 163.675 166.689C166.248 166.706 168.822 166.688 171.395 166.617C172.5 166.586 173.146 165.846 173.337 164.999C173.364 165.02 173.391 165.042 173.418 165.064C176.549 167.644 179.386 170.596 181.791 173.863C176.001 173.882 170.21 173.885 164.42 173.924C161.359 173.945 158.295 174.071 155.235 174.15C153.734 174.188 152.255 174.312 150.76 174.454C150.73 174.457 150.699 174.46 150.669 174.463C150.827 174.28 150.984 174.095 151.138 173.904C152.925 171.689 154.395 168.959 155.261 166.068ZM192.906 282.351C193.417 280.945 193.219 279.437 193.19 277.958C193.16 276.441 193.144 274.925 193.139 273.408C193.129 270.442 193.109 267.476 193.076 264.51C193.01 258.511 192.94 252.506 192.704 246.51C192.238 234.656 191.339 222.832 189.873 211.057C189.16 205.333 188.275 199.622 187.075 193.979C187.091 193.956 187.108 193.933 187.125 193.91C188.32 192.312 189.68 190.835 190.855 189.226C190.959 189.083 191.002 188.9 191.001 188.715C191.044 188.694 191.087 188.672 191.131 188.647C192.105 188.092 191.226 186.579 190.251 187.141C190.364 187.077 188.746 182.923 188.575 182.504C187.959 181.002 187.266 179.533 186.485 178.11C186.014 177.251 185.51 176.41 184.982 175.585C184.889 174.968 184.557 174.397 183.985 174.092C182.982 172.654 181.898 171.272 180.743 169.956C176.015 164.566 170.109 160.216 163.657 157.117C162.724 156.669 161.764 156.296 160.808 155.905C159.789 155.488 158.845 154.944 157.841 154.507C156.209 153.795 154.596 153.836 152.992 154.589C152.855 154.654 152.954 154.865 153.093 154.828C154.126 154.559 155.184 154.514 156.219 154.806C157.233 155.093 158.004 155.726 158.89 156.254C160.468 157.196 162.233 157.81 163.85 158.689C165.989 159.851 168.08 161.128 170.08 162.53C168.008 162.64 165.934 162.719 163.86 162.774C162.32 162.815 160.78 162.822 159.242 162.911C158.147 162.975 157.009 162.957 155.914 163.134C156.178 161.319 156.179 159.489 155.849 157.721C155.849 157.721 155.849 157.72 155.849 157.719C155.769 157.293 155.673 156.871 155.554 156.453C155.301 155.564 154.491 155.43 153.903 155.767C153.844 155.724 153.786 155.682 153.729 155.636C153.025 155.064 152.39 154.379 151.839 153.659C150.693 152.164 149.767 150.433 149.066 148.688C148.356 146.921 147.852 145.073 147.359 143.236C147.112 142.315 146.845 141.399 146.593 140.479C146.374 139.679 146.215 138.795 145.813 138.066C145.737 137.93 145.51 137.955 145.474 138.11C145.261 139.024 145.374 140.065 145.413 140.996C145.456 142.029 145.515 143.053 145.653 144.078C145.938 146.206 146.398 148.298 147.134 150.319C147.841 152.256 148.773 154.064 150.039 155.697C150.88 156.781 152.074 158.217 153.458 158.801C153.639 160.837 153.618 162.875 153.137 164.89C152.509 167.529 151.305 170.036 149.65 172.185C146.182 176.689 140.816 179.235 135.217 179.759C129.425 180.302 123.498 179.006 118.293 176.457C112.504 173.623 107.702 169.25 103.389 164.529C100.902 161.808 98.3236 159.131 96.0191 156.252C95.6107 155.742 94.957 154.706 94.1817 153.773C94.9708 153.766 95.7805 153.648 96.479 153.558C97.9241 153.373 99.3364 153.086 100.749 152.726C103.389 152.055 106.173 151.12 108.48 149.642C113.362 146.513 115.267 142.544 115.918 137.077C116.124 135.349 113.136 134.929 112.858 136.663C112.431 139.328 111.784 140.625 110.934 143.185C110.116 145.645 108.931 146.562 106.667 147.918C104.542 149.192 102.126 149.932 99.7843 150.696C98.4867 151.12 97.1736 151.506 95.8651 151.895C95.032 152.143 94.0431 152.36 93.198 152.742C92.7571 152.355 92.2972 152.063 91.8341 151.953C91.8681 151.896 91.8239 151.807 91.7386 151.824C91.6025 151.851 91.4669 151.881 91.3308 151.909C91.1941 151.919 91.0581 151.946 90.9222 151.995C82.766 153.762 74.9335 157.524 68.2917 162.65C67.9568 162.79 67.6329 162.961 67.3247 163.178C67.166 163.289 67.0608 163.466 67.0306 163.649C66.0322 164.465 65.0633 165.311 64.1272 166.187C56.5879 173.241 51.8109 182.625 48.4667 192.277C45.1724 201.786 42.9425 211.757 41.7163 221.741C40.4662 231.917 40.3222 242.305 42.1353 252.424C43.1088 257.857 44.6848 263.197 47.0111 268.208C49.1001 272.709 52.5005 277.837 57.8413 278.385C57.8584 278.402 57.8745 278.42 57.8937 278.436C59.9893 280.162 63.1093 278.97 65.3001 277.939C65.6474 277.775 65.992 277.603 66.3351 277.427C66.1539 278.125 66.0721 278.856 66.0343 279.541C65.9555 280.963 67.9606 281.044 68.3403 279.863C71.5906 280.435 74.947 280.443 78.2346 280.425C81.9079 280.405 85.5799 280.277 89.249 280.104C96.5289 279.761 103.8 279.236 111.085 278.997C125.835 278.514 140.626 279.547 155.364 280.067C159.499 280.213 163.633 280.358 167.768 280.504C171.992 280.653 176.212 280.682 180.402 281.253C181.943 281.463 182.533 279.953 182.099 279.012C182.207 278.38 182.099 277.687 182.04 276.942C181.929 275.551 181.825 274.159 181.727 272.767C181.535 270.052 181.35 267.336 181.175 264.621C180.82 259.117 180.514 253.61 180.216 248.103C179.625 237.154 179.172 226.197 178.839 215.237C178.758 212.566 178.652 209.893 178.518 207.224C178.678 206.971 178.837 206.717 178.99 206.461C179.503 205.606 180.005 204.746 180.523 203.896C181.564 202.191 182.611 200.497 183.705 198.825C184.649 197.382 185.624 195.96 186.642 194.568C187.907 205.248 189.03 215.939 189.546 226.688C190.114 238.527 190.416 250.383 190.58 262.234C190.626 265.545 190.656 268.856 190.692 272.167C190.71 273.891 190.728 275.614 190.714 277.338C190.701 278.987 190.451 280.791 191.036 282.351C191.377 283.261 192.57 283.277 192.906 282.351Z" fill="black"/>
<path fill-rule="evenodd" clip-rule="evenodd" d="M161.372 73.9597C155.022 65.217 143.331 62.7028 133.192 64.8292C113.371 68.4437 94.434 83.5715 90.9318 104.145C85.4679 116.592 88.957 136.196 104.848 137.661C107.11 137.789 109.351 137.268 111.617 137.549C125.449 139.759 141.794 149.221 154.038 138.063C154.652 138.503 155.461 138.715 156.149 138.449C161.36 136.434 161.605 130.606 162.049 125.815C162.623 119.624 163.162 113.43 163.664 107.234C163.843 96.5474 168.077 83.1936 161.372 73.9597Z" fill="white"/>
<path fill-rule="evenodd" clip-rule="evenodd" d="M122.943 51.682C131.288 51.2381 146.664 55.0619 153.945 59.5448C165.807 66.8489 166.726 81.419 166.242 83.9382C166.059 84.8997 165.471 85.7895 164.552 85.4938C165.332 92.1131 165.271 95.8964 165.402 102.554L165.492 106.999C165.55 109.962 165.6 112.926 165.613 115.89C165.913 115.778 166.209 115.915 166.318 116.203C166.346 116.273 166.251 116.311 166.204 116.271C165.676 115.81 166.052 116.86 166.234 117.074C166.485 117.368 166.904 117.644 167.197 117.896L167.995 118.587L168.792 119.276C169.823 120.165 170.819 121.056 171.78 122.014L172.042 122.277C173.793 124.057 175.988 125.779 177.078 128.081C178.12 130.279 177.799 132.771 176.068 134.523C175.439 135.159 174.704 135.645 173.905 136.013C175.327 138.355 175.534 141.451 174.051 143.86C172.566 146.278 169.709 147.544 166.959 147.35C166.874 147.694 166.743 148.03 166.57 148.349C165.479 150.354 163.309 150.615 161.252 150.507L161.172 150.503C156.541 150.237 152.085 149.076 148.029 146.821C146.622 146.916 145.367 145.76 145.092 144.492C144.353 144.465 143.609 144.403 142.851 144.317C140.601 144.057 138.294 143.573 136.31 142.429C136.006 142.254 136.147 141.791 136.485 141.782C138.902 141.728 141.321 141.895 143.734 141.633C145.948 141.394 148.308 140.783 150.372 139.952C154.082 138.456 157.263 135.918 159.019 132.401C161.292 127.848 161.085 122.381 161.333 117.435C161.606 111.961 161.943 106.492 162.304 101.023L162.479 98.4013C162.829 93.2918 163.118 90.5584 164.005 85.255C161.333 85.4938 150.231 81.4964 146.778 74.9578C140.226 88.8677 107.028 83.175 105.556 104.589C105.543 104.771 105.256 104.72 105.245 104.547L105.218 104.059C105.205 103.818 105.193 103.58 105.184 103.345L105.178 103.11L104.656 103.116C104.656 103.181 104.563 103.205 104.54 103.135C104.047 101.738 101.702 102.188 100.682 102.52C99.7628 102.82 98.8966 103.281 98.1191 103.85C96.5579 104.991 95.3473 106.527 94.9459 108.448C94.1832 112.096 96.505 115.812 99.5874 117.573C101.531 118.682 103.661 119.399 105.524 120.656C107.17 121.766 108.704 123.066 110.033 124.543C115.297 130.395 118.394 139.272 115.904 146.997C115.713 147.586 115.211 148.26 114.545 148.356C113.444 148.514 112.344 148.354 111.727 147.305C111.486 146.895 111.372 146.428 111.397 145.967C110.971 147.434 109.587 148.884 108.311 149.429C106.572 150.173 104.613 149.951 103.08 148.992L102.886 149.135C100.392 150.972 97.6051 152.646 94.4093 152.308C92.0938 152.063 89.8205 150.883 88.5403 149.024C86.8374 149.981 85.0184 150.744 83.1424 151.264L82.9427 151.319C80.3616 152.022 77.0692 152.666 74.66 151.238C72.3466 149.867 71.5776 146.872 72.1205 144.372C72.186 144.074 72.2684 143.784 72.3698 143.503C70.629 143.596 68.8902 143.429 67.2381 142.918C65.5501 142.395 63.9402 141.392 63.1311 139.764C62.2184 137.923 62.4614 135.831 63.1417 133.956C64.2297 130.949 65.979 128.273 68.1572 125.942C70.2518 123.698 72.7784 121.795 75.4043 120.209L75.847 119.944C78.2107 118.533 81.0613 116.88 83.8543 116.989C83.8459 116.953 83.8395 116.919 83.8353 116.884C83.4128 113.77 83.4614 110.596 83.3621 107.457C83.2712 104.57 83.1677 101.683 83.1001 98.7941C82.9902 93.8821 83.0262 88.9494 83.6663 84.0714C84.2346 79.7429 85.2572 75.5221 87.1226 71.5592C89.0811 67.3959 92.0304 63.8431 95.6726 61.049C103.316 55.184 113.413 52.1892 122.943 51.682ZM96.9804 109.374C97.8128 107.804 99.7078 107.309 101.371 107.592C103.701 107.99 105.285 110.027 106.646 111.78C108.074 113.616 105.095 115.347 104.328 113.568L104.147 113.147C103.531 111.736 102.804 110.248 101.548 109.328C100.213 108.351 98.3283 108.208 97.1494 109.505C97.0649 109.6 96.9233 109.478 96.9804 109.374Z" fill="black"/>
<path fill-rule="evenodd" clip-rule="evenodd" d="M131.904 117.266C135.526 116.826 139.036 117.936 142.577 118.495C144.446 118.79 146.318 119.01 148.209 119.092C148.59 119.109 148.97 119.118 149.351 119.126C149.387 118.791 149.574 118.483 149.981 118.298C150.814 117.921 151.481 117.75 152.395 117.787C153.233 117.82 154.073 117.906 154.898 118.057C156.395 118.331 157.899 118.955 158.994 120.037C161.528 122.542 161.143 126.566 159.184 129.295C155.138 134.933 147.753 135.195 141.428 135.121L140.844 135.114C135.085 135.031 126.846 135.89 124.23 129.336C123.267 126.925 123.401 124.131 124.579 121.819C125.984 119.062 128.942 117.626 131.904 117.266ZM149.893 126.654L149.842 126.656C147.187 126.758 144.532 126.83 141.875 126.877C141.955 127.56 142.036 128.243 142.129 128.924C142.201 129.46 142.279 129.995 142.36 130.53C142.395 130.756 142.521 131.107 142.485 131.332L142.472 131.42C142.609 131.482 142.733 131.582 142.825 131.726C142.857 131.776 142.88 131.826 142.903 131.876C144.966 131.892 147.185 131.852 149.288 131.477L149.292 131.432C149.33 131.163 149.442 130.982 149.59 130.858C149.738 130.001 149.725 129.088 149.782 128.238C149.818 127.71 149.856 127.182 149.893 126.654ZM139.846 126.914C137.932 126.946 136.018 126.971 134.104 126.948L133.236 126.934C133.419 127.919 133.619 128.9 133.785 129.891C133.958 130.924 133.049 131.581 132.262 131.554C132.351 131.569 132.439 131.584 132.527 131.596C134.984 131.944 137.536 131.851 140.03 131.849C139.896 131.065 139.95 130.181 139.93 129.527L139.926 129.426C139.888 128.588 139.861 127.751 139.846 126.914ZM126.846 126.733C126.913 127.245 127.042 127.746 127.235 128.212C128.052 130.183 129.925 131.103 131.907 131.49C131.563 131.371 131.29 131.086 131.221 130.597C131.049 129.382 130.987 128.146 130.983 126.912C129.602 126.899 128.211 126.87 126.846 126.733ZM157.095 126.312C156.112 126.544 154.97 126.438 154.005 126.482C153.101 126.523 152.197 126.559 151.293 126.595C151.336 127.212 151.377 127.829 151.422 128.446C151.481 129.244 151.486 130.086 151.639 130.88C153.458 130.259 155.087 129.263 156.31 127.671C156.615 127.274 156.888 126.808 157.095 126.312ZM131.489 120.499C129.852 120.887 128.303 121.706 127.47 123.204C126.976 124.094 126.759 125.147 126.801 126.186C128.184 126.025 129.591 125.964 130.992 125.913C130.996 125.661 131.002 125.409 131.01 125.157L131.031 124.513C131.07 123.283 131.089 121.74 131.489 120.499ZM139.961 120.649L139.24 120.568C137.239 120.34 135.238 120.101 133.237 120.238C132.947 120.258 132.653 120.29 132.359 120.333C132.712 121.61 132.683 123.11 132.83 124.374C132.888 124.863 132.96 125.347 133.04 125.83L133.387 125.814C135.534 125.698 137.684 125.626 139.833 125.541C139.833 125.137 139.835 124.733 139.842 124.329L139.85 123.925C139.874 122.893 139.807 121.73 139.961 120.649ZM150.01 120.486C147.914 120.824 145.748 120.896 143.689 120.899C142.867 120.9 142.045 120.849 141.223 120.776C141.277 121.214 141.304 121.656 141.345 122.088C141.426 122.96 141.519 123.831 141.619 124.7L141.709 125.462C144.351 125.342 146.992 125.212 149.634 125.078L150.006 125.058L150.111 123.595C150.182 122.62 150.26 121.645 150.371 120.674L150.288 120.644C150.19 120.604 150.098 120.549 150.01 120.486ZM150.921 120.849C151.036 122.228 151.1 123.613 151.185 124.994L152.926 124.901C153.216 124.885 153.506 124.869 153.797 124.852C154.925 124.787 156.375 124.445 157.49 124.764C157.575 123.75 157.285 122.762 156.37 122.08C154.764 120.883 152.718 121.309 150.921 120.849ZM144.972 108.52C147.565 107.034 154.07 105.516 154.482 110.184C154.671 112.332 153.075 114.112 151.211 114.906L151.141 114.935C149.393 115.654 146.294 116.466 144.781 114.907C143.522 113.609 145.192 111.283 146.757 112.346C147.561 112.892 149.253 112.489 150.151 112.23L150.207 112.213C151.175 111.928 152.466 111.017 152.066 109.825C151.711 108.77 150.204 108.577 149.26 108.543C147.85 108.492 146.479 108.82 145.082 108.926C144.861 108.943 144.793 108.623 144.972 108.52ZM155.712 101.014C159.231 100.849 161.42 104.693 160.611 107.842C160.471 108.386 159.863 108.919 159.277 108.858L159.129 108.844C159.054 108.837 158.978 108.828 158.909 108.809C158.352 108.654 157.853 108.075 157.893 107.474L157.904 107.299C157.986 105.811 157.825 104.097 156.058 103.737C154.559 103.431 153.722 104.875 153.704 106.203C153.701 106.439 153.436 106.604 153.227 106.477C152.144 105.817 151.956 104.505 152.37 103.375C152.895 101.943 154.207 101.085 155.712 101.014ZM129.599 101.839C132.159 100.984 134.922 102.349 136.162 104.614C136.597 104.74 137.031 105.076 136.971 105.589C136.884 106.328 136.752 106.794 136.24 107.354C135.439 108.231 133.939 107.783 133.606 106.704L133.592 106.655C133.214 105.26 131.679 104.34 130.281 104.828C128.648 105.398 128.695 107.124 127.55 108.129C127.415 108.247 127.254 108.266 127.093 108.188C125.876 107.6 126.094 105.829 126.528 104.816C127.097 103.487 128.203 102.304 129.599 101.839ZM126.111 94.0593C128.186 91.9412 133.597 89.8915 135.017 93.803C135.287 94.548 134.711 95.5525 133.936 95.707C132.666 95.9598 131.54 95.4084 130.279 95.5073C129.257 95.5878 128.192 95.9291 127.376 96.5619C125.115 98.3144 124.618 101.279 123.042 103.509C122.966 103.618 122.817 103.572 122.803 103.444C122.444 100.197 123.838 96.3791 126.111 94.0593ZM153.173 91.9742C154.55 91.4876 156.11 91.5293 157.494 91.9608C158.888 92.3958 160.168 93.2218 161.155 94.3009C161.602 94.7908 162.016 95.3315 162.348 95.907C162.525 96.2119 162.71 96.842 162.911 97.2171C163.996 97.8437 164.459 99.2713 163.488 100.287L163.444 100.332L163.314 100.461C162.792 100.977 162.005 101.202 161.292 100.995C159.698 100.533 159.504 99.2769 158.952 97.9433C158.587 97.0624 157.963 96.283 157.205 95.7104C155.415 94.3578 152.48 93.9268 150.325 94.5643C150.21 94.5983 150.075 94.452 150.157 94.3459C150.566 93.8167 150.801 93.3824 151.348 92.9555C151.903 92.5222 152.508 92.2092 153.173 91.9742Z" fill="black"/>
<path fill-rule="evenodd" clip-rule="evenodd" d="M159.889 92.6487C164.848 92.6487 167.678 93.7155 168.715 93.7986L168.746 93.8009C169.177 93.8285 169.564 93.8645 169.97 94.0216C171.463 94.5967 171.706 96.1629 170.835 97.1499C170.774 99.1924 171.042 101.579 170.582 103.628C170.013 112.266 165.953 113.724 163.644 114.256C162.486 114.523 161.112 114.629 159.881 114.347C157.781 114.269 155.705 113.611 153.929 112.466C151.455 110.87 149.618 108.417 149.021 105.505C148.739 104.117 148.607 102.673 148.761 101.262L148.783 101.068C147.979 100.683 147.048 100.61 146.087 100.576C145.628 100.56 145.176 100.545 144.737 100.565C144.307 100.613 143.883 100.677 143.457 100.764C142.992 100.904 142.554 101.135 142.148 101.502L142.12 102.037C142.044 103.374 141.869 104.715 141.598 106.027C141.198 107.963 140.556 109.811 139.188 111.184C138.725 111.876 138.152 112.493 137.456 113.028C134.929 114.974 131.496 115.689 128.345 115.42C121.949 114.874 118.252 109.794 117.4 107.623L117.349 107.491C116.733 105.877 116.243 103.783 114.298 103.436L113.884 103.362C112.996 103.195 112.177 102.963 111.657 102.097C111.429 101.718 111.312 101.295 111.283 100.864C110.979 100.888 110.676 100.91 110.374 100.932C107.964 101.441 93.5071 101.874 92.3532 101.874C92.3532 101.874 90.1351 102.808 89.1986 102.084C88.5495 101.581 88.3359 100.91 88.6933 100.151C89.2324 99.0074 91.7198 98.3198 92.8243 98.1021C92.8243 98.1021 110.648 98.2502 111.931 98.0069C112.724 97.1881 114.144 97.3002 115.33 97.1707C116.313 96.4702 117.686 96.001 118.772 95.6869C118.993 95.6031 119.212 95.522 119.425 95.4456C121.414 94.7368 123.482 94.3613 125.582 94.1597C127.747 93.9539 129.919 94.047 132.071 94.342C132.978 94.4651 133.877 94.6243 134.769 94.8325C136.366 95.0432 137.955 95.3902 139.553 95.8019L139.873 95.8851C141.556 96.3265 143.285 96.7083 145.028 96.4091C146.446 96.1671 147.81 95.621 149.118 95.0305L149.288 94.9532C152.163 93.6398 156.654 92.6487 159.889 92.6487ZM134.596 97.4511C133.535 97.2176 133.082 98.8541 134.146 99.0882C134.9 99.2539 135.539 99.6342 135.97 100.278L136.016 100.348C136.595 101.27 138.059 100.419 137.476 99.4914C136.82 98.4473 135.8 97.7159 134.596 97.4511ZM165.67 96.4365C165.296 96.1729 164.73 96.3685 164.513 96.741C164.274 97.1511 164.431 97.6078 164.781 97.8761L164.817 97.9023C165.138 98.1288 165.451 98.5349 165.49 98.951L165.494 99.0031C165.536 100.092 167.228 100.098 167.185 99.0031C167.144 97.9324 166.524 97.0379 165.67 96.4365Z" fill="black"/>
</svg>
