<svg width="240" height="325" viewBox="0 0 240 325" fill="none" xmlns="http://www.w3.org/2000/svg">
<path fill-rule="evenodd" clip-rule="evenodd" d="M114.34 136.223C119.555 132.251 132.648 130.464 138.214 134.289C143.711 138.131 144.311 144.343 146.872 150.057C149.29 148.917 153.281 150.55 153.982 152.794C154.851 153.852 154.89 156.825 155.489 158.247C181.569 162.4 185.528 182.74 188.667 205.832C192.82 229.264 202.247 252.645 198.154 276.757C198.688 277.529 199.108 278.28 199.497 279.171C200.428 280.756 199.228 283.001 197.35 282.914C194.918 282.7 192.51 282.408 190.067 282.317C183.293 282.082 176.514 282.11 169.738 282.196L168.814 282.208C134.666 282.633 100.521 283.471 66.3712 283.694C65.1324 283.695 64.5258 282.584 64.6912 281.487C65.0244 279.28 65.3335 277.071 65.6561 274.863C57.5789 276.997 48.9922 277.534 40.9378 275.087C40.3743 274.513 42.2506 274.824 42.5483 274.737C35.1357 269.67 37.3494 258.995 38.006 251.307C42.089 224.962 43.5284 195.813 59.3035 173.332C66.1281 164.158 76.1335 156.894 87.6305 155.26L87.9494 155.216C91.3111 154.767 95.0577 154.623 97.9969 152.794C101.303 150.153 102.711 145.275 106.189 145.23C107.338 145.215 108.9 146.668 110.581 147.655C110.706 145.484 111.876 143.652 112.134 141.969L112.155 141.825C112.424 139.863 112.055 138.098 114.34 136.223ZM170.386 206.528C163.057 201.435 144.125 203.994 143.692 204.279C142.737 204.907 142.326 204.963 141.81 205.778C141.301 205.846 140.792 205.916 140.283 205.988C139.262 206.322 140.018 207.577 141.197 207.129C140.488 210.188 142.575 212.364 143.406 215.388C143.675 216.37 143.415 218.136 143.406 219.14C143.486 220.419 144.9 221.93 144.665 223.214C143.827 227.776 139.281 232.227 141.197 236.652C142.467 239.152 146.286 240.426 148.825 241.276C154.085 243.295 163.251 241.2 166.307 236.652C167.938 234.227 169.826 228.109 170.798 226.211L171.014 223.201C171.545 215.718 172.018 207.662 170.386 206.528Z" fill="white"/>
<path fill-rule="evenodd" clip-rule="evenodd" d="M104.912 144.788C105.418 144.34 106.167 144.903 105.845 145.509C105.123 146.87 104.382 148.159 103.412 149.362C102.824 150.092 102.194 150.782 101.556 151.464C103.194 152.881 104.599 154.641 105.925 156.291C107.622 158.4 109.225 160.599 111.129 162.529C113.007 164.433 115.084 165.764 117.594 166.651L118.102 166.827C120.624 167.713 123.319 168.909 124.741 171.298C125.021 171.769 124.457 172.351 123.982 172.057C121.512 170.527 118.609 170.219 115.92 169.208C113.323 168.232 111.059 166.729 109.058 164.81C107.06 162.895 105.383 160.716 103.634 158.583C101.904 156.474 100.042 154.672 97.9956 152.888C94.8381 155.013 91.2339 155.938 87.569 156.846L87.169 156.945C83.4997 157.854 79.85 158.909 76.4076 160.492C73.3726 161.887 70.3874 163.553 67.9151 165.823C65.2907 168.233 63.2482 171.31 61.3787 174.319C57.1969 181.052 54.2569 188.428 51.6686 195.894C48.9767 203.659 46.725 211.58 44.9072 219.595C43.9827 223.672 43.2319 227.778 42.6148 231.913C42.3177 233.904 42.0538 235.9 41.8221 237.9C41.5747 240.036 41.5179 242.233 40.8629 244.286C40.5822 245.166 39.9192 245.532 39.2556 245.5L39.1208 247.187C38.9421 249.435 38.7755 251.684 38.7192 253.946C38.6258 257.708 38.6682 261.459 38.9386 265.212L38.9769 265.724C39.1895 268.464 39.6644 271.542 41.7236 273.548C43.8562 275.625 47.1357 276.279 50.01 276.316C56.7044 276.403 63.1485 273.239 69.0724 270.463C75.1734 267.604 81.1077 264.431 86.8998 260.989C89.8496 259.236 92.7674 257.425 95.648 255.561C97.0616 254.646 98.4653 253.716 99.8584 252.771C100.656 252.229 101.412 251.636 102.225 251.155C101.827 250.784 101.649 250.202 101.982 249.693C99.6342 247.653 98.6569 244.015 98.5426 241.07C98.4503 238.694 98.7999 236.324 99.0758 233.97C99.215 232.782 99.387 231.597 99.5655 230.416C99.6361 229.949 99.69 229.449 99.7724 228.956C93.4316 232.442 86.9131 235.546 80.2221 238.304C76.7924 239.718 73.3187 240.989 69.7971 242.154L69.0833 242.389C65.7466 243.482 62.33 244.514 58.8805 245.138C58.696 245.172 58.5462 244.899 58.7431 244.813C62.1048 243.329 65.5829 242.077 68.9951 240.71L69.5558 240.482C69.4914 240.478 69.4246 240.469 69.3549 240.453C67.3538 239.97 65.3683 239.225 63.4056 238.598C61.5841 238.016 59.5375 237.651 57.8349 236.773C57.7039 236.705 57.7772 236.523 57.9048 236.514C59.8185 236.381 61.8959 236.939 63.7722 237.268L64.477 237.391C65.6578 237.599 66.8648 237.823 68.0398 238.115C68.0822 237.721 68.3022 237.326 68.615 237.094C72.0581 234.543 71.7084 229.392 72.0767 225.593L72.3497 222.772C72.83 217.836 73.3381 212.9 74.1101 208.001C74.1513 207.74 74.5559 207.815 74.5576 208.062C74.5974 214.135 74.1391 220.18 73.9094 226.243L73.8739 227.238C73.7469 230.98 73.6473 234.865 71.2918 237.744C71.6212 237.551 72.0665 237.551 72.3334 237.869C72.6612 238.259 72.8505 238.697 72.8446 239.127C74.9731 238.235 77.0924 237.319 79.2012 236.384C85.9815 233.379 92.6195 230.016 99.082 226.378C99.7774 225.986 100.438 226.294 100.782 226.81L100.832 226.803C100.84 226.802 100.849 226.801 100.857 226.801L100.907 226.799C100.909 226.799 100.91 226.799 100.912 226.799C101.822 226.299 103.061 226.655 103.842 227.384C103.865 227.406 103.884 227.43 103.905 227.453C104.893 227.009 105.816 226.41 106.654 225.651C108.367 224.097 109.819 222.176 111.084 220.249C113.415 216.7 115.395 212.754 118.543 209.833C121.1 207.46 124.272 205.982 127.598 205.055C127.584 204.958 127.622 204.854 127.689 204.785C127.86 204.61 127.982 204.549 128.202 204.656C128.22 204.664 128.231 204.676 128.238 204.689L128.562 204.134C128.74 203.833 128.922 203.529 128.985 203.45C129.362 202.974 129.751 202.502 130.146 202.04C130.815 201.257 131.577 200.485 132.46 199.942C134.393 198.754 136.425 199.426 138.413 200.076C139.614 200.468 140.81 200.873 142.009 201.272L142.133 201.312C143.027 201.599 144.073 201.851 144.472 202.798C144.631 203.173 144.655 203.562 144.581 203.939C153.071 201.78 162.5 202.772 170.785 205.307C171.103 205.405 171.42 205.666 171.487 206.01C172.436 210.88 172.859 215.874 172.43 220.826C172.059 225.102 171.112 229.291 169.328 233.205L169.226 233.426C167.549 237.053 164.892 241.525 160.833 242.662C158.382 243.348 155.671 242.944 153.171 242.818C150.742 242.695 148.259 242.678 145.852 242.296C143.709 241.955 141.831 240.994 140.507 239.251C139.364 237.747 138.763 235.929 138.27 234.121C138.044 234.193 137.82 234.27 137.599 234.356C136.668 234.72 135.879 235.307 135.166 235.998C133.66 237.457 132.492 239.229 130.916 240.621C129.489 241.882 127.864 242.862 126.12 243.616C122.507 245.178 118.632 245.802 114.81 246.629L114.543 246.687C111.666 247.319 108.73 248.094 106.19 249.593C106.141 250.034 105.94 250.449 105.618 250.721C106.066 251.142 106.255 251.808 105.862 252.433C104.762 254.179 102.869 255.172 101.169 256.288L101.058 256.361C99.3855 257.47 97.6986 258.557 95.9979 259.622C92.5405 261.788 89.0108 263.834 85.4313 265.79C79.6741 268.937 73.7932 271.905 67.8059 274.597C68.1653 276.366 68.0339 278.189 68.3041 279.97L68.3455 280.224C68.4609 280.885 68.305 281.437 67.85 281.869L67.8019 281.913L67.8027 281.907L67.76 281.947L67.7458 281.958L67.7505 281.955C67.6981 282.003 67.644 282.048 67.5888 282.086L67.5186 282.131C67.0803 282.397 66.5162 282.394 66.0675 282.159L66.0162 282.131L65.93 282.082C65.3372 281.74 64.9284 280.895 65.1743 280.224C65.7788 278.574 66.0072 276.812 66.5653 275.151L66.1225 275.349L65.5389 275.604C59.2266 278.334 52.215 280.634 45.3374 278.772C42.2985 277.949 39.4582 276.209 37.9377 273.373C36.4415 270.582 36.23 267.341 36.1506 264.236C36.0526 260.404 36.2579 256.513 36.7631 252.714C37.1022 250.164 37.5122 247.566 38.1448 245.042C37.8194 244.755 37.5803 244.343 37.5171 243.833C37.2186 241.422 37.741 238.916 38.0609 236.518C38.3733 234.177 38.7186 231.84 39.109 229.511C39.8972 224.807 40.8131 220.112 41.8793 215.463C43.7769 207.188 46.2828 199.061 49.2997 191.127L49.5639 190.436C52.3517 183.185 55.5795 176.089 60.0741 169.718C62.2242 166.671 64.497 163.908 67.535 161.711C70.3812 159.654 73.5917 158.172 76.9048 157.04C80.2215 155.907 83.6305 155.147 87.0997 154.675C90.623 154.195 94.3419 153.901 97.6286 152.455C97.2129 151.71 97.5697 150.703 98.2694 150.24C100.624 148.684 102.802 146.659 104.912 144.788ZM180.294 212.467C180.392 212.317 180.627 212.412 180.583 212.589C179.438 217.283 178.363 221.987 177.661 226.77C176.394 235.404 176.627 244.15 176.73 252.848L176.736 253.297C176.789 257.982 176.863 262.667 177.018 267.35C177.096 269.717 177.25 272.107 177.166 274.475C177.121 275.76 176.778 276.975 176.657 278.244C176.551 279.354 176.645 280.48 176.698 281.592C176.734 282.331 175.644 282.299 175.57 281.592L175.475 280.677C175.352 279.519 175.199 278.368 174.82 277.26C174.364 275.927 174.145 274.618 173.987 273.218C173.744 271.073 173.637 268.907 173.543 266.748L173.479 265.254C173.089 256.228 173.102 247.16 173.735 238.144L173.781 237.5C174.407 228.978 175.494 219.769 180.294 212.467ZM155.881 158.753C155.582 158.63 155.686 158.178 156.018 158.257L156.62 158.4C161.034 159.458 165.369 160.604 169.489 162.572C173.612 164.542 177.102 167.482 179.876 171.097C185.267 178.125 187.508 186.666 189.277 195.198C191.242 204.68 193.032 214.196 195.015 223.674L195.383 225.44C197.218 234.268 198.95 243.101 200.226 252.033L200.318 252.681C201.605 261.867 202.379 271.37 200.975 280.58C200.697 282.402 197.666 281.948 197.784 280.148C198.127 274.944 198.372 269.767 198.135 264.551C197.898 259.335 197.409 254.141 196.68 248.97C196.066 244.618 195.152 240.32 194.342 236.003L194.215 235.321C193.538 231.649 192.839 227.981 192.142 224.313L191.1 218.82C189.538 210.596 187.946 202.364 186.147 194.192L186.041 193.711C184.28 185.848 181.685 177.612 176.404 171.368C171.045 165.032 163.374 161.841 155.881 158.753ZM136.409 242.152C136.538 241.864 136.989 241.896 137.127 242.152C137.67 243.154 137.731 244.433 137.833 245.565L137.844 245.681C137.975 247.062 138.09 248.448 138.161 249.833C138.295 252.462 138.359 255.087 138.351 257.72C138.343 260.417 138.288 263.112 138.143 265.806L138.104 266.527C137.971 268.868 137.748 271.479 136.636 273.526C136.232 274.27 135.133 274.051 134.899 273.299C134.132 270.835 134.526 267.914 134.723 265.391L134.875 263.422C135.027 261.453 135.171 259.484 135.285 257.512C135.442 254.815 135.571 252.116 135.696 249.418C135.736 248.541 135.78 247.665 135.826 246.788L135.897 245.474C135.958 244.374 135.953 243.168 136.409 242.152ZM50.1805 245.643L50.52 245.315C51.5621 244.295 52.8791 242.723 54.4198 242.821C55.0342 242.86 55.4257 243.37 55.2983 243.975C55.0262 245.267 53.7081 245.938 52.7593 246.727C51.7198 247.591 50.7402 248.515 49.7624 249.448C48.895 250.275 48.0608 251.125 47.2466 252.002L46.9422 252.333C46.6504 252.651 44.5721 254.532 44.7968 255.02L44.809 255.041C44.8716 255.135 44.7674 255.263 44.6637 255.231C43.7662 254.947 43.8222 254.177 44.1615 253.398C44.8135 251.9 45.9552 250.514 46.9521 249.235C47.9464 247.958 49.0226 246.77 50.1805 245.643ZM139.661 208.075C138.967 206.434 136.41 206.468 134.959 206.567C131.304 206.814 127.35 207.739 124.098 209.448C120.726 211.219 118.455 214.058 116.423 217.197L116.328 217.345C114.347 220.425 112.44 224.071 109.338 226.189C107.758 227.267 105.914 228.253 103.997 228.679C103.866 228.911 103.653 229.094 103.373 229.161L103.243 229.19C102.697 229.311 101.849 229.444 101.117 229.364C101.122 229.723 101.118 230.079 101.127 230.418C101.153 231.392 101.164 232.369 101.164 233.343C101.164 235.384 101.054 237.428 101.139 239.469C101.215 241.273 101.47 243.159 102.336 244.772C102.971 245.956 103.81 246.739 104.822 247.487C107.312 245.969 110.127 245.043 112.985 244.348C116.441 243.506 119.979 242.945 123.357 241.804C124.982 241.254 126.545 240.536 127.961 239.559C129.464 238.523 130.612 237.12 131.793 235.748L131.977 235.535C133.182 234.152 134.497 232.829 136.201 232.079C137.668 231.434 139.601 231.319 140.884 230.319C141.554 229.796 141.61 229.038 141.681 228.261C140.859 228.378 139.99 228.19 139.171 228.094L138.747 228.044C137.973 227.952 137.217 227.851 136.455 227.654C136.313 227.617 136.313 227.404 136.455 227.367C137.355 227.135 138.248 227.036 139.171 226.927L139.388 226.9C140.224 226.791 141.102 226.625 141.921 226.809C142.068 226.25 142.28 225.715 142.578 225.18C142.996 224.428 143.788 223.576 143.895 222.698C143.926 222.436 143.865 222.126 143.742 221.895L143.699 221.815C143.647 221.722 143.586 221.628 143.496 221.57C143.486 221.582 143.465 221.595 143.419 221.609C142.788 221.808 142.238 221.499 141.946 221.023C140.707 221.177 139.354 221.125 138.191 221.177L137.016 221.234C135.76 221.291 134.447 221.316 133.267 221.063C133.103 221.027 133.053 220.753 133.218 220.682C134.669 220.062 136.428 219.864 137.982 219.625C138.849 219.492 139.723 219.39 140.593 219.273C141.172 219.195 141.787 219.066 142.387 219.035C143.892 217.161 143.081 214.204 140.987 213.397C140.224 213.733 139.538 213.538 138.705 213.466C137.873 213.395 137.038 213.346 136.203 213.35C134.529 213.357 132.755 213.798 131.098 213.608C130.828 213.577 130.578 213.218 130.846 212.999C132.115 211.963 133.933 211.626 135.544 211.405L135.878 211.36C136.418 211.289 137.074 211.186 137.755 211.125C137.909 210.824 138.186 210.597 138.601 210.54C138.724 210.523 138.848 210.514 138.972 210.503L138.97 210.491C139.983 210.442 139.939 208.731 139.661 208.075ZM70.3506 240.079C70.3327 240.106 70.3131 240.133 70.2923 240.158L70.2602 240.195L70.4267 240.128L70.3506 240.079ZM157.328 204.408C153.066 203.95 148.799 204.047 144.525 204.17C144.183 205.288 142.993 206.242 141.84 206.277C142.743 207.652 142.837 209.513 142.203 210.971C143.548 211.506 144.706 212.468 145.409 213.838C146.384 215.736 146.256 217.849 145.293 219.604C146.115 220.348 146.6 221.558 146.552 222.698C146.498 223.969 145.74 225.055 145.111 226.108C144.431 227.246 144.408 228.248 144.199 229.523C143.893 231.389 142.635 232.52 141.017 233.227L141.103 233.566C141.52 235.191 142.039 236.905 143.232 238.093C144.766 239.622 147.146 239.608 149.173 239.704L149.271 239.709C151.127 239.802 152.983 239.911 154.838 240.016L156.23 240.094C158.366 240.211 160.418 240.226 162.162 238.813C165.009 236.506 166.961 232.69 168.196 229.311C170.789 222.219 170.82 214.436 169.63 207.049C165.638 205.762 161.496 204.856 157.328 204.408ZM121.89 216.175L121.921 216.177C122.799 216.277 123.401 216.988 123.616 217.831C123.928 219.056 123.775 220.164 124.525 221.27C125.297 222.408 125.771 223.318 125.883 224.724C125.93 225.302 125.908 225.879 126.037 226.445L126.13 226.841C126.229 227.264 126.31 227.671 126.261 228.125C126.216 228.539 126.015 228.862 125.6 228.995C124.247 229.428 123.202 228.43 122.853 227.169C122.551 226.08 122.954 224.782 122.528 223.759C122.292 223.192 121.857 222.718 121.611 222.147C121.367 221.581 121.245 220.99 121.206 220.375C121.132 219.211 122.16 217.814 121.586 216.76C121.464 216.535 121.603 216.168 121.89 216.175ZM103.921 204.17C104.837 203.984 105.876 203.557 106.78 203.912C107.244 204.094 107.473 204.661 107.081 205.055C106.4 205.738 105.41 205.776 104.492 205.937L104.412 205.951C103.327 206.152 102.24 206.343 101.152 206.523C99.1044 206.862 97.0522 207.162 94.9928 207.417C92.8775 207.679 90.7564 207.912 88.6323 208.088L87.81 208.155C86.0158 208.299 84.1488 208.407 82.3883 208.132C82.1325 208.092 82.1737 207.719 82.3883 207.654C84.317 207.07 86.4326 206.913 88.4266 206.666C90.5464 206.403 92.6627 206.125 94.7735 205.796C96.8809 205.466 98.9855 205.113 101.082 204.722C102.03 204.546 102.976 204.362 103.921 204.17ZM136.975 202.295C136.171 202.01 135.286 201.589 134.415 201.73C132.913 201.973 131.576 203.437 130.387 204.401L130.984 204.285C134.039 203.698 138.085 203.065 140.649 205.008C140.655 204.997 140.66 204.986 140.668 204.975C140.875 204.66 141.115 204.415 141.376 204.146C141.401 204.122 141.426 204.098 141.449 204.073L141.591 203.923L141.268 203.811C140.576 203.566 139.756 203.25 139.627 203.204L139.618 203.201C138.736 202.902 137.853 202.606 136.975 202.295ZM111.876 138.24C111.75 136.623 114.266 136.636 114.391 138.24C114.663 141.742 113.875 145.211 112.18 148.282C112.167 148.304 112.153 148.324 112.14 148.345C113.201 148.897 114.273 149.427 115.37 149.9C116.772 150.506 118.202 151.057 119.656 151.525C120.972 151.949 122.593 152.116 123.699 152.997C126.032 154.856 125.155 158.712 124.707 161.212L124.637 161.606C124.413 162.892 124.252 164.212 124.794 165.447C125.373 166.765 126.543 167.743 127.588 168.687L127.798 168.878C128.724 169.721 129.781 170.746 130.459 171.889C131.079 170.608 131.923 169.561 132.816 168.382C133.453 167.541 133 167.263 132.542 166.442C132.101 165.651 131.886 164.808 132.024 163.905C132.278 162.239 133.609 161.036 134.935 160.131C136.499 159.064 138.246 158.273 139.864 157.28C143.188 155.239 146.425 152.906 149.342 150.315C149.422 150.244 149.561 150.338 149.497 150.435C147.193 153.941 144.492 156.97 141.172 159.542C139.825 160.584 138.411 161.449 136.987 162.358L136.578 162.621C136.007 162.991 135.294 163.487 135.035 164.117C134.775 164.751 135.33 165.23 135.628 165.756C136.576 167.424 136.119 168.981 134.995 170.396L134.943 170.461C133.826 171.838 132.979 173.118 132.575 174.877C131.705 178.656 132.916 182.591 134.185 186.138L134.235 186.278C134.921 188.19 135.65 190.088 136.246 192.03L136.41 192.567C136.95 194.355 137.392 196.117 136.786 197.955C136.58 198.58 135.728 198.728 135.374 198.139C134.126 196.065 133.815 193.569 133.032 191.289C132.269 189.066 131.394 186.884 130.657 184.652C129.708 181.779 129.074 178.686 129.418 175.672C129.408 175.654 129.397 175.638 129.388 175.619L129.147 175.091C128.488 173.66 127.852 172.411 126.655 171.27C125.406 170.08 124.05 169.027 123.067 167.587C120.933 164.459 122.253 160.979 122.511 157.559L122.54 157.139C122.587 156.429 122.613 155.464 122.149 154.972C121.627 154.419 120.404 154.278 119.712 154.033C117.923 153.4 116.161 152.662 114.482 151.776C112.884 150.933 111.336 150.001 109.895 148.91L109.164 148.36C108.012 147.49 106.817 146.54 106.044 145.355C105.955 145.219 106.106 144.999 106.268 145.064C107.557 145.588 108.736 146.421 109.942 147.145C109.961 147.101 109.983 147.056 110.007 147.012C111.5 144.309 112.114 141.314 111.876 138.24ZM153.069 156.758C153.583 155.348 155.925 155.457 155.832 157.132C155.76 158.419 155.214 159.58 154.715 160.748L154.661 160.873C154.146 162.09 153.55 163.233 152.838 164.349C151.477 166.481 149.882 168.46 148.179 170.328C146.635 172.021 144.609 173.057 142.274 172.885C141.29 172.812 140.297 172.562 139.435 172.07C138.411 171.486 137.299 169.732 135.992 170.157C135.866 170.198 135.748 170.013 135.857 169.925C137.365 168.71 139.077 170.594 140.521 171.048C142.697 171.732 144.93 170.976 146.33 169.216C147.793 167.379 149.138 165.322 150.367 163.321C150.991 162.305 151.561 161.251 152.053 160.165C152.549 159.068 152.662 157.876 153.069 156.758ZM149.562 148.084C149.499 147.889 149.74 147.704 149.911 147.815C150.902 148.46 151.761 149.313 152.675 150.061C153.69 150.89 154.711 151.702 155.749 152.502C157.261 153.669 155.507 155.816 154.176 154.542C152.354 152.799 150.358 150.52 149.562 148.084ZM144.121 141.261C144.524 139.708 146.905 140.349 146.558 141.884L146.546 141.93C145.889 144.466 146.825 147.047 148.824 148.691L148.897 148.751C150.161 149.763 148.37 151.532 147.119 150.53C144.386 148.342 143.249 144.625 144.121 141.261Z" fill="black"/>
<path fill-rule="evenodd" clip-rule="evenodd" d="M164.804 91.8171C164.02 85.5567 161.557 78.9099 158.966 73.0734C153.14 60.7335 139.804 59.0346 127.848 56.4903C116.05 54.7721 103.557 53.2205 91.9364 56.6489C85.4038 58.2498 82.8524 66.033 83.8833 72.1751C84.4717 76.0024 86.2132 79.6248 87.6982 83.1718C90.6498 90.4562 92.5225 98.2549 92.5257 106.142C92.3231 111.296 91.5959 117.178 97.5164 119.361C103.15 122.164 103.626 129.762 110.681 134.072C113.533 139.853 121.303 140.361 126.896 141.702C130.431 142.379 134.005 142.877 137.59 143.199C147.968 144.529 156.271 141.521 161.704 132.271C165.34 126.643 168.047 120.143 167.378 113.321C166.712 106.137 165.602 98.9912 164.804 91.8171Z" fill="white"/>
<path fill-rule="evenodd" clip-rule="evenodd" d="M127.937 41.4933C128.53 40.8216 129.443 41.052 129.997 41.5831C130.357 41.6894 130.707 41.8475 131.037 42.0567C131.782 41.961 132.564 41.961 133.296 41.9878C133.473 41.8883 133.663 41.7997 133.87 41.7236C135.349 41.1828 136.659 41.4576 137.739 42.1816C138.259 41.6892 138.916 41.3802 139.755 41.4269C140.504 41.4688 141.038 41.8213 141.495 42.2856C141.951 41.6277 142.688 41.1583 143.607 41.093C144.891 41.0017 146.125 41.5167 147.148 42.3142C147.744 41.6302 148.557 41.2371 149.462 41.2333C150.058 41.1251 150.687 41.1678 151.255 41.3394C152.079 41.5886 152.804 42.0555 153.38 42.6614C154.293 41.7873 155.41 41.1583 156.698 41.25C158.365 41.3705 159.746 42.5965 160.389 44.1056C161.517 44.5576 162.558 45.2025 163.429 46.1218C163.475 46.1702 163.52 46.221 163.566 46.2719C164.035 46.445 164.477 46.6904 164.865 47.0135C166.097 48.0388 166.372 49.5225 165.964 50.9763C166.021 51.209 166.07 51.4458 166.114 51.6823C167.267 51.8577 168.315 52.5236 168.911 53.6079C169.727 55.0958 169.566 57.0569 168.683 58.4774C168.303 59.0884 167.821 59.6032 167.28 60.0534C167.892 61.4441 167.599 63.1036 166.612 64.2284C166.371 64.6163 166.076 64.9663 165.744 65.2831C166.111 66.7209 165.459 68.2044 164.157 68.9726L164.046 69.2513C164.027 69.2976 164.008 69.3437 163.989 69.3894C163.974 69.4486 163.957 69.5058 163.939 69.5635C163.908 70.0737 163.74 70.5744 163.407 71.0462C162.724 72.0129 161.878 72.6434 161.429 73.772L161.385 73.8905C161.192 74.4246 160.569 74.8014 160.038 74.6366C162.985 80.6899 164.529 87.4254 165.59 94.0263C166.119 97.3194 166.527 100.624 166.858 103.941L167.183 107.244C167.468 110.18 167.722 113.126 167.724 116.072C167.728 122.736 165.822 129.146 161.732 134.449C157.864 139.462 152.39 143.095 146.206 144.526C139.822 146.002 132.332 145.42 126.607 142.043C124.919 141.05 126.398 138.661 128.115 139.46C131.367 140.974 134.671 142.098 138.275 142.35C141.789 142.597 145.31 142.157 148.642 141.007C154.154 139.103 158.844 135.115 161.859 130.148C163.344 127.701 164.42 125.044 164.992 122.237C165.705 118.739 165.597 115.123 165.336 111.58L165.317 111.338C164.8 104.511 164.117 97.6425 163.015 90.8837C162.04 84.9069 160.541 79.0513 158.595 73.3252C157.833 72.6539 156.98 72.0985 156.068 71.6766C149.386 71.3974 142.692 71.479 136.019 71.9402C130.328 72.3361 124.664 73.0058 119.043 73.982L118.441 74.0877C117.197 74.3094 115.815 74.4362 114.643 74.9373C113.637 75.3685 113.229 76.197 112.976 77.2155C112.338 79.7918 112.241 82.6115 112.133 85.2533C112.027 87.8358 112.266 90.4399 112.059 93.0139C111.884 95.1676 111.332 97.372 109.737 98.9298C108.903 99.7454 107.876 100.191 106.913 100.811C106.289 101.21 106.025 101.622 106.106 102.362C106.279 103.981 107.582 106.02 106.118 107.407C105.86 107.65 105.415 107.682 105.161 107.407C104.557 106.75 103.722 106.249 103.006 105.718C102.706 105.499 102.956 105.072 103.296 105.224C103.744 105.425 104.2 105.661 104.667 105.868C103.636 105.019 102.17 104.602 100.948 104.355C100.334 104.232 99.6872 104.196 99.0471 104.254C98.5738 104.48 98.09 104.689 97.6062 104.894C96.9914 105.152 96.3703 105.386 95.745 105.608C93.5752 107.377 92.54 110.254 92.9921 113.067C93.2393 114.62 93.9555 116.309 95.3055 117.216C96.9048 118.29 99.0471 117.829 100.775 118.626C102.394 119.371 103.378 120.879 104.115 122.438L104.423 123.088C105.107 124.525 105.811 125.925 106.746 127.234C107.827 128.749 109.152 130.11 110.597 131.279C111.298 131.845 112.045 132.354 112.818 132.817L113.029 132.942C113.81 133.401 114.37 133.838 114.423 134.808C114.44 135.147 114.227 135.455 113.952 135.631C112.769 136.381 111.592 135.442 110.608 134.787C109.545 134.081 108.529 133.287 107.589 132.42C105.801 130.776 104.255 128.823 103.065 126.703C102.159 125.089 101.644 122.817 100.211 121.565C99.3365 120.802 98.1006 120.796 97.0083 120.656C95.9921 120.526 95.0309 120.314 94.1267 119.813C90.4485 117.77 89.409 112.822 90.2816 108.999C90.4295 108.354 90.6365 107.726 90.8921 107.122C89.5231 107.35 87.9851 105.934 88.5407 104.505C88.583 104.397 88.6316 104.296 88.6781 104.192C87.7759 103.598 87.064 102.698 86.7259 101.521C86.5527 100.912 86.5274 100.297 86.6182 99.7031C86.1809 99.4096 85.8196 99.0057 85.5872 98.509C84.8605 98.173 84.2161 97.6702 83.8316 96.9516C83.2992 95.9601 83.3668 95.0471 83.7724 94.225C83.7154 94.1216 83.6605 94.0159 83.6076 93.9079C82.1182 92.9634 81.0788 91.3358 81.1971 89.5309C81.2351 88.9327 81.383 88.3938 81.6112 87.9079C81.5921 87.8466 81.5731 87.783 81.5562 87.7217C80.3097 87.0877 79.2788 86.0459 78.9112 84.6552C78.5436 83.2559 78.9767 81.861 79.8428 80.7873C78.5752 79.8597 77.8126 78.5641 78.2752 76.6047C78.4633 75.8081 78.8414 75.083 79.3527 74.4722C79.3506 74.4533 79.3464 74.4343 79.3421 74.4151L79.2235 74.3231C77.6587 73.0877 76.7591 71.5135 77.7196 69.5773C78.1506 68.7067 78.7654 68.0999 79.4879 67.7005L79.5238 67.5864C79.0062 66.4768 78.8309 65.2446 79.1879 63.949C79.4795 62.8819 80.1703 62.0321 81.0534 61.468C80.9943 60.9901 81.0027 60.481 81.0978 59.9291C81.2562 58.9973 81.7189 58.1836 82.395 57.6066C82.4203 57.4838 82.452 57.3636 82.4879 57.2429C82.7161 56.5055 83.1428 55.7045 83.6372 55.1104C84.045 54.6179 84.5013 54.4383 85.059 54.4192C85.0252 53.9651 85.0485 53.5041 85.1414 53.037C85.4267 51.5958 86.3436 50.2408 87.702 49.6258C88.2597 49.3743 88.8471 49.3006 89.4133 49.3616C89.895 48.3472 90.8351 47.6119 91.9907 47.4534C92.4407 47.3899 92.859 47.394 93.2436 47.4512C93.4612 47.3496 93.6872 47.2589 93.9238 47.1763C94.0802 47.1213 94.2386 47.0706 94.3971 47.0201C94.9316 46.3564 95.6351 45.8257 96.4569 45.5068C97.4055 45.137 98.371 45.1748 99.2267 45.4855L99.4992 45.4284C99.9259 44.6887 100.606 44.1159 101.652 43.856C102.839 43.5622 104.058 43.9722 104.992 44.7185C104.996 44.7185 105.001 44.7185 105.007 44.7162C105.495 43.6235 106.329 42.8626 107.73 42.9154C108.603 42.9493 109.391 43.3827 109.999 43.9999C110.337 43.9574 110.675 43.9194 111.015 43.8815C111.375 43.4607 111.774 43.0678 112.215 42.7149C112.938 42.1356 113.878 42.1823 114.41 42.9979C114.527 43.1754 114.634 43.3551 114.742 43.5347L115.23 43.5009C115.805 42.7252 116.589 42.2011 117.662 42.159C118.646 42.1187 119.348 42.6007 119.882 43.2747C120.317 43.2642 120.755 43.2559 121.192 43.2494C121.701 42.6597 122.301 42.1398 122.986 41.7086C123.51 41.3789 124.283 41.4912 124.708 41.9308C124.995 42.2296 125.262 42.5416 125.51 42.8645C126.15 42.1468 127.014 41.674 127.937 41.4933ZM96.8436 108.607C97.8302 108.045 99.1569 108.654 100.112 109.132C101.276 109.713 102.432 110.59 103.144 111.689C104.113 113.185 101.834 114.394 100.813 113.052C100.186 112.226 99.6851 111.393 98.9245 110.67C98.2295 110.007 97.2217 109.563 96.8224 108.688C96.8076 108.658 96.8119 108.624 96.8436 108.607ZM97.5366 72.2867L97.5551 72.234C97.8357 71.4661 96.6112 71.1352 96.3329 71.8966C95.9112 73.0508 96.3974 74.3056 97.5369 74.804C97.8528 74.9422 98.2136 74.8942 98.404 74.5766C98.5639 74.3092 98.4897 73.8459 98.1767 73.7092C97.5355 73.4287 97.3207 72.9336 97.5366 72.2867ZM86.9877 70.1397C87.6006 69.5986 86.7012 68.7044 86.0913 69.2431C85.5221 69.7457 85.1 70.4284 85.2097 71.2136C85.3214 72.0137 85.9246 72.5787 86.5848 72.9779C87.2845 73.4012 87.9224 72.3052 87.2245 71.8829L87.1461 71.8349C86.8532 71.6529 86.5104 71.4027 86.4608 71.0447C86.4082 70.6643 86.73 70.3673 86.9877 70.1397ZM90.4667 60.5926L90.5102 60.5607C91.1685 60.0906 90.5362 58.9903 89.8702 59.4657C89.2597 59.9017 88.77 60.4681 88.7184 61.2492C88.6683 62.0084 89.0545 62.6666 89.5595 63.2006C90.1212 63.7947 91.0166 62.8969 90.4559 62.3041C89.9095 61.7263 89.8028 61.0958 90.4667 60.5926Z" fill="black"/>
<path fill-rule="evenodd" clip-rule="evenodd" d="M147.453 124.637C147.777 124.073 148.523 123.551 149.206 123.631C152.265 123.99 152.26 127.7 151.078 129.866C150.031 131.787 147.864 132.914 145.694 132.749C143.416 132.576 141.474 131.236 140.619 129.103C140.054 127.692 139.793 125.088 141.296 124.14C141.324 124.122 141.37 124.127 141.392 124.152C142.113 124.991 142.142 126.25 142.773 127.184C143.36 128.053 144.271 128.77 145.34 128.881C146.137 128.964 146.944 128.676 147.256 127.96C147.425 127.572 147.406 127.362 147.343 127.095L147.285 126.863C147.085 126.051 146.995 125.433 147.453 124.637ZM148.271 108.366C149.866 109.336 152.297 111.598 150.581 114.003C148.56 116.124 145.652 113.693 144.218 112.593C142.889 111.741 141.396 113.933 142.629 114.928C152.986 122.599 157.19 108.62 149.077 107.226C148.184 107.072 147.853 108.066 148.271 108.366ZM131.424 101.714C132.403 100.244 134.638 100.461 135.177 102.205C135.469 103.15 135.066 103.999 135.087 104.942C135.104 105.739 135.052 106.627 134.808 107.399C134.251 109.159 132.669 110.403 130.797 110.351C128.931 110.3 127.287 109.118 126.506 107.454C125.722 105.784 125.888 104.055 126.46 102.357C126.488 102.275 126.595 102.236 126.659 102.304C127.336 103.024 127.831 103.783 128.344 104.589L128.869 105.415C129.271 106.037 129.854 106.831 130.604 106.781L130.716 106.77C130.925 106.752 130.893 106.793 131.053 106.509C131.128 106.378 131.114 106.134 131.15 105.979L131.163 105.926L131.156 105.898C131.14 105.823 131.124 105.681 131.111 105.436L131.109 105.381C131.054 104.232 130.73 102.755 131.424 101.714ZM156.246 102.693C156.07 100.813 158.712 100.395 159.59 101.786C160.048 102.512 160.181 103.423 160.283 104.286L160.33 104.696C160.434 105.582 160.475 106.505 160.091 107.332C159.485 108.634 158.167 109.323 156.746 109.214C155.388 109.109 154.15 108.322 153.497 107.127C152.915 106.06 152.336 103.978 153.043 102.866C153.086 102.798 153.171 102.79 153.23 102.842C153.898 103.435 154.006 104.517 154.404 105.29C154.813 106.087 155.435 106.864 156.376 106.985C157.277 107.101 157.621 106.609 157.391 105.75C157.095 104.641 156.357 103.886 156.246 102.693ZM132.137 90.5386L132.569 90.3731C134.049 89.8137 136.081 89.1671 137.285 90.3712C138.027 91.1137 138.169 92.2074 137.639 93.1135C136.997 94.211 135.845 94.2381 134.733 94.3998C133.468 94.5836 132.182 94.9332 131.004 95.4316C129.677 95.9931 128.446 96.6931 127.24 97.4749C126.094 98.2178 124.952 99.432 123.579 99.6609C123.523 99.6702 123.46 99.6461 123.445 99.5846C123.134 98.2425 124 96.9218 124.772 95.8748C125.708 94.6071 126.841 93.5666 128.107 92.6337C129.329 91.7332 130.726 91.0824 132.137 90.5386ZM159.025 95.3102L159.156 95.287C160.054 95.1376 160.867 95.172 161.544 95.8831C162.06 96.4257 162.259 97.1288 162.013 97.8462C161.786 98.5079 161.278 99.1802 160.541 99.3189C158.052 99.7872 155.296 99.7099 152.795 99.3552C151.651 99.1929 150.496 98.9943 149.382 98.681L148.869 98.5323C147.938 98.2664 146.873 97.9886 146.197 97.3041C145.954 97.058 146.095 96.7059 146.385 96.592C147.565 96.13 149.181 96.3758 150.438 96.3397C151.901 96.2978 153.366 96.1881 154.822 96.037C156.245 95.8891 157.621 95.5676 159.025 95.3102Z" fill="black"/>
<path fill-rule="evenodd" clip-rule="evenodd" d="M129.449 130.098C131.159 126.09 134.892 123.144 139.191 122.066C142.347 121.277 145.66 121.303 148.877 121.616C150.563 121.779 152.371 121.912 153.96 122.538C155.316 123.073 156.422 124.085 157.253 125.272C158.243 126.679 158.916 128.289 159.389 129.939C159.456 130.174 159.519 130.41 159.578 130.648C159.372 131.893 158.936 132.953 157.783 133.735C156.658 134.5 155.316 134.813 153.978 134.924C153.846 134.861 153.72 134.796 153.603 134.729C151.518 133.535 150.05 130.713 147.419 131.095C145.07 131.436 143.524 134.393 142.127 136.126C137.644 136.649 133.163 135.301 129.515 132.736C129.33 131.859 129.319 130.973 129.449 130.098ZM162.625 127.057C162.266 126.051 161.814 125.075 161.279 124.157C159.509 121.119 156.791 118.698 153.565 117.314C145.934 114.046 136.06 116.35 129.897 121.711C127.792 123.544 125.663 126.237 125.019 129.134C124.827 129.172 124.645 129.272 124.496 129.413C120.043 126.608 115.458 123.91 111.87 120.023C109.264 117.198 107.452 113.855 106.342 110.182C106.251 109.88 105.764 109.924 105.779 110.259C105.783 110.337 105.787 110.415 105.791 110.493C105.745 110.349 105.526 110.423 105.509 110.563C104.912 115.025 104.165 119.756 104.853 124.241C105.264 126.918 106.479 128.877 108.104 130.993C109.845 133.261 111.815 135.37 113.83 137.393C115.109 138.677 116.444 140.158 118.01 141.1C119.831 142.194 121.896 143.025 123.839 143.869C125.816 144.73 127.823 145.526 129.867 146.216C133.954 147.599 138.178 148.556 142.476 148.975C145.917 149.309 149.85 149.673 153.148 148.378C155.675 147.386 157.715 145.592 159.334 143.433C161.095 141.083 162.488 138.405 163.258 135.582C164.058 132.649 162.793 127.53 162.625 127.057Z" fill="black"/>
</svg>
