<svg width="17" height="14" viewBox="0 0 17 14" fill="none" xmlns="http://www.w3.org/2000/svg">
<path d="M15.6667 0.99999C15.0283 1.45031 14.3214 1.79473 13.5733 2.01999C13.1718 1.55833 12.6382 1.23112 12.0447 1.08261C11.4512 0.934097 10.8263 0.971454 10.2547 1.18963C9.68311 1.4078 9.1923 1.79626 8.84866 2.30247C8.50502 2.80868 8.32513 3.40821 8.33333 4.01999V4.68666C7.16176 4.71704 6.00085 4.4572 4.95401 3.93029C3.90716 3.40338 3.00688 2.62575 2.33333 1.66666C2.33333 1.66666 -0.333333 7.66666 5.66667 10.3333C4.29369 11.2653 2.6581 11.7326 1 11.6667C7 15 14.3333 11.6667 14.3333 3.99999C14.3327 3.81429 14.3149 3.62905 14.28 3.44666C14.9604 2.77565 15.4406 1.92847 15.6667 0.99999Z" stroke="#F8F8F8" stroke-width="1.33333" stroke-linecap="round" stroke-linejoin="round"/>
</svg>
